<?xml version="1.0" encoding="UTF-8"?>
<svg xmlns="http://www.w3.org/2000/svg" version="1.1" viewBox="0 0 1035 235">
  <defs>
    <style>
      .cls-1 {
        fill: #fff;
      }

      .cls-2 {
        fill: #1a3763;
      }
    </style>
  </defs>
  <!-- Generator: Adobe Illustrator 28.7.0, SVG Export Plug-In . SVG Version: 1.2.0 Build 136)  -->
  <g>
    <g id="Layer_1">
      <path class="cls-2" d="M98.8,75.5h24.6l7-5.1h-32.3c.2,1.7.4,3.4.7,5.1ZM142.6,52.8h-42.4c-.5,1.3-1,3-1.4,5.1h43.4c.5-1.7.7-3.4.4-5.1ZM93.4,127.8c-1.4,1.6-2.7,3.3-3.9,5.1h56.6c1.8-1.7,3.3-3.4,3.7-5.1,0,0-56.4,0-56.4,0ZM81.4,146.8l-.2.5c-.5,1.6-.9,3.1-1.1,4.6h34.7c3-1.5,6.3-3.2,9.8-5.1,0,0-43.2,0-43.2,0ZM110,113.6h39.4c-.7-1.9-1.6-3.6-2.5-5.1h-30.4c-.3.3-.7.5-1,.8-1.7,1.3-3.6,2.8-5.5,4.3ZM94.6,205.2h-28.9s2.7-5.1,5-5.1h16.7l7.2,5.1Z"/>
      <path class="cls-2" d="M47.4,45.2c1.8,1,4.3,1.9,8.3,2.6,15.7,3,31.1-3,37.5-6,6.4-3,26.9-3,26.9-3,5.4.3,9.4.8,12.3,1.5,4.7,1.2,9.8,3.5,13.5,7.6,8.7,9.8-7.9,22.5-7.9,22.5l-22,16.1s-20.9,14.6-26.5,19.3c-5.7,4.7-25.4,22-27.8,43-1.8,15.7,2.2,23.4,10.5,31.7-5.8,4.3-11,9.2-13.8,14.1-4.3,7.6-3.5,13.8-1.8,19.2,1.9,6.2,1.2-1.4,1.9-6.4,1.1-6.9,6.2-10.1,16.8-16.8,1.5-.9,3.1-1.9,4.7-2.9l2.1,1.8c11.1,8.6,22.3,17,31.4,22.4,3.1,1.8,7.1,4,7.4,3.6.5-.9-4.8-5.7-4.8-5.7l-28.1-26.8c3.2-1.9,6.7-3.8,10.7-5.9,32.5-15.8,44.1-22.1,44.1-22.1,0,0,32.7-14.5,25.1-34.7-8.6-19.7-23.1-25.2-23.1-25.2,0,0-6.6-3.3-1.3,1.8,1.4,1.4,4.6,4.3,4.6,4.3,0,0,25.2,26.4-6.1,42.2-26,14.2-40.2,19.9-45.2,22.5-2.3,1.2-9,4.5-16.2,9.1-4.5-6.1-9.3-15.9-5.4-27.7,6.4-19.6,21.8-30.1,31.8-38,10.1-7.9,39.3-28,39.3-28,0,0,20.7-12.6,14.8-35.1-6-22.5-39.6-20.5-39.8-20.5-11.9-.6-23.2.1-26.8-.1-6.8-.4-6-3-15.8-4.7-9.8-1.7-14.5,3.8-16.2,6-1.7,2.1-13.7,9-16.2,10.2-1.8.9-4.6,4.5.1,7.5M270.8,139.4v64.8h-15.5l1-46.2.2-6.5-.6,2.3c-.8,3.7-.9,4.1-1.7,6.9l-12.2,43.5h-14l-11.8-41.7-2.8-11.6c.3,5.1.3,6.2.6,12.4l.8,40.9h-15.7v-64.8h23.7l9.9,36.4,2.3,10.4c.9-4.5,1-5,1.7-8l10.4-38.7h23.7,0ZM328.2,192c-1.7,2.5-3.3,4.9-5.8,7.2-4.1,3.9-10.4,6.8-18.1,6.8-14.2,0-24.2-9.1-24.2-24.8s5.7-26.4,24.6-26.4,11.1.3,17.3,6.9c6.2,6.7,6.6,16.1,6.8,21.5h-34.2c-.1,6,3.3,11.9,10.9,11.9s10.4-5.1,12.1-8.5l10.6,5.4h0ZM314.1,174.3c-.3-2-.6-4.7-2.7-6.8-1.7-1.7-4.4-2.7-6.9-2.7s-5.8,1.7-7.2,3.1c-1.9,2.1-2.4,4.3-2.8,6.3h19.6ZM383.6,139.4v64.8h-12.9v-4.5c-2.2,2.2-5.9,5.8-12.9,5.8s-9.7-1.8-13.5-5.5c-7-6.7-7-16.3-7-19.5,0-18.1,10.3-25.5,19.9-25.5s10.1,2.9,12.7,4.9v-20.5h13.7,0ZM370.2,180.3c0-2.2,0-8.2-3-11.8-.6-.8-2.7-2.8-5.5-2.8-10,0-10,12.6-10,14.7,0,6.7,1.8,14.9,9,14.9s3.2-.6,4.6-1.5c4.9-3.5,4.9-10.9,4.9-13.5h0ZM396.2,139.3h14v10.9h-14s0-10.9,0-10.9ZM396.2,156.2h14v48h-14v-48ZM466.6,192.9c-1.7,2.7-3.7,5.8-7.5,8.5-3.7,2.6-8.4,4.3-13.8,4.3-9.2,0-23.8-5.5-23.8-25.1s8.1-25.7,24.1-25.7,14.4,1.5,20.5,11.5l-10.5,6c-.8-1.7-1.7-3.4-4-5.1-1.4-.9-3.1-1.7-5.3-1.7-7.6,0-10.2,8.7-10.2,14.5s3.1,14.3,10.7,14.3,4.2,0,7.2-3.3c1.2-1.4,1.6-2.5,2.1-3.9l10.5,5.7h0ZM476.1,169.9c.3-3.3.7-7.3,5-10.7,4.4-3.5,10.1-4.2,15.7-4.2s20.1,1.4,20.1,13.8v27.9c0,5.1.3,5.9,1.4,7.5h-13.9v-4.4c-3.6,2.7-7.6,5.7-14.7,5.7-11,0-15.7-7.9-15.7-14.6s6.2-12.1,10.1-13.8,12.9-3.3,18.9-4.4v-2.6c-.2-2.2-.4-5.9-5.4-5.9s-7.1,3.9-7.4,5.6h-14.1ZM494,184.3c-2.4.9-6.1,2.3-6.1,6s2,4.9,5.3,4.9,3.4-.6,4.9-1.6c4.7-2.9,4.9-7.3,5-12.3l-9.1,3h0ZM543.9,139.4v64.8h-14.1v-64.8s14.1,0,14.1,0ZM594,184.8c1.7,1.8,3,3.3,6.2,5.1,4.3,2.3,8.7,3.1,12.5,3.1,6.4,0,11.9-3,11.9-7.5s-6.5-6-11.3-6.6c-3.6-.5-7.2-.9-10.7-1.6-3.9-.8-17.4-3.7-17.4-17.6s14.9-21.7,26.1-21.7,23,7.3,28.6,12.3l-11.9,8.5c-2-2-3.9-3.8-6.4-5.2-2.3-1.3-6.4-2.8-10.6-2.8-6.4,0-9.6,3.7-9.6,6.8,0,5,5.5,5.7,8.3,6.1,6.9.8,16.2,2.6,19.8,3.9,7.4,2.8,11.2,8.5,11.2,15.9s-1.7,9.8-5.1,13.8c-5.9,6.8-15.2,8.7-24.3,8.7-18.3,0-25.5-8.4-29.6-13.1l12.3-8.1h0ZM694,192.9c-1.7,2.7-3.7,5.8-7.5,8.5-3.7,2.6-8.4,4.3-13.8,4.3-9.2,0-23.8-5.5-23.8-25.1s8.1-25.7,24.1-25.7,14.4,1.5,20.5,11.5l-10.5,6c-.8-1.7-1.7-3.4-4-5.1-1.4-.9-3.1-1.7-5.3-1.7-7.6,0-10.2,8.7-10.2,14.5s3.1,14.3,10.7,14.3,4.2,0,7.2-3.3c1.2-1.4,1.7-2.5,2.1-3.9l10.5,5.7ZM703.8,139.3h14v10.9h-14v-10.9ZM703.8,156.2h14v48h-14v-48ZM775.3,192c-1.7,2.5-3.3,4.9-5.8,7.2-4.1,3.9-10.4,6.8-18.1,6.8-14.2,0-24.2-9.1-24.2-24.8s5.7-26.4,24.6-26.4,11.1.3,17.3,6.9c6.2,6.7,6.6,16.1,6.8,21.5h-34.2c0,6,3.3,11.9,10.9,11.9s10.4-5.1,12.1-8.5l10.6,5.4h0ZM761.2,174.3c-.3-2-.6-4.7-2.7-6.8-1.7-1.7-4.4-2.7-6.9-2.7s-5.8,1.7-7.2,3.1c-1.9,2.1-2.4,4.3-2.8,6.3h19.6ZM800.3,160.6c1.4-1.5,2.3-2.6,4.8-3.8,2.2-.9,5.3-1.7,8.7-1.7s6.1.6,8.5,1.9c5.1,2.7,6.3,7,6.3,14.4v32.8h-14v-27c0-4.3,0-5.9-.6-7.2-1.1-2.6-3.6-3.7-6.3-3.7-7.4,0-7.4,6-7.4,11.9v25.9h-14.3v-47.8h14.2v4.3h0ZM883.2,192.9c-1.7,2.7-3.7,5.8-7.5,8.5-3.7,2.6-8.4,4.3-13.8,4.3-9.2,0-23.8-5.5-23.8-25.1s8.1-25.7,24.1-25.7,14.4,1.5,20.5,11.5l-10.5,6c-.8-1.7-1.7-3.4-4-5.1-1.4-.9-3.1-1.7-5.3-1.7-7.6,0-10.2,8.7-10.2,14.5s3.1,14.3,10.7,14.3,4.2,0,7.2-3.3c1.2-1.4,1.7-2.5,2.1-3.9l10.5,5.7ZM937.6,192c-1.6,2.5-3.3,4.9-5.8,7.2-4.1,3.9-10.4,6.8-18.1,6.8-14.2,0-24.2-9.1-24.2-24.8s5.7-26.4,24.6-26.4,11.1.3,17.3,6.9c6.2,6.7,6.6,16.1,6.8,21.5h-34.2c0,6,3.3,11.9,10.9,11.9s10.4-5.1,12.1-8.5l10.6,5.4h0ZM923.6,174.3c-.3-2-.6-4.7-2.7-6.8-1.7-1.7-4.4-2.7-6.9-2.7s-5.8,1.7-7.2,3.1c-1.9,2.1-2.4,4.3-2.8,6.3h19.6ZM954.4,188.1c3.9,3.8,8.6,6.6,14,6.6s8.5-1.1,8.5-4.7-1-2.3-1.8-2.8c-2.1-1.1-5.4-1.4-8.2-1.8-2.1-.4-4.3-.8-6.4-1.5-2.9-.8-5.9-2-8-4.1s-3.6-5.4-3.6-9c0-7.9,6.8-16.1,20.2-16.1s18.1,4.9,21.4,7.2l-8.7,8.1c-4.5-3.5-8.7-4.8-12-4.8-5.5,0-6.8,2.2-6.8,3.6,0,2.8,3,3.3,7.6,4.1,9.6,1.7,20.8,4.3,20.8,15.7s-11.4,16.8-22.7,16.8-20.2-6.4-23.2-9.3l8.9-8ZM223.7,42.8v57.2h-8.7v-57.2h-19.4v-7.6h47.5v7.6h-19.4ZM254.2,35.2h7.4v25.9c4.6-4.9,9-5.7,13.1-5.7,9.5,0,13.3,5.3,14.6,9.5.8,2.8.8,5.6.8,9.9v25.1h-7.4v-22.7c0-5.7,0-9-1.7-11.6-1.8-2.7-4.8-3.7-7.6-3.7-4.7,0-9.7,2.6-11.2,9.3-.6,2.4-.6,4.7-.6,7.9v21h-7.4V35.2h0ZM342.1,86.8c-1,2.9-4.9,14.6-19.5,14.6s-21.2-8.7-21.2-23.3,11.7-22.6,20.9-22.6,16.4,4.4,19,15.3c.8,3.7.8,7,.8,8.8h-32.8c-.2,7.2,3.7,16.2,13.9,16.2s10.2-4.3,11.5-10.1l7.4,1.1h0ZM334.1,74.4c-.6-11.4-8.8-13.3-12.4-13.3-6.2,0-11.5,4.6-12.3,13.3h24.7,0ZM416.1,35.1l23.9,64.8h-17.3l-3.2-10.4h-23.9l-3.2,10.4h-17.3l24.1-64.8s16.9,0,16.9,0ZM407.4,50.5c-.8,3.3-1.7,6.7-2.7,10-1.4,4.9-3.9,12.5-5.3,17.4h16.4l-8.4-27.4ZM490.3,88.6c-1.7,2.8-3.7,5.8-7.5,8.5-3.7,2.6-8.4,4.3-13.8,4.3-9.2,0-23.8-5.5-23.8-25.1s8.1-25.7,24.1-25.7,14.4,1.5,20.5,11.5l-10.5,6c-.8-1.7-1.7-3.4-4-5.1-1.4-.9-3.1-1.7-5.3-1.7-7.6,0-10.2,8.7-10.2,14.5s3.1,14.3,10.7,14.3,4.2,0,7.2-3.3c1.2-1.4,1.7-2.5,2.1-3.9l10.5,5.7h0ZM501.6,65.6c.3-3.3.7-7.3,5.1-10.7,4.4-3.5,10.1-4.2,15.7-4.2s20.1,1.4,20.1,13.8v27.9c0,5.1.3,5.9,1.4,7.5h-13.9v-4.4c-3.6,2.7-7.6,5.7-14.7,5.7-11,0-15.7-7.9-15.7-14.6s6.2-12.1,10.1-13.8,12.9-3.3,18.9-4.4v-2.6c-.2-2.2-.4-5.9-5.4-5.9s-7.1,3.9-7.4,5.6h-14.2ZM519.5,80c-2.4.9-6.1,2.3-6.1,6s2,4.9,5.3,4.9,3.4-.6,4.9-1.6c4.7-2.9,4.9-7.3,5-12.3l-9.1,3h0ZM600.2,35.1v64.8h-12.9v-4.5c-2.2,2.2-5.9,5.8-12.9,5.8s-9.7-1.8-13.5-5.5c-7-6.7-7-16.3-7-19.5,0-18.1,10.3-25.5,19.9-25.5s10.1,2.9,12.7,4.9v-20.5s13.7,0,13.7,0ZM586.8,75.9c0-2.2,0-8.2-3-11.8-.6-.8-2.7-2.8-5.5-2.8-10,0-10,12.6-10,14.7,0,6.7,1.8,14.9,9,14.9s3.2-.6,4.6-1.5c4.9-3.5,4.9-10.8,4.9-13.5ZM659.3,87.7c-1.7,2.5-3.3,4.9-5.8,7.2-4.1,3.9-10.4,6.8-18.1,6.8-14.2,0-24.2-9.1-24.2-24.8s5.7-26.4,24.6-26.4,11.1.3,17.3,6.9c6.2,6.7,6.6,16.1,6.8,21.5h-34.2c0,6,3.3,11.9,10.9,11.9s10.4-5.1,12.1-8.4l10.6,5.3h0ZM645.3,70c-.3-2-.6-4.7-2.7-6.8-1.7-1.7-4.4-2.7-6.9-2.7s-5.8,1.7-7.2,3.1c-1.9,2.1-2.4,4.3-2.8,6.3h19.6ZM685.6,57c1.7-1.9,5.3-6.2,13.6-6.2s10.7,2.9,13.3,5.6c2.8-2.3,6.6-5.6,14.2-5.6s11.9,4,13.4,6.9c1.2,2.6,1.3,5.9,1.3,11v31.2h-14v-25.2c0-2.8,0-6.3-.6-8.2-1.3-4-5.1-4.3-6.2-4.3s-3.2.4-4.6,1.5c-2.7,2.1-2.7,4.9-2.7,10.1v26.1h-14v-28.4c0-2.1,0-5-1.4-6.8-1.1-1.5-3.2-2.5-5.5-2.5s-2.6.3-3.9,1.1c-3.1,2.1-3.2,6-3.2,9.3v27.3h-14v-47.8h14v4.9h.3ZM795.6,52l-16.9,51.8c-1.1,3.1-2.1,6.1-4.5,8.7-3.3,3.6-6.5,3.8-10.2,3.9h-10.2v-11.3h5c2.3,0,5.9,0,5.9-3.5s-.4-2.4-.6-3.4l-14.4-46.2h15.1l7.9,34.3,7.9-34.3h15,0ZM860.7,74.2c0,6.5-2.6,13.7-7.3,19.4-4.1,5.1-9,8-15.2,8-9.1,0-13.3-4.9-13.3-14.1s2.8-14.1,7.6-19.8c4.7-5.5,9.4-8.9,15-8.9,8.5,0,13.2,5.7,13.2,15.4ZM847.4,61.1c-3.7,0-7,3.2-10,9.6-3.5,7.5-5.2,15.8-5.2,20.5s2.1,7.9,6.3,7.9,7.6-3.5,10.4-10.7c3-7.6,4.4-14.8,4.4-19.3s-2.2-8-5.9-8ZM896.4,61.4l-.5,2.8h-9.7l-7.6,30c-5.3,20.8-8.5,31.4-19.7,31.4s-8-2.3-8-5.3,1.3-3,3.2-3,2.5,1.4,3.5,3.2c.9,1.7,1.9,2.6,3.3,2.6,3.3,0,4.7-5.6,7.4-16.9l10.1-41.8h-8.4l.5-2.8h8.6c4.4-18.3,11.9-27.4,22.6-27.4s9.7,2.8,9.7,6.1-1.4,2.9-2.9,2.9-2.4-.7-3.3-2.3c-1.3-2.3-2.1-4-5.3-4-4.7,0-8.4,5.3-11,16.2l-2.1,8.4h9.6Z"/>
      <circle class="cls-1" cx="69.6" cy="31.6" r="3.7"/>
      <path class="cls-2" d="M51.7,44.3c-1.2.3-4.7,1-6,3.5-.5,1-1.8,1.8-3.3,2.1-1.3.3-6.1,1.3-6.8,1.6-2.1.9-1.3,1.4,2.4.7,1.9-.4,7-2.6,4.6,1.6-.7,1.3-1.8,2.4-1.8,2.4l-.8.8s-2.6,2.2,1.1.5c1.3-.6,3.3-2.6,4.4-4.6.9-1.7,1.4-2.7,1.4-2.7,0,0,1-2.2,3.1-3.7.9-.8,2.9-1.4,3-1.5"/>
    </g>
  </g>
</svg>