<svg xmlns="http://www.w3.org/2000/svg" xmlns:xlink="http://www.w3.org/1999/xlink" viewBox="0 0 977.9 202.8"><path d="M73.8 58.5h24.6l7-5.1H73.1c.2 1.7.4 3.4.7 5.1zm43.8-22.7H75.2c-.5 1.3-1 3-1.4 5.1h43.4c.5-1.7.7-3.4.4-5.1zm-49.2 75c-1.4 1.6-2.7 3.3-3.9 5.1h56.6c1.8-1.7 3.3-3.4 3.7-5.1H68.4zm-12 19l-.2.5c-.5 1.6-.9 3.1-1.1 4.6h34.7c3-1.5 6.3-3.2 9.8-5.1H56.4zM85 96.6h39.4c-.7-1.9-1.6-3.6-2.5-5.1H91.5c-.3.3-.7.5-1 .8-1.7 1.3-3.6 2.8-5.5 4.3zm-15.4 91.6H40.7s2.7-5.1 5-5.1h16.7l7.2 5.1z" fill="#1A3763"/><path fill="#1A3763" d="M22.4 28.2c1.8 1 4.3 1.9 8.3 2.6 15.7 3 31.1-3 37.5-6 6.4-3 26.9-3 26.9-3 5.4.3 9.4.8 12.3 1.5 4.7 1.2 9.8 3.5 13.5 7.6 8.7 9.8-7.9 22.5-7.9 22.5L91 69.5S70.1 84.1 64.5 88.8c-5.7 4.7-25.4 22-27.8 43-1.8 15.7 2.2 23.4 10.5 31.7-5.8 4.3-11 9.2-13.8 14.1-4.3 7.6-3.5 13.8-1.8 19.2 1.9 6.2 1.2-1.4 1.9-6.4 1.1-6.9 6.2-10.1 16.8-16.8 1.5-.9 3.1-1.9 4.7-2.9l2.1 1.8c11.1 8.6 22.3 17 31.4 22.4 3.1 1.8 7.1 4 7.4 3.6.5-.9-4.8-5.7-4.8-5.7L63 166c3.2-1.9 6.7-3.8 10.7-5.9 32.5-15.8 44.1-22.1 44.1-22.1s32.7-14.5 25.1-34.7c-8.6-19.7-23.1-25.2-23.1-25.2s-6.6-3.3-1.3 1.8c1.4 1.4 4.6 4.3 4.6 4.3s25.2 26.4-6.1 42.2c-26 14.2-40.2 19.9-45.2 22.5-2.3 1.2-9 4.5-16.2 9.1-4.5-6.1-9.3-15.9-5.4-27.7 6.4-19.6 21.8-30.1 31.8-38 10.1-7.9 39.3-28 39.3-28s20.7-12.6 14.8-35.1c-6-22.5-39.6-20.5-39.8-20.5-11.9-.6-23.2.1-26.8-.1-6.8-.4-6-3-15.8-4.7-9.8-1.7-14.5 3.8-16.2 6-1.7 2.1-13.7 9-16.2 10.2-1.8.9-4.6 4.5.1 7.5m224.4 94.8v64.8h-15.5l1-46.2.2-6.5-.6 2.3c-.8 3.7-.9 4.1-1.7 6.9L217 187.2h-14l-11.8-41.7-2.8-11.6c.3 5.1.3 6.2.6 12.4l.8 40.9h-15.7v-64.8h23.7l9.9 36.4 2.3 10.4c.9-4.5 1-5 1.7-8l10.4-38.7h23.7zm57.4 52.6c-1.7 2.5-3.3 4.9-5.8 7.2-4.1 3.9-10.4 6.8-18.1 6.8-14.2 0-24.2-9.1-24.2-24.8 0-11.6 5.7-26.4 24.6-26.4 2.8 0 11.1.3 17.3 6.9 6.2 6.7 6.6 16.1 6.8 21.5h-34.2c-.1 6 3.3 11.9 10.9 11.9 7.7 0 10.4-5.1 12.1-8.5l10.6 5.4zm-14.1-17.7c-.3-2-.6-4.7-2.7-6.8-1.7-1.7-4.4-2.7-6.9-2.7-3.4 0-5.8 1.7-7.2 3.1-1.9 2.1-2.4 4.3-2.8 6.3h19.6zm69.5-34.9v64.8h-12.9v-4.5c-2.2 2.2-5.9 5.8-12.9 5.8-4.8 0-9.7-1.8-13.5-5.5-7-6.7-7-16.3-7-19.5 0-18.1 10.3-25.5 19.9-25.5 6.3 0 10.1 2.9 12.7 4.9v-20.5h13.7zm-13.4 40.9c0-2.2 0-8.2-3-11.8-.6-.8-2.7-2.8-5.5-2.8-10 0-10 12.6-10 14.7 0 6.7 1.8 14.9 9 14.9 1.6 0 3.2-.6 4.6-1.5 4.9-3.5 4.9-10.9 4.9-13.5zm26-41h14v10.9h-14v-10.9zm0 16.9h14v48h-14v-48zm70.4 36.7c-1.7 2.7-3.7 5.8-7.5 8.5-3.7 2.6-8.4 4.3-13.8 4.3-9.2 0-23.8-5.5-23.8-25.1 0-14 8.1-25.7 24.1-25.7 5.3 0 14.4 1.5 20.5 11.5l-10.5 6c-.8-1.7-1.7-3.4-4-5.1-1.4-.9-3.1-1.7-5.3-1.7-7.6 0-10.2 8.7-10.2 14.5 0 6.3 3.1 14.3 10.7 14.3.7 0 4.2 0 7.2-3.3 1.2-1.4 1.6-2.5 2.1-3.9l10.5 5.7zm9.5-23c.3-3.3.7-7.3 5-10.7 4.4-3.5 10.1-4.2 15.7-4.2 5.9 0 20.1 1.4 20.1 13.8v27.9c0 5.1.3 5.9 1.4 7.5h-13.9v-4.4c-3.6 2.7-7.6 5.7-14.7 5.7-11 0-15.7-7.9-15.7-14.6 0-7.7 6.2-12.1 10.1-13.8 3.9-1.7 12.9-3.3 18.9-4.4v-2.6c-.2-2.2-.4-5.9-5.4-5.9-6.2 0-7.1 3.9-7.4 5.6h-14.1zm17.9 14.4c-2.4.9-6.1 2.3-6.1 6 0 2.3 2 4.9 5.3 4.9 1.7 0 3.4-.6 4.9-1.6 4.7-2.9 4.9-7.3 5-12.3l-9.1 3zm49.9-44.9v64.8h-14.1v-64.8h14.1zm50.1 45.4c1.7 1.8 3 3.3 6.2 5.1 4.3 2.3 8.7 3.1 12.5 3.1 6.4 0 11.9-3 11.9-7.5 0-5.1-6.5-6-11.3-6.6-3.6-.5-7.2-.9-10.7-1.6-3.9-.8-17.4-3.7-17.4-17.6 0-16.7 14.9-21.7 26.1-21.7 15 0 23 7.3 28.6 12.3l-11.9 8.5c-2-2-3.9-3.8-6.4-5.2-2.3-1.3-6.4-2.8-10.6-2.8-6.4 0-9.6 3.7-9.6 6.8 0 5 5.5 5.7 8.3 6.1 6.9.8 16.2 2.6 19.8 3.9 7.4 2.8 11.2 8.5 11.2 15.9 0 4.7-1.7 9.8-5.1 13.8-5.9 6.8-15.2 8.7-24.3 8.7-18.3 0-25.5-8.4-29.6-13.1l12.3-8.1zm100 8.1c-1.7 2.7-3.7 5.8-7.5 8.5-3.7 2.6-8.4 4.3-13.8 4.3-9.2 0-23.8-5.5-23.8-25.1 0-14 8.1-25.7 24.1-25.7 5.3 0 14.4 1.5 20.5 11.5l-10.5 6c-.8-1.7-1.7-3.4-4-5.1-1.4-.9-3.1-1.7-5.3-1.7-7.6 0-10.2 8.7-10.2 14.5 0 6.3 3.1 14.3 10.7 14.3.7 0 4.2 0 7.2-3.3 1.2-1.4 1.7-2.5 2.1-3.9l10.5 5.7zm9.8-53.6h14v10.9h-14v-10.9zm0 16.9h14v48h-14v-48zm71.5 35.8c-1.7 2.5-3.3 4.9-5.8 7.2-4.1 3.9-10.4 6.8-18.1 6.8-14.2 0-24.2-9.1-24.2-24.8 0-11.6 5.7-26.4 24.6-26.4 2.9 0 11.1.3 17.3 6.9 6.2 6.7 6.6 16.1 6.8 21.5h-34.2c-.1 6 3.3 11.9 10.9 11.9 7.7 0 10.4-5.1 12.1-8.5l10.6 5.4zm-14.1-17.7c-.3-2-.6-4.7-2.7-6.8-1.7-1.7-4.4-2.7-6.9-2.7-3.4 0-5.8 1.7-7.2 3.1-1.9 2.1-2.4 4.3-2.8 6.3h19.6zm39.1-13.7c1.4-1.5 2.3-2.6 4.8-3.8 2.2-.9 5.3-1.7 8.7-1.7 2.8 0 6.1.6 8.5 1.9 5.1 2.7 6.3 7 6.3 14.4v32.8h-14v-27c0-4.3-.1-5.9-.6-7.2-1.1-2.6-3.6-3.7-6.3-3.7-7.4 0-7.4 6-7.4 11.9v25.9H761v-47.8h14.2v4.3zm82.9 32.3c-1.7 2.7-3.7 5.8-7.5 8.5-3.7 2.6-8.4 4.3-13.8 4.3-9.2 0-23.8-5.5-23.8-25.1 0-14 8.1-25.7 24.1-25.7 5.3 0 14.4 1.5 20.5 11.5l-10.5 6c-.8-1.7-1.7-3.4-4-5.1-1.4-.9-3.1-1.7-5.3-1.7-7.6 0-10.2 8.7-10.2 14.5 0 6.3 3.1 14.3 10.7 14.3.7 0 4.2 0 7.2-3.3 1.2-1.4 1.7-2.5 2.1-3.9l10.5 5.7zm54.4-.9c-1.6 2.5-3.3 4.9-5.8 7.2-4.1 3.9-10.4 6.8-18.1 6.8-14.2 0-24.2-9.1-24.2-24.8 0-11.6 5.7-26.4 24.6-26.4 2.8 0 11.1.3 17.3 6.9 6.2 6.7 6.6 16.1 6.8 21.5H879c-.1 6 3.3 11.9 10.9 11.9 7.7 0 10.4-5.1 12.1-8.5l10.6 5.4zm-14-17.7c-.3-2-.6-4.7-2.7-6.8-1.7-1.7-4.4-2.7-6.9-2.7-3.4 0-5.8 1.7-7.2 3.1-1.9 2.1-2.4 4.3-2.8 6.3h19.6zm30.8 13.8c3.9 3.8 8.6 6.6 14 6.6 3.4 0 8.5-1.1 8.5-4.7 0-1.7-1-2.3-1.8-2.8-2.1-1.1-5.4-1.4-8.2-1.8-2.1-.4-4.3-.8-6.4-1.5-2.9-.8-5.9-2-8-4.1-2.1-2.1-3.6-5.4-3.6-9 0-7.9 6.8-16.1 20.2-16.1 11.3 0 18.1 4.9 21.4 7.2l-8.7 8.1c-4.5-3.5-8.7-4.8-12-4.8-5.5 0-6.8 2.2-6.8 3.6 0 2.8 3 3.3 7.6 4.1 9.6 1.7 20.8 4.3 20.8 15.7 0 11.3-11.4 16.8-22.7 16.8-13.3 0-20.2-6.4-23.2-9.3l8.9-8zM198.7 25.8V83H190V25.8h-19.4v-7.6h47.5v7.6h-19.4zm30.5-7.6h7.4v25.9c4.6-4.9 9-5.7 13.1-5.7 9.5 0 13.3 5.3 14.6 9.5.8 2.8.8 5.6.8 9.9v25.1h-7.4V60.2c0-5.7 0-9-1.7-11.6-1.8-2.7-4.8-3.7-7.6-3.7-4.7 0-9.7 2.6-11.2 9.3-.6 2.4-.6 4.7-.6 7.9v21h-7.4V18.2zm87.9 51.6c-1 2.9-4.9 14.6-19.5 14.6-12.8 0-21.2-8.7-21.2-23.3 0-16.3 11.7-22.6 20.9-22.6 8 0 16.4 4.4 19 15.3.8 3.7.8 7 .8 8.8h-32.8c-.2 7.2 3.7 16.2 13.9 16.2 6.5 0 10.2-4.3 11.5-10.1l7.4 1.1zm-8-12.4c-.6-11.4-8.8-13.3-12.4-13.3-6.2 0-11.5 4.6-12.3 13.3h24.7zm82-39.3L415 82.9h-17.3l-3.2-10.4h-23.9l-3.2 10.4h-17.3l24.1-64.8h16.9zm-8.7 15.4c-.8 3.3-1.7 6.7-2.7 10-1.4 4.9-3.9 12.5-5.3 17.4h16.4l-8.4-27.4zm82.9 38.1c-1.7 2.8-3.7 5.8-7.5 8.5-3.7 2.6-8.4 4.3-13.8 4.3-9.2 0-23.8-5.5-23.8-25.1 0-14 8.1-25.7 24.1-25.7 5.3 0 14.4 1.5 20.5 11.5l-10.5 6c-.8-1.7-1.7-3.4-4-5.1-1.4-.9-3.1-1.7-5.3-1.7-7.6 0-10.2 8.7-10.2 14.5 0 6.3 3.1 14.3 10.7 14.3.7 0 4.2 0 7.2-3.3 1.2-1.4 1.7-2.5 2.1-3.9l10.5 5.7zm11.3-23c.3-3.3.7-7.3 5.1-10.7 4.4-3.5 10.1-4.2 15.7-4.2 5.9 0 20.1 1.4 20.1 13.8v27.9c0 5.1.3 5.9 1.4 7.5H505v-4.4c-3.6 2.7-7.6 5.7-14.7 5.7-11 0-15.7-7.9-15.7-14.6 0-7.7 6.2-12.1 10.1-13.8 3.9-1.7 12.9-3.3 18.9-4.4v-2.6c-.2-2.2-.4-5.9-5.4-5.9-6.2 0-7.1 3.9-7.4 5.6h-14.2zM494.5 63c-2.4.9-6.1 2.3-6.1 6 0 2.3 2 4.9 5.3 4.9 1.7 0 3.4-.6 4.9-1.6 4.7-2.9 4.9-7.3 5-12.3l-9.1 3zm80.7-44.9v64.8h-12.9v-4.5c-2.2 2.2-5.9 5.8-12.9 5.8-4.8 0-9.7-1.8-13.5-5.5-7-6.7-7-16.3-7-19.5 0-18.1 10.3-25.5 19.9-25.5 6.3 0 10.1 2.9 12.7 4.9V18.1h13.7zm-13.4 40.8c0-2.2 0-8.2-3-11.8-.6-.8-2.7-2.8-5.5-2.8-10 0-10 12.6-10 14.7 0 6.7 1.8 14.9 9 14.9 1.6 0 3.2-.6 4.6-1.5 4.9-3.5 4.9-10.8 4.9-13.5zm72.5 11.8c-1.7 2.5-3.3 4.9-5.8 7.2-4.1 3.9-10.4 6.8-18.1 6.8-14.2 0-24.2-9.1-24.2-24.8 0-11.6 5.7-26.4 24.6-26.4 2.8 0 11.1.3 17.3 6.9 6.2 6.7 6.6 16.1 6.8 21.5h-34.2c-.1 6 3.3 11.9 10.9 11.9 7.7 0 10.4-5.1 12.1-8.4l10.6 5.3zm-14-17.7c-.3-2-.6-4.7-2.7-6.8-1.7-1.7-4.4-2.7-6.9-2.7-3.4 0-5.8 1.7-7.2 3.1-1.9 2.1-2.4 4.3-2.8 6.3h19.6zm40.3-13c1.7-1.9 5.3-6.2 13.6-6.2 7.9 0 10.7 2.9 13.3 5.6 2.8-2.3 6.6-5.6 14.2-5.6 7.9 0 11.9 4 13.4 6.9 1.2 2.6 1.3 5.9 1.3 11v31.2h-14V57.7c0-2.8 0-6.3-.6-8.2-1.3-4-5.1-4.3-6.2-4.3-1.4 0-3.2.4-4.6 1.5-2.7 2.1-2.7 4.9-2.7 10.1v26.1h-14V54.5c0-2.1-.1-5-1.4-6.8-1.1-1.5-3.2-2.5-5.5-2.5-1.1 0-2.6.3-3.9 1.1-3.1 2.1-3.2 6-3.2 9.3v27.3h-14V35.1h14V40zm110-5l-16.9 51.8c-1.1 3.1-2.1 6.1-4.5 8.7-3.3 3.6-6.5 3.8-10.2 3.9h-10.2V88.1h5c2.3-.1 5.9-.1 5.9-3.5 0-1.2-.4-2.4-.6-3.4L724.7 35h15.1l7.9 34.3 7.9-34.3h15zm65.1 22.2c0 6.5-2.6 13.7-7.3 19.4-4.1 5.1-9 8-15.2 8-9.1 0-13.3-4.9-13.3-14.1 0-6.8 2.8-14.1 7.6-19.8 4.7-5.5 9.4-8.9 15-8.9 8.5 0 13.2 5.7 13.2 15.4zm-13.3-13.1c-3.7 0-7 3.2-10 9.6-3.5 7.5-5.2 15.8-5.2 20.5 0 5.2 2.1 7.9 6.3 7.9 4.5 0 7.6-3.5 10.4-10.7 3-7.6 4.4-14.8 4.4-19.3 0-5.2-2.2-8-5.9-8zm49 .3l-.5 2.8h-9.7l-7.6 30c-5.3 20.8-8.5 31.4-19.7 31.4-5 0-8-2.3-8-5.3 0-1.7 1.3-3 3.2-3 2 0 2.5 1.4 3.5 3.2.9 1.7 1.9 2.6 3.3 2.6 3.3 0 4.7-5.6 7.4-16.9l10.1-41.8H845l.5-2.8h8.6c4.4-18.3 11.9-27.4 22.6-27.4 5.8 0 9.7 2.8 9.7 6.1 0 1.8-1.4 2.9-2.9 2.9-1.6 0-2.4-.7-3.3-2.3-1.3-2.3-2.1-4-5.3-4-4.7 0-8.4 5.3-11 16.2l-2.1 8.4h9.6z"/><circle fill="#FFF" cx="44.6" cy="14.6" r="3.7"/><path fill="#1A3763" d="M26.7 27.3c-1.2.3-4.7 1-6 3.5-.5 1-1.8 1.8-3.3 2.1-1.3.3-6.1 1.3-6.8 1.6-2.1.9-1.3 1.4 2.4.7 1.9-.4 7-2.6 4.6 1.6-.7 1.3-1.8 2.4-1.8 2.4l-.8.8s-2.6 2.2 1.1.5c1.3-.6 3.3-2.6 4.4-4.6.9-1.7 1.4-2.7 1.4-2.7s1-2.2 3.1-3.7c.9-.8 2.9-1.4 3-1.5"/><image overflow="visible" width="219" height="52" xlink:href="Z.jpg" transform="translate(1023.359 -22.407)"/></svg>