<?xml version="1.0" encoding="UTF-8" standalone="no"?>
<!-- Created with Inkscape (http://www.inkscape.org/) -->

<svg
   width="170"
   height="96"
   viewBox="0 0 44.979167 25.4"
   version="1.1"
   id="svg1611"
   inkscape:version="1.2.2 (732a01da63, 2022-12-09)"
   sodipodi:docname="ades.svg"
   xmlns:inkscape="http://www.inkscape.org/namespaces/inkscape"
   xmlns:sodipodi="http://sodipodi.sourceforge.net/DTD/sodipodi-0.dtd"
   xmlns="http://www.w3.org/2000/svg"
   xmlns:svg="http://www.w3.org/2000/svg"
   xmlns:rdf="http://www.w3.org/1999/02/22-rdf-syntax-ns#"
   xmlns:cc="http://creativecommons.org/ns#"
   xmlns:dc="http://purl.org/dc/elements/1.1/">
  <title
     id="title2435">Association of Directors of Education in Scotland</title>
  <sodipodi:namedview
     id="namedview1613"
     pagecolor="#ffffff"
     bordercolor="#000000"
     borderopacity="0.25"
     inkscape:showpageshadow="2"
     inkscape:pageopacity="0.0"
     inkscape:pagecheckerboard="0"
     inkscape:deskcolor="#d1d1d1"
     inkscape:document-units="mm"
     showgrid="false"
     inkscape:zoom="2.5870788"
     inkscape:cx="-5.9913134"
     inkscape:cy="-37.687294"
     inkscape:window-width="1920"
     inkscape:window-height="1002"
     inkscape:window-x="2125"
     inkscape:window-y="-8"
     inkscape:window-maximized="1"
     inkscape:current-layer="layer1" />
  <defs
     id="defs1608" />
  <g
     inkscape:label="Layer 1"
     inkscape:groupmode="layer"
     id="layer1"
     transform="translate(-104.49578,-144.91597)">
    <g
       id="g1425"
       transform="matrix(0.35277777,0,0,-0.35277777,-46.152735,419.00297)">
      <g
         id="g360"
         transform="translate(523.8981,729.9137)">
        <path
           d="M 0,0 C 0.547,-0.15 1.532,1.106 1.751,1.643 2.945,4.551 -1.168,4.168 -0.947,2.298"
           style="fill:#003f7c;fill-opacity:1;fill-rule:nonzero;stroke:none"
           id="path362" />
      </g>
      <g
         id="g364"
         transform="translate(498.9721,757.5397)">
        <path
           d="m 0,0 c 1.073,-0.38 2.065,-0.727 3.133,-1.063 2.231,-0.701 4.684,-0.87 6.955,-0.129 1.028,0.335 2.094,0.945 3.258,0.717 0.646,-0.127 0.977,-0.749 1.631,-0.855 0.561,-0.089 1.11,0.256 1.631,0.197 0.578,-0.066 0.884,-0.574 1.419,-0.78 0.607,-0.234 1.078,-0.156 1.702,-0.126 1.092,0.054 2.264,0.533 3.336,0.777 0.974,0.222 2.492,0.026 3.4,-0.562 0.324,-0.211 1.103,-0.803 1.18,-1.208 0.034,-0.174 -0.117,-0.449 -0.06,-0.725 0.069,-0.333 0.113,-0.556 0.431,-0.763 0.029,-0.019 0.356,-0.654 0.522,-0.793 0.494,-0.413 1.116,-0.641 1.632,-1.023 0.37,-0.271 0.711,-0.594 1.002,-0.95 0.449,-0.546 0.423,-1.169 0.423,-1.169 l -0.456,-2.873 c 0,0 -0.25,-2.151 0.806,-3.172 1.626,-1.57 3.866,-2.504 4.378,-4.912 0.131,-0.617 0.232,-1.043 0.512,-1.631 0.241,-0.502 0.268,-1.205 0.564,-1.631 0.535,-0.766 2.408,-2.645 2.408,-2.645 l 1.748,-1.646 -2.861,0.637 c 0,0 -2.089,1.385 -5.78,0.325 -2.337,-0.57 -3.333,-0.932 -3.333,-0.932 0,0 -2.401,-0.527 -3.543,-0.63 -0.353,-0.034 -0.71,-0.058 -1.051,-0.062 -0.123,0.625 1.129,0.964 0.752,1.833 -0.297,0.689 -1.756,0.41 -1.756,0.41 l -1.774,-1.074 c 0,0 -2.189,-1.223 -3.261,-1.465 -0.536,-0.121 -1.096,-0.204 -1.631,-0.286 -0.59,-0.088 -1.443,0.214 -1.443,0.214 0,0 -0.946,0.957 -1.391,1.277 -0.779,0.561 -2.593,0.328 -3.547,0.286 -0.646,-0.027 -1.916,0.254 -1.916,0.254 0,0 -1.008,-0.225 -1.56,-0.254 -0.923,-0.047 -2.41,-0.889 -3.259,-1.293 -1.056,-0.5 -3.974,-0.268 -3.974,-0.268 l -1.659,6.597 c 0,0 -0.417,1.534 -0.324,2.556 0.114,1.251 -0.611,2.242 -0.941,3.383 -0.314,1.087 -0.441,2.357 -0.554,3.491 -0.261,2.666 -1.009,5.231 -1.558,7.854 -0.264,1.26 -0.155,2.691 -0.718,3.846 -0.692,1.415 0.303,0.854 1.174,0.636 C -2.926,0.012 -1.472,0.522 0,0"
           style="fill:#425a90;fill-opacity:1;fill-rule:nonzero;stroke:none"
           id="path366" />
      </g>
      <g
         id="g368"
         transform="translate(517.9751,747.0085)">
        <path
           d="m 0,0 c -0.026,0.094 -0.494,0.341 -0.78,0.497 -0.991,0.531 -3.12,1.23 -3.12,1.23 0,0 -2.091,0.519 -3.122,1.023 -0.472,0.229 -0.925,0.518 -1.413,0.658 -0.547,0.156 -1.218,0.065 -1.706,0.349 -0.533,0.31 -0.761,0.951 -1.347,1.227 -0.476,0.225 -1.141,0.285 -1.631,0.404 -0.536,0.128 -1.126,0.08 -1.578,0.409 -0.496,0.363 -0.608,0.834 -1.188,1.063 -0.564,0.224 -1.241,0.086 -1.772,0.354 -0.473,0.237 -0.705,0.765 -1.009,1.153 -0.691,0.885 -2.679,2.006 -2.679,2.006 0,0 -2.539,1.022 -3.434,0.798 -0.319,-0.507 0.529,-0.724 0.511,-2.323 0.041,-0.587 0.393,-2.082 0.393,-2.082 0,0 0.079,0.86 2.333,-1.215 2.254,-2.076 4.028,-2.435 4.028,-2.435 l 1.772,-1.34 c 0,0 2.269,0.493 3.316,-1.296 0.938,-0.552 2.06,-0.706 3.207,-1.063 1.243,-0.387 2.551,-0.419 3.689,-1.118 0.555,-0.341 1.63,-0.451 1.63,-0.451 0,0 1.275,-0.259 1.494,-0.684 0,-0.381 -1.052,-1.198 -1.352,-1.422 -0.569,-0.427 -0.845,-0.6 -1.293,-1.186 -0.792,-1.037 -2.893,-2.484 -2.893,-2.484 l -3.19,-1.293 c 0,0 -2.015,-0.781 -3.135,-1.419 -1.119,-0.634 -2.662,-2.489 -2.662,-2.489 0,0 -0.65,-0.607 -1.067,-1.056 -0.225,-0.242 -0.421,-0.554 -0.666,-0.775 -0.163,-0.147 -0.649,-0.511 -0.649,-0.511 l 0.374,-1.689 0.134,-0.568 c 0,0 2.745,0.172 3.787,0.762 0.957,0.542 2.592,2.804 2.592,2.804 0,0 0.652,0.732 1.218,0.972 0.525,0.223 1.636,0.71 1.636,0.71 0,0 1.842,0.071 3.099,1.574 1.084,1.262 2.287,1.293 2.766,1.54 0.479,0.247 2.001,2.238 2.497,2.289 0.496,0.05 2.433,2.165 2.433,2.165 0,0 1.54,-0.524 2.675,-1.174 1.135,-0.65 1.728,-1.311 2.609,-1.734 0.429,-0.205 0.832,-0.375 1.078,-0.601 0.246,-0.226 -0.167,-0.018 0.697,-1.151 0.865,-1.136 2.852,-1.806 3.282,-1.984 0.428,-0.179 1.695,-0.216 6.218,-2.697 0.919,-0.923 1.798,-1.62 2.837,-2.004 1.039,-0.386 3.199,-0.349 3.199,-0.349 0,0 -1.532,0.596 -2.033,1.021 -0.298,0.253 -1.671,0.948 -2.033,1.175 -0.362,0.228 -0.581,0.589 -0.879,0.884 -0.4,0.395 -0.637,0.624 -0.914,1.131 -0.51,0.943 -1.116,1.64 -2.005,2.184 -1.096,0.671 -3.334,1.394 -3.334,1.394 0,0 -1.457,1.19 -2.749,1.812 -1.292,0.622 -1.645,1.531 -2.641,2.164 -0.448,0.286 -2.09,1.154 -2.531,1.809 -0.305,0.453 -1.036,0.685 -1.282,1.132 -0.314,0.568 0.108,0.844 0.431,1.312 0.603,0.875 1.441,1.854 2.459,2.223 0.502,0.181 1.277,0.24 1.776,0.21 0.26,-0.015 0.632,0.481 1.133,-0.855 0.502,-1.335 3.386,1.098 3.386,1.098 0,0 0.388,1.815 -3.03,2.791 C 9.265,5.227 8.352,5.273 7.87,5.374 6.907,5.572 5.844,4.991 5.032,4.449 4.558,4.131 4.058,3.623 3.528,3.422 2.889,3.177 2.314,3.343 1.772,2.978 1.23,2.613 0.708,0.851 0.07,0.071"
           style="fill:#e7e7f0;fill-opacity:1;fill-rule:nonzero;stroke:none"
           id="path370" />
      </g>
      <g
         id="g372"
         transform="translate(499.8571,754.4333)">
        <path
           d="m 0,0 c -0.447,0.485 -0.76,1.075 -1.188,1.576 -0.215,0.252 -0.738,0.483 -0.738,0.483 0,0 -0.644,0.432 -0.944,0.63 -0.162,0.108 -0.325,0.207 -0.499,0.296 -0.259,0.133 -0.835,0.096 -0.965,-0.206 -0.08,-0.185 -0.037,-0.402 0.018,-0.588 0.216,-0.738 0.72,-1.406 1.119,-2.055 0.429,-0.701 0.907,-1.447 1.076,-2.263 0.119,-0.576 -0.032,-0.944 0.633,-0.98 0.363,-0.021 0.341,0.449 0.713,0.109 0.228,-0.211 0.085,-0.771 0.085,-0.771 0,0 0.712,-0.422 1.047,-0.452 0.333,-0.029 1.192,-0.797 1.192,-0.797 0,0 -0.685,1.678 -0.641,2.407 0.028,0.438 0.356,0.869 0.233,1.331 C 0.999,-0.744 0.368,-0.399 0,0"
           style="fill:#d3d4e4;fill-opacity:1;fill-rule:nonzero;stroke:none"
           id="path374" />
      </g>
      <g
         id="g376"
         transform="translate(503.5751,752.4108)">
        <path
           d="m 0,0 c 0.247,-0.419 0.504,-1.028 0.832,-1.367 0.591,-0.61 0.627,-0.248 1.098,0.275 0.379,-0.214 0.328,-2.09 0.411,-2.596 0.176,-1.082 0.195,-1.642 1.346,-1.929 0.275,-0.07 1.403,-0.305 1.403,-0.305 0,0 0.221,0.826 0.071,1.168 -0.139,0.316 -0.356,1.043 -0.551,1.279 -0.394,0.484 -0.614,0.252 -1.066,-0.112 -0.004,-0.005 -0.069,0.414 -0.067,0.46 0.007,0.16 0.043,0.316 0.088,0.469 0.086,0.293 0.225,0.577 0.271,0.881 0.046,0.311 -0.043,0.583 -0.273,0.8 -0.14,0.131 -0.017,0.181 -0.477,0.477 -1.821,0.687 -2.217,0.39 -2.523,0.483 -0.148,0.045 -0.461,0.12 -0.594,0.02"
           style="fill:#d3d4e4;fill-opacity:1;fill-rule:nonzero;stroke:none"
           id="path378" />
      </g>
      <g
         id="g380"
         transform="translate(513.8101,748.7047)">
        <path
           d="M 0,0 C 0,0 1.229,-2.713 2.321,-3.735 2.778,-4.164 3.557,-4.542 3.763,-5.201 3.976,-5.88 3.629,-8.034 3.629,-8.034 c 0,0 1.891,1.229 1.693,2.334 0.025,0.333 -0.332,0.801 -0.445,1.116 -0.149,0.41 -0.166,0.869 -0.353,1.292 -0.246,0.555 -0.725,0.794 -1.174,1.155 -0.435,0.351 -0.622,0.73 -0.99,1.131 -0.706,0.775 -2.5,1.122 -2.5,1.122"
           style="fill:#d3d4e4;fill-opacity:1;fill-rule:nonzero;stroke:none"
           id="path382" />
      </g>
      <g
         id="g384"
         transform="translate(519.1311,748.651)">
        <path
           d="M 0,0 C 0.658,0.005 1.208,0.188 1.514,0.773 1.687,1.105 1.843,0.873 2.079,1.101 2.185,1.203 2.291,1.531 2.422,1.57 2.541,1.604 2.806,1.418 2.896,1.35 3.164,1.142 3.307,0.821 3.458,0.526 3.997,-0.521 4.263,-0.174 5.26,0.176 5.848,0.384 6.479,0.123 6.608,0.761 6.727,1.357 6.249,1.838 5.751,1.773 5.242,1.709 4.723,0.926 4.494,1.896 4.342,2.538 4.863,2.995 3.965,2.477 3.635,2.287 3.347,1.998 2.978,1.879 2.796,1.822 2.618,1.848 2.441,1.797 2.218,1.731 2.039,1.559 1.813,1.494 1.517,1.409 1.188,1.493 0.896,1.4 0.597,1.306 0.416,1.079 0.278,0.796 0.212,0.662 0.142,0.512 0.082,0.372 0.034,0.263 0.02,0.123 -0.024,0.024"
           style="fill:#d3d4e4;fill-opacity:1;fill-rule:nonzero;stroke:none"
           id="path386" />
      </g>
      <g
         id="g388"
         transform="translate(526.7131,752.0973)">
        <path
           d="M 0,0 C 0.505,-0.728 0.39,-1.605 0.564,-2.414 0.635,-2.75 0.296,-4.746 1.63,-4.045 2.964,-3.344 1.536,-3.215 1.505,-2.892 1.462,-2.439 1.647,-2.009 1.63,-1.56 1.598,-0.637 0.741,-0.259 -0.071,0"
           style="fill:#d3d4e4;fill-opacity:1;fill-rule:nonzero;stroke:none"
           id="path390" />
      </g>
      <g
         id="g392"
         transform="translate(511.0611,739.3971)">
        <path
           d="M 0,0 C 0.435,0.342 0.555,0.733 1.067,0.706 1.4,0.69 1.932,0.389 2.269,0.268 3.15,-0.048 4.186,-0.789 3.173,-1.613 2.915,-1.823 2.357,-2.041 2.073,-2.075 1.731,-2.114 2.017,-2.286 1.61,-2.073 1.519,-2.024 1.48,-1.717 1.366,-1.613 0.976,-1.259 0.53,-1.428 0.353,-0.922 0.229,-0.57 0.768,0.205 0.08,0.154"
           style="fill:#d3d4e4;fill-opacity:1;fill-rule:nonzero;stroke:none"
           id="path394" />
      </g>
      <g
         id="g396"
         transform="translate(506.4321,737.5612)">
        <path
           d="M 0,0 C 0.305,-0.019 0.362,0.293 0.713,0.311 1.064,0.328 1.242,-0.81 1.684,-1.364 2.039,-1.811 1.439,-2.188 2.97,-2.682 2.311,-2.735 1.53,-3.211 0.656,-3.539 c -0.187,0.536 0.182,1.319 0.052,1.977 -0.101,0.528 -0.3,0.619 -0.568,1.011 -0.154,0.224 -0.647,0.648 0.003,0.48"
           style="fill:#d3d4e4;fill-opacity:1;fill-rule:nonzero;stroke:none"
           id="path398" />
      </g>
      <g
         id="g400"
         transform="translate(522.0331,744.3678)">
        <path
           d="m 0,0 c -0.353,-0.724 -0.088,-1.352 0.16,-2.053 0.252,-0.71 0.105,-1.524 0.762,-1.989 0.582,-0.411 1.407,-0.433 1.986,-0.865 0.463,-0.346 1.107,-2.024 1.621,-1.746 -0.052,0.213 -0.127,0.477 -0.193,0.682 0.702,0.573 0.647,-0.483 0.771,-0.833 0.164,-0.457 0.656,-1.013 1.194,-0.985 -0.1,0.37 -0.644,0.841 -0.858,1.25 -0.263,0.5 -0.375,0.786 -0.405,1.366 C 5.022,-4.863 5.1,-4.354 4.963,-3.971 4.769,-3.437 4.34,-3.327 3.881,-2.996 3.368,-2.625 3.161,-2.429 2.553,-2.391 2.233,-2.372 2.25,-2.675 1.93,-2.41 1.705,-2.224 1.845,-1.929 1.774,-1.701 1.533,-0.924 1.26,-1.113 0.707,-0.694"
           style="fill:#d3d4e4;fill-opacity:1;fill-rule:nonzero;stroke:none"
           id="path402" />
      </g>
      <g
         id="g404"
         transform="translate(529.5331,738.6422)">
        <path
           d="m 0,0 c -0.449,-0.123 0.423,-2.037 0.714,-2.413 0.691,-0.897 0.917,-1.59 2.182,-1.618 0.012,0.492 -0.217,0.994 -0.289,1.477 -0.064,0.438 0.21,1.246 -0.07,1.545 -0.267,0.281 -1.082,0.284 -1.474,0.529 -0.338,0.213 -0.997,0.821 -1.205,0.408"
           style="fill:#d3d4e4;fill-opacity:1;fill-rule:nonzero;stroke:none"
           id="path406" />
      </g>
      <g
         id="g408"
         transform="translate(498.7031,731.6042)">
        <path
           d="M 0,0 C 0.011,-0.502 0.193,-1.25 0.411,-1.702 0.725,-2.354 0.947,-2.195 1.635,-2.06 2.5,-1.889 3.844,-1.837 4.451,-1.121 5.101,-0.35 5.877,0.538 6.433,1.363 6.798,1.901 7.42,4.393 6.329,3.531 5.675,3.016 5.721,2.419 4.752,2.325 3.935,2.245 3.263,3.265 2.634,2.679 2.461,2.518 2.387,2.011 2.184,1.79 1.951,1.536 1.55,1.342 1.276,1.135 0.934,0.875 -0.066,0.238 0.13,-0.196 0.109,-0.215 0.091,-0.234 0.074,-0.256 -0.076,-0.194 0.024,-0.146 0,-0.07"
           style="fill:#d3d4e4;fill-opacity:1;fill-rule:nonzero;stroke:none"
           id="path410" />
      </g>
      <g
         id="g412"
         transform="translate(433.8161,718.446)">
        <path
           d="m 0,0 v 0 h 2.765 l 0.693,-1.699 0.09,-0.277 C 3.576,-2.074 3.592,-2.157 3.596,-2.221 3.604,-2.453 3.483,-2.583 3.233,-2.61 L 2.805,-2.652 C 2.69,-2.673 2.631,-2.724 2.626,-2.808 v -0.227 l 0.012,-0.066 0.031,-0.034 c 0.022,-0.021 0.06,-0.032 0.112,-0.032 0.136,0 0.489,0.019 1.059,0.055 0.187,0.011 0.487,0.017 0.901,0.017 0.208,0 0.344,-0.002 0.407,-0.006 l 1.053,-0.066 c 0.056,-0.003 0.095,0.006 0.118,0.025 l 0.031,0.035 0.012,0.072 v 0.276 L 6.35,-2.712 c -0.017,0.032 -0.073,0.053 -0.174,0.06 -0.227,0.004 -0.411,0.065 -0.555,0.184 -0.09,0.073 -0.189,0.242 -0.306,0.511 L 5.226,-1.747 2.139,5.616 C 2.122,5.644 2.104,5.669 2.084,5.693 2.063,5.706 2.045,5.714 2.024,5.718 L 1.97,5.706 C 1.909,5.683 1.86,5.651 1.82,5.616 L 1.254,5.18 1.092,5.06 C 1.067,5.044 1.05,5.025 1.044,5.006 L 1.012,4.916 0.959,4.712 0.75,3.964 C 0.689,3.772 0.582,3.449 0.426,2.994 l -1.594,-4.478 -0.181,-0.418 c -0.126,-0.301 -0.247,-0.491 -0.358,-0.571 -0.144,-0.103 -0.356,-0.164 -0.636,-0.179 -0.108,-0.004 -0.176,-0.033 -0.204,-0.083 l -0.017,-0.061 v -0.239 c 0,-0.083 0.047,-0.126 0.144,-0.132 0.16,-0.003 0.449,0.015 0.869,0.055 0.137,0.008 0.292,0.013 0.469,0.017 0.252,-0.004 0.517,-0.018 0.791,-0.047 0.133,-0.019 0.281,-0.028 0.445,-0.025 0.196,-0.003 0.288,0.039 0.276,0.129 v 0.262 l -0.013,0.064 c -0.014,0.027 -0.061,0.047 -0.132,0.06 -0.14,0.007 -0.267,0.022 -0.385,0.042 -0.353,0.039 -0.529,0.205 -0.529,0.498 -0.005,0.078 0.002,0.152 0.02,0.22 0.019,0.068 0.055,0.182 0.111,0.342 z M 2.497,0.582 V 0.585 H 0.208 V 0.582 L 1.254,3.657 H 1.252 Z"
           style="fill:#003f7c;fill-opacity:1;fill-rule:nonzero;stroke:none"
           id="path414" />
      </g>
      <g
         id="g416"
         transform="translate(465.0861,715.4176)">
        <path
           d="M 0,0 C -0.007,-0.027 -0.003,-0.052 0.011,-0.072 L 0.037,-0.106 C 0.06,-0.128 0.103,-0.139 0.163,-0.139 l 0.58,0.037 c 0.292,0.02 0.657,0.032 1.096,0.036 0.4,0 0.831,-0.01 1.294,-0.03 C 3.777,-0.128 4.246,-0.142 4.54,-0.139 5.822,-0.144 6.925,0.246 7.847,1.037 8.858,1.905 9.365,2.948 9.369,4.17 9.369,5.113 9.067,5.964 8.464,6.724 7.893,7.45 7.142,7.956 6.212,8.239 5.486,8.462 4.734,8.575 3.96,8.575 3.366,8.575 2.746,8.538 2.097,8.467 L 1.013,8.345 C 0.681,8.308 0.394,8.266 0.15,8.22 0.051,8.199 0,8.146 0,8.063 V 7.849 C -0.003,7.758 0.049,7.71 0.158,7.705 L 0.464,7.723 C 0.751,7.735 0.946,7.649 1.042,7.466 1.111,7.345 1.146,7.13 1.15,6.818 L 1.156,6.395 V 1.897 1.33 C 1.164,0.79 0.941,0.488 0.489,0.425 L 0.152,0.378 C 0.116,0.37 0.085,0.359 0.06,0.349 0.022,0.337 0,0.283 0,0.191 Z M 2.796,6.386 V 7.194 C 2.829,7.542 2.994,7.766 3.292,7.87 3.531,7.951 3.829,7.99 4.189,7.99 5.355,7.994 6.247,7.602 6.861,6.811 7.107,6.496 7.29,6.152 7.405,5.781 7.564,5.287 7.643,4.768 7.643,4.225 7.643,3.657 7.558,3.116 7.388,2.602 7.183,1.98 6.812,1.465 6.275,1.059 5.738,0.651 5.149,0.447 4.511,0.447 4.29,0.443 4.068,0.47 3.847,0.525 3.417,0.62 3.125,0.768 2.969,0.969 2.849,1.123 2.792,1.449 2.796,1.945 Z"
           style="fill:#003f7c;fill-opacity:1;fill-rule:nonzero;stroke:none"
           id="path418" />
      </g>
      <g
         id="g420"
         transform="translate(502.2521,717.4816)">
        <path
           d="m 0,0 0.006,-0.635 c 0.007,-0.419 0.103,-0.678 0.287,-0.779 0.152,-0.08 0.439,-0.122 0.863,-0.125 l 0.658,-0.006 c 0.269,-0.003 0.516,0.006 0.742,0.028 0.452,0.037 0.803,0.223 1.055,0.562 l 0.199,0.298 0.148,0.286 c 0.014,0.036 0.029,0.066 0.048,0.089 0.02,0.032 0.052,0.049 0.095,0.049 0.041,0 0.084,-0.011 0.133,-0.03 L 4.448,-0.353 4.519,-0.456 4.441,-0.676 4.104,-1.71 4.015,-1.998 C 3.983,-2.093 3.946,-2.154 3.906,-2.177 3.878,-2.197 3.83,-2.206 3.756,-2.203 l -0.748,0.033 -1.216,0.004 -1.634,0.03 -0.539,0.006 c -0.209,0 -0.53,-0.006 -0.965,-0.018 L -2.017,-2.17 -2.526,-2.203 H -2.64 c -0.108,0.006 -0.16,0.051 -0.155,0.138 v 0.247 l 0.016,0.047 c 0.032,0.051 0.095,0.079 0.182,0.083 l 0.296,0.023 c 0.296,0.025 0.488,0.157 0.578,0.396 0.056,0.152 0.084,0.401 0.084,0.748 v 0.462 4.667 0.401 c -0.021,0.584 -0.315,0.873 -0.879,0.873 -0.187,0 -0.277,0.051 -0.277,0.151 v 0.232 c 0,0.084 0.058,0.128 0.174,0.131 0.058,0 0.158,-0.003 0.292,-0.011 l 0.606,-0.03 c 0.432,-0.02 0.751,-0.027 0.958,-0.027 L 0.416,6.349 C 0.852,6.365 1.32,6.372 1.823,6.372 L 2.722,6.379 3.4,6.396 c 0.115,0 0.185,-0.025 0.203,-0.077 L 3.623,6.235 V 4.592 C 3.609,4.475 3.56,4.421 3.472,4.429 H 3.287 C 3.185,4.421 3.124,4.478 3.109,4.597 l -0.085,0.4 C 2.935,5.358 2.727,5.581 2.396,5.663 2.251,5.695 2.095,5.716 1.922,5.73 L 1.378,5.741 C 1.011,5.741 0.729,5.724 0.533,5.694 0.206,5.638 0.034,5.458 0.017,5.156 0.006,5.001 0,4.784 0,4.504 V 2.589 H 1.187 C 1.318,2.586 1.447,2.592 1.57,2.613 1.98,2.658 2.209,2.93 2.252,3.433 2.262,3.51 2.276,3.562 2.298,3.595 L 2.335,3.62 C 2.357,3.63 2.378,3.635 2.408,3.63 H 2.612 C 2.718,3.624 2.77,3.538 2.766,3.38 L 2.724,2.66 2.694,2.307 2.724,1.946 C 2.749,1.687 2.762,1.423 2.766,1.156 2.77,1.051 2.749,0.995 2.701,0.984 L 2.612,0.964 H 2.414 C 2.323,0.968 2.268,1.026 2.252,1.137 L 2.199,1.4 C 2.142,1.616 2.069,1.764 1.977,1.846 1.886,1.929 1.722,1.978 1.486,1.995 L 1.187,2.005 H 0 Z"
           style="fill:#003f7c;fill-opacity:1;fill-rule:nonzero;stroke:none"
           id="path422" />
      </g>
      <g
         id="g424"
         transform="translate(532.0871,717.3766)">
        <path
           d="m 0,0 c 0.053,-0.004 0.09,-0.014 0.112,-0.03 0.042,-0.035 0.078,-0.093 0.117,-0.173 0.404,-0.942 1.017,-1.415 1.833,-1.42 0.471,-0.007 0.869,0.111 1.19,0.35 0.371,0.279 0.561,0.638 0.569,1.08 C 3.826,0.368 3.479,0.812 2.784,1.141 L 1.471,1.76 C 0.826,2.063 0.354,2.404 0.051,2.78 -0.222,3.113 -0.358,3.567 -0.358,4.144 -0.365,4.886 -0.068,5.496 0.536,5.976 1.074,6.399 1.737,6.611 2.516,6.616 2.9,6.611 3.276,6.559 3.644,6.454 4.148,6.305 4.43,6.158 4.495,6.012 4.497,5.995 4.502,5.96 4.506,5.908 L 4.517,5.585 4.538,4.81 4.547,4.59 C 4.553,4.49 4.521,4.435 4.452,4.422 L 4.249,4.392 C 4.129,4.384 4.058,4.435 4.035,4.541 L 3.897,4.972 C 3.657,5.661 3.138,6.016 2.34,6.031 1.951,6.027 1.618,5.922 1.348,5.716 1.043,5.485 0.894,5.183 0.897,4.807 0.897,4.428 1.049,4.108 1.35,3.853 1.582,3.657 1.896,3.471 2.296,3.294 3,2.978 3.599,2.66 4.082,2.34 4.5,2.051 4.791,1.694 4.956,1.271 5.041,1.059 5.08,0.816 5.075,0.543 5.075,0.197 5.01,-0.135 4.884,-0.451 4.661,-1.021 4.259,-1.467 3.681,-1.791 3.192,-2.071 2.604,-2.211 1.92,-2.211 c -0.489,-0.002 -0.946,0.066 -1.369,0.21 -0.203,0.06 -0.405,0.145 -0.604,0.25 -0.075,0.033 -0.123,0.066 -0.144,0.102 -0.023,0.029 -0.036,0.068 -0.042,0.119 l -0.036,0.365 -0.089,0.686 -0.036,0.251 c -0.005,0.069 0.001,0.115 0.019,0.138 l 0.03,0.036 c 0.011,0.009 0.029,0.014 0.058,0.018 z"
           style="fill:#003f7c;fill-opacity:1;fill-rule:nonzero;stroke:none"
           id="path426" />
      </g>
      <g
         id="g428"
         transform="translate(433.1141,710.1539)">
        <path
           d="m 0,0 h -0.561 l -1.152,-3.273 h 0.431 l 0.307,0.906 h 1.374 l 0.307,-0.906 h 0.447 z m -0.847,-1.99 0.56,1.61 0.555,-1.61 z"
           style="fill:#003f7c;fill-opacity:1;fill-rule:nonzero;stroke:none"
           id="path430" />
      </g>
      <g
         id="g432"
         transform="translate(436.4201,707.5885)">
        <path
           d="m 0,0 c 0,-0.224 -0.088,-0.407 -0.268,-0.55 -0.18,-0.143 -0.426,-0.215 -0.736,-0.215 -0.176,0 -0.338,0.021 -0.485,0.065 -0.148,0.042 -0.27,0.091 -0.371,0.142 v 0.463 h 0.023 c 0.126,-0.098 0.264,-0.176 0.42,-0.234 0.155,-0.058 0.303,-0.088 0.445,-0.088 0.174,0 0.311,0.03 0.411,0.088 0.1,0.059 0.148,0.151 0.148,0.276 0,0.097 -0.026,0.17 -0.08,0.22 -0.054,0.049 -0.157,0.092 -0.31,0.127 -0.058,0.014 -0.132,0.029 -0.221,0.047 -0.092,0.016 -0.174,0.035 -0.248,0.056 -0.209,0.057 -0.355,0.141 -0.442,0.251 -0.088,0.109 -0.13,0.246 -0.13,0.406 0,0.102 0.019,0.197 0.06,0.285 0.039,0.09 0.1,0.169 0.184,0.238 0.079,0.07 0.181,0.125 0.304,0.164 0.123,0.041 0.26,0.063 0.411,0.063 0.14,0 0.285,-0.02 0.43,-0.057 0.146,-0.035 0.267,-0.078 0.364,-0.131 V 1.174 h -0.02 C -0.213,1.252 -0.337,1.317 -0.483,1.371 -0.628,1.425 -0.772,1.454 -0.911,1.454 -1.056,1.454 -1.18,1.424 -1.282,1.366 -1.38,1.31 -1.432,1.224 -1.432,1.11 -1.432,1.008 -1.401,0.933 -1.34,0.882 -1.28,0.831 -1.184,0.788 -1.051,0.756 -0.978,0.739 -0.897,0.722 -0.806,0.704 -0.714,0.687 -0.639,0.669 -0.578,0.655 -0.392,0.612 -0.25,0.536 -0.149,0.43 -0.048,0.322 0,0.18 0,0"
           style="fill:#003f7c;fill-opacity:1;fill-rule:nonzero;stroke:none"
           id="path434" />
      </g>
      <g
         id="g436"
         transform="translate(438.6941,707.5885)">
        <path
           d="m 0,0 c 0,-0.224 -0.09,-0.407 -0.271,-0.55 -0.177,-0.143 -0.424,-0.215 -0.736,-0.215 -0.175,0 -0.339,0.021 -0.484,0.065 -0.149,0.042 -0.272,0.091 -0.371,0.142 v 0.463 h 0.022 c 0.126,-0.098 0.267,-0.176 0.421,-0.234 0.154,-0.058 0.303,-0.088 0.445,-0.088 0.175,0 0.311,0.03 0.41,0.088 0.099,0.059 0.149,0.151 0.149,0.276 0,0.097 -0.026,0.17 -0.08,0.22 -0.054,0.049 -0.158,0.092 -0.31,0.127 -0.057,0.014 -0.13,0.029 -0.222,0.047 -0.09,0.016 -0.174,0.035 -0.247,0.056 -0.209,0.057 -0.356,0.141 -0.443,0.251 -0.087,0.109 -0.131,0.246 -0.131,0.406 0,0.102 0.02,0.197 0.061,0.285 0.04,0.09 0.102,0.169 0.186,0.238 0.078,0.07 0.179,0.125 0.303,0.164 0.122,0.041 0.259,0.063 0.41,0.063 0.143,0 0.285,-0.02 0.432,-0.057 0.144,-0.035 0.267,-0.078 0.363,-0.131 V 1.174 h -0.019 c -0.104,0.078 -0.227,0.143 -0.373,0.197 -0.146,0.054 -0.288,0.083 -0.428,0.083 -0.146,0 -0.269,-0.03 -0.37,-0.088 -0.101,-0.056 -0.15,-0.142 -0.15,-0.256 0,-0.102 0.03,-0.177 0.091,-0.228 0.06,-0.051 0.155,-0.094 0.288,-0.126 C -0.982,0.739 -0.899,0.722 -0.808,0.704 -0.716,0.687 -0.642,0.669 -0.579,0.655 -0.396,0.612 -0.253,0.536 -0.151,0.43 -0.052,0.322 0,0.18 0,0"
           style="fill:#003f7c;fill-opacity:1;fill-rule:nonzero;stroke:none"
           id="path438" />
      </g>
      <g
         id="g440"
         transform="translate(440.9901,709.0553)">
        <path
           d="m 0,0 c -0.199,0.233 -0.463,0.349 -0.796,0.349 -0.335,0 -0.603,-0.116 -0.8,-0.349 -0.198,-0.232 -0.297,-0.549 -0.297,-0.95 0,-0.4 0.099,-0.717 0.297,-0.949 0.197,-0.231 0.465,-0.348 0.8,-0.348 0.333,0 0.597,0.117 0.796,0.348 0.197,0.232 0.296,0.549 0.296,0.949 C 0.296,-0.549 0.197,-0.232 0,0 m -0.299,-1.647 c -0.121,-0.156 -0.287,-0.237 -0.497,-0.237 -0.216,0 -0.384,0.081 -0.503,0.239 -0.12,0.159 -0.18,0.39 -0.18,0.695 0,0.316 0.059,0.553 0.18,0.705 0.118,0.152 0.287,0.232 0.503,0.232 0.213,0 0.378,-0.08 0.498,-0.232 0.121,-0.152 0.181,-0.389 0.181,-0.705 0,-0.308 -0.061,-0.541 -0.182,-0.697"
           style="fill:#003f7c;fill-opacity:1;fill-rule:nonzero;stroke:none"
           id="path442" />
      </g>
      <g
         id="g444"
         transform="translate(443.6701,707.0329)">
        <path
           d="M 0,0 C -0.133,-0.066 -0.258,-0.117 -0.381,-0.154 -0.5,-0.19 -0.627,-0.209 -0.76,-0.209 c -0.173,0 -0.33,0.025 -0.473,0.078 -0.142,0.053 -0.265,0.131 -0.366,0.236 -0.105,0.106 -0.185,0.238 -0.241,0.401 -0.057,0.16 -0.086,0.349 -0.086,0.563 0,0.403 0.106,0.718 0.319,0.945 0.213,0.23 0.495,0.345 0.847,0.345 0.135,0 0.267,-0.021 0.4,-0.06 C -0.231,2.258 -0.11,2.212 0,2.152 V 1.695 h -0.023 c -0.122,0.096 -0.246,0.17 -0.376,0.222 -0.13,0.052 -0.257,0.077 -0.381,0.077 -0.225,0 -0.404,-0.078 -0.535,-0.234 -0.133,-0.158 -0.198,-0.387 -0.198,-0.691 0,-0.294 0.064,-0.52 0.194,-0.678 0.128,-0.157 0.308,-0.238 0.539,-0.238 0.081,0 0.163,0.013 0.247,0.034 0.084,0.022 0.159,0.049 0.225,0.083 0.059,0.032 0.113,0.062 0.165,0.097 0.051,0.033 0.091,0.063 0.12,0.087 H 0 Z"
           style="fill:#003f7c;fill-opacity:1;fill-rule:nonzero;stroke:none"
           id="path446" />
      </g>
      <path
         d="m 444.579,706.88 h -0.399 v 2.453 h 0.399 z m 0.03,2.868 h -0.457 v 0.428 h 0.457 z"
         style="fill:#003f7c;fill-opacity:1;fill-rule:nonzero;stroke:none"
         id="path448" />
      <g
         id="g450"
         transform="translate(447.2241,708.5446)">
        <path
           d="M 0,0 C 0,0.158 -0.023,0.288 -0.07,0.396 -0.117,0.502 -0.185,0.59 -0.273,0.658 -0.365,0.726 -0.471,0.775 -0.596,0.804 -0.719,0.83 -0.865,0.848 -1.033,0.848 -1.176,0.848 -1.32,0.833 -1.467,0.807 -1.613,0.779 -1.725,0.756 -1.805,0.732 v -0.42 h 0.022 c 0.139,0.055 0.27,0.096 0.399,0.127 0.129,0.028 0.245,0.043 0.347,0.043 0.087,0 0.172,-0.004 0.251,-0.017 C -0.708,0.453 -0.64,0.43 -0.583,0.396 -0.524,0.361 -0.479,0.314 -0.447,0.252 -0.417,0.19 -0.4,0.113 -0.4,0.019 v -0.064 c -0.231,-0.013 -0.446,-0.029 -0.649,-0.053 -0.201,-0.023 -0.373,-0.068 -0.517,-0.134 -0.144,-0.067 -0.253,-0.156 -0.33,-0.271 -0.077,-0.114 -0.116,-0.267 -0.116,-0.452 0,-0.227 0.075,-0.414 0.224,-0.562 0.148,-0.145 0.328,-0.219 0.54,-0.219 0.115,0 0.216,0.011 0.302,0.035 0.086,0.023 0.163,0.051 0.228,0.084 0.058,0.027 0.117,0.062 0.176,0.107 0.06,0.045 0.107,0.08 0.142,0.105 V -1.664 H 0 Z m -0.72,-1.266 c -0.117,-0.057 -0.245,-0.084 -0.383,-0.084 -0.167,0 -0.291,0.036 -0.373,0.107 -0.08,0.069 -0.121,0.178 -0.121,0.317 0,0.124 0.035,0.221 0.104,0.293 0.071,0.071 0.163,0.123 0.275,0.154 0.098,0.029 0.227,0.051 0.392,0.066 0.162,0.015 0.306,0.025 0.426,0.032 v -0.681 c -0.097,-0.079 -0.204,-0.147 -0.32,-0.204"
           style="fill:#003f7c;fill-opacity:1;fill-rule:nonzero;stroke:none"
           id="path452" />
      </g>
      <g
         id="g454"
         transform="translate(449.2291,706.8942)">
        <path
           d="m 0,0 c -0.074,-0.019 -0.158,-0.037 -0.246,-0.051 -0.09,-0.011 -0.171,-0.019 -0.239,-0.019 -0.245,0 -0.432,0.067 -0.558,0.203 -0.126,0.136 -0.192,0.351 -0.192,0.648 v 1.31 h -0.27 v 0.348 h 0.27 v 0.706 h 0.4 V 2.439 H 0 V 2.091 h -0.835 v -1.12 c 0,-0.131 0.004,-0.233 0.01,-0.304 0.006,-0.071 0.025,-0.142 0.059,-0.205 0.034,-0.058 0.076,-0.102 0.131,-0.129 0.056,-0.026 0.14,-0.041 0.253,-0.041 0.067,0 0.135,0.011 0.205,0.031 0.072,0.02 0.124,0.036 0.157,0.048 H 0 Z"
           style="fill:#003f7c;fill-opacity:1;fill-rule:nonzero;stroke:none"
           id="path456" />
      </g>
      <path
         d="m 450.113,706.88 h -0.399 v 2.453 h 0.399 z m 0.028,2.868 h -0.455 v 0.428 h 0.455 z"
         style="fill:#003f7c;fill-opacity:1;fill-rule:nonzero;stroke:none"
         id="path458" />
      <g
         id="g460"
         transform="translate(452.6381,709.0553)">
        <path
           d="M 0,0 C -0.197,0.233 -0.463,0.349 -0.795,0.349 -1.13,0.349 -1.398,0.233 -1.594,0 c -0.198,-0.232 -0.297,-0.549 -0.297,-0.95 0,-0.4 0.099,-0.717 0.297,-0.949 0.196,-0.231 0.464,-0.348 0.799,-0.348 0.332,0 0.598,0.117 0.795,0.348 0.198,0.232 0.297,0.549 0.297,0.949 C 0.297,-0.549 0.198,-0.232 0,0 m -0.297,-1.647 c -0.121,-0.156 -0.287,-0.237 -0.498,-0.237 -0.215,0 -0.383,0.081 -0.503,0.239 -0.12,0.159 -0.18,0.39 -0.18,0.695 0,0.316 0.06,0.553 0.179,0.705 0.12,0.152 0.288,0.232 0.504,0.232 0.211,0 0.378,-0.08 0.499,-0.232 0.12,-0.152 0.18,-0.389 0.18,-0.705 0,-0.308 -0.061,-0.541 -0.181,-0.697"
           style="fill:#003f7c;fill-opacity:1;fill-rule:nonzero;stroke:none"
           id="path462" />
      </g>
      <g
         id="g464"
         transform="translate(455.5451,706.8805)">
        <path
           d="m 0,0 h -0.397 v 1.4 c 0,0.114 -0.007,0.218 -0.02,0.318 -0.012,0.099 -0.035,0.176 -0.07,0.23 -0.035,0.062 -0.087,0.109 -0.153,0.14 -0.068,0.029 -0.153,0.044 -0.259,0.044 -0.112,0 -0.226,-0.028 -0.344,-0.084 C -1.363,1.992 -1.478,1.921 -1.588,1.836 V 0 h -0.401 v 2.453 h 0.401 V 2.184 c 0.127,0.105 0.254,0.19 0.388,0.25 0.133,0.06 0.27,0.089 0.411,0.089 0.257,0 0.455,-0.08 0.588,-0.239 C -0.065,2.125 0,1.896 0,1.595 Z"
           style="fill:#003f7c;fill-opacity:1;fill-rule:nonzero;stroke:none"
           id="path466" />
      </g>
      <g
         id="g468"
         transform="translate(459.5781,709.0553)">
        <path
           d="m 0,0 c -0.199,0.233 -0.462,0.349 -0.795,0.349 -0.336,0 -0.603,-0.116 -0.801,-0.349 -0.197,-0.232 -0.296,-0.549 -0.296,-0.95 0,-0.4 0.099,-0.717 0.296,-0.949 0.198,-0.231 0.465,-0.348 0.801,-0.348 0.333,0 0.596,0.117 0.795,0.348 0.199,0.232 0.297,0.549 0.297,0.949 C 0.297,-0.549 0.199,-0.232 0,0 m -0.297,-1.647 c -0.121,-0.156 -0.288,-0.237 -0.498,-0.237 -0.216,0 -0.384,0.081 -0.504,0.239 -0.12,0.159 -0.18,0.39 -0.18,0.695 0,0.316 0.06,0.553 0.178,0.705 0.12,0.152 0.288,0.232 0.506,0.232 0.211,0 0.38,-0.08 0.498,-0.232 0.12,-0.152 0.18,-0.389 0.18,-0.705 0,-0.308 -0.061,-0.541 -0.18,-0.697"
           style="fill:#003f7c;fill-opacity:1;fill-rule:nonzero;stroke:none"
           id="path470" />
      </g>
      <g
         id="g472"
         transform="translate(461.7801,709.8903)">
        <path
           d="m 0,0 h -0.023 c -0.044,0.014 -0.101,0.027 -0.172,0.043 -0.072,0.014 -0.134,0.021 -0.189,0.021 -0.172,0 -0.298,-0.039 -0.375,-0.117 -0.08,-0.078 -0.117,-0.218 -0.117,-0.421 v -0.083 h 0.724 v -0.348 h -0.71 V -3.01 h -0.4 v 2.105 h -0.271 v 0.348 h 0.271 v 0.08 c 0,0.293 0.07,0.515 0.212,0.67 0.14,0.157 0.344,0.235 0.609,0.235 0.09,0 0.17,-0.004 0.243,-0.014 C -0.127,0.405 -0.061,0.395 0,0.383 Z"
           style="fill:#003f7c;fill-opacity:1;fill-rule:nonzero;stroke:none"
           id="path474" />
      </g>
      <g
         id="g476"
         transform="translate(466.0911,709.3376)">
        <path
           d="m 0,0 c -0.12,0.232 -0.289,0.417 -0.505,0.557 -0.125,0.08 -0.278,0.143 -0.459,0.189 -0.182,0.046 -0.428,0.07 -0.739,0.07 h -0.79 v -3.273 h 0.8 c 0.289,0 0.523,0.019 0.701,0.061 0.178,0.042 0.339,0.109 0.483,0.201 0.209,0.132 0.377,0.321 0.503,0.563 0.125,0.241 0.187,0.51 0.187,0.808 C 0.181,-0.506 0.121,-0.231 0,0 m -0.38,-1.451 c -0.079,-0.17 -0.195,-0.307 -0.352,-0.41 -0.127,-0.084 -0.266,-0.141 -0.417,-0.172 -0.149,-0.032 -0.326,-0.045 -0.529,-0.045 h -0.394 v 2.515 h 0.394 c 0.196,0 0.364,-0.012 0.503,-0.042 0.141,-0.029 0.274,-0.079 0.398,-0.155 0.17,-0.097 0.299,-0.236 0.387,-0.412 0.086,-0.174 0.13,-0.39 0.13,-0.646 0,-0.252 -0.041,-0.464 -0.12,-0.633"
           style="fill:#003f7c;fill-opacity:1;fill-rule:nonzero;stroke:none"
           id="path478" />
      </g>
      <path
         d="m 467.321,706.88 h -0.398 v 2.453 h 0.398 z m 0.03,2.868 h -0.457 v 0.428 h 0.457 z"
         style="fill:#003f7c;fill-opacity:1;fill-rule:nonzero;stroke:none"
         id="path480" />
      <g
         id="g482"
         transform="translate(469.6021,708.8844)">
        <path
           d="m 0,0 h -0.022 c -0.06,0.016 -0.118,0.026 -0.172,0.032 -0.055,0.008 -0.122,0.011 -0.198,0.011 -0.124,0 -0.245,-0.027 -0.36,-0.086 -0.113,-0.056 -0.223,-0.128 -0.331,-0.218 v -1.743 h -0.399 v 2.453 h 0.399 V 0.088 c 0.159,0.131 0.3,0.224 0.42,0.279 0.121,0.053 0.246,0.082 0.371,0.082 0.07,0 0.122,-0.002 0.151,-0.006 C -0.11,0.439 -0.061,0.434 0,0.423 Z"
           style="fill:#003f7c;fill-opacity:1;fill-rule:nonzero;stroke:none"
           id="path484" />
      </g>
      <g
         id="g486"
         transform="translate(471.9701,708.2946)">
        <path
           d="m 0,0 c 0,0.354 -0.088,0.628 -0.26,0.821 -0.173,0.194 -0.421,0.288 -0.742,0.288 -0.343,0 -0.623,-0.117 -0.835,-0.352 -0.211,-0.236 -0.316,-0.556 -0.316,-0.958 0,-0.404 0.11,-0.718 0.333,-0.938 0.219,-0.222 0.525,-0.332 0.92,-0.332 0.151,0 0.299,0.02 0.437,0.06 0.141,0.039 0.279,0.089 0.413,0.147 v 0.451 h -0.02 c -0.069,-0.065 -0.186,-0.13 -0.348,-0.197 -0.162,-0.064 -0.326,-0.098 -0.484,-0.098 -0.121,0 -0.232,0.018 -0.334,0.055 -0.1,0.034 -0.188,0.086 -0.26,0.158 -0.076,0.073 -0.136,0.163 -0.178,0.276 -0.044,0.112 -0.066,0.244 -0.066,0.395 H 0 Z m -1.74,0.091 c 0.017,0.194 0.088,0.356 0.213,0.487 0.126,0.133 0.296,0.197 0.507,0.197 0.211,0 0.368,-0.06 0.47,-0.179 0.105,-0.119 0.157,-0.287 0.158,-0.505 z"
           style="fill:#003f7c;fill-opacity:1;fill-rule:nonzero;stroke:none"
           id="path488" />
      </g>
      <g
         id="g490"
         transform="translate(474.3391,707.0329)">
        <path
           d="m 0,0 c -0.131,-0.066 -0.258,-0.117 -0.379,-0.154 -0.119,-0.036 -0.246,-0.055 -0.38,-0.055 -0.172,0 -0.329,0.025 -0.473,0.078 -0.142,0.053 -0.264,0.131 -0.365,0.236 -0.105,0.106 -0.186,0.238 -0.242,0.401 -0.057,0.16 -0.085,0.349 -0.085,0.563 0,0.403 0.105,0.718 0.318,0.945 0.215,0.23 0.496,0.345 0.847,0.345 0.135,0 0.268,-0.021 0.399,-0.06 C -0.228,2.258 -0.109,2.212 0,2.152 V 1.695 h -0.021 c -0.121,0.096 -0.247,0.17 -0.377,0.222 -0.13,0.052 -0.256,0.077 -0.379,0.077 -0.226,0 -0.404,-0.078 -0.537,-0.234 -0.131,-0.158 -0.197,-0.387 -0.197,-0.691 0,-0.294 0.064,-0.52 0.193,-0.678 0.129,-0.157 0.308,-0.238 0.541,-0.238 0.08,0 0.162,0.013 0.246,0.034 0.084,0.022 0.159,0.049 0.225,0.083 0.057,0.032 0.112,0.062 0.164,0.097 0.051,0.033 0.09,0.063 0.121,0.087 H 0 Z"
           style="fill:#003f7c;fill-opacity:1;fill-rule:nonzero;stroke:none"
           id="path492" />
      </g>
      <g
         id="g494"
         transform="translate(476.0841,706.8942)">
        <path
           d="m 0,0 c -0.076,-0.019 -0.158,-0.037 -0.247,-0.051 -0.089,-0.011 -0.168,-0.019 -0.24,-0.019 -0.244,0 -0.43,0.067 -0.556,0.203 -0.126,0.136 -0.19,0.351 -0.19,0.648 v 1.31 h -0.272 v 0.348 h 0.272 v 0.706 h 0.399 V 2.439 H 0 V 2.091 h -0.834 v -1.12 c 0,-0.131 0.003,-0.233 0.009,-0.304 C -0.819,0.596 -0.8,0.525 -0.766,0.462 -0.733,0.404 -0.69,0.36 -0.634,0.333 -0.58,0.307 -0.496,0.292 -0.382,0.292 c 0.065,0 0.133,0.011 0.206,0.031 0.07,0.02 0.124,0.036 0.156,0.048 H 0 Z"
           style="fill:#003f7c;fill-opacity:1;fill-rule:nonzero;stroke:none"
           id="path496" />
      </g>
      <g
         id="g498"
         transform="translate(478.2961,709.0553)">
        <path
           d="m 0,0 c -0.197,0.233 -0.462,0.349 -0.794,0.349 -0.336,0 -0.602,-0.116 -0.8,-0.349 -0.198,-0.232 -0.298,-0.549 -0.298,-0.95 0,-0.4 0.1,-0.717 0.298,-0.949 0.198,-0.231 0.464,-0.348 0.8,-0.348 0.332,0 0.597,0.117 0.794,0.348 0.199,0.232 0.299,0.549 0.299,0.949 0,0.401 -0.1,0.718 -0.299,0.95 m -0.297,-1.647 c -0.121,-0.156 -0.287,-0.237 -0.497,-0.237 -0.216,0 -0.383,0.081 -0.504,0.239 -0.119,0.159 -0.178,0.39 -0.178,0.695 0,0.316 0.058,0.553 0.178,0.705 0.119,0.152 0.287,0.232 0.504,0.232 0.21,0 0.377,-0.08 0.498,-0.232 0.12,-0.152 0.179,-0.389 0.179,-0.705 0,-0.308 -0.059,-0.541 -0.18,-0.697"
           style="fill:#003f7c;fill-opacity:1;fill-rule:nonzero;stroke:none"
           id="path500" />
      </g>
      <g
         id="g502"
         transform="translate(480.6981,708.8844)">
        <path
           d="M 0,0 H -0.022 C -0.083,0.016 -0.14,0.026 -0.195,0.032 -0.25,0.04 -0.317,0.043 -0.393,0.043 c -0.124,0 -0.243,-0.027 -0.358,-0.086 -0.115,-0.056 -0.226,-0.128 -0.332,-0.218 v -1.743 h -0.399 v 2.453 h 0.399 V 0.088 c 0.158,0.131 0.301,0.224 0.421,0.279 0.121,0.053 0.245,0.082 0.371,0.082 0.071,0 0.121,-0.002 0.15,-0.006 C -0.11,0.439 -0.062,0.434 0,0.423 Z"
           style="fill:#003f7c;fill-opacity:1;fill-rule:nonzero;stroke:none"
           id="path504" />
      </g>
      <g
         id="g506"
         transform="translate(482.7801,707.5885)">
        <path
           d="m 0,0 c 0,-0.224 -0.09,-0.407 -0.269,-0.55 -0.179,-0.143 -0.425,-0.215 -0.737,-0.215 -0.177,0 -0.337,0.021 -0.483,0.065 -0.149,0.042 -0.271,0.091 -0.371,0.142 v 0.463 h 0.021 c 0.126,-0.098 0.267,-0.176 0.422,-0.234 0.152,-0.058 0.302,-0.088 0.443,-0.088 0.177,0 0.313,0.03 0.412,0.088 0.1,0.059 0.149,0.151 0.149,0.276 0,0.097 -0.027,0.17 -0.082,0.22 -0.053,0.049 -0.157,0.092 -0.309,0.127 -0.056,0.014 -0.131,0.029 -0.223,0.047 -0.089,0.016 -0.172,0.035 -0.249,0.056 -0.206,0.057 -0.353,0.141 -0.44,0.251 -0.086,0.109 -0.129,0.246 -0.129,0.406 0,0.102 0.02,0.197 0.06,0.285 0.04,0.09 0.1,0.169 0.184,0.238 0.079,0.07 0.181,0.125 0.303,0.164 0.123,0.041 0.26,0.063 0.41,0.063 0.143,0 0.287,-0.02 0.432,-0.057 0.145,-0.035 0.266,-0.078 0.363,-0.131 V 1.174 h -0.019 c -0.103,0.078 -0.225,0.143 -0.373,0.197 -0.144,0.054 -0.288,0.083 -0.427,0.083 -0.148,0 -0.27,-0.03 -0.37,-0.088 -0.1,-0.056 -0.151,-0.142 -0.151,-0.256 0,-0.102 0.03,-0.177 0.091,-0.228 C -1.28,0.831 -1.185,0.788 -1.054,0.756 -0.98,0.739 -0.899,0.722 -0.807,0.704 -0.715,0.687 -0.64,0.669 -0.579,0.655 -0.394,0.612 -0.251,0.536 -0.149,0.43 -0.049,0.322 0,0.18 0,0"
           style="fill:#003f7c;fill-opacity:1;fill-rule:nonzero;stroke:none"
           id="path508" />
      </g>
      <g
         id="g510"
         transform="translate(486.6101,709.0553)">
        <path
           d="m 0,0 c -0.199,0.233 -0.463,0.349 -0.796,0.349 -0.336,0 -0.603,-0.116 -0.799,-0.349 -0.199,-0.232 -0.299,-0.549 -0.299,-0.95 0,-0.4 0.1,-0.717 0.299,-0.949 0.196,-0.231 0.463,-0.348 0.799,-0.348 0.333,0 0.597,0.117 0.796,0.348 0.197,0.232 0.296,0.549 0.296,0.949 C 0.296,-0.549 0.197,-0.232 0,0 m -0.298,-1.647 c -0.121,-0.156 -0.287,-0.237 -0.498,-0.237 -0.216,0 -0.384,0.081 -0.503,0.239 -0.12,0.159 -0.18,0.39 -0.18,0.695 0,0.316 0.06,0.553 0.179,0.705 0.12,0.152 0.287,0.232 0.504,0.232 0.213,0 0.379,-0.08 0.5,-0.232 0.118,-0.152 0.18,-0.389 0.18,-0.705 0,-0.308 -0.063,-0.541 -0.182,-0.697"
           style="fill:#003f7c;fill-opacity:1;fill-rule:nonzero;stroke:none"
           id="path512" />
      </g>
      <g
         id="g514"
         transform="translate(488.8111,709.8903)">
        <path
           d="m 0,0 h -0.021 c -0.044,0.014 -0.102,0.027 -0.173,0.043 -0.072,0.014 -0.135,0.021 -0.189,0.021 -0.173,0 -0.298,-0.039 -0.376,-0.117 -0.078,-0.078 -0.115,-0.218 -0.115,-0.421 v -0.083 h 0.723 V -0.905 H -0.862 V -3.01 h -0.399 v 2.105 h -0.272 v 0.348 h 0.272 v 0.08 c 0,0.293 0.07,0.515 0.211,0.67 0.141,0.157 0.344,0.235 0.61,0.235 0.09,0 0.169,-0.004 0.243,-0.014 C -0.126,0.405 -0.058,0.395 0,0.383 Z"
           style="fill:#003f7c;fill-opacity:1;fill-rule:nonzero;stroke:none"
           id="path516" />
      </g>
      <g
         id="g518"
         transform="translate(492.7181,706.8805)">
        <path
           d="M 0,0 H -2.088 V 3.273 H 0 V 2.888 h -1.668 v -0.9 H 0 V 1.604 H -1.668 V 0.385 H 0 Z"
           style="fill:#003f7c;fill-opacity:1;fill-rule:nonzero;stroke:none"
           id="path520" />
      </g>
      <g
         id="g522"
         transform="translate(495.2841,710.2955)">
        <path
           d="m 0,0 h -0.399 v -1.059 c -0.108,0.058 -0.207,0.099 -0.303,0.128 -0.099,0.028 -0.209,0.039 -0.336,0.039 -0.137,0 -0.271,-0.029 -0.4,-0.086 -0.128,-0.06 -0.241,-0.144 -0.337,-0.254 -0.098,-0.117 -0.176,-0.256 -0.234,-0.419 -0.059,-0.162 -0.087,-0.348 -0.087,-0.556 0,-0.4 0.081,-0.714 0.253,-0.94 0.164,-0.225 0.391,-0.34 0.674,-0.34 0.147,0 0.284,0.03 0.409,0.087 0.124,0.057 0.246,0.137 0.361,0.24 V -3.415 H 0 Z m -0.728,-3.016 c -0.116,-0.052 -0.232,-0.078 -0.343,-0.078 -0.215,0 -0.371,0.075 -0.466,0.227 -0.097,0.151 -0.148,0.374 -0.148,0.665 0,0.295 0.065,0.523 0.19,0.684 0.125,0.162 0.3,0.242 0.524,0.242 0.102,0 0.195,-0.01 0.281,-0.028 0.086,-0.019 0.183,-0.054 0.291,-0.103 v -1.407 c -0.101,-0.082 -0.21,-0.15 -0.329,-0.202"
           style="fill:#003f7c;fill-opacity:1;fill-rule:nonzero;stroke:none"
           id="path524" />
      </g>
      <g
         id="g526"
         transform="translate(498.0431,706.8805)">
        <path
           d="M 0,0 H -0.399 V 0.27 C -0.534,0.161 -0.662,0.076 -0.787,0.018 c -0.124,-0.059 -0.258,-0.09 -0.41,-0.09 -0.25,0 -0.444,0.08 -0.585,0.238 -0.136,0.157 -0.208,0.388 -0.208,0.692 v 1.595 h 0.402 V 1.054 c 0,-0.125 0.004,-0.233 0.013,-0.32 0.014,-0.089 0.038,-0.166 0.074,-0.228 0.038,-0.065 0.088,-0.111 0.149,-0.14 0.062,-0.029 0.149,-0.045 0.266,-0.045 0.104,0 0.218,0.029 0.342,0.083 0.123,0.055 0.239,0.126 0.345,0.215 V 2.453 H 0 Z"
           style="fill:#003f7c;fill-opacity:1;fill-rule:nonzero;stroke:none"
           id="path528" />
      </g>
      <g
         id="g530"
         transform="translate(500.5881,707.0329)">
        <path
           d="m 0,0 c -0.131,-0.066 -0.258,-0.117 -0.377,-0.154 -0.122,-0.036 -0.249,-0.055 -0.382,-0.055 -0.173,0 -0.328,0.025 -0.472,0.078 -0.143,0.053 -0.263,0.131 -0.365,0.236 -0.106,0.106 -0.187,0.238 -0.241,0.401 -0.058,0.16 -0.087,0.349 -0.087,0.563 0,0.403 0.107,0.718 0.321,0.945 0.211,0.23 0.493,0.345 0.844,0.345 0.136,0 0.269,-0.021 0.4,-0.06 C -0.228,2.258 -0.108,2.212 0,2.152 V 1.695 H -0.021 C -0.142,1.791 -0.267,1.865 -0.397,1.917 -0.529,1.969 -0.654,1.994 -0.776,1.994 -1.004,1.994 -1.181,1.916 -1.313,1.76 -1.444,1.602 -1.51,1.373 -1.51,1.069 c 0,-0.294 0.062,-0.52 0.191,-0.678 0.13,-0.157 0.309,-0.238 0.543,-0.238 0.079,0 0.162,0.013 0.246,0.034 0.083,0.022 0.159,0.049 0.224,0.083 0.059,0.032 0.112,0.062 0.166,0.097 0.051,0.033 0.09,0.063 0.119,0.087 H 0 Z"
           style="fill:#003f7c;fill-opacity:1;fill-rule:nonzero;stroke:none"
           id="path532" />
      </g>
      <g
         id="g534"
         transform="translate(502.9461,708.5446)">
        <path
           d="M 0,0 C 0,0.158 -0.023,0.288 -0.069,0.396 -0.116,0.502 -0.184,0.59 -0.273,0.658 -0.363,0.726 -0.471,0.775 -0.595,0.804 -0.717,0.83 -0.864,0.848 -1.03,0.848 -1.174,0.848 -1.318,0.833 -1.466,0.807 -1.612,0.779 -1.726,0.756 -1.803,0.732 v -0.42 h 0.023 c 0.134,0.055 0.27,0.096 0.397,0.127 0.13,0.028 0.244,0.043 0.349,0.043 0.086,0 0.17,-0.004 0.249,-0.017 0.079,-0.012 0.144,-0.035 0.202,-0.069 0.059,-0.035 0.106,-0.082 0.137,-0.144 0.032,-0.062 0.045,-0.139 0.045,-0.233 v -0.064 c -0.229,-0.013 -0.445,-0.029 -0.646,-0.053 -0.201,-0.023 -0.372,-0.068 -0.518,-0.134 -0.142,-0.067 -0.253,-0.156 -0.331,-0.271 -0.076,-0.114 -0.113,-0.267 -0.113,-0.452 0,-0.227 0.072,-0.414 0.223,-0.562 0.145,-0.145 0.325,-0.219 0.539,-0.219 0.117,0 0.218,0.011 0.303,0.035 0.086,0.023 0.162,0.051 0.23,0.084 0.056,0.027 0.115,0.062 0.173,0.107 0.059,0.045 0.107,0.08 0.14,0.105 V -1.664 H 0 Z m -0.718,-1.266 c -0.115,-0.057 -0.245,-0.084 -0.385,-0.084 -0.166,0 -0.29,0.036 -0.373,0.107 -0.08,0.069 -0.121,0.178 -0.121,0.317 0,0.124 0.036,0.221 0.106,0.293 0.072,0.071 0.163,0.123 0.276,0.154 0.095,0.029 0.226,0.051 0.39,0.066 0.164,0.015 0.306,0.025 0.424,0.032 v -0.681 c -0.096,-0.079 -0.203,-0.147 -0.317,-0.204"
           style="fill:#003f7c;fill-opacity:1;fill-rule:nonzero;stroke:none"
           id="path536" />
      </g>
      <g
         id="g538"
         transform="translate(504.9531,706.8942)">
        <path
           d="m 0,0 c -0.075,-0.019 -0.158,-0.037 -0.248,-0.051 -0.088,-0.011 -0.168,-0.019 -0.241,-0.019 -0.243,0 -0.428,0.067 -0.555,0.203 -0.126,0.136 -0.191,0.351 -0.191,0.648 v 1.31 h -0.268 v 0.348 h 0.268 v 0.706 h 0.399 V 2.439 H 0 V 2.091 h -0.836 v -1.12 c 0,-0.131 0.004,-0.233 0.01,-0.304 0.004,-0.071 0.025,-0.142 0.059,-0.205 0.033,-0.058 0.076,-0.102 0.133,-0.129 0.055,-0.026 0.138,-0.041 0.252,-0.041 0.064,0 0.134,0.011 0.204,0.031 0.073,0.02 0.125,0.036 0.158,0.048 H 0 Z"
           style="fill:#003f7c;fill-opacity:1;fill-rule:nonzero;stroke:none"
           id="path540" />
      </g>
      <path
         d="m 505.837,706.88 h -0.399 v 2.453 h 0.399 z m 0.026,2.868 h -0.453 v 0.428 h 0.453 z"
         style="fill:#003f7c;fill-opacity:1;fill-rule:nonzero;stroke:none"
         id="path542" />
      <g
         id="g544"
         transform="translate(508.3641,709.0553)">
        <path
           d="M 0,0 C -0.2,0.233 -0.465,0.349 -0.798,0.349 -1.133,0.349 -1.4,0.233 -1.596,0 c -0.198,-0.232 -0.298,-0.549 -0.298,-0.95 0,-0.4 0.1,-0.717 0.298,-0.949 0.196,-0.231 0.463,-0.348 0.798,-0.348 0.333,0 0.598,0.117 0.798,0.348 0.194,0.232 0.295,0.549 0.295,0.949 C 0.295,-0.549 0.194,-0.232 0,0 m -0.3,-1.647 c -0.122,-0.156 -0.286,-0.237 -0.498,-0.237 -0.216,0 -0.383,0.081 -0.503,0.239 -0.12,0.159 -0.179,0.39 -0.179,0.695 0,0.316 0.059,0.553 0.177,0.705 0.12,0.152 0.288,0.232 0.505,0.232 0.213,0 0.38,-0.08 0.5,-0.232 0.119,-0.152 0.178,-0.389 0.178,-0.705 0,-0.308 -0.06,-0.541 -0.18,-0.697"
           style="fill:#003f7c;fill-opacity:1;fill-rule:nonzero;stroke:none"
           id="path546" />
      </g>
      <g
         id="g548"
         transform="translate(511.2691,706.8805)">
        <path
           d="m 0,0 h -0.399 v 1.4 c 0,0.114 -0.006,0.218 -0.018,0.318 -0.014,0.099 -0.037,0.176 -0.069,0.23 -0.037,0.062 -0.09,0.109 -0.155,0.14 -0.068,0.029 -0.154,0.044 -0.258,0.044 -0.113,0 -0.226,-0.028 -0.345,-0.084 C -1.364,1.992 -1.478,1.921 -1.591,1.836 V 0 h -0.397 v 2.453 h 0.397 V 2.184 c 0.126,0.105 0.257,0.19 0.39,0.25 0.135,0.06 0.269,0.089 0.411,0.089 0.257,0 0.454,-0.08 0.588,-0.239 C -0.066,2.125 0,1.896 0,1.595 Z"
           style="fill:#003f7c;fill-opacity:1;fill-rule:nonzero;stroke:none"
           id="path550" />
      </g>
      <path
         d="m 513.973,706.88 h -0.4 v 2.453 h 0.4 z m 0.029,2.868 h -0.458 v 0.428 h 0.458 z"
         style="fill:#003f7c;fill-opacity:1;fill-rule:nonzero;stroke:none"
         id="path552" />
      <g
         id="g554"
         transform="translate(516.7581,706.8805)">
        <path
           d="m 0,0 h -0.397 v 1.4 c 0,0.114 -0.007,0.218 -0.02,0.318 -0.013,0.099 -0.036,0.176 -0.07,0.23 -0.034,0.062 -0.088,0.109 -0.154,0.14 -0.067,0.029 -0.152,0.044 -0.258,0.044 -0.111,0 -0.226,-0.028 -0.346,-0.084 C -1.364,1.992 -1.479,1.921 -1.588,1.836 V 0 h -0.4 v 2.453 h 0.4 V 2.184 c 0.126,0.105 0.255,0.19 0.388,0.25 0.132,0.06 0.27,0.089 0.41,0.089 0.258,0 0.453,-0.08 0.588,-0.239 C -0.067,2.125 0,1.896 0,1.595 Z"
           style="fill:#003f7c;fill-opacity:1;fill-rule:nonzero;stroke:none"
           id="path556" />
      </g>
      <g
         id="g558"
         transform="translate(521.3941,707.8063)">
        <path
           d="m 0,0 c 0,-0.129 -0.029,-0.255 -0.088,-0.381 -0.055,-0.124 -0.136,-0.228 -0.239,-0.315 -0.112,-0.095 -0.245,-0.169 -0.396,-0.222 -0.151,-0.053 -0.335,-0.08 -0.544,-0.08 -0.228,0 -0.434,0.024 -0.615,0.067 -0.182,0.044 -0.368,0.11 -0.555,0.196 v 0.545 h 0.028 c 0.161,-0.137 0.347,-0.243 0.556,-0.317 0.208,-0.077 0.403,-0.113 0.587,-0.113 0.258,0 0.462,0.052 0.606,0.153 0.146,0.101 0.219,0.237 0.219,0.406 0,0.145 -0.034,0.252 -0.104,0.321 -0.067,0.07 -0.174,0.123 -0.312,0.161 -0.106,0.028 -0.221,0.054 -0.342,0.071 -0.123,0.02 -0.256,0.044 -0.397,0.074 -0.277,0.061 -0.485,0.166 -0.619,0.316 -0.135,0.149 -0.202,0.344 -0.202,0.583 0,0.275 0.111,0.5 0.336,0.676 0.224,0.175 0.506,0.263 0.85,0.263 0.22,0 0.426,-0.022 0.611,-0.064 0.185,-0.045 0.349,-0.099 0.492,-0.163 V 1.664 h -0.031 c -0.118,0.104 -0.276,0.19 -0.47,0.258 -0.197,0.07 -0.396,0.104 -0.602,0.104 -0.224,0 -0.404,-0.048 -0.541,-0.145 -0.134,-0.097 -0.202,-0.221 -0.202,-0.374 0,-0.138 0.033,-0.243 0.101,-0.321 0.068,-0.079 0.186,-0.138 0.357,-0.18 0.09,-0.02 0.221,-0.044 0.387,-0.073 0.165,-0.03 0.305,-0.06 0.422,-0.092 C -0.473,0.777 -0.297,0.68 -0.179,0.548 -0.059,0.417 0,0.235 0,0"
           style="fill:#003f7c;fill-opacity:1;fill-rule:nonzero;stroke:none"
           id="path560" />
      </g>
      <g
         id="g562"
         transform="translate(523.8041,707.0329)">
        <path
           d="m 0,0 c -0.133,-0.066 -0.259,-0.117 -0.379,-0.154 -0.119,-0.036 -0.246,-0.055 -0.379,-0.055 -0.174,0 -0.331,0.025 -0.472,0.078 C -1.373,-0.078 -1.496,0 -1.598,0.105 -1.7,0.211 -1.781,0.343 -1.839,0.506 c -0.057,0.16 -0.086,0.349 -0.086,0.563 0,0.403 0.107,0.718 0.321,0.945 0.212,0.23 0.497,0.345 0.846,0.345 0.135,0 0.268,-0.021 0.398,-0.06 C -0.23,2.258 -0.108,2.212 0,2.152 V 1.695 h -0.021 c -0.122,0.096 -0.246,0.17 -0.378,0.222 -0.13,0.052 -0.255,0.077 -0.378,0.077 -0.227,0 -0.405,-0.078 -0.537,-0.234 -0.13,-0.158 -0.195,-0.387 -0.195,-0.691 0,-0.294 0.063,-0.52 0.191,-0.678 0.129,-0.157 0.307,-0.238 0.541,-0.238 0.081,0 0.163,0.013 0.245,0.034 0.084,0.022 0.161,0.049 0.227,0.083 0.058,0.032 0.11,0.062 0.163,0.097 C -0.09,0.4 -0.05,0.43 -0.021,0.454 H 0 Z"
           style="fill:#003f7c;fill-opacity:1;fill-rule:nonzero;stroke:none"
           id="path564" />
      </g>
      <g
         id="g566"
         transform="translate(526.0451,709.0553)">
        <path
           d="m 0,0 c -0.199,0.233 -0.463,0.349 -0.797,0.349 -0.335,0 -0.602,-0.116 -0.8,-0.349 -0.198,-0.232 -0.297,-0.549 -0.297,-0.95 0,-0.4 0.099,-0.717 0.297,-0.949 0.198,-0.231 0.465,-0.348 0.8,-0.348 0.334,0 0.598,0.117 0.797,0.348 0.196,0.232 0.294,0.549 0.294,0.949 C 0.294,-0.549 0.196,-0.232 0,0 m -0.299,-1.647 c -0.119,-0.156 -0.287,-0.237 -0.498,-0.237 -0.215,0 -0.382,0.081 -0.502,0.239 -0.119,0.159 -0.182,0.39 -0.182,0.695 0,0.316 0.061,0.553 0.18,0.705 0.12,0.152 0.287,0.232 0.504,0.232 0.213,0 0.38,-0.08 0.499,-0.232 0.121,-0.152 0.18,-0.389 0.18,-0.705 0,-0.308 -0.06,-0.541 -0.181,-0.697"
           style="fill:#003f7c;fill-opacity:1;fill-rule:nonzero;stroke:none"
           id="path568" />
      </g>
      <g
         id="g570"
         transform="translate(528.1961,706.8942)">
        <path
           d="m 0,0 c -0.075,-0.019 -0.156,-0.037 -0.247,-0.051 -0.088,-0.011 -0.169,-0.019 -0.239,-0.019 -0.247,0 -0.431,0.067 -0.56,0.203 -0.125,0.136 -0.189,0.351 -0.189,0.648 v 1.31 h -0.27 v 0.348 h 0.27 v 0.706 h 0.401 V 2.439 H 0 V 2.091 h -0.834 v -1.12 c 0,-0.131 0.002,-0.233 0.008,-0.304 0.007,-0.071 0.026,-0.142 0.06,-0.205 0.032,-0.058 0.076,-0.102 0.13,-0.129 0.057,-0.026 0.141,-0.041 0.254,-0.041 0.064,0 0.133,0.011 0.205,0.031 0.072,0.02 0.123,0.036 0.156,0.048 H 0 Z"
           style="fill:#003f7c;fill-opacity:1;fill-rule:nonzero;stroke:none"
           id="path572" />
      </g>
      <path
         d="m 529.08,706.88 h -0.399 v 3.415 h 0.399 z"
         style="fill:#003f7c;fill-opacity:1;fill-rule:nonzero;stroke:none"
         id="path574" />
      <g
         id="g576"
         transform="translate(531.7241,708.5446)">
        <path
           d="M 0,0 C 0,0.158 -0.023,0.288 -0.07,0.396 -0.118,0.502 -0.184,0.59 -0.273,0.658 -0.364,0.726 -0.471,0.775 -0.596,0.804 -0.719,0.83 -0.865,0.848 -1.032,0.848 -1.177,0.848 -1.32,0.833 -1.467,0.807 -1.613,0.779 -1.725,0.756 -1.803,0.732 v -0.42 h 0.022 c 0.136,0.055 0.269,0.096 0.398,0.127 0.127,0.028 0.245,0.043 0.348,0.043 0.086,0 0.17,-0.004 0.247,-0.017 0.081,-0.012 0.15,-0.035 0.205,-0.069 0.06,-0.035 0.106,-0.082 0.136,-0.144 C -0.416,0.19 -0.4,0.113 -0.4,0.019 v -0.064 c -0.231,-0.013 -0.447,-0.029 -0.648,-0.053 -0.202,-0.023 -0.374,-0.068 -0.517,-0.134 -0.144,-0.067 -0.253,-0.156 -0.329,-0.271 -0.078,-0.114 -0.117,-0.267 -0.117,-0.452 0,-0.227 0.074,-0.414 0.223,-0.562 0.148,-0.145 0.327,-0.219 0.54,-0.219 0.115,0 0.219,0.011 0.304,0.035 0.086,0.023 0.161,0.051 0.227,0.084 0.057,0.027 0.116,0.062 0.176,0.107 0.059,0.045 0.106,0.08 0.141,0.105 V -1.664 H 0 Z m -0.721,-1.266 c -0.114,-0.057 -0.243,-0.084 -0.382,-0.084 -0.168,0 -0.289,0.036 -0.372,0.107 -0.081,0.069 -0.123,0.178 -0.123,0.317 0,0.124 0.036,0.221 0.106,0.293 0.07,0.071 0.163,0.123 0.275,0.154 0.096,0.029 0.226,0.051 0.391,0.066 0.164,0.015 0.305,0.025 0.426,0.032 v -0.681 c -0.096,-0.079 -0.205,-0.147 -0.321,-0.204"
           style="fill:#003f7c;fill-opacity:1;fill-rule:nonzero;stroke:none"
           id="path578" />
      </g>
      <g
         id="g580"
         transform="translate(534.4861,706.8805)">
        <path
           d="m 0,0 h -0.4 v 1.4 c 0,0.114 -0.006,0.218 -0.019,0.318 -0.012,0.099 -0.034,0.176 -0.07,0.23 -0.036,0.062 -0.087,0.109 -0.154,0.14 -0.067,0.029 -0.153,0.044 -0.259,0.044 -0.109,0 -0.224,-0.028 -0.344,-0.084 C -1.365,1.992 -1.481,1.921 -1.591,1.836 V 0 H -1.99 v 2.453 h 0.399 V 2.184 c 0.128,0.105 0.256,0.19 0.39,0.25 0.133,0.06 0.271,0.089 0.41,0.089 0.259,0 0.454,-0.08 0.588,-0.239 C -0.068,2.125 0,1.896 0,1.595 Z"
           style="fill:#003f7c;fill-opacity:1;fill-rule:nonzero;stroke:none"
           id="path582" />
      </g>
      <g
         id="g584"
         transform="translate(537.1881,710.2955)">
        <path
           d="m 0,0 h -0.399 v -1.059 c -0.106,0.058 -0.207,0.099 -0.305,0.128 -0.097,0.028 -0.207,0.039 -0.334,0.039 -0.137,0 -0.272,-0.029 -0.398,-0.086 -0.129,-0.06 -0.243,-0.144 -0.339,-0.254 -0.097,-0.117 -0.175,-0.256 -0.234,-0.419 -0.058,-0.162 -0.087,-0.348 -0.087,-0.556 0,-0.4 0.083,-0.714 0.251,-0.94 0.166,-0.225 0.393,-0.34 0.679,-0.34 0.147,0 0.28,0.03 0.407,0.087 0.126,0.057 0.245,0.137 0.36,0.24 V -3.415 H 0 Z m -0.727,-3.016 c -0.116,-0.052 -0.231,-0.078 -0.344,-0.078 -0.215,0 -0.369,0.075 -0.467,0.227 -0.096,0.151 -0.145,0.374 -0.145,0.665 0,0.295 0.063,0.523 0.189,0.684 0.125,0.162 0.3,0.242 0.524,0.242 0.102,0 0.195,-0.01 0.282,-0.028 0.084,-0.019 0.181,-0.054 0.289,-0.103 v -1.407 c -0.102,-0.082 -0.21,-0.15 -0.328,-0.202"
           style="fill:#003f7c;fill-opacity:1;fill-rule:nonzero;stroke:none"
           id="path586" />
      </g>
      <g
         id="g588"
         transform="translate(452.0431,719.4377)">
        <path
           d="m 0,0 c 0,-0.392 -0.316,-0.709 -0.707,-0.709 -0.391,0 -0.708,0.317 -0.708,0.709 0,0.39 0.317,0.706 0.708,0.706 C -0.316,0.706 0,0.39 0,0"
           style="fill:#003f7c;fill-opacity:1;fill-rule:nonzero;stroke:none"
           id="path590" />
      </g>
      <g
         id="g592"
         transform="translate(486.5841,719.4377)">
        <path
           d="m 0,0 c 0,-0.392 -0.316,-0.709 -0.706,-0.709 -0.393,0 -0.708,0.317 -0.708,0.709 0,0.39 0.315,0.706 0.708,0.706 C -0.316,0.706 0,0.39 0,0"
           style="fill:#003f7c;fill-opacity:1;fill-rule:nonzero;stroke:none"
           id="path594" />
      </g>
      <g
         id="g596"
         transform="translate(519.9601,719.4377)">
        <path
           d="m 0,0 c 0,-0.392 -0.318,-0.709 -0.708,-0.709 -0.39,0 -0.707,0.317 -0.707,0.709 0,0.39 0.317,0.706 0.707,0.706 C -0.318,0.706 0,0.39 0,0"
           style="fill:#003f7c;fill-opacity:1;fill-rule:nonzero;stroke:none"
           id="path598" />
      </g>
      <g
         id="g600"
         transform="translate(494.9821,764.8776)">
        <path
           d="M 0,0 C 0.129,-0.145 0.229,-0.234 0.313,-0.248 0.399,-0.266 0.478,-0.24 0.705,-0.04 0.986,0.209 1.064,0.295 0.931,0.817 0.928,0.87 1.01,0.921 1.064,0.903 1.191,0.728 1.346,0.405 1.375,0.282 1.205,0.144 0.905,-0.117 0.65,-0.343 L 0.233,-0.71 c -0.142,-0.127 -0.294,-0.266 -0.482,-0.442 -0.044,-0.007 -0.113,0.059 -0.105,0.1 l 0.105,0.119 c 0.123,0.142 0.119,0.183 -0.136,0.472 l -1.02,1.156 C -1.66,0.983 -1.703,0.996 -1.859,0.891 L -1.961,0.822 c -0.048,-0.008 -0.11,0.064 -0.09,0.117 0.168,0.136 0.324,0.27 0.475,0.401 0.147,0.132 0.302,0.273 0.451,0.415 0.042,0.003 0.104,-0.068 0.096,-0.109 L -1.099,1.562 C -1.219,1.417 -1.217,1.376 -0.961,1.087 Z"
           style="fill:#003f7c;fill-opacity:1;fill-rule:nonzero;stroke:none"
           id="path602" />
      </g>
      <g
         id="g604"
         transform="translate(496.3781,767.2799)">
        <path
           d="m 0,0 c 0.071,-0.093 0.079,-0.098 0.167,-0.03 l 0.23,0.171 c 0.172,0.13 0.195,0.183 0.109,0.367 L 0.46,0.603 C 0.463,0.647 0.546,0.709 0.586,0.692 0.659,0.581 0.745,0.46 0.839,0.333 0.934,0.207 1.027,0.09 1.113,-0.011 1.118,-0.054 1.038,-0.119 0.992,-0.107 L 0.914,-0.036 C 0.76,0.098 0.702,0.095 0.529,-0.034 L 0.3,-0.206 C 0.209,-0.273 0.209,-0.278 0.285,-0.378 l 0.294,-0.395 c 0.114,-0.154 0.208,-0.249 0.29,-0.275 0.088,-0.028 0.171,-0.008 0.412,0.173 0.289,0.217 0.394,0.312 0.297,0.822 C 1.576,0.004 1.669,0.053 1.713,0.023 1.829,-0.159 1.95,-0.487 1.971,-0.612 1.79,-0.736 1.467,-0.972 1.197,-1.175 L 0.766,-1.498 c -0.16,-0.12 -0.319,-0.245 -0.563,-0.438 -0.042,0 -0.102,0.08 -0.087,0.117 l 0.138,0.139 c 0.132,0.135 0.137,0.17 -0.093,0.475 l -0.926,1.238 c -0.226,0.302 -0.26,0.308 -0.432,0.225 L -1.292,0.213 c -0.045,-0.003 -0.099,0.076 -0.081,0.12 0.162,0.11 0.327,0.229 0.486,0.349 l 0.703,0.525 C 0.029,1.367 0.214,1.511 0.253,1.551 0.295,1.5 0.499,1.278 0.682,1.068 0.696,1.022 0.625,0.958 0.569,0.964 0.446,1.052 0.324,1.117 0.246,1.132 0.136,1.147 0.006,1.113 -0.156,0.991 L -0.42,0.792 C -0.531,0.71 -0.527,0.703 -0.433,0.58 Z"
           style="fill:#003f7c;fill-opacity:1;fill-rule:nonzero;stroke:none"
           id="path606" />
      </g>
      <g
         id="g608"
         transform="translate(499.0661,768.5251)">
        <path
           d="m 0,0 c 0.081,0.051 0.092,0.073 0.007,0.146 l -0.27,0.226 C -0.408,0.493 -0.59,0.643 -0.668,0.698 -0.646,0.599 -0.597,0.366 -0.549,0.171 l 0.079,-0.319 c 0.028,-0.116 0.051,-0.115 0.14,-0.059 z M -0.284,-0.438 C -0.368,-0.49 -0.377,-0.5 -0.355,-0.581 l 0.117,-0.493 c 0.024,-0.083 0.038,-0.113 0.055,-0.143 0.015,-0.02 0.074,-0.013 0.182,0.032 l 0.116,0.049 c 0.036,-0.012 0.094,-0.09 0.071,-0.128 -0.127,-0.07 -0.254,-0.149 -0.405,-0.239 -0.119,-0.074 -0.193,-0.136 -0.355,-0.237 -0.051,-0.004 -0.094,0.073 -0.087,0.117 l 0.088,0.069 c 0.077,0.064 0.131,0.136 0.104,0.31 -0.028,0.179 -0.068,0.39 -0.131,0.701 l -0.218,1.058 c -0.058,0.272 -0.077,0.432 -0.149,0.529 0.145,0.142 0.166,0.397 0.173,0.4 0.045,0.03 0.078,0.026 0.125,-0.018 0.092,-0.084 0.215,-0.188 0.46,-0.382 L 1.133,-0.034 C 1.338,-0.198 1.42,-0.261 1.563,-0.199 L 1.71,-0.137 C 1.742,-0.142 1.803,-0.22 1.783,-0.263 1.61,-0.361 1.419,-0.476 1.236,-0.591 1.061,-0.701 0.926,-0.791 0.769,-0.899 0.717,-0.901 0.663,-0.833 0.684,-0.78 l 0.101,0.088 c 0.072,0.064 0.07,0.098 0.059,0.119 -0.016,0.024 -0.094,0.093 -0.218,0.198 l -0.283,0.242 c -0.055,0.045 -0.086,0.035 -0.21,-0.043 z"
           style="fill:#003f7c;fill-opacity:1;fill-rule:nonzero;stroke:none"
           id="path610" />
      </g>
      <g
         id="g612"
         transform="translate(501.4271,769.4186)">
        <path
           d="m 0,0 c 0.102,-0.204 0.177,-0.334 0.283,-0.379 0.104,-0.04 0.228,-0.02 0.361,0.047 0.641,0.321 0.574,1.001 0.322,1.507 C 0.632,1.842 0.08,2.063 -0.591,1.726 -0.691,1.677 -0.752,1.622 -0.759,1.582 -0.767,1.541 -0.735,1.468 -0.677,1.354 Z M -1.119,0.91 C -1.295,1.262 -1.338,1.329 -1.517,1.262 L -1.592,1.233 c -0.046,0 -0.101,0.109 -0.058,0.135 0.303,0.175 0.584,0.334 0.977,0.53 0.304,0.153 0.624,0.275 0.926,0.311 C 0.826,2.278 1.313,1.975 1.545,1.51 1.793,1.014 1.757,0.494 1.436,0.069 1.247,-0.183 0.967,-0.384 0.584,-0.575 0.409,-0.662 0.214,-0.733 0.08,-0.801 c -0.177,-0.088 -0.365,-0.186 -0.574,-0.3 -0.04,0.008 -0.084,0.096 -0.064,0.13 l 0.105,0.076 c 0.154,0.11 0.161,0.151 -0.009,0.492 z"
           style="fill:#003f7c;fill-opacity:1;fill-rule:nonzero;stroke:none"
           id="path614" />
      </g>
      <g
         id="g616"
         transform="translate(504.2211,771.6866)">
        <path
           d="M 0,0 C 0.042,-0.108 0.049,-0.115 0.155,-0.074 L 0.421,0.03 C 0.622,0.108 0.657,0.152 0.624,0.353 L 0.606,0.457 C 0.621,0.5 0.717,0.537 0.751,0.51 0.79,0.383 0.841,0.243 0.899,0.095 0.955,-0.051 1.013,-0.189 1.068,-0.31 1.063,-0.353 0.967,-0.394 0.928,-0.37 L 0.87,-0.281 C 0.759,-0.111 0.7,-0.098 0.501,-0.176 L 0.234,-0.279 C 0.129,-0.319 0.127,-0.324 0.171,-0.44 l 0.18,-0.46 c 0.068,-0.179 0.133,-0.296 0.203,-0.344 0.078,-0.049 0.163,-0.052 0.445,0.057 0.337,0.131 0.463,0.194 0.508,0.713 0.012,0.055 0.115,0.075 0.149,0.036 C 1.718,-0.645 1.748,-0.994 1.734,-1.119 1.526,-1.192 1.155,-1.332 0.836,-1.455 L 0.334,-1.649 c -0.184,-0.073 -0.373,-0.15 -0.661,-0.269 -0.039,0.009 -0.075,0.103 -0.051,0.134 l 0.17,0.097 c 0.164,0.095 0.179,0.128 0.04,0.482 l -0.558,1.443 c -0.138,0.351 -0.17,0.366 -0.357,0.333 L -1.188,0.552 c -0.044,0.01 -0.074,0.101 -0.045,0.139 0.185,0.062 0.376,0.132 0.561,0.204 l 0.82,0.318 C 0.395,1.309 0.615,1.399 0.66,1.425 0.689,1.365 0.823,1.098 0.945,0.847 0.947,0.797 0.859,0.756 0.807,0.775 0.712,0.894 0.614,0.988 0.541,1.023 0.441,1.068 0.306,1.07 0.116,0.997 L -0.192,0.877 C -0.321,0.828 -0.318,0.819 -0.261,0.676 Z"
           style="fill:#003f7c;fill-opacity:1;fill-rule:nonzero;stroke:none"
           id="path618" />
      </g>
      <g
         id="g620"
         transform="translate(506.7631,772.444)">
        <path
           d="M 0,0 C 0.04,-0.139 0.056,-0.148 0.289,-0.08 0.434,-0.038 0.507,0.022 0.561,0.12 0.609,0.208 0.647,0.357 0.578,0.591 0.474,0.95 0.197,1.119 -0.115,1.029 -0.277,0.98 -0.283,0.967 -0.227,0.775 Z M -0.693,0.346 C -0.809,0.744 -0.83,0.785 -1.004,0.76 L -1.117,0.744 C -1.162,0.754 -1.19,0.853 -1.148,0.887 -0.855,0.993 -0.551,1.1 -0.172,1.211 0.165,1.309 0.47,1.342 0.649,1.294 0.919,1.228 1.097,1.062 1.17,0.809 1.276,0.454 1.08,0.232 0.924,0.088 0.89,0.056 0.898,0.033 0.93,-0.005 1.348,-0.462 1.6,-0.712 1.836,-0.82 1.965,-0.873 2.075,-0.867 2.137,-0.854 2.177,-0.863 2.195,-0.922 2.182,-0.952 2.127,-0.999 2,-1.043 1.877,-1.08 1.512,-1.187 1.243,-1.123 0.984,-0.888 0.795,-0.714 0.647,-0.546 0.492,-0.361 0.412,-0.269 0.341,-0.254 0.242,-0.284 0.102,-0.325 0.098,-0.335 0.12,-0.414 l 0.143,-0.49 C 0.371,-1.27 0.403,-1.291 0.59,-1.271 l 0.113,0.012 C 0.739,-1.271 0.766,-1.365 0.744,-1.398 0.532,-1.451 0.347,-1.501 0.157,-1.557 c -0.2,-0.058 -0.374,-0.113 -0.579,-0.181 -0.039,0.014 -0.066,0.109 -0.04,0.139 l 0.101,0.051 c 0.171,0.084 0.186,0.118 0.08,0.485 z"
           style="fill:#003f7c;fill-opacity:1;fill-rule:nonzero;stroke:none"
           id="path622" />
      </g>
      <g
         id="g624"
         transform="translate(509.8581,771.5782)">
        <path
           d="m 0,0 c -0.374,-0.077 -0.628,-0.02 -0.722,0.012 -0.095,0.074 -0.21,0.355 -0.265,0.632 0.018,0.059 0.11,0.081 0.152,0.044 C -0.7,0.441 -0.353,0.123 -0.007,0.194 0.295,0.255 0.39,0.491 0.349,0.693 0.28,1.023 -0.067,1.154 -0.337,1.226 -0.659,1.312 -1.031,1.489 -1.112,1.891 -1.212,2.35 -0.919,2.739 -0.33,2.86 -0.195,2.888 -0.025,2.906 0.147,2.891 0.203,2.885 0.241,2.884 0.291,2.886 0.342,2.803 0.427,2.594 0.484,2.321 0.474,2.268 0.373,2.243 0.327,2.276 0.216,2.468 -0.019,2.73 -0.312,2.669 -0.579,2.614 -0.69,2.41 -0.647,2.207 -0.609,2.02 -0.409,1.883 -0.184,1.821 L 0.113,1.732 C 0.393,1.651 0.762,1.481 0.854,1.034 0.956,0.535 0.612,0.126 0,0"
           style="fill:#003f7c;fill-opacity:1;fill-rule:nonzero;stroke:none"
           id="path626" />
      </g>
      <g
         id="g628"
         transform="translate(514.5352,773.4215)">
        <path
           d="M 0,0 C 0.095,0.005 0.117,0.019 0.076,0.124 L -0.049,0.455 C -0.117,0.63 -0.203,0.848 -0.247,0.933 -0.275,0.836 -0.346,0.608 -0.397,0.414 L -0.483,0.098 c -0.031,-0.115 -0.009,-0.125 0.094,-0.119 z m -0.458,-0.246 c -0.101,-0.006 -0.113,-0.01 -0.133,-0.09 L -0.727,-0.825 C -0.746,-0.909 -0.749,-0.942 -0.746,-0.976 -0.745,-1 -0.691,-1.022 -0.574,-1.037 l 0.126,-0.014 c 0.025,-0.028 0.04,-0.122 0,-0.145 -0.144,0 -0.294,-0.009 -0.469,-0.013 -0.14,-0.009 -0.236,-0.026 -0.425,-0.037 -0.047,0.023 -0.048,0.11 -0.022,0.144 l 0.111,0.019 c 0.099,0.018 0.179,0.055 0.241,0.222 0.062,0.169 0.131,0.372 0.226,0.676 l 0.32,1.032 c 0.081,0.266 0.142,0.415 0.124,0.533 0.195,0.057 0.338,0.268 0.346,0.269 C 0.058,1.652 0.085,1.633 0.104,1.572 0.144,1.453 0.202,1.304 0.321,1.015 L 0.974,-0.577 C 1.075,-0.82 1.119,-0.913 1.273,-0.931 L 1.431,-0.946 C 1.458,-0.965 1.472,-1.064 1.435,-1.091 1.236,-1.094 1.012,-1.103 0.797,-1.114 0.591,-1.126 0.429,-1.139 0.24,-1.158 0.193,-1.136 0.179,-1.049 0.223,-1.013 l 0.132,0.028 c 0.093,0.022 0.109,0.051 0.108,0.077 -0.003,0.028 -0.037,0.127 -0.095,0.276 l -0.131,0.35 C 0.213,-0.217 0.178,-0.21 0.033,-0.219 Z"
           style="fill:#003f7c;fill-opacity:1;fill-rule:nonzero;stroke:none"
           id="path630" />
      </g>
      <g
         id="g632"
         transform="translate(517.0781,773.0592)">
        <path
           d="m 0,0 c -0.009,-0.228 -0.006,-0.376 0.065,-0.466 0.071,-0.087 0.189,-0.129 0.338,-0.135 0.717,-0.028 0.986,0.6 1.01,1.163 C 1.443,1.307 1.067,1.766 0.318,1.796 0.207,1.801 0.127,1.783 0.099,1.751 0.074,1.719 0.066,1.64 0.062,1.513 Z m -0.539,1.337 c 0.016,0.393 0.01,0.473 -0.178,0.501 l -0.08,0.011 C -0.836,1.871 -0.831,1.991 -0.782,1.993 -0.433,2 -0.11,2.003 0.33,1.986 0.669,1.973 1.006,1.926 1.289,1.811 1.822,1.594 2.101,1.094 2.081,0.576 2.06,0.021 1.775,-0.415 1.29,-0.633 1.003,-0.762 0.66,-0.802 0.234,-0.785 c -0.193,0.009 -0.4,0.042 -0.551,0.048 -0.197,0.008 -0.408,0.012 -0.644,0.013 -0.032,0.026 -0.03,0.125 0.006,0.146 l 0.129,0.015 c 0.186,0.021 0.213,0.053 0.228,0.434 z"
           style="fill:#003f7c;fill-opacity:1;fill-rule:nonzero;stroke:none"
           id="path634" />
      </g>
      <g
         id="g636"
         transform="translate(521.2501,772.9723)">
        <path
           d="m 0,0 c -0.278,-0.469 -0.428,-0.779 -0.554,-0.996 -0.035,-0.017 -0.087,-0.023 -0.149,-0.014 -0.048,0.007 -0.085,0.024 -0.106,0.048 -0.029,0.117 -0.07,0.344 -0.108,0.492 l -0.439,1.761 c -0.102,0.417 -0.121,0.428 -0.25,0.477 L -1.762,1.832 C -1.79,1.882 -1.767,1.954 -1.727,1.971 -1.52,1.937 -1.385,1.91 -1.17,1.882 -0.983,1.856 -0.805,1.836 -0.553,1.811 -0.524,1.781 -0.539,1.703 -0.569,1.669 L -0.695,1.661 C -0.771,1.654 -0.803,1.634 -0.808,1.598 -0.813,1.565 -0.77,1.383 -0.705,1.123 L -0.468,0.15 c 0.035,-0.159 0.068,-0.289 0.087,-0.362 0.042,0.065 0.127,0.195 0.193,0.312 L 0.021,0.465 C 0.158,0.709 0.398,1.146 0.464,1.278 0.505,1.353 0.523,1.396 0.528,1.42 0.531,1.45 0.501,1.471 0.405,1.508 L 0.278,1.555 C 0.25,1.592 0.26,1.678 0.313,1.692 0.505,1.659 0.66,1.633 0.816,1.612 0.956,1.593 1.08,1.58 1.201,1.572 1.232,1.55 1.222,1.452 1.189,1.431 L 1.08,1.424 C 0.962,1.419 0.887,1.4 0.824,1.322 0.714,1.198 0.581,0.982 0.395,0.669 Z"
           style="fill:#003f7c;fill-opacity:1;fill-rule:nonzero;stroke:none"
           id="path638" />
      </g>
      <g
         id="g640"
         transform="translate(523.2501,772.7306)">
        <path
           d="M 0,0 C 0.093,-0.02 0.117,-0.011 0.106,0.101 L 0.072,0.452 C 0.053,0.638 0.027,0.874 0.008,0.966 -0.044,0.88 -0.172,0.677 -0.273,0.505 L -0.44,0.223 C -0.499,0.122 -0.482,0.105 -0.381,0.083 Z m -0.508,-0.115 c -0.098,0.021 -0.11,0.02 -0.152,-0.052 l -0.259,-0.436 c -0.042,-0.076 -0.054,-0.107 -0.061,-0.14 -0.006,-0.024 0.043,-0.059 0.153,-0.104 l 0.116,-0.047 c 0.018,-0.033 0.006,-0.129 -0.037,-0.14 -0.141,0.038 -0.288,0.071 -0.457,0.112 -0.137,0.029 -0.232,0.036 -0.419,0.077 -0.04,0.034 -0.017,0.117 0.017,0.144 l 0.112,-0.01 c 0.1,-0.01 0.189,0.005 0.291,0.148 0.104,0.147 0.223,0.326 0.395,0.594 l 0.583,0.91 C -0.077,1.176 0.021,1.303 0.035,1.423 0.239,1.425 0.432,1.592 0.441,1.59 0.494,1.579 0.513,1.553 0.516,1.489 0.523,1.364 0.539,1.204 0.58,0.894 L 0.788,-0.814 C 0.821,-1.075 0.837,-1.177 0.981,-1.233 L 1.13,-1.291 c 0.02,-0.026 0.008,-0.125 -0.035,-0.142 -0.193,0.051 -0.41,0.103 -0.622,0.148 -0.202,0.043 -0.361,0.074 -0.549,0.105 -0.04,0.034 -0.029,0.122 0.021,0.144 l 0.136,-0.007 c 0.096,-0.003 0.118,0.02 0.123,0.046 0.007,0.028 -10e-4,0.131 -0.017,0.291 l -0.034,0.373 c -0.006,0.069 -0.037,0.083 -0.179,0.115 z"
           style="fill:#003f7c;fill-opacity:1;fill-rule:nonzero;stroke:none"
           id="path642" />
      </g>
      <g
         id="g644"
         transform="translate(527.1611,771.1662)">
        <path
           d="m 0,0 c -0.083,-0.256 -0.161,-0.505 -0.196,-0.639 -0.043,-0.039 -0.168,-0.047 -0.261,-0.017 -0.004,0.002 -0.07,0.244 -0.184,0.532 L -1.195,1.297 C -1.334,1.649 -1.412,1.857 -1.463,1.939 -1.497,1.906 -1.519,1.838 -1.565,1.692 L -1.808,0.925 C -1.909,0.606 -1.989,0.304 -1.979,0.184 -1.97,0.09 -1.886,0.033 -1.789,-0.015 l 0.105,-0.051 c 0.021,-0.042 -0.013,-0.122 -0.044,-0.138 -0.211,0.076 -0.368,0.129 -0.525,0.179 -0.147,0.047 -0.294,0.088 -0.447,0.13 -0.016,0.03 0.002,0.116 0.044,0.137 l 0.072,-0.009 c 0.112,-0.015 0.2,-0.012 0.258,0.061 0.078,0.093 0.182,0.386 0.286,0.705 l 0.318,1.003 c 0.068,0.219 0.084,0.283 0.078,0.346 -0.01,0.076 -0.051,0.142 -0.183,0.206 l -0.105,0.05 c -0.018,0.04 0.016,0.135 0.06,0.135 0.183,-0.068 0.379,-0.134 0.542,-0.185 0.133,-0.043 0.249,-0.076 0.335,-0.095 -0.018,-0.19 0.144,-0.571 0.366,-1.107 l 0.208,-0.497 c 0.108,-0.26 0.18,-0.436 0.24,-0.555 0.028,0.034 0.051,0.102 0.072,0.173 l 0.175,0.546 c 0.1,0.32 0.179,0.62 0.169,0.741 -0.01,0.094 -0.088,0.15 -0.189,0.199 l -0.102,0.05 c -0.02,0.041 0.014,0.122 0.043,0.14 C 0.199,2.073 0.352,2.02 0.514,1.968 0.659,1.921 0.803,1.88 0.96,1.838 0.976,1.809 0.959,1.722 0.916,1.701 L 0.842,1.711 C 0.734,1.728 0.648,1.72 0.587,1.648 0.509,1.556 0.399,1.265 0.299,0.944 Z"
           style="fill:#003f7c;fill-opacity:1;fill-rule:nonzero;stroke:none"
           id="path646" />
      </g>
      <g
         id="g648"
         transform="translate(530.9671,771.7365)">
        <path
           d="m 0,0 c -0.03,-0.069 -0.149,-0.378 -0.211,-0.614 -0.034,-0.039 -0.143,-0.009 -0.155,0.036 0.051,0.398 -0.111,0.694 -0.481,0.854 -0.421,0.182 -1.031,0.016 -1.359,-0.741 -0.326,-0.758 -0.064,-1.354 0.393,-1.551 0.459,-0.199 0.816,0.039 1.03,0.254 0.044,0.017 0.13,-0.034 0.134,-0.089 -0.148,-0.27 -0.312,-0.471 -0.404,-0.535 -0.229,0.032 -0.537,0.064 -0.834,0.192 -0.371,0.162 -0.715,0.414 -0.899,0.732 -0.183,0.328 -0.255,0.734 -0.053,1.207 0.203,0.463 0.542,0.706 0.898,0.81 0.367,0.108 0.805,0.054 1.2,-0.117 C -0.352,0.269 -0.11,0.057 0,0"
           style="fill:#003f7c;fill-opacity:1;fill-rule:nonzero;stroke:none"
           id="path650" />
      </g>
      <g
         id="g652"
         transform="translate(531.4102,769.1496)">
        <path
           d="m 0,0 c -0.182,-0.344 -0.173,-0.382 -0.019,-0.5 l 0.093,-0.072 c 0.018,-0.036 -0.03,-0.12 -0.07,-0.126 -0.196,0.112 -0.374,0.208 -0.546,0.299 -0.176,0.092 -0.363,0.185 -0.565,0.279 -0.017,0.039 0.028,0.123 0.068,0.129 l 0.113,-0.035 c 0.183,-0.06 0.219,-0.044 0.399,0.301 L 0.179,1.627 C 0.36,1.973 0.352,2.01 0.198,2.128 L 0.105,2.201 C 0.087,2.238 0.132,2.322 0.173,2.328 0.367,2.216 0.549,2.116 0.724,2.024 0.898,1.934 1.084,1.842 1.286,1.746 1.303,1.71 1.26,1.624 1.218,1.618 L 1.105,1.653 C 0.922,1.713 0.886,1.698 0.706,1.352 Z"
           style="fill:#003f7c;fill-opacity:1;fill-rule:nonzero;stroke:none"
           id="path654" />
      </g>
      <g
         id="g656"
         transform="translate(534.3461,767.5143)">
        <path
           d="m 0,0 c -0.142,-0.229 -0.283,-0.449 -0.348,-0.57 -0.051,-0.027 -0.174,-0.004 -0.258,0.049 -0.003,0.003 -0.007,0.254 -0.043,0.562 l -0.184,1.513 c -0.047,0.377 -0.07,0.598 -0.1,0.69 C -0.972,2.22 -1.01,2.16 -1.093,2.029 L -1.519,1.349 C -1.698,1.065 -1.848,0.792 -1.869,0.673 -1.884,0.579 -1.819,0.504 -1.736,0.432 L -1.647,0.357 C -1.635,0.312 -1.69,0.242 -1.722,0.234 -1.909,0.359 -2.048,0.451 -2.187,0.539 -2.317,0.621 -2.45,0.698 -2.588,0.775 -2.596,0.81 -2.557,0.889 -2.51,0.898 l 0.065,-0.026 c 0.106,-0.043 0.192,-0.062 0.267,-0.007 0.097,0.072 0.273,0.328 0.452,0.614 l 0.559,0.892 c 0.121,0.193 0.153,0.252 0.162,0.315 0.009,0.077 -0.013,0.15 -0.125,0.245 l -0.089,0.075 c -0.006,0.044 0.049,0.125 0.09,0.115 0.161,-0.112 0.335,-0.225 0.48,-0.315 0.119,-0.075 0.223,-0.135 0.3,-0.175 -0.064,-0.18 -0.002,-0.591 0.077,-1.164 l 0.079,-0.532 c 0.04,-0.282 0.065,-0.468 0.095,-0.599 0.035,0.026 0.073,0.086 0.113,0.148 L 0.318,0.97 C 0.497,1.255 0.648,1.527 0.669,1.646 0.685,1.739 0.621,1.812 0.536,1.887 L 0.449,1.96 C 0.44,2.006 0.492,2.075 0.528,2.084 0.712,1.957 0.847,1.868 0.99,1.777 1.12,1.695 1.249,1.62 1.391,1.542 1.398,1.506 1.36,1.429 1.313,1.418 L 1.243,1.447 C 1.143,1.49 1.06,1.504 0.982,1.45 0.884,1.38 0.704,1.125 0.527,0.84 Z"
           style="fill:#003f7c;fill-opacity:1;fill-rule:nonzero;stroke:none"
           id="path658" />
      </g>
      <g
         id="g660"
         transform="translate(536.8711,765.3083)">
        <path
           d="m 0,0 c -0.107,-0.136 -0.152,-0.207 -0.099,-0.269 0.002,-0.024 -0.044,-0.075 -0.072,-0.07 -0.063,0.032 -0.156,0.09 -0.267,0.129 -0.143,0.054 -0.458,0.23 -0.64,0.372 -0.223,0.174 -0.394,0.344 -0.555,0.616 -0.265,0.452 -0.243,1.021 0.124,1.49 0.318,0.411 0.782,0.626 1.346,0.541 C 0.153,2.756 0.459,2.602 0.736,2.386 1.099,2.103 1.219,1.884 1.324,1.804 1.257,1.697 1.082,1.466 0.959,1.241 0.919,1.214 0.828,1.28 0.83,1.331 0.965,1.72 0.878,2.035 0.573,2.271 0.052,2.677 -0.535,2.44 -0.937,1.924 -1.301,1.455 -1.358,1.051 -1.257,0.743 -1.182,0.516 -1.027,0.364 -0.906,0.269 -0.72,0.124 -0.653,0.13 -0.487,0.342 l 0.161,0.207 c 0.138,0.177 0.133,0.211 -0.006,0.356 L -0.461,1.037 C -0.482,1.084 -0.422,1.16 -0.371,1.152 -0.144,0.964 0.013,0.836 0.174,0.71 0.332,0.589 0.493,0.467 0.61,0.387 0.621,0.348 0.563,0.271 0.521,0.272 L 0.435,0.318 C 0.324,0.378 0.28,0.361 0.141,0.184 Z"
           style="fill:#003f7c;fill-opacity:1;fill-rule:nonzero;stroke:none"
           id="path662" />
      </g>
      <g
         id="g664"
         transform="translate(539.7531,762.8415)">
        <path
           d="m 0,0 c -0.142,-0.133 -0.228,-0.235 -0.241,-0.319 -0.014,-0.087 0.013,-0.165 0.219,-0.386 0.255,-0.277 0.344,-0.354 0.861,-0.205 0.054,0.004 0.106,-0.078 0.089,-0.133 -0.172,-0.132 -0.491,-0.292 -0.612,-0.326 -0.143,0.166 -0.41,0.461 -0.643,0.71 l -0.377,0.406 c -0.129,0.141 -0.274,0.29 -0.455,0.472 -0.007,0.044 0.058,0.115 0.099,0.107 l 0.122,-0.099 c 0.145,-0.122 0.187,-0.118 0.469,0.145 L 0.66,1.421 C 0.942,1.682 0.954,1.726 0.844,1.88 L 0.774,1.979 C 0.763,2.026 0.834,2.091 0.887,2.071 1.028,1.908 1.165,1.753 1.299,1.607 1.436,1.463 1.58,1.313 1.727,1.166 1.731,1.125 1.661,1.061 1.621,1.068 L 1.535,1.135 C 1.387,1.252 1.344,1.247 1.063,0.986 Z"
           style="fill:#003f7c;fill-opacity:1;fill-rule:nonzero;stroke:none"
           id="path666" />
      </g>
      <g
         id="g668"
         transform="translate(542.2521,761.4294)">
        <path
           d="m 0,0 c -0.092,-0.072 -0.096,-0.081 -0.026,-0.168 l 0.177,-0.226 c 0.133,-0.17 0.185,-0.189 0.369,-0.1 l 0.093,0.048 C 0.657,-0.448 0.722,-0.53 0.705,-0.569 0.595,-0.646 0.476,-0.734 0.352,-0.83 0.228,-0.929 0.114,-1.023 0.013,-1.111 c -0.042,-0.007 -0.11,0.072 -0.097,0.118 l 0.068,0.08 c 0.131,0.155 0.127,0.215 -0.006,0.384 l -0.177,0.225 c -0.071,0.089 -0.075,0.089 -0.173,0.012 l -0.387,-0.304 c -0.151,-0.117 -0.244,-0.213 -0.27,-0.296 -0.024,-0.087 -0.002,-0.171 0.184,-0.408 0.222,-0.284 0.32,-0.387 0.829,-0.277 0.057,0.002 0.106,-0.09 0.078,-0.134 -0.18,-0.12 -0.506,-0.25 -0.629,-0.272 -0.129,0.178 -0.371,0.494 -0.582,0.76 l -0.333,0.424 c -0.122,0.156 -0.251,0.314 -0.449,0.553 -10e-4,0.042 0.077,0.103 0.114,0.09 l 0.143,-0.136 c 0.137,-0.128 0.174,-0.133 0.472,0.103 L 0.015,0.766 C 0.312,0.998 0.317,1.033 0.23,1.203 L 0.183,1.299 C 0.179,1.342 0.256,1.398 0.302,1.381 0.416,1.222 0.539,1.06 0.662,0.903 L 1.204,0.212 C 1.367,0.004 1.517,-0.18 1.556,-0.217 1.505,-0.262 1.291,-0.469 1.083,-0.657 1.038,-0.672 0.972,-0.601 0.976,-0.546 1.063,-0.42 1.125,-0.297 1.136,-0.219 1.15,-0.109 1.113,0.019 0.986,0.18 L 0.783,0.44 C 0.699,0.548 0.691,0.542 0.57,0.447 Z"
           style="fill:#003f7c;fill-opacity:1;fill-rule:nonzero;stroke:none"
           id="path670" />
      </g>
      <g
         id="g672"
         transform="translate(543.5931,758.7101)">
        <path
           d="M 0,0 C 0.053,-0.08 0.076,-0.09 0.147,-0.003 L 0.369,0.271 C 0.487,0.417 0.632,0.602 0.685,0.681 0.586,0.656 0.355,0.603 0.16,0.551 L -0.156,0.466 C -0.271,0.437 -0.27,0.413 -0.213,0.326 Z M -0.441,0.275 C -0.497,0.359 -0.507,0.366 -0.586,0.344 L -1.077,0.215 C -1.16,0.191 -1.189,0.176 -1.217,0.16 -1.238,0.144 -1.228,0.086 -1.184,-0.023 l 0.052,-0.115 c -0.011,-0.037 -0.085,-0.097 -0.127,-0.073 -0.073,0.127 -0.154,0.252 -0.247,0.399 -0.076,0.117 -0.139,0.191 -0.244,0.351 -0.004,0.051 0.072,0.095 0.116,0.089 l 0.071,-0.087 c 0.065,-0.075 0.138,-0.127 0.311,-0.097 0.178,0.032 0.389,0.075 0.7,0.143 L 0.5,0.828 C 0.772,0.891 0.93,0.912 1.026,0.988 1.172,0.846 1.426,0.829 1.43,0.822 1.459,0.777 1.455,0.744 1.413,0.697 1.329,0.603 1.229,0.477 1.04,0.229 l -1.051,-1.361 c -0.16,-0.209 -0.219,-0.293 -0.156,-0.435 l 0.066,-0.145 c -0.004,-0.033 -0.082,-0.094 -0.124,-0.076 -0.102,0.171 -0.221,0.36 -0.339,0.541 -0.113,0.173 -0.206,0.306 -0.318,0.46 -0.004,0.052 0.065,0.107 0.116,0.087 l 0.091,-0.099 c 0.066,-0.072 0.1,-0.069 0.121,-0.056 0.025,0.017 0.091,0.095 0.192,0.221 l 0.237,0.289 c 0.043,0.053 0.033,0.087 -0.047,0.207 z"
           style="fill:#003f7c;fill-opacity:1;fill-rule:nonzero;stroke:none"
           id="path674" />
      </g>
      <g
         id="g676"
         transform="translate(545.2531,756.6852)">
        <path
           d="M 0,0 C -0.129,-0.068 -0.134,-0.084 -0.019,-0.3 0.052,-0.433 0.125,-0.491 0.233,-0.523 0.327,-0.553 0.481,-0.561 0.698,-0.445 1.027,-0.27 1.135,0.038 0.985,0.323 0.903,0.472 0.888,0.473 0.713,0.38 Z M 0.197,0.75 C 0.562,0.944 0.6,0.974 0.539,1.138 L 0.501,1.244 C 0.5,1.29 0.591,1.339 0.633,1.306 0.796,1.041 0.964,0.764 1.15,0.416 1.315,0.105 1.411,-0.188 1.4,-0.372 1.387,-0.649 1.264,-0.857 1.03,-0.981 0.705,-1.154 0.45,-1.011 0.276,-0.886 0.239,-0.86 0.214,-0.871 0.186,-0.911 c -0.363,-0.502 -0.558,-0.798 -0.614,-1.054 -0.026,-0.137 0.004,-0.243 0.029,-0.3 -0.002,-0.043 -0.056,-0.072 -0.087,-0.065 -0.057,0.044 -0.126,0.157 -0.188,0.271 -0.179,0.337 -0.172,0.614 0.007,0.914 0.131,0.221 0.265,0.401 0.416,0.588 0.073,0.096 0.07,0.17 0.023,0.262 -0.067,0.128 -0.08,0.131 -0.152,0.092 l -0.45,-0.239 c -0.337,-0.18 -0.351,-0.216 -0.293,-0.395 l 0.035,-0.108 c -0.005,-0.036 -0.092,-0.082 -0.128,-0.068 -0.096,0.197 -0.182,0.367 -0.276,0.543 -0.096,0.182 -0.187,0.341 -0.296,0.527 0.006,0.042 0.095,0.089 0.128,0.069 l 0.072,-0.089 c 0.116,-0.149 0.154,-0.157 0.491,0.022 z"
           style="fill:#003f7c;fill-opacity:1;fill-rule:nonzero;stroke:none"
           id="path678" />
      </g>
      <g
         id="g680"
         transform="translate(546.4571,752.0924)">
        <path
           d="m 0,0 c -0.249,-0.104 -0.491,-0.204 -0.615,-0.264 -0.056,0.009 -0.143,0.098 -0.18,0.191 -0.001,0.004 0.14,0.21 0.289,0.482 L 0.223,1.746 C 0.404,2.082 0.512,2.272 0.542,2.367 0.496,2.37 0.43,2.342 0.289,2.284 L -0.454,1.977 C -0.764,1.85 -1.046,1.715 -1.131,1.631 -1.198,1.562 -1.189,1.463 -1.162,1.357 L -1.133,1.244 C -1.151,1.201 -1.236,1.175 -1.268,1.189 c -0.078,0.21 -0.138,0.366 -0.201,0.519 -0.059,0.14 -0.119,0.28 -0.188,0.422 0.014,0.033 0.091,0.074 0.133,0.057 l 0.039,-0.062 c 0.063,-0.096 0.121,-0.161 0.214,-0.158 0.12,10e-4 0.413,0.108 0.724,0.236 l 0.971,0.401 c 0.211,0.087 0.271,0.117 0.315,0.163 0.054,0.056 0.077,0.13 0.042,0.272 L 0.75,3.152 C 0.77,3.191 0.864,3.225 0.89,3.191 0.959,3.009 1.033,2.815 1.098,2.658 1.152,2.528 1.202,2.419 1.242,2.341 1.086,2.232 0.897,1.863 0.629,1.349 L 0.382,0.871 C 0.254,0.62 0.166,0.454 0.114,0.329 0.159,0.33 0.223,0.356 0.293,0.384 l 0.529,0.219 c 0.31,0.128 0.59,0.263 0.677,0.346 0.065,0.069 0.057,0.164 0.03,0.274 L 1.502,1.332 C 1.521,1.376 1.603,1.401 1.635,1.39 1.713,1.18 1.771,1.029 1.837,0.871 1.895,0.73 1.955,0.594 2.026,0.445 2.011,0.413 1.934,0.372 1.89,0.39 L 1.851,0.454 C 1.794,0.547 1.733,0.607 1.638,0.608 1.519,0.608 1.225,0.506 0.914,0.377 Z"
           style="fill:#003f7c;fill-opacity:1;fill-rule:nonzero;stroke:none"
           id="path682" />
      </g>
      <g
         id="g684"
         transform="translate(546.8881,750.4582)">
        <path
           d="m 0,0 c -0.371,-0.119 -0.39,-0.152 -0.365,-0.344 l 0.017,-0.117 c -0.015,-0.04 -0.105,-0.064 -0.14,-0.042 -0.06,0.217 -0.118,0.412 -0.178,0.597 -0.061,0.19 -0.129,0.386 -0.205,0.596 0.014,0.04 0.105,0.068 0.138,0.045 L -0.677,0.63 C -0.588,0.458 -0.552,0.444 -0.181,0.564 L 1.27,1.032 C 1.642,1.151 1.662,1.183 1.634,1.375 L 1.617,1.492 C 1.63,1.531 1.723,1.561 1.758,1.536 1.817,1.322 1.877,1.122 1.939,0.933 1.998,0.747 2.064,0.551 2.141,0.341 2.128,0.301 2.037,0.273 2.004,0.296 L 1.948,0.401 C 1.858,0.572 1.823,0.587 1.451,0.467 Z"
           style="fill:#003f7c;fill-opacity:1;fill-rule:nonzero;stroke:none"
           id="path686" />
      </g>
      <g
         id="g688"
         transform="translate(547.8411,747.2028)">
        <path
           d="m 0,0 c -0.261,-0.062 -0.517,-0.123 -0.648,-0.162 -0.055,0.016 -0.125,0.119 -0.149,0.217 -0.001,0.003 0.172,0.185 0.363,0.429 L 0.499,1.69 C 0.729,1.992 0.87,2.166 0.912,2.252 0.868,2.263 0.798,2.247 0.65,2.211 L -0.134,2.026 C -0.462,1.948 -0.759,1.861 -0.858,1.792 -0.934,1.735 -0.941,1.636 -0.931,1.526 L -0.921,1.41 C -0.947,1.369 -1.034,1.357 -1.063,1.376 c -0.044,0.22 -0.078,0.382 -0.115,0.545 -0.036,0.148 -0.076,0.296 -0.12,0.448 0.019,0.03 0.101,0.059 0.141,0.033 l 0.028,-0.065 c 0.046,-0.104 0.093,-0.179 0.186,-0.191 0.12,-0.018 0.426,0.042 0.754,0.119 L 0.835,2.508 C 1.057,2.559 1.12,2.58 1.172,2.616 1.233,2.665 1.267,2.732 1.254,2.879 L 1.244,2.996 C 1.27,3.032 1.368,3.051 1.389,3.013 1.426,2.822 1.469,2.619 1.508,2.453 1.541,2.316 1.574,2.2 1.6,2.117 1.429,2.034 1.184,1.698 0.838,1.233 L 0.519,0.8 C 0.35,0.573 0.237,0.422 0.166,0.307 0.21,0.3 0.279,0.317 0.351,0.335 l 0.558,0.13 C 1.236,0.543 1.536,0.63 1.633,0.701 1.71,0.756 1.717,0.853 1.706,0.966 L 1.698,1.078 C 1.722,1.119 1.809,1.131 1.838,1.111 1.881,0.892 1.914,0.733 1.954,0.567 1.99,0.417 2.028,0.272 2.074,0.119 2.055,0.089 1.972,0.061 1.932,0.086 L 1.903,0.155 C 1.862,0.257 1.811,0.326 1.717,0.341 1.598,0.36 1.291,0.305 0.965,0.228 Z"
           style="fill:#003f7c;fill-opacity:1;fill-rule:nonzero;stroke:none"
           id="path690" />
      </g>
      <g
         id="g692"
         transform="translate(548.0921,743.8322)">
        <path
           d="m 0,0 c -0.172,-0.022 -0.254,-0.04 -0.258,-0.12 -0.016,-0.019 -0.087,-0.024 -0.102,-0.002 -0.021,0.069 -0.048,0.175 -0.1,0.281 -0.063,0.138 -0.163,0.485 -0.192,0.715 -0.036,0.279 -0.038,0.522 0.039,0.829 0.13,0.505 0.544,0.894 1.136,0.97 C 1.036,2.741 1.519,2.57 1.859,2.111 2.046,1.852 2.156,1.527 2.202,1.178 2.261,0.722 2.191,0.482 2.209,0.35 2.087,0.323 1.8,0.281 1.554,0.208 1.506,0.218 1.487,0.328 1.525,0.363 1.895,0.544 2.055,0.829 2.005,1.211 1.919,1.865 1.336,2.111 0.686,2.026 0.097,1.951 -0.225,1.703 -0.372,1.412 -0.477,1.197 -0.474,0.981 -0.454,0.829 -0.423,0.594 -0.372,0.551 -0.104,0.585 L 0.154,0.619 C 0.376,0.646 0.398,0.675 0.402,0.877 L 0.403,1.061 C 0.42,1.11 0.515,1.122 0.546,1.08 0.576,0.786 0.597,0.584 0.624,0.383 0.65,0.185 0.679,-0.017 0.706,-0.155 0.685,-0.19 0.591,-0.202 0.563,-0.172 L 0.534,-0.081 C 0.497,0.041 0.453,0.06 0.231,0.03 Z"
           style="fill:#003f7c;fill-opacity:1;fill-rule:nonzero;stroke:none"
           id="path694" />
      </g>
      <g
         id="g696"
         transform="translate(549.4511,740.6627)">
        <path
           d="M 0,0 C -0.232,-0.005 -0.417,0.178 -0.422,0.404 -0.425,0.63 -0.248,0.817 -0.013,0.82 0.217,0.825 0.4,0.647 0.405,0.418 0.41,0.191 0.23,0.003 0,0"
           style="fill:#003f7c;fill-opacity:1;fill-rule:nonzero;stroke:none"
           id="path698" />
      </g>
      <g
         id="g700"
         transform="translate(491.6241,762.654)">
        <path
           d="M 0,0 C -0.232,-0.004 -0.417,0.179 -0.422,0.405 -0.425,0.628 -0.249,0.817 -0.014,0.821 0.215,0.825 0.401,0.648 0.405,0.418 0.409,0.191 0.229,0.003 0,0"
           style="fill:#003f7c;fill-opacity:1;fill-rule:nonzero;stroke:none"
           id="path702" />
      </g>
    </g>
  </g>
  <metadata
     id="metadata2433">
    <rdf:RDF>
      <cc:Work
         rdf:about="">
        <dc:title>Association of Directors of Education in Scotland</dc:title>
      </cc:Work>
    </rdf:RDF>
  </metadata>
</svg>
