<svg xmlns="http://www.w3.org/2000/svg" width="204" height="94" viewBox="0 0 204 94"><g fill="none" fill-rule="evenodd"><g fill="#007D83"><path fill-opacity=".7" d="M24.17 28.6c1.37.25 2.76.41 4.16.48l.55.02a30.86 30.86 0 0 1-2 4.2c-1.55 0-3.1-.13-4.63-.37l.3-.56a32.05 32.05 0 0 0 1.62-3.76zM7.6 21.1l-.12.16.13.1.32.24.47.34.8.55a42.09 42.09 0 0 0 14.4 6.01 34.74 34.74 0 0 1-1.57 3.61l-.36.68.12.06a30.78 30.78 0 0 1-4.52-1.13l.18-.33.02-.02-.2.35a30.8 30.8 0 0 1-5.9-2.7 30.57 30.57 0 0 1-6.13-4.78 28.8 28.8 0 0 1 2.36-3.13zm22.73 3.08a30.83 30.83 0 0 1-1.29 4.5v-.15l-.61-.02a31.9 31.9 0 0 1-4.06-.45c.49-1.43.88-2.86 1.2-4.28 1.57.24 3.16.37 4.76.4zm-4.74-13.62l.07.5.02.22.04.49a40 40 0 0 1-.73 11.91c-.94-.16-1.88-.36-2.81-.6l-1.32-.36c1.35.4 2.73.73 4.13.96-.3 1.43-.7 2.85-1.2 4.27a41.51 41.51 0 0 1-14.27-5.94l-.54-.37-.49-.34-.34-.25-.3-.23a31.07 31.07 0 0 1 2.86-2.87 35.1 35.1 0 0 0 9.39 4.56l.68.2v-.01c.9-3.6 1.2-7.35.91-11.09a33 33 0 0 1 3.9-1.05zm4.28-.55a30.6 30.6 0 0 1 .45 14.17c-1.6-.03-3.19-.16-4.76-.4.9-4.18 1.06-8.31.74-12.06l-.05-.5-.05-.43-.04-.32-.27.04c1.31-.25 2.64-.42 3.98-.5z"/><path d="M24.17 28.6c1.37.25 2.76.41 4.16.48l.55.02a30.9 30.9 0 0 1-1.67 3.63l-.32.57c-1.56 0-3.1-.13-4.64-.37l.3-.56a32.05 32.05 0 0 0 1.62-3.76zm-4.86-1.22c1.41.46 2.84.84 4.29 1.12a34.74 34.74 0 0 1-1.57 3.61l-.36.68.12.06a30.78 30.78 0 0 1-4.52-1.13 35.24 35.24 0 0 0 1.8-3.75l.24-.59zm11.02-3.2a30.82 30.82 0 0 1-1.29 4.5v-.15l-.61-.02a31.9 31.9 0 0 1-4.06-.45c.49-1.43.88-2.86 1.2-4.28 1.56.24 3.16.37 4.76.4zm-9.55-1.48c1.38.42 2.79.74 4.21.99-.3 1.42-.7 2.84-1.2 4.26a35.78 35.78 0 0 1-4.27-1.1c.42-1.14.78-2.3 1.08-3.47l.17-.67z"/></g><g fill="#929C00"><path fill-opacity=".7" d="M16.11 42.37a32.01 32.01 0 0 1 2.4 3.24l.35.57.12-.07a31.1 31.1 0 0 1-3.24 3.35 35.2 35.2 0 0 0-1.77-2.67l.46.65c.46.66.9 1.33 1.3 2.02a30.75 30.75 0 0 1-12.48 6.69 31.34 31.34 0 0 1-1.53-3.61l.07.18.1-.04.65-.29.58-.26a42.26 42.26 0 0 0 9.61-6.37 36.14 36.14 0 0 0 3.38-3.4zM1.6 31.67l.34.15.4.17.54.25a41.69 41.69 0 0 1 9.48 6.28l.28.25-.47.55-.5.57c.33-.36.65-.74.97-1.12 1.1 1 2.14 2.05 3.1 3.15a36.4 36.4 0 0 1-3.38 3.4 41.69 41.69 0 0 1-9.48 6.29l-.53.24-.52.23-.23.1a31.07 31.07 0 0 1-1.05-3.92 35.1 35.1 0 0 0 8.64-5.85l.51-.5a35.07 35.07 0 0 0-9.15-6.34 33 33 0 0 1 1.05-3.9zm20 9.69l.33.56a30.89 30.89 0 0 1-2.64 3.83L19 45.3a31.24 31.24 0 0 0-2.5-3.37c.9-1.08 1.74-2.2 2.5-3.37l.29-.47c.83 1.04 1.6 2.13 2.3 3.27zm-5.85-6.98A30.82 30.82 0 0 1 19 37.75l-.14-.08-.35.56a31.97 31.97 0 0 1-2.4 3.25c-.87-1-1.8-1.95-2.78-2.85l-.34-.3c1-1.25 1.92-2.57 2.75-3.95zm-12.5-6.69a30.55 30.55 0 0 1 12.5 6.69A35.19 35.19 0 0 1 13 38.32l-.26-.23a42.26 42.26 0 0 0-9.61-6.37l-.58-.26-.34-.16-.41-.17-.1.26c.44-1.26.96-2.5 1.56-3.7z"/><path d="M16.11 42.37a32.01 32.01 0 0 1 2.4 3.24l.35.57.12-.07a31.1 31.1 0 0 1-3.24 3.35A35.28 35.28 0 0 0 13 45.52c1.1-1 2.15-2.05 3.11-3.15zm5.47-1.01l.34.56a30.9 30.9 0 0 1-2.64 3.83l-.29-.45a31.24 31.24 0 0 0-2.5-3.37c.9-1.08 1.74-2.2 2.5-3.37l.29-.47c.83 1.04 1.6 2.13 2.3 3.27zm-8.95-2.59c1.1 1 2.14 2.05 3.1 3.15-.86 1-1.8 1.96-2.78 2.87l-.32.28a35.32 35.32 0 0 0-2.44-2.67l-.5-.48a37 37 0 0 0 2.84-3.03l.1-.12zm3.1-4.4A30.77 30.77 0 0 1 19 37.76l-.14-.08-.35.56a31.97 31.97 0 0 1-2.4 3.25c-.87-1-1.8-1.95-2.78-2.85l-.34-.3c1-1.25 1.92-2.57 2.75-3.95z"/></g><g fill="#96864D"><path fill-opacity=".7" d="M30.33 59.67h-.46.46a30.75 30.75 0 0 1-.46 14.16 31.6 31.6 0 0 1-3.88-.47l.18.02.01-.05.09-.7.04-.5c.44-5.03 0-10.75-1.93-16.34 1.32-.23 2.66-.38 4-.45l.68-.02v-.14a31.5 31.5 0 0 1 1.27 4.49zm-6.52-3.77a39.24 39.24 0 0 1 1.97 15.65l-.04.54-.05.48-.04.42-.04.3a31.05 31.05 0 0 1-3.91-1.06c.27-3.5.01-7.01-.75-10.4l-.17-.7h-.01a35.08 35.08 0 0 0-10.05 4.76 31.04 31.04 0 0 1-2.86-2.85l.11-.1.54-.39a41.51 41.51 0 0 1 11.02-5.54l.22.63-.23-.63c1.41-.46 2.84-.83 4.29-1.11zm-6.53-3.77a35.2 35.2 0 0 1 2.04 4.34 41.53 41.53 0 0 0-11.15 5.61l-.35.26-.33.25.17.22a31.3 31.3 0 0 1-2.41-3.2 30.59 30.59 0 0 1 12.03-7.48zm4.54-1.14l-.13.07.35.68a31.47 31.47 0 0 1 1.57 3.61 36.4 36.4 0 0 0-4.3 1.12 35 35 0 0 0-2.03-4.34c1.48-.5 3-.88 4.54-1.14zm5.07-.45a30.89 30.89 0 0 1 2 4.2l-.48.02c-1.42.07-2.83.23-4.22.48a35.4 35.4 0 0 0-1.63-3.76l-.3-.57c1.31-.2 2.64-.32 3.98-.36h.65z"/><path d="M23.8 55.9c.5 1.41.9 2.84 1.2 4.26-1.2.2-2.38.47-3.55.79l-.67.2v-.02a35.4 35.4 0 0 0-1.26-4.12 35.6 35.6 0 0 1 4.29-1.11zm6.53 3.77c-1.6.02-3.19.16-4.76.4-.3-1.43-.7-2.86-1.19-4.28 1.32-.23 2.66-.38 4-.45l.68-.02v-.14a31.5 31.5 0 0 1 1.27 4.49zm-8.5-8.68l-.14.07.35.68a31.47 31.47 0 0 1 1.57 3.61 36.4 36.4 0 0 0-4.3 1.12 35.08 35.08 0 0 0-2.03-4.34c1.48-.5 3-.88 4.54-1.14zm5.06-.45a30.86 30.86 0 0 1 2 4.2l-.48.02c-1.42.07-2.83.23-4.22.48a35.4 35.4 0 0 0-1.63-3.76l-.3-.57c1.31-.2 2.64-.32 3.98-.36h.65z"/></g><g fill="#B1134F"><path fill-opacity=".7" d="M33.4 59.67c1.6.03 3.2.16 4.77.4a40.74 40.74 0 0 0-.74 12.07l.05.49.02.22.04.32.03.21.3-.04a31.9 31.9 0 0 1-4 .5 30.6 30.6 0 0 1-.46-14.17zm6.54-3.77c1.44.28 2.87.65 4.27 1.1l-.49 1.42-.19.61.2-.6c.15-.48.31-.95.48-1.42a40.89 40.89 0 0 1 11.03 5.54l.34.25.3.23a31.07 31.07 0 0 1-2.86 2.87 35.1 35.1 0 0 0-9.39-4.56l-.68-.2v.01c-.9 3.6-1.2 7.35-.91 11.1-1.28.42-2.58.77-3.9 1.04l-.04-.3-.05-.42-.05-.48c-.32-3.71-.16-7.8.74-11.92.94.16 1.88.36 2.81.6l1.32.36a34.8 34.8 0 0 0-4.13-.96c.3-1.43.7-2.85 1.2-4.27zm6.52-3.76a30.8 30.8 0 0 1 5.9 2.69 30.57 30.57 0 0 1 6.13 4.78 31.28 31.28 0 0 1-2.37 3.14l.13-.16-.32-.25-.36-.26c-.3-.22-.66-.46-1.05-.72a42.09 42.09 0 0 0-10.1-4.89 35.1 35.1 0 0 1 2.04-4.33zm-11.77 3.02v.16l.61.02c1.37.07 2.72.22 4.06.45a37.1 37.1 0 0 0-1.2 4.28 35.14 35.14 0 0 0-4.76-.4 31.7 31.7 0 0 1 1.29-4.5zm11.77-3.03a35.16 35.16 0 0 0-2.04 4.34 35.6 35.6 0 0 0-4.29-1.12 34.74 34.74 0 0 1 1.57-3.6l.36-.69-.13-.06c1.54.26 3.05.64 4.53 1.13zm-9.62-1.58c1.56 0 3.1.13 4.64.37l-.3.56a32.05 32.05 0 0 0-1.62 3.76c-1.37-.24-2.76-.4-4.16-.47l-.55-.02a30.87 30.87 0 0 1 1.67-3.63l.32-.57z"/><path d="M39.94 55.9c1.44.28 2.87.65 4.27 1.11a34.65 34.65 0 0 0-1.08 3.46l-.17.67h-.01a35.28 35.28 0 0 0-4.21-.98c.3-1.42.7-2.84 1.2-4.26zm-5.25-.74v.16l.61.02c1.37.07 2.72.22 4.06.45a37.1 37.1 0 0 0-1.2 4.28 35.11 35.11 0 0 0-4.76-.4 31.7 31.7 0 0 1 1.29-4.5zm11.77-3.03a35.26 35.26 0 0 0-2.04 4.34 35.6 35.6 0 0 0-4.29-1.12 34.74 34.74 0 0 1 1.57-3.6l.36-.69-.13-.06c1.54.26 3.05.64 4.53 1.13zm-9.62-1.58c1.56 0 3.1.13 4.64.37l-.3.56a32.05 32.05 0 0 0-1.62 3.76c-1.37-.24-2.76-.4-4.16-.47l-.55-.02a30.9 30.9 0 0 1 1.67-3.63l.32-.57z"/></g><g fill="#44237A"><path fill-opacity=".7" d="M47.62 42.37c.87 1 1.8 1.95 2.78 2.85l.34.3-.17.22-.26.32.43-.53.26.23a42.26 42.26 0 0 0 9.61 6.37l.57.26.19.09.4.17.17.07.1-.26c-.44 1.26-.96 2.5-1.56 3.7a30.55 30.55 0 0 1-12.49-6.69c.36-.59.73-1.17 1.12-1.74l.36-.53-.25.36a35.2 35.2 0 0 0-1.23 1.91 30.82 30.82 0 0 1-3.26-3.37l.13.08.36-.56a31.97 31.97 0 0 1 2.4-3.25zm15.57-6.78a35.1 35.1 0 0 0-8.64 5.85l-.51.5a35.07 35.07 0 0 0 9.15 6.34 31.07 31.07 0 0 1-1.05 3.9l-.24-.1-.23-.1-.44-.2a41.69 41.69 0 0 1-9.85-6.45l-.28-.25c-1.1-1-2.14-2.05-3.1-3.15.86-1 1.8-1.96 2.78-2.87l.32-.28c.46.56.94 1.1 1.43 1.63l.39.4-.39-.4c-.5-.53-.97-1.07-1.43-1.63l.28-.26a41.69 41.69 0 0 1 9.48-6.28l.53-.24.4-.18.35-.14a33 33 0 0 1 1.05 3.9zm-18.74 2.5l.28.46a35.5 35.5 0 0 0 2.5 3.38 33.92 33.92 0 0 0-2.49 3.36l-.3.47a30.89 30.89 0 0 1-2.3-3.27l-.33-.56a30.89 30.89 0 0 1 2.64-3.83zm16.03-10.38c.58 1.16 1.1 2.37 1.53 3.6l-.07-.18-.4.17-.36.16-.57.26A42.26 42.26 0 0 0 51 38.1l-.27.24-.62-.8.2.27.42.53c-1.1 1-2.15 2.05-3.11 3.15a32.01 32.01 0 0 1-2.4-3.24l-.36-.57-.11.07c1-1.2 2.08-2.32 3.24-3.35.36.6.73 1.17 1.11 1.74l.12.17A35 35 0 0 1 48 34.4a30.75 30.75 0 0 1 12.49-6.7z"/><path d="M47.62 42.37c.87 1 1.8 1.95 2.78 2.85l.33.3c-1 1.25-1.91 2.57-2.74 3.95a30.77 30.77 0 0 1-3.26-3.37l.13.08.36-.56a31.97 31.97 0 0 1 2.4-3.25zm-3.17-4.27l.28.45a35.5 35.5 0 0 0 2.5 3.38 33.92 33.92 0 0 0-2.49 3.36l-.29.47a30.88 30.88 0 0 1-2.3-3.27l-.34-.56a30.9 30.9 0 0 1 2.64-3.83zm9.1 3.35l.5.48h-.01a35.3 35.3 0 0 0-2.94 3.15c-1.1-1-2.14-2.05-3.1-3.15.86-1 1.8-1.96 2.78-2.87l.31-.28c.77.93 1.6 1.82 2.45 2.67zm-5.56-7.06c.83 1.38 1.74 2.7 2.74 3.94a36.5 36.5 0 0 0-3.11 3.15 32.01 32.01 0 0 1-2.4-3.24l-.36-.57-.11.07c1-1.2 2.08-2.32 3.24-3.35z"/></g><g fill="#0073B3"><path fill-opacity=".7" d="M39.54 28.6a35.4 35.4 0 0 0 1.63 3.77l.3.57c-1.32.2-2.64.32-3.98.36h-.65a30.89 30.89 0 0 1-2-4.2l.48-.01c1.42-.07 2.83-.23 4.22-.48zm6.91 3.12c-1.48.5-3 .88-4.55 1.15l.14-.08-.36-.68a31.47 31.47 0 0 1-1.56-3.6 36.4 36.4 0 0 0 4.3-1.13 34.94 34.94 0 0 0 2.03 4.34zm12.03-7.47a30.59 30.59 0 0 1-12.03 7.47 35.2 35.2 0 0 1-2.04-4.34 41.36 41.36 0 0 0 11.15-5.61l.46-.34.22-.17-.18-.22a31.3 31.3 0 0 1 2.42 3.2zm-20.33-.47c.31 1.43.7 2.86 1.2 4.28-1.32.23-2.66.38-4 .45l-.68.02v.14a30.83 30.83 0 0 1-1.27-4.49c1.38-.02 2.75-.12 4.1-.3l.65-.1zm3.88-12.16a35.2 35.2 0 0 0 .75 10.4l.17.7h.01a35.08 35.08 0 0 0 10.05-4.76c1.02.89 1.97 1.84 2.86 2.85l-.12.1-.3.23-.46.33-.8.54a41.51 41.51 0 0 1-9.98 4.83l-.23-.63-.2-.61.2.61.23.63c-1.41.46-2.84.83-4.29 1.11a36.5 36.5 0 0 1-1.2-4.26A40.24 40.24 0 0 1 38 11.77l.05-.49.04-.42.04-.3c1.33.27 2.63.62 3.91 1.06zm-8.17-1.6c1.3.08 2.6.24 3.88.47l-.19-.02v.05l-.09.7-.04.5c-.33 3.75-.17 7.89.73 12.06a34.2 34.2 0 0 1-4.75.4 30.75 30.75 0 0 1 .46-14.16z"/><path d="M39.54 28.6a35.4 35.4 0 0 0 1.63 3.77l.3.57c-1.32.2-2.64.32-3.98.36h-.65a30.86 30.86 0 0 1-2-4.2l.48-.01c1.42-.07 2.83-.23 4.22-.48zm6.91 3.12c-1.48.5-3 .88-4.55 1.14l.14-.07-.36-.68a31.47 31.47 0 0 1-1.56-3.6 36.4 36.4 0 0 0 4.29-1.13 35.16 35.16 0 0 0 2.04 4.34zm-8.3-7.94c.31 1.43.7 2.86 1.2 4.28-1.32.23-2.66.38-4 .45l-.68.02v.14a30.82 30.82 0 0 1-1.27-4.49c1.39-.02 2.77-.12 4.15-.3l.6-.1zm4.13-.88l.67-.2v.02c.34 1.4.75 2.77 1.25 4.12-1.4.46-2.83.83-4.28 1.11a36.5 36.5 0 0 1-1.2-4.26c1.2-.2 2.4-.46 3.56-.79z"/></g><path fill="#1A1919" d="M108.7 32.88c3.06 1.77 5.2 4.4 6.87 7.55l-6.4 3.98c-.16-.2-.32-.39-.45-.58-3.4-4.85-8.12-6.92-13.96-6.6-5.08.26-9.05 2.5-11.72 6.83-4.34 7.03-1.18 17.85 8.33 20.36 6.72 1.78 12.5.02 16.97-5.5.28-.37.57-.73.88-1.11l6.38 4.2a20.33 20.33 0 0 1-8.36 8.05c-4.37 2.27-9.05 2.93-13.9 2.57a21.6 21.6 0 0 1-12.28-4.7c-4.48-3.62-7.2-8.23-7.91-14A21.76 21.76 0 0 1 88.6 30.47a24.76 24.76 0 0 1 20.1 2.41zm50.75-17.19v56.02h-7.97v-4.15c-.52.4-.93.75-1.36 1.07-4.33 3.26-9.22 4.44-14.57 4-9.58-.8-17.6-9.1-18.8-18.48a21.69 21.69 0 0 1 11.86-22.65c6.69-3.36 16.2-2.97 22.48 2.88.1.1.2.16.4.3V15.69h7.96zm27.73 13.7c7.58.01 13.5 4.96 14.93 12.43.55 2.9.68 5.84.7 8.79V71.7h-8.08v-.71c0-6.76.04-13.52-.02-20.27-.03-2.37-.29-4.75-.47-7.11-.04-.48-.22-.95-.37-1.4-1.07-3.17-3.42-4.86-6.77-5.12-6.74-.51-11.69 5.14-12.2 10.1-.32 3.02-.43 6.07-.48 9.1-.08 4.9-.02 9.81-.02 14.71v.72h-8.03v-41.3h8.02v4.2l.89-.77a17.7 17.7 0 0 1 11.9-4.45zm-49.08 7.9c-.37.02-.94.02-1.5.1-.67.1-1.35.22-2 .4-8.23 2.3-12.28 11.76-8.4 19.56 2.68 5.4 8.25 8.43 13.94 7.57 6.99-1.05 11.61-6.43 11.65-13.55.04-8.07-5.65-14-13.7-14.08zM44.55 83.58a4.45 4.45 0 0 0-2-.43c-1.21 0-2.22.39-3.03 1.18a3.91 3.91 0 0 0-1.22 2.92c0 1.1.33 2.03 1 2.8a4.1 4.1 0 0 0 3.27 1.39c.73 0 1.38-.14 1.97-.41a3.96 3.96 0 0 0 1.47-1.17l-.62-.47a3.51 3.51 0 0 1-2.77 1.3c-1 0-1.84-.32-2.5-.96a3.23 3.23 0 0 1-.99-2.41 3.26 3.26 0 0 1 1.69-2.94 3.62 3.62 0 0 1 3.33-.1c.49.22.9.56 1.24 1l.62-.47a3.87 3.87 0 0 0-1.46-1.23zm3.28 2.65c-.54.6-.8 1.3-.8 2.1a3.04 3.04 0 0 0 3.04 3.06 3.04 3.04 0 0 0 3.04-3.05 3.04 3.04 0 0 0-3.04-3.09c-.9 0-1.65.33-2.24.98zm3.84.45c.45.46.68 1.02.68 1.67a2.37 2.37 0 0 1-1.14 2.03c-.34.2-.73.3-1.14.3-.42 0-.8-.1-1.15-.3a2.37 2.37 0 0 1-1.14-2.03c0-.65.23-1.21.68-1.67a2.17 2.17 0 0 1 3.21 0zm2.8 4.56h.76v-8.1h-.75v8.1zm2.37 0h.75v-8.1h-.75v8.1zm6.68-1.11a2.5 2.5 0 0 1-1.58.57 2.1 2.1 0 0 1-1.56-.65 2.37 2.37 0 0 1-.65-1.67h5.25c0-.8-.22-1.46-.64-2a2.88 2.88 0 0 0-2.39-1.13 2.8 2.8 0 0 0-2.31 1.1 3.12 3.12 0 0 0-.68 1.99c0 .78.27 1.49.8 2.11a2.8 2.8 0 0 0 2.24.94c.43 0 .81-.07 1.15-.2.34-.13.65-.32.92-.57.27-.25.51-.58.72-.99l-.63-.33c-.23.38-.45.66-.64.83zm-3.71-2.4c.15-.54.38-.94.68-1.2.41-.38.9-.56 1.48-.56a2.32 2.32 0 0 1 1.75.8c.19.24.34.56.44.96H59.8zm11.6-1.32a3.36 3.36 0 0 0-1.1-.89 2.98 2.98 0 0 0-2.72.14 2.97 2.97 0 0 0-1.52 2.62c0 .54.14 1.03.4 1.48a3.03 3.03 0 0 0 4.94.36v.3a3.2 3.2 0 0 1-.23 1.4c-.15.3-.4.54-.75.73-.35.19-.79.28-1.3.28-.52 0-.95-.1-1.3-.28a2.15 2.15 0 0 1-.86-.85h-.82c.21.45.45.8.7 1.04.25.24.57.43.97.57a4.02 4.02 0 0 0 3.1-.22c.49-.29.83-.7 1.03-1.24.14-.38.21-.98.21-1.8V85.4h-.75v1.01zm-1.07-.14a2.22 2.22 0 0 1 1.11 2 2.2 2.2 0 0 1-.63 1.64 2.3 2.3 0 0 1-1.67.62c-.68 0-1.24-.2-1.67-.63a2.13 2.13 0 0 1-.64-1.59 2.33 2.33 0 0 1 3.5-2.04zm7.77 3.86a2.5 2.5 0 0 1-1.58.57 2.1 2.1 0 0 1-1.56-.65 2.37 2.37 0 0 1-.64-1.67h5.25a3.22 3.22 0 0 0-.65-2 2.88 2.88 0 0 0-2.38-1.13c-.97 0-1.74.37-2.32 1.1a3.12 3.12 0 0 0-.68 1.99c0 .78.27 1.49.8 2.11a2.8 2.8 0 0 0 2.24.94 2.86 2.86 0 0 0 2.07-.77c.28-.25.51-.58.72-.99l-.63-.33c-.23.38-.44.66-.64.83zm-3.71-2.4c.15-.54.38-.94.68-1.2.41-.38.9-.56 1.48-.56a2.33 2.33 0 0 1 1.75.8c.2.24.34.56.44.96H74.4zm12.25 3.5c.98 0 1.75-.13 2.3-.42.54-.29.98-.73 1.32-1.33.34-.6.52-1.3.52-2.09 0-.91-.22-1.7-.65-2.37a3.43 3.43 0 0 0-1.8-1.4 8.37 8.37 0 0 0-2.56-.28h-1.64v7.9h2.51zm-1.75-7.11h.55c1.14 0 1.95.07 2.45.22.65.2 1.17.57 1.53 1.11.37.54.56 1.2.56 1.95 0 .73-.17 1.34-.51 1.85-.34.5-.81.85-1.4 1.04a8.5 8.5 0 0 1-2.27.2h-.91v-6.37zm11.64 6.01a2.5 2.5 0 0 1-1.58.57 2.1 2.1 0 0 1-1.56-.65 2.38 2.38 0 0 1-.65-1.67H98c0-.8-.22-1.46-.64-2a2.88 2.88 0 0 0-2.38-1.13c-.97 0-1.74.37-2.32 1.1a3.12 3.12 0 0 0-.68 1.99c0 .78.27 1.49.8 2.11a2.8 2.8 0 0 0 2.24.94 2.86 2.86 0 0 0 2.07-.77c.27-.25.51-.58.72-.99l-.63-.33c-.23.38-.44.66-.64.83zm-3.71-2.4c.15-.54.38-.94.68-1.2.41-.38.9-.56 1.48-.56a2.33 2.33 0 0 1 1.75.8c.2.24.34.56.44.96h-4.35zm8.38 3.5h.13l2.68-5.83h-.8l-1.94 4.26-1.96-4.26h-.8l2.69 5.84zm7.88-1.1a2.51 2.51 0 0 1-1.58.57c-.62 0-1.14-.22-1.55-.65a2.38 2.38 0 0 1-.65-1.67h5.25a3.16 3.16 0 0 0-.65-2 2.88 2.88 0 0 0-2.38-1.13c-.97 0-1.74.37-2.31 1.1a3.12 3.12 0 0 0-.69 1.99c0 .78.27 1.49.8 2.11a2.8 2.8 0 0 0 2.24.94 2.86 2.86 0 0 0 2.07-.77c.28-.25.52-.58.72-.99l-.63-.33c-.23.38-.44.66-.64.83zm-3.7-2.4c.14-.54.37-.94.67-1.2.41-.38.9-.56 1.48-.56a2.33 2.33 0 0 1 1.75.8c.2.24.34.56.44.96h-4.35zm6.5 3.5h.75v-8.08h-.75v8.09zm2.92-5c-.54.6-.8 1.3-.8 2.1 0 .82.28 1.53.84 2.14.57.61 1.3.92 2.2.92a3.04 3.04 0 0 0 3.04-3.05 3.04 3.04 0 0 0-3.04-3.09c-.9 0-1.65.33-2.24.98zm3.84.45a2.38 2.38 0 0 1 .37 2.86 2.27 2.27 0 0 1-1.98 1.14c-.41 0-.8-.1-1.14-.3a2.37 2.37 0 0 1-1.14-2.03c0-.65.23-1.21.68-1.67a2.17 2.17 0 0 1 3.21 0zm2.87 6.7h.75v-3.14c.31.38.67.67 1.06.86.38.2.81.29 1.28.29.82 0 1.52-.3 2.1-.9.6-.6.89-1.33.89-2.19 0-.84-.3-1.56-.89-2.15-.59-.6-1.3-.9-2.13-.9a2.71 2.71 0 0 0-2.31 1.22V85.4h-.75v7.97zm4.16-7.1c.35.2.63.5.84.87a2.37 2.37 0 0 1 0 2.36 2.3 2.3 0 0 1-1.99 1.19 2.35 2.35 0 0 1-2.02-1.16 2.4 2.4 0 0 1-.3-1.2 2.32 2.32 0 0 1 3.47-2.06zm3.33 4.96h.75v-2.48c0-.73.07-1.27.22-1.62.14-.36.36-.64.67-.85.3-.2.62-.31.97-.31.3 0 .56.08.78.23.21.15.37.35.46.6.08.26.13.73.13 1.44v2.99h.75v-2.29c0-.83.07-1.43.2-1.79.15-.36.37-.64.67-.86.3-.21.63-.32 1-.32.3 0 .55.07.77.21.21.15.36.34.45.57.1.23.14.66.14 1.3v3.18h.76v-3.19c0-.73-.07-1.28-.22-1.64a1.82 1.82 0 0 0-1.76-1.16c-.43 0-.83.12-1.2.36-.38.23-.7.58-.94 1.04a2.7 2.7 0 0 0-.42-.8 1.74 1.74 0 0 0-.62-.43 2 2 0 0 0-.8-.17c-.43 0-.83.11-1.2.34a3 3 0 0 0-.81.82V85.4H129v5.84zm14.62-1.11a2.51 2.51 0 0 1-1.58.57c-.62 0-1.13-.22-1.55-.65a2.37 2.37 0 0 1-.65-1.67h5.25a3.16 3.16 0 0 0-.65-2 2.88 2.88 0 0 0-2.38-1.13c-.97 0-1.74.37-2.31 1.1a3.12 3.12 0 0 0-.69 1.99c0 .78.27 1.49.81 2.11.54.63 1.28.94 2.23.94a2.86 2.86 0 0 0 2.07-.77c.28-.25.52-.58.73-.99l-.64-.33c-.23.38-.44.66-.64.83zm-3.7-2.4c.15-.54.37-.94.67-1.2.42-.38.9-.56 1.48-.56a2.33 2.33 0 0 1 1.75.8c.2.24.34.56.44.96h-4.35zm6.55 3.5h.76V89.1c0-.77.03-1.3.1-1.6.12-.43.35-.8.71-1.1.36-.3.77-.46 1.22-.46.4 0 .72.1.97.3.25.19.41.48.5.87.06.22.08.67.08 1.34v2.79h.75v-3c0-.8-.08-1.39-.24-1.76a1.98 1.98 0 0 0-.74-.9 2.07 2.07 0 0 0-1.17-.33c-.43 0-.82.1-1.19.3-.36.2-.7.5-1 .9V85.4h-.75v5.84zm7.13-5.83h-1.02v.65h1.02v5.19h.75v-5.2h1.2v-.64h-1.2v-2.17h-.75v2.17zm7.05 5.84v-5.98l5.21 5.98h.18v-7.9h-.78v6.06l-5.25-6.06h-.17v7.9h.81zm11.52-1.11a2.5 2.5 0 0 1-1.58.57c-.62 0-1.13-.22-1.55-.65a2.37 2.37 0 0 1-.65-1.67h5.25c0-.8-.22-1.46-.64-2a2.88 2.88 0 0 0-2.39-1.13 2.8 2.8 0 0 0-2.31 1.1 3.12 3.12 0 0 0-.68 1.99c0 .78.26 1.49.8 2.11.54.63 1.28.94 2.23.94a2.86 2.86 0 0 0 2.07-.77c.28-.25.52-.58.73-.99l-.64-.33c-.23.38-.44.66-.64.83zm-3.7-2.4c.15-.54.37-.94.68-1.2.4-.38.9-.56 1.47-.56a2.33 2.33 0 0 1 1.76.8c.19.24.33.56.43.96h-4.35zm6.92-2.33h-1.02v.65h1.02v5.19h.75v-5.2h1.2v-.64h-1.2v-2.17h-.75v2.17zm5.15 5.84h.14l1.87-4.18 1.86 4.18h.14l2.54-5.84h-.78l-1.83 4.24-1.87-4.24h-.14l-1.86 4.24-1.79-4.24h-.77l2.5 5.84zm7.76-5c-.54.59-.8 1.29-.8 2.1s.28 1.52.84 2.13c.57.61 1.3.92 2.2.92.9 0 1.62-.3 2.19-.92a3 3 0 0 0 .85-2.13 3.04 3.04 0 0 0-5.28-2.1zm3.84.44c.45.46.68 1.02.68 1.67a2.37 2.37 0 0 1-1.14 2.03c-.35.2-.73.3-1.14.3-.42 0-.8-.1-1.15-.3a2.37 2.37 0 0 1-1.14-2.03c0-.65.23-1.21.68-1.67a2.17 2.17 0 0 1 3.21 0zm2.72 4.56h.77v-1.98c0-1 .05-1.68.14-2.01.12-.44.3-.76.53-.96.23-.2.47-.31.72-.31.11 0 .24.03.4.1l.4-.63c-.24-.13-.47-.2-.67-.2-.28 0-.54.08-.8.25-.25.17-.5.42-.72.75v-.85h-.77v5.84zm3.82 0h.75V88.6l2.94 2.63h1.05l-3.4-3.05 3.21-2.79h-1.1l-2.7 2.36v-4.61h-.75v8.09z"/></g></svg>