<?xml version="1.0" encoding="UTF-8"?><svg id="Layer_1" xmlns="http://www.w3.org/2000/svg" viewBox="0 0 340.16 322.09"><defs><style>.cls-1{fill:#50bdc8;}.cls-1,.cls-2,.cls-3,.cls-4{stroke-width:0px;}.cls-2{fill:#fff;}.cls-3{fill:#673a8e;}.cls-4{fill:#d9c4e0;}</style></defs><path class="cls-3" d="m0,110.06c0,60.78,49.27,110.06,110.06,110.06h0v-55.03h0c-30.34,0-55.03-24.69-55.03-55.03s24.69-55.03,55.03-55.03h0V0h0C49.27,0,0,49.28,0,110.06"/><path class="cls-4" d="m230.1,0h-53.68v55.03h53.68c30.34,0,55.03,24.69,55.03,55.03s-24.69,55.03-55.03,55.03h0v55.03h0c60.78,0,110.06-49.27,110.06-110.06S290.88,0,230.1,0"/><polygon class="cls-1" points="115.44 0 115.44 220.12 168.93 220.12 171.41 220.12 224.9 220.12 224.9 165.09 171.41 165.09 171.41 0 115.44 0"/><rect class="cls-3" y="225.32" width="340.16" height="96.77"/><path class="cls-2" d="m243.63,296.09c0,.52-.07,1.03-.2,1.53-.13.5-.35.93-.65,1.29-.3.37-.68.66-1.13.88-.46.22-1,.33-1.62.33-1.3,0-2.28-.42-2.93-1.27-.65-.85-.98-1.94-.98-3.27,0-1.51.4-2.75,1.19-3.72.8-.97,1.91-1.45,3.35-1.45.68,0,1.24.05,1.7.16.46.1.88.27,1.27.51v5.01Zm.35,8.3h5.24v-26.1h-5.6v7.98c-.52-.18-1.03-.33-1.53-.45-.5-.12-1.19-.18-2.07-.18-1.1,0-2.21.2-3.35.61-1.14.4-2.17,1.01-3.09,1.82-.93.81-1.68,1.83-2.27,3.07-.59,1.24-.88,2.68-.88,4.32,0,1.46.21,2.77.63,3.93.42,1.16.98,2.15,1.7,2.97.72.82,1.56,1.45,2.54,1.9.98.44,2.03.67,3.15.67s2.17-.23,3.07-.68c.9-.46,1.64-1.02,2.21-1.7l.23,1.84Zm-35.67,0h5.6v-9.86c0-.55.08-1.06.24-1.55.16-.48.39-.91.7-1.27.31-.36.7-.66,1.17-.88.47-.22,1.02-.33,1.64-.33.91,0,1.62.3,2.13.9.51.6.76,1.41.76,2.43v10.57h5.63v-11.35c0-2.45-.62-4.3-1.86-5.56-1.24-1.25-2.92-1.88-5.03-1.88-1.07,0-2.09.22-3.07.67-.98.44-1.77,1.03-2.37,1.76l-.16-2h-5.4v18.35Zm-10.57-6.61c0,.52-.11.98-.31,1.37-.21.39-.48.72-.8.98-.33.26-.7.46-1.13.61-.43.14-.87.22-1.31.22-1.83,0-2.74-.76-2.74-2.27,0-.81.33-1.43.98-1.88.65-.44,1.76-.67,3.33-.67.47,0,.89.02,1.25.06.36.04.61.07.74.1v1.49Zm.16,6.61h5.28v-10.68c0-2.53-.66-4.54-2-6.05-1.33-1.5-3.39-2.25-6.18-2.25-1.1,0-2.07.07-2.92.21-.85.14-1.61.33-2.29.57-.68.23-1.26.5-1.76.78-.5.29-.94.57-1.33.86l2.31,3.44c.57-.39,1.27-.74,2.09-1.06.82-.31,1.86-.47,3.11-.47.47,0,.91.05,1.33.14.42.09.79.25,1.12.47.33.22.59.5.78.82.2.33.29.72.29,1.19v.39c-.21-.05-.65-.09-1.31-.12-.67-.03-1.33-.04-1.98-.04-1.2,0-2.32.14-3.35.43-1.03.29-1.92.71-2.68,1.27-.76.56-1.35,1.26-1.78,2.09-.43.83-.65,1.79-.65,2.86s.2,2.01.61,2.74c.4.73.91,1.31,1.53,1.74.61.43,1.28.74,2,.92.72.18,1.4.27,2.05.27,1.17,0,2.24-.2,3.19-.59.95-.39,1.74-.95,2.37-1.68l.16,1.72Zm-21.72,0h5.63v-26.1h-5.63v26.1Zm-16.05-7c0,1.15.12,2.19.35,3.13.23.94.63,1.74,1.17,2.41.55.67,1.26,1.19,2.15,1.57.89.38,1.98.57,3.29.57,2.09,0,4.02-.7,5.79-2.11l-2.27-3.44c-.37.26-.76.49-1.17.68-.42.2-.91.29-1.49.29-.76,0-1.31-.24-1.66-.72-.35-.48-.53-1.17-.53-2.05v-7.24h4.73v-4.42h-4.73v-5.56h-5.63v5.56h-2.9v4.42h2.9v6.93Zm-24.52,1.62c.48,1.19,1.15,2.22,2.02,3.11.86.89,1.9,1.59,3.11,2.11s2.55.78,4.01.78,2.79-.26,3.99-.78c1.2-.52,2.23-1.23,3.09-2.11.86-.89,1.53-1.92,2.02-3.11.48-1.19.72-2.46.72-3.81s-.24-2.63-.72-3.82c-.48-1.19-1.15-2.22-2.02-3.11s-1.89-1.58-3.09-2.09c-1.2-.51-2.53-.76-3.99-.76s-2.8.25-4.01.76c-1.21.51-2.25,1.21-3.11,2.09s-1.53,1.92-2.02,3.11c-.48,1.19-.72,2.46-.72,3.82s.24,2.63.72,3.81m7.24.7c-.56-.27-1.02-.65-1.39-1.12-.37-.47-.65-1-.84-1.58-.2-.59-.29-1.19-.29-1.82s.1-1.23.29-1.82c.2-.59.47-1.11.84-1.57.36-.46.83-.82,1.39-1.1s1.19-.41,1.9-.41,1.33.14,1.88.41c.55.27,1.01.64,1.39,1.1.38.46.66.98.84,1.57.18.59.27,1.19.27,1.82s-.09,1.23-.27,1.82c-.18.59-.46,1.12-.84,1.58-.38.47-.84.84-1.39,1.12-.55.27-1.17.41-1.88.41s-1.34-.14-1.9-.41m-13.39-1.43c-.39.44-.91.85-1.57,1.23-.65.38-1.46.57-2.43.57-.68,0-1.29-.14-1.82-.43-.54-.29-.99-.66-1.37-1.12-.38-.46-.67-.98-.86-1.57-.2-.59-.29-1.18-.29-1.78,0-.65.1-1.27.29-1.86.2-.59.48-1.1.86-1.55.38-.44.83-.8,1.37-1.08.53-.27,1.14-.41,1.82-.41.99,0,1.79.18,2.39.55.6.37,1.11.78,1.53,1.25l3.4-3.68c-.83-.91-1.87-1.64-3.09-2.19-1.23-.55-2.67-.82-4.34-.82-1.44,0-2.76.25-3.97.76-1.21.51-2.26,1.21-3.13,2.09s-1.56,1.92-2.05,3.11c-.5,1.19-.74,2.46-.74,3.82,0,1.43.24,2.75.72,3.95.48,1.2,1.15,2.24,2.02,3.11.86.87,1.9,1.55,3.11,2.03,1.21.48,2.56.72,4.05.72,1.7,0,3.16-.3,4.4-.9,1.24-.6,2.24-1.32,2.99-2.15l-3.29-3.68Zm-38.52,2.43c.49.55,1.09,1.08,1.78,1.6s1.47.98,2.33,1.39c.86.4,1.83.73,2.9.98,1.07.25,2.26.37,3.56.37,1.41,0,2.72-.2,3.93-.61,1.21-.4,2.27-.97,3.17-1.7.9-.73,1.61-1.59,2.13-2.58.52-.99.78-2.07.78-3.25,0-1.36-.22-2.51-.67-3.46-.44-.95-1.03-1.75-1.76-2.41-.73-.65-1.56-1.18-2.48-1.59-.93-.4-1.87-.72-2.84-.96-1.64-.36-2.93-.82-3.87-1.37-.94-.55-1.41-1.26-1.41-2.15,0-.34.1-.66.29-.96.2-.3.46-.56.78-.78.33-.22.69-.4,1.1-.53.4-.13.81-.2,1.23-.2.63,0,1.22.08,1.78.24.56.16,1.08.35,1.55.59.47.23.89.49,1.27.76.38.27.71.53,1,.76l3.4-3.76c-.23-.23-.58-.55-1.04-.96-.46-.4-1.04-.8-1.76-1.17-.72-.38-1.58-.7-2.6-.98-1.02-.27-2.19-.41-3.52-.41-1.62,0-3.02.22-4.21.65-1.19.43-2.18,1.02-2.97,1.76-.8.74-1.39,1.6-1.78,2.56-.39.97-.59,2-.59,3.09,0,.99.17,1.89.51,2.7.34.81.81,1.53,1.43,2.15.61.63,1.34,1.16,2.19,1.6.85.44,1.77.78,2.76,1.02,2.03.52,3.52,1.05,4.46,1.58.94.53,1.41,1.28,1.41,2.25,0,.44-.11.84-.33,1.19-.22.35-.52.65-.88.9-.37.25-.77.44-1.21.57-.44.13-.89.2-1.33.2-.76,0-1.47-.1-2.13-.29-.66-.2-1.28-.45-1.84-.76-.56-.31-1.07-.66-1.53-1.04-.46-.38-.86-.75-1.19-1.12l-3.8,4.11Z"/><path class="cls-2" d="m325.23,269.17h5.63v-26.1h-5.63v26.1Zm-10.31,0h5.63v-18.35h-5.63v18.35Zm-.2-21.05h6.03v-5.05h-6.03v5.05Zm-6.07,14.95c-.39.44-.91.85-1.57,1.23s-1.46.57-2.43.57c-.68,0-1.28-.14-1.82-.43-.54-.29-.99-.66-1.37-1.12-.38-.46-.66-.98-.86-1.57-.2-.59-.29-1.18-.29-1.78,0-.65.1-1.27.29-1.86.2-.59.48-1.1.86-1.55.38-.44.83-.8,1.37-1.08.53-.27,1.14-.41,1.82-.41.99,0,1.79.18,2.39.55.6.37,1.11.78,1.53,1.25l3.4-3.68c-.84-.91-1.87-1.64-3.09-2.19-1.23-.55-2.67-.82-4.34-.82-1.44,0-2.76.25-3.97.76-1.21.51-2.26,1.21-3.13,2.09-.87.89-1.56,1.92-2.05,3.11-.49,1.19-.74,2.46-.74,3.82,0,1.43.24,2.75.72,3.95.48,1.2,1.15,2.24,2.02,3.11.86.87,1.9,1.55,3.11,2.03,1.21.48,2.56.72,4.05.72,1.69,0,3.16-.3,4.4-.9,1.24-.6,2.24-1.32,2.99-2.15l-3.29-3.68Zm-35.49,6.1h5.6v-9.86c0-.55.08-1.06.23-1.55.16-.48.39-.91.7-1.27.31-.36.7-.66,1.17-.88.47-.22,1.02-.33,1.64-.33.91,0,1.62.3,2.13.9.51.6.76,1.41.76,2.43v10.57h5.63v-11.35c0-2.45-.62-4.3-1.86-5.56-1.24-1.25-2.92-1.88-5.03-1.88-1.07,0-2.09.22-3.07.67-.98.44-1.77,1.03-2.37,1.76l-.16-2h-5.4v18.35Zm-22.49-6.97c0,2.45.61,4.3,1.84,5.56,1.23,1.25,2.9,1.88,5.01,1.88,1.07,0,2.09-.23,3.07-.68.98-.46,1.77-1.04,2.37-1.74l.16,1.96h5.4v-18.35h-5.6v9.9c0,.52-.08,1.03-.23,1.53-.16.5-.39.93-.7,1.29-.31.36-.69.66-1.13.88-.44.22-.95.33-1.53.33-.99,0-1.74-.3-2.25-.9-.51-.6-.76-1.42-.76-2.47v-10.57h-5.63v11.39Zm-22.55,1.58c.48,1.19,1.15,2.22,2.02,3.11.86.89,1.9,1.59,3.11,2.11,1.21.52,2.55.78,4.01.78s2.79-.26,3.99-.78c1.2-.52,2.23-1.23,3.09-2.11.86-.89,1.53-1.92,2.01-3.11.48-1.19.72-2.46.72-3.81s-.24-2.63-.72-3.82c-.48-1.19-1.15-2.22-2.01-3.11-.86-.89-1.89-1.58-3.09-2.09-1.2-.51-2.53-.76-3.99-.76s-2.8.25-4.01.76c-1.21.51-2.25,1.21-3.11,2.09-.86.89-1.53,1.92-2.02,3.11-.48,1.19-.72,2.46-.72,3.82s.24,2.63.72,3.81m7.24.7c-.56-.27-1.02-.65-1.39-1.12-.37-.47-.65-1-.84-1.58-.2-.59-.29-1.19-.29-1.82s.1-1.23.29-1.82c.2-.59.48-1.11.84-1.57.36-.46.83-.82,1.39-1.1.56-.27,1.19-.41,1.9-.41s1.33.14,1.88.41c.55.27,1.01.64,1.39,1.1.38.46.66.98.84,1.57.18.59.27,1.19.27,1.82s-.09,1.23-.27,1.82c-.18.59-.46,1.12-.84,1.58-.38.47-.84.84-1.39,1.12-.55.27-1.17.41-1.88.41s-1.34-.14-1.9-.41m-14.27-3.82c-.39.44-.8.88-1.21,1.31-.42.43-.89.81-1.43,1.13-.53.33-1.15.59-1.84.78-.69.2-1.51.29-2.45.29-1.15,0-2.18-.21-3.09-.63-.91-.42-1.7-.99-2.35-1.72-.65-.73-1.15-1.59-1.51-2.58-.35-.99-.53-2.06-.53-3.21s.18-2.18.53-3.19c.35-1,.85-1.88,1.51-2.64.65-.76,1.45-1.35,2.39-1.78.94-.43,2-.65,3.17-.65,1.49,0,2.76.33,3.83,1,1.07.67,2,1.55,2.78,2.64l4.03-3.87c-1.2-1.67-2.71-2.95-4.52-3.83-1.81-.89-3.93-1.33-6.36-1.33-2.01,0-3.84.36-5.5,1.08-1.66.72-3.08,1.7-4.27,2.93-1.19,1.24-2.11,2.7-2.76,4.38-.65,1.68-.98,3.49-.98,5.42s.33,3.8.98,5.46c.65,1.66,1.57,3.09,2.76,4.3,1.19,1.21,2.6,2.16,4.25,2.84,1.64.68,3.46,1.02,5.44,1.02,1.2,0,2.35-.14,3.46-.43,1.11-.29,2.14-.68,3.09-1.17.95-.49,1.82-1.08,2.6-1.74.78-.67,1.45-1.38,2-2.13l-4.03-3.68Zm-47.62,6.42c.91.91,2.1,1.59,3.56,2.03,1.46.44,3.01.66,4.66.66,1.02,0,2.02-.12,2.99-.35.98-.24,1.85-.59,2.62-1.08.77-.48,1.38-1.09,1.84-1.82.46-.73.68-1.6.68-2.62,0-1.51-.42-2.72-1.27-3.64-.85-.91-2.21-1.63-4.09-2.15-1.38-.36-2.48-.69-3.29-.98-.81-.29-1.21-.73-1.21-1.33,0-.42.2-.75.59-1,.39-.25,1.02-.37,1.88-.37.97,0,1.83.16,2.6.47.77.31,1.45.66,2.05,1.06l2.39-3.72c-.99-.68-2.07-1.19-3.25-1.55-1.17-.35-2.54-.53-4.11-.53-1.1,0-2.12.14-3.07.41-.95.27-1.77.66-2.46,1.17-.69.51-1.23,1.11-1.62,1.8-.39.69-.59,1.47-.59,2.33s.16,1.57.49,2.19.76,1.16,1.29,1.6c.53.44,1.15.81,1.84,1.11.69.3,1.39.54,2.09.72.86.24,1.57.44,2.13.63.56.18,1,.36,1.31.53.31.17.53.35.65.55s.18.41.18.65c0,.6-.27,1.01-.82,1.21-.55.21-1.24.31-2.07.31-.91,0-1.86-.18-2.84-.55-.98-.36-1.77-.82-2.37-1.37l-2.78,3.6Zm-8.95-6.22c0,.52-.07,1.03-.2,1.53-.13.5-.35.93-.65,1.29-.3.37-.68.66-1.13.88-.46.22-1,.33-1.62.33-1.31,0-2.28-.42-2.93-1.27-.65-.85-.98-1.94-.98-3.27,0-1.51.4-2.75,1.19-3.72.8-.97,1.91-1.45,3.35-1.45.68,0,1.24.05,1.7.16.46.1.88.27,1.27.51v5.01Zm.35,8.3h5.24v-26.1h-5.6v7.98c-.52-.18-1.03-.33-1.53-.45-.5-.12-1.19-.18-2.07-.18-1.1,0-2.21.2-3.35.61-1.13.41-2.16,1.01-3.09,1.82-.93.81-1.68,1.83-2.27,3.07-.59,1.24-.88,2.68-.88,4.32,0,1.46.21,2.77.63,3.93.42,1.16.98,2.15,1.7,2.97.72.82,1.56,1.45,2.54,1.9s2.03.67,3.15.67,2.17-.23,3.07-.68c.9-.46,1.64-1.02,2.21-1.7l.23,1.84Zm-28.13,0h5.63v-9.08c0-1.46.41-2.59,1.23-3.38.82-.8,1.9-1.19,3.23-1.19.78,0,1.46.09,2.03.27l.9-4.97c-.34-.13-.69-.22-1.04-.27-.35-.05-.78-.08-1.27-.08-1.3,0-2.37.29-3.19.86-.82.57-1.47,1.17-1.94,1.8l-.2-2.31h-5.4v18.35Zm-9.97-6.61c0,.52-.1.98-.31,1.37-.21.39-.48.72-.8.98-.33.26-.7.46-1.13.61-.43.14-.87.22-1.31.22-1.83,0-2.74-.76-2.74-2.27,0-.81.33-1.43.98-1.88.65-.44,1.76-.67,3.33-.67.47,0,.89.02,1.25.06.36.04.61.07.74.1v1.49Zm.16,6.61h5.28v-10.68c0-2.53-.67-4.54-2-6.05-1.33-1.5-3.39-2.25-6.18-2.25-1.1,0-2.07.07-2.92.21-.85.14-1.61.33-2.29.57-.68.23-1.27.5-1.76.78-.5.29-.94.57-1.33.86l2.31,3.44c.57-.39,1.27-.74,2.09-1.06.82-.31,1.86-.47,3.11-.47.47,0,.91.05,1.33.14.42.09.79.25,1.12.47.33.22.59.5.78.82.2.33.29.72.29,1.19v.39c-.21-.05-.65-.09-1.31-.12-.66-.03-1.32-.04-1.98-.04-1.2,0-2.32.14-3.35.43-1.03.29-1.92.71-2.68,1.27-.76.56-1.35,1.26-1.78,2.09-.43.83-.65,1.79-.65,2.86s.2,2.01.61,2.74c.4.73.91,1.31,1.53,1.74.61.43,1.28.74,2,.92.72.18,1.4.27,2.05.27,1.17,0,2.24-.2,3.19-.59.95-.39,1.74-.95,2.37-1.68l.16,1.72Zm-21.04-8.3c0,.52-.07,1.03-.2,1.53-.13.5-.35.93-.65,1.29-.3.37-.68.66-1.13.88-.46.22-1,.33-1.62.33-1.3,0-2.28-.42-2.93-1.27-.65-.85-.98-1.94-.98-3.27,0-1.51.4-2.75,1.19-3.72.79-.97,1.91-1.45,3.35-1.45.68,0,1.25.05,1.7.16.46.1.88.27,1.27.51v5.01Zm.35,8.3h5.24v-26.1h-5.6v7.98c-.52-.18-1.03-.33-1.53-.45-.5-.12-1.19-.18-2.07-.18-1.1,0-2.21.2-3.35.61-1.14.41-2.17,1.01-3.09,1.82-.93.81-1.68,1.83-2.27,3.07-.59,1.24-.88,2.68-.88,4.32,0,1.46.21,2.77.63,3.93.42,1.16.98,2.15,1.7,2.97.72.82,1.57,1.45,2.54,1.9.98.44,2.03.67,3.15.67s2.17-.23,3.07-.68c.9-.46,1.64-1.02,2.21-1.7l.24,1.84Zm-35.08,0h5.6v-9.86c0-.55.08-1.06.24-1.55.16-.48.39-.91.7-1.27.31-.36.7-.66,1.17-.88.47-.22,1.02-.33,1.64-.33.91,0,1.62.3,2.13.9.51.6.76,1.41.76,2.43v10.57h5.63v-11.35c0-2.45-.62-4.3-1.86-5.56-1.24-1.25-2.92-1.88-5.03-1.88-1.07,0-2.09.22-3.07.67-.98.44-1.77,1.03-2.37,1.76l-.16-2h-5.4v18.35Zm-9.99-6.61c0,.52-.1.98-.31,1.37-.21.39-.48.72-.8.98-.33.26-.7.46-1.13.61-.43.14-.87.22-1.31.22-1.83,0-2.74-.76-2.74-2.27,0-.81.33-1.43.98-1.88.65-.44,1.76-.67,3.33-.67.47,0,.89.02,1.25.06s.61.07.74.1v1.49Zm.16,6.61h5.28v-10.68c0-2.53-.66-4.54-2-6.05-1.33-1.5-3.39-2.25-6.18-2.25-1.1,0-2.07.07-2.92.21-.85.14-1.61.33-2.29.57-.68.23-1.27.5-1.76.78-.5.29-.94.57-1.33.86l2.31,3.44c.57-.39,1.27-.74,2.09-1.06.82-.31,1.86-.47,3.11-.47.47,0,.91.05,1.33.14.42.09.79.25,1.12.47.33.22.59.5.78.82.2.33.29.72.29,1.19v.39c-.21-.05-.65-.09-1.31-.12-.67-.03-1.32-.04-1.98-.04-1.2,0-2.32.14-3.35.43-1.03.29-1.92.71-2.68,1.27-.76.56-1.35,1.26-1.78,2.09-.43.83-.65,1.79-.65,2.86s.2,2.01.61,2.74c.4.73.91,1.31,1.53,1.74.61.43,1.28.74,2,.92.72.18,1.4.27,2.05.27,1.17,0,2.24-.2,3.19-.59.95-.39,1.74-.95,2.37-1.68l.16,1.72Zm-26.46-7c0,1.15.12,2.19.35,3.13.23.94.63,1.74,1.17,2.41s1.26,1.19,2.15,1.57c.89.38,1.98.57,3.29.57,2.09,0,4.02-.7,5.79-2.11l-2.27-3.44c-.37.26-.76.49-1.17.68-.42.2-.91.29-1.49.29-.76,0-1.31-.24-1.66-.72-.35-.48-.53-1.17-.53-2.05v-7.24h4.73v-4.42h-4.73v-5.56h-5.63v5.56h-2.9v4.42h2.9v6.93Zm-25.59,3.33c.49.55,1.09,1.08,1.78,1.6.69.52,1.47.98,2.33,1.39.86.4,1.83.73,2.9.98,1.07.25,2.26.37,3.56.37,1.41,0,2.72-.2,3.93-.61,1.21-.4,2.27-.97,3.17-1.7.9-.73,1.61-1.59,2.13-2.58.52-.99.78-2.07.78-3.25,0-1.36-.22-2.51-.67-3.46-.44-.95-1.03-1.75-1.76-2.41-.73-.65-1.56-1.18-2.48-1.59-.93-.4-1.87-.72-2.84-.96-1.64-.36-2.93-.82-3.87-1.37-.94-.55-1.41-1.26-1.41-2.15,0-.34.1-.66.29-.96.2-.3.46-.56.78-.78.33-.22.69-.4,1.1-.53.4-.13.81-.2,1.23-.2.63,0,1.22.08,1.78.24.56.16,1.08.35,1.55.59.47.23.89.49,1.27.76.38.27.71.53,1,.76l3.4-3.76c-.23-.23-.58-.55-1.04-.96-.46-.4-1.04-.8-1.76-1.17-.72-.38-1.58-.7-2.6-.98-1.02-.27-2.19-.41-3.52-.41-1.62,0-3.02.22-4.21.65-1.19.43-2.18,1.02-2.97,1.76-.8.74-1.39,1.6-1.78,2.56-.39.97-.59,2-.59,3.09,0,.99.17,1.89.51,2.7.34.81.81,1.53,1.43,2.15.61.63,1.34,1.16,2.19,1.6.85.44,1.77.78,2.76,1.02,2.03.52,3.52,1.05,4.46,1.58.94.53,1.41,1.28,1.41,2.25,0,.44-.11.84-.33,1.19-.22.35-.52.65-.88.9-.37.25-.77.44-1.21.57-.44.13-.89.2-1.33.2-.76,0-1.47-.1-2.13-.29-.66-.2-1.28-.45-1.84-.76-.56-.31-1.07-.66-1.53-1.04-.46-.38-.85-.75-1.19-1.12l-3.8,4.11Z"/></svg>