<?xml version="1.0" encoding="UTF-8" standalone="no"?>
<!-- Created with Inkscape (http://www.inkscape.org/) -->

<svg
   width="330"
   height="106"
   viewBox="0 0 87.3125 28.045834"
   version="1.1"
   id="svg2024"
   inkscape:version="1.2.2 (732a01da63, 2022-12-09)"
   sodipodi:docname="colleges_scotland.svg"
   xmlns:inkscape="http://www.inkscape.org/namespaces/inkscape"
   xmlns:sodipodi="http://sodipodi.sourceforge.net/DTD/sodipodi-0.dtd"
   xmlns="http://www.w3.org/2000/svg"
   xmlns:svg="http://www.w3.org/2000/svg"
   xmlns:rdf="http://www.w3.org/1999/02/22-rdf-syntax-ns#"
   xmlns:cc="http://creativecommons.org/ns#"
   xmlns:dc="http://purl.org/dc/elements/1.1/">
  <title
     id="title2446">Colleges Scotland</title>
  <sodipodi:namedview
     id="namedview2026"
     pagecolor="#ffffff"
     bordercolor="#000000"
     borderopacity="0.25"
     inkscape:showpageshadow="2"
     inkscape:pageopacity="0.0"
     inkscape:pagecheckerboard="0"
     inkscape:deskcolor="#d1d1d1"
     inkscape:document-units="mm"
     showgrid="false"
     inkscape:zoom="2.3540432"
     inkscape:cx="47.790117"
     inkscape:cy="69.030169"
     inkscape:window-width="1920"
     inkscape:window-height="1002"
     inkscape:window-x="2125"
     inkscape:window-y="-8"
     inkscape:window-maximized="1"
     inkscape:current-layer="layer1" />
  <defs
     id="defs2021">
    <clipPath
       clipPathUnits="userSpaceOnUse"
       id="clipPath1144">
      <path
         d="m 287.788,724.081 h 243.637 v 75.46 H 287.788 Z"
         id="path1142" />
    </clipPath>
  </defs>
  <g
     inkscape:label="Layer 1"
     inkscape:groupmode="layer"
     id="layer1"
     transform="translate(-85.567283,-97.980215)">
    <g
       id="g1138"
       transform="matrix(0.35277777,0,0,-0.35277777,-15.276535,380.75303)">
      <g
         id="g1140"
         clip-path="url(#clipPath1144)">
        <g
           id="g1146"
           transform="translate(400.4825,789.1545)">
          <path
             d="m 0,0 c -1.655,2.246 -4.295,3.39 -6.975,3.39 -6.226,0 -10.64,-5.479 -10.64,-11.587 0,-6.462 4.374,-11.585 10.64,-11.585 3.389,0 6.108,1.379 8.079,3.901 l 2.482,-2.088 c -2.482,-3.35 -6.108,-4.887 -10.561,-4.887 -8,0 -14.186,6.187 -14.186,14.659 0,8.197 5.911,14.66 14.186,14.66 3.783,0 7.488,-1.3 9.851,-4.374 z"
             style="fill:#702283;fill-opacity:1;fill-rule:nonzero;stroke:none"
             id="path1148" />
        </g>
        <g
           id="g1150"
           transform="translate(400.4825,789.1545)">
          <path
             d="m 0,0 c -1.655,2.246 -4.295,3.39 -6.975,3.39 -6.226,0 -10.64,-5.479 -10.64,-11.587 0,-6.462 4.374,-11.585 10.64,-11.585 3.389,0 6.108,1.379 8.079,3.901 l 2.482,-2.088 c -2.482,-3.35 -6.108,-4.887 -10.561,-4.887 -8,0 -14.186,6.187 -14.186,14.659 0,8.197 5.911,14.66 14.186,14.66 3.783,0 7.488,-1.3 9.851,-4.374 z"
             style="fill:none;stroke:#702283;stroke-width:1.2;stroke-linecap:butt;stroke-linejoin:miter;stroke-miterlimit:10;stroke-dasharray:none;stroke-opacity:1"
             id="path1152" />
        </g>
        <g
           id="g1154"
           transform="translate(416.912,769.3723)">
          <path
             d="m 0,0 c 3.98,0 6.542,2.995 6.542,6.857 0,3.862 -2.562,6.857 -6.542,6.857 -3.98,0 -6.541,-2.995 -6.541,-6.857 C -6.541,2.995 -3.98,0 0,0 m 0,16.551 c 5.675,0 9.852,-3.941 9.852,-9.694 0,-5.754 -4.177,-9.694 -9.852,-9.694 -5.674,0 -9.851,3.94 -9.851,9.694 0,5.753 4.177,9.694 9.851,9.694"
             style="fill:#702283;fill-opacity:1;fill-rule:nonzero;stroke:none"
             id="path1156" />
        </g>
        <g
           id="g1158"
           transform="translate(416.912,769.3723)">
          <path
             d="m 0,0 c 3.98,0 6.542,2.995 6.542,6.857 0,3.862 -2.562,6.857 -6.542,6.857 -3.98,0 -6.541,-2.995 -6.541,-6.857 C -6.541,2.995 -3.98,0 0,0 Z m 0,16.551 c 5.675,0 9.852,-3.941 9.852,-9.694 0,-5.754 -4.177,-9.694 -9.852,-9.694 -5.674,0 -9.851,3.94 -9.851,9.694 0,5.753 4.177,9.694 9.851,9.694 z"
             style="fill:none;stroke:#702283;stroke-width:1.2;stroke-linecap:butt;stroke-linejoin:miter;stroke-miterlimit:10;stroke-dasharray:none;stroke-opacity:1"
             id="path1160" />
        </g>
        <path
           d="m 431.804,796.8 h 3.075 v -29.792 h -3.075 z"
           style="fill:#702283;fill-opacity:1;fill-rule:nonzero;stroke:#702283;stroke-width:1.2;stroke-linecap:butt;stroke-linejoin:miter;stroke-miterlimit:10;stroke-dasharray:none;stroke-opacity:1"
           id="path1162" />
        <path
           d="m 441.262,796.8 h 3.073 v -29.792 h -3.073 z"
           style="fill:#702283;fill-opacity:1;fill-rule:nonzero;stroke:#702283;stroke-width:1.2;stroke-linecap:butt;stroke-linejoin:miter;stroke-miterlimit:10;stroke-dasharray:none;stroke-opacity:1"
           id="path1164" />
        <g
           id="g1166"
           transform="translate(464.2741,777.8845)">
          <path
             d="m 0,0 c -0.118,3.113 -2.167,5.201 -5.556,5.201 -3.389,0 -5.636,-2.088 -6.03,-5.201 z m 2.64,-7.527 c -2.167,-2.798 -4.768,-3.822 -8.196,-3.822 -5.793,0 -9.34,4.334 -9.34,9.694 0,5.714 4.02,9.694 9.458,9.694 5.202,0 8.747,-3.547 8.747,-9.655 v -0.985 h -14.895 c 0.237,-3.192 2.68,-5.911 6.03,-5.911 2.64,0 4.413,0.946 5.87,2.798 z"
             style="fill:#702283;fill-opacity:1;fill-rule:nonzero;stroke:none"
             id="path1168" />
        </g>
        <g
           id="g1170"
           transform="translate(464.2741,777.8845)">
          <path
             d="m 0,0 c -0.118,3.113 -2.167,5.201 -5.556,5.201 -3.389,0 -5.636,-2.088 -6.03,-5.201 z m 2.64,-7.527 c -2.167,-2.798 -4.768,-3.822 -8.196,-3.822 -5.793,0 -9.34,4.334 -9.34,9.694 0,5.714 4.02,9.694 9.458,9.694 5.202,0 8.747,-3.547 8.747,-9.655 v -0.985 h -14.895 c 0.237,-3.192 2.68,-5.911 6.03,-5.911 2.64,0 4.413,0.946 5.87,2.798 z"
             style="fill:none;stroke:#702283;stroke-width:1.2;stroke-linecap:butt;stroke-linejoin:miter;stroke-miterlimit:10;stroke-dasharray:none;stroke-opacity:1"
             id="path1172" />
        </g>
        <g
           id="g1174"
           transform="translate(481.0979,769.6088)">
          <path
             d="m 0,0 c 4.217,0 6.582,3.153 6.582,6.699 0,3.98 -2.68,6.778 -6.582,6.778 -3.861,0 -6.501,-2.995 -6.501,-6.856 C -6.501,2.877 -3.586,0 0,0 m 9.656,-1.773 c 0,-6.66 -3.586,-10.285 -10.049,-10.285 -3.586,0 -6.463,0.946 -9.064,3.507 l 2.206,2.522 c 1.931,-2.088 4.02,-3.192 6.858,-3.192 5.517,0 6.975,3.546 6.975,7.448 V 0.591 H 6.502 C 5.044,-1.773 2.443,-2.837 0,-2.837 c -5.792,0 -9.811,4.019 -9.811,9.458 0,6.029 3.94,9.694 9.811,9.694 2.484,0 5.281,-1.183 6.502,-3.626 h 0.08 v 3.153 h 3.074 z"
             style="fill:#702283;fill-opacity:1;fill-rule:nonzero;stroke:none"
             id="path1176" />
        </g>
        <g
           id="g1178"
           transform="translate(481.0979,769.6088)">
          <path
             d="m 0,0 c 4.217,0 6.582,3.153 6.582,6.699 0,3.98 -2.68,6.778 -6.582,6.778 -3.861,0 -6.501,-2.995 -6.501,-6.856 C -6.501,2.877 -3.586,0 0,0 Z m 9.656,-1.773 c 0,-6.66 -3.586,-10.285 -10.049,-10.285 -3.586,0 -6.463,0.946 -9.064,3.507 l 2.206,2.522 c 1.931,-2.088 4.02,-3.192 6.858,-3.192 5.517,0 6.975,3.546 6.975,7.448 V 0.591 H 6.502 C 5.044,-1.773 2.443,-2.837 0,-2.837 c -5.792,0 -9.811,4.019 -9.811,9.458 0,6.029 3.94,9.694 9.811,9.694 2.484,0 5.281,-1.183 6.502,-3.626 h 0.08 v 3.153 h 3.074 z"
             style="fill:none;stroke:#702283;stroke-width:1.2;stroke-linecap:butt;stroke-linejoin:miter;stroke-miterlimit:10;stroke-dasharray:none;stroke-opacity:1"
             id="path1180" />
        </g>
        <g
           id="g1182"
           transform="translate(510.2576,777.8845)">
          <path
             d="m 0,0 c -0.119,3.113 -2.168,5.201 -5.557,5.201 -3.388,0 -5.635,-2.088 -6.029,-5.201 z m 2.639,-7.527 c -2.167,-2.798 -4.767,-3.822 -8.196,-3.822 -5.792,0 -9.34,4.334 -9.34,9.694 0,5.714 4.02,9.694 9.459,9.694 5.201,0 8.747,-3.547 8.747,-9.655 v -0.985 h -14.895 c 0.237,-3.192 2.679,-5.911 6.029,-5.911 2.641,0 4.413,0.946 5.871,2.798 z"
             style="fill:#702283;fill-opacity:1;fill-rule:nonzero;stroke:none"
             id="path1184" />
        </g>
        <g
           id="g1186"
           transform="translate(510.2576,777.8845)">
          <path
             d="m 0,0 c -0.119,3.113 -2.168,5.201 -5.557,5.201 -3.388,0 -5.635,-2.088 -6.029,-5.201 z m 2.639,-7.527 c -2.167,-2.798 -4.767,-3.822 -8.196,-3.822 -5.792,0 -9.34,4.334 -9.34,9.694 0,5.714 4.02,9.694 9.459,9.694 5.201,0 8.747,-3.547 8.747,-9.655 v -0.985 h -14.895 c 0.237,-3.192 2.679,-5.911 6.029,-5.911 2.641,0 4.413,0.946 5.871,2.798 z"
             style="fill:none;stroke:#702283;stroke-width:1.2;stroke-linecap:butt;stroke-linejoin:miter;stroke-miterlimit:10;stroke-dasharray:none;stroke-opacity:1"
             id="path1188" />
        </g>
        <g
           id="g1190"
           transform="translate(518.7277,771.8551)">
          <path
             d="m 0,0 c 1.221,-1.497 2.561,-2.483 4.729,-2.483 1.93,0 4.059,0.828 4.059,2.838 0,1.97 -1.971,2.483 -3.941,2.916 -3.507,0.788 -6.502,1.537 -6.502,5.359 0,3.586 3.468,5.438 6.896,5.438 2.601,0 5.004,-0.985 6.265,-3.349 L 8.944,9.024 c -0.786,1.301 -2.088,2.207 -3.9,2.207 -1.695,0 -3.626,-0.827 -3.626,-2.562 0,-1.536 2.207,-2.206 4.65,-2.679 3.271,-0.63 6.03,-1.813 6.03,-5.517 0,-4.177 -3.705,-5.793 -7.369,-5.793 -3.113,0 -5.36,0.828 -7.172,3.428 z"
             style="fill:#702283;fill-opacity:1;fill-rule:nonzero;stroke:none"
             id="path1192" />
        </g>
        <g
           id="g1194"
           transform="translate(518.7277,771.8551)">
          <path
             d="m 0,0 c 1.221,-1.497 2.561,-2.483 4.729,-2.483 1.93,0 4.059,0.828 4.059,2.838 0,1.97 -1.971,2.483 -3.941,2.916 -3.507,0.788 -6.502,1.537 -6.502,5.359 0,3.586 3.468,5.438 6.896,5.438 2.601,0 5.004,-0.985 6.265,-3.349 L 8.944,9.024 c -0.786,1.301 -2.088,2.207 -3.9,2.207 -1.695,0 -3.626,-0.827 -3.626,-2.562 0,-1.536 2.207,-2.206 4.65,-2.679 3.271,-0.63 6.03,-1.813 6.03,-5.517 0,-4.177 -3.705,-5.793 -7.369,-5.793 -3.113,0 -5.36,0.828 -7.172,3.428 z"
             style="fill:none;stroke:#702283;stroke-width:1.2;stroke-linecap:butt;stroke-linejoin:miter;stroke-miterlimit:10;stroke-dasharray:none;stroke-opacity:1"
             id="path1196" />
        </g>
        <g
           id="g1198"
           transform="translate(394.1777,750.2038)">
          <path
             d="m 0,0 c -1.104,1.774 -3.074,2.562 -5.084,2.562 -2.916,0 -5.951,-1.38 -5.951,-4.69 0,-2.561 1.419,-3.704 5.872,-5.123 4.335,-1.379 8.354,-2.797 8.354,-8.275 0,-5.557 -4.768,-8.157 -9.812,-8.157 -3.231,0 -6.699,1.064 -8.591,3.861 l 2.838,2.325 c 1.182,-2.049 3.547,-3.113 5.95,-3.113 2.837,0 6.069,1.656 6.069,4.847 0,3.429 -2.325,4.02 -7.291,5.675 -3.94,1.301 -6.935,3.035 -6.935,7.684 0,5.359 4.61,8.039 9.497,8.039 3.113,0 5.754,-0.867 7.803,-3.27 z"
             style="fill:#bccf38;fill-opacity:1;fill-rule:nonzero;stroke:none"
             id="path1200" />
        </g>
        <g
           id="g1202"
           transform="translate(394.1777,750.2038)">
          <path
             d="m 0,0 c -1.104,1.774 -3.074,2.562 -5.084,2.562 -2.916,0 -5.951,-1.38 -5.951,-4.69 0,-2.561 1.419,-3.704 5.872,-5.123 4.335,-1.379 8.354,-2.797 8.354,-8.275 0,-5.557 -4.768,-8.157 -9.812,-8.157 -3.231,0 -6.699,1.064 -8.591,3.861 l 2.838,2.325 c 1.182,-2.049 3.547,-3.113 5.95,-3.113 2.837,0 6.069,1.656 6.069,4.847 0,3.429 -2.325,4.02 -7.291,5.675 -3.94,1.301 -6.935,3.035 -6.935,7.684 0,5.359 4.61,8.039 9.497,8.039 3.113,0 5.754,-0.867 7.803,-3.27 z"
             style="fill:none;stroke:#bccf38;stroke-width:1.2;stroke-linecap:butt;stroke-linejoin:miter;stroke-miterlimit:10;stroke-dasharray:none;stroke-opacity:1"
             id="path1204" />
        </g>
        <g
           id="g1206"
           transform="translate(415.4152,741.0618)">
          <path
             d="m 0,0 c -1.3,1.576 -2.798,2.246 -4.65,2.246 -4.138,0 -6.226,-3.074 -6.226,-6.857 0,-3.783 2.483,-6.857 6.226,-6.857 2.01,0 3.548,0.71 4.69,2.286 l 2.285,-2.167 c -1.773,-2.049 -4.295,-2.956 -6.975,-2.956 -5.714,0 -9.536,4.02 -9.536,9.694 0,5.596 3.862,9.694 9.536,9.694 2.719,0 5.241,-0.906 7.093,-2.916 z"
             style="fill:#bccf38;fill-opacity:1;fill-rule:nonzero;stroke:none"
             id="path1208" />
        </g>
        <g
           id="g1210"
           transform="translate(415.4152,741.0618)">
          <path
             d="m 0,0 c -1.3,1.576 -2.798,2.246 -4.65,2.246 -4.138,0 -6.226,-3.074 -6.226,-6.857 0,-3.783 2.483,-6.857 6.226,-6.857 2.01,0 3.548,0.71 4.69,2.286 l 2.285,-2.167 c -1.773,-2.049 -4.295,-2.956 -6.975,-2.956 -5.714,0 -9.536,4.02 -9.536,9.694 0,5.596 3.862,9.694 9.536,9.694 2.719,0 5.241,-0.906 7.093,-2.916 z"
             style="fill:none;stroke:#bccf38;stroke-width:1.2;stroke-linecap:butt;stroke-linejoin:miter;stroke-miterlimit:10;stroke-dasharray:none;stroke-opacity:1"
             id="path1212" />
        </g>
        <g
           id="g1214"
           transform="translate(430.0731,729.5941)">
          <path
             d="m 0,0 c 3.98,0 6.541,2.995 6.541,6.857 0,3.862 -2.561,6.856 -6.541,6.856 -3.98,0 -6.542,-2.994 -6.542,-6.856 C -6.542,2.995 -3.98,0 0,0 m 0,16.551 c 5.674,0 9.852,-3.941 9.852,-9.694 0,-5.754 -4.178,-9.694 -9.852,-9.694 -5.675,0 -9.852,3.94 -9.852,9.694 0,5.753 4.177,9.694 9.852,9.694"
             style="fill:#bccf38;fill-opacity:1;fill-rule:nonzero;stroke:none"
             id="path1216" />
        </g>
        <g
           id="g1218"
           transform="translate(430.0731,729.5941)">
          <path
             d="m 0,0 c 3.98,0 6.541,2.995 6.541,6.857 0,3.862 -2.561,6.856 -6.541,6.856 -3.98,0 -6.542,-2.994 -6.542,-6.856 C -6.542,2.995 -3.98,0 0,0 Z m 0,16.551 c 5.674,0 9.852,-3.941 9.852,-9.694 0,-5.754 -4.178,-9.694 -9.852,-9.694 -5.675,0 -9.852,3.94 -9.852,9.694 0,5.753 4.177,9.694 9.852,9.694 z"
             style="fill:none;stroke:#bccf38;stroke-width:1.2;stroke-linecap:butt;stroke-linejoin:miter;stroke-miterlimit:10;stroke-dasharray:none;stroke-opacity:1"
             id="path1220" />
        </g>
        <g
           id="g1222"
           transform="translate(454.7789,743.0712)">
          <path
             d="m 0,0 h -5.439 v -9.221 c 0,-2.364 0.039,-4.256 2.759,-4.256 0.906,0 1.891,0.197 2.718,0.63 l 0.119,-2.797 c -1.064,-0.473 -2.444,-0.67 -3.586,-0.67 -4.374,0 -5.084,2.364 -5.084,6.186 V 0 h -4.019 v 2.601 h 4.019 v 5.241 h 3.074 V 2.601 H 0 Z"
             style="fill:#bccf38;fill-opacity:1;fill-rule:nonzero;stroke:none"
             id="path1224" />
        </g>
        <g
           id="g1226"
           transform="translate(454.7789,743.0712)">
          <path
             d="m 0,0 h -5.439 v -9.221 c 0,-2.364 0.039,-4.256 2.759,-4.256 0.906,0 1.891,0.197 2.718,0.63 l 0.119,-2.797 c -1.064,-0.473 -2.444,-0.67 -3.586,-0.67 -4.374,0 -5.084,2.364 -5.084,6.186 V 0 h -4.019 v 2.601 h 4.019 v 5.241 h 3.074 V 2.601 H 0 Z"
             style="fill:none;stroke:#bccf38;stroke-width:1.2;stroke-linecap:butt;stroke-linejoin:miter;stroke-miterlimit:10;stroke-dasharray:none;stroke-opacity:1"
             id="path1228" />
        </g>
        <path
           d="m 458.835,757.022 h 3.075 v -29.791 h -3.075 z"
           style="fill:#bccf38;fill-opacity:1;fill-rule:nonzero;stroke:#bccf38;stroke-width:1.2;stroke-linecap:butt;stroke-linejoin:miter;stroke-miterlimit:10;stroke-dasharray:none;stroke-opacity:1"
           id="path1230" />
        <g
           id="g1232"
           transform="translate(476.6849,736.0964)">
          <path
             d="m 0,0 c -3.9,0 -6.422,-1.064 -6.422,-3.547 0,-2.325 1.733,-3.192 4.059,-3.192 3.545,0 5.358,2.562 5.438,5.557 V 0 Z m -8.905,7.211 c 1.891,1.932 4.649,2.838 7.33,2.838 5.437,0 7.723,-2.601 7.723,-7.803 v -7.921 c 0,-1.064 0.118,-2.246 0.276,-3.191 H 3.469 C 3.272,-8.039 3.272,-6.897 3.272,-6.108 H 3.192 C 1.971,-8 -0.079,-9.339 -2.876,-9.339 c -3.743,0 -6.856,1.892 -6.856,5.477 0,6.108 7.093,6.463 11.624,6.463 h 1.183 v 0.551 c 0,2.68 -1.695,4.059 -4.572,4.059 -1.97,0 -4.02,-0.67 -5.478,-2.009 z"
             style="fill:#bccf38;fill-opacity:1;fill-rule:nonzero;stroke:none"
             id="path1234" />
        </g>
        <g
           id="g1236"
           transform="translate(476.6849,736.0964)">
          <path
             d="m 0,0 c -3.9,0 -6.422,-1.064 -6.422,-3.547 0,-2.325 1.733,-3.192 4.059,-3.192 3.545,0 5.358,2.562 5.438,5.557 V 0 Z m -8.905,7.211 c 1.891,1.932 4.649,2.838 7.33,2.838 5.437,0 7.723,-2.601 7.723,-7.803 v -7.921 c 0,-1.064 0.118,-2.246 0.276,-3.191 H 3.469 C 3.272,-8.039 3.272,-6.897 3.272,-6.108 H 3.192 C 1.971,-8 -0.079,-9.339 -2.876,-9.339 c -3.743,0 -6.856,1.892 -6.856,5.477 0,6.108 7.093,6.463 11.624,6.463 h 1.183 v 0.551 c 0,2.68 -1.695,4.059 -4.572,4.059 -1.97,0 -4.02,-0.67 -5.478,-2.009 z"
             style="fill:none;stroke:#bccf38;stroke-width:1.2;stroke-linecap:butt;stroke-linejoin:miter;stroke-miterlimit:10;stroke-dasharray:none;stroke-opacity:1"
             id="path1238" />
        </g>
        <g
           id="g1240"
           transform="translate(488.4662,741.2981)">
          <path
             d="m 0,0 c 0,1.694 -0.157,3.153 -0.157,4.374 h 2.916 c 0,-0.985 0.079,-2.01 0.079,-3.034 h 0.078 c 0.828,1.813 3.113,3.507 6.148,3.507 4.847,0 7.013,-3.074 7.013,-7.527 v -11.388 h -3.073 v 11.073 c 0,3.074 -1.34,5.004 -4.216,5.004 -3.98,0 -5.715,-2.876 -5.715,-7.092 v -8.985 H 0 Z"
             style="fill:#bccf38;fill-opacity:1;fill-rule:nonzero;stroke:none"
             id="path1242" />
        </g>
        <g
           id="g1244"
           transform="translate(488.4662,741.2981)">
          <path
             d="m 0,0 c 0,1.694 -0.157,3.153 -0.157,4.374 h 2.916 c 0,-0.985 0.079,-2.01 0.079,-3.034 h 0.078 c 0.828,1.813 3.113,3.507 6.148,3.507 4.847,0 7.013,-3.074 7.013,-7.527 v -11.388 h -3.073 v 11.073 c 0,3.074 -1.34,5.004 -4.216,5.004 -3.98,0 -5.715,-2.876 -5.715,-7.092 v -8.985 H 0 Z"
             style="fill:none;stroke:#bccf38;stroke-width:1.2;stroke-linecap:butt;stroke-linejoin:miter;stroke-miterlimit:10;stroke-dasharray:none;stroke-opacity:1"
             id="path1246" />
        </g>
        <g
           id="g1248"
           transform="translate(519.1617,743.3075)">
          <path
             d="m 0,0 c -3.98,0 -6.541,-2.995 -6.541,-6.856 0,-3.862 2.561,-6.857 6.541,-6.857 3.98,0 6.542,2.995 6.542,6.857 C 6.542,-2.995 3.98,0 0,0 M 6.542,-12.806 H 6.463 C 5.32,-14.895 2.68,-16.55 -0.63,-16.55 c -5.162,0 -9.221,4.177 -9.221,9.694 0,5.595 3.9,9.694 9.694,9.694 2.68,0 4.926,-1.183 6.62,-3.153 H 6.542 V 13.714 H 9.616 V -16.077 H 6.542 Z"
             style="fill:#bccf38;fill-opacity:1;fill-rule:nonzero;stroke:none"
             id="path1250" />
        </g>
        <g
           id="g1252"
           transform="translate(519.1617,743.3075)">
          <path
             d="m 0,0 c -3.98,0 -6.541,-2.995 -6.541,-6.856 0,-3.862 2.561,-6.857 6.541,-6.857 3.98,0 6.542,2.995 6.542,6.857 C 6.542,-2.995 3.98,0 0,0 Z M 6.542,-12.806 H 6.463 C 5.32,-14.895 2.68,-16.55 -0.63,-16.55 c -5.162,0 -9.221,4.177 -9.221,9.694 0,5.595 3.9,9.694 9.694,9.694 2.68,0 4.926,-1.183 6.62,-3.153 H 6.542 V 13.714 H 9.616 V -16.077 H 6.542 Z"
             style="fill:none;stroke:#bccf38;stroke-width:1.2;stroke-linecap:butt;stroke-linejoin:miter;stroke-miterlimit:10;stroke-dasharray:none;stroke-opacity:1"
             id="path1254" />
        </g>
        <g
           id="g1256"
           transform="translate(361.6282,797.657)">
          <path
             d="M 0,0 V -71.757"
             style="fill:none;stroke:#702283;stroke-width:2.962;stroke-linecap:butt;stroke-linejoin:miter;stroke-miterlimit:10;stroke-dasharray:none;stroke-opacity:1"
             id="path1258" />
        </g>
        <g
           id="g1260"
           transform="translate(321.4492,761.7628)">
          <path
             d="m 0,0 c 3.414,1.919 5.722,5.574 5.722,9.769 0,2.72 -0.971,5.211 -2.582,7.152 -2.766,0.914 -5.719,1.417 -8.791,1.417 -2.896,0 -5.688,-0.439 -8.316,-1.256 -1.693,-1.963 -2.719,-4.517 -2.719,-7.313 0,-4.126 2.23,-7.727 5.551,-9.672 1.621,0.911 3.49,1.434 5.484,1.434 C -3.59,1.531 -1.658,0.972 0,0"
             style="fill:#bccf38;fill-opacity:1;fill-rule:nonzero;stroke:none"
             id="path1262" />
        </g>
        <g
           id="g1264"
           transform="translate(324.2796,744.777)">
          <path
             d="m 0,0 c -2.054,-2.38 -5.091,-3.891 -8.481,-3.891 -3.47,0 -6.568,1.578 -8.624,4.051 -8.159,2.698 -14.657,9.038 -17.563,17.097 -1.175,-3.09 -1.824,-6.44 -1.824,-9.944 0,-15.467 12.54,-28.009 28.011,-28.009 15.467,0 28.009,12.542 28.009,28.009 0,3.336 -0.586,6.532 -1.656,9.497 C 14.832,8.806 8.232,2.555 0,0"
             style="fill:#bccf38;fill-opacity:1;fill-rule:nonzero;stroke:none"
             id="path1266" />
        </g>
        <g
           id="g1268"
           transform="translate(321.4492,761.7628)">
          <path
             d="m 0,0 c -1.62,-0.912 -3.49,-1.435 -5.482,-1.435 -2.063,0 -3.994,0.56 -5.653,1.532 -3.413,-1.921 -5.721,-5.576 -5.721,-9.769 0,-2.72 0.97,-5.212 2.581,-7.154 2.766,-0.912 5.72,-1.415 8.793,-1.415 2.893,0 5.687,0.44 8.312,1.255 1.695,1.964 2.722,4.519 2.722,7.314 C 5.552,-5.548 3.321,-1.944 0,0"
             style="fill:#702283;fill-opacity:1;fill-rule:nonzero;stroke:none"
             id="path1270" />
        </g>
        <g
           id="g1272"
           transform="translate(307.4825,778.8445)">
          <path
             d="m 0,0 c 2.055,2.382 5.092,3.89 8.485,3.89 3.467,0 6.567,-1.574 8.622,-4.051 8.158,-2.695 14.658,-9.034 17.562,-17.097 1.175,3.093 1.824,6.442 1.824,9.945 0,15.47 -12.54,28.009 -28.008,28.009 -15.47,0 -28.011,-12.539 -28.011,-28.009 0,-3.334 0.586,-6.53 1.655,-9.497 C -14.829,-8.805 -8.231,-2.555 0,0"
             style="fill:#702283;fill-opacity:1;fill-rule:nonzero;stroke:none"
             id="path1274" />
        </g>
        <g
           id="g1276"
           transform="translate(324.5896,778.6837)">
          <path
             d="m 0,0 c 1.611,-1.941 2.581,-4.432 2.581,-7.152 0,-4.195 -2.307,-7.85 -5.721,-9.769 3.32,-1.944 5.552,-5.548 5.552,-9.672 0,-2.795 -1.028,-5.35 -2.722,-7.314 8.232,2.556 14.832,8.806 17.872,16.81 C 14.658,-9.034 8.157,-2.696 0,0"
             style="fill:#bccf38;fill-opacity:1;fill-rule:nonzero;stroke:none"
             id="path1278" />
        </g>
        <g
           id="g1280"
           transform="translate(307.1742,744.9373)">
          <path
             d="m 0,0 c -1.611,1.942 -2.581,4.434 -2.581,7.153 0,4.194 2.308,7.849 5.721,9.77 -3.321,1.945 -5.551,5.546 -5.551,9.671 0,2.796 1.026,5.35 2.719,7.313 -8.231,-2.554 -14.829,-8.804 -17.87,-16.81 C -14.657,9.037 -8.159,2.697 0,0"
             style="fill:#702283;fill-opacity:1;fill-rule:nonzero;stroke:none"
             id="path1282" />
        </g>
      </g>
    </g>
  </g>
  <metadata
     id="metadata2444">
    <rdf:RDF>
      <cc:Work
         rdf:about="">
        <dc:title>Colleges Scotland</dc:title>
      </cc:Work>
    </rdf:RDF>
  </metadata>
</svg>
