<?xml version="1.0" encoding="UTF-8" standalone="no"?>
<!-- Created with Inkscape (http://www.inkscape.org/) -->

<svg
   width="164"
   height="116"
   viewBox="0 0 43.391667 30.691667"
   version="1.1"
   id="svg3624"
   inkscape:version="1.2.2 (732a01da63, 2022-12-09)"
   sodipodi:docname="cosla.svg"
   xmlns:inkscape="http://www.inkscape.org/namespaces/inkscape"
   xmlns:sodipodi="http://sodipodi.sourceforge.net/DTD/sodipodi-0.dtd"
   xmlns="http://www.w3.org/2000/svg"
   xmlns:svg="http://www.w3.org/2000/svg">
  <sodipodi:namedview
     id="namedview3626"
     pagecolor="#ffffff"
     bordercolor="#000000"
     borderopacity="0.25"
     inkscape:showpageshadow="2"
     inkscape:pageopacity="0.0"
     inkscape:pagecheckerboard="0"
     inkscape:deskcolor="#d1d1d1"
     inkscape:document-units="mm"
     showgrid="false"
     inkscape:zoom="2.1291908"
     inkscape:cx="97.924524"
     inkscape:cy="118.58965"
     inkscape:window-width="1920"
     inkscape:window-height="1002"
     inkscape:window-x="2125"
     inkscape:window-y="-8"
     inkscape:window-maximized="1"
     inkscape:current-layer="layer1" />
  <defs
     id="defs3621">
    <clipPath
       clipPathUnits="userSpaceOnUse"
       id="clipPath288">
      <path
         d="m 238.046,733.465 h 119.182 v 84.327 H 238.046 Z"
         id="path286" />
    </clipPath>
  </defs>
  <g
     inkscape:label="Layer 1"
     inkscape:groupmode="layer"
     id="layer1"
     transform="translate(-98.762679,-149.42301)">
    <g
       id="g282"
       transform="matrix(0.35277777,0,0,-0.35277777,15.433519,438.53995)">
      <g
         id="g284"
         clip-path="url(#clipPath288)">
        <g
           id="g290"
           transform="translate(288.2231,814.9628)">
          <path
             d="m 0,0 c 2.819,1.636 6.094,2.573 9.587,2.573 10.561,0 19.123,-8.561 19.123,-19.122 0,-10.561 -8.562,-19.123 -19.123,-19.123 -3.454,0 -6.694,0.916 -9.491,2.518 4.979,3.799 8.192,9.795 8.192,16.54 C 8.288,-9.824 5.034,-3.795 0,0"
             style="fill:#4a237b;fill-opacity:1;fill-rule:nonzero;stroke:none"
             id="path292" />
        </g>
        <g
           id="g294"
           transform="translate(256.5945,798.3492)">
          <path
             d="m 0,0 c 0,10.561 8.561,19.123 19.123,19.123 10.561,0 19.122,-8.562 19.122,-19.123 0,-10.561 -8.561,-19.123 -19.122,-19.123 C 8.561,-19.123 0,-10.561 0,0"
             style="fill:#4a237b;fill-opacity:1;fill-rule:nonzero;stroke:none"
             id="path296" />
        </g>
        <g
           id="g298"
           transform="translate(310.3134,814.9191)">
          <path
             d="m 0,0 c 2.819,1.636 6.093,2.573 9.587,2.573 10.561,0 19.123,-8.561 19.123,-19.122 0,-10.561 -8.562,-19.123 -19.123,-19.123 -3.454,0 -6.694,0.916 -9.491,2.518 4.979,3.799 8.191,9.794 8.191,16.54 C 8.287,-9.824 5.034,-3.795 0,0"
             style="fill:#4a237b;fill-opacity:1;fill-rule:nonzero;stroke:none"
             id="path300" />
        </g>
        <g
           id="g302"
           transform="translate(251.5391,762.8596)">
          <path
             d="m 0,0 c -7.674,0 -13.314,-5.997 -13.314,-14.154 0,-8.316 5.316,-14.073 13.037,-14.073 3.143,0 6.287,0.8 8.829,2.239 l -2.034,2.279 c -2.034,-1.24 -3.837,-1.759 -6.195,-1.759 -3.605,0 -6.887,1.599 -8.506,5.037 -0.739,1.6 -1.016,3.159 -1.016,5.798 0,3.238 0.416,5.437 1.34,7.276 1.526,3.079 4.161,4.718 7.813,4.718 2.311,0 4.114,-0.52 6.009,-1.719 l 2.035,2.119 C 5.825,-0.8 3.051,0 0,0"
             style="fill:#000000;fill-opacity:1;fill-rule:nonzero;stroke:none"
             id="path304" />
        </g>
        <g
           id="g306"
           transform="translate(260.9645,748.906)">
          <path
             d="m 0,0 c 0,-4.678 1.294,-8.396 3.791,-10.875 2.126,-2.119 5.131,-3.478 9.014,-3.478 3.283,0 5.686,0.799 8.044,2.638 3.236,2.559 4.623,5.878 4.623,11.155 0,4.398 -0.878,7.597 -2.866,10.155 -1.526,1.959 -4.484,4.478 -9.986,4.478 C 4.808,14.073 0,8.716 0,0 m 19.693,7.676 c 1.064,-1.919 1.526,-4.677 1.526,-8.716 0,-4.518 -0.74,-6.717 -2.311,-8.436 -1.387,-1.559 -3.329,-2.359 -5.918,-2.359 -2.588,0 -5.547,1.2 -6.749,2.959 -1.248,1.839 -2.034,5.438 -2.034,9.556 0,3.398 0.508,5.757 1.618,7.556 1.202,1.959 3.837,3.199 6.795,3.199 3.653,0 5.964,-1.72 7.073,-3.759"
             style="fill:#000000;fill-opacity:1;fill-rule:evenodd;stroke:none"
             id="path308" />
        </g>
        <g
           id="g310"
           transform="translate(299.3316,763.0994)">
          <path
             d="m 0,0 c -6.148,0 -10.263,-3.199 -10.263,-7.876 0,-1.759 0.694,-3.279 1.988,-4.478 1.248,-1.12 2.774,-1.679 5.64,-2.439 l 3.19,-0.84 c 3.837,-0.999 5.686,-2.678 5.686,-5.117 0,-1.6 -0.74,-2.919 -2.265,-3.919 -1.341,-0.879 -2.635,-1.199 -5.039,-1.199 -3.19,0 -5.871,0.72 -8.506,2.359 l -1.664,-2.559 c 3.143,-1.679 6.379,-2.479 10.17,-2.479 2.912,0 5.039,0.52 7.119,1.679 2.774,1.64 4.392,4.039 4.392,6.597 0,1.72 -0.786,3.559 -2.081,4.838 -1.248,1.28 -2.773,1.999 -5.593,2.759 l -3.652,0.999 c -3.745,1 -5.27,2.279 -5.27,4.478 0,2.799 2.357,4.518 6.333,4.518 2.727,0 4.669,-0.6 7.72,-2.319 l 1.664,2.359 C 6.565,-0.88 3.421,0 0,0"
             style="fill:#000000;fill-opacity:1;fill-rule:nonzero;stroke:none"
             id="path312" />
        </g>
        <g
           id="g314"
           transform="translate(313.939,735.0724)">
          <path
             d="m 0,0 h 15.81 l 0.508,2.759 H 3.791 V 27.427 H 0 Z"
             style="fill:#000000;fill-opacity:1;fill-rule:nonzero;stroke:none"
             id="path316" />
        </g>
        <g
           id="g318"
           transform="translate(341.7522,762.4996)">
          <path
             d="m 0,0 -10.586,-27.427 h 3.837 l 3.051,8.436 H 8.136 l 3.005,-8.436 H 15.44 L 4.947,0 Z m 0.74,-6.917 1.572,4.038 1.525,-4.238 c 0.832,-2.358 3.328,-9.195 3.328,-9.195 h -9.8 c 0,0 3.19,8.836 3.375,9.395"
             style="fill:#000000;fill-opacity:1;fill-rule:evenodd;stroke:none"
             id="path320" />
        </g>
      </g>
    </g>
  </g>
</svg>
