<?xml version="1.0" encoding="UTF-8" standalone="no"?>
<svg
   id="Layer_1"
   viewBox="0 0 127.68 56.64"
   version="1.1"
   sodipodi:docname="Chief Scientist Office (CSO).svg"
   inkscape:version="1.2.2 (732a01da63, 2022-12-09)"
   xml:space="preserve"
   xmlns:inkscape="http://www.inkscape.org/namespaces/inkscape"
   xmlns:sodipodi="http://sodipodi.sourceforge.net/DTD/sodipodi-0.dtd"
   xmlns="http://www.w3.org/2000/svg"
   xmlns:svg="http://www.w3.org/2000/svg"><sodipodi:namedview
     id="namedview59"
     pagecolor="#ffffff"
     bordercolor="#000000"
     borderopacity="0.25"
     inkscape:showpageshadow="2"
     inkscape:pageopacity="0.0"
     inkscape:pagecheckerboard="0"
     inkscape:deskcolor="#d1d1d1"
     showgrid="false"
     inkscape:zoom="3.7040053"
     inkscape:cx="113.79573"
     inkscape:cy="59.80013"
     inkscape:window-width="1920"
     inkscape:window-height="1002"
     inkscape:window-x="2125"
     inkscape:window-y="-8"
     inkscape:window-maximized="1"
     inkscape:current-layer="Layer_1" /><defs
     id="defs4"><style
       id="style2">.cls-1{fill:#214579;}.cls-1,.cls-2,.cls-3{stroke-width:0px;}.cls-2{fill:#81cddd;}.cls-3{fill:#fbfcfc;}</style></defs><path
     class="cls-3"
     d="m63.86,56.61c-20.95,0-41.89,0-62.84.03-.91,0-1.02-.24-1.02-1.06C.03,37.4.03,19.22,0,1.04,0,.19.17,0,1.04,0,42.89.03,84.74.03,126.6,0c.93,0,1.08.25,1.08,1.11-.03,18.18-.03,36.36,0,54.54,0,.81-.15.98-.98.98-20.95-.03-41.89-.02-62.84-.02Zm41.88-33.9c-.32,2.8-.06,5.6-.13,8.4-.01.45-.19.95.17,1.36,1.13.31,1.4-.15,1.37-1.25-.08-2.45-.09-4.91,0-7.37.04-1.18-.34-1.5-1.41-1.15ZM20.73,5.78c-.22.49-.32.61-.34.75-.57,4.45-1.11,8.91-1.7,13.36-.47,3.54-.8,7.11-1.65,10.59-.18.72-.45,1.52-1.23,1.58-.71.06-1.37-.44-1.8-1.08-.2-.3-.38-.61-.5-.94-.23-.63-.42-1.27-.68-2.09-.26.9-.42,1.59-.65,2.27-.5,1.45-1,1.78-2.56,1.78-1.28,0-2.55,0-3.83,0-1.67.01-1.73-.34-1.26,1.56,2.88,11.68,14.11,19.08,26,17.15,9.3-1.51,16.55-8.34,18.7-17.52.22-.94.17-1.29-.9-1.22-1.31.09-2.64-.05-3.95.04-1.66.11-3.11-.08-3.72-1.97-.47.59-.79,1.1-1.22,1.5-1.07.98-1.5.91-2.27-.36-.63-1.03-.88-2.21-1.19-3.36-.58-2.17-1.14-4.34-1.71-6.51-.37.61-.55,1.22-.71,1.82-.64,2.5-1.05,5.05-1.95,7.48-.26.69-.65,1.44-1.44,1.57-.77.13-1.06-.66-1.47-1.17-.1-.12-.09-.41-.47-.28-.3,2.65-.6,5.33-.9,8.01-.25,2.21-.42,4.43-.97,6.6-.18.7-.46,1.44-1.39,1.38-.84-.06-.87-.8-1.01-1.41-.39-1.63-.51-3.3-.63-4.96-.69-9.68-1.31-19.37-2-29.05-.12-1.73-.12-3.48-.58-5.53Zm17.68,23.85c1.92-2.32,2.46-2.31,4.08.02.31.44.66.49,1.12.49,1.52,0,3.03,0,4.55,0,1.58,0,1.67-.05,1.65-1.69-.05-5.11-1.41-9.82-4.55-13.89-5.24-6.77-12.16-9.87-20.75-9.07-1.87.17-1.85.27-1.7,2.06.41,4.82.8,9.64,1.13,14.47.31,4.43.46,8.88.82,13.3.12,1.52.01,3.09.56,4.64.43-3.42.6-6.8,1.27-10.1.18-.87.2-1.99,1.25-2.26,1.12-.29,1.62.71,2.15,1.58.32-.33.39-.66.47-1,.47-2.01.96-4.01,1.44-6.01.26-1.08.52-2.17,1.11-3.13.63-1.04,1.64-1.05,2.24,0,.31.55.54,1.15.71,1.76.82,2.9,1.61,5.8,2.45,8.85Zm-22.94-.27c1.25-7.61,2.03-14.97,2.95-22.31-.19-.03-.23-.06-.26-.05C9.26,10.47,3.34,19.6,3.85,29.29c.04.72.34.86.96.84,1.12-.03,2.23,0,3.35-.01,2.5-.03,2.05.36,2.69-2.12.1-.38.22-.77.39-1.13.35-.76.67-1.62,1.74-1.52,1.01.09,1.31.94,1.59,1.73.24.66.23,1.41.89,2.28Zm43.82,17.49c2.32-.04,4.17-.8,5.29-2.82.91-1.64.81-3.3-.16-4.87-1.93-3.14-7.24-3.42-9.53-.5-1.23,1.57-1.52,3.32-.65,5.14,1.02,2.13,2.89,2.95,5.05,3.05Zm4.03-35.5c.18-2.38-.08-2.72-2.24-2.97-1.44-.17-2.87-.13-4.23.47-1.97.87-3.22,2.82-3.08,4.82.16,2.23,1.58,3.95,3.77,4.54,1.25.34,2.53.36,3.79.08,2.21-.49,2.26-.58,2.1-2.9-1.04.28-1.96.89-3.05.96-1.43.08-2.72-.19-3.56-1.46-.62-.94-.67-1.96-.06-2.93.81-1.29,2.11-1.63,3.53-1.57,1.04.05,2,.46,3.04.96Zm-1.03,13.78c-.2-.77.52-1.7-.58-2.12-1.4-.54-2.84-.76-4.33-.35-1.31.37-2.19,1.26-2.28,2.4-.12,1.34.49,2.32,1.67,2.9.82.4,1.7.67,2.53,1.04.43.19.91.46.8,1.05-.11.56-.61.69-1.1.74-.99.1-1.89-.2-2.73-.7-.35-.2-.77-.35-.86.11-.15.74-.25,1.54.76,1.93,1.42.54,2.86.71,4.32.3,1.25-.36,2.1-1.17,2.23-2.5.13-1.33-.51-2.31-1.68-2.89-.78-.39-1.62-.66-2.41-1.02-.41-.19-1-.34-.89-.96.12-.64.7-.65,1.23-.69,1.15-.09,2.15.47,3.31.78Zm24.65-.14c.44.51.7.79.95,1.08,1.72,1.98,3.47,3.94,5.16,5.95.43.51.94.61,1.48.45.51-.16.26-.69.26-1.04.02-2.66.02-5.33,0-7.99,0-.25.18-.58-.18-.73-.3-.13-.65-.18-.93-.01-.37.21-.27.63-.27.97,0,2.08,0,4.16,0,6.54-1.04-1.18-1.87-2.12-2.7-3.07-1.21-1.37-2.43-2.74-3.61-4.13-.37-.44-.83-.47-1.3-.36-.51.12-.26.6-.26.91-.02,2.66-.01,5.33-.01,7.99,0,.51-.13,1.02.73,1,.77-.02.69-.45.69-.93,0-2.11,0-4.21,0-6.62Zm-13.12-11.56c0-1.43-.02-2.87.01-4.3.01-.56-.15-.76-.74-.76-.59,0-.76.21-.73.77.04.91-.01,1.83.02,2.74.02.57-.08.87-.77.84-1.31-.06-2.63-.04-3.95,0-.61.02-.85-.16-.82-.8.05-.95-.02-1.91.02-2.86.02-.54-.19-.68-.69-.68-.51,0-.81.06-.8.7.03,2.86.02,5.73,0,8.6,0,.52.17.69.69.69.52,0,.82-.09.8-.71-.04-.95.02-1.91-.02-2.86-.03-.58.18-.76.75-.74,1.28.03,2.56.06,3.83-.01.85-.05,1,.31.95,1.03-.05.79,0,1.59-.02,2.39-.01.51-.03.92.71.93.71,0,.76-.33.75-.88-.02-1.35,0-2.71,0-4.06Zm20.68,28.26h0c0,1.39,0,2.78,0,4.18,0,.46-.02.85.66.84,1.51-.04,3.03-.02,4.55,0,.45,0,.63-.16.64-.63,0-.51-.16-.71-.69-.69-.96.03-1.91.01-2.87,0-.26,0-.71.11-.74-.17-.08-.87-.18-1.78.03-2.6.13-.54.91-.22,1.4-.26.6-.04,1.2-.04,1.79,0,.53.03.82-.07.8-.7-.02-.57-.3-.62-.76-.61-.88.02-1.75,0-2.63,0-.27,0-.64.06-.66-.32-.04-.79-.2-1.65.06-2.36.22-.61,1.07-.23,1.63-.28.59-.05,1.2-.04,1.79,0,.5.03.69-.13.7-.66,0-.59-.28-.62-.74-.62-1.36.02-2.71.04-4.07-.01-.67-.03-.91.17-.89.86.04,1.35.01,2.7.01,4.06Zm-14.87-28.22c0,1.35.02,2.71-.01,4.06-.02.62.18.84.82.83,1.44-.04,2.87-.03,4.31,0,.5,0,.72-.14.72-.67,0-.54-.22-.69-.72-.68-.76.02-1.52-.06-2.27.03-1.09.13-1.44-.26-1.36-1.36.13-1.81-.38-1.7,1.74-1.69.52,0,1.04-.01,1.56,0,.44.01.76-.01.76-.61,0-.61-.25-.74-.79-.71-.64.04-1.28-.05-1.91.03-1.09.14-1.42-.25-1.36-1.35.11-1.89-.16-1.56,1.59-1.59.6-.01,1.2-.01,1.8,0,.49.02.83-.03.84-.68,0-.63-.29-.7-.8-.69-1.36.02-2.71.04-4.07,0-.73-.03-.86.29-.84.92.03,1.39.01,2.78,0,4.18Zm-6.83,16.83c-2.94,1.41-5.02,1.3-6.44-.3-1.09-1.23-1.3-3.06-.31-4.41,1.89-2.58,4.31-1.92,6.73-.86.13-1.5.14-1.51-1.13-1.89-.46-.14-.92-.26-1.39-.33-4.19-.6-7.44,3.18-5.97,6.92,1.06,2.69,4.11,3.85,7.36,2.89,1.07-.32,1.59-.8,1.16-2.02Zm19.83,14.2c-2.83,1.33-5.03,1.24-6.37-.23-1.08-1.18-1.35-3.1-.42-4.43,1.87-2.68,4.33-2.03,6.77-.93.33-1.15-.12-1.66-1.16-1.93-1.03-.26-2-.18-3.04-.11-3.12.22-5.28,3.11-4.45,6.17.83,3.04,3.94,4.5,7.42,3.51,1.05-.3,1.75-.76,1.25-2.05Zm-14.31-16.97c0,1.43.02,2.86,0,4.29,0,.49.1.71.65.7,1.47-.03,2.95-.02,4.42,0,.46,0,.74-.05.73-.63-.01-.52-.19-.71-.7-.68-.48.03-.96,0-1.43,0-2.39,0-2.36,0-2.25-2.35.03-.61.26-.72.79-.7.92.03,1.83,0,2.75.02.52.01.56-.29.57-.69,0-.42-.07-.7-.58-.67-.48.02-.96,0-1.43,0-2.26,0-2.24,0-2.08-2.26.04-.5.16-.7.69-.68.92.03,1.83-.02,2.75.01.52.02.81-.06.8-.7-.02-.59-.33-.61-.77-.6-1.35.01-2.71.04-4.06-.01-.72-.03-.85.26-.83.89.04,1.35.01,2.7.01,4.05Zm30.56,2.44c.09.79-.23,1.43.31,1.95,1.13,1.09,3.7.94,4.69-.25,1.05-1.27.78-3.07-.69-4.17-.67-.5-1.42-.87-2.12-1.33-.55-.36-1.07-.84-.78-1.56.31-.78,1.04-.88,1.8-.81.72.06,1.29.52,2.18.96-.39-.74.16-1.37-.53-1.84-1.27-.87-3.63-.52-4.45.68-.88,1.3-.47,2.79,1.08,3.87.72.5,1.47.94,2.17,1.47.51.39.77.95.49,1.58-.25.56-.77.74-1.37.78-1.09.08-1.84-.57-2.76-1.33Zm-9.38-1.85s0,0,0,0c0,1.11,0,2.22,0,3.33,0,.54-.15,1.1.78,1.08.87-.01.71-.54.71-1.03,0-1.75,0-3.49,0-5.24q0-2.37,2.31-2.38c.16,0,.32-.01.48,0,.55.06.64-.23.65-.71,0-.5-.21-.6-.64-.6-2.35,0-4.7.01-7.04,0-.5,0-.69.13-.69.67,0,.58.27.65.73.64.64-.02,1.28.03,1.91-.01.62-.04.84.16.81.79-.05,1.15-.01,2.3-.01,3.45Zm-32.61,13.49c0,1.43.02,2.86-.01,4.29-.01.56.14.78.73.78.54,0,.8-.12.77-.72-.04-.95.03-1.91-.02-2.86-.04-.75.16-1.11.99-1.03.75.07,1.51,0,2.27.02.43,0,.66-.11.66-.6,0-.5-.16-.72-.69-.7-.8.03-1.59.02-2.39,0-.3,0-.64.07-.81-.33-.57-1.33.14-2.41,1.6-2.41.52,0,1.04-.02,1.55,0,.48.03.73-.07.74-.63,0-.57-.28-.65-.74-.65-1.28.02-2.55.05-3.83,0-.73-.03-.86.28-.84.91.04,1.31.01,2.62.01,3.94Zm20.05-28.29c0,1.31,0,2.63,0,3.94,0,.52-.21,1.12.75,1.1.99-.02.68-.67.7-1.16.03-.87.05-1.75,0-2.62-.04-.7.22-.9.89-.85.71.05,1.44,0,2.15.01.61,0,.82-.31.82-.87,0-.63-.47-.41-.77-.42-.8-.02-1.6,0-2.39-.01-.3,0-.6.06-.7-.42-.38-1.73,0-2.27,1.72-2.27.44,0,.88-.01,1.32,0,.48.02.84,0,.84-.66,0-.63-.27-.71-.79-.7-1.24.02-2.48.05-3.71,0-.71-.03-.87.25-.85.9.04,1.35.01,2.7.01,4.06Zm-13.18,28.28c0,1.43,0,2.86,0,4.28,0,.64.33.79.91.79.64,0,.56-.39.56-.78,0-.32,0-.63,0-.95q0-2.83,2.78-2.85c.12,0,.24,0,.36,0,.46.04.74-.05.73-.63,0-.51-.16-.71-.69-.67-.55.04-1.12-.06-1.67.02-1.26.19-1.61-.3-1.56-1.53.04-.96.24-1.38,1.25-1.24.51.07,1.03.01,1.55,0,.46,0,1.06.12,1.07-.59.01-.67-.58-.65-1.03-.66-1.19-.03-2.39.03-3.58-.03-.65-.03-.7.28-.69.79.02,1.35,0,2.7,0,4.05Zm46.29-13.33c0-.56,0-1.11,0-1.67q0-2.63,2.58-2.7c.46-.01.84.04.85-.64,0-.67-.35-.67-.83-.66-2.23,0-4.46.01-6.69,0-.51,0-.81.05-.8.69.01.57.28.64.74.62.44-.02.88.05,1.31-.01,1.03-.14,1.45.16,1.39,1.31-.1,2.18,0,4.36-.04,6.55-.01.64.21.79.82.8.66.01.68-.32.67-.81-.02-1.15,0-2.3,0-3.45Zm-42.57-14.88c0-1.39-.02-2.78,0-4.17.01-.56-.08-.88-.77-.85-.6.02-.74.24-.73.78.02,2.82.02,5.64,0,8.47,0,.59.23.73.78.74.62.02.73-.26.72-.79-.02-1.39,0-2.78,0-4.17Zm3.07,28.22c0,1.43.03,2.85-.01,4.28-.02.63.19.83.81.82.62,0,.7-.28.69-.81-.02-2.77-.02-5.55,0-8.32,0-.61-.15-.83-.8-.82-.63,0-.7.29-.69.8.02,1.35,0,2.7,0,4.04Zm-4.42-14.1c0-1.35-.02-2.7.01-4.06.01-.58-.1-.87-.77-.87-.63,0-.7.3-.69.8.02,2.78.02,5.57,0,8.35,0,.51.05.8.69.8.67,0,.79-.27.78-.86-.03-1.39-.01-2.78-.01-4.17Z"
     id="path6" /><path
     class="cls-1"
     d="m20.73,5.78c.45,2.05.45,3.8.58,5.53.69,9.68,1.32,19.37,2,29.05.12,1.66.24,3.33.63,4.96.15.61.17,1.35,1.01,1.41.92.06,1.21-.67,1.39-1.38.55-2.16.72-4.39.97-6.6.3-2.68.6-5.37.9-8.01.38-.13.37.16.47.28.41.51.69,1.3,1.47,1.17.79-.13,1.18-.88,1.44-1.57.9-2.43,1.31-4.98,1.95-7.48.16-.61.34-1.21.71-1.82.57,2.17,1.13,4.34,1.71,6.51.31,1.15.56,2.32,1.19,3.36.77,1.27,1.2,1.34,2.27.36.43-.39.75-.91,1.22-1.5.62,1.89,2.07,2.08,3.72,1.97,1.31-.09,2.64.04,3.95-.04,1.07-.07,1.12.28.9,1.22-2.15,9.18-9.4,16-18.7,17.52-11.89,1.94-23.12-5.46-26-17.15-.47-1.9-.41-1.54,1.26-1.56,1.28-.01,2.55,0,3.83,0,1.56,0,2.06-.33,2.56-1.78.23-.67.4-1.37.65-2.27.26.82.45,1.47.68,2.09.12.33.31.65.5.94.43.64,1.09,1.14,1.8,1.08.78-.07,1.06-.86,1.23-1.58.85-3.48,1.18-7.05,1.65-10.59.59-4.45,1.13-8.91,1.7-13.36.02-.14.12-.27.34-.75Z"
     id="path8" /><path
     class="cls-2"
     d="m38.4,29.63c-.84-3.05-1.63-5.96-2.45-8.85-.17-.61-.4-1.21-.71-1.76-.6-1.05-1.6-1.03-2.24,0-.59.96-.85,2.05-1.11,3.13-.49,2-.97,4.01-1.44,6.01-.08.34-.15.68-.47,1-.53-.87-1.03-1.87-2.15-1.58-1.05.27-1.07,1.39-1.25,2.26-.67,3.31-.84,6.68-1.27,10.1-.55-1.55-.44-3.13-.56-4.64-.36-4.43-.52-8.87-.82-13.3-.33-4.83-.72-9.65-1.13-14.47-.15-1.8-.17-1.89,1.7-2.06,8.59-.8,15.51,2.3,20.75,9.07,3.15,4.07,4.5,8.79,4.55,13.89.02,1.63-.07,1.69-1.65,1.69-1.52,0-3.03,0-4.55,0-.45,0-.81-.05-1.12-.49-1.62-2.32-2.16-2.33-4.08-.02Z"
     id="path10" /><path
     class="cls-2"
     d="m15.46,29.36c-.66-.87-.65-1.62-.89-2.28-.29-.78-.59-1.63-1.59-1.73-1.06-.1-1.39.76-1.74,1.52-.17.36-.29.74-.39,1.13-.64,2.48-.2,2.09-2.69,2.12-1.12.01-2.23-.02-3.35.01-.62.02-.92-.12-.96-.84-.51-9.69,5.41-18.83,14.29-22.29.03-.01.08.01.26.05-.92,7.34-1.7,14.7-2.95,22.31Z"
     id="path12" /><g
     aria-label="CHIEF
SCIENTIST
OFFICE"
     id="text342"
     style="font-size:13.1227px;line-height:13.9975px;font-family:Arial;-inkscape-font-specification:Arial;fill:#214579;stroke-linecap:round;paint-order:fill markers stroke;stop-color:#000000"><path
       d="m 56.80242,13.693901 q 0,-2.210611 1.121325,-3.511347 1.121324,-1.3007363 3.235822,-1.3007363 1.217438,0 2.063237,0.3780466 0.845799,0.3780465 1.191807,1.0956937 0.230673,0.47416 -0.07689,0.640757 L 63.568812,11.4064 q -0.403676,0.217857 -0.666387,-0.243488 -0.166596,-0.294748 -0.621534,-0.531828 -0.44853,-0.23708 -1.057249,-0.23708 -1.345589,0 -1.883825,0.852206 -0.538235,0.845799 -0.538235,2.447691 0,1.601893 0.538235,2.454099 0.538236,0.845799 1.883825,0.845799 0.724056,0 1.217438,-0.326786 0.499791,-0.326786 0.692018,-0.621534 0.313971,-0.480568 0.666387,-0.243488 l 0.768908,0.512606 q 0.313971,0.21145 0.06408,0.640757 -0.371639,0.640757 -1.275106,1.095694 -0.903467,0.454937 -2.197796,0.454937 -2.08246,0 -3.223007,-1.300736 -1.13414,-1.300736 -1.13414,-3.511348 z"
       style="font-weight:bold;font-family:'Istok Web';-inkscape-font-specification:'Istok Web Bold'"
       id="path542" /><path
       d="m 66.746966,18.288128 q -0.320378,0 -0.320378,-0.352416 V 9.4520913 q 0,-0.3524162 0.320378,-0.3524162 h 0.589497 q 0.320378,0 0.320378,0.3524162 v 3.5305697 h 4.472483 V 9.4520913 q 0,-0.3524162 0.320378,-0.3524162 h 0.589496 q 0.320379,0 0.320379,0.3524162 v 8.4836207 q 0,0.352416 -0.320379,0.352416 h -0.589496 q -0.320378,0 -0.320378,-0.352416 v -3.902209 h -4.472483 v 3.902209 q 0,0.352416 -0.320378,0.352416 z"
       style="font-family:'Istok Web';-inkscape-font-specification:'Istok Web'"
       id="path544" /><path
       d="m 75.858529,18.288128 q -0.320378,0 -0.320378,-0.352416 V 9.4520913 q 0,-0.3524162 0.320378,-0.3524162 h 0.589496 q 0.320379,0 0.320379,0.3524162 v 8.4836207 q 0,0.352416 -0.320379,0.352416 z"
       style="font-family:'Istok Web';-inkscape-font-specification:'Istok Web'"
       id="path546" /><path
       d="m 79.267354,18.288128 q -0.320378,0 -0.320378,-0.352416 V 9.4520913 q 0,-0.3524162 0.320378,-0.3524162 h 5.606622 q 0.352416,0 0.352416,0.2883405 v 0.4741601 q 0,0.2883403 -0.352416,0.2883403 h -4.696747 v 2.844961 h 4.312293 q 0.352416,0 0.352416,0.28834 v 0.47416 q 0,0.288341 -0.352416,0.288341 h -4.312293 v 3.190969 h 4.888974 q 0.352416,0 0.352416,0.28834 v 0.47416 q 0,0.288341 -0.352416,0.288341 z"
       style="font-family:'Istok Web';-inkscape-font-specification:'Istok Web'"
       id="path548" /><path
       d="m 87.404965,18.288128 q -0.320378,0 -0.320378,-0.352416 V 9.4520913 q 0,-0.3524162 0.320378,-0.3524162 h 5.222168 q 0.352417,0 0.352417,0.2883405 v 0.4741601 q 0,0.2883403 -0.352417,0.2883403 H 88.31484 v 3.037188 h 3.761243 q 0.352416,0 0.352416,0.28834 v 0.47416 q 0,0.288341 -0.352416,0.288341 H 88.31484 v 3.697167 q 0,0.352416 -0.320378,0.352416 z"
       style="font-family:'Istok Web';-inkscape-font-specification:'Istok Web'"
       id="path550" /><path
       d="M 57.385509,32.605694 Q 56.98824,32.304539 57.193282,31.996975 l 0.493383,-0.743277 q 0.243487,-0.365232 0.71124,-0.03845 0.358824,0.249895 0.935505,0.519013 0.583089,0.26271 1.223845,0.26271 0.44853,0 0.865022,-0.102521 0.416492,-0.102521 0.634349,-0.397269 0.217858,-0.294748 0.217858,-0.698425 0,-0.28834 -0.09611,-0.506198 -0.09611,-0.217857 -0.313971,-0.358824 -0.217857,-0.140966 -0.44853,-0.23708 -0.403676,-0.166596 -1.018803,-0.326786 -0.608719,-0.166596 -1.204623,-0.397269 -0.531828,-0.205042 -0.97395,-0.563866 -0.442122,-0.358824 -0.68561,-0.807353 -0.243487,-0.44853 -0.243487,-1.198216 0,-0.890652 0.576681,-1.525001 0.576681,-0.634349 1.326366,-0.813761 0.749686,-0.179412 1.512186,-0.179412 0.756093,0 1.557039,0.230673 0.807354,0.230672 1.217438,0.576681 0.403677,0.339601 0.198635,0.615126 l -0.519013,0.698425 q -0.26271,0.358824 -0.704832,0.05767 -0.281933,-0.192227 -0.775316,-0.429307 -0.486975,-0.23708 -1.018804,-0.23708 -0.378046,0 -0.698425,0.06408 -0.31397,0.06408 -0.557458,0.307563 -0.243488,0.243488 -0.243488,0.602312 0,0.346008 0.179412,0.563866 0.179412,0.211449 0.39727,0.320378 0.217857,0.102521 0.442122,0.173004 0.692017,0.224265 1.23666,0.39727 0.544644,0.166596 1.005989,0.371638 0.640757,0.288341 0.980358,0.576682 0.339601,0.28834 0.557458,0.788131 0.224265,0.49979 0.224265,1.191807 0,1.025211 -0.653572,1.698006 -0.653572,0.666387 -1.454518,0.858614 -0.794538,0.198635 -1.550632,0.198635 -1.114916,0 -1.813341,-0.217858 -0.698425,-0.21145 -1.326367,-0.68561 z"
       style="font-weight:bold;font-family:'Istok Web';-inkscape-font-specification:'Istok Web Bold'"
       id="path552" /><path
       d="m 65.221965,28.697078 q 0,-2.242649 1.10851,-3.511348 1.114917,-1.275106 3.197376,-1.275106 1.217438,0 2.011977,0.416492 0.794538,0.410085 1.140547,1.127732 0.179412,0.371639 -0.05767,0.512606 l -0.506198,0.294748 q -0.256303,0.147374 -0.454937,-0.243488 -0.21145,-0.403676 -0.692018,-0.756093 -0.480567,-0.352416 -1.377627,-0.352416 -1.601892,0 -2.332355,0.999581 -0.724055,0.993173 -0.724055,2.787292 0,1.794119 0.724055,2.7937 0.730463,0.993173 2.332355,0.993173 0.92269,0 1.473741,-0.4229 0.557458,-0.422899 0.807353,-0.884244 0.198635,-0.371639 0.461345,-0.224265 l 0.531828,0.301156 q 0.230673,0.134558 0.03845,0.512605 -0.378047,0.73687 -1.230253,1.230253 -0.852207,0.486975 -2.146536,0.486975 -2.082459,0 -3.197376,-1.268698 -1.10851,-1.275106 -1.10851,-3.517755 z"
       style="font-family:'Istok Web';-inkscape-font-specification:'Istok Web'"
       id="path554" /><path
       d="m 75.025544,33.291304 q -0.320378,0 -0.320378,-0.352416 v -8.48362 q 0,-0.352417 0.320378,-0.352417 h 0.589496 q 0.320379,0 0.320379,0.352417 v 8.48362 q 0,0.352416 -0.320379,0.352416 z"
       style="font-family:'Istok Web';-inkscape-font-specification:'Istok Web'"
       id="path556" /><path
       d="m 78.434371,33.291304 q -0.320379,0 -0.320379,-0.352416 v -8.48362 q 0,-0.352417 0.320379,-0.352417 h 5.606622 q 0.352416,0 0.352416,0.288341 v 0.47416 q 0,0.288341 -0.352416,0.288341 h -4.696747 v 2.84496 h 4.312293 q 0.352416,0 0.352416,0.28834 v 0.474161 q 0,0.28834 -0.352416,0.28834 h -4.312293 v 3.190969 h 4.888974 q 0.352416,0 0.352416,0.288341 v 0.47416 q 0,0.28834 -0.352416,0.28834 z"
       style="font-family:'Istok Web';-inkscape-font-specification:'Istok Web'"
       id="path558" /><path
       d="m 86.571982,33.291304 q -0.320378,0 -0.320378,-0.352416 v -8.48362 q 0,-0.352417 0.320378,-0.352417 h 0.820169 q 0.44853,0 0.640757,0.320379 l 4.011138,6.721539 h 0.02563 q -0.01282,-0.256303 -0.01282,-0.512606 v -6.176895 q 0,-0.352417 0.320378,-0.352417 h 0.589496 q 0.320379,0 0.320379,0.352417 v 8.48362 q 0,0.352416 -0.320379,0.352416 h -0.563866 q -0.448529,0 -0.640756,-0.320378 l -4.267441,-7.131624 h -0.02563 q 0.01282,0.256303 0.01282,0.512606 v 6.58698 q 0,0.352416 -0.320378,0.352416 z"
       style="font-family:'Istok Web';-inkscape-font-specification:'Istok Web'"
       id="path560" /><path
       d="m 94.959489,25.204953 q -0.352417,0 -0.352417,-0.28834 v -0.525421 q 0,-0.288341 0.352417,-0.288341 h 6.779211 q 0.35241,0 0.35241,0.288341 v 0.525421 q 0,0.28834 -0.35241,0.28834 h -2.774481 v 7.733935 q 0,0.352416 -0.320379,0.352416 h -0.589496 q -0.320378,0 -0.320378,-0.352416 v -7.733935 z"
       style="font-family:'Istok Web';-inkscape-font-specification:'Istok Web'"
       id="path562" /><path
       d="m 103.73145,33.291304 q -0.32038,0 -0.32038,-0.352416 v -8.48362 q 0,-0.352417 0.32038,-0.352417 h 0.5895 q 0.32037,0 0.32037,0.352417 v 8.48362 q 0,0.352416 -0.32037,0.352416 z"
       style="font-family:'Istok Web';-inkscape-font-specification:'Istok Web'"
       id="path564" /><path
       d="m 106.79427,32.599287 q -0.3396,-0.307563 -0.17942,-0.538236 l 0.3332,-0.480567 q 0.173,-0.249896 0.55746,0.03845 0.50619,0.378046 1.05084,0.621534 0.55105,0.243488 1.33277,0.243488 0.57668,0 0.97395,-0.173005 0.39727,-0.173004 0.63435,-0.493382 0.24349,-0.326786 0.24349,-0.788131 0,-0.333194 -0.10252,-0.615127 -0.0961,-0.28834 -0.31397,-0.480568 -0.21786,-0.192227 -0.45494,-0.301155 -0.39086,-0.179412 -1.17259,-0.416492 -0.77531,-0.23708 -1.3584,-0.512606 -0.57668,-0.275525 -0.92269,-0.666387 -0.3396,-0.390861 -0.45494,-0.800946 -0.10893,-0.416492 -0.10893,-0.94832 0,-0.813761 0.47416,-1.403257 0.47416,-0.589497 1.15977,-0.781724 0.69202,-0.192227 1.40326,-0.192227 0.81376,0 1.41607,0.21145 0.60232,0.21145 1.07648,0.551051 0.33319,0.23708 0.15378,0.49979 l -0.32679,0.467753 q -0.14737,0.21145 -0.57668,-0.08971 -0.32679,-0.230673 -0.80095,-0.429307 -0.46775,-0.205042 -0.92909,-0.205042 -0.5895,0 -0.98036,0.140966 -0.39086,0.134559 -0.61513,0.461345 -0.22426,0.326786 -0.22426,0.756093 0,0.269118 0.0513,0.49979 0.0513,0.224265 0.26271,0.461345 0.21145,0.23708 0.5126,0.365232 0.40368,0.173004 1.24948,0.410084 0.85221,0.230672 1.48656,0.570274 0.58949,0.31397 0.84579,0.659979 0.26271,0.339601 0.40368,0.743278 0.14738,0.397269 0.14738,0.89706 0,0.909874 -0.46776,1.518593 -0.46775,0.608719 -1.10851,0.845799 -0.64075,0.23708 -1.6083,0.23708 -1.15977,0 -1.92227,-0.269118 -0.7625,-0.269117 -1.14054,-0.615126 z"
       style="font-family:'Istok Web';-inkscape-font-specification:'Istok Web'"
       id="path566" /><path
       d="m 114.15656,25.204953 q -0.35241,0 -0.35241,-0.28834 v -0.525421 q 0,-0.288341 0.35241,-0.288341 h 6.77921 q 0.35242,0 0.35242,0.288341 v 0.525421 q 0,0.28834 -0.35242,0.28834 h -2.77448 v 7.733935 q 0,0.352416 -0.32037,0.352416 h -0.5895 q -0.32038,0 -0.32038,-0.352416 v -7.733935 z"
       style="font-family:'Istok Web';-inkscape-font-specification:'Istok Web'"
       id="path568" /><path
       d="m 56.80242,43.700254 q 0,-2.210611 1.140547,-3.511347 1.140548,-1.300737 3.255045,-1.300737 2.114498,0 3.255045,1.300737 1.140547,1.300736 1.140547,3.511347 0,2.210611 -1.140547,3.511348 -1.140547,1.300736 -3.255045,1.300736 -2.114497,0 -3.255045,-1.300736 -1.140547,-1.300737 -1.140547,-3.511348 z m 1.999162,0 q 0,1.601892 0.570273,2.454099 0.576681,0.845799 1.826157,0.845799 1.249476,0 1.81975,-0.845799 0.576681,-0.852207 0.576681,-2.454099 0,-1.601892 -0.576681,-2.447691 -0.570274,-0.852206 -1.81975,-0.852206 -1.249476,0 -1.826157,0.852206 -0.570273,0.845799 -0.570273,2.447691 z"
       style="font-weight:bold;font-family:'Istok Web';-inkscape-font-specification:'Istok Web Bold'"
       id="path570" /><path
       d="m 67.55432,48.294481 q -0.320378,0 -0.320378,-0.352417 v -8.48362 q 0,-0.352416 0.320378,-0.352416 h 5.222168 q 0.352417,0 0.352417,0.28834 v 0.47416 q 0,0.288341 -0.352417,0.288341 h -4.312293 v 3.037187 h 3.761242 q 0.352417,0 0.352417,0.288341 v 0.47416 q 0,0.28834 -0.352417,0.28834 h -3.761242 v 3.697167 q 0,0.352417 -0.320378,0.352417 z"
       style="font-family:'Istok Web';-inkscape-font-specification:'Istok Web'"
       id="path572" /><path
       d="m 75.025544,48.294481 q -0.320378,0 -0.320378,-0.352417 v -8.48362 q 0,-0.352416 0.320378,-0.352416 h 5.222168 q 0.352416,0 0.352416,0.28834 v 0.47416 q 0,0.288341 -0.352416,0.288341 h -4.312293 v 3.037187 h 3.761242 q 0.352417,0 0.352417,0.288341 v 0.47416 q 0,0.28834 -0.352417,0.28834 h -3.761242 v 3.697167 q 0,0.352417 -0.320379,0.352417 z"
       style="font-family:'Istok Web';-inkscape-font-specification:'Istok Web'"
       id="path574" /><path
       d="m 82.49677,48.294481 q -0.320379,0 -0.320379,-0.352417 v -8.48362 q 0,-0.352416 0.320379,-0.352416 h 0.589496 q 0.320378,0 0.320378,0.352416 v 8.48362 q 0,0.352417 -0.320378,0.352417 z"
       style="font-family:'Istok Web';-inkscape-font-specification:'Istok Web'"
       id="path576" /><path
       d="m 85.085428,43.700254 q 0,-2.242649 1.108509,-3.511347 1.114917,-1.275106 3.197377,-1.275106 1.217438,0 2.011976,0.416492 0.794539,0.410084 1.140547,1.127732 0.179412,0.371639 -0.05767,0.512605 l -0.506198,0.294748 q -0.256302,0.147374 -0.454937,-0.243487 -0.21145,-0.403677 -0.692017,-0.756093 -0.480568,-0.352417 -1.377628,-0.352417 -1.601892,0 -2.332354,0.999581 -0.724056,0.993173 -0.724056,2.787292 0,1.794119 0.724056,2.7937 0.730462,0.993173 2.332354,0.993173 0.92269,0 1.473741,-0.4229 0.557459,-0.422899 0.807354,-0.884244 0.198634,-0.371639 0.461345,-0.224265 l 0.531828,0.301156 q 0.230672,0.134559 0.03844,0.512605 -0.378046,0.736871 -1.230253,1.230253 -0.852206,0.486976 -2.146535,0.486976 -2.08246,0 -3.197377,-1.268699 -1.108509,-1.275106 -1.108509,-3.517755 z"
       style="font-family:'Istok Web';-inkscape-font-specification:'Istok Web'"
       id="path578" /><path
       d="m 94.889008,48.294481 q -0.320378,0 -0.320378,-0.352417 v -8.48362 q 0,-0.352416 0.320378,-0.352416 h 5.606622 q 0.35242,0 0.35242,0.28834 v 0.47416 q 0,0.288341 -0.35242,0.288341 h -4.696747 v 2.84496 h 4.312297 q 0.35241,0 0.35241,0.288341 v 0.47416 q 0,0.28834 -0.35241,0.28834 h -4.312297 v 3.190969 h 4.888977 q 0.35241,0 0.35241,0.288341 v 0.47416 q 0,0.288341 -0.35241,0.288341 z"
       style="font-family:'Istok Web';-inkscape-font-specification:'Istok Web'"
       id="path580" /></g><text
     xml:space="preserve"
     style="font-style:normal;font-variant:normal;font-weight:normal;font-stretch:normal;font-size:13.1227px;line-height:13.9975px;font-family:Arial;-inkscape-font-specification:Arial;display:none;fill:#214579;fill-opacity:1;stroke:none;stroke-width:1;stroke-linecap:round;paint-order:fill markers stroke;stop-color:#000000"
     x="56.251369"
     y="18.288128"
     id="text342-8"><tspan
       style="font-style:normal;font-variant:normal;font-weight:normal;font-stretch:normal;font-family:'Istok Web';-inkscape-font-specification:'Istok Web';stroke-width:1"
       sodipodi:role="line"
       id="tspan433-2"
       x="56.251369"
       y="18.288128"><tspan
   style="font-style:normal;font-variant:normal;font-weight:bold;font-stretch:normal;font-family:'Istok Web';-inkscape-font-specification:'Istok Web Bold';stroke-width:1"
   id="tspan437-1">C</tspan>HIEF</tspan><tspan
       style="font-style:normal;font-variant:normal;font-weight:normal;font-stretch:normal;font-family:'Istok Web';-inkscape-font-specification:'Istok Web';stroke-width:1"
       sodipodi:role="line"
       id="tspan435-3"
       x="56.251369"
       y="33.291306"><tspan
   style="font-style:normal;font-variant:normal;font-weight:bold;font-stretch:normal;font-family:'Istok Web';-inkscape-font-specification:'Istok Web Bold';stroke-width:1"
   id="tspan439-5">S</tspan>CIENTIST</tspan><tspan
       sodipodi:role="line"
       x="56.251369"
       y="48.294479"
       style="font-style:normal;font-variant:normal;font-weight:normal;font-stretch:normal;font-family:'Istok Web';-inkscape-font-specification:'Istok Web';stroke-width:1"
       id="tspan431-6"><tspan
   style="font-style:normal;font-variant:normal;font-weight:bold;font-stretch:normal;font-family:'Istok Web';-inkscape-font-specification:'Istok Web Bold';stroke-width:1"
   id="tspan441-5">O</tspan>FFICE</tspan></text></svg>
