<?xml version="1.0" encoding="UTF-8" standalone="no"?>
<svg
   id="Layer_1"
   viewBox="0 0 127.68 56.64"
   version="1.1"
   sodipodi:docname="cso.svg"
   inkscape:version="1.2.2 (732a01da63, 2022-12-09)"
   xml:space="preserve"
   xmlns:inkscape="http://www.inkscape.org/namespaces/inkscape"
   xmlns:sodipodi="http://sodipodi.sourceforge.net/DTD/sodipodi-0.dtd"
   xmlns="http://www.w3.org/2000/svg"
   xmlns:svg="http://www.w3.org/2000/svg"><sodipodi:namedview
     id="namedview59"
     pagecolor="#ffffff"
     bordercolor="#000000"
     borderopacity="0.25"
     inkscape:showpageshadow="2"
     inkscape:pageopacity="0.0"
     inkscape:pagecheckerboard="0"
     inkscape:deskcolor="#d1d1d1"
     showgrid="false"
     inkscape:zoom="4.4521819"
     inkscape:cx="62.778207"
     inkscape:cy="60.532117"
     inkscape:window-width="1920"
     inkscape:window-height="1002"
     inkscape:window-x="2125"
     inkscape:window-y="-8"
     inkscape:window-maximized="1"
     inkscape:current-layer="Layer_1" /><defs
     id="defs4"><style
       id="style2">.cls-1{fill:#214579;}.cls-1,.cls-2,.cls-3{stroke-width:0px;}.cls-2{fill:#81cddd;}.cls-3{fill:#fbfcfc;}</style></defs><path
     class="cls-1"
     d="m20.73,5.78c.45,2.05.45,3.8.58,5.53.69,9.68,1.32,19.37,2,29.05.12,1.66.24,3.33.63,4.96.15.61.17,1.35,1.01,1.41.92.06,1.21-.67,1.39-1.38.55-2.16.72-4.39.97-6.6.3-2.68.6-5.37.9-8.01.38-.13.37.16.47.28.41.51.69,1.3,1.47,1.17.79-.13,1.18-.88,1.44-1.57.9-2.43,1.31-4.98,1.95-7.48.16-.61.34-1.21.71-1.82.57,2.17,1.13,4.34,1.71,6.51.31,1.15.56,2.32,1.19,3.36.77,1.27,1.2,1.34,2.27.36.43-.39.75-.91,1.22-1.5.62,1.89,2.07,2.08,3.72,1.97,1.31-.09,2.64.04,3.95-.04,1.07-.07,1.12.28.9,1.22-2.15,9.18-9.4,16-18.7,17.52-11.89,1.94-23.12-5.46-26-17.15-.47-1.9-.41-1.54,1.26-1.56,1.28-.01,2.55,0,3.83,0,1.56,0,2.06-.33,2.56-1.78.23-.67.4-1.37.65-2.27.26.82.45,1.47.68,2.09.12.33.31.65.5.94.43.64,1.09,1.14,1.8,1.08.78-.07,1.06-.86,1.23-1.58.85-3.48,1.18-7.05,1.65-10.59.59-4.45,1.13-8.91,1.7-13.36.02-.14.12-.27.34-.75Z"
     id="path8" /><path
     class="cls-2"
     d="m38.4,29.63c-.84-3.05-1.63-5.96-2.45-8.85-.17-.61-.4-1.21-.71-1.76-.6-1.05-1.6-1.03-2.24,0-.59.96-.85,2.05-1.11,3.13-.49,2-.97,4.01-1.44,6.01-.08.34-.15.68-.47,1-.53-.87-1.03-1.87-2.15-1.58-1.05.27-1.07,1.39-1.25,2.26-.67,3.31-.84,6.68-1.27,10.1-.55-1.55-.44-3.13-.56-4.64-.36-4.43-.52-8.87-.82-13.3-.33-4.83-.72-9.65-1.13-14.47-.15-1.8-.17-1.89,1.7-2.06,8.59-.8,15.51,2.3,20.75,9.07,3.15,4.07,4.5,8.79,4.55,13.89.02,1.63-.07,1.69-1.65,1.69-1.52,0-3.03,0-4.55,0-.45,0-.81-.05-1.12-.49-1.62-2.32-2.16-2.33-4.08-.02Z"
     id="path10" /><path
     class="cls-2"
     d="m15.46,29.36c-.66-.87-.65-1.62-.89-2.28-.29-.78-.59-1.63-1.59-1.73-1.06-.1-1.39.76-1.74,1.52-.17.36-.29.74-.39,1.13-.64,2.48-.2,2.09-2.69,2.12-1.12.01-2.23-.02-3.35.01-.62.02-.92-.12-.96-.84-.51-9.69,5.41-18.83,14.29-22.29.03-.01.08.01.26.05-.92,7.34-1.7,14.7-2.95,22.31Z"
     id="path12" /><g
     aria-label="CHIEF SCIENTIST OFFICE"
     id="text342"
     style="font-size:13.1227px;line-height:13.9975px;font-family:Arial;-inkscape-font-specification:Arial;fill:#214579;stroke-linecap:round;paint-order:fill markers stroke;stop-color:#000000"><path
       d="m 56.80242,13.693901 q 0,-2.210611 1.121325,-3.511347 1.121324,-1.3007363 3.235822,-1.3007363 1.217438,0 2.063237,0.3780466 0.845799,0.3780465 1.191807,1.0956937 0.230673,0.47416 -0.07689,0.640757 L 63.568812,11.4064 q -0.403676,0.217857 -0.666387,-0.243488 -0.166596,-0.294748 -0.621534,-0.531828 -0.44853,-0.23708 -1.057249,-0.23708 -1.345589,0 -1.883825,0.852206 -0.538235,0.845799 -0.538235,2.447691 0,1.601893 0.538235,2.454099 0.538236,0.845799 1.883825,0.845799 0.724056,0 1.217438,-0.326786 0.499791,-0.326786 0.692018,-0.621534 0.313971,-0.480568 0.666387,-0.243488 l 0.768908,0.512606 q 0.313971,0.21145 0.06408,0.640757 -0.371639,0.640757 -1.275106,1.095694 -0.903467,0.454937 -2.197796,0.454937 -2.08246,0 -3.223007,-1.300736 -1.13414,-1.300736 -1.13414,-3.511348 z"
       style="font-weight:bold;font-family:'Istok Web';-inkscape-font-specification:'Istok Web Bold'"
       id="path542" /><path
       d="m 66.746966,18.288128 q -0.320378,0 -0.320378,-0.352416 V 9.4520913 q 0,-0.3524162 0.320378,-0.3524162 h 0.589497 q 0.320378,0 0.320378,0.3524162 v 3.5305697 h 4.472483 V 9.4520913 q 0,-0.3524162 0.320378,-0.3524162 h 0.589496 q 0.320379,0 0.320379,0.3524162 v 8.4836207 q 0,0.352416 -0.320379,0.352416 h -0.589496 q -0.320378,0 -0.320378,-0.352416 v -3.902209 h -4.472483 v 3.902209 q 0,0.352416 -0.320378,0.352416 z"
       style="font-family:'Istok Web';-inkscape-font-specification:'Istok Web'"
       id="path544" /><path
       d="m 75.858529,18.288128 q -0.320378,0 -0.320378,-0.352416 V 9.4520913 q 0,-0.3524162 0.320378,-0.3524162 h 0.589496 q 0.320379,0 0.320379,0.3524162 v 8.4836207 q 0,0.352416 -0.320379,0.352416 z"
       style="font-family:'Istok Web';-inkscape-font-specification:'Istok Web'"
       id="path546" /><path
       d="m 79.267354,18.288128 q -0.320378,0 -0.320378,-0.352416 V 9.4520913 q 0,-0.3524162 0.320378,-0.3524162 h 5.606622 q 0.352416,0 0.352416,0.2883405 v 0.4741601 q 0,0.2883403 -0.352416,0.2883403 h -4.696747 v 2.844961 h 4.312293 q 0.352416,0 0.352416,0.28834 v 0.47416 q 0,0.288341 -0.352416,0.288341 h -4.312293 v 3.190969 h 4.888974 q 0.352416,0 0.352416,0.28834 v 0.47416 q 0,0.288341 -0.352416,0.288341 z"
       style="font-family:'Istok Web';-inkscape-font-specification:'Istok Web'"
       id="path548" /><path
       d="m 87.404965,18.288128 q -0.320378,0 -0.320378,-0.352416 V 9.4520913 q 0,-0.3524162 0.320378,-0.3524162 h 5.222168 q 0.352417,0 0.352417,0.2883405 v 0.4741601 q 0,0.2883403 -0.352417,0.2883403 H 88.31484 v 3.037188 h 3.761243 q 0.352416,0 0.352416,0.28834 v 0.47416 q 0,0.288341 -0.352416,0.288341 H 88.31484 v 3.697167 q 0,0.352416 -0.320378,0.352416 z"
       style="font-family:'Istok Web';-inkscape-font-specification:'Istok Web'"
       id="path550" /><path
       d="M 57.385509,32.605694 Q 56.98824,32.304539 57.193282,31.996975 l 0.493383,-0.743277 q 0.243487,-0.365232 0.71124,-0.03845 0.358824,0.249895 0.935505,0.519013 0.583089,0.26271 1.223845,0.26271 0.44853,0 0.865022,-0.102521 0.416492,-0.102521 0.634349,-0.397269 0.217858,-0.294748 0.217858,-0.698425 0,-0.28834 -0.09611,-0.506198 -0.09611,-0.217857 -0.313971,-0.358824 -0.217857,-0.140966 -0.44853,-0.23708 -0.403676,-0.166596 -1.018803,-0.326786 -0.608719,-0.166596 -1.204623,-0.397269 -0.531828,-0.205042 -0.97395,-0.563866 -0.442122,-0.358824 -0.68561,-0.807353 -0.243487,-0.44853 -0.243487,-1.198216 0,-0.890652 0.576681,-1.525001 0.576681,-0.634349 1.326366,-0.813761 0.749686,-0.179412 1.512186,-0.179412 0.756093,0 1.557039,0.230673 0.807354,0.230672 1.217438,0.576681 0.403677,0.339601 0.198635,0.615126 l -0.519013,0.698425 q -0.26271,0.358824 -0.704832,0.05767 -0.281933,-0.192227 -0.775316,-0.429307 -0.486975,-0.23708 -1.018804,-0.23708 -0.378046,0 -0.698425,0.06408 -0.31397,0.06408 -0.557458,0.307563 -0.243488,0.243488 -0.243488,0.602312 0,0.346008 0.179412,0.563866 0.179412,0.211449 0.39727,0.320378 0.217857,0.102521 0.442122,0.173004 0.692017,0.224265 1.23666,0.39727 0.544644,0.166596 1.005989,0.371638 0.640757,0.288341 0.980358,0.576682 0.339601,0.28834 0.557458,0.788131 0.224265,0.49979 0.224265,1.191807 0,1.025211 -0.653572,1.698006 -0.653572,0.666387 -1.454518,0.858614 -0.794538,0.198635 -1.550632,0.198635 -1.114916,0 -1.813341,-0.217858 -0.698425,-0.21145 -1.326367,-0.68561 z"
       style="font-weight:bold;font-family:'Istok Web';-inkscape-font-specification:'Istok Web Bold'"
       id="path552" /><path
       d="m 65.221965,28.697078 q 0,-2.242649 1.10851,-3.511348 1.114917,-1.275106 3.197376,-1.275106 1.217438,0 2.011977,0.416492 0.794538,0.410085 1.140547,1.127732 0.179412,0.371639 -0.05767,0.512606 l -0.506198,0.294748 q -0.256303,0.147374 -0.454937,-0.243488 -0.21145,-0.403676 -0.692018,-0.756093 -0.480567,-0.352416 -1.377627,-0.352416 -1.601892,0 -2.332355,0.999581 -0.724055,0.993173 -0.724055,2.787292 0,1.794119 0.724055,2.7937 0.730463,0.993173 2.332355,0.993173 0.92269,0 1.473741,-0.4229 0.557458,-0.422899 0.807353,-0.884244 0.198635,-0.371639 0.461345,-0.224265 l 0.531828,0.301156 q 0.230673,0.134558 0.03845,0.512605 -0.378047,0.73687 -1.230253,1.230253 -0.852207,0.486975 -2.146536,0.486975 -2.082459,0 -3.197376,-1.268698 -1.10851,-1.275106 -1.10851,-3.517755 z"
       style="font-family:'Istok Web';-inkscape-font-specification:'Istok Web'"
       id="path554" /><path
       d="m 75.025544,33.291304 q -0.320378,0 -0.320378,-0.352416 v -8.48362 q 0,-0.352417 0.320378,-0.352417 h 0.589496 q 0.320379,0 0.320379,0.352417 v 8.48362 q 0,0.352416 -0.320379,0.352416 z"
       style="font-family:'Istok Web';-inkscape-font-specification:'Istok Web'"
       id="path556" /><path
       d="m 78.434371,33.291304 q -0.320379,0 -0.320379,-0.352416 v -8.48362 q 0,-0.352417 0.320379,-0.352417 h 5.606622 q 0.352416,0 0.352416,0.288341 v 0.47416 q 0,0.288341 -0.352416,0.288341 h -4.696747 v 2.84496 h 4.312293 q 0.352416,0 0.352416,0.28834 v 0.474161 q 0,0.28834 -0.352416,0.28834 h -4.312293 v 3.190969 h 4.888974 q 0.352416,0 0.352416,0.288341 v 0.47416 q 0,0.28834 -0.352416,0.28834 z"
       style="font-family:'Istok Web';-inkscape-font-specification:'Istok Web'"
       id="path558" /><path
       d="m 86.571982,33.291304 q -0.320378,0 -0.320378,-0.352416 v -8.48362 q 0,-0.352417 0.320378,-0.352417 h 0.820169 q 0.44853,0 0.640757,0.320379 l 4.011138,6.721539 h 0.02563 q -0.01282,-0.256303 -0.01282,-0.512606 v -6.176895 q 0,-0.352417 0.320378,-0.352417 h 0.589496 q 0.320379,0 0.320379,0.352417 v 8.48362 q 0,0.352416 -0.320379,0.352416 h -0.563866 q -0.448529,0 -0.640756,-0.320378 l -4.267441,-7.131624 h -0.02563 q 0.01282,0.256303 0.01282,0.512606 v 6.58698 q 0,0.352416 -0.320378,0.352416 z"
       style="font-family:'Istok Web';-inkscape-font-specification:'Istok Web'"
       id="path560" /><path
       d="m 94.959489,25.204953 q -0.352417,0 -0.352417,-0.28834 v -0.525421 q 0,-0.288341 0.352417,-0.288341 h 6.779211 q 0.35241,0 0.35241,0.288341 v 0.525421 q 0,0.28834 -0.35241,0.28834 h -2.774481 v 7.733935 q 0,0.352416 -0.320379,0.352416 h -0.589496 q -0.320378,0 -0.320378,-0.352416 v -7.733935 z"
       style="font-family:'Istok Web';-inkscape-font-specification:'Istok Web'"
       id="path562" /><path
       d="m 103.73145,33.291304 q -0.32038,0 -0.32038,-0.352416 v -8.48362 q 0,-0.352417 0.32038,-0.352417 h 0.5895 q 0.32037,0 0.32037,0.352417 v 8.48362 q 0,0.352416 -0.32037,0.352416 z"
       style="font-family:'Istok Web';-inkscape-font-specification:'Istok Web'"
       id="path564" /><path
       d="m 106.79427,32.599287 q -0.3396,-0.307563 -0.17942,-0.538236 l 0.3332,-0.480567 q 0.173,-0.249896 0.55746,0.03845 0.50619,0.378046 1.05084,0.621534 0.55105,0.243488 1.33277,0.243488 0.57668,0 0.97395,-0.173005 0.39727,-0.173004 0.63435,-0.493382 0.24349,-0.326786 0.24349,-0.788131 0,-0.333194 -0.10252,-0.615127 -0.0961,-0.28834 -0.31397,-0.480568 -0.21786,-0.192227 -0.45494,-0.301155 -0.39086,-0.179412 -1.17259,-0.416492 -0.77531,-0.23708 -1.3584,-0.512606 -0.57668,-0.275525 -0.92269,-0.666387 -0.3396,-0.390861 -0.45494,-0.800946 -0.10893,-0.416492 -0.10893,-0.94832 0,-0.813761 0.47416,-1.403257 0.47416,-0.589497 1.15977,-0.781724 0.69202,-0.192227 1.40326,-0.192227 0.81376,0 1.41607,0.21145 0.60232,0.21145 1.07648,0.551051 0.33319,0.23708 0.15378,0.49979 l -0.32679,0.467753 q -0.14737,0.21145 -0.57668,-0.08971 -0.32679,-0.230673 -0.80095,-0.429307 -0.46775,-0.205042 -0.92909,-0.205042 -0.5895,0 -0.98036,0.140966 -0.39086,0.134559 -0.61513,0.461345 -0.22426,0.326786 -0.22426,0.756093 0,0.269118 0.0513,0.49979 0.0513,0.224265 0.26271,0.461345 0.21145,0.23708 0.5126,0.365232 0.40368,0.173004 1.24948,0.410084 0.85221,0.230672 1.48656,0.570274 0.58949,0.31397 0.84579,0.659979 0.26271,0.339601 0.40368,0.743278 0.14738,0.397269 0.14738,0.89706 0,0.909874 -0.46776,1.518593 -0.46775,0.608719 -1.10851,0.845799 -0.64075,0.23708 -1.6083,0.23708 -1.15977,0 -1.92227,-0.269118 -0.7625,-0.269117 -1.14054,-0.615126 z"
       style="font-family:'Istok Web';-inkscape-font-specification:'Istok Web'"
       id="path566" /><path
       d="m 114.15656,25.204953 q -0.35241,0 -0.35241,-0.28834 v -0.525421 q 0,-0.288341 0.35241,-0.288341 h 6.77921 q 0.35242,0 0.35242,0.288341 v 0.525421 q 0,0.28834 -0.35242,0.28834 h -2.77448 v 7.733935 q 0,0.352416 -0.32037,0.352416 h -0.5895 q -0.32038,0 -0.32038,-0.352416 v -7.733935 z"
       style="font-family:'Istok Web';-inkscape-font-specification:'Istok Web'"
       id="path568" /><path
       d="m 56.80242,43.700254 q 0,-2.210611 1.140547,-3.511347 1.140548,-1.300737 3.255045,-1.300737 2.114498,0 3.255045,1.300737 1.140547,1.300736 1.140547,3.511347 0,2.210611 -1.140547,3.511348 -1.140547,1.300736 -3.255045,1.300736 -2.114497,0 -3.255045,-1.300736 -1.140547,-1.300737 -1.140547,-3.511348 z m 1.999162,0 q 0,1.601892 0.570273,2.454099 0.576681,0.845799 1.826157,0.845799 1.249476,0 1.81975,-0.845799 0.576681,-0.852207 0.576681,-2.454099 0,-1.601892 -0.576681,-2.447691 -0.570274,-0.852206 -1.81975,-0.852206 -1.249476,0 -1.826157,0.852206 -0.570273,0.845799 -0.570273,2.447691 z"
       style="font-weight:bold;font-family:'Istok Web';-inkscape-font-specification:'Istok Web Bold'"
       id="path570" /><path
       d="m 67.55432,48.294481 q -0.320378,0 -0.320378,-0.352417 v -8.48362 q 0,-0.352416 0.320378,-0.352416 h 5.222168 q 0.352417,0 0.352417,0.28834 v 0.47416 q 0,0.288341 -0.352417,0.288341 h -4.312293 v 3.037187 h 3.761242 q 0.352417,0 0.352417,0.288341 v 0.47416 q 0,0.28834 -0.352417,0.28834 h -3.761242 v 3.697167 q 0,0.352417 -0.320378,0.352417 z"
       style="font-family:'Istok Web';-inkscape-font-specification:'Istok Web'"
       id="path572" /><path
       d="m 75.025544,48.294481 q -0.320378,0 -0.320378,-0.352417 v -8.48362 q 0,-0.352416 0.320378,-0.352416 h 5.222168 q 0.352416,0 0.352416,0.28834 v 0.47416 q 0,0.288341 -0.352416,0.288341 h -4.312293 v 3.037187 h 3.761242 q 0.352417,0 0.352417,0.288341 v 0.47416 q 0,0.28834 -0.352417,0.28834 h -3.761242 v 3.697167 q 0,0.352417 -0.320379,0.352417 z"
       style="font-family:'Istok Web';-inkscape-font-specification:'Istok Web'"
       id="path574" /><path
       d="m 82.49677,48.294481 q -0.320379,0 -0.320379,-0.352417 v -8.48362 q 0,-0.352416 0.320379,-0.352416 h 0.589496 q 0.320378,0 0.320378,0.352416 v 8.48362 q 0,0.352417 -0.320378,0.352417 z"
       style="font-family:'Istok Web';-inkscape-font-specification:'Istok Web'"
       id="path576" /><path
       d="m 85.085428,43.700254 q 0,-2.242649 1.108509,-3.511347 1.114917,-1.275106 3.197377,-1.275106 1.217438,0 2.011976,0.416492 0.794539,0.410084 1.140547,1.127732 0.179412,0.371639 -0.05767,0.512605 l -0.506198,0.294748 q -0.256302,0.147374 -0.454937,-0.243487 -0.21145,-0.403677 -0.692017,-0.756093 -0.480568,-0.352417 -1.377628,-0.352417 -1.601892,0 -2.332354,0.999581 -0.724056,0.993173 -0.724056,2.787292 0,1.794119 0.724056,2.7937 0.730462,0.993173 2.332354,0.993173 0.92269,0 1.473741,-0.4229 0.557459,-0.422899 0.807354,-0.884244 0.198634,-0.371639 0.461345,-0.224265 l 0.531828,0.301156 q 0.230672,0.134559 0.03844,0.512605 -0.378046,0.736871 -1.230253,1.230253 -0.852206,0.486976 -2.146535,0.486976 -2.08246,0 -3.197377,-1.268699 -1.108509,-1.275106 -1.108509,-3.517755 z"
       style="font-family:'Istok Web';-inkscape-font-specification:'Istok Web'"
       id="path578" /><path
       d="m 94.889008,48.294481 q -0.320378,0 -0.320378,-0.352417 v -8.48362 q 0,-0.352416 0.320378,-0.352416 h 5.606622 q 0.35242,0 0.35242,0.28834 v 0.47416 q 0,0.288341 -0.35242,0.288341 h -4.696747 v 2.84496 h 4.312297 q 0.35241,0 0.35241,0.288341 v 0.47416 q 0,0.28834 -0.35241,0.28834 h -4.312297 v 3.190969 h 4.888977 q 0.35241,0 0.35241,0.288341 v 0.47416 q 0,0.288341 -0.35241,0.288341 z"
       style="font-family:'Istok Web';-inkscape-font-specification:'Istok Web'"
       id="path580" /></g><text
     xml:space="preserve"
     style="font-style:normal;font-variant:normal;font-weight:normal;font-stretch:normal;font-size:13.1227px;line-height:13.9975px;font-family:Arial;-inkscape-font-specification:Arial;display:none;fill:#214579;fill-opacity:1;stroke:none;stroke-width:1;stroke-linecap:round;paint-order:fill markers stroke;stop-color:#000000"
     x="56.251369"
     y="18.288128"
     id="text342-8"><tspan
       style="font-style:normal;font-variant:normal;font-weight:normal;font-stretch:normal;font-family:'Istok Web';-inkscape-font-specification:'Istok Web';stroke-width:1"
       sodipodi:role="line"
       id="tspan433-2"
       x="56.251369"
       y="18.288128"><tspan
   style="font-style:normal;font-variant:normal;font-weight:bold;font-stretch:normal;font-family:'Istok Web';-inkscape-font-specification:'Istok Web Bold';stroke-width:1"
   id="tspan437-1">C</tspan>HIEF</tspan><tspan
       style="font-style:normal;font-variant:normal;font-weight:normal;font-stretch:normal;font-family:'Istok Web';-inkscape-font-specification:'Istok Web';stroke-width:1"
       sodipodi:role="line"
       id="tspan435-3"
       x="56.251369"
       y="33.291306"><tspan
   style="font-style:normal;font-variant:normal;font-weight:bold;font-stretch:normal;font-family:'Istok Web';-inkscape-font-specification:'Istok Web Bold';stroke-width:1"
   id="tspan439-5">S</tspan>CIENTIST</tspan><tspan
       sodipodi:role="line"
       x="56.251369"
       y="48.294479"
       style="font-style:normal;font-variant:normal;font-weight:normal;font-stretch:normal;font-family:'Istok Web';-inkscape-font-specification:'Istok Web';stroke-width:1"
       id="tspan431-6"><tspan
   style="font-style:normal;font-variant:normal;font-weight:bold;font-stretch:normal;font-family:'Istok Web';-inkscape-font-specification:'Istok Web Bold';stroke-width:1"
   id="tspan441-5">O</tspan>FFICE</tspan></text></svg>
