<?xml version="1.0" encoding="UTF-8" standalone="no"?>
<!-- Created with Inkscape (http://www.inkscape.org/) -->

<svg
   width="100mm"
   height="24mm"
   viewBox="0 0 100 24"
   version="1.1"
   id="svg871"
   inkscape:version="1.2.2 (732a01da63, 2022-12-09)"
   sodipodi:docname="dhi-scotland.svg"
   xmlns:inkscape="http://www.inkscape.org/namespaces/inkscape"
   xmlns:sodipodi="http://sodipodi.sourceforge.net/DTD/sodipodi-0.dtd"
   xmlns="http://www.w3.org/2000/svg"
   xmlns:svg="http://www.w3.org/2000/svg">
  <sodipodi:namedview
     id="namedview873"
     pagecolor="#ffffff"
     bordercolor="#000000"
     borderopacity="0.25"
     inkscape:showpageshadow="2"
     inkscape:pageopacity="0.0"
     inkscape:pagecheckerboard="0"
     inkscape:deskcolor="#d1d1d1"
     inkscape:document-units="mm"
     showgrid="false"
     inkscape:zoom="0.78216891"
     inkscape:cx="-35.158646"
     inkscape:cy="148.94481"
     inkscape:window-width="1920"
     inkscape:window-height="1002"
     inkscape:window-x="2125"
     inkscape:window-y="-8"
     inkscape:window-maximized="1"
     inkscape:current-layer="layer1" />
  <defs
     id="defs868">
    <clipPath
       clipPathUnits="userSpaceOnUse"
       id="clipPath350">
      <path
         d="m 279.653,706.244 h 264.595 v 54.609 H 279.653 Z"
         id="path348" />
    </clipPath>
  </defs>
  <g
     inkscape:label="Layer 1"
     inkscape:groupmode="layer"
     id="layer1"
     transform="translate(-41.278295,-109.1001)">
    <g
       id="g344"
       transform="matrix(0.35277777,0,0,-0.35277777,-54.048709,379.87988)">
      <g
         id="g346"
         clip-path="url(#clipPath350)">
        <g
           id="g352"
           transform="translate(353.42099,750.87457)">
          <path
             d="m 0,0 h 2.14 c 4.03,0 6.341,-2.073 6.341,-5.689 0,-3.549 -2.273,-5.754 -5.934,-5.754 H 0 Z m 10.743,-5.251 c 0,4.274 -3.225,7.145 -8.024,7.145 C 1.654,1.894 0.322,1.847 -0.852,1.805 -1.295,1.789 -1.72,1.774 -2.109,1.762 L -2.197,1.759 v -15.071 l 0.088,-0.003 c 1.188,-0.04 2.833,-0.066 4.291,-0.066 5.281,0 8.561,3.116 8.561,8.13"
             style="fill:#ffffff;fill-opacity:1;fill-rule:nonzero;stroke:none"
             id="path354" />
        </g>
        <g
           id="g356"
           transform="translate(367.95511,753.68793)">
          <path
             d="m 0,0 c -0.736,0 -1.313,-0.579 -1.313,-1.319 0,-0.74 0.577,-1.319 1.313,-1.319 0.712,0 1.292,0.592 1.292,1.319 C 1.292,-0.579 0.725,0 0,0"
             style="fill:#ffffff;fill-opacity:1;fill-rule:nonzero;stroke:none"
             id="path358" />
        </g>
        <path
           d="m 366.857,737.56 h 2.09 v 11.091 h -2.09 z"
           style="fill:#ffffff;fill-opacity:1;fill-rule:nonzero;stroke:none"
           id="path360" />
        <g
           id="g362"
           transform="translate(375.93161,733.73743)">
          <path
             d="m 0,0 c -1.755,0 -2.889,0.798 -2.889,2.032 0,0.648 0.417,1.346 1.09,1.83 0.213,-0.029 1.362,-0.171 3.472,-0.171 1.073,0 1.689,-0.493 1.689,-1.353 C 3.362,1.204 2.184,0 0,0 m 0.065,13.524 c 1.356,0 2.268,-0.984 2.268,-2.448 0,-1.249 -0.978,-2.228 -2.225,-2.228 -1.369,0 -2.289,0.992 -2.289,2.469 0,1.237 0.986,2.207 2.246,2.207 M 2.23,5.541 H 0.086 c -1.266,0 -1.882,0.213 -1.882,0.652 0,0.209 0.349,0.672 0.817,1.085 0.144,-0.02 0.631,-0.083 0.894,-0.083 2.628,0 4.464,1.758 4.464,4.276 0,0.819 -0.378,1.627 -0.674,2.048 0.715,-0.167 2.34,-0.664 2.359,-0.67 l 0.117,-0.036 v 2.499 L 2.804,14.439 c -0.308,0.2 -1.259,0.738 -2.547,0.738 -2.93,0 -4.464,-2.074 -4.464,-4.123 0,-2.21 1.488,-3.125 1.993,-3.372 C -3.767,6.47 -3.95,5.99 -3.95,5.733 c 0,-0.685 0.477,-1.174 0.948,-1.425 -0.942,-0.487 -1.891,-1.502 -1.891,-2.715 0,-1.893 1.841,-3.268 4.379,-3.268 3.5,0 5.944,1.822 5.944,4.429 0,1.589 -1.375,2.787 -3.2,2.787"
             style="fill:#ffffff;fill-opacity:1;fill-rule:nonzero;stroke:none"
             id="path364" />
        </g>
        <g
           id="g366"
           transform="translate(384.8956,751.04993)">
          <path
             d="M 0,0 C 0.712,0 1.292,0.592 1.292,1.319 1.292,2.059 0.724,2.638 0,2.638 -0.748,2.638 -1.313,2.071 -1.313,1.319 -1.313,0.579 -0.736,0 0,0"
             style="fill:#ffffff;fill-opacity:1;fill-rule:nonzero;stroke:none"
             id="path368" />
        </g>
        <path
           d="m 383.797,737.56 h 2.09 v 11.091 h -2.09 z"
           style="fill:#ffffff;fill-opacity:1;fill-rule:nonzero;stroke:none"
           id="path370" />
        <g
           id="g372"
           transform="translate(389.35089,746.08362)">
          <path
             d="m 0,0 c 0,-1.307 -0.009,-3.057 -0.015,-4.333 -0.003,-0.733 -0.006,-1.31 -0.006,-1.558 0,-1.733 1.138,-2.852 2.899,-2.852 1.156,0 2.069,0.302 2.631,0.555 l 0.054,0.025 v 1.629 L 5.447,-6.568 c -0.588,-0.175 -1.183,-0.26 -1.818,-0.26 -1.079,0 -1.603,0.529 -1.603,1.616 0,1.689 0.018,5.386 0.021,6.017 H 5.435 V 2.567 H 2.047 V 4.67 H 1.68 L -0.943,1.722 V 0.805 H 0 Z"
             style="fill:#ffffff;fill-opacity:1;fill-rule:nonzero;stroke:none"
             id="path374" />
        </g>
        <g
           id="g376"
           transform="translate(399.6488,739.05908)">
          <path
             d="m 0,0 c -1.084,0 -1.732,0.538 -1.732,1.44 0,1.83 3.008,2.195 4.086,2.267 V 0.932 C 1.875,0.477 1.015,0 0,0 M 5.428,-1.474 5.489,-1.456 5.608,0.08 5.517,0.087 c -0.776,0.061 -1.138,0.47 -1.138,1.288 0,0.22 0.009,1.259 0.018,2.387 0.012,1.34 0.025,2.806 0.025,3.175 0,1.8 -1.144,2.918 -2.985,2.918 -1.626,0 -3.13,-0.493 -4.47,-1.463 l -0.045,-0.032 0.22,-1.667 0.12,0.079 c 1.217,0.799 2.562,1.277 3.595,1.277 0.937,0 1.497,-0.563 1.497,-1.506 V 5.273 C -3.18,4.976 -3.779,2.297 -3.779,1.156 c 0,-1.666 1.292,-2.875 3.071,-2.875 1.616,0 2.668,0.716 3.277,1.337 0.198,-0.82 0.797,-1.271 1.698,-1.271 0.403,0 0.864,0.093 1.161,0.179"
             style="fill:#ffffff;fill-opacity:1;fill-rule:nonzero;stroke:none"
             id="path378" />
        </g>
        <path
           d="m 409.625,754.849 h -2.09 V 737.56 h 2.09 z"
           style="fill:#ffffff;fill-opacity:1;fill-rule:nonzero;stroke:none"
           id="path380" />
        <g
           id="g382"
           transform="translate(428.0766,737.55981)">
          <path
             d="M 0,0 H 2.176 V 15.077 H 0 V 8.814 h -7.709 v 6.263 H -9.906 V 0 h 2.197 V 6.811 H 0 Z"
             style="fill:#ffffff;fill-opacity:1;fill-rule:nonzero;stroke:none"
             id="path384" />
        </g>
        <g
           id="g386"
           transform="translate(437.88239,747.19537)">
          <path
             d="M 0,0 C 1.422,0 2.422,-1.108 2.46,-2.705 H -2.574 C -2.353,-1.344 -1.414,0 0,0 m 4.032,-8.946 0.121,1.873 -0.138,-0.064 c -1.26,-0.585 -2.333,-0.846 -3.479,-0.846 -2.358,0 -3.223,1.931 -3.253,3.625 h 7.043 l 0.01,0.081 c 0.043,0.357 0.108,1.057 0.108,1.523 0,2.675 -1.682,4.472 -4.187,4.472 -2.91,0 -5.022,-2.507 -5.022,-5.961 0,-3.357 1.967,-5.612 4.894,-5.612 1.42,0 2.609,0.273 3.855,0.885 z"
             style="fill:#ffffff;fill-opacity:1;fill-rule:nonzero;stroke:none"
             id="path388" />
        </g>
        <g
           id="g390"
           transform="translate(447.48941,739.05908)">
          <path
             d="m 0,0 c -1.084,0 -1.732,0.538 -1.732,1.44 0,1.83 3.009,2.195 4.086,2.267 V 0.932 C 1.875,0.477 1.016,0 0,0 m 4.379,1.375 c 0,0.22 0.01,1.259 0.019,2.387 0.011,1.34 0.024,2.806 0.024,3.175 0,1.8 -1.144,2.918 -2.985,2.918 -1.626,0 -3.13,-0.493 -4.47,-1.463 l -0.045,-0.032 0.22,-1.667 0.12,0.079 c 1.217,0.799 2.562,1.277 3.595,1.277 0.937,0 1.497,-0.563 1.497,-1.506 V 5.273 C -3.179,4.976 -3.778,2.297 -3.778,1.156 c 0,-1.666 1.291,-2.875 3.07,-2.875 1.617,0 2.668,0.716 3.278,1.337 0.197,-0.82 0.796,-1.271 1.697,-1.271 0.404,0 0.865,0.093 1.161,0.179 L 5.489,-1.456 5.608,0.08 5.518,0.087 C 4.741,0.148 4.379,0.557 4.379,1.375"
             style="fill:#ffffff;fill-opacity:1;fill-rule:nonzero;stroke:none"
             id="path392" />
        </g>
        <path
           d="m 457.466,754.849 h -2.09 V 737.56 h 2.09 z"
           style="fill:#ffffff;fill-opacity:1;fill-rule:nonzero;stroke:none"
           id="path394" />
        <g
           id="g396"
           transform="translate(460.92969,746.08362)">
          <path
             d="m 0,0 c 0,-1.307 -0.008,-3.057 -0.015,-4.333 -0.003,-0.733 -0.006,-1.31 -0.006,-1.558 0,-1.733 1.138,-2.852 2.9,-2.852 1.155,0 2.068,0.302 2.631,0.555 l 0.054,0.025 v 1.629 L 5.447,-6.568 c -0.588,-0.175 -1.183,-0.26 -1.818,-0.26 -1.079,0 -1.603,0.529 -1.603,1.616 0,1.689 0.018,5.386 0.021,6.017 H 5.436 V 2.567 H 2.047 V 4.67 H 1.68 L -0.943,1.722 V 0.805 H 0 Z"
             style="fill:#ffffff;fill-opacity:1;fill-rule:nonzero;stroke:none"
             id="path398" />
        </g>
        <g
           id="g400"
           transform="translate(470.50369,746.36322)">
          <path
             d="m 0,0 c 0.626,0.426 1.51,0.679 2.375,0.679 1.523,0 2.396,-0.884 2.396,-2.426 v -7.056 h 2.09 v 7.779 c 0,2.071 -1.49,3.575 -3.543,3.575 C 1.717,2.551 0.545,1.748 0,1.282 V 8.486 H -2.09 V -8.803 H 0 Z"
             style="fill:#ffffff;fill-opacity:1;fill-rule:nonzero;stroke:none"
             id="path402" />
        </g>
        <g
           id="g404"
           transform="translate(489.04721,739.21222)">
          <path
             d="m 0,0 c -1.442,0 -2.932,1.079 -2.932,2.886 0,1.532 1.138,2.459 2.119,2.974 C 0.399,4.538 1.939,2.988 3.432,1.588 2.768,0.848 1.648,0 0,0 m 0.279,11.882 c 0.743,0 1.495,-0.495 1.495,-1.441 0,-1.066 -0.885,-1.944 -1.735,-2.425 -0.805,0.881 -1.213,1.682 -1.213,2.381 0,0.964 0.748,1.485 1.453,1.485 M 9.033,-0.255 C 8.575,0.042 7.092,1.215 6.057,2.096 6.69,3.203 7.317,5.171 7.317,6.871 V 6.964 H 5.269 V 6.871 C 5.269,5.699 4.954,4.218 4.541,3.423 3.536,4.288 1.966,5.855 1.129,6.784 c 1.84,1.109 2.735,2.378 2.735,3.876 0,1.93 -1.674,2.94 -3.328,2.94 -2.166,0 -3.8,-1.433 -3.8,-3.334 0,-1.022 0.456,-2.072 1.358,-3.123 -1.059,-0.528 -3.245,-1.933 -3.245,-4.52 0,-2.63 2.04,-4.539 4.85,-4.539 2.145,0 3.819,0.748 5.113,2.284 0.917,-0.802 2.137,-1.866 2.858,-2.334 L 7.737,-2.01 9.12,-0.312 Z"
             style="fill:#ffffff;fill-opacity:1;fill-rule:nonzero;stroke:none"
             id="path406" />
        </g>
        <g
           id="g408"
           transform="translate(510.7482,737.25293)">
          <path
             d="M 0,0 C 2.419,0 3.972,0.82 4.682,1.308 L 4.72,1.334 4.84,3.5 4.686,3.387 C 3.516,2.535 1.917,2.025 0.407,2.025 c -3.267,0 -5.462,2.33 -5.462,5.798 0,3.331 2.312,5.843 5.376,5.843 1.71,0 3.252,-0.531 4.019,-0.848 l 0.109,-0.044 0.259,2.027 -0.063,0.028 c -1.231,0.542 -2.571,0.818 -3.981,0.818 -4.698,0 -7.981,-3.316 -7.981,-8.064 C -7.317,2.345 -3.642,0 0,0"
             style="fill:#ffffff;fill-opacity:1;fill-rule:nonzero;stroke:none"
             id="path410" />
        </g>
        <g
           id="g412"
           transform="translate(520.3985,739.05908)">
          <path
             d="m 0,0 c -1.084,0 -1.732,0.538 -1.732,1.44 0,1.83 3.008,2.195 4.085,2.267 V 0.932 C 1.874,0.477 1.015,0 0,0 m 4.379,1.375 c 0,0.22 0.009,1.259 0.018,2.387 0.012,1.34 0.025,2.806 0.025,3.175 0,1.773 -1.172,2.918 -2.986,2.918 -1.626,0 -3.129,-0.493 -4.469,-1.463 l -0.045,-0.032 0.219,-1.667 0.12,0.079 c 1.218,0.799 2.562,1.277 3.596,1.277 0.937,0 1.496,-0.563 1.496,-1.506 V 5.273 C -3.18,4.976 -3.779,2.297 -3.779,1.156 c 0,-1.666 1.291,-2.875 3.071,-2.875 1.616,0 2.668,0.716 3.277,1.337 0.197,-0.82 0.796,-1.271 1.697,-1.271 0.404,0 0.865,0.093 1.162,0.179 L 5.489,-1.457 5.608,0.08 5.517,0.087 C 4.74,0.148 4.379,0.557 4.379,1.375"
             style="fill:#ffffff;fill-opacity:1;fill-rule:nonzero;stroke:none"
             id="path414" />
        </g>
        <g
           id="g416"
           transform="translate(532.66351,748.91388)">
          <path
             d="m 0,0 c -1.001,0 -1.935,-0.583 -2.536,-1.573 l 0.058,1.431 -2.008,-0.218 v -10.994 h 2.09 v 8.49 c 0.366,0.444 1,0.729 1.624,0.729 0.581,0 1.238,-0.171 1.803,-0.471 l 0.111,-0.059 0.342,2.208 0.01,0.065 -0.057,0.031 C 0.984,-0.118 0.514,0 0,0"
             style="fill:#ffffff;fill-opacity:1;fill-rule:nonzero;stroke:none"
             id="path418" />
        </g>
        <g
           id="g420"
           transform="translate(539.80402,747.19537)">
          <path
             d="M 0,0 C 1.422,0 2.423,-1.108 2.46,-2.705 H -2.574 C -2.352,-1.344 -1.414,0 0,0 m 0.258,1.718 c -2.911,0 -5.022,-2.507 -5.022,-5.961 0,-3.357 1.966,-5.612 4.893,-5.612 1.42,0 2.609,0.273 3.855,0.885 l 0.049,0.024 0.121,1.873 -0.138,-0.064 C 2.755,-7.722 1.683,-7.983 0.537,-7.983 c -2.359,0 -3.223,1.931 -3.253,3.625 h 7.042 l 0.01,0.081 c 0.044,0.357 0.108,1.057 0.108,1.523 0,2.675 -1.682,4.472 -4.186,4.472"
             style="fill:#ffffff;fill-opacity:1;fill-rule:nonzero;stroke:none"
             id="path422" />
        </g>
        <path
           d="m 351.224,712.008 h 2.197 v 15.076 h -2.197 z"
           style="fill:#ffffff;fill-opacity:1;fill-rule:nonzero;stroke:none"
           id="path424" />
        <g
           id="g426"
           transform="translate(362.55099,723.36139)">
          <path
             d="m 0,0 c -1.692,0 -2.928,-0.919 -3.443,-1.383 l 0.043,1.241 -2.008,-0.217 v -10.994 h 2.09 v 8.802 c 0.625,0.426 1.508,0.679 2.375,0.679 1.522,0 2.396,-0.884 2.396,-2.426 v -7.055 h 2.09 v 7.778 C 3.543,-1.503 2.053,0 0,0"
             style="fill:#ffffff;fill-opacity:1;fill-rule:nonzero;stroke:none"
             id="path428" />
        </g>
        <g
           id="g430"
           transform="translate(374.66669,723.36139)">
          <path
             d="m 0,0 c -1.693,0 -2.928,-0.919 -3.442,-1.383 l 0.041,1.241 -2.007,-0.217 v -10.994 h 2.09 v 8.802 c 0.626,0.426 1.509,0.679 2.375,0.679 1.522,0 2.396,-0.884 2.396,-2.426 v -7.055 h 2.09 v 7.778 C 3.543,-1.503 2.053,0 0,0"
             style="fill:#ffffff;fill-opacity:1;fill-rule:nonzero;stroke:none"
             id="path432" />
        </g>
        <g
           id="g434"
           transform="translate(385.6673,721.55548)">
          <path
             d="m 0,0 c 2.038,0 3.104,-2.058 3.104,-4.09 0,-2.256 -1.287,-3.893 -3.061,-3.893 -1.542,0 -3.104,1.413 -3.104,4.112 C -3.061,-1.628 -1.774,0 0,0 m 0.236,1.806 c -3.184,0 -5.408,-2.434 -5.408,-5.918 0,-3.277 2.094,-5.655 4.979,-5.655 3.184,0 5.408,2.433 5.408,5.918 0,3.277 -2.094,5.655 -4.979,5.655"
             style="fill:#ffffff;fill-opacity:1;fill-rule:nonzero;stroke:none"
             id="path436" />
        </g>
        <g
           id="g438"
           transform="translate(397.37589,716.51019)">
          <path
             d="m 0,0 c -0.196,-0.588 -0.376,-1.434 -0.477,-1.949 -0.111,0.519 -0.305,1.374 -0.488,1.951 L -3.282,6.527 -3.303,6.588 H -5.685 L -1.5,-4.553 -1.477,-4.612 h 1.69 L 4.374,6.462 4.42,6.588 H 2.23 Z"
             style="fill:#ffffff;fill-opacity:1;fill-rule:nonzero;stroke:none"
             id="path440" />
        </g>
        <g
           id="g442"
           transform="translate(406.42551,713.50708)">
          <path
             d="m 0,0 c -1.084,0 -1.732,0.538 -1.732,1.44 0,1.83 3.008,2.195 4.085,2.267 V 0.932 C 1.875,0.476 1.015,0 0,0 m 4.379,1.375 c 0,0.22 0.009,1.259 0.018,2.388 0.012,1.34 0.025,2.805 0.025,3.174 0,1.772 -1.173,2.917 -2.986,2.917 -1.625,0 -3.129,-0.491 -4.469,-1.462 l -0.045,-0.032 0.219,-1.668 0.12,0.079 c 1.218,0.8 2.563,1.277 3.596,1.277 0.937,0 1.496,-0.562 1.496,-1.505 V 5.273 C -3.18,4.975 -3.779,2.298 -3.779,1.155 c 0,-1.665 1.291,-2.874 3.071,-2.874 1.617,0 2.668,0.716 3.276,1.337 0.198,-0.82 0.797,-1.271 1.699,-1.271 0.403,0 0.864,0.093 1.161,0.179 L 5.489,-1.456 5.608,0.08 5.517,0.088 C 4.74,0.148 4.379,0.557 4.379,1.375"
             style="fill:#ffffff;fill-opacity:1;fill-rule:nonzero;stroke:none"
             id="path444" />
        </g>
        <g
           id="g446"
           transform="translate(417.94061,713.7038)">
          <path
             d="m 0,0 c -1.079,0 -1.603,0.528 -1.603,1.616 0,1.688 0.018,5.386 0.021,6.017 h 3.388 v 1.762 h -3.388 v 2.102 H -1.949 L -4.549,8.576 -4.572,8.55 V 7.633 h 0.943 V 6.828 C -3.629,5.521 -3.638,3.771 -3.644,2.495 -3.647,1.762 -3.65,1.184 -3.65,0.937 c 0,-1.733 1.138,-2.853 2.899,-2.853 1.155,0 2.068,0.302 2.632,0.556 l 0.053,0.025 V 0.293 L 1.818,0.26 C 1.23,0.085 0.635,0 0,0"
             style="fill:#ffffff;fill-opacity:1;fill-rule:nonzero;stroke:none"
             id="path448" />
        </g>
        <path
           d="m 421.859,712.008 h 2.09 v 11.091 h -2.09 z"
           style="fill:#ffffff;fill-opacity:1;fill-rule:nonzero;stroke:none"
           id="path450" />
        <g
           id="g452"
           transform="translate(422.95779,728.13562)">
          <path
             d="m 0,0 c -0.748,0 -1.313,-0.567 -1.313,-1.319 0,-0.74 0.577,-1.319 1.313,-1.319 0.713,0 1.292,0.592 1.292,1.319 C 1.292,-0.58 0.725,0 0,0"
             style="fill:#ffffff;fill-opacity:1;fill-rule:nonzero;stroke:none"
             id="path454" />
        </g>
        <g
           id="g456"
           transform="translate(431.5997,721.55548)">
          <path
             d="m 0,0 c 2.038,0 3.104,-2.058 3.104,-4.09 0,-2.256 -1.288,-3.893 -3.061,-3.893 -1.543,0 -3.104,1.413 -3.104,4.112 C -3.061,-1.628 -1.773,0 0,0 m 0.235,1.806 c -3.183,0 -5.408,-2.434 -5.408,-5.918 0,-3.277 2.094,-5.655 4.98,-5.655 3.184,0 5.408,2.433 5.408,5.918 0,3.277 -2.094,5.655 -4.98,5.655"
             style="fill:#ffffff;fill-opacity:1;fill-rule:nonzero;stroke:none"
             id="path458" />
        </g>
        <g
           id="g460"
           transform="translate(444.57269,723.36139)">
          <path
             d="m 0,0 c -1.693,0 -2.927,-0.919 -3.442,-1.383 l 0.042,1.241 -2.008,-0.217 v -10.994 h 2.09 v 8.802 c 0.626,0.426 1.509,0.679 2.375,0.679 1.522,0 2.396,-0.884 2.396,-2.426 v -7.055 h 2.09 v 7.778 C 3.543,-1.503 2.053,0 0,0"
             style="fill:#ffffff;fill-opacity:1;fill-rule:nonzero;stroke:none"
             id="path462" />
        </g>
        <g
           id="g464"
           transform="translate(463.07861,713.72583)">
          <path
             d="m 0,0 c -3.267,0 -5.463,2.33 -5.463,5.798 0,3.331 2.312,5.843 5.377,5.843 1.707,0 3.25,-0.532 4.018,-0.848 l 0.109,-0.045 0.26,2.028 -0.062,0.028 c -1.233,0.542 -2.572,0.818 -3.982,0.818 -4.698,0 -7.981,-3.317 -7.981,-8.064 0,-5.239 3.675,-7.583 7.316,-7.583 2.42,0 3.972,0.819 4.683,1.308 L 4.312,-0.692 4.432,1.475 4.278,1.362 C 3.109,0.509 1.51,0 0,0"
             style="fill:#ffffff;fill-opacity:1;fill-rule:nonzero;stroke:none"
             id="path466" />
        </g>
        <g
           id="g468"
           transform="translate(473.35049,721.64337)">
          <path
             d="M 0,0 C 1.422,0 2.422,-1.108 2.459,-2.706 H -2.575 C -2.353,-1.344 -1.414,0 0,0 m 0.258,1.718 c -2.911,0 -5.023,-2.508 -5.023,-5.962 0,-3.357 1.967,-5.611 4.894,-5.611 1.42,0 2.608,0.273 3.855,0.886 l 0.048,0.023 0.121,1.873 -0.138,-0.064 C 2.754,-7.723 1.681,-7.984 0.536,-7.984 c -2.359,0 -3.223,1.932 -3.253,3.626 h 7.043 l 0.01,0.081 c 0.043,0.357 0.107,1.057 0.107,1.522 0,2.675 -1.681,4.473 -4.185,4.473"
             style="fill:#ffffff;fill-opacity:1;fill-rule:nonzero;stroke:none"
             id="path470" />
        </g>
        <g
           id="g472"
           transform="translate(485.50931,723.36139)">
          <path
             d="m 0,0 c -1.692,0 -2.928,-0.919 -3.443,-1.383 l 0.043,1.241 -2.008,-0.217 v -10.994 h 2.09 v 8.802 c 0.625,0.426 1.508,0.679 2.375,0.679 1.522,0 2.396,-0.884 2.396,-2.426 v -7.055 h 2.09 v 7.778 C 3.543,-1.503 2.053,0 0,0"
             style="fill:#ffffff;fill-opacity:1;fill-rule:nonzero;stroke:none"
             id="path474" />
        </g>
        <g
           id="g476"
           transform="translate(495.95261,713.7038)">
          <path
             d="m 0,0 c -1.079,0 -1.603,0.528 -1.603,1.616 0,1.688 0.018,5.386 0.021,6.017 h 3.388 v 1.762 h -3.388 v 2.102 H -1.949 L -4.549,8.576 -4.572,8.55 V 7.633 h 0.943 V 6.828 C -3.629,5.521 -3.638,3.771 -3.644,2.495 -3.647,1.762 -3.65,1.184 -3.65,0.937 c 0,-1.733 1.138,-2.853 2.9,-2.853 1.154,0 2.067,0.302 2.631,0.556 l 0.053,0.025 V 0.293 L 1.818,0.26 C 1.23,0.085 0.635,0 0,0"
             style="fill:#ffffff;fill-opacity:1;fill-rule:nonzero;stroke:none"
             id="path478" />
        </g>
        <g
           id="g480"
           transform="translate(504.25131,723.36139)">
          <path
             d="m 0,0 c -1.002,0 -1.936,-0.584 -2.537,-1.574 l 0.059,1.432 -2.008,-0.217 v -10.994 h 2.09 v 8.49 c 0.366,0.443 1,0.728 1.624,0.728 0.581,0 1.238,-0.171 1.803,-0.471 l 0.111,-0.059 0.341,2.208 0.01,0.066 -0.057,0.03 C 0.984,-0.118 0.515,0 0,0"
             style="fill:#ffffff;fill-opacity:1;fill-rule:nonzero;stroke:none"
             id="path482" />
        </g>
        <g
           id="g484"
           transform="translate(508.8168,718.93793)">
          <path
             d="M 0,0 C 0.223,1.362 1.162,2.706 2.575,2.706 3.997,2.706 4.998,1.598 5.035,0 Z m 2.832,4.423 c -2.91,0 -5.022,-2.507 -5.022,-5.961 0,-3.357 1.967,-5.612 4.894,-5.612 1.419,0 2.608,0.273 3.855,0.886 L 6.607,-6.241 6.728,-4.368 6.59,-4.431 C 5.329,-5.017 4.256,-5.278 3.111,-5.278 c -2.358,0 -3.223,1.932 -3.254,3.625 H 6.9 l 0.01,0.081 c 0.042,0.338 0.108,1.05 0.108,1.523 0,2.675 -1.682,4.472 -4.186,4.472"
             style="fill:#ffffff;fill-opacity:1;fill-rule:nonzero;stroke:none"
             id="path486" />
        </g>
        <g
           id="g488"
           transform="translate(300.09091,726.45471)">
          <path
             d="m 0,0 c 1.512,0 2.742,1.257 2.742,2.801 v 17.061 c 0,4.927 3.843,8.935 8.566,8.935 4.722,0 8.565,-4.008 8.565,-8.935 0,-0.942 -0.14,-1.868 -0.414,-2.754 -0.221,-0.713 -0.157,-1.471 0.181,-2.137 0.338,-0.665 0.908,-1.155 1.604,-1.381 0.701,-0.225 1.442,-0.16 2.091,0.184 0.651,0.345 1.132,0.928 1.353,1.64 0.444,1.432 0.67,2.929 0.67,4.448 0,8.016 -6.303,14.537 -14.05,14.537 -7.747,0 -14.05,-6.521 -14.05,-14.537 V 2.801 C -2.742,1.257 -1.512,0 0,0"
             style="fill:#6250ac;fill-opacity:1;fill-rule:nonzero;stroke:none"
             id="path490" />
        </g>
        <g
           id="g492"
           transform="translate(324.29791,733.5788)">
          <path
             d="m 0,0 v 0 l -14.488,8.06 c -1.33,0.739 -2.998,0.236 -3.721,-1.12 -0.349,-0.656 -0.428,-1.413 -0.22,-2.131 0.207,-0.719 0.675,-1.312 1.317,-1.669 l 14.487,-8.06 c 4.186,-2.329 5.762,-7.766 3.511,-12.121 -1.09,-2.112 -2.906,-3.65 -5.113,-4.331 -2.169,-0.669 -4.461,-0.426 -6.458,0.685 -0.791,0.439 -1.506,1 -2.125,1.666 -0.504,0.542 -1.185,0.852 -1.917,0.871 l -0.085,10e-4 c -0.693,0 -1.363,-0.273 -1.876,-0.77 -0.53,-0.514 -0.833,-1.21 -0.852,-1.959 -0.019,-0.747 0.248,-1.458 0.752,-2.001 1.014,-1.09 2.185,-2.008 3.479,-2.729 3.248,-1.806 7.136,-2.217 10.669,-1.127 3.621,1.117 6.596,3.631 8.378,7.08 C 9.379,-12.604 6.806,-3.786 0,0"
             style="fill:#6a7d8a;fill-opacity:1;fill-rule:nonzero;stroke:none"
             id="path494" />
        </g>
        <g
           id="g496"
           transform="translate(316.35571,727.40778)">
          <path
             d="M 0,0 C -0.357,0.653 -0.942,1.124 -1.648,1.328 -2.355,1.533 -3.095,1.445 -3.732,1.081 L -18.134,-7.14 c -4.162,-2.373 -9.504,-0.834 -11.911,3.432 -1.168,2.068 -1.474,4.457 -0.862,6.726 0.604,2.23 2.029,4.082 4.012,5.215 0.784,0.449 1.63,0.768 2.514,0.948 0.718,0.147 1.338,0.57 1.744,1.191 0.407,0.623 0.552,1.37 0.409,2.104 -0.256,1.306 -1.387,2.254 -2.69,2.254 -0.18,0 -0.361,-0.019 -0.537,-0.055 -1.443,-0.294 -2.828,-0.816 -4.115,-1.551 -2.036,-1.162 -3.757,-2.823 -4.98,-4.804 -0.724,-1.174 -1.278,-2.457 -1.643,-3.811 -1.007,-3.725 -0.511,-7.637 1.395,-11.015 3.9,-6.908 12.576,-9.386 19.34,-5.524 l 14.401,8.218 C 0.263,-3.058 0.737,-1.348 0,0"
             style="fill:#e01593;fill-opacity:1;fill-rule:nonzero;stroke:none"
             id="path498" />
        </g>
      </g>
    </g>
  </g>
</svg>
