<?xml version="1.0" encoding="UTF-8" standalone="no"?>
<!-- Created with Inkscape (http://www.inkscape.org/) -->

<svg
   width="24mm"
   height="24mm"
   viewBox="0 0 24 24"
   version="1.1"
   id="svg871"
   inkscape:version="1.2.2 (732a01da63, 2022-12-09)"
   sodipodi:docname="dhi-scotland_sq.svg"
   xmlns:inkscape="http://www.inkscape.org/namespaces/inkscape"
   xmlns:sodipodi="http://sodipodi.sourceforge.net/DTD/sodipodi-0.dtd"
   xmlns="http://www.w3.org/2000/svg"
   xmlns:svg="http://www.w3.org/2000/svg">
  <sodipodi:namedview
     id="namedview873"
     pagecolor="#ffffff"
     bordercolor="#000000"
     borderopacity="0.25"
     inkscape:showpageshadow="2"
     inkscape:pageopacity="0.0"
     inkscape:pagecheckerboard="0"
     inkscape:deskcolor="#d1d1d1"
     inkscape:document-units="mm"
     showgrid="false"
     inkscape:zoom="2.4542479"
     inkscape:cx="88.621854"
     inkscape:cy="101.66047"
     inkscape:window-width="1920"
     inkscape:window-height="1002"
     inkscape:window-x="2125"
     inkscape:window-y="-8"
     inkscape:window-maximized="1"
     inkscape:current-layer="layer1" />
  <defs
     id="defs868">
    <clipPath
       clipPathUnits="userSpaceOnUse"
       id="clipPath350">
      <path
         d="m 279.653,706.244 h 264.595 v 54.609 H 279.653 Z"
         id="path348" />
    </clipPath>
  </defs>
  <g
     inkscape:label="Layer 1"
     inkscape:groupmode="layer"
     id="layer1"
     transform="translate(-41.278295,-109.1001)">
    <g
       id="g1965"
       transform="translate(-36.728438,-11.070542)">
      <g
         id="g488"
         transform="matrix(0.35277777,0,0,-0.35277777,88.038066,134.67347)">
        <path
           d="m 0,0 c 1.512,0 2.742,1.257 2.742,2.801 v 17.061 c 0,4.927 3.843,8.935 8.566,8.935 4.722,0 8.565,-4.008 8.565,-8.935 0,-0.942 -0.14,-1.868 -0.414,-2.754 -0.221,-0.713 -0.157,-1.471 0.181,-2.137 0.338,-0.665 0.908,-1.155 1.604,-1.381 0.701,-0.225 1.442,-0.16 2.091,0.184 0.651,0.345 1.132,0.928 1.353,1.64 0.444,1.432 0.67,2.929 0.67,4.448 0,8.016 -6.303,14.537 -14.05,14.537 -7.747,0 -14.05,-6.521 -14.05,-14.537 V 2.801 C -2.742,1.257 -1.512,0 0,0"
           style="fill:#6250ac;fill-opacity:1;fill-rule:nonzero;stroke:none"
           id="path490" />
      </g>
      <g
         id="g492"
         transform="matrix(0.35277777,0,0,-0.35277777,96.577758,132.16025)">
        <path
           d="m 0,0 v 0 l -14.488,8.06 c -1.33,0.739 -2.998,0.236 -3.721,-1.12 -0.349,-0.656 -0.428,-1.413 -0.22,-2.131 0.207,-0.719 0.675,-1.312 1.317,-1.669 l 14.487,-8.06 c 4.186,-2.329 5.762,-7.766 3.511,-12.121 -1.09,-2.112 -2.906,-3.65 -5.113,-4.331 -2.169,-0.669 -4.461,-0.426 -6.458,0.685 -0.791,0.439 -1.506,1 -2.125,1.666 -0.504,0.542 -1.185,0.852 -1.917,0.871 l -0.085,10e-4 c -0.693,0 -1.363,-0.273 -1.876,-0.77 -0.53,-0.514 -0.833,-1.21 -0.852,-1.959 -0.019,-0.747 0.248,-1.458 0.752,-2.001 1.014,-1.09 2.185,-2.008 3.479,-2.729 3.248,-1.806 7.136,-2.217 10.669,-1.127 3.621,1.117 6.596,3.631 8.378,7.08 C 9.379,-12.604 6.806,-3.786 0,0"
           style="fill:#6a7d8a;fill-opacity:1;fill-rule:nonzero;stroke:none"
           id="path494" />
      </g>
      <g
         id="g496"
         transform="matrix(0.35277777,0,0,-0.35277777,93.775926,134.33725)">
        <path
           d="M 0,0 C -0.357,0.653 -0.942,1.124 -1.648,1.328 -2.355,1.533 -3.095,1.445 -3.732,1.081 L -18.134,-7.14 c -4.162,-2.373 -9.504,-0.834 -11.911,3.432 -1.168,2.068 -1.474,4.457 -0.862,6.726 0.604,2.23 2.029,4.082 4.012,5.215 0.784,0.449 1.63,0.768 2.514,0.948 0.718,0.147 1.338,0.57 1.744,1.191 0.407,0.623 0.552,1.37 0.409,2.104 -0.256,1.306 -1.387,2.254 -2.69,2.254 -0.18,0 -0.361,-0.019 -0.537,-0.055 -1.443,-0.294 -2.828,-0.816 -4.115,-1.551 -2.036,-1.162 -3.757,-2.823 -4.98,-4.804 -0.724,-1.174 -1.278,-2.457 -1.643,-3.811 -1.007,-3.725 -0.511,-7.637 1.395,-11.015 3.9,-6.908 12.576,-9.386 19.34,-5.524 l 14.401,8.218 C 0.263,-3.058 0.737,-1.348 0,0"
           style="fill:#e01593;fill-opacity:1;fill-rule:nonzero;stroke:none"
           id="path498" />
      </g>
    </g>
  </g>
</svg>
