<svg width="168" height="58" viewBox="0 0 168 58" fill="none" xmlns="http://www.w3.org/2000/svg">
<path d="M42.0517 10.7622C42.5314 10.2805 43.1015 9.89817 43.7293 9.63732C44.3572 9.37647 45.0303 9.24219 45.7102 9.24219C46.3901 9.24219 47.0632 9.37647 47.691 9.63732C48.3189 9.89817 48.889 10.2805 49.3687 10.7622L63.9557 25.3587L56.6434 32.6803L42.0517 18.0839C41.5692 17.6041 41.1863 17.0337 40.9251 16.4055C40.6638 15.7772 40.5293 15.1035 40.5293 14.4231C40.5293 13.7427 40.6638 13.0689 40.9251 12.4407C41.1863 11.8124 41.5692 11.242 42.0517 10.7622Z" fill="#004BDB"/>
<path d="M33.5566 48.4496C33.0741 47.9698 32.6912 47.3994 32.4299 46.7711C32.1687 46.1429 32.0342 45.4692 32.0342 44.7887C32.0342 44.1083 32.1687 43.4346 32.4299 42.8064C32.6912 42.1781 33.0741 41.6077 33.5566 41.1279L47.5288 27.1416L54.8505 34.4633L40.9252 48.4496C39.9439 49.4189 38.6202 49.9625 37.2409 49.9625C35.8616 49.9625 34.5378 49.4189 33.5566 48.4496Z" fill="url(#paint0_linear_4145_20903)"/>
<path fill-rule="evenodd" clip-rule="evenodd" d="M61.2473 16.7226C61.4423 16.7226 61.6328 16.7804 61.7949 16.8887C61.957 16.997 62.0833 17.151 62.1579 17.3311C62.2325 17.5112 62.252 17.7093 62.214 17.9005C62.176 18.0917 62.0821 18.2673 61.9443 18.4052C61.8064 18.543 61.6308 18.6369 61.4396 18.6749C61.2484 18.7129 61.0502 18.6934 60.8702 18.6188C60.6901 18.5442 60.5361 18.4179 60.4278 18.2558C60.3195 18.0937 60.2617 17.9032 60.2617 17.7082C60.2617 17.4468 60.3656 17.1961 60.5504 17.0113C60.7352 16.8265 60.9859 16.7226 61.2473 16.7226ZM61.2473 13.8127C61.4423 13.8127 61.6328 13.8705 61.7949 13.9788C61.957 14.0871 62.0833 14.2411 62.1579 14.4212C62.2325 14.6013 62.252 14.7994 62.214 14.9906C62.176 15.1818 62.0821 15.3574 61.9443 15.4953C61.8064 15.6331 61.6308 15.727 61.4396 15.765C61.2484 15.803 61.0502 15.7835 60.8702 15.7089C60.6901 15.6343 60.5361 15.508 60.4278 15.3459C60.3195 15.1838 60.2617 14.9933 60.2617 14.7983C60.2617 14.5369 60.3656 14.2862 60.5504 14.1014C60.7352 13.9166 60.9859 13.8127 61.2473 13.8127ZM64.1525 19.5856C64.3477 19.5847 64.5387 19.6417 64.7014 19.7494C64.8641 19.8571 64.9911 20.0107 65.0665 20.1908C65.1418 20.3708 65.162 20.5691 65.1245 20.7606C65.087 20.9521 64.9935 21.1281 64.8558 21.2665C64.7182 21.4048 64.5426 21.4991 64.3512 21.5375C64.1599 21.5759 63.9615 21.5567 63.7811 21.4822C63.6008 21.4078 63.4466 21.2814 63.3381 21.1193C63.2295 20.9571 63.1716 20.7663 63.1716 20.5712C63.1649 20.4404 63.1857 20.3097 63.2325 20.1874C63.2794 20.0651 63.3514 19.9539 63.4437 19.8611C63.5361 19.7683 63.6469 19.6958 63.769 19.6484C63.8911 19.6009 64.0217 19.5795 64.1525 19.5856ZM64.1525 16.7226C64.3477 16.7217 64.5387 16.7787 64.7014 16.8864C64.8641 16.9942 64.9911 17.1478 65.0665 17.3278C65.1418 17.5078 65.162 17.7061 65.1245 17.8976C65.087 18.0891 64.9935 18.2652 64.8558 18.4035C64.7182 18.5418 64.5426 18.6361 64.3512 18.6745C64.1599 18.713 63.9615 18.6937 63.7811 18.6193C63.6008 18.5448 63.4466 18.4185 63.3381 18.2563C63.2295 18.0941 63.1716 17.9034 63.1716 17.7082C63.1649 17.5774 63.1857 17.4467 63.2325 17.3244C63.2794 17.2021 63.3514 17.091 63.4437 16.9981C63.5361 16.9053 63.6469 16.8328 63.769 16.7854C63.8911 16.7379 64.0217 16.7166 64.1525 16.7226ZM64.1525 13.8127C64.3477 13.8118 64.5387 13.8688 64.7014 13.9765C64.8641 14.0843 64.9911 14.2379 65.0665 14.4179C65.1418 14.5979 65.162 14.7962 65.1245 14.9877C65.087 15.1792 64.9935 15.3553 64.8558 15.4936C64.7182 15.6319 64.5426 15.7262 64.3512 15.7646C64.1599 15.8031 63.9615 15.7838 63.7811 15.7094C63.6008 15.6349 63.4466 15.5086 63.3381 15.3464C63.2295 15.1842 63.1716 14.9935 63.1716 14.7983C63.1649 14.6675 63.1857 14.5368 63.2325 14.4145C63.2794 14.2922 63.3514 14.1811 63.4437 14.0882C63.5361 13.9954 63.6469 13.9229 63.769 13.8755C63.8911 13.828 64.0217 13.8067 64.1525 13.8127ZM64.1525 10.9028C64.2828 10.8996 64.4125 10.9229 64.5335 10.9713C64.6545 11.0197 64.7645 11.0922 64.8566 11.1843C64.9488 11.2765 65.0213 11.3864 65.0697 11.5075C65.1181 11.6285 65.1414 11.7581 65.1381 11.8884C65.1414 12.0187 65.1181 12.1483 65.0697 12.2694C65.0213 12.3904 64.9488 12.5004 64.8566 12.5925C64.7645 12.6847 64.6545 12.7572 64.5335 12.8056C64.4125 12.854 64.2828 12.8773 64.1525 12.874C64.0217 12.8801 63.8911 12.8587 63.769 12.8113C63.6469 12.7638 63.5361 12.6914 63.4437 12.5985C63.3514 12.5057 63.2794 12.3946 63.2325 12.2723C63.1857 12.15 63.1649 12.0192 63.1716 11.8884C63.1649 11.7576 63.1857 11.6269 63.2325 11.5046C63.2794 11.3823 63.3514 11.2712 63.4437 11.1783C63.5361 11.0855 63.6469 11.013 63.769 10.9656C63.8911 10.9181 64.0217 10.8968 64.1525 10.9028ZM67.0155 19.5856C67.2104 19.5856 67.401 19.6434 67.5631 19.7517C67.7252 19.86 67.8515 20.0139 67.9261 20.194C68.0007 20.3741 68.0202 20.5723 67.9822 20.7635C67.9441 20.9547 67.8503 21.1303 67.7124 21.2681C67.5746 21.406 67.399 21.4998 67.2078 21.5379C67.0166 21.5759 66.8184 21.5564 66.6383 21.4818C66.4582 21.4072 66.3043 21.2809 66.196 21.1188C66.0877 20.9567 66.0299 20.7661 66.0299 20.5712C66.0311 20.3102 66.1354 20.0602 66.3199 19.8756C66.5045 19.6911 66.7545 19.5868 67.0155 19.5856ZM67.0155 16.7226C67.2104 16.7226 67.401 16.7804 67.5631 16.8887C67.7252 16.997 67.8515 17.151 67.9261 17.3311C68.0007 17.5112 68.0202 17.7093 67.9822 17.9005C67.9441 18.0917 67.8503 18.2673 67.7124 18.4052C67.5746 18.543 67.399 18.6369 67.2078 18.6749C67.0166 18.7129 66.8184 18.6934 66.6383 18.6188C66.4582 18.5442 66.3043 18.4179 66.196 18.2558C66.0877 18.0937 66.0299 17.9032 66.0299 17.7082C66.0311 17.4472 66.1354 17.1972 66.3199 17.0127C66.5045 16.8281 66.7545 16.7239 67.0155 16.7226ZM67.0155 13.8127C67.2104 13.8127 67.401 13.8705 67.5631 13.9788C67.7252 14.0871 67.8515 14.2411 67.9261 14.4212C68.0007 14.6013 68.0202 14.7994 67.9822 14.9906C67.9441 15.1818 67.8503 15.3574 67.7124 15.4953C67.5746 15.6331 67.399 15.727 67.2078 15.765C67.0166 15.803 66.8184 15.7835 66.6383 15.7089C66.4582 15.6343 66.3043 15.508 66.196 15.3459C66.0877 15.1838 66.0299 14.9933 66.0299 14.7983C66.0311 14.5373 66.1354 14.2873 66.3199 14.1028C66.5045 13.9182 66.7545 13.814 67.0155 13.8127ZM67.0155 10.9498C67.1458 10.9465 67.2754 10.9698 67.3965 11.0182C67.5175 11.0666 67.6274 11.1391 67.7196 11.2313C67.8118 11.3234 67.8843 11.4334 67.9326 11.5544C67.981 11.6754 68.0043 11.8051 68.0011 11.9354C68.0011 12.1968 67.8973 12.4475 67.7124 12.6323C67.5276 12.8171 67.2769 12.921 67.0155 12.921C66.7541 12.921 66.5034 12.8171 66.3186 12.6323C66.1337 12.4475 66.0299 12.1968 66.0299 11.9354C66.0231 11.8042 66.044 11.673 66.0912 11.5504C66.1383 11.4277 66.2107 11.3164 66.3036 11.2234C66.3965 11.1305 66.5079 11.0582 66.6305 11.011C66.7531 10.9639 66.8843 10.943 67.0155 10.9498ZM67.0155 8.03985C67.1458 8.03663 67.2754 8.05993 67.3965 8.10832C67.5175 8.15671 67.6274 8.22919 67.7196 8.32137C67.8118 8.41354 67.8843 8.52348 67.9326 8.64451C67.981 8.76555 68.0043 8.89515 68.0011 9.02547C68.0011 9.28687 67.8973 9.53756 67.7124 9.7224C67.5276 9.90724 67.2769 10.0111 67.0155 10.0111C66.7541 10.0111 66.5034 9.90724 66.3186 9.7224C66.1337 9.53756 66.0299 9.28687 66.0299 9.02547C66.0311 8.76445 66.1354 8.51447 66.3199 8.3299C66.5045 8.14533 66.7545 8.04109 67.0155 8.03985ZM69.9301 16.7226C70.125 16.7226 70.3156 16.7804 70.4777 16.8887C70.6398 16.997 70.7661 17.151 70.8407 17.3311C70.9153 17.5112 70.9348 17.7093 70.8968 17.9005C70.8587 18.0917 70.7649 18.2673 70.627 18.4052C70.4892 18.543 70.3136 18.6369 70.1224 18.6749C69.9312 18.7129 69.733 18.6934 69.5529 18.6188C69.3728 18.5442 69.2189 18.4179 69.1106 18.2558C69.0023 18.0937 68.9445 17.9032 68.9445 17.7082C68.9377 17.577 68.9586 17.4459 69.0058 17.3232C69.0529 17.2006 69.1253 17.0892 69.2182 16.9963C69.3111 16.9034 69.4225 16.831 69.5451 16.7839C69.6677 16.7368 69.7989 16.7159 69.9301 16.7226ZM69.9301 13.8127C70.125 13.8127 70.3156 13.8705 70.4777 13.9788C70.6398 14.0871 70.7661 14.2411 70.8407 14.4212C70.9153 14.6013 70.9348 14.7994 70.8968 14.9906C70.8587 15.1818 70.7649 15.3574 70.627 15.4953C70.4892 15.6331 70.3136 15.727 70.1224 15.765C69.9312 15.803 69.733 15.7835 69.5529 15.7089C69.3728 15.6343 69.2189 15.508 69.1106 15.3459C69.0023 15.1838 68.9445 14.9933 68.9445 14.7983C68.9377 14.6671 68.9586 14.536 69.0058 14.4133C69.0529 14.2907 69.1253 14.1793 69.2182 14.0864C69.3111 13.9935 69.4225 13.9211 69.5451 13.874C69.6677 13.8269 69.7989 13.806 69.9301 13.8127ZM69.9301 10.9498C70.1911 10.951 70.4411 11.0552 70.6257 11.2398C70.8102 11.4244 70.9145 11.6743 70.9157 11.9354C70.9157 12.1968 70.8119 12.4475 70.627 12.6323C70.4422 12.8171 70.1915 12.921 69.9301 12.921C69.6687 12.921 69.418 12.8171 69.2332 12.6323C69.0483 12.4475 68.9445 12.1968 68.9445 11.9354C68.9377 11.8042 68.9586 11.673 69.0058 11.5504C69.0529 11.4277 69.1253 11.3164 69.2182 11.2234C69.3111 11.1305 69.4225 11.0582 69.5451 11.011C69.6677 10.9639 69.7989 10.943 69.9301 10.9498ZM69.9301 8.03985C70.1911 8.04109 70.4411 8.14533 70.6257 8.3299C70.8102 8.51447 70.9145 8.76445 70.9157 9.02547C70.9157 9.28687 70.8119 9.53756 70.627 9.7224C70.4422 9.90724 70.1915 10.0111 69.9301 10.0111C69.6687 10.0111 69.418 9.90724 69.2332 9.7224C69.0483 9.53756 68.9445 9.28687 68.9445 9.02547C68.9377 8.89425 68.9586 8.76309 69.0058 8.64046C69.0529 8.51782 69.1253 8.40645 69.2182 8.31355C69.3111 8.22065 69.4225 8.14828 69.5451 8.10114C69.6677 8.05399 69.7989 8.03311 69.9301 8.03985ZM72.7931 13.8127C72.988 13.8127 73.1786 13.8705 73.3406 13.9788C73.5027 14.0871 73.6291 14.2411 73.7037 14.4212C73.7782 14.6013 73.7978 14.7994 73.7597 14.9906C73.7217 15.1818 73.6278 15.3574 73.49 15.4953C73.3522 15.6331 73.1765 15.727 72.9853 15.765C72.7942 15.803 72.596 15.7835 72.4159 15.7089C72.2358 15.6343 72.0819 15.508 71.9736 15.3459C71.8653 15.1838 71.8075 14.9933 71.8075 14.7983C71.8042 14.668 71.8275 14.5384 71.8759 14.4174C71.9243 14.2963 71.9968 14.1864 72.089 14.0942C72.1811 14.0021 72.2911 13.9296 72.4121 13.8812C72.5331 13.8328 72.6628 13.8095 72.7931 13.8127ZM72.7931 10.9028C72.9239 10.8968 73.0545 10.9181 73.1766 10.9656C73.2987 11.013 73.4095 11.0855 73.5019 11.1783C73.5942 11.2712 73.6662 11.3823 73.713 11.5046C73.7599 11.6269 73.7807 11.7576 73.774 11.8884C73.7833 12.0233 73.7648 12.1586 73.7196 12.286C73.6744 12.4133 73.6035 12.5301 73.5113 12.6289C73.4191 12.7277 73.3075 12.8065 73.1836 12.8603C73.0596 12.9142 72.9259 12.942 72.7907 12.942C72.6556 12.942 72.5218 12.9142 72.3979 12.8603C72.2739 12.8065 72.1624 12.7277 72.0702 12.6289C71.9779 12.5301 71.907 12.4133 71.8618 12.286C71.8166 12.1586 71.7981 12.0233 71.8075 11.8884C71.8087 11.6274 71.9129 11.3774 72.0975 11.1929C72.2821 11.0083 72.532 10.9041 72.7931 10.9028ZM72.7931 8.03985C72.9239 8.03379 73.0545 8.05517 73.1766 8.10262C73.2987 8.15007 73.4095 8.22254 73.5019 8.31537C73.5942 8.40819 73.6662 8.51933 73.713 8.64162C73.7599 8.76392 73.7807 8.89467 73.774 9.02547C73.7833 9.1603 73.7648 9.29562 73.7196 9.42299C73.6744 9.55037 73.6035 9.6671 73.5113 9.76591C73.4191 9.86472 73.3075 9.94351 73.1836 9.99738C73.0596 10.0513 72.9259 10.0791 72.7907 10.0791C72.6556 10.0791 72.5218 10.0513 72.3979 9.99738C72.2739 9.94351 72.1624 9.86472 72.0702 9.76591C71.9779 9.6671 71.907 9.55037 71.8618 9.42299C71.8166 9.29562 71.7981 9.1603 71.8075 9.02547C71.8042 8.89515 71.8275 8.76555 71.8759 8.64451C71.9243 8.52348 71.9968 8.41354 72.089 8.32137C72.1811 8.22919 72.2911 8.15671 72.4121 8.10832C72.5331 8.05993 72.6628 8.03663 72.7931 8.03985ZM75.6889 10.9498C75.8192 10.9465 75.9488 10.9698 76.0698 11.0182C76.1909 11.0666 76.3008 11.1391 76.393 11.2313C76.4852 11.3234 76.5576 11.4334 76.606 11.5544C76.6544 11.6754 76.6777 11.8051 76.6745 11.9354C76.6777 12.0657 76.6544 12.1953 76.606 12.3163C76.5576 12.4374 76.4852 12.5473 76.393 12.6395C76.3008 12.7316 76.1909 12.8041 76.0698 12.8525C75.9488 12.9009 75.8192 12.9242 75.6889 12.921C75.4166 12.9173 75.1566 12.8072 74.9645 12.6142C74.7724 12.4212 74.6635 12.1607 74.661 11.8884C74.6744 11.6282 74.7898 11.3838 74.9822 11.208C75.1746 11.0323 75.4285 10.9395 75.6889 10.9498ZM75.6889 8.03985C75.8192 8.03663 75.9488 8.05993 76.0698 8.10832C76.1909 8.15671 76.3008 8.22919 76.393 8.32137C76.4852 8.41354 76.5576 8.52348 76.606 8.64451C76.6544 8.76555 76.6777 8.89515 76.6745 9.02547C76.6777 9.15578 76.6544 9.28538 76.606 9.40642C76.5576 9.52745 76.4852 9.63739 76.393 9.72956C76.3008 9.82174 76.1909 9.89422 76.0698 9.94261C75.9488 9.991 75.8192 10.0143 75.6889 10.0111C75.5564 10.0148 75.4246 9.9922 75.3009 9.94452C75.1773 9.89684 75.0644 9.82506 74.9687 9.73334C74.8731 9.64163 74.7966 9.53182 74.7438 9.4103C74.691 9.28877 74.6628 9.15796 74.661 9.02547C74.6628 8.89297 74.691 8.76216 74.7438 8.64063C74.7966 8.51911 74.8731 8.4093 74.9687 8.31759C75.0644 8.22588 75.1773 8.15409 75.3009 8.10641C75.4246 8.05873 75.5564 8.03611 75.6889 8.03985ZM78.5565 8.03985C78.6869 8.03663 78.8165 8.05993 78.9375 8.10832C79.0585 8.15671 79.1685 8.22919 79.2606 8.32137C79.3528 8.41354 79.4253 8.52348 79.4737 8.64451C79.5221 8.76555 79.5454 8.89515 79.5422 9.02547C79.5422 9.28687 79.4383 9.53756 79.2535 9.7224C79.0686 9.90724 78.8179 10.0111 78.5565 10.0111C78.2951 10.0111 78.0444 9.90724 77.8596 9.7224C77.6748 9.53756 77.5709 9.28687 77.5709 9.02547C77.5641 8.89342 77.5852 8.76142 77.6329 8.6381C77.6806 8.51478 77.7538 8.40293 77.8478 8.30988C77.9417 8.21683 78.0542 8.14467 78.178 8.09814C78.3018 8.0516 78.434 8.03174 78.5659 8.03985H78.5565Z" fill="url(#paint1_linear_4145_20903)"/>
<path d="M63.9176 39.9545C64.8151 40.5711 65.8795 40.8986 66.9683 40.8932H79.5466L71.0985 32.4451C70.9131 32.1659 70.6737 31.9265 70.3945 31.7411L70.2068 31.5534L65.7903 27.1416L63.9552 28.972L61.1861 31.7411L58.417 34.5102L62.8288 38.922C63.102 39.2423 63.4002 39.5405 63.7205 39.8137" fill="url(#paint2_linear_4145_20903)"/>
<path d="M87.8916 23.0964V15.0801H89.1541V23.0588L87.8916 23.0964Z" fill="black"/>
<path d="M96.3394 23.096H95.1191V19.8341C95.1517 19.4173 95.0585 19.0004 94.8516 18.6373C94.7634 18.5149 94.6458 18.4168 94.5096 18.352C94.3734 18.2872 94.223 18.2578 94.0725 18.2665C93.8248 18.2687 93.5815 18.3315 93.3638 18.4495C93.1296 18.5678 92.9182 18.7267 92.7396 18.9189C92.5556 19.1205 92.4165 19.3589 92.3312 19.6182V23.0866H91.1016V17.2527H92.2186V18.4214C92.3668 18.1631 92.5646 17.9366 92.8006 17.7549C93.0436 17.563 93.3184 17.4153 93.6125 17.3184C93.9257 17.2138 94.2539 17.1615 94.5841 17.1635C94.8862 17.1515 95.1865 17.2161 95.457 17.3513C95.6871 17.4766 95.8762 17.6656 96.0015 17.8957C96.1345 18.1299 96.225 18.3857 96.269 18.6513C96.3181 18.9444 96.3416 19.2412 96.3394 19.5384V23.096Z" fill="black"/>
<path d="M103.347 23.0958H102.132V19.8339C102.164 19.4172 102.071 19.0003 101.864 18.6371C101.775 18.5147 101.656 18.4166 101.519 18.3519C101.383 18.2871 101.232 18.2577 101.08 18.2664C100.833 18.2686 100.589 18.3314 100.372 18.4494C100.138 18.5689 99.927 18.7276 99.7474 18.9187C99.5634 19.1204 99.4243 19.3587 99.339 19.618V23.0865H98.1094V17.2526H99.2264V18.4212C99.3746 18.1629 99.5724 17.9365 99.8084 17.7548C100.054 17.5638 100.33 17.4162 100.625 17.3183C100.938 17.2137 101.266 17.1614 101.597 17.1634C101.897 17.152 102.196 17.2165 102.465 17.3511C102.691 17.4779 102.877 17.6668 103 17.8956C103.133 18.1297 103.223 18.3855 103.267 18.6512C103.321 18.9517 103.348 19.2565 103.347 19.5617V23.0958Z" fill="black"/>
<path d="M107.735 23.2083C107.31 23.2161 106.888 23.1345 106.496 22.969C106.141 22.8152 105.822 22.5899 105.558 22.3072C105.293 22.028 105.086 21.6995 104.948 21.3404C104.806 20.9753 104.734 20.5868 104.736 20.1952C104.733 19.7974 104.805 19.4026 104.948 19.0312C105.086 18.6721 105.293 18.3436 105.558 18.0644C105.821 17.7809 106.141 17.5555 106.496 17.4026C106.887 17.2384 107.307 17.1569 107.731 17.1633C108.137 17.1518 108.541 17.2261 108.916 17.3814C109.291 17.5367 109.629 17.7694 109.909 18.0644C110.173 18.3436 110.381 18.6721 110.519 19.0312C110.663 19.4023 110.736 19.7971 110.735 20.1952C110.735 20.5871 110.662 20.9756 110.519 21.3404C110.38 21.6984 110.175 22.0266 109.913 22.3072C109.648 22.5886 109.329 22.8137 108.975 22.969C108.582 23.1329 108.161 23.2144 107.735 23.2083ZM105.994 20.1858C105.986 20.5366 106.067 20.8837 106.229 21.1949C106.372 21.4788 106.587 21.7201 106.853 21.8942C107.11 22.0664 107.412 22.1565 107.721 22.1523C108.039 22.1584 108.352 22.0684 108.618 21.8942C108.886 21.7162 109.101 21.4699 109.242 21.1808C109.399 20.871 109.479 20.5283 109.477 20.1811C109.481 19.8322 109.4 19.4876 109.242 19.1767C109.099 18.889 108.88 18.6456 108.608 18.4727C108.35 18.3012 108.046 18.2112 107.735 18.2146C107.421 18.2103 107.112 18.3038 106.853 18.4821C106.587 18.6626 106.373 18.9082 106.229 19.1955C106.068 19.5004 105.987 19.8412 105.994 20.1858Z" fill="black"/>
<path d="M116.921 16.9802C116.829 16.8785 116.723 16.79 116.606 16.7174C116.446 16.6145 116.277 16.528 116.099 16.4593C115.897 16.3736 115.688 16.3046 115.475 16.2527C115.248 16.1964 115.015 16.168 114.781 16.1683C114.371 16.1367 113.962 16.2406 113.617 16.4639C113.491 16.5564 113.391 16.6786 113.324 16.8195C113.258 16.9604 113.228 17.1157 113.236 17.2712C113.23 17.3814 113.246 17.4917 113.283 17.5957C113.32 17.6996 113.378 17.7951 113.452 17.8767C113.637 18.0486 113.861 18.1727 114.105 18.238C114.396 18.3319 114.762 18.4305 115.194 18.5337C115.677 18.6433 116.149 18.8005 116.602 19.0031C116.959 19.1586 117.27 19.4025 117.507 19.7118C117.735 20.056 117.846 20.4637 117.827 20.8757C117.834 21.2334 117.755 21.5877 117.597 21.9083C117.448 22.1953 117.23 22.4405 116.963 22.6217C116.677 22.8132 116.359 22.9515 116.024 23.03C115.656 23.122 115.278 23.1677 114.898 23.1661C114.502 23.1644 114.107 23.1203 113.72 23.0347C113.336 22.9487 112.962 22.8245 112.603 22.6639C112.254 22.5018 111.924 22.3036 111.617 22.0725L112.194 20.9884C112.318 21.1131 112.457 21.2219 112.607 21.3122C112.809 21.4394 113.019 21.5523 113.236 21.6501C113.492 21.7624 113.758 21.8519 114.03 21.9177C114.317 21.989 114.611 22.0253 114.907 22.0256C115.308 22.0448 115.706 21.9469 116.052 21.744C116.18 21.6627 116.284 21.5492 116.354 21.4149C116.424 21.2806 116.458 21.1303 116.451 20.979C116.456 20.8607 116.435 20.7428 116.389 20.6334C116.344 20.5241 116.275 20.4258 116.189 20.3454C115.972 20.1571 115.718 20.0178 115.442 19.9371C115.129 19.8244 114.74 19.7118 114.274 19.5991C113.824 19.4874 113.387 19.3302 112.969 19.1298C112.654 18.9868 112.383 18.7614 112.185 18.4774C112.002 18.1702 111.912 17.8163 111.927 17.4589C111.906 16.998 112.03 16.5421 112.283 16.1562C112.536 15.7702 112.904 15.4739 113.335 15.3094C113.8 15.121 114.298 15.0269 114.799 15.0325C115.465 15.0364 116.122 15.187 116.724 15.4736C116.987 15.6029 117.236 15.7602 117.465 15.943L116.921 16.9802Z" fill="black"/>
<path d="M121.877 23.2091C121.455 23.2151 121.036 23.1336 120.647 22.9698C120.292 22.8146 119.972 22.5877 119.709 22.3033C119.443 22.0191 119.233 21.6881 119.089 21.3271C118.945 20.9611 118.871 20.5708 118.873 20.1772C118.867 19.6493 118.993 19.1282 119.239 18.6613C119.479 18.2093 119.838 17.8312 120.277 17.5677C120.764 17.2918 121.317 17.1523 121.877 17.1641C122.423 17.15 122.963 17.2881 123.435 17.563C123.864 17.8115 124.209 18.1825 124.426 18.6284L123.219 18.9992C123.089 18.7622 122.896 18.5657 122.661 18.4313C122.417 18.2894 122.14 18.2164 121.858 18.2201C121.545 18.2167 121.237 18.303 120.971 18.4688C120.704 18.6391 120.487 18.8771 120.342 19.1588C120.187 19.4753 120.109 19.8246 120.117 20.1772C120.11 20.5273 120.189 20.8737 120.347 21.1863C120.496 21.4718 120.716 21.7143 120.985 21.8903C121.247 22.0627 121.554 22.1541 121.868 22.1531C122.067 22.1528 122.264 22.1162 122.45 22.0452C122.631 21.9764 122.8 21.8763 122.947 21.7495C123.076 21.6357 123.18 21.4967 123.252 21.3412L124.444 21.712C124.316 22.0045 124.125 22.2655 123.886 22.477C123.63 22.7098 123.332 22.8914 123.008 23.012C122.647 23.147 122.263 23.2138 121.877 23.2091Z" fill="black"/>
<path d="M128.377 23.2083C127.952 23.2161 127.53 23.1345 127.138 22.969C126.783 22.8152 126.463 22.5899 126.199 22.3072C125.935 22.028 125.727 21.6995 125.589 21.3404C125.448 20.9753 125.376 20.5868 125.378 20.1952C125.375 19.7974 125.447 19.4026 125.589 19.0312C125.727 18.6721 125.935 18.3436 126.199 18.0644C126.463 17.7809 126.783 17.5555 127.138 17.4026C127.529 17.2384 127.949 17.1569 128.372 17.1633C128.778 17.1518 129.182 17.2261 129.557 17.3814C129.933 17.5367 130.271 17.7694 130.55 18.0644C130.815 18.3436 131.022 18.6721 131.16 19.0312C131.303 19.4026 131.374 19.7974 131.371 20.1952C131.374 20.5868 131.302 20.9753 131.16 21.3404C131.022 21.6984 130.817 22.0266 130.555 22.3072C130.29 22.5886 129.97 22.8137 129.616 22.969C129.224 23.1329 128.802 23.2144 128.377 23.2083ZM126.636 20.1858C126.628 20.5366 126.708 20.8837 126.871 21.1949C127.013 21.4788 127.229 21.7201 127.495 21.8942C127.751 22.0664 128.054 22.1565 128.363 22.1523C128.681 22.1584 128.993 22.0684 129.259 21.8942C129.527 21.7162 129.743 21.4699 129.884 21.1808C130.04 20.871 130.121 20.5283 130.118 20.1811C130.123 19.8322 130.042 19.4876 129.884 19.1767C129.74 18.889 129.521 18.6456 129.25 18.4727C128.992 18.3012 128.687 18.2112 128.377 18.2146C128.062 18.2103 127.754 18.3038 127.495 18.4821C127.229 18.6626 127.014 18.9082 126.871 19.1955C126.71 19.5004 126.629 19.8412 126.636 20.1858Z" fill="black"/>
<path d="M135.966 22.8145C135.839 22.8759 135.709 22.9308 135.576 22.9788C135.402 23.046 135.223 23.1009 135.041 23.143C134.843 23.1888 134.639 23.2108 134.436 23.2087C134.194 23.2103 133.955 23.1641 133.732 23.0726C133.522 22.9815 133.342 22.8315 133.215 22.6408C133.076 22.4159 133.008 22.1543 133.018 21.8899V18.2103H132.239V17.2716H133.018V15.3145H134.248V17.2528H135.52V18.1915H134.248V21.4769C134.248 21.5608 134.266 21.6438 134.3 21.7205C134.334 21.7973 134.383 21.8661 134.445 21.9227C134.565 22.0224 134.717 22.0742 134.872 22.0682C135.042 22.068 135.211 22.0362 135.37 21.9744L135.698 21.8336L135.966 22.8145Z" fill="black"/>
<path d="M94.406 26.3438V34.3225H93.1529V30.8353H89.1588V34.3601H87.8916V26.3438H89.1541V29.6901H93.1482V26.3438H94.406Z" fill="black"/>
<path d="M98.5788 34.4723C98.1536 34.4792 97.7317 34.3977 97.3397 34.233C96.9873 34.0766 96.6686 33.8535 96.401 33.5759C95.8589 33.009 95.5592 32.253 95.5656 31.4686C95.5599 30.9345 95.6908 30.4078 95.9458 29.9385C96.1953 29.4818 96.5634 29.1008 97.0112 28.8356C97.4896 28.5579 98.035 28.4167 98.5881 28.4272C99.1478 28.4095 99.7005 28.5546 100.179 28.8449C100.615 29.1122 100.972 29.4915 101.212 29.9432C101.458 30.3899 101.586 30.8926 101.583 31.4028C101.587 31.4873 101.587 31.5719 101.583 31.6563C101.583 31.7314 101.583 31.7924 101.583 31.8393H96.8891C96.9173 32.1605 97.0202 32.4707 97.1895 32.7452C97.3488 32.9955 97.5683 33.202 97.8278 33.3459C98.0796 33.4888 98.3644 33.5632 98.6538 33.5618C98.9834 33.5644 99.3076 33.4785 99.5925 33.3131C99.8653 33.1757 100.079 32.9439 100.193 32.6607L101.24 32.9657C101.105 33.261 100.908 33.5237 100.663 33.7355C100.394 33.9689 100.086 34.1518 99.7521 34.2752C99.3769 34.4143 98.9788 34.4812 98.5788 34.4723ZM96.8094 31.0368H100.339C100.33 30.7243 100.246 30.4186 100.095 30.145C99.9398 29.8968 99.7231 29.693 99.4658 29.5537C99.2061 29.4094 98.9134 29.3351 98.6163 29.3378C98.3175 29.3327 98.0227 29.4072 97.7621 29.5537C97.5043 29.6941 97.2863 29.8975 97.1285 30.145C96.9465 30.4095 96.8365 30.7168 96.8094 31.0368Z" fill="black"/>
<path d="M102.155 32.6569C102.147 32.3054 102.258 31.9616 102.469 31.6807C102.699 31.3897 103.004 31.1673 103.352 31.0377C103.763 30.8773 104.201 30.7991 104.642 30.8077C104.908 30.8074 105.173 30.8278 105.435 30.8687C105.681 30.905 105.923 30.9632 106.158 31.0424V30.6763C106.167 30.5029 106.138 30.3296 106.075 30.1679C106.012 30.0061 105.916 29.8595 105.792 29.7376C105.497 29.4894 105.117 29.365 104.731 29.3903C104.411 29.3861 104.092 29.4435 103.793 29.5593C103.461 29.6914 103.146 29.8615 102.854 30.0661L102.45 29.2213C102.806 28.9773 103.192 28.783 103.6 28.644C104.002 28.5121 104.422 28.4456 104.844 28.4469C105.514 28.4074 106.173 28.6276 106.684 29.0618C106.914 29.2897 107.093 29.5642 107.209 29.8669C107.325 30.1696 107.375 30.4936 107.355 30.8171V32.9901C107.345 33.0959 107.372 33.2017 107.43 33.2905C107.464 33.3237 107.505 33.3496 107.549 33.3666C107.593 33.3835 107.641 33.3912 107.688 33.3891V34.3794C107.576 34.4028 107.477 34.4169 107.393 34.4263H107.177C106.957 34.4347 106.742 34.363 106.571 34.2245C106.439 34.1011 106.356 33.9346 106.337 33.7551L106.304 33.4172C106.053 33.7518 105.72 34.0155 105.337 34.1822C104.962 34.3558 104.554 34.4471 104.14 34.4498C103.778 34.4562 103.421 34.3741 103.098 34.2104C102.806 34.0616 102.559 33.8361 102.385 33.558C102.227 33.2844 102.147 32.9727 102.155 32.6569ZM105.872 33.0183C105.946 32.9238 106.015 32.8251 106.078 32.7226C106.126 32.6411 106.153 32.5493 106.158 32.4551V31.8027C105.946 31.719 105.726 31.6577 105.501 31.6197C105.28 31.579 105.055 31.5586 104.83 31.5586C104.446 31.5416 104.065 31.6344 103.732 31.8262C103.603 31.8987 103.497 32.0045 103.423 32.1326C103.35 32.2606 103.312 32.406 103.314 32.5536C103.317 32.72 103.366 32.8824 103.455 33.023C103.553 33.1808 103.69 33.3102 103.854 33.3984C104.052 33.5028 104.273 33.5545 104.497 33.5486C105.008 33.5482 105.499 33.3536 105.872 33.0042V33.0183Z" fill="black"/>
<path d="M108.885 26.1377H110.11V32.7084C110.085 32.908 110.133 33.1099 110.246 33.2763C110.335 33.3625 110.455 33.4097 110.579 33.4078C110.722 33.4075 110.864 33.3886 111.002 33.3514C111.138 33.3139 111.251 33.281 111.34 33.2482L111.518 34.2197C111.313 34.3015 111.101 34.3659 110.884 34.4121C110.667 34.4595 110.445 34.4847 110.223 34.4872C110.043 34.4981 109.863 34.4725 109.694 34.412C109.524 34.3515 109.369 34.2574 109.237 34.1352C109.115 34.002 109.021 33.8458 108.961 33.6757C108.9 33.5056 108.875 33.3251 108.885 33.1449V26.1377Z" fill="black"/>
<path d="M115.447 34.0791C115.32 34.1406 115.19 34.1954 115.057 34.2434C114.883 34.3106 114.704 34.3655 114.522 34.4077C114.326 34.4535 114.124 34.4755 113.922 34.4734C113.686 34.4681 113.453 34.4171 113.236 34.3232C113.025 34.2321 112.844 34.0823 112.715 33.8914C112.578 33.6659 112.511 33.4044 112.523 33.1405V29.4749H111.739V28.5362H112.523V26.5791H113.748V28.5175H115.02V29.4561H113.748V32.7415C113.745 32.8294 113.761 32.9169 113.795 32.9979C113.829 33.079 113.88 33.1516 113.945 33.2109C114.065 33.3105 114.217 33.3624 114.372 33.3564C114.542 33.3561 114.711 33.3243 114.87 33.2625L115.198 33.1217L115.447 34.0791Z" fill="black"/>
<path d="M121.534 34.3605H120.313V31.0986C120.344 30.6844 120.24 30.2713 120.018 29.9206C119.925 29.7921 119.802 29.689 119.659 29.6209C119.517 29.5528 119.359 29.5219 119.201 29.531C118.964 29.5327 118.732 29.594 118.525 29.7094C118.295 29.8249 118.089 29.9843 117.92 30.1787C117.743 30.3852 117.61 30.6244 117.526 30.8827V34.3511H116.296V26.1377H117.526V29.6859C117.743 29.2901 118.068 28.9645 118.464 28.7472C118.843 28.5253 119.274 28.4102 119.713 28.414C120.027 28.4002 120.34 28.4647 120.623 28.6017C120.849 28.7362 121.034 28.9292 121.158 29.1602C121.3 29.3907 121.399 29.6452 121.449 29.9112C121.509 30.2204 121.537 30.5349 121.534 30.8499V34.3605Z" fill="black"/>
<defs>
<linearGradient id="paint0_linear_4145_20903" x1="33.566" y1="48.459" x2="51.246" y2="30.779" gradientUnits="userSpaceOnUse">
<stop stop-color="#00BCFF"/>
<stop offset="0.83" stop-color="#004BDB"/>
</linearGradient>
<linearGradient id="paint1_linear_4145_20903" x1="76.1254" y1="5.71663" x2="58.7833" y2="23.054" gradientUnits="userSpaceOnUse">
<stop stop-color="#00BCFF"/>
<stop offset="0.83" stop-color="#004BDB"/>
</linearGradient>
<linearGradient id="paint2_linear_4145_20903" x1="74.5482" y1="42.9771" x2="59.4026" y2="28.2868" gradientUnits="userSpaceOnUse">
<stop stop-color="#00BCFF"/>
<stop offset="0.83" stop-color="#004BDB"/>
</linearGradient>
</defs>
</svg>
