<svg height="316.227766" viewBox="0 0 100 100" width="316.227766" xmlns="http://www.w3.org/2000/svg" xmlns:xlink="http://www.w3.org/1999/xlink"><clipPath id="a"><path d="m0 0h595.276v841.89h-595.276z"/></clipPath><clipPath id="b"><path d="m253.984 226.89h87.307v90h-87.307z"/></clipPath><g clip-path="url(#a)" transform="matrix(1.25 0 0 -1.25 -341.02803 408.88874)"><g clip-path="url(#b)" fill="#d72356" transform="matrix(1.5958016 0 0 1.5958016 -162.15389 -146.75616)"><path d="m306.841 260.855c-1.584.796-4.98 2.593-9.23 2.589-4.249-.003-7.384-1.798-8.97-2.592 0 0 3.352 3.308 8.969 3.308s9.231-3.305 9.231-3.305m-9.231 1.649c-5.617 0-8.969-2.693-8.969-2.693 1.586.793 4.721 1.971 8.97 1.975 4.25.004 7.646-1.176 9.23-1.973 0 0-3.614 2.691-9.231 2.691m-14.666 7.537c.097.171.236.476.384.871-.41-.243-.794-.52-1.155-.826.269-.024.526-.038.771-.045m-5.026 7.327c-1.198-1.312-2.033-3.042-2.503-4.947-.18.051-.35.108-.508.173.509 2.033 1.411 3.871 2.716 5.256.095-.164.193-.325.295-.482m-1.328 3.317c-1.563-1.608-2.585-3.936-3.24-6.707-.137.259-.245.545-.331.857.751 2.767 1.866 5.051 3.564 6.602-.023-.245-.019-.497.007-.752m.77-2.358c-1.302-1.478-2.163-3.454-2.713-5.613-.172.089-.331.187-.475.295.606 2.269 1.525 4.326 2.934 5.851.079-.18.164-.357.254-.533m-.471 1.084c-1.422-1.577-2.353-3.755-2.917-6.237-.163.148-.303.311-.428.49.636 2.551 1.635 4.762 3.164 6.349.048-.201.11-.401.181-.602m7.711 3.821c.129-.205.238-.414.337-.683-2.081.75-4.433.656-6.404-.403.073.251.194.542.318.76 1.775.776 3.781.893 5.749.326m-8.315-1.31c-1.675-1.597-2.78-3.95-3.376-6.616-.018.096-.035.194-.05.294-.155 1.018.205 2.245.657 3.228.669 1.451 1.787 2.867 2.769 3.094m7.987 1.742c-1.553.51-3.142.563-4.611.171.53.407 1.227.672 2.098.745.975.08 1.869-.207 2.513-.916m-.15-8.114c-.758-.136-1.489-.384-2.174-.747-1.48-.782-2.667-2.086-3.474-3.655-.158.094-.309.194-.452.303.856 1.642 2.109 3.009 3.67 3.835.745.394 1.537.662 2.356.808.034-.178.058-.359.074-.544m-.065-1.79c-.028-.205-.061-.408-.1-.608-.358-.123-.706-.274-1.045-.453-1.041-.548-1.921-1.344-2.627-2.288-.186.05-.369.106-.55.167.771 1.078 1.752 1.986 2.922 2.605v-.001c.451.239.919.431 1.4.578m.087 1.204c-.001-.189-.007-.377-.021-.567-.585-.145-1.153-.36-1.693-.645-1.285-.678-2.34-1.748-3.118-3.018-.169.069-.335.144-.496.225.83 1.379 1.967 2.541 3.359 3.275.626.332 1.287.574 1.969.73m-2.685-4.793c-.211.031-.423.068-.636.113.671.757 1.688 1.634 2.977 2.152-.064-.251-.108-.407-.187-.678-.78-.377-1.552-.961-2.154-1.587m-4.34 2.229c-.127.194-.233.403-.32.627.521 1.152 1.223 2.182 2.087 3.019.12-.145.239-.283.357-.412-.907-.882-1.623-1.992-2.124-3.234m-.464 1.097c-.071.315-.099.658-.085 1.028.439.896.994 1.701 1.657 2.385.105-.15.212-.297.322-.438-.795-.834-1.434-1.85-1.894-2.975m1.089-1.817c-.145.131-.28.271-.403.42.565 1.208 1.335 2.282 2.282 3.128.139-.141.272-.267.397-.379-.959-.845-1.727-1.935-2.276-3.169m7.56 8.951c-1.995.549-4.025.354-5.767-.566-.36-.191-.698-.408-1.016-.65-.032.203-.058.408-.082.616.268.188.548.361.842.516 1.812.957 3.909 1.183 5.978.661.023-.191.039-.384.045-.577m-.1.938c-2.115.685-4.295.527-6.149-.452-.234-.124-.459-.26-.676-.407-.01.225-.006.443.012.656.135.081.27.16.409.233 1.894 1.001 4.099 1.204 6.258.587.06-.202.109-.407.146-.617m.012-2.272c-.03-.184-.068-.363-.113-.536-1.609.209-3.198-.06-4.602-.801-.478-.253-.922-.56-1.334-.909-.074.186-.138.364-.198.541.397.323.823.607 1.278.851 1.517.801 3.236 1.088 4.969.854m-.255-.983c-.069-.191-.151-.371-.249-.555-.187.289-.406.454-.622.554.288.014.58.015.871.001m.345 1.94c-.003-.186-.014-.37-.032-.552-1.828.385-3.662.152-5.255-.691-.441-.232-.852-.508-1.235-.822-.055.196-.103.389-.145.582.352.27.728.513 1.125.723 1.684.89 3.616 1.148 5.542.76m-1.961-2.566c-1.332-.206-2.628-.778-3.704-1.692-.085.173-.166.343-.24.508.893.734 2.043 1.356 3.444 1.649.191-.136.357-.293.5-.465m.563-1.041c-1.408-.202-2.672-.777-3.73-1.661-.095.167-.183.328-.268.487 1.106.901 2.405 1.471 3.782 1.693.085-.165.157-.339.216-.519m29.194-6.561c-.36.306-.746.583-1.156.826.149-.395.288-.7.386-.871.244.007.502.021.77.045m4.551 7.764c1.305-1.385 2.207-3.223 2.715-5.256-.157-.065-.328-.122-.508-.173-.469 1.905-1.304 3.635-2.503 4.947.102.157.201.318.296.482m1.04 3.587c1.696-1.551 2.812-3.835 3.563-6.602-.086-.312-.194-.598-.331-.857-.654 2.771-1.676 5.099-3.24 6.707.025.255.032.507.008.752m-.524-2.577c1.41-1.525 2.329-3.582 2.934-5.851-.143-.108-.301-.206-.475-.295-.55 2.159-1.411 4.135-2.712 5.613.09.176.175.353.253.533m.398 1.153c1.529-1.587 2.528-3.798 3.164-6.349-.125-.179-.266-.342-.429-.49-.563 2.482-1.494 4.66-2.915 6.237.071.201.132.401.18.602m-2.143 2.893c.124-.218.245-.509.317-.76-1.97 1.059-4.322 1.153-6.404.403.101.269.21.478.339.683 1.967.567 3.973.45 5.748-.326m5.335-4.078c.453-.983.812-2.21.657-3.228-.015-.1-.032-.198-.05-.294-.596 2.666-1.701 5.019-3.375 6.616.98-.227 2.1-1.643 2.768-3.094m-8.244 5.752c.872-.073 1.57-.338 2.099-.745-1.469.392-3.057.339-4.612-.171.646.709 1.539.996 2.513.916m-2.288-8.486c.819-.146 1.612-.414 2.356-.808 1.562-.826 2.814-2.193 3.67-3.835-.144-.109-.295-.209-.452-.303-.807 1.569-1.993 2.873-3.474 3.655-.686.363-1.417.611-2.172.747.015.185.039.366.072.544m1.391-2.912v.001c1.171-.619 2.151-1.527 2.923-2.605-.182-.061-.365-.117-.551-.167-.705.944-1.586 1.74-2.627 2.288-.337.179-.688.33-1.046.453-.038.2-.071.403-.099.608.481-.147.95-.339 1.4-.578m.481 1.052c1.392-.734 2.53-1.896 3.36-3.275-.161-.081-.326-.156-.495-.225-.779 1.27-1.834 2.34-3.12 3.018-.54.285-1.107.5-1.692.645-.014.19-.02.378-.021.567.682-.156 1.343-.398 1.968-.73m-1.437-2.476c-.079.271-.124.427-.186.678 1.289-.518 2.305-1.395 2.975-2.152-.212-.045-.425-.082-.634-.113-.603.626-1.375 1.21-2.155 1.587m4.37 3.876c.118.129.237.267.356.412.865-.837 1.568-1.867 2.087-3.019-.085-.224-.191-.433-.318-.627-.502 1.242-1.219 2.352-2.125 3.234m.695.838c.108.141.216.288.322.438.663-.684 1.218-1.489 1.657-2.385.014-.37-.015-.713-.085-1.028-.461 1.125-1.099 2.141-1.894 2.975m-1.471-1.623c.124.112.257.238.395.379.948-.846 1.718-1.92 2.284-3.128-.123-.149-.258-.289-.404-.42-.549 1.234-1.317 2.324-2.275 3.169m-5.24 6.359c2.069.522 4.167.296 5.978-.661.294-.155.574-.328.841-.516-.023-.208-.05-.413-.081-.616-.318.242-.656.459-1.016.65-1.742.92-3.772 1.115-5.768.566.007.193.023.386.046.577m.201.978c2.159.617 4.366.414 6.258-.587.14-.073.276-.152.409-.233.018-.213.023-.431.012-.656-.217.147-.441.283-.676.407-1.853.979-4.032 1.137-6.15.452.038.21.087.415.147.617m4.813-3.743c.454-.244.879-.528 1.277-.851-.061-.177-.126-.355-.199-.541-.412.349-.856.656-1.333.909-1.405.741-2.994 1.01-4.603.801-.045.173-.082.352-.113.536 1.734.234 3.453-.053 4.971-.854m-3.845-.13c-.216-.1-.436-.265-.622-.554-.097.184-.18.364-.249.555.291.014.582.013.871-.001m4.326 1.181c.398-.21.771-.453 1.124-.723-.041-.193-.09-.386-.144-.582-.383.314-.795.59-1.234.822-1.595.843-3.428 1.076-5.256.691-.017.182-.028.366-.031.552 1.925.388 3.858.13 5.541-.76m-3.081-1.341c1.401-.293 2.551-.915 3.444-1.649-.074-.165-.153-.335-.241-.508-1.075.914-2.371 1.486-3.703 1.692.143.172.309.329.5.465m-.846-.987c1.376-.222 2.676-.792 3.782-1.693-.085-.159-.174-.32-.268-.487-1.059.884-2.323 1.459-3.731 1.661.06.18.13.354.217.519m-19.221 5.414c-.007-.004-.015-.005-.023-.009-.002.013-.003.024-.004.037.008-.009.018-.018.027-.028m10.587.028c-.007-.009-.017-.018-.027-.028.008-.004.016-.005.023-.009.002.013.003.024.004.037m-16.675-.623c-.074.256-.155.503-.241.741.182.194.369.381.561.565.175-.126.351-.267.526-.424-.295-.282-.577-.577-.846-.882m.058 1.484c-.139-.148-.275-.299-.409-.453-.093.24-.192.468-.296.684.029.032.059.063.088.094.205-.085.41-.195.617-.325m.222-2.582c-.057.264-.12.523-.188.775.329.329.675.643 1.035.943.153-.151.307-.312.46-.485-.462-.386-.898-.797-1.307-1.233m.213-1.185c-.041.275-.086.545-.136.809.477.455.983.881 1.519 1.274.137-.167.273-.341.409-.523-.641-.473-1.241-.995-1.792-1.56m2.45.61c-.836-.549-1.608-1.178-2.307-1.873-.022.285-.052.568-.086.848.626.575 1.303 1.103 2.024 1.574.124-.176.247-.36.369-.549m3.21 1.602c-.037.227-.061.414-.088.657.008.004.016.005.023.009.152-.168.326-.339.517-.512-.151-.049-.302-.1-.452-.154m.131-.677c.321.106.647.204.976.289.219-.166.451-.332.697-.496-.52-.118-1.028-.261-1.525-.429-.037.141-.072.281-.102.422-.017.076-.032.147-.046.214m-2.721-1.948c-1.048-.619-2.01-1.357-2.861-2.195-.005.3-.016.597-.034.892.781.704 1.639 1.331 2.56 1.872.112-.185.223-.375.335-.569m7.805-11.31c.875 0 1.731-.07 2.563-.201-.018-.216-.035-.432-.051-.644-.816.131-1.654.203-2.512.203-.857 0-1.695-.072-2.511-.203-.016.212-.033.428-.051.644.832.131 1.687.201 2.562.201m-3.509-1.041c-1.918-.444-3.687-1.244-5.232-2.321-.085.201-.175.407-.271.616 1.594 1.084 3.41 1.889 5.374 2.338.044-.209.087-.421.129-.633m7.148.633c1.964-.449 3.779-1.254 5.374-2.338-.096-.209-.187-.415-.271-.616-1.546 1.077-3.314 1.877-5.233 2.321.042.212.085.424.13.633m-1.179-1.189c-.015-.218-.029-.433-.04-.645-.787.123-1.594.187-2.42.187-.824 0-1.632-.064-2.418-.187-.013.212-.026.427-.04.645.799.121 1.621.184 2.458.184.838 0 1.659-.063 2.46-.184m-5.832-.166c.039-.21.076-.422.112-.636-1.836-.392-3.54-1.109-5.048-2.086-.07.204-.149.416-.235.634 1.552.976 3.296 1.693 5.171 2.088m6.744 0c1.876-.395 3.62-1.112 5.171-2.088-.085-.218-.165-.43-.234-.634-1.509.977-3.212 1.694-5.049 2.086.036.214.073.426.112.636m8.237 16.51c-.086-.238-.166-.485-.242-.741-.268.305-.549.6-.844.882.175.157.351.298.526.424.193-.184.379-.371.56-.565m.109.29c-.132.154-.268.305-.407.453.207.13.412.24.616.325.029-.031.06-.062.088-.094-.104-.216-.203-.444-.297-.684m-.442-1.354c-.068-.252-.131-.511-.188-.775-.408.436-.846.847-1.308 1.233.154.173.308.334.462.485.36-.3.706-.614 1.034-.943m-1.784.123c.536-.393 1.044-.819 1.519-1.274-.05-.264-.096-.534-.135-.809-.552.565-1.151 1.087-1.793 1.56.136.182.273.356.409.523m-4.277.129c-.148.054-.3.105-.452.154.191.173.365.344.517.512.008-.004.016-.005.023-.009-.027-.243-.049-.43-.088-.657m3.58-1.053c.72-.471 1.398-.999 2.025-1.574-.036-.28-.064-.563-.088-.848-.698.695-1.472 1.324-2.307 1.873.122.189.246.373.37.549m-.654-1.003c.921-.541 1.779-1.168 2.559-1.872-.017-.295-.028-.592-.032-.892-.853.838-1.813 1.576-2.863 2.195.111.194.224.384.336.569m-3.204.743c-.497.168-1.006.311-1.525.429.245.164.477.33.696.496.33-.085.656-.183.976-.289-.013-.067-.028-.138-.045-.214-.031-.141-.065-.281-.102-.422m-3.457-.669c.343.166.676.341.996.524.778-.12 1.535-.296 2.269-.521-.062-.205-.126-.41-.19-.618-.984.304-2.013.512-3.075.615m6.049-1.144c1.142-.601 2.195-1.337 3.137-2.18.002-.316.013-.633.03-.949-1.015 1.002-2.183 1.864-3.471 2.549.101.198.203.391.304.58m-18.224-3.129c.018.316.027.633.03.949.941.843 1.994 1.579 3.136 2.18.102-.189.203-.382.304-.58-1.287-.685-2.456-1.547-3.47-2.549m5.95 4.276c.734.225 1.492.401 2.269.521.321-.183.654-.358.996-.524-1.062-.103-2.09-.311-3.074-.615-.064.208-.129.413-.191.618m-6.101-5.83c.049.344.087.692.115 1.04 1.113 1.012 2.38 1.868 3.77 2.533.093-.195.185-.392.278-.592-1.569-.756-2.975-1.769-4.163-2.981m10.846 5.136c1.517 0 2.979-.206 4.362-.59-.013-.041-.024-.083-.035-.125-.044-.168-.086-.335-.128-.502-1.329.372-2.738.575-4.199.575-1.46 0-2.868-.203-4.199-.575-.042.167-.083.334-.128.502-.011.042-.022.084-.034.125 1.382.384 2.845.59 4.361.59m6.961-1.563c1.39-.665 2.658-1.521 3.77-2.533.029-.348.067-.696.115-1.04-1.187 1.212-2.594 2.225-4.162 2.981.092.2.184.397.277.592m-18.147-5.34c.101.399.186.805.256 1.217 1.299 1.222 2.82 2.228 4.504 2.958.086-.197.17-.397.255-.599-1.931-.843-3.638-2.069-5.015-3.576m11.186 5.495c1.397 0 2.748-.175 4.032-.503-.049-.21-.097-.42-.144-.63-1.237.32-2.541.491-3.888.491s-2.649-.171-3.889-.491c-.045.21-.093.42-.143.63 1.285.328 2.636.503 4.032.503m6.427-1.32c1.684-.73 3.206-1.736 4.503-2.958.071-.412.156-.818.256-1.217-1.377 1.507-3.084 2.733-5.014 3.576.084.202.168.402.255.599m-6.427-.087c1.29 0 2.541-.15 3.736-.431-.044-.212-.086-.422-.129-.633-1.152.274-2.361.421-3.607.421-1.245 0-2.453-.147-3.607-.421-.041.211-.084.421-.129.633 1.196.281 2.447.431 3.736.431m11.35-4.691c.183-.617.405-1.214.668-1.776-.003-.003-.006-.007-.01-.011-1.597 2.09-3.775 3.75-6.315 4.757.077.204.156.406.235.606 2.071-.814 3.915-2.042 5.422-3.576m-23.358-1.787c-.003.004-.006.008-.01.011.264.562.485 1.159.668 1.776 1.507 1.534 3.351 2.762 5.423 3.576.078-.2.158-.402.234-.606-2.539-1.007-4.718-2.667-6.315-4.757m23.866-.163c-.149-.165-.298-.338-.443-.521-1.627 1.865-3.744 3.327-6.167 4.2.071.208.142.411.215.613 2.503-.894 4.695-2.387 6.395-4.292m-23.273-.521c-.145.183-.294.356-.442.521 1.7 1.905 3.892 3.398 6.396 4.292.072-.202.143-.405.214-.613-2.424-.873-4.541-2.335-6.168-4.2m11.415 5.754c1.195 0 2.356-.129 3.471-.37-.04-.213-.078-.425-.116-.635-1.076.236-2.199.362-3.355.362-1.155 0-2.278-.126-3.356-.362-.037.21-.075.422-.113.635 1.114.241 2.275.37 3.469.37m5.031-2.202c2.384-.775 4.501-2.087 6.205-3.783-.136-.179-.269-.362-.4-.552-1.636 1.667-3.688 2.957-6.002 3.718.066.207.131.414.197.617m-5.031.793c1.111 0 2.193-.112 3.235-.32-.035-.214-.07-.427-.101-.639-1.01.206-2.057.317-3.134.317-1.076 0-2.125-.111-3.133-.317-.033.212-.067.425-.1.639 1.042.208 2.123.32 3.233.32m-10.835-5.128c-.132.19-.265.373-.4.552 1.704 1.696 3.821 3.008 6.204 3.783.067-.203.132-.41.197-.617-2.314-.761-4.365-2.051-6.001-3.718m15.47 3.053c2.269-.675 4.313-1.833 6.004-3.345-.124-.188-.246-.378-.364-.573-1.629 1.492-3.611 2.634-5.821 3.296.06.21.12.416.181.622m-4.635.67c1.038 0 2.048-.098 3.027-.282-.031-.214-.06-.427-.088-.639-.949.181-1.931.278-2.939.278-1.006 0-1.989-.097-2.939-.278-.028.212-.057.425-.087.639.978.184 1.989.282 3.026.282m-4.454-1.292c-2.209-.662-4.191-1.804-5.821-3.296-.118.195-.239.385-.362.573 1.69 1.512 3.733 2.67 6.004 3.345.061-.206.12-.412.179-.622m4.454-.117c.974 0 1.924-.087 2.846-.249-.026-.216-.051-.43-.075-.642-.897.162-1.822.248-2.771.248-.948 0-1.874-.086-2.77-.248-.024.212-.049.426-.076.642.922.162 1.872.249 2.846.249m-4.106-1.193c-2.108-.578-4.019-1.589-5.628-2.925-.108.197-.219.394-.332.588 1.667 1.354 3.633 2.377 5.798 2.965.055-.208.109-.417.162-.628m8.375.628c2.164-.588 4.131-1.611 5.798-2.965-.114-.194-.224-.391-.333-.588-1.609 1.336-3.52 2.347-5.628 2.925.054.211.107.42.163.628m-.332-1.322c2.062-.514 3.954-1.419 5.587-2.628-.105-.202-.206-.404-.302-.605-1.581 1.199-3.42 2.097-5.431 2.603.047.211.096.421.146.63m-3.937.479c.92 0 1.819-.077 2.691-.221-.022-.217-.042-.432-.062-.644-.852.144-1.731.222-2.629.222s-1.776-.078-2.628-.222c-.02.212-.041.427-.063.644.873.144 1.772.221 2.691.221m-3.792-1.109c-2.009-.506-3.849-1.404-5.429-2.603-.097.201-.198.403-.303.605 1.633 1.209 3.525 2.114 5.588 2.628.049-.209.098-.419.144-.63m-2.437 17.695c-.008.023-.014.044-.021.066-.019-.014-.037-.029-.056-.043.026-.007.053-.016.077-.023m-.708 9.583c-.147-.122-.292-.249-.435-.379.131.124.276.253.435.379m.525-8.921c.035-.186.085-.376.162-.596-.019-.014-.037-.029-.056-.043-.187.056-.409.124-.646.214.178.147.357.288.54.425m2.306 10.033c-1.046-.476-2.018-1.126-2.889-1.921-.357-.043-.732-.171-1.082-.35.143.179.378.467.705.78.143.13.288.257.435.379.681.542 1.626 1.053 2.831 1.112m-2.368-9.475c-.308-.253-.608-.521-.894-.806-.172.082-.346.179-.516.292.438.448.907.86 1.401 1.23 0-.002-.001-.003-.001-.005 0-.28.002-.508.01-.711m-1.672-.321c-.145.117-.283.252-.411.402.83.986 1.786 1.831 2.836 2.498-.28-.351-.505-.754-.636-1.154-.647-.51-1.246-1.096-1.789-1.746m-1.085 3.85c.392 2.258 1.951 3.296 3.143 3.486-1.221-.902-2.285-2.082-3.143-3.486m15.413-4.749c.008.023.016.044.023.066.018-.014.036-.029.054-.043-.026-.007-.053-.016-.077-.023m1.143 9.204c-.143.13-.287.257-.435.379.16-.126.304-.255.435-.379m-.42-8.967c-.237-.09-.458-.158-.646-.214-.018.014-.036.029-.054.043.075.22.127.41.161.596.183-.137.363-.278.539-.425m-.015 9.346c.148-.122.292-.249.435-.379.327-.313.563-.601.707-.78-.352.179-.726.307-1.084.35-.87.795-1.842 1.445-2.888 1.921 1.204-.059 2.15-.57 2.83-1.112m-.453-7.652v.005c.493-.37.961-.782 1.402-1.23-.171-.113-.345-.21-.516-.292-.288.285-.586.553-.896.806.009.203.01.431.01.711m-.126.714c-.13.4-.357.803-.636 1.154 1.05-.667 2.005-1.512 2.835-2.498-.127-.15-.266-.285-.411-.402-.543.65-1.142 1.236-1.788 1.746m-.269 5.59c1.191-.19 2.752-1.228 3.144-3.486-.858 1.404-1.923 2.584-3.144 3.486m-6.275-4.647c-1.804-.04-3.568-.609-5.061-1.531.008.253.031.487.063.702 1.477.838 3.208 1.356 4.959 1.4.014-.197.024-.376.039-.571m.21-6.091c.815 0 1.597-.098 2.354-.279-.199-.163-.396-.315-.589-.459-.57.108-1.157.164-1.765.164s-1.195-.056-1.766-.164c-.192.144-.39.296-.588.459.757.181 1.538.279 2.354.279m0 4.003c1.763 0 3.418-.445 4.915-1.24-.078-.173-.166-.343-.263-.509-1.417.755-2.983 1.175-4.652 1.175s-3.235-.42-4.652-1.175c-.098.166-.186.336-.263.509 1.495.795 3.152 1.24 4.915 1.24m0-1.336c1.529 0 2.975-.333 4.307-.943-.115-.158-.236-.313-.364-.466-1.224.541-2.546.835-3.943.835-1.398 0-2.719-.294-3.944-.835-.127.153-.249.308-.364.466 1.334.61 2.778.943 4.308.943m-.103 2.094c-1.774-.004-3.561-.563-5.02-1.437-.057.195-.099.392-.124.592 1.514.871 3.275 1.395 5.091 1.413.017-.193.034-.404.053-.568m.103-6.094c.293 0 .582-.016.866-.04-.379-.255-.687-.445-.866-.563-.183.122-.49.312-.865.563.284.024.572.04.865.04m0 2.667c1.216 0 2.371-.212 3.464-.604-.15-.155-.305-.304-.462-.449-.952.312-1.952.479-3.002.479-1.049 0-2.05-.167-3.003-.479-.157.145-.311.294-.462.449 1.094.392 2.249.604 3.465.604m-.456 7.416c-3.29-.149-6.26-2.002-8.237-4.743-.115.163-.219.344-.307.546 2.06 2.743 5.099 4.593 8.457 4.765.033-.188.062-.377.087-.568m-4.171-1.846c1.286.633 2.789 1.038 4.267 1.09.019-.193.039-.384.054-.573-1.665-.053-3.315-.564-4.719-1.38.114.344.255.626.398.863m-1.151 4.038c-.144.145-.317.242-.509.295 1.104.801 2.328 1.397 3.633 1.747.258-.105.474-.249.677-.419-1.374-.275-2.647-.827-3.801-1.623m-3.306-6.178c-.081.227-.14.479-.177.758 2.004 2.859 5.037 4.836 8.416 5.109.058-.184.103-.369.149-.562-3.404-.237-6.472-2.332-8.388-5.305m-.202 1.007c-.009.117-.015.24-.015.367 0 .25.014.489.039.717 1.902 2.714 4.698 4.607 7.852 5.043.112-.167.201-.339.29-.539-3.358-.385-6.328-2.547-8.166-5.588m14.494-.509c.032-.215.055-.449.064-.702-1.496.922-3.259 1.491-5.062 1.531.014.195.025.374.039.571 1.75-.044 3.482-.562 4.959-1.4m-5.053.067c1.817-.018 3.576-.542 5.091-1.413-.026-.2-.067-.397-.124-.592-1.458.874-3.245 1.433-5.019 1.437.019.164.036.375.052.568m8.845-.776c-.088-.202-.191-.383-.308-.546-1.976 2.741-4.948 4.594-8.236 4.743.025.191.054.38.087.568 3.358-.172 6.397-2.022 8.457-4.765m-3.976 1.488c-1.402.816-3.053 1.327-4.718 1.38.015.189.035.38.053.573 1.479-.052 2.981-.457 4.268-1.09.141-.237.283-.519.397-.863m.754 4.901c-1.153.796-2.427 1.348-3.801 1.623.203.17.419.314.676.419 1.306-.35 2.53-.946 3.635-1.747-.193-.053-.367-.15-.51-.295m3.482-5.42c-.036-.279-.097-.531-.177-.758-1.916 2.973-4.983 5.068-8.389 5.305.048.193.092.378.151.562 3.379-.273 6.411-2.25 8.415-5.109m.041.616c0-.127-.006-.25-.015-.367-1.839 3.041-4.809 5.203-8.168 5.588.092.2.179.372.292.539 3.154-.436 5.951-2.329 7.853-5.043.025-.228.038-.467.038-.717"/><path d="m297.228 252.995h.83l-.52-1.684h-.757z"/><path d="m274.613 252.995h1.948c1.495 0 1.805-1.052 1.805-1.762 0-.703-.392-1.757-1.886-1.748h-.958v-2.245h-.909zm.909-2.712h1.009c.412 0 .918.239.918.955 0 .75-.417.959-.902.959h-1.025z"/><path d="m279.092 251.479h.809v-.777h.016c.099.45.61.821 1.14.821.197 0 .183-.003.258-.012v-.863c-.121.019-.182.029-.302.029-.59 0-1.058-.333-1.058-1.268v-2.182h-.863z"/><path d="m307.182 251.479h.809v-.777h.016c.096.45.612.821 1.14.821.196 0 .184-.003.258-.012v-.863c-.12.019-.184.029-.305.029-.588 0-1.055-.333-1.055-1.268v-2.182h-.863z"/><path d="m282.125 253.012h.859v-.889h-.859zm0-1.52h.859v-4.252h-.859z"/><path d="m284.189 251.479h.815v-.568l.016-.015c.257.467.703.655 1.214.655.847 0 1.383-.495 1.383-1.446v-2.878h-.859v2.66c-.016.663-.26.953-.765.953-.574 0-.944-.437-.944-1.062v-2.551h-.86z"/><path d="m313.657 247.226h-.818v.567l-.014.017c-.258-.468-.703-.656-1.215-.656-.846 0-1.385.492-1.385 1.447v2.875h.862v-2.655c.016-.667.258-.957.765-.957.572 0 .942.437.942 1.062v2.55h.863z"/><path d="m291.286 250.037c-.069.552-.417.845-.892.845-.446 0-1.073-.208-1.073-1.576 0-.782.289-1.482 1.035-1.482.499 0 .846.317.89.78h.861c-.072-.887-.747-1.493-1.751-1.493-1.222 0-1.894.871-1.894 2.195 0 1.36.641 2.288 1.924 2.288.907 0 1.676-.48 1.759-1.557z"/><path d="m293.695 249.108c0-.74.334-1.284 1.049-1.284.498 0 .785.216.938.684h.815c-.156-.864-.899-1.397-1.753-1.397-1.224 0-1.91.853-1.91 2.238 0 1.284.725 2.245 1.887 2.245 1.225 0 1.996-1.136 1.844-2.486zm2.01.616c-.035.672-.396 1.158-.984 1.158-.598 0-.999-.446-1.026-1.158z"/><path d="m298.701 248.576c.013-.563.378-.752.812-.752.306 0 .855.1.86.586.003.357-.3.506-1.178.734-.594.151-1.172.428-1.148 1.252.024.93.974 1.198 1.57 1.198.751 0 1.505-.357 1.494-1.309h-.786c-.02.423-.416.626-.77.626-.346 0-.697-.16-.697-.494 0-.32.195-.445 1.001-.658.898-.234 1.332-.566 1.328-1.293-.006-.976-.923-1.355-1.681-1.355-.924 0-1.634.416-1.6 1.465z"/><path d="m315.347 248.591c.013-.561.377-.767.812-.767.306 0 .855.1.859.586.005.357-.3.506-1.178.734-.593.151-1.171.428-1.147 1.252.025.93.974 1.198 1.569 1.198.752 0 1.505-.357 1.494-1.309h-.787c-.018.423-.414.626-.769.626-.346 0-.697-.16-.697-.494 0-.32.196-.445 1.002-.658.897-.234 1.33-.566 1.328-1.293-.005-.976-.921-1.355-1.682-1.355-.923 0-1.634.431-1.599 1.48z"/><path d="m303.033 252.995h3.959v-.862h-1.524v-4.893h-.918v4.893h-1.517z"/><path d="m318.371 251.492h.651v1.274h.862v-1.274h.778v-.67h-.778v-2.328c0-.389.031-.585.414-.585.124 0 .241 0 .364.033v-.695c-.188-.017-.369-.049-.56-.049-.899 0-1.064.377-1.08 1.085v2.539h-.651z"/></g></g></svg>