<?xml version="1.0" encoding="UTF-8" standalone="no"?>
<!-- Generator: Adobe Illustrator 19.2.1, SVG Export Plug-In . SVG Version: 6.00 Build 0)  -->

<svg
   version="1.1"
   id="layer"
   x="0px"
   y="0px"
   viewBox="0 0 652 222"
   xml:space="preserve"
   sodipodi:docname="scottish-government-logo-vector.svg"
   width="652"
   height="222"
   inkscape:version="1.2.2 (732a01da63, 2022-12-09)"
   xmlns:inkscape="http://www.inkscape.org/namespaces/inkscape"
   xmlns:sodipodi="http://sodipodi.sourceforge.net/DTD/sodipodi-0.dtd"
   xmlns="http://www.w3.org/2000/svg"
   xmlns:svg="http://www.w3.org/2000/svg"><defs
   id="defs25" /><sodipodi:namedview
   id="namedview23"
   pagecolor="#ffffff"
   bordercolor="#000000"
   borderopacity="0.25"
   inkscape:showpageshadow="2"
   inkscape:pageopacity="0.0"
   inkscape:pagecheckerboard="0"
   inkscape:deskcolor="#d1d1d1"
   showgrid="false"
   inkscape:zoom="0.91735293"
   inkscape:cx="233.82495"
   inkscape:cy="311.22155"
   inkscape:window-width="1920"
   inkscape:window-height="1002"
   inkscape:window-x="2125"
   inkscape:window-y="-8"
   inkscape:window-maximized="1"
   inkscape:current-layer="layer" />
<style
   type="text/css"
   id="style2">
	.st0{fill:none;stroke:#2C3B45;stroke-width:2.4545;}
	.st1{fill:#0065BD;}
	.st2{fill:#2C3B45;}
	.st3{fill:#8E979C;}
</style>
<g
   id="g20"
   transform="translate(-5.4,-219.99714)">
	<line
   class="st0"
   x1="226"
   y1="378.20001"
   x2="226"
   y2="275.5"
   id="line4" />
	<polygon
   class="st1"
   points="184.1,275.5 52,275.5 118,314 "
   id="polygon6" />
	<polygon
   class="st1"
   points="184.1,378.2 52,378.2 118,339.7 "
   id="polygon8" />
	<polygon
   class="st1"
   points="97.2,326.8 31.4,287.1 31.4,366.6 "
   id="polygon10" />
	<polygon
   class="st1"
   points="139.7,326.8 205.4,287.1 205.4,366.6 "
   id="polygon12" />
	<path
   class="st2"
   d="m 254.7,386.5 c 4.9,0 10.3,-2 10.3,-9.1 v -19 h -4.4 v 2.9 c -1.5,-2 -3.9,-3.2 -6.4,-3.2 -5.2,0 -8.9,3.7 -8.9,10.3 0,6.6 3.7,10.3 8.9,10.3 2.5,0 4.9,-1.3 6.4,-3.4 v 2.2 c 0,4.2 -3,5.5 -5.9,5.5 -2.4,0.2 -4.9,-0.8 -6.4,-2.5 l -2,3.2 c 2.4,1.9 5.4,2.9 8.4,2.8 z m 0.8,-12 c -3.5,0 -5.7,-2.5 -5.7,-6.4 0,-3.9 2.2,-6.4 5.7,-6.4 2,0 3.9,1 5.2,2.7 v 7.6 c -1.3,1.5 -3.1,2.5 -5.2,2.5 z m 24.3,4.4 c 5.5,0.2 10.3,-4.2 10.3,-9.9 0,-0.2 0,-0.5 0,-0.7 0,-5.7 -4.7,-10.3 -10.3,-10.3 -5.7,0 -10.3,4.7 -10.3,10.3 -0.2,5.5 4,10.3 9.6,10.4 0.2,0.2 0.3,0.2 0.7,0.2 z m 0,-3.9 c -3.7,0 -5.7,-3 -5.7,-6.7 0,-3.7 2,-6.6 5.7,-6.6 3.7,0 5.7,3 5.7,6.6 0,3.6 -2,6.7 -5.7,6.7 z m 24,3.4 8.2,-20 h -4.7 l -5.9,15 -5.9,-15 h -4.7 l 8.2,20 z m 11.1,0.5 c 1.7,0 2.9,-1.3 2.9,-3 0,-1.7 -1.3,-2.9 -2.9,-2.9 -1.5,0 -2.9,1.3 -2.9,2.9 0,1.7 1.2,2.8 2.9,3 z m 15.1,0 c 5.4,0 8.4,-2.7 8.4,-6.2 0,-7.9 -12.1,-5.4 -12.1,-8.7 0,-1.3 1.3,-2.5 3.7,-2.5 2.2,0 4.4,0.8 5.9,2.4 l 1.8,-3 c -2.2,-1.8 -4.9,-2.9 -7.7,-2.7 -5,0 -7.9,2.9 -7.9,6.1 0,7.7 12.1,4.9 12.1,8.7 0,1.5 -1.3,2.7 -4,2.7 -2.5,0 -4.9,-1 -6.7,-2.9 l -2,3 c 2.5,2.1 5.5,3.1 8.5,3.1 z m 21.7,0 c 3,0.2 5.9,-1.2 7.7,-3.5 l -2.9,-2.7 c -1,1.5 -2.7,2.5 -4.7,2.4 -3.7,0 -6.1,-2.9 -6.1,-6.7 -0.3,-3.4 2.2,-6.2 5.5,-6.6 0.2,0 0.3,0 0.7,0 1.8,0 3.5,0.8 4.7,2.4 l 2.9,-2.5 c -1.8,-2.4 -4.7,-3.7 -7.7,-3.5 -5.7,0 -10.4,4.7 -10.4,10.4 -0.1,5.6 4.6,10.3 10.3,10.3 z m 20,0 c 5.5,0.2 10.3,-4.2 10.3,-9.9 0,-0.2 0,-0.5 0,-0.7 0,-5.7 -4.7,-10.3 -10.3,-10.3 -5.7,0 -10.3,4.7 -10.3,10.3 -0.2,5.5 4,10.3 9.6,10.4 0.2,0.2 0.4,0.2 0.7,0.2 z m 0,-3.9 c -3.7,0 -5.7,-3 -5.7,-6.7 0,-3.7 2,-6.6 5.7,-6.6 3.7,0 5.7,3 5.7,6.6 0,3.6 -2,6.7 -5.7,6.7 z m 20.5,3.9 c 1.5,0.2 2.9,-0.3 4,-1.3 l -1,-3.4 c -0.5,0.5 -1.2,0.7 -1.8,0.7 -1.2,0 -2,-1 -2,-2.2 0,-0.2 0,-0.2 0,-0.3 V 362 h 4 v -3.7 h -4 v -5.4 H 387 v 5.4 h -3.4 v 3.7 h 3.4 v 11.6 c -0.3,2.5 1.5,4.9 4,5.2 0.6,0.1 0.9,0.1 1.2,0.1 z"
   id="path14" />
	<path
   class="st3"
   d="M 268.2,340.9 261.3,330 c 4,-0.7 6.9,-4 6.6,-8.1 0,-5 -3.5,-8.6 -9.1,-8.6 h -12.1 v 27.6 h 4.9 v -10.3 h 4.9 l 6.1,10.3 z m -10,-14.4 h -6.7 v -8.9 h 6.7 c 2.4,-0.2 4.5,1.5 4.7,4 0.2,2.4 -1.5,4.5 -4,4.7 -0.2,0 -0.3,0 -0.7,0.2 z m 16.3,-7.9 c 1.5,0 2.7,-1.2 2.7,-2.7 0,-1.5 -1.2,-2.7 -2.7,-2.7 -1.5,0 -2.7,1.2 -2.7,2.7 -0.1,1.5 1.2,2.7 2.7,2.7 -0.1,0 -0.1,0 0,0 z m 2.1,22.3 v -20 h -4.4 v 20 z m 23.8,0 v -20 H 296 v 2.7 c -1.5,-2 -3.9,-3.2 -6.4,-3.2 -5.2,0 -8.9,4 -8.9,10.4 0,6.4 3.7,10.4 8.9,10.4 2.5,0 4.9,-1.2 6.4,-3.2 v 2.7 z m -9.5,-3.3 c -3.5,0 -5.7,-2.9 -5.7,-6.7 0,-3.9 2.2,-6.6 5.7,-6.6 2,0 4,1 5.2,2.7 v 7.9 c -1.4,1.6 -3.2,2.7 -5.2,2.7 z m 23,11.6 c 4.9,0 10.3,-2 10.3,-9.1 v -19.2 h -4.4 v 2.7 c -1.5,-2 -3.9,-3.2 -6.4,-3.2 -5.2,0 -8.9,3.7 -8.9,10.3 0,6.6 3.7,10.3 8.9,10.3 2.5,0 4.9,-1.3 6.4,-3.4 v 2.2 c 0,4.2 -3,5.5 -5.9,5.5 -2.4,0.2 -4.7,-0.8 -6.4,-2.5 l -2,3.4 c 2.3,1.9 5.4,3.1 8.4,3 z m 0.8,-12.1 c -3.5,0 -5.7,-2.5 -5.7,-6.4 0,-3.9 2.2,-6.6 5.7,-6.6 2,0 3.9,1 5.2,2.7 v 7.6 c -1.3,1.6 -3.2,2.7 -5.2,2.7 z m 32.8,3.8 v -14.1 c 0,-4 -2.2,-6.4 -6.6,-6.4 -2.7,0 -5.2,1.2 -7.1,3.2 v -10.3 h -4.4 v 27.6 h 4.4 v -14 c 1.2,-1.7 3.2,-2.7 5.2,-2.7 2.5,0 4,0.8 4,4 v 12.6 h 4.5 z m 23.9,0 v -20 H 367 v 2.7 c -1.5,-2 -3.9,-3.2 -6.4,-3.2 -5.2,0 -8.9,4 -8.9,10.4 0,6.4 3.7,10.4 8.9,10.4 2.5,0 4.9,-1.2 6.4,-3.2 v 2.7 z m -9.6,-3.3 c -3.5,0 -5.7,-2.9 -5.7,-6.7 0,-3.9 2.2,-6.6 5.5,-6.6 2,0 4,1 5.2,2.7 v 7.9 c -1,1.6 -3,2.7 -5,2.7 z m 20,3.8 c 1.5,0.2 3,-0.3 4,-1.3 l -1,-3.4 c -0.5,0.5 -1.2,0.7 -2,0.7 -1.2,0 -2,-1 -2,-2.2 0,-0.2 0,-0.2 0,-0.3 V 313 h -4.4 v 23 c -0.3,2.5 1.5,4.9 4,5.2 0.6,0.4 1.1,0.4 1.4,0.2 z m 11.9,0 c 1.5,0.2 2.9,-0.3 4,-1.3 l -1,-3.4 c -0.5,0.5 -1.2,0.7 -1.8,0.7 -1.2,0 -2,-1 -2,-2 0,-0.2 0,-0.2 0,-0.3 v -10.4 h 4 V 321 h -4 v -5.4 h -4.4 v 5.4 h -3.4 v 3.7 h 3.4 v 11.6 c -0.3,2.5 1.5,4.9 4,5.2 0.4,-0.1 0.7,-0.1 1.2,-0.1 z m 25.1,-0.5 v -20 h -4.4 v 2.7 c -1.5,-2 -3.9,-3.2 -6.4,-3.2 -5.2,0 -8.9,4 -8.9,10.4 0,6.4 3.7,10.4 8.9,10.4 2.5,0 4.9,-1.2 6.4,-3.2 v 2.7 z m -9.4,-3.3 c -3.5,0 -5.7,-2.9 -5.7,-6.7 0,-3.9 2.2,-6.6 5.5,-6.6 2,0 4,1 5.2,2.7 v 7.9 c -1.2,1.6 -3.2,2.7 -5,2.7 z m 21.8,3.8 c 5.4,0 8.4,-2.7 8.4,-6.2 0,-7.9 -12.1,-5.4 -12.1,-8.7 0,-1.3 1.3,-2.5 3.7,-2.5 2.2,0 4.4,0.8 5.9,2.4 l 1.8,-3 c -2.2,-1.8 -4.9,-2.9 -7.7,-2.7 -5,0 -7.9,2.7 -7.9,6.1 0,7.7 12.1,4.9 12.1,8.7 0,1.5 -1.3,2.7 -4,2.7 -2.5,0 -4.9,-1 -6.7,-2.9 l -2,3 c 2.3,2.1 5.3,3.3 8.5,3.1 z m 41,-0.5 v -14.1 c 0,-4 -2.2,-6.4 -6.6,-6.4 -2.7,0 -5.4,1.2 -7.1,3.2 v -2.7 h -4.4 v 20 h 4.2 v -14 c 1.2,-1.7 3.2,-2.7 5.2,-2.7 2.5,0 4,1 4,4.2 v 12.4 h 4.7 z m 23.9,0 v -20 h -4.4 v 2.7 c -1.5,-2 -3.9,-3.2 -6.4,-3.2 -5.2,0 -8.9,4 -8.9,10.4 0,6.4 3.7,10.4 8.9,10.4 2.5,0 4.9,-1.2 6.4,-3.2 v 2.7 z m -9.6,-3.3 c -3.5,0 -5.7,-2.9 -5.7,-6.7 0,-3.9 2.2,-6.6 5.5,-6.6 2,0 4,1 5.2,2.7 v 7.9 c -1.1,1.6 -3.1,2.7 -5,2.7 z m 43.6,3.3 v -14.1 c 0,-4 -2.2,-6.4 -6.6,-6.4 -2.7,0 -5.2,1.2 -7.1,3.2 V 313.3 H 512 v 27.6 h 4.4 v -14 c 1.2,-1.7 3,-2.7 5,-2.7 2.5,0 4,0.8 4,4 v 12.6 h 4.7 z m 14.3,-8.1 v -3.7 h -9.9 v 3.7 z m 29.6,8.1 -11,-27.6 h -6 l -11.1,27.6 h 5.5 l 2,-5.4 h 12.8 l 2,5.4 z m -9.1,-9.6 H 555 l 5,-13.1 z m 16.5,10.1 c 1.5,0.2 3,-0.3 4.2,-1.3 l -1,-3.4 c -0.5,0.5 -1.2,0.7 -2,0.7 -1.2,0 -2,-1 -2,-2.2 0,-0.2 0,-0.2 0,-0.3 V 313 h -4.4 v 23 c -0.3,2.5 1.5,4.9 4,5.2 0.3,0.4 0.6,0.4 1.2,0.2 z m 11,-6.5 V 327 c 1.2,-1.7 3.2,-2.7 5.2,-2.7 3.5,0 5.7,2.7 5.7,6.6 0,3.9 -2.2,6.7 -5.7,6.7 -2,0.1 -3.8,-0.9 -5.2,-2.7 z m 0,6 v -2.7 c 1.5,2 3.9,3.2 6.4,3.2 5.2,0 8.9,-3.9 8.9,-10.4 0,-6.5 -3.7,-10.4 -8.9,-10.4 -2.5,0 -4.9,1.2 -6.4,3.2 V 313.4 H 588 V 341 h 4.4 z m 38.4,0 v -20 h -4.4 v 2.7 c -1.5,-2 -3.9,-3.2 -6.6,-3.2 -5.2,0 -8.9,4 -8.9,10.4 0,6.4 3.7,10.4 8.9,10.4 2.5,0 4.9,-1.2 6.4,-3.2 v 2.7 z m -9.6,-3.3 c -3.5,0 -5.7,-2.9 -5.7,-6.7 0,-3.9 2.2,-6.6 5.7,-6.6 2,0 4,1 5.2,2.7 v 7.9 c -1.3,1.6 -3.2,2.7 -5.2,2.7 z"
   id="path16" />
	<path
   class="st2"
   d="m 256.2,304.1 c 7.4,0 10.8,-4 10.8,-8.6 0,-10.3 -16.1,-7.1 -16.1,-12.3 0,-2 1.8,-3.4 4.7,-3.4 3,0 5.9,1.2 8.1,3.2 l 2.7,-3.5 c -2.9,-2.7 -6.6,-4 -10.4,-4 -6.1,0 -10.1,3.5 -10.1,8.1 0,10.1 16.1,6.6 16.1,12.3 0,1.8 -1.5,3.9 -5.5,3.9 -3.4,0 -6.6,-1.3 -8.7,-3.9 l -2.7,3.7 c 2.9,3 6.9,4.7 11.1,4.5 z m 24.2,0 c 3,0.2 5.9,-1.2 7.7,-3.5 l -2.9,-2.7 c -1,1.5 -2.7,2.5 -4.7,2.4 -3.5,0 -6.1,-2.7 -6.1,-6.7 -0.3,-3.4 2.2,-6.2 5.5,-6.6 0.2,0 0.3,0 0.7,0 1.8,0 3.5,0.8 4.7,2.4 l 2.9,-2.7 c -1.8,-2.4 -4.7,-3.7 -7.7,-3.5 -5.5,-0.2 -10.3,4.2 -10.4,9.8 0,0.2 0,0.5 0,0.7 -0.3,5.5 4,10.3 9.6,10.6 0.2,-0.2 0.6,-0.2 0.7,-0.2 z m 20,0 c 5.5,0.2 10.3,-4.2 10.3,-9.9 0,-0.2 0,-0.5 0,-0.7 0,-5.7 -4.7,-10.3 -10.3,-10.3 -5.7,0 -10.3,4.7 -10.3,10.3 -0.2,5.5 4,10.3 9.6,10.4 0.2,0.2 0.6,0.2 0.7,0.2 z m 0,-3.9 c -3.7,0 -5.7,-3.2 -5.7,-6.7 0,-3.5 2,-6.6 5.7,-6.6 3.7,0 5.7,3 5.7,6.6 0,3.5 -2,6.7 -5.7,6.7 z m 20.5,3.9 c 1.5,0.2 2.9,-0.3 4,-1.3 l -1,-3.4 c -0.5,0.5 -1.2,0.7 -1.8,0.7 -1.2,0 -2,-1 -2,-2.2 0,-0.2 0,-0.2 0,-0.3 v -10.3 h 4 v -3.7 h -4 V 278 h -4.4 v 5.5 h -3.4 v 3.7 h 3.4 v 11.6 c -0.3,2.5 1.3,4.9 3.9,5.2 0.5,0.1 1,0.1 1.3,0.1 z m 14.2,0 c 1.5,0.2 2.9,-0.3 4,-1.3 l -1,-3.4 c -0.5,0.5 -1.2,0.7 -1.8,0.7 -1.2,0 -2,-1 -2,-2.2 0,-0.2 0,-0.2 0,-0.3 v -10.3 h 4 v -3.7 h -4 V 278 h -4.4 v 5.5 h -3.4 v 3.7 h 3.4 v 11.6 c -0.3,2.5 1.3,4.9 3.9,5.2 0.4,0.1 0.8,0.1 1.3,0.1 z m 9.2,-22.9 c 1.5,0 2.7,-1.2 2.7,-2.7 0,-1.5 -1.2,-2.7 -2.7,-2.7 -1.5,0 -2.7,1.2 -2.7,2.7 0,1.4 1.2,2.7 2.7,2.7 z m 2.2,22.4 v -20 h -4.4 v 20 z m 12.4,0.5 c 5.4,0 8.4,-2.7 8.4,-6.2 0,-7.9 -12.1,-5.4 -12.1,-8.7 0,-1.3 1.3,-2.5 3.7,-2.5 2.2,0 4.4,0.8 5.9,2.4 l 1.8,-3 c -2.2,-1.8 -4.9,-2.9 -7.7,-2.9 -5,0 -7.9,2.9 -7.9,6.1 0,7.7 12.1,4.9 12.1,8.7 0,1.5 -1.3,2.7 -4,2.7 -2.5,0 -4.9,-1 -6.7,-2.7 l -2,3.2 c 2.3,1.9 5.3,3.1 8.5,2.9 z m 30.6,-0.5 v -14.1 c 0,-4 -2.2,-6.4 -6.6,-6.4 -2.7,0 -5.2,1.2 -7.1,3.2 V 276 h -4.4 v 27.6 h 4.4 v -14 c 1.2,-1.7 3.2,-2.7 5.2,-2.7 2.5,0 4,0.8 4,4 v 12.6 h 4.5 z m 29.5,0.5 c 8.7,0 13.8,-6.1 13.8,-15.5 h -15.1 v 4.2 h 9.9 c -0.7,4 -4,6.9 -8.1,6.7 -5.2,0 -9.6,-4.2 -9.6,-9.4 0,-0.2 0,-0.3 0,-0.5 -0.3,-5.2 3.7,-9.8 8.9,-9.9 0.2,0 0.5,0 0.7,0 2.9,0 5.5,1.5 7.1,3.7 l 4,-2.2 c -2.5,-3.7 -6.7,-5.9 -11.1,-5.7 -8.1,0 -14.6,5.5 -14.6,14.3 -0.2,7.7 5.7,14.1 13.4,14.3 0.1,0 0.5,0 0.7,0 z m 26.5,0 c 5.5,0.2 10.3,-4.2 10.3,-9.9 0,-0.2 0,-0.5 0,-0.7 0,-5.7 -4.7,-10.3 -10.3,-10.3 -5.7,0 -10.3,4.7 -10.3,10.3 -0.2,5.5 4,10.3 9.6,10.4 0.2,0.2 0.5,0.2 0.7,0.2 z m 0,-3.9 c -3.7,0 -5.7,-3.2 -5.7,-6.7 0,-3.5 2,-6.6 5.7,-6.6 3.7,0 5.7,3 5.7,6.6 0,3.5 -2,6.7 -5.7,6.7 z m 24.1,3.4 8.2,-20 h -4.7 l -5.9,15 -5.9,-15 h -4.5 l 8.2,20 z m 19.6,0.5 c 3,0 5.9,-1 8.2,-3 l -2,-2.9 c -1.5,1.5 -3.7,2.2 -5.7,2.2 -3.2,0.2 -6.1,-2.2 -6.4,-5.5 H 499 V 294 c 0,-6.2 -3.9,-10.8 -9.9,-10.8 -5.5,-0.2 -10.3,4.4 -10.3,9.9 0,0.2 0,0.3 0,0.5 -0.3,5.5 4,10.3 9.6,10.6 0.2,-0.1 0.5,-0.1 0.8,-0.1 z m 5.4,-12.1 h -11.3 c 0.2,-3 2.7,-5.4 5.5,-5.2 3,-0.2 5.5,2.2 5.7,5 -0.1,0 -0.1,0 0.1,0.2 z m 12.6,11.6 V 290 c 1.2,-1.7 3.2,-2.7 5.2,-2.7 0.5,0 0.8,0 1.3,0.2 v -4.4 c -2.5,0.2 -5,1.3 -6.6,3.4 v -2.9 h -4.4 v 20 z m 27.8,0 v -14.1 c 0,-4 -2.2,-6.4 -6.6,-6.4 -2.7,0 -5.4,1.2 -7.1,3.2 v -2.7 H 517 v 20 h 4.4 v -14 c 1.2,-1.7 3.2,-2.5 5.2,-2.7 2.5,0 4,1 4,4.2 v 12.4 z m 34.4,0 v -14.5 c 0,-4 -2.2,-6.1 -5.7,-6.1 -2.7,0 -5.2,1.3 -6.9,3.7 -0.7,-2.4 -3,-3.9 -5.5,-3.7 -2.5,0 -4.9,1.2 -6.6,3.2 v -2.7 h -4.4 v 20 h 4.4 v -14 c 1,-1.5 2.9,-2.5 4.7,-2.7 2.4,0 3.4,1.5 3.4,3.5 v 13.1 h 4.4 v -14 c 1,-1.5 2.7,-2.5 4.7,-2.7 1.7,-0.2 3.2,1.2 3.4,2.9 0,0.3 0,0.5 0,0.8 v 13.1 z m 14.8,0.5 c 3,0 5.9,-1 8.2,-3 l -2,-2.9 c -1.5,1.5 -3.7,2.2 -5.7,2.2 -3.2,0.2 -6.1,-2.2 -6.4,-5.5 h 15.5 V 294 c 0,-6.2 -3.9,-10.8 -9.9,-10.8 -5.5,0 -10.1,4.4 -10.3,9.9 0,0.2 0,0.3 0,0.5 -0.2,5.5 4.2,10.3 9.8,10.4 0.3,0.1 0.6,0.1 0.8,0.1 z m 5.4,-12.1 h -11.3 c 0.2,-3 2.7,-5.4 5.5,-5.2 3,-0.2 5.5,2 5.7,5 0.1,0 0.1,0 0.1,0.2 z m 26.4,11.6 v -14.1 c 0,-4 -2.2,-6.4 -6.6,-6.4 -2.7,0 -5.4,1.2 -7.1,3.2 v -2.7 H 598 v 20 h 4.4 v -14 c 1.2,-1.7 3.2,-2.5 5.2,-2.7 2.5,0 4,1 4,4.2 v 12.4 z m 11.4,0.5 c 1.5,0.2 2.9,-0.3 4,-1.3 l -1,-3.4 c -0.5,0.5 -1.2,0.7 -1.8,0.7 -1.2,0 -2,-1 -2,-2.2 0,-0.2 0,-0.2 0,-0.3 v -10.3 h 4 v -3.7 h -4 V 278 h -4.4 v 5.5 h -3.4 v 3.7 h 3.4 v 11.6 c -0.3,2.5 1.3,4.9 3.9,5.2 0.6,0.1 1,0.1 1.3,0.1 z"
   id="path18" />
</g>
</svg>
