<?xml version="1.0" encoding="utf-8"?>
<!-- Generator: Adobe Illustrator 28.1.0, SVG Export Plug-In . SVG Version: 6.00 Build 0)  -->
<svg version="1.1" id="Layer_1" xmlns="http://www.w3.org/2000/svg" xmlns:xlink="http://www.w3.org/1999/xlink" x="0px" y="0px"
	 viewBox="0 0 255.1 46.2" style="enable-background:new 0 0 255.1 46.2;" xml:space="preserve">
<style type="text/css">
	.st0{fill:#000F9E;}
	.st1{fill:url(#SVGID_1_);}
	.st2{fill:url(#SVGID_00000015317412618857775840000000486420803893467015_);}
</style>
<g>
	<path class="st0" d="M125.8,26.5c-1.9,0-3.3,0.8-4,2.3v-6.2l-2.6,0.7v15.6h2.6v-6.1c0-2.3,1.2-3.7,3.2-3.7c1.8,0,2.8,0.9,2.8,2.8v7
		h2.6v-7C130.4,28.3,128.4,26.5,125.8,26.5z M101.6,38.9h2.6V26.8h-2.6V38.9z M101.5,25.3h3v-2.7h-3V25.3z M112,31.4
		c-1.2-0.3-2.1-0.5-2.1-1.3c0-0.6,0.6-1,1.8-1c0.8,0,2.3,0.2,3.4,0.6l1-2.1c-1.5-0.9-3.1-1-4.3-1c-2.8,0-4.4,1.4-4.4,3.6
		c0,2.5,1.9,3.4,4.2,3.9c1.1,0.2,2.4,0.6,2.4,1.4c0,0.7-0.8,1.2-2.2,1.2c-1.1,0-2.3-0.1-3.5-1l-1.2,2.2c1.4,1.1,3.2,1.3,4.8,1.3
		c3.1,0,4.9-1.5,4.9-3.8C116.4,32.8,114.5,32,112,31.4z M72.9,26.5c-4.3,0-6.4,2.6-6.4,6.3c0,3.8,2.1,6.3,6.4,6.3
		c4.3,0,6.4-2.6,6.4-6.3C79.4,29.1,77.3,26.5,72.9,26.5z M72.9,36.6c-2.6,0-3.6-1.5-3.6-3.8c0-2.3,1-3.8,3.6-3.8
		c2.6,0,3.6,1.5,3.6,3.8C76.6,35.1,75.6,36.6,72.9,36.6z M46.5,29.4c-1.7-0.4-3.4-1-3.4-2.3c0-1.2,1.2-1.9,3-1.9
		c1.2,0,2.8,0.2,4.1,1.1l1.2-2.3c-1.8-1.1-3.8-1.4-5.4-1.4c-3.7,0-5.8,1.8-5.8,4.6c0,3.3,2.9,4.2,5.6,4.9c1.6,0.4,3.6,1,3.6,2.3
		c0,1.3-1.1,2.2-3.3,2.2c-1.5,0-3.3-0.2-4.7-1.5l-1.3,2.3c1.9,1.4,3.9,1.8,6,1.8c4,0,6.1-2,6.1-4.9C52.3,30.9,49.3,30,46.5,29.4z
		 M60.7,36.6c-2.7,0-3.6-1.5-3.6-3.8c0-2.2,1-3.8,3.6-3.8c1.1,0,1.9,0.2,3,0.9l1.3-2.1c-1.2-0.9-2.6-1.4-4.5-1.4
		c-4.1,0-6.2,2.6-6.2,6.3c0,3.7,2,6.3,5.9,6.3c2,0,3.5-0.5,4.9-1.4L64,35.6C62.7,36.3,61.8,36.6,60.7,36.6z M85.2,24.2h-2l-0.7,2.6
		l-1.8,0.6v1.8h1.8v5.5c0,3.3,1.8,4.4,3.9,4.4c0.8,0,1.9-0.2,2.4-0.5v-2.4c-0.6,0.3-1.1,0.4-1.8,0.4c-1.3,0-1.9-0.5-1.9-2v-5.4h3.9
		v-2.5h-3.9V24.2z M95.2,24.2h-2l-0.7,2.6l-1.8,0.6v1.8h1.8v5.5c0,3.3,1.8,4.4,3.9,4.4c0.8,0,1.9-0.2,2.4-0.5v-2.4
		c-0.6,0.3-1.1,0.4-1.8,0.4c-1.3,0-1.9-0.5-1.9-2v-5.4h3.9v-2.5h-3.9V24.2z M195.1,28.9l-0.2-2.1h-2.3v12.1h2.6v-6
		c0-2.2,1.1-3.6,3-3.6c0.2,0,0.9,0,1.7,0.2v-2.8c-0.4-0.1-0.9-0.2-1.1-0.2C197.3,26.5,196,27.1,195.1,28.9z M219.4,28.9l-0.2-2.1
		h-2.3v12.1h2.6v-6c0-2.2,1.1-3.6,3-3.6c0.2,0,0.9,0,1.7,0.2v-2.8c-0.4-0.1-0.9-0.2-1.1-0.2C221.6,26.5,220.3,27.1,219.4,28.9z
		 M143.6,32h7.8v-2.6h-7.8v-3.9h8.4v-2.6h-11.2v16.1h11.5v-2.6h-8.7V32z M226.3,25.3h3v-2.7h-3V25.3z M255.1,32.8
		c0-3.8-2-6.3-5.7-6.3c-3.8,0-6,2.6-6,6.3c0,3.8,2.3,6.3,6.3,6.3c2.1,0,3.6-0.4,5-1.3l-1-2.1c-1.3,0.7-2.2,1-3.8,1
		c-1.9,0-3.5-0.9-3.7-2.8h8.8C255.1,33.6,255.1,33.2,255.1,32.8z M246.3,31.8c0-1.8,1.2-3,3.1-3c2,0,3,1.1,3,3H246.3z M236.9,31.4
		c-1.2-0.3-2.1-0.5-2.1-1.3c0-0.6,0.6-1,1.8-1c0.8,0,2.3,0.2,3.4,0.6l1-2.1c-1.5-0.9-3.1-1-4.3-1c-2.8,0-4.4,1.4-4.4,3.6
		c0,2.5,1.9,3.4,4.2,3.9c1.1,0.2,2.4,0.6,2.4,1.4c0,0.7-0.8,1.2-2.2,1.2c-1.1,0-2.3-0.1-3.5-1l-1.2,2.2c1.4,1.1,3.2,1.3,4.8,1.3
		c3.1,0,4.9-1.5,4.9-3.8C241.3,32.8,239.3,32,236.9,31.4z M226.5,38.9h2.6V26.8h-2.6V38.9z M172.6,24.2h-2l-0.7,2.6l-1.8,0.6v1.8
		h1.8v5.5c0,3.3,1.8,4.4,3.9,4.4c0.8,0,1.9-0.2,2.4-0.5v-2.4c-0.6,0.3-1.1,0.4-1.8,0.4c-1.3,0-1.9-0.5-1.9-2v-5.4h3.9v-2.5h-3.9
		V24.2z M161.7,26.5c-1.9,0-3.3,0.7-4.1,2.4l-0.2-2.1H155v12.1h2.6v-6.1c0-2.5,1.1-3.7,3.2-3.7c1.8,0,2.8,0.9,2.8,2.8v7h2.6v-7
		C166.3,28.3,164.5,26.5,161.7,26.5z M184.2,26.5c-3.8,0-6,2.6-6,6.3c0,3.8,2.3,6.3,6.3,6.3c2.1,0,3.6-0.4,5-1.3l-1-2.1
		c-1.3,0.7-2.2,1-3.8,1c-1.9,0-3.5-0.9-3.7-2.8h8.8c0.1-0.4,0.1-0.7,0.1-1.2C190,29.1,188,26.5,184.2,26.5z M181.1,31.8
		c0-1.8,1.2-3,3.1-3c2,0,3,1.1,3,3H181.1z M208.8,26.5c-1.5,0-3.2,0.6-4.1,2.3l-0.2-2h-2.3v16.4h2.6v-4.5c0.9,0.3,1.8,0.5,2.7,0.5
		c4,0,6.6-2.5,6.6-6.6C214.2,28.6,211.9,26.5,208.8,26.5z M207.7,36.8c-1.3,0-2.1-0.2-2.8-0.5v-3.4c0-2.2,1.2-4,3.4-4
		c2.1,0,3.1,1.4,3.1,3.7C211.4,35,210.3,36.8,207.7,36.8z"/>
</g>
<g>
	<linearGradient id="SVGID_1_" gradientUnits="userSpaceOnUse" x1="-2.3183" y1="32.1209" x2="16.9227" y2="28.7282">
		<stop  offset="0.1" style="stop-color:#000F9E"/>
		<stop  offset="1" style="stop-color:#00095C"/>
	</linearGradient>
	<path class="st1" d="M0,45.3l0.7,0.9c0.7,0.1,1.3,0.1,2,0.1h0c8.3,0,10.3-5.3,11.8-11.1l-0.5-0.7L0,45.3z M0,35l0.7,0.9
		c10,0.9,12.1-4.8,13.8-11l-0.5-0.7L0,35z M0,24.8l0.7,0.9c10,0.9,12.1-4.8,13.8-11L13.9,14L0,24.8z"/>
	
		<linearGradient id="SVGID_00000116209614030829264270000012917373997758293661_" gradientUnits="userSpaceOnUse" x1="14.3136" y1="17.0196" x2="32.0158" y2="15.4709">
		<stop  offset="0" style="stop-color:#204D00"/>
		<stop  offset="0.9" style="stop-color:#53C300"/>
	</linearGradient>
	<path style="fill:url(#SVGID_00000116209614030829264270000012917373997758293661_);" d="M15.6,32.1l0.5,0.7l14.6-11.3l-0.7-0.9
		c-0.7-0.1-1.5-0.1-2.1-0.1C19.2,20.5,17.2,26.1,15.6,32.1 M15.6,21.9l0.5,0.7l14.6-11.3l-0.7-0.9c-0.7-0.1-1.5-0.1-2.1-0.1
		C19.2,10.2,17.2,15.9,15.6,21.9 M27.9,0c-8.8,0-10.7,5.7-12.3,11.6l0.5,0.7L30.7,1l-0.7-0.9C29.3,0,28.7,0,27.9,0L27.9,0z"/>
</g>
</svg>
