<?xml version="1.0" encoding="UTF-8" standalone="no"?>
<!-- Created with Inkscape (http://www.inkscape.org/) -->

<svg
   width="585"
   height="156"
   viewBox="0 0 154.78121 41.274998"
   version="1.1"
   id="svg3949"
   inkscape:version="1.2.2 (732a01da63, 2022-12-09)"
   sodipodi:docname="sfc.svg"
   xmlns:inkscape="http://www.inkscape.org/namespaces/inkscape"
   xmlns:sodipodi="http://sodipodi.sourceforge.net/DTD/sodipodi-0.dtd"
   xmlns="http://www.w3.org/2000/svg"
   xmlns:svg="http://www.w3.org/2000/svg">
  <sodipodi:namedview
     id="namedview3951"
     pagecolor="#ffffff"
     bordercolor="#000000"
     borderopacity="0.25"
     inkscape:showpageshadow="2"
     inkscape:pageopacity="0.0"
     inkscape:pagecheckerboard="0"
     inkscape:deskcolor="#d1d1d1"
     inkscape:document-units="mm"
     showgrid="false"
     inkscape:zoom="1.451552"
     inkscape:cx="271.08916"
     inkscape:cy="116.08265"
     inkscape:window-width="2134"
     inkscape:window-height="1122"
     inkscape:window-x="-8"
     inkscape:window-y="-8"
     inkscape:window-maximized="1"
     inkscape:current-layer="layer1" />
  <defs
     id="defs3946" />
  <g
     inkscape:label="Layer 1"
     inkscape:groupmode="layer"
     id="layer1"
     transform="translate(-33.303412,-44.904332)">
    <g
       id="g4606"
       transform="translate(2.9182352,2.3818574)">
      <g
         id="g513"
         transform="matrix(0.35277777,0,0,-0.35277777,43.750326,56.63432)">
        <path
           d="M 0,0 C 8.211,10.559 22.786,13.7 34.649,7.47 48.142,0.385 53.354,-16.357 46.266,-29.851 39.179,-43.337 22.439,-48.555 8.946,-41.47 -3.37,-34.999 -8.975,-20.312 -4.088,-7.305 l -2.976,1.117 c -5.45,-14.505 0.798,-30.881 14.532,-38.094 15.044,-7.902 33.71,-2.088 41.615,12.955 7.896,15.043 2.086,33.708 -12.959,41.609 C 22.899,17.229 6.65,13.729 -2.51,1.954 Z"
           style="fill:#733c97;fill-opacity:1;fill-rule:nonzero;stroke:none"
           id="path515" />
      </g>
      <g
         id="g517"
         transform="matrix(0.35277777,0,0,-0.35277777,64.460886,60.290579)">
        <path
           d="m 0,0 c -1.737,9.617 -7.05,18.06 -14.975,23.774 -8.125,5.859 -18.037,8.203 -27.924,6.602 -9.883,-1.602 -18.555,-6.96 -24.413,-15.081 -5.856,-8.123 -8.206,-18.041 -6.602,-27.925 1.601,-9.884 6.958,-18.556 15.079,-24.414 11.432,-8.243 26.347,-9.4 38.923,-3.019 l -1.436,2.834 c -11.518,-5.843 -25.169,-4.782 -35.625,2.761 -7.439,5.363 -12.339,13.302 -13.804,22.346 -1.468,9.048 0.679,18.122 6.042,25.559 5.362,7.435 13.298,12.335 22.346,13.801 9.045,1.467 18.123,-0.679 25.551,-6.041 7.257,-5.231 12.121,-12.957 13.709,-21.76 z"
           style="fill:#00abbd;fill-opacity:1;fill-rule:nonzero;stroke:none"
           id="path519" />
      </g>
      <g
         id="g521"
         transform="matrix(0.35277777,0,0,-0.35277777,60.749805,50.157179)">
        <path
           d="M 0,0 C -1.837,1.375 -3.813,2.617 -5.879,3.697 -16.308,9.18 -28.25,10.27 -39.502,6.768 -50.754,3.264 -59.971,-4.412 -65.448,-14.843 c -5.482,-10.435 -6.574,-22.38 -3.067,-33.629 3.5,-11.252 11.176,-20.467 21.606,-25.946 5.858,-3.076 12.15,-4.771 18.704,-5.033 l 0.13,3.176 c -6.082,0.244 -11.918,1.816 -17.353,4.67 -9.679,5.082 -16.805,13.632 -20.052,24.076 -3.25,10.44 -2.245,21.529 2.847,31.208 5.08,9.68 13.634,16.804 24.075,20.053 10.441,3.253 21.524,2.243 31.203,-2.845 1.918,-1.002 3.752,-2.16 5.458,-3.435 z"
           style="fill:#733c97;fill-opacity:1;fill-rule:nonzero;stroke:none"
           id="path523" />
      </g>
      <g
         id="g525"
         transform="matrix(0.35277777,0,0,-0.35277777,69.170998,62.328718)">
        <path
           d="m 0,0 c -0.335,18.377 -10.637,35.102 -26.893,43.635 -24.536,12.885 -54.983,3.41 -67.868,-21.126 l 2.812,-1.478 c 12.073,22.985 40.595,31.865 63.581,19.791 15.227,-7.995 24.88,-23.662 25.188,-40.88 z"
           style="fill:#733c97;fill-opacity:1;fill-rule:nonzero;stroke:none"
           id="path527" />
      </g>
      <g
         id="g529"
         transform="matrix(0.35277777,0,0,-0.35277777,33.303412,65.912305)">
        <path
           d="m 0,0 c 6.141,-29.603 35.228,-48.689 64.835,-42.555 l -0.647,3.115 C 36.299,-45.226 8.901,-27.238 3.109,0.645 Z"
           style="fill:#00abbd;fill-opacity:1;fill-rule:nonzero;stroke:none"
           id="path531" />
      </g>
      <g
         id="g533"
         transform="matrix(0.35277777,0,0,-0.35277777,68.498533,67.393689)">
        <path
           d="m 0,0 c -0.752,0.554 -1.755,1.109 -2.684,1.109 -1.556,0 -2.421,-0.91 -2.421,-2.107 0,-1.111 0.955,-1.936 2.951,-3.376 2.133,-1.556 3.375,-2.978 3.375,-4.976 0,-2.465 -2.329,-4.063 -4.818,-4.063 -1.487,0 -3.262,0.533 -4.373,1.619 l 0.955,1.29 c 0.908,-0.642 1.91,-1.352 3.371,-1.352 1.538,0 2.711,0.821 2.711,2.549 0,1.955 -2.331,3.223 -3.595,4.157 -1.286,0.996 -2.736,1.949 -2.736,4.152 0,2.088 2.026,3.662 4.448,3.662 1.616,0 2.97,-0.573 3.836,-1.555 z"
           style="fill:#733c97;fill-opacity:1;fill-rule:nonzero;stroke:none"
           id="path535" />
      </g>
      <g
         id="g537"
         transform="matrix(0.35277777,0,0,-0.35277777,72.6974,71.718991)">
        <path
           d="m 0,0 c -1.09,-0.772 -2.396,-1.152 -3.353,-1.152 -5.258,0 -5.93,4.308 -5.93,5.841 0,2.776 1.84,5.793 6.017,5.793 1.135,0 2.16,-0.286 2.976,-0.913 L -0.958,8.44 c -0.645,0.315 -1.466,0.577 -2.282,0.577 -1.819,0 -3.888,-1.196 -3.888,-4.216 0,-2.312 1.178,-4.484 3.862,-4.484 0.955,0 1.844,0.243 2.71,0.798 z"
           style="fill:#733c97;fill-opacity:1;fill-rule:nonzero;stroke:none"
           id="path539" />
      </g>
      <g
         id="g541"
         transform="matrix(0.35277777,0,0,-0.35277777,73.716116,70.025411)">
        <path
           d="m 0,0 c 0,-2.091 0.711,-4.532 3.309,-4.532 2.619,0 3.328,2.441 3.328,4.532 0,1.994 -0.821,4.259 -3.328,4.259 C 0.822,4.259 0,1.994 0,0 m -2.153,0 c 0,3.597 2.663,5.682 5.462,5.682 2.799,0 5.483,-2.085 5.483,-5.682 0,-3.442 -2.197,-5.953 -5.483,-5.953 -3.264,0 -5.462,2.511 -5.462,5.953"
           style="fill:#733c97;fill-opacity:1;fill-rule:nonzero;stroke:none"
           id="path543" />
      </g>
      <g
         id="g545"
         transform="matrix(0.35277777,0,0,-0.35277777,78.345302,68.113708)">
        <path
           d="M 0,0 H 2.908 V -1.16 H 0 v -6.281 c 0,-1.553 0.314,-2.485 1.536,-2.485 0.727,0 1.147,0.173 1.531,0.375 l 0.487,-1.108 c -0.689,-0.446 -1.514,-0.713 -2.268,-0.713 -2.219,0 -3.284,1.288 -3.284,3.553 V -1.16 H -3.552 V 0 h 1.554 V 2.666 L 0,3.331 Z"
           style="fill:#733c97;fill-opacity:1;fill-rule:nonzero;stroke:none"
           id="path547" />
      </g>
      <g
         id="g549"
         transform="matrix(0.35277777,0,0,-0.35277777,80.812312,68.113708)">
        <path
           d="M 0,0 H 2.912 V -1.16 H 0 v -6.281 c 0,-1.553 0.311,-2.485 1.536,-2.485 0.727,0 1.154,0.173 1.53,0.375 l 0.492,-1.108 c -0.689,-0.446 -1.514,-0.713 -2.272,-0.713 -2.219,0 -3.281,1.288 -3.281,3.553 V -1.16 H -3.553 V 0 h 1.558 V 2.666 L 0,3.331 Z"
           style="fill:#733c97;fill-opacity:1;fill-rule:nonzero;stroke:none"
           id="path551" />
      </g>
      <path
         d="m 83.115563,72.031553 h -0.703792 v -3.917598 h 0.703792 z m -0.797984,-5.20947 c 0,-0.195791 0.164042,-0.415925 0.444853,-0.415925 0.282928,0 0.44697,0.220134 0.44697,0.415925 0,0.211314 -0.100895,0.477661 -0.44697,0.477661 -0.345017,0 -0.444853,-0.266347 -0.444853,-0.477661"
         style="fill:#733c97;fill-opacity:1;fill-rule:nonzero;stroke:none;stroke-width:0.352778"
         id="path553" />
      <g
         id="g555"
         transform="matrix(0.35277777,0,0,-0.35277777,85.881799,68.741406)">
        <path
           d="m 0,0 c -0.801,0.531 -1.444,0.711 -2.044,0.711 -0.71,0 -1.621,-0.333 -1.621,-1.265 0,-0.936 1.019,-1.403 2.289,-2.356 1.419,-1.084 2.352,-1.998 2.352,-3.551 0,-1.87 -1.841,-3.132 -3.888,-3.132 -1.27,0 -2.683,0.555 -3.418,1.4 l 0.976,1.131 c 0.644,-0.596 1.509,-1.11 2.4,-1.11 0.929,0 1.888,0.488 1.888,1.575 0,1.291 -1.159,1.845 -2.2,2.603 -1.268,0.906 -2.377,1.661 -2.377,3.173 0,1.755 1.733,2.863 3.687,2.863 1.091,0 2.152,-0.444 2.728,-1.019 z"
           style="fill:#733c97;fill-opacity:1;fill-rule:nonzero;stroke:none"
           id="path557" />
      </g>
      <g
         id="g559"
         transform="matrix(0.35277777,0,0,-0.35277777,87.549556,68.600154)">
        <path
           d="m 0,0 c 1.044,1.11 2.644,1.642 3.798,1.642 2.554,0 3.929,-1.423 3.929,-4.217 V -9.727 H 5.731 v 6.729 c 0,2.089 -0.888,3.174 -2.686,3.174 -1.579,0 -3.021,-1.085 -3.021,-3.217 V -9.727 H -1.979 V 6.596 H 0 Z"
           style="fill:#733c97;fill-opacity:1;fill-rule:nonzero;stroke:none"
           id="path561" />
      </g>
      <g
         id="g563"
         transform="matrix(0.35277777,0,0,-0.35277777,95.994174,67.094992)">
        <path
           d="m 0,0 h -5.51 v -5.908 h 5.402 V -7.465 H -5.51 v -6.528 H -7.66 V 1.551 H 0 Z"
           style="fill:#733c97;fill-opacity:1;fill-rule:nonzero;stroke:none"
           id="path565" />
      </g>
      <g
         id="g567"
         transform="matrix(0.35277777,0,0,-0.35277777,99.362461,71.576363)">
        <path
           d="m 0,0 c -1.131,-0.977 -2.135,-1.557 -3.572,-1.557 -2.557,0 -3.934,1.421 -3.934,4.22 v 7.152 h 2.001 V 3.104 c 0,-2.086 0.885,-3.191 2.678,-3.191 1.54,0 2.806,1.258 2.806,3.42 V 9.815 H 1.975 V -1.29 H 0 Z"
           style="fill:#733c97;fill-opacity:1;fill-rule:nonzero;stroke:none"
           id="path569" />
      </g>
      <g
         id="g571"
         transform="matrix(0.35277777,0,0,-0.35277777,101.68032,68.600154)">
        <path
           d="m 0,0 c 1.046,1.11 2.643,1.642 3.797,1.642 2.557,0 3.933,-1.423 3.933,-4.217 V -9.727 H 5.734 v 6.729 c 0,2.089 -0.892,3.174 -2.692,3.174 -1.574,0 -3.014,-1.085 -3.014,-3.217 V -9.727 H -1.978 V 1.379 H 0 Z"
           style="fill:#733c97;fill-opacity:1;fill-rule:nonzero;stroke:none"
           id="path573" />
      </g>
      <g
         id="g575"
         transform="matrix(0.35277777,0,0,-0.35277777,108.14398,69.947553)">
        <path
           d="m 0,0 c 0,2.089 -1.136,4.038 -3.308,4.038 -2.313,0 -3.262,-1.821 -3.262,-4.172 0,-2.376 1.019,-4.619 3.131,-4.619 C -1.023,-4.753 0,-2.464 0,0 m 0,-4.151 h -0.043 c -0.776,-1.088 -1.956,-2.023 -3.775,-2.023 -3.002,0 -4.908,2.4 -4.908,5.953 0,2.888 2.085,5.682 5.131,5.682 1.506,0 2.861,-0.575 3.552,-1.642 H 0 v 6.596 H 1.997 V -5.907 H 0 Z"
           style="fill:#733c97;fill-opacity:1;fill-rule:nonzero;stroke:none"
           id="path577" />
      </g>
      <path
         d="m 110.46254,72.031553 h -0.7052 v -3.917598 h 0.7052 z m -0.8001,-5.20947 c 0,-0.195791 0.16475,-0.415925 0.44838,-0.415925 0.28046,0 0.44662,0.220134 0.44662,0.415925 0,0.211314 -0.10231,0.477661 -0.44662,0.477661 -0.34607,0 -0.44838,-0.266347 -0.44838,-0.477661"
         style="fill:#733c97;fill-opacity:1;fill-rule:nonzero;stroke:none;stroke-width:0.352778"
         id="path579" />
      <g
         id="g581"
         transform="matrix(0.35277777,0,0,-0.35277777,112.0831,68.600154)">
        <path
           d="m 0,0 c 1.044,1.11 2.645,1.642 3.802,1.642 2.551,0 3.925,-1.423 3.925,-4.217 V -9.727 H 5.729 v 6.729 c 0,2.089 -0.885,3.174 -2.683,3.174 -1.579,0 -3.021,-1.085 -3.021,-3.217 V -9.727 H -1.974 V 1.379 H 0 Z"
           style="fill:#733c97;fill-opacity:1;fill-rule:nonzero;stroke:none"
           id="path583" />
      </g>
      <g
         id="g585"
         transform="matrix(0.35277777,0,0,-0.35277777,118.54645,69.947553)">
        <path
           d="m 0,0 c 0,2.089 -1.13,4.038 -3.307,4.038 -2.309,0 -3.264,-1.821 -3.264,-4.172 0,-2.376 1.019,-4.619 3.131,-4.619 C -1.024,-4.753 0,-2.464 0,0 m 2.001,-5.509 c 0,-4.241 -2.647,-5.951 -5.639,-5.951 -1.648,0 -3.292,0.314 -4.577,1.109 l 0.555,1.314 c 1.354,-0.777 2.598,-1.001 3.971,-1.001 2.293,0 3.689,1.466 3.689,4.375 v 1.512 h -0.043 c -0.777,-1.088 -1.958,-2.023 -3.708,-2.023 -3.067,0 -4.976,2.4 -4.976,5.953 0,2.888 2.134,5.682 5.308,5.682 1.333,0 2.752,-0.663 3.376,-1.799 H 0 v 1.536 h 2.001 z"
           style="fill:#733c97;fill-opacity:1;fill-rule:nonzero;stroke:none"
           id="path587" />
      </g>
      <g
         id="g589"
         transform="matrix(0.35277777,0,0,-0.35277777,126.39508,67.480155)">
        <path
           d="m 0,0 c -0.73,0.601 -2.395,1.354 -4.063,1.354 -3.842,0 -6.105,-2.75 -6.105,-6.396 0,-3.928 2.711,-6.569 6.105,-6.569 1.689,0 3.021,0.532 3.93,1.15 l 0.847,-1.286 c -1.044,-0.708 -2.891,-1.421 -4.885,-1.421 -5.554,0 -8.373,3.792 -8.373,8.081 0,3.91 3.066,7.996 8.635,7.996 2.219,0 3.776,-0.777 4.797,-1.574 z"
           style="fill:#733c97;fill-opacity:1;fill-rule:nonzero;stroke:none"
           id="path591" />
      </g>
      <g
         id="g593"
         transform="matrix(0.35277777,0,0,-0.35277777,127.79137,70.025411)">
        <path
           d="m 0,0 c 0,-2.091 0.704,-4.532 3.302,-4.532 2.624,0 3.334,2.441 3.334,4.532 0,1.994 -0.827,4.259 -3.334,4.259 C 0.815,4.259 0,1.994 0,0 m -2.16,0 c 0,3.597 2.668,5.682 5.462,5.682 2.8,0 5.488,-2.085 5.488,-5.682 0,-3.442 -2.202,-5.953 -5.488,-5.953 -3.263,0 -5.462,2.511 -5.462,5.953"
           style="fill:#733c97;fill-opacity:1;fill-rule:nonzero;stroke:none"
           id="path595" />
      </g>
      <g
         id="g597"
         transform="matrix(0.35277777,0,0,-0.35277777,134.16652,71.576363)">
        <path
           d="m 0,0 c -1.136,-0.977 -2.137,-1.557 -3.577,-1.557 -2.552,0 -3.928,1.421 -3.928,4.22 v 7.152 h 1.996 V 3.104 c 0,-2.086 0.891,-3.191 2.689,-3.191 1.53,0 2.794,1.258 2.794,3.42 V 9.815 H 1.975 V -1.29 H 0 Z"
           style="fill:#733c97;fill-opacity:1;fill-rule:nonzero;stroke:none"
           id="path599" />
      </g>
      <g
         id="g601"
         transform="matrix(0.35277777,0,0,-0.35277777,136.48473,68.600154)">
        <path
           d="m 0,0 c 1.041,1.11 2.641,1.642 3.797,1.642 2.557,0 3.928,-1.423 3.928,-4.217 V -9.727 H 5.728 v 6.729 c 0,2.089 -0.889,3.174 -2.686,3.174 -1.579,0 -3.021,-1.085 -3.021,-3.217 V -9.727 H -1.978 V 1.379 H 0 Z"
           style="fill:#733c97;fill-opacity:1;fill-rule:nonzero;stroke:none"
           id="path603" />
      </g>
      <g
         id="g605"
         transform="matrix(0.35277777,0,0,-0.35277777,143.14271,71.718991)">
        <path
           d="m 0,0 c -1.084,-0.772 -2.396,-1.152 -3.351,-1.152 -5.263,0 -5.931,4.308 -5.931,5.841 0,2.776 1.845,5.793 6.017,5.793 1.134,0 2.155,-0.286 2.977,-0.913 L -0.95,8.44 c -0.646,0.315 -1.467,0.577 -2.289,0.577 -1.823,0 -3.888,-1.196 -3.888,-4.216 0,-2.312 1.178,-4.484 3.862,-4.484 0.959,0 1.846,0.243 2.709,0.798 z"
           style="fill:#733c97;fill-opacity:1;fill-rule:nonzero;stroke:none"
           id="path607" />
      </g>
      <path
         d="m 144.3733,72.031553 h -0.70414 v -3.917598 h 0.70414 z m -0.8001,-5.20947 c 0,-0.195791 0.16546,-0.415925 0.44627,-0.415925 0.28434,0 0.44661,0.220134 0.44661,0.415925 0,0.211314 -0.10195,0.477661 -0.44661,0.477661 -0.34431,0 -0.44627,-0.266347 -0.44627,-0.477661"
         style="fill:#733c97;fill-opacity:1;fill-rule:nonzero;stroke:none;stroke-width:0.352778"
         id="path609" />
      <path
         d="m 145.29758,66.273514 h 0.70485 v 5.758039 h -0.70485 z"
         style="fill:#733c97;fill-opacity:1;fill-rule:nonzero;stroke:none;stroke-width:0.352778"
         id="path611" />
      <path
         d="m 166.46919,79.154488 h 1.72755 v 0.568325 h -1.72755 z"
         style="fill:#00abbd;fill-opacity:1;fill-rule:nonzero;stroke:none;stroke-width:0.352778"
         id="path613" />
      <g
         id="g615"
         transform="matrix(0.35277777,0,0,-0.35277777,69.779399,77.120901)">
        <path
           d="m 0,0 c -0.686,0.555 -2.216,1.251 -3.759,1.251 -3.553,0 -5.648,-2.544 -5.648,-5.913 0,-3.63 2.507,-6.078 5.648,-6.078 1.561,0 2.79,0.497 3.633,1.069 l 0.778,-1.191 c -0.963,-0.657 -2.666,-1.312 -4.515,-1.312 -5.131,0 -7.738,3.511 -7.738,7.471 0,3.617 2.83,7.391 7.982,7.391 2.057,0 3.493,-0.718 4.44,-1.459 z"
           style="fill:#00abbd;fill-opacity:1;fill-rule:nonzero;stroke:none"
           id="path617" />
      </g>
      <g
         id="g619"
         transform="matrix(0.35277777,0,0,-0.35277777,71.283537,79.475622)">
        <path
           d="m 0,0 c 0,-1.928 0.665,-4.187 3.064,-4.187 2.421,0 3.081,2.259 3.081,4.187 0,1.85 -0.767,3.943 -3.081,3.943 C 0.768,3.943 0,1.85 0,0 m -1.985,0 c 0,3.329 2.46,5.257 5.049,5.257 2.589,0 5.071,-1.928 5.071,-5.257 0,-3.179 -2.035,-5.499 -5.071,-5.499 -3.019,0 -5.049,2.32 -5.049,5.499"
           style="fill:#00abbd;fill-opacity:1;fill-rule:nonzero;stroke:none"
           id="path621" />
      </g>
      <g
         id="g623"
         transform="matrix(0.35277777,0,0,-0.35277777,75.623656,78.157539)">
        <path
           d="M 0,0 C 0.843,0.986 2.072,1.521 3.199,1.521 4.822,1.521 5.828,0.844 6.468,0 7.453,0.907 8.848,1.521 10,1.521 c 2.274,0 3.427,-1.477 3.486,-3.653 v -6.86 h -1.847 v 6.121 c 0,1.475 -0.368,2.957 -2.258,2.957 -1.559,0 -2.629,-0.823 -2.629,-2.897 V -8.992 H 4.907 v 6.121 c 0,1.928 -0.822,2.957 -2.318,2.957 -1.562,0 -2.572,-1.008 -2.572,-2.977 V -8.992 H -1.827 V 1.277 H 0 Z"
           style="fill:#00abbd;fill-opacity:1;fill-rule:nonzero;stroke:none"
           id="path625" />
      </g>
      <g
         id="g627"
         transform="matrix(0.35277777,0,0,-0.35277777,82.096987,78.157539)">
        <path
           d="m 0,0 c 0.965,1.029 2.445,1.521 3.512,1.521 2.364,0 3.634,-1.314 3.634,-3.903 v -6.61 H 5.302 v 6.223 c 0,1.93 -0.823,2.935 -2.488,2.935 -1.454,0 -2.789,-1.005 -2.789,-2.977 V -8.992 H -1.827 V 6.1 H 0 Z"
           style="fill:#00abbd;fill-opacity:1;fill-rule:nonzero;stroke:none"
           id="path629" />
      </g>
      <g
         id="g631"
         transform="matrix(0.35277777,0,0,-0.35277777,86.987651,79.387428)">
        <path
           d="m 0,0 c -1.626,-0.496 -2.464,-1.274 -2.464,-2.564 0,-1.071 0.738,-1.751 1.478,-1.751 1.313,0 2.996,1.624 2.75,4.832 z m 1.109,-4.391 c -0.72,-0.723 -1.626,-1.358 -2.572,-1.358 -1.719,0 -2.91,1.23 -2.91,3.163 0,1.786 1.519,2.914 3.655,3.551 l 2.482,0.778 c -0.077,1.253 -1.045,2.054 -2.057,2.054 -1.19,0 -1.948,-0.491 -2.683,-1.111 l -0.723,0.926 c 1.024,0.985 2.073,1.395 3.514,1.395 1.54,0 3.794,-0.491 3.794,-3.489 v -4.517 c 0,-0.783 0.104,-1.767 0.455,-2.507 H 2.058 c -0.251,0.434 -0.294,1.09 -0.294,1.748 z"
           style="fill:#00abbd;fill-opacity:1;fill-rule:nonzero;stroke:none"
           id="path633" />
      </g>
      <path
         d="m 89.963685,81.329716 h -0.649464 v -3.623027 h 0.649464 z m -0.738011,-4.81718 c 0,-0.180622 0.150283,-0.383822 0.414161,-0.383822 0.258233,0 0.411339,0.2032 0.411339,0.383822 0,0.196497 -0.09384,0.442736 -0.411339,0.442736 -0.320322,0 -0.414161,-0.246239 -0.414161,-0.442736"
         style="fill:#00abbd;fill-opacity:1;fill-rule:nonzero;stroke:none;stroke-width:0.352778"
         id="path635" />
      <g
         id="g637"
         transform="matrix(0.35277777,0,0,-0.35277777,91.67127,78.157539)">
        <path
           d="m 0,0 0.741,0.782 c 0.434,0.432 1.109,0.739 1.54,0.739 0.455,0 1.129,-0.329 1.705,-1.007 L 3.14,-0.679 c -0.447,0.227 -0.903,0.437 -1.37,0.437 -0.943,0 -1.725,-0.945 -1.725,-3.229 V -8.992 H -1.801 V 1.277 H 0 Z"
           style="fill:#00abbd;fill-opacity:1;fill-rule:nonzero;stroke:none"
           id="path639" />
      </g>
      <path
         d="m 93.556021,76.005594 h 0.652991 v 5.324122 h -0.652991 z"
         style="fill:#00abbd;fill-opacity:1;fill-rule:nonzero;stroke:none;stroke-width:0.352778"
         id="path641" />
      <g
         id="g643"
         transform="matrix(0.35277777,0,0,-0.35277777,97.554122,79.126654)">
        <path
           d="M 0,0 C 0,1.603 -0.68,2.954 -2.302,2.954 -4.271,2.954 -5.05,1.313 -5.114,0 Z m -5.239,-1.235 c -0.018,-2.051 1.441,-3.942 3.475,-3.942 0.943,0 2.095,0.349 2.812,0.885 l 0.529,-1.006 c -1.062,-0.762 -2.334,-1.19 -3.404,-1.19 -3.206,0 -5.322,1.967 -5.322,5.585 0,3.548 2.55,5.171 4.869,5.171 3.117,0 4.167,-2.809 3.966,-5.503 z"
           style="fill:#00abbd;fill-opacity:1;fill-rule:nonzero;stroke:none"
           id="path645" />
      </g>
      <g
         id="g647"
         transform="matrix(0.35277777,0,0,-0.35277777,153.11111,78.157539)">
        <path
           d="m 0,0 c 0.967,1.029 2.442,1.521 3.517,1.521 2.357,0 3.631,-1.314 3.631,-3.903 v -6.61 h -1.85 v 6.223 c 0,1.93 -0.82,2.935 -2.485,2.935 -1.455,0 -2.792,-1.005 -2.792,-2.977 V -8.992 H -1.824 V 1.277 H 0 Z"
           style="fill:#00abbd;fill-opacity:1;fill-rule:nonzero;stroke:none"
           id="path649" />
      </g>
      <g
         id="g651"
         transform="matrix(0.35277777,0,0,-0.35277777,158.00072,79.387428)">
        <path
           d="m 0,0 c -1.625,-0.496 -2.464,-1.274 -2.464,-2.564 0,-1.071 0.739,-1.751 1.48,-1.751 1.312,0 2.994,1.624 2.749,4.832 z m 1.105,-4.391 c -0.714,-0.723 -1.616,-1.358 -2.566,-1.358 -1.722,0 -2.913,1.23 -2.913,3.163 0,1.786 1.524,2.914 3.657,3.551 L 1.765,1.743 C 1.682,2.996 0.719,3.797 -0.287,3.797 -1.482,3.797 -2.241,3.306 -2.98,2.686 l -0.713,0.926 c 1.022,0.985 2.068,1.395 3.507,1.395 1.54,0 3.799,-0.491 3.799,-3.489 v -4.517 c 0,-0.783 0.104,-1.767 0.452,-2.507 H 2.057 c -0.254,0.434 -0.292,1.09 -0.292,1.748 z"
           style="fill:#00abbd;fill-opacity:1;fill-rule:nonzero;stroke:none"
           id="path653" />
      </g>
      <g
         id="g655"
         transform="matrix(0.35277777,0,0,-0.35277777,163.04883,78.157539)">
        <path
           d="m 0,0 c 0.963,1.029 2.442,1.521 3.509,1.521 2.365,0 3.637,-1.314 3.637,-3.903 v -6.61 H 5.295 v 6.223 c 0,1.93 -0.823,2.935 -2.483,2.935 -1.458,0 -2.791,-1.005 -2.791,-2.977 V -8.992 H -1.827 V 6.1 H 0 Z"
           style="fill:#00abbd;fill-opacity:1;fill-rule:nonzero;stroke:none"
           id="path657" />
      </g>
      <g
         id="g659"
         transform="matrix(0.35277777,0,0,-0.35277777,171.4769,79.329925)">
        <path
           d="M 0,0 C -0.714,1.993 -1.41,3.982 -2.132,6.567 H -2.171 C -2.916,3.982 -3.668,1.993 -4.45,0 Z M -1.104,8.708 4.254,-5.669 H 1.953 l -1.475,4.232 h -5.483 l -1.54,-4.232 h -1.928 l 5.849,14.377 z"
           style="fill:#00abbd;fill-opacity:1;fill-rule:nonzero;stroke:none"
           id="path661" />
      </g>
      <path
         d="m 173.48417,76.005594 h 0.65335 v 5.324122 h -0.65335 z"
         style="fill:#00abbd;fill-opacity:1;fill-rule:nonzero;stroke:none;stroke-width:0.352778"
         id="path663" />
      <g
         id="g665"
         transform="matrix(0.35277777,0,0,-0.35277777,177.99087,79.416391)">
        <path
           d="m 0,0 c 0,1.866 -0.948,3.775 -2.859,3.775 -2.097,0 -3.226,-1.621 -3.226,-4.267 0,-1.973 0.905,-3.863 3.207,-3.863 C -0.663,-4.355 0,-1.866 0,0 m -7.932,9.668 h 1.847 V 3.242 h 0.042 c 0.765,1.234 2.219,1.847 3.366,1.847 4.006,0 4.663,-3.591 4.663,-5.07 0,-3.12 -1.845,-5.686 -4.864,-5.686 -1.289,0 -2.4,0.616 -3.165,1.603 h -0.042 v -1.36 h -1.847 z"
           style="fill:#00abbd;fill-opacity:1;fill-rule:nonzero;stroke:none"
           id="path667" />
      </g>
      <g
         id="g669"
         transform="matrix(0.35277777,0,0,-0.35277777,180.81415,79.387428)">
        <path
           d="m 0,0 c -1.622,-0.496 -2.468,-1.274 -2.468,-2.564 0,-1.071 0.745,-1.751 1.484,-1.751 1.312,0 3.001,1.624 2.748,4.832 z m 1.115,-4.391 c -0.722,-0.723 -1.627,-1.358 -2.573,-1.358 -1.724,0 -2.915,1.23 -2.915,3.163 0,1.786 1.522,2.914 3.654,3.551 L 1.764,1.743 C 1.678,2.996 0.72,3.797 -0.287,3.797 -1.479,3.797 -2.24,3.306 -2.971,2.686 l -0.727,0.926 c 1.032,0.985 2.076,1.395 3.513,1.395 1.54,0 3.8,-0.491 3.8,-3.489 v -4.517 c 0,-0.783 0.102,-1.767 0.45,-2.507 H 2.057 c -0.246,0.434 -0.293,1.09 -0.293,1.748 z"
           style="fill:#00abbd;fill-opacity:1;fill-rule:nonzero;stroke:none"
           id="path671" />
      </g>
      <g
         id="g673"
         transform="matrix(0.35277777,0,0,-0.35277777,106.30259,81.291898)">
        <path
           d="M 0,0 H -1.992 V 11.701 H -2.04 C -2.606,10.02 -5.875,3.677 -7.802,0 h -0.802 c -1.784,3.677 -4.759,9.814 -5.319,11.701 H -13.96 V 0 h -1.64 v 14.373 h 2.127 c 1.851,-3.82 3.697,-7.657 5.529,-11.702 2.026,4.045 4.06,7.882 6.083,11.702 H 0 Z"
           style="fill:#00abbd;fill-opacity:1;fill-rule:nonzero;stroke:none"
           id="path675" />
      </g>
      <g
         id="g677"
         transform="matrix(0.35277777,0,0,-0.35277777,108.74483,79.350598)">
        <path
           d="m 0,0 c -1.625,-0.491 -2.472,-1.276 -2.472,-2.567 0,-1.065 0.743,-1.744 1.48,-1.744 1.319,0 2.997,1.621 2.752,4.822 z m 1.102,-4.394 c -0.718,-0.719 -1.617,-1.355 -2.568,-1.355 -1.72,0 -2.912,1.23 -2.912,3.163 0,1.786 1.518,2.914 3.656,3.548 L 1.76,1.745 C 1.678,2.998 0.715,3.798 -0.292,3.798 -1.478,3.798 -2.246,3.306 -2.98,2.689 L -3.698,3.61 c 1.023,0.988 2.073,1.398 3.51,1.398 1.542,0 3.797,-0.491 3.797,-3.491 v -4.514 c 0,-0.783 0.104,-1.768 0.449,-2.506 H 2.052 C 1.799,-5.071 1.76,-4.415 1.76,-3.759 Z"
           style="fill:#00abbd;fill-opacity:1;fill-rule:nonzero;stroke:none"
           id="path679" />
      </g>
      <g
         id="g681"
         transform="matrix(0.35277777,0,0,-0.35277777,111.525,79.437734)">
        <path
           d="m 0,0 c 0,-1.931 0.657,-4.187 3.06,-4.187 2.419,0 3.077,2.256 3.077,4.187 0,1.847 -0.762,3.939 -3.077,3.939 C 0.762,3.939 0,1.847 0,0 m -1.992,0 c 0,3.328 2.46,5.255 5.052,5.255 2.582,0 5.066,-1.927 5.066,-5.255 0,-3.184 -2.027,-5.502 -5.066,-5.502 -3.022,0 -5.052,2.318 -5.052,5.502"
           style="fill:#00abbd;fill-opacity:1;fill-rule:nonzero;stroke:none"
           id="path683" />
      </g>
      <path
         d="m 115.86851,81.291969 h -0.65123 v -3.620558 h 0.65123 z m -0.73731,-4.816828 c 0,-0.180622 0.1517,-0.382411 0.41064,-0.382411 0.26317,0 0.41451,0.201789 0.41451,0.382411 0,0.195439 -0.0953,0.442736 -0.41451,0.442736 -0.31786,0 -0.41064,-0.247297 -0.41064,-0.442736"
         style="fill:#00abbd;fill-opacity:1;fill-rule:nonzero;stroke:none;stroke-width:0.352778"
         id="path685" />
      <g
         id="g687"
         transform="matrix(0.35277777,0,0,-0.35277777,117.587,78.11965)">
        <path
           d="m 0,0 c 0.961,1.027 2.445,1.519 3.511,1.519 2.361,0 3.635,-1.316 3.635,-3.902 v -6.609 h -1.85 v 6.221 c 0,1.929 -0.822,2.936 -2.485,2.936 -1.455,0 -2.792,-1.007 -2.792,-2.975 V -8.992 H -1.826 V 1.271 H 0 Z"
           style="fill:#00abbd;fill-opacity:1;fill-rule:nonzero;stroke:none"
           id="path689" />
      </g>
      <g
         id="g691"
         transform="matrix(0.35277777,0,0,-0.35277777,123.4533,79.089789)">
        <path
           d="M 0,0 C 0,1.602 -0.68,2.953 -2.296,2.953 -4.271,2.953 -5.05,1.312 -5.113,0 Z m -5.234,-1.23 c -0.023,-2.053 1.437,-3.943 3.469,-3.943 0.944,0 2.097,0.349 2.81,0.877 l 0.538,-1.002 c -1.071,-0.76 -2.348,-1.19 -3.412,-1.19 -3.199,0 -5.316,1.968 -5.316,5.584 0,3.55 2.543,5.173 4.866,5.173 3.118,0 4.168,-2.813 3.961,-5.499 z"
           style="fill:#00abbd;fill-opacity:1;fill-rule:nonzero;stroke:none"
           id="path693" />
      </g>
      <g
         id="g695"
         transform="matrix(0.35277777,0,0,-0.35277777,126.14633,79.350598)">
        <path
           d="m 0,0 c -1.622,-0.491 -2.458,-1.276 -2.458,-2.567 0,-1.065 0.733,-1.744 1.473,-1.744 1.315,0 3.002,1.621 2.757,4.822 z m 1.11,-4.394 c -0.718,-0.719 -1.617,-1.355 -2.567,-1.355 -1.726,0 -2.911,1.23 -2.911,3.163 0,1.786 1.52,2.914 3.654,3.548 L 1.772,1.745 C 1.69,2.998 0.724,3.798 -0.284,3.798 -1.476,3.798 -2.236,3.306 -2.976,2.689 L -3.69,3.61 c 1.024,0.988 2.068,1.398 3.51,1.398 1.54,0 3.792,-0.491 3.792,-3.491 v -4.514 c 0,-0.783 0.114,-1.768 0.451,-2.506 H 2.06 c -0.254,0.432 -0.288,1.088 -0.288,1.744 z"
           style="fill:#00abbd;fill-opacity:1;fill-rule:nonzero;stroke:none"
           id="path697" />
      </g>
      <g
         id="g699"
         transform="matrix(0.35277777,0,0,-0.35277777,131.25367,81.002832)">
        <path
           d="m 0,0 c -1.007,-0.72 -2.215,-1.065 -3.107,-1.065 -4.86,0 -5.473,3.982 -5.473,5.397 0,2.567 1.707,5.359 5.56,5.359 1.045,0 1.992,-0.265 2.752,-0.843 L -0.882,7.803 c -0.597,0.289 -1.35,0.535 -2.116,0.535 -1.686,0 -3.596,-1.11 -3.596,-3.901 0,-2.133 1.087,-4.147 3.574,-4.147 0.886,0 1.708,0.225 2.513,0.736 z"
           style="fill:#00abbd;fill-opacity:1;fill-rule:nonzero;stroke:none"
           id="path701" />
      </g>
      <g
         id="g703"
         transform="matrix(0.35277777,0,0,-0.35277777,132.60174,78.11965)">
        <path
           d="m 0,0 c 0.956,1.027 2.44,1.519 3.506,1.519 2.362,0 3.636,-1.316 3.636,-3.902 V -8.992 H 5.291 v 6.221 c 0,1.929 -0.82,2.936 -2.48,2.936 -1.455,0 -2.796,-1.007 -2.796,-2.975 V -8.992 H -1.831 V 6.098 H 0 Z"
           style="fill:#00abbd;fill-opacity:1;fill-rule:nonzero;stroke:none"
           id="path705" />
      </g>
      <g
         id="g707"
         transform="matrix(0.35277777,0,0,-0.35277777,137.4893,79.350598)">
        <path
           d="m 0,0 c -1.626,-0.491 -2.465,-1.276 -2.465,-2.567 0,-1.065 0.74,-1.744 1.475,-1.744 1.316,0 3.003,1.621 2.753,4.822 z m 1.11,-4.394 c -0.722,-0.719 -1.627,-1.355 -2.568,-1.355 -1.725,0 -2.917,1.23 -2.917,3.163 0,1.786 1.52,2.914 3.655,3.548 l 2.483,0.783 c -0.08,1.253 -1.041,2.053 -2.055,2.053 -1.187,0 -1.944,-0.492 -2.685,-1.109 L -3.699,3.61 c 1.033,0.988 2.073,1.398 3.512,1.398 1.541,0 3.8,-0.491 3.8,-3.491 v -4.514 c 0,-0.783 0.103,-1.768 0.451,-2.506 H 2.056 c -0.249,0.432 -0.293,1.088 -0.293,1.744 z"
           style="fill:#00abbd;fill-opacity:1;fill-rule:nonzero;stroke:none"
           id="path709" />
      </g>
      <path
         d="m 140.4677,81.291969 h -0.65546 v -3.620558 h 0.65546 z m -0.74189,-4.816828 c 0,-0.180622 0.15346,-0.382411 0.41557,-0.382411 0.25788,0 0.41099,0.201789 0.41099,0.382411 0,0.195439 -0.0942,0.442736 -0.41099,0.442736 -0.31997,0 -0.41557,-0.247297 -0.41557,-0.442736"
         style="fill:#00abbd;fill-opacity:1;fill-rule:nonzero;stroke:none;stroke-width:0.352778"
         id="path711" />
      <g
         id="g713"
         transform="matrix(0.35277777,0,0,-0.35277777,144.13733,79.365732)">
        <path
           d="m 0,0 c 0,1.933 -1.048,3.735 -3.057,3.735 -2.132,0 -3.014,-1.681 -3.014,-3.857 0,-2.197 0.946,-4.269 2.889,-4.269 C -0.949,-4.391 0,-2.276 0,0 m 0,-3.836 h -0.043 c -0.713,-1.007 -1.8,-1.87 -3.487,-1.87 -2.765,0 -4.536,2.216 -4.536,5.502 0,2.67 1.93,5.255 4.743,5.255 1.392,0 2.645,-0.533 3.28,-1.519 H 0 V 9.63 H 1.851 V -5.46 H 0 Z"
           style="fill:#00abbd;fill-opacity:1;fill-rule:nonzero;stroke:none"
           id="path715" />
      </g>
      <g
         id="g717"
         transform="matrix(0.35277777,0,0,-0.35277777,146.49099,78.11965)">
        <path
           d="m 0,0 c 0.964,1.027 2.442,1.519 3.515,1.519 2.355,0 3.633,-1.316 3.633,-3.902 V -8.992 H 5.299 v 6.221 c 0,1.929 -0.825,2.936 -2.486,2.936 -1.454,0 -2.792,-1.007 -2.792,-2.975 V -8.992 H -1.824 V 6.098 H 0 Z"
           style="fill:#00abbd;fill-opacity:1;fill-rule:nonzero;stroke:none"
           id="path719" />
      </g>
    </g>
  </g>
</svg>
