<?xml version="1.0" encoding="UTF-8" standalone="no"?>
<!-- Created with Inkscape (http://www.inkscape.org/) -->

<svg
   width="28.514322mm"
   height="28.499861mm"
   viewBox="0 0 28.514322 28.499861"
   version="1.1"
   id="svg880"
   inkscape:version="1.2.2 (732a01da63, 2022-12-09)"
   sodipodi:docname="Scottish Refugee Council.svg"
   xmlns:inkscape="http://www.inkscape.org/namespaces/inkscape"
   xmlns:sodipodi="http://sodipodi.sourceforge.net/DTD/sodipodi-0.dtd"
   xmlns="http://www.w3.org/2000/svg"
   xmlns:svg="http://www.w3.org/2000/svg">
  <sodipodi:namedview
     id="namedview882"
     pagecolor="#ffffff"
     bordercolor="#000000"
     borderopacity="0.25"
     inkscape:showpageshadow="2"
     inkscape:pageopacity="0.0"
     inkscape:pagecheckerboard="0"
     inkscape:deskcolor="#d1d1d1"
     inkscape:document-units="mm"
     showgrid="false"
     inkscape:zoom="0.78216891"
     inkscape:cx="-247.38902"
     inkscape:cy="166.84376"
     inkscape:window-width="1920"
     inkscape:window-height="1002"
     inkscape:window-x="2125"
     inkscape:window-y="-8"
     inkscape:window-maximized="1"
     inkscape:current-layer="layer1" />
  <defs
     id="defs877">
    <clipPath
       clipPathUnits="userSpaceOnUse"
       id="clipPath236">
      <path
         d="M 0,0 H 419.528 V 595.276 H 0 Z"
         id="path234" />
    </clipPath>
    <clipPath
       clipPathUnits="userSpaceOnUse"
       id="clipPath292">
      <path
         d="M 0,0 H 419.528 V 595.276 H 0 Z"
         id="path290" />
    </clipPath>
    <clipPath
       clipPathUnits="userSpaceOnUse"
       id="clipPath400">
      <path
         d="M 0,0 H 419.528 V 595.276 H 0 Z"
         id="path398" />
    </clipPath>
  </defs>
  <g
     inkscape:label="Layer 1"
     inkscape:groupmode="layer"
     id="layer1"
     transform="translate(-98.386347,-104.48242)">
    <path
       d="m 98.386347,104.48242 h 28.514323 v 28.49986 H 98.386347 Z"
       style="fill:#568cd1;fill-opacity:1;fill-rule:nonzero;stroke:none;stroke-width:0.352778"
       id="path226" />
    <path
       d="M 125.90936,131.99168 H 99.377653 v -26.51796 h 26.531707 z m -25.89353,-0.63818 h 25.25501 v -25.24231 h -25.25501 z"
       style="fill:#ffffff;fill-opacity:1;fill-rule:nonzero;stroke:none;stroke-width:0.352778"
       id="path228" />
    <g
       id="g230"
       transform="matrix(0.35277777,0,0,-0.35277777,-11.099292,304.38253)">
      <g
         id="g232"
         clip-path="url(#clipPath236)">
        <g
           id="g238"
           transform="translate(329.7134,505.6084)">
          <path
             d="m 0,0 c -0.225,2.393 -2.067,3.498 -4.339,3.498 -3.111,0 -4.83,-2.475 -4.83,-5.4 0,-2.926 1.413,-5.606 4.83,-5.606 2.272,0 4.094,1.433 4.442,3.949 h -0.778 c -0.266,-1.923 -1.699,-3.273 -3.664,-3.273 -2.722,0 -4.052,2.086 -4.052,4.93 0,2.393 1.412,4.725 4.052,4.725 1.904,0 3.418,-0.961 3.562,-2.823 z"
             style="fill:#ffffff;fill-opacity:1;fill-rule:nonzero;stroke:none"
             id="path240" />
        </g>
        <g
           id="g242"
           transform="translate(325.3583,497.9196)">
          <path
             d="m 0,0 c -3.683,0 -4.995,2.988 -4.995,5.784 0,3.288 2.054,5.584 4.995,5.584 2.612,0 4.302,-1.383 4.518,-3.7 L 4.551,7.319 h -1.4 L 3.129,7.615 C 2.991,9.426 1.422,10.072 0,10.072 c -2.366,0 -3.603,-2.157 -3.603,-4.288 0,-2.81 1.347,-4.487 3.603,-4.487 1.692,0 2.99,1.171 3.231,2.915 L 3.268,4.488 H 4.666 L 4.616,4.125 C 4.272,1.619 2.46,0 0,0 m 0,10.73 c -3.01,0 -4.357,-2.484 -4.357,-4.946 0,-1.207 0.315,-5.146 4.357,-5.146 2.033,0 3.508,1.221 3.921,3.211 H 3.817 C 3.437,1.929 1.934,0.658 0,0.658 c -2.616,0 -4.242,1.964 -4.242,5.126 0,2.448 1.457,4.926 4.242,4.926 2.03,0 3.462,-1.07 3.731,-2.752 H 3.837 C 3.404,10.452 1.034,10.73 0,10.73"
             style="fill:#ffffff;fill-opacity:1;fill-rule:nonzero;stroke:none"
             id="path244" />
        </g>
        <g
           id="g246"
           transform="translate(331.8796,503.6036)">
          <path
             d="m 0,0 c 0,-2.986 1.74,-5.503 4.831,-5.503 3.09,0 4.83,2.517 4.83,5.503 0,2.987 -1.74,5.503 -4.83,5.503 C 1.74,5.503 0,2.987 0,0 m 0.778,0 c 0,2.516 1.412,4.828 4.053,4.828 C 7.47,4.828 8.883,2.516 8.883,0 8.883,-2.516 7.47,-4.828 4.831,-4.828 2.19,-4.828 0.778,-2.516 0.778,0"
             style="fill:#ffffff;fill-opacity:1;fill-rule:nonzero;stroke:none"
             id="path248" />
        </g>
        <g
           id="g250"
           transform="translate(336.7097,497.9196)">
          <path
             d="m 0,0 c -2.951,0 -5.012,2.337 -5.012,5.684 0,3.347 2.061,5.684 5.012,5.684 2.951,0 5.012,-2.337 5.012,-5.684 C 5.012,2.337 2.951,0 0,0 m 0,10.73 c -3.021,0 -4.373,-2.534 -4.373,-5.046 0,-2.511 1.352,-5.046 4.373,-5.046 3.021,0 4.374,2.535 4.374,5.046 C 4.374,8.196 3.021,10.73 0,10.73 M 0,0.658 c -2.924,0 -4.256,2.606 -4.256,5.026 0,2.421 1.332,5.026 4.256,5.026 2.925,0 4.256,-2.605 4.256,-5.026 C 4.256,3.264 2.925,0.658 0,0.658 m 0,9.414 c -2.485,0 -3.617,-2.275 -3.617,-4.388 0,-2.113 1.132,-4.387 3.617,-4.387 2.486,0 3.618,2.274 3.618,4.387 0,2.113 -1.132,4.388 -3.618,4.388"
             style="fill:#ffffff;fill-opacity:1;fill-rule:nonzero;stroke:none"
             id="path252" />
        </g>
        <g
           id="g254"
           transform="translate(351.9999,508.8608)">
          <path
             d="m 0,0 h -0.778 v -5.686 c 0,-2.578 -1.433,-4.399 -3.786,-4.399 -2.865,0 -2.988,2.353 -2.988,3.437 V 0 H -8.33 v -6.505 c 0,-1.289 0.041,-4.255 3.745,-4.255 1.637,0 3.234,0.921 3.766,2.496 h 0.041 v -2.25 H 0 Z"
             style="fill:#ffffff;fill-opacity:1;fill-rule:nonzero;stroke:none"
             id="path256" />
        </g>
        <g
           id="g258"
           transform="translate(347.4289,497.9196)">
          <path
             d="m 0,0 c -3.94,0 -3.94,3.361 -3.94,4.466 v 6.656 h 1.39 V 4.326 c 0,-1.411 0.292,-3.03 2.57,-3.03 2.03,0 3.342,1.557 3.342,3.966 v 5.86 h 1.39 V 0.239 h -1.39 v 1.33 C 2.607,0.6 1.372,0 0,0 M -3.302,10.484 V 4.466 C -3.302,2.573 -2.91,0.638 0,0.638 0.426,0.638 0.835,0.705 1.215,0.829 0.845,0.717 0.445,0.658 0.02,0.658 c -2.129,0 -3.209,1.234 -3.209,3.668 v 6.158 z M 4,0.877 h 0.113 v 9.607 H 4 V 5.262 C 4,4.444 3.859,3.704 3.597,3.071 H 3.961 L 4,2.751 Z"
             style="fill:#ffffff;fill-opacity:1;fill-rule:nonzero;stroke:none"
             id="path260" />
        </g>
        <g
           id="g262"
           transform="translate(354.5997,498.3464)">
          <path
             d="m 0,0 h 0.777 v 5.687 c 0,2.578 1.433,4.398 3.787,4.398 2.865,0 2.988,-2.352 2.988,-3.436 V 0 H 8.33 V 6.506 C 8.33,7.794 8.288,10.76 4.584,10.76 2.947,10.76 1.351,9.84 0.818,8.265 H 0.777 v 2.249 H 0 Z"
             style="fill:#ffffff;fill-opacity:1;fill-rule:nonzero;stroke:none"
             id="path264" />
        </g>
        <g
           id="g266"
           transform="translate(363.1103,498.1652)">
          <path
             d="m 0,0 h -1.39 v 6.797 c 0,1.411 -0.292,3.03 -2.571,3.03 -2.03,0 -3.341,-1.557 -3.341,-3.967 V 0 h -1.39 v 10.883 h 1.39 V 9.554 c 0.755,0.968 1.99,1.568 3.362,1.568 C 0,11.122 0,7.762 0,6.658 Z m -0.751,0.638 h 0.112 v 6.02 c 0,1.892 -0.392,3.826 -3.301,3.826 -0.417,0 -0.818,-0.064 -1.191,-0.183 0.363,0.107 0.755,0.164 1.17,0.164 2.13,0 3.21,-1.234 3.21,-3.668 z m -7.302,0 h 0.112 V 5.86 c 0,0.82 0.142,1.559 0.403,2.193 h -0.363 l -0.04,0.319 v 1.873 h -0.112 z"
             style="fill:#ffffff;fill-opacity:1;fill-rule:nonzero;stroke:none"
             id="path268" />
        </g>
        <g
           id="g270"
           transform="translate(374.2269,505.6084)">
          <path
             d="m 0,0 c -0.225,2.393 -2.067,3.498 -4.339,3.498 -3.111,0 -4.83,-2.475 -4.83,-5.4 0,-2.926 1.412,-5.606 4.83,-5.606 2.272,0 4.093,1.433 4.442,3.949 h -0.778 c -0.267,-1.923 -1.699,-3.273 -3.664,-3.273 -2.722,0 -4.052,2.086 -4.052,4.93 0,2.393 1.412,4.725 4.052,4.725 1.904,0 3.418,-0.961 3.561,-2.823 z"
             style="fill:#ffffff;fill-opacity:1;fill-rule:nonzero;stroke:none"
             id="path272" />
        </g>
        <g
           id="g274"
           transform="translate(369.8714,497.9196)">
          <path
             d="m 0,0 c -3.683,0 -4.995,2.988 -4.995,5.784 0,3.288 2.054,5.584 4.995,5.584 2.613,0 4.302,-1.383 4.519,-3.7 L 4.551,7.319 h -1.4 L 3.129,7.615 C 2.991,9.426 1.422,10.072 0,10.072 c -2.366,0 -3.604,-2.157 -3.604,-4.288 0,-2.81 1.347,-4.487 3.604,-4.487 1.693,0 2.991,1.171 3.231,2.915 L 3.268,4.488 H 4.666 L 4.616,4.125 C 4.272,1.619 2.46,0 0,0 m 0,10.73 c -3.009,0 -4.356,-2.484 -4.356,-4.946 0,-1.207 0.314,-5.146 4.356,-5.146 2.033,0 3.508,1.221 3.921,3.211 H 3.817 C 3.438,1.929 1.935,0.658 0,0.658 c -2.616,0 -4.242,1.964 -4.242,5.126 0,2.448 1.457,4.926 4.242,4.926 2.03,0 3.462,-1.07 3.731,-2.752 H 3.837 C 3.405,10.452 1.034,10.73 0,10.73"
             style="fill:#ffffff;fill-opacity:1;fill-rule:nonzero;stroke:none"
             id="path276" />
        </g>
      </g>
    </g>
    <path
       d="m 121.77163,124.16777 h 0.27446 v -0.7433 h -0.27446 z m 0,4.40937 h 0.27446 v -3.70946 h -0.27446 z"
       style="fill:#ffffff;fill-opacity:1;fill-rule:nonzero;stroke:none;stroke-width:0.352778"
       id="path278" />
    <path
       d="m 122.10995,128.64099 h -0.40252 v -3.86433 h 0.40252 z m 0,-4.32611 h -0.40252 v -0.95462 h 0.40252 z"
       style="fill:#ffffff;fill-opacity:1;fill-rule:nonzero;stroke:none;stroke-width:0.352778"
       id="path280" />
    <path
       d="m 123.09384,128.57714 h 0.27447 v -5.15267 h -0.27447 z"
       style="fill:#ffffff;fill-opacity:1;fill-rule:nonzero;stroke:none;stroke-width:0.352778"
       id="path282" />
    <path
       d="m 123.43216,128.64099 h -0.40252 v -5.28073 h 0.40252 z"
       style="fill:#ffffff;fill-opacity:1;fill-rule:nonzero;stroke:none;stroke-width:0.352778"
       id="path284" />
    <g
       id="g286"
       transform="matrix(0.35277777,0,0,-0.35277777,-11.099292,304.38253)">
      <g
         id="g288"
         clip-path="url(#clipPath292)">
        <g
           id="g294"
           transform="translate(321.3664,530.4383)">
          <path
             d="M 0,0 H -0.777 V -10.514 H 0 v 5.748 c 0.082,1.575 0.409,2.23 1.187,3.027 0.941,0.921 2.088,1.126 2.907,1.024 V 0.062 C 2.19,0.143 0.471,-0.961 0.062,-2.332 H 0 Z"
             style="fill:#ffffff;fill-opacity:1;fill-rule:nonzero;stroke:none"
             id="path296" />
        </g>
        <g
           id="g298"
           transform="translate(321.7798,519.7424)">
          <path
             d="M 0,0 H -1.372 V 10.879 H 0 V 9.432 c 0.783,0.952 2.153,1.571 3.556,1.506 L 3.861,10.925 V 9.499 L 3.501,9.546 C 3.171,9.586 2.024,9.649 1.027,8.642 0.379,7.956 0.075,7.395 -0.001,5.902 Z m -0.734,0.638 h 0.095 v 5.28 c 0.045,0.89 0.159,1.511 0.412,2.051 h -0.412 v 2.271 h -0.095 z m 3.956,9.665 C 2.032,10.262 0.917,9.681 0.352,8.845 c 0.067,0.079 0.139,0.159 0.216,0.24 0.726,0.734 1.694,1.141 2.654,1.12 z"
             style="fill:#ffffff;fill-opacity:1;fill-rule:nonzero;stroke:none"
             id="path300" />
        </g>
        <g
           id="g302"
           transform="translate(334.7629,525.0788)">
          <path
             d="m 0,0 c 0.143,3.007 -1.33,5.605 -4.625,5.605 -3.172,0 -4.687,-2.802 -4.646,-5.687 -0.041,-2.904 1.576,-5.319 4.646,-5.319 2.497,0 4.134,1.351 4.544,3.806 h -0.778 c -0.369,-1.944 -1.781,-3.13 -3.766,-3.13 -2.599,0 -3.909,2.249 -3.868,4.725 z m -8.493,0.675 c 0.164,2.087 1.535,4.255 3.868,4.255 2.415,0 3.807,-2.045 3.848,-4.255 z"
             style="fill:#ffffff;fill-opacity:1;fill-rule:nonzero;stroke:none"
             id="path304" />
        </g>
        <g
           id="g306"
           transform="translate(330.1375,519.4973)">
          <path
             d="m 0,0 c -1.333,0 -2.487,0.455 -3.336,1.315 -0.985,0.999 -1.515,2.488 -1.491,4.194 -0.026,1.831 0.562,3.498 1.613,4.563 0.836,0.848 1.947,1.295 3.214,1.295 1.385,0 2.561,-0.464 3.4,-1.344 C 4.394,8.982 4.893,7.4 4.806,5.568 L 4.792,5.264 H -3.431 C -3.39,4.021 -2.976,2.918 -2.275,2.207 -1.68,1.602 -0.915,1.296 0,1.296 c 1.761,0 3.01,1.043 3.34,2.792 l 0.05,0.26 H 4.785 L 4.724,3.977 C 4.305,1.449 2.583,0 0,0 m 0,10.729 c -1.108,0 -2.036,-0.372 -2.759,-1.104 C -3.691,8.679 -4.213,7.179 -4.189,5.509 -4.211,3.967 -3.746,2.64 -2.881,1.763 -2.156,1.027 -1.159,0.638 0,0.638 c 2.142,0 3.557,1.087 4.02,3.071 H 3.912 C 3.45,1.82 1.973,0.658 0,0.658 c -1.077,0 -2.021,0.381 -2.73,1.101 -0.879,0.893 -1.368,2.289 -1.343,3.83 l 0.006,0.314 H 4.177 C 4.192,7.427 3.756,8.726 2.938,9.583 2.212,10.344 1.224,10.729 0,10.729 M 4.058,5.923 h -8.156 l 0.026,0.344 C -3.899,8.474 -2.445,10.71 0,10.71 2.606,10.71 4.011,8.465 4.053,6.249 Z M -3.397,6.562 H 3.397 C 3.241,8.356 2.07,10.071 0,10.071 c -1.934,0 -3.135,-1.713 -3.397,-3.509"
             style="fill:#ffffff;fill-opacity:1;fill-rule:nonzero;stroke:none"
             id="path308" />
        </g>
        <g
           id="g310"
           transform="translate(337.0049,529.7635)">
          <path
             d="M 0,0 V -9.84 H 0.777 V 0 H 2.968 V 0.675 H 0.777 v 2.107 c 0,1.166 0.676,1.473 1.536,1.473 0.307,0 0.614,-0.041 0.921,-0.102 V 4.828 C 2.927,4.889 2.62,4.93 2.313,4.93 1.044,4.93 0,4.316 0,2.843 V 0.675 H -1.882 V 0 Z"
             style="fill:#ffffff;fill-opacity:1;fill-rule:nonzero;stroke:none"
             id="path312" />
        </g>
        <g
           id="g314"
           transform="translate(338.0963,519.7429)">
          <path
             d="m 0,0 h -1.374 v 9.656 h -1.781 v 1.3 h 1.781 v 1.809 c 0,1.46 0.961,2.367 2.507,2.367 0.283,0 0.58,-0.034 0.935,-0.107 l 0.255,-0.053 v -1.315 l -0.384,0.08 C 1.63,13.801 1.374,13.831 1.133,13.831 0.318,13.831 0,13.515 0,12.705 v -1.749 h 2.072 v -1.3 L 0,9.656 Z m -0.736,0.638 h 0.097 v 9.656 l 2.072,0.024 h -2.072 v 2.387 c 0,0.805 0.308,1.764 1.772,1.764 0.174,0 0.356,-0.013 0.552,-0.04 v 0.018 c -0.202,0.032 -0.382,0.047 -0.552,0.047 -0.698,0 -1.869,-0.224 -1.869,-1.729 v -2.447 l -1.78,-0.024 h 1.78 z"
             style="fill:#ffffff;fill-opacity:1;fill-rule:nonzero;stroke:none"
             id="path316" />
        </g>
        <g
           id="g318"
           transform="translate(349.6422,530.4383)">
          <path
             d="m 0,0 h -0.778 v -5.687 c 0,-2.577 -1.433,-4.398 -3.786,-4.398 -2.865,0 -2.988,2.353 -2.988,3.437 V 0 H -8.33 v -6.505 c 0,-1.289 0.041,-4.255 3.745,-4.255 1.637,0 3.234,0.921 3.766,2.496 h 0.041 v -2.25 H 0 Z"
             style="fill:#ffffff;fill-opacity:1;fill-rule:nonzero;stroke:none"
             id="path320" />
        </g>
        <g
           id="g322"
           transform="translate(345.0715,519.4973)">
          <path
             d="m 0,0 c -3.941,0 -3.941,3.361 -3.941,4.465 v 6.657 H -2.55 V 4.326 c 0,-1.411 0.292,-3.03 2.569,-3.03 2.03,0 3.342,1.557 3.342,3.966 v 5.86 H 4.752 V 0.239 H 3.361 V 1.568 C 2.606,0.6 1.371,0 0,0 M -3.303,10.484 V 4.465 C -3.303,2.573 -2.91,0.638 0,0.638 0.428,0.638 0.839,0.706 1.221,0.831 0.849,0.718 0.447,0.658 0.019,0.658 c -2.128,0 -3.208,1.234 -3.208,3.668 v 6.158 z M 4,0.877 h 0.113 v 9.607 H 4 V 5.262 C 4,4.443 3.858,3.704 3.596,3.07 H 3.96 L 4,2.751 Z"
             style="fill:#ffffff;fill-opacity:1;fill-rule:nonzero;stroke:none"
             id="path324" />
        </g>
        <g
           id="g326"
           transform="translate(355.6905,530.009)">
          <path
             d="m 0,0 c 2.578,0 3.827,-2.148 3.827,-4.5 0,-2.373 -1.269,-4.521 -3.827,-4.521 -2.476,0 -3.766,2.045 -3.766,4.521 0,2.229 1.228,4.5 3.766,4.5 M 3.848,0.429 V -1.76 H 3.807 C 3.234,-0.184 1.637,0.675 0,0.675 c -2.968,0 -4.544,-2.393 -4.544,-5.175 0,-2.926 1.453,-5.196 4.544,-5.196 1.78,0 3.07,0.838 3.807,2.393 h 0.041 v -2.413 c 0,-0.696 -0.062,-3.703 -3.746,-3.703 -1.719,0 -3.193,0.736 -3.356,2.598 h -0.778 c 0.123,-2.435 1.862,-3.274 4.114,-3.274 4.543,-0.143 4.543,3.744 4.543,4.562 v 9.962 z"
             style="fill:#ffffff;fill-opacity:1;fill-rule:nonzero;stroke:none"
             id="path328" />
        </g>
        <g
           id="g330"
           transform="translate(356.0058,515.7296)">
          <path
             d="m 0,0 c -0.081,0 -0.162,0.002 -0.245,0.004 -2.694,0 -4.184,1.215 -4.299,3.514 l -0.017,0.335 h 1.383 l 0.025,-0.291 c 0.171,-1.965 1.914,-2.258 2.938,-2.258 2.738,0 3.313,1.803 3.313,3.315 V 5.91 C 2.292,4.866 1.13,4.32 -0.314,4.32 c -2.915,0 -4.726,2.076 -4.726,5.418 0,2.687 1.461,5.398 4.726,5.398 1.407,0 2.647,-0.586 3.412,-1.556 v 1.315 H 4.491 V 4.799 C 4.491,3.184 4.057,1.946 3.202,1.118 2.435,0.375 1.359,0 0,0 M -3.877,3.215 C -3.663,1.484 -2.468,0.642 -0.234,0.642 1.071,0.598 2.074,0.915 2.757,1.576 3.484,2.279 3.852,3.364 3.852,4.799 v 9.457 H 3.737 V 12.108 H 3.25 C 3.566,11.383 3.717,10.559 3.717,9.738 3.717,8.894 3.558,8.047 3.228,7.307 h 0.469 l 0.04,-0.32 V 4.619 c 0,-2.512 -1.441,-3.953 -3.952,-3.953 -1.967,0 -3.267,0.947 -3.537,2.549 z m 3.563,11.282 c -2.824,0 -4.088,-2.39 -4.088,-4.759 0,-2.993 1.528,-4.78 4.088,-4.78 1.112,0 2.007,0.358 2.674,1.067 -0.645,-0.64 -1.53,-1.043 -2.674,-1.043 -2.376,0 -3.972,1.911 -3.972,4.756 0,2.281 1.243,4.736 3.972,4.736 1.336,0 2.319,-0.549 2.979,-1.38 -0.639,0.873 -1.731,1.403 -2.979,1.403 m 0,-0.661 c -2.291,0 -3.333,-2.124 -3.333,-4.098 0,-1.9 0.872,-4.118 3.333,-4.118 2.343,0 3.392,2.068 3.392,4.118 0,1.89 -0.888,4.098 -3.392,4.098"
             style="fill:#ffffff;fill-opacity:1;fill-rule:nonzero;stroke:none"
             id="path332" />
        </g>
        <g
           id="g334"
           transform="translate(371.0936,525.0788)">
          <path
             d="m 0,0 c 0.143,3.007 -1.33,5.605 -4.625,5.605 -3.173,0 -4.687,-2.802 -4.646,-5.687 -0.041,-2.904 1.575,-5.319 4.646,-5.319 2.496,0 4.134,1.351 4.543,3.806 H -0.86 c -0.368,-1.944 -1.781,-3.13 -3.765,-3.13 -2.6,0 -3.909,2.249 -3.868,4.725 z m -8.493,0.675 c 0.163,2.087 1.534,4.255 3.868,4.255 2.414,0 3.806,-2.045 3.848,-4.255 z"
             style="fill:#ffffff;fill-opacity:1;fill-rule:nonzero;stroke:none"
             id="path336" />
        </g>
        <g
           id="g338"
           transform="translate(366.4676,519.4973)">
          <path
             d="m 0,0 c -1.333,0 -2.487,0.454 -3.335,1.314 -0.986,0.999 -1.516,2.489 -1.492,4.195 -0.026,1.831 0.562,3.498 1.614,4.564 0.835,0.847 1.946,1.294 3.213,1.294 1.386,0 2.562,-0.465 3.401,-1.344 C 4.395,8.982 4.894,7.4 4.807,5.568 L 4.792,5.264 H -3.431 C -3.39,4.021 -2.976,2.918 -2.275,2.207 -1.68,1.602 -0.915,1.296 0,1.296 c 1.762,0 3.011,1.043 3.34,2.792 l 0.05,0.26 H 4.785 L 4.724,3.977 C 4.304,1.449 2.582,0 0,0 m 0,10.729 c -1.108,0 -2.036,-0.371 -2.759,-1.104 C -3.691,8.68 -4.212,7.18 -4.189,5.509 -4.21,3.966 -3.746,2.639 -2.881,1.762 -2.155,1.027 -1.159,0.638 0,0.638 c 2.141,0 3.556,1.087 4.02,3.071 H 3.912 C 3.451,1.82 1.973,0.658 0,0.658 c -1.077,0 -2.021,0.381 -2.73,1.101 -0.878,0.893 -1.367,2.289 -1.342,3.83 l 0.005,0.314 H 4.178 C 4.192,7.427 3.757,8.725 2.939,9.583 2.213,10.344 1.224,10.729 0,10.729 M 4.059,5.923 h -8.157 l 0.027,0.344 C -3.899,8.474 -2.446,10.71 0,10.71 2.607,10.71 4.012,8.465 4.053,6.249 Z M -3.396,6.562 H 3.398 C 3.242,8.356 2.07,10.071 0,10.071 c -1.935,0 -3.136,-1.713 -3.396,-3.509"
             style="fill:#ffffff;fill-opacity:1;fill-rule:nonzero;stroke:none"
             id="path340" />
        </g>
        <g
           id="g342"
           transform="translate(381.8259,525.0788)">
          <path
             d="m 0,0 c 0.143,3.007 -1.331,5.605 -4.626,5.605 -3.172,0 -4.686,-2.802 -4.645,-5.687 -0.041,-2.904 1.575,-5.319 4.645,-5.319 2.497,0 4.135,1.351 4.544,3.806 H -0.86 c -0.368,-1.944 -1.781,-3.13 -3.766,-3.13 -2.599,0 -3.909,2.249 -3.868,4.725 z m -8.494,0.675 c 0.164,2.087 1.535,4.255 3.868,4.255 2.415,0 3.807,-2.045 3.848,-4.255 z"
             style="fill:#ffffff;fill-opacity:1;fill-rule:nonzero;stroke:none"
             id="path344" />
        </g>
        <g
           id="g346"
           transform="translate(377.1996,519.4973)">
          <path
             d="m 0,0 c -1.333,0 -2.487,0.454 -3.335,1.314 -0.986,1 -1.516,2.489 -1.492,4.195 -0.026,1.831 0.562,3.498 1.614,4.563 0.835,0.848 1.946,1.295 3.213,1.295 1.386,0 2.562,-0.465 3.401,-1.344 C 4.394,8.982 4.894,7.4 4.807,5.568 L 4.793,5.264 H -3.431 C -3.39,4.021 -2.976,2.919 -2.276,2.207 -1.681,1.602 -0.915,1.296 0,1.296 c 1.762,0 3.01,1.043 3.34,2.792 l 0.05,0.26 H 4.785 L 4.724,3.977 C 4.305,1.449 2.583,0 0,0 m 0,10.729 c -1.108,0 -2.036,-0.371 -2.759,-1.104 C -3.691,8.68 -4.212,7.179 -4.188,5.509 -4.21,3.966 -3.746,2.639 -2.881,1.763 -2.155,1.027 -1.159,0.638 0,0.638 c 2.142,0 3.557,1.087 4.02,3.071 H 3.912 C 3.45,1.82 1.973,0.658 0,0.658 c -1.077,0 -2.021,0.381 -2.73,1.101 -0.879,0.893 -1.368,2.289 -1.342,3.83 l 0.005,0.314 H 4.178 C 4.193,7.427 3.757,8.725 2.939,9.583 2.213,10.344 1.224,10.729 0,10.729 M 4.058,5.923 h -8.156 l 0.027,0.344 C -3.899,8.474 -2.446,10.71 0,10.71 2.607,10.71 4.012,8.465 4.053,6.248 Z M -3.396,6.562 H 3.397 C 3.242,8.356 2.071,10.071 0,10.071 c -1.935,0 -3.136,-1.713 -3.396,-3.509"
             style="fill:#ffffff;fill-opacity:1;fill-rule:nonzero;stroke:none"
             id="path348" />
        </g>
        <g
           id="g350"
           transform="translate(319.3265,544.9993)">
          <path
             d="m 0,0 c 0.061,-2.455 1.862,-3.744 4.257,-3.744 1.842,0 4.114,0.634 4.114,2.905 0,2.21 -1.637,2.701 -3.725,3.09 -1.699,0.367 -3.5,0.633 -3.5,2.31 0,1.494 1.597,2.026 3.03,2.026 1.76,0 3.089,-0.777 3.11,-2.68 H 8.063 C 8.063,6.3 6.406,7.262 4.176,7.262 2.395,7.262 0.368,6.648 0.368,4.561 0.368,2.414 2.17,1.943 3.991,1.575 5.792,1.207 7.593,0.941 7.593,-0.839 7.593,-2.66 5.628,-3.069 4.257,-3.069 2.354,-3.069 0.9,-1.944 0.777,0 Z"
             style="fill:#ffffff;fill-opacity:1;fill-rule:nonzero;stroke:none"
             id="path352" />
        </g>
        <g
           id="g354"
           transform="translate(323.5828,541.0745)">
          <path
             d="m 0,0 c -2.634,0 -4.375,1.555 -4.434,3.961 l -0.008,0.327 h 1.379 L -3.045,3.989 C -2.942,2.353 -1.747,1.297 0,1.297 c 0.874,0 2.906,0.18 2.906,1.854 0,1.291 -1.117,1.612 -2.957,1.986 l -0.271,0.055 c -1.495,0.305 -3.757,0.765 -3.757,3.224 0,1.848 1.496,2.952 4,2.952 2.591,0 4.078,-1.308 4.078,-3.589 V 7.459 H 2.612 L 2.609,7.775 c -0.021,1.898 -1.473,2.296 -2.688,2.296 -0.436,0 -2.609,-0.079 -2.609,-1.655 0,-1.187 1.063,-1.5 2.814,-1.873 L 0.444,6.475 C 2.469,6.094 4.296,5.552 4.296,3.151 4.296,1.178 2.69,0 0,0 M -3.775,3.65 C -3.585,1.783 -2.167,0.638 0,0.638 c 0.858,0 3.657,0.182 3.657,2.513 0,1.761 -1.077,2.273 -3.34,2.699 l -0.324,0.069 c -1.555,0.332 -3.319,0.708 -3.319,2.497 0,1.693 1.749,2.294 3.247,2.294 1.972,0 3.162,-0.948 3.311,-2.612 h 0.117 c -0.157,2.165 -1.93,2.632 -3.428,2.632 -1.011,0 -3.361,-0.226 -3.361,-2.314 0,-1.795 1.407,-2.224 3.246,-2.598 L 0.077,5.762 C 1.782,5.415 3.544,5.057 3.544,3.151 3.544,1.59 2.219,0.658 0,0.658 c -2.004,0 -3.408,1.164 -3.653,2.992 z"
             style="fill:#ffffff;fill-opacity:1;fill-rule:nonzero;stroke:none"
             id="path356" />
        </g>
        <g
           id="g358"
           transform="translate(338.1099,548.7634)">
          <path
             d="m 0,0 c -0.225,2.393 -2.067,3.498 -4.339,3.498 -3.111,0 -4.83,-2.476 -4.83,-5.4 0,-2.926 1.412,-5.606 4.83,-5.606 2.272,0 4.094,1.432 4.441,3.948 h -0.777 c -0.266,-1.922 -1.699,-3.273 -3.664,-3.273 -2.723,0 -4.052,2.087 -4.052,4.931 0,2.392 1.412,4.725 4.052,4.725 1.904,0 3.418,-0.961 3.562,-2.823 z"
             style="fill:#ffffff;fill-opacity:1;fill-rule:nonzero;stroke:none"
             id="path360" />
        </g>
        <g
           id="g362"
           transform="translate(333.7549,541.0745)">
          <path
             d="m 0,0 c -3.683,0 -4.995,2.988 -4.995,5.784 0,3.288 2.054,5.584 4.995,5.584 2.613,0 4.302,-1.383 4.518,-3.7 L 4.551,7.319 h -1.4 L 3.129,7.615 C 2.991,9.426 1.422,10.071 0,10.071 c -2.366,0 -3.604,-2.157 -3.604,-4.287 0,-2.81 1.347,-4.487 3.604,-4.487 1.692,0 2.99,1.171 3.231,2.914 L 3.268,4.487 H 4.665 L 4.616,4.125 C 4.272,1.619 2.46,0 0,0 m 0,10.73 c -3.01,0 -4.357,-2.484 -4.357,-4.946 0,-1.207 0.315,-5.146 4.357,-5.146 2.033,0 3.507,1.22 3.921,3.211 H 3.817 C 3.437,1.929 1.934,0.658 0,0.658 c -2.617,0 -4.243,1.964 -4.243,5.126 0,2.447 1.458,4.926 4.243,4.926 2.03,0 3.462,-1.071 3.731,-2.752 H 3.837 C 3.405,10.452 1.034,10.73 0,10.73"
             style="fill:#ffffff;fill-opacity:1;fill-rule:nonzero;stroke:none"
             id="path364" />
        </g>
        <g
           id="g366"
           transform="translate(339.369,546.7585)">
          <path
             d="m 0,0 c 0,-2.986 1.74,-5.503 4.831,-5.503 3.09,0 4.83,2.517 4.83,5.503 0,2.986 -1.74,5.503 -4.83,5.503 C 1.74,5.503 0,2.986 0,0 m 0.778,0 c 0,2.516 1.412,4.828 4.053,4.828 2.64,0 4.052,-2.312 4.052,-4.828 0,-2.516 -1.412,-4.828 -4.052,-4.828 -2.641,0 -4.053,2.312 -4.053,4.828"
             style="fill:#ffffff;fill-opacity:1;fill-rule:nonzero;stroke:none"
             id="path368" />
        </g>
        <g
           id="g370"
           transform="translate(344.1993,541.0745)">
          <path
             d="m 0,0 c -2.951,0 -5.012,2.337 -5.012,5.684 0,3.347 2.061,5.684 5.012,5.684 2.951,0 5.012,-2.337 5.012,-5.684 C 5.012,2.337 2.951,0 0,0 m 0,10.73 c -3.021,0 -4.374,-2.534 -4.374,-5.046 0,-2.511 1.353,-5.046 4.374,-5.046 3.021,0 4.373,2.535 4.373,5.046 C 4.373,8.196 3.021,10.73 0,10.73 M 0,0.658 c -2.924,0 -4.256,2.606 -4.256,5.026 0,2.421 1.332,5.026 4.256,5.026 2.924,0 4.256,-2.605 4.256,-5.026 C 4.256,3.264 2.924,0.658 0,0.658 m 0,9.414 c -2.486,0 -3.617,-2.275 -3.617,-4.388 0,-2.113 1.131,-4.387 3.617,-4.387 2.486,0 3.617,2.274 3.617,4.387 0,2.113 -1.131,4.388 -3.617,4.388"
             style="fill:#ffffff;fill-opacity:1;fill-rule:nonzero;stroke:none"
             id="path372" />
        </g>
        <g
           id="g374"
           transform="translate(353.6946,552.0157)">
          <path
             d="M 0,0 H -2.292 V 3.273 H -3.07 V 0 h -1.945 v -0.675 h 1.945 v -7.344 c -0.082,-2.373 1.453,-2.598 3.049,-2.495 v 0.674 c -1.473,-0.04 -2.271,0.123 -2.271,1.821 v 7.344 H 0 Z"
             style="fill:#ffffff;fill-opacity:1;fill-rule:nonzero;stroke:none"
             id="path376" />
        </g>
        <g
           id="g378"
           transform="translate(353.0128,541.3007)">
          <path
             d="m 0,0 c -0.71,0 -1.474,0.119 -2.004,0.632 -0.485,0.469 -0.705,1.176 -0.672,2.162 l -10e-4,6.868 h -1.837 v 1.299 h 1.837 v 3.208 h 1.374 V 10.961 H 0.864 V 9.662 H -1.303 V 2.784 C -1.303,2.189 -1.2,1.8 -0.989,1.595 -0.723,1.337 -0.216,1.301 0.515,1.318 l 0.328,0.01 V 0.039 L 0.545,0.02 C 0.37,0.008 0.187,0 0,0 m -3.875,10.3 h 1.837 V 2.784 C -2.065,1.977 -1.908,1.427 -1.56,1.09 -1.138,0.682 -0.435,0.619 0.204,0.641 V 0.675 C -0.433,0.652 -1.028,0.744 -1.434,1.138 -1.78,1.474 -1.942,1.997 -1.942,2.784 V 10.3 l 2.167,0.023 h -2.167 v 3.208 h -0.096 v -3.208 z"
             style="fill:#ffffff;fill-opacity:1;fill-rule:nonzero;stroke:none"
             id="path380" />
        </g>
        <g
           id="g382"
           transform="translate(359.675,552.0157)">
          <path
             d="M 0,0 H -2.293 V 3.273 H -3.071 V 0 h -1.944 v -0.675 h 1.944 v -7.344 c -0.081,-2.373 1.454,-2.598 3.051,-2.495 v 0.674 c -1.474,-0.04 -2.273,0.123 -2.273,1.821 v 7.344 H 0 Z"
             style="fill:#ffffff;fill-opacity:1;fill-rule:nonzero;stroke:none"
             id="path384" />
        </g>
        <g
           id="g386"
           transform="translate(358.9937,541.3007)">
          <path
             d="M 0,0 C -0.71,0 -1.474,0.119 -2.005,0.632 -2.49,1.101 -2.71,1.808 -2.677,2.794 l -10e-4,6.868 h -1.837 v 1.299 h 1.837 v 3.208 h 1.375 V 10.961 H 0.862 V 9.662 H -1.303 V 2.784 c 0,-0.595 0.102,-0.984 0.313,-1.189 0.266,-0.258 0.774,-0.294 1.505,-0.277 l 0.328,0.01 V 0.039 L 0.545,0.02 C 0.37,0.008 0.187,0 0,0 m -3.876,10.3 h 1.837 V 2.784 C -2.066,1.977 -1.909,1.427 -1.561,1.09 -1.138,0.682 -0.433,0.616 0.204,0.641 V 0.675 C -0.441,0.653 -1.03,0.744 -1.435,1.138 -1.781,1.474 -1.942,1.997 -1.942,2.784 V 10.3 l 2.166,0.023 h -2.166 v 3.208 h -0.097 v -3.208 z"
             style="fill:#ffffff;fill-opacity:1;fill-rule:nonzero;stroke:none"
             id="path388" />
        </g>
      </g>
    </g>
    <path
       d="m 116.44539,108.94365 h 0.27447 v -0.74331 h -0.27447 z m 0,4.40936 h 0.27447 v -3.70945 h -0.27447 z"
       style="fill:#ffffff;fill-opacity:1;fill-rule:nonzero;stroke:none;stroke-width:0.352778"
       id="path390" />
    <path
       d="m 116.78406,113.41687 h -0.40252 v -3.86433 h 0.40252 z m 0,-4.32612 h -0.40252 v -0.95461 h 0.40252 z"
       style="fill:#ffffff;fill-opacity:1;fill-rule:nonzero;stroke:none;stroke-width:0.352778"
       id="path392" />
    <g
       id="g394"
       transform="matrix(0.35277777,0,0,-0.35277777,-11.099292,304.38253)">
      <g
         id="g396"
         clip-path="url(#clipPath400)">
        <g
           id="g402"
           transform="translate(363.7925,544.9993)">
          <path
             d="m 0,0 c 0.062,-2.455 1.863,-3.744 4.257,-3.744 1.842,0 4.114,0.634 4.114,2.905 0,2.21 -1.637,2.701 -3.725,3.09 -1.698,0.367 -3.5,0.633 -3.5,2.31 0,1.494 1.596,2.026 3.029,2.026 1.761,0 3.091,-0.777 3.111,-2.68 h 0.778 c 0,2.393 -1.658,3.355 -3.889,3.355 -1.78,0 -3.806,-0.614 -3.806,-2.701 0,-2.147 1.801,-2.618 3.622,-2.986 1.802,-0.368 3.602,-0.634 3.602,-2.414 0,-1.821 -1.964,-2.23 -3.336,-2.23 -1.903,0 -3.356,1.125 -3.479,3.069 z"
             style="fill:#ffffff;fill-opacity:1;fill-rule:nonzero;stroke:none"
             id="path404" />
        </g>
        <g
           id="g406"
           transform="translate(368.0489,541.0745)">
          <path
             d="m 0,0 c -2.633,0 -4.374,1.555 -4.434,3.961 l -0.008,0.327 h 1.378 L -3.045,3.989 C -2.942,2.353 -1.746,1.297 0,1.297 c 0.874,0 2.906,0.18 2.906,1.854 0,1.291 -1.117,1.612 -2.956,1.986 l -0.271,0.055 c -1.496,0.305 -3.757,0.765 -3.757,3.224 0,1.848 1.495,2.952 3.999,2.952 2.591,0 4.078,-1.308 4.078,-3.589 V 7.459 H 2.612 L 2.609,7.775 c -0.02,1.898 -1.473,2.296 -2.688,2.296 -0.436,0 -2.609,-0.079 -2.609,-1.655 0,-1.187 1.063,-1.499 2.814,-1.873 L 0.444,6.475 C 2.469,6.094 4.296,5.552 4.296,3.151 4.296,1.178 2.69,0 0,0 M -3.775,3.65 C -3.585,1.783 -2.166,0.638 0,0.638 c 0.858,0 3.657,0.182 3.657,2.513 0,1.761 -1.077,2.273 -3.34,2.699 l -0.324,0.069 c -1.556,0.332 -3.319,0.708 -3.319,2.497 0,1.693 1.749,2.294 3.247,2.294 1.973,0 3.163,-0.948 3.311,-2.612 h 0.117 c -0.157,2.165 -1.93,2.632 -3.428,2.632 -1.011,0 -3.361,-0.226 -3.361,-2.314 0,-1.795 1.408,-2.224 3.247,-2.598 L 0.077,5.762 C 1.782,5.416 3.544,5.057 3.544,3.151 3.544,1.59 2.219,0.658 0,0.658 c -2.003,0 -3.407,1.164 -3.653,2.992 z"
             style="fill:#ffffff;fill-opacity:1;fill-rule:nonzero;stroke:none"
             id="path408" />
        </g>
        <g
           id="g410"
           transform="translate(373.878,556.1069)">
          <path
             d="m 0,0 v -14.606 h 0.777 v 5.687 c 0,2.578 1.433,4.398 3.787,4.398 2.865,0 2.988,-2.352 2.988,-3.437 v -6.648 H 8.33 v 6.505 c 0,1.289 -0.041,4.255 -3.746,4.255 -1.637,0 -3.233,-0.92 -3.765,-2.495 H 0.777 V 0 Z"
             style="fill:#ffffff;fill-opacity:1;fill-rule:nonzero;stroke:none"
             id="path412" />
        </g>
        <g
           id="g414"
           transform="translate(382.3891,541.3201)">
          <path
             d="m 0,0 h -1.391 v 6.842 c 0,1.421 -0.291,3.052 -2.57,3.052 -2.03,0 -3.341,-1.568 -3.341,-3.996 V 0 h -1.39 v 14.968 h 1.39 V 9.616 c 0.755,0.976 1.99,1.579 3.361,1.579 C 0,11.195 0,7.813 0,6.701 Z m -0.752,0.638 h 0.113 v 6.063 c 0,1.907 -0.392,3.856 -3.302,3.856 -0.495,0 -0.97,-0.091 -1.4,-0.259 0.421,0.153 0.884,0.235 1.38,0.235 2.129,0 3.209,-1.242 3.209,-3.691 z m -7.302,0 h 0.113 v 5.26 c 0,0.826 0.142,1.571 0.404,2.21 h -0.364 l -0.04,0.319 v 5.903 h -0.113 z"
             style="fill:#ffffff;fill-opacity:1;fill-rule:nonzero;stroke:none"
             id="path416" />
        </g>
      </g>
    </g>
  </g>
</svg>
