<?xml version="1.0" encoding="UTF-8" standalone="no"?>
<svg
   id="Layer_1"
   viewBox="0 0 850 963.61"
   version="1.1"
   sodipodi:docname="SSSC_logo.svg"
   width="850"
   height="963.60999"
   inkscape:version="1.2.2 (732a01da63, 2022-12-09)"
   xmlns:inkscape="http://www.inkscape.org/namespaces/inkscape"
   xmlns:sodipodi="http://sodipodi.sourceforge.net/DTD/sodipodi-0.dtd"
   xmlns="http://www.w3.org/2000/svg"
   xmlns:svg="http://www.w3.org/2000/svg">
  <sodipodi:namedview
     id="namedview44"
     pagecolor="#ffffff"
     bordercolor="#000000"
     borderopacity="0.25"
     inkscape:showpageshadow="2"
     inkscape:pageopacity="0.0"
     inkscape:pagecheckerboard="0"
     inkscape:deskcolor="#d1d1d1"
     showgrid="false"
     inkscape:zoom="0.4270814"
     inkscape:cx="80.780853"
     inkscape:cy="443.70932"
     inkscape:window-width="1920"
     inkscape:window-height="1002"
     inkscape:window-x="2125"
     inkscape:window-y="-8"
     inkscape:window-maximized="1"
     inkscape:current-layer="Layer_1" />
  <defs
     id="defs19">
    <style
       id="style2">.cls-1{clip-path:url(#clippath-2);}.cls-2{fill:none;}.cls-2,.cls-3,.cls-4{stroke-width:0px;}.cls-5{clip-path:url(#clippath-1);}.cls-6{clip-path:url(#clippath-4);}.cls-3{fill:#1b4685;}.cls-7{clip-path:url(#clippath);}.cls-8{clip-path:url(#clippath-3);}.cls-4{fill:#05918f;}</style>
    <clipPath
       id="clippath">
      <rect
         class="cls-2"
         width="800"
         height="963.60999"
         id="rect4"
         x="0"
         y="0" />
    </clipPath>
    <clipPath
       id="clippath-1">
      <rect
         class="cls-2"
         width="800"
         height="963.60999"
         id="rect7"
         x="0"
         y="0" />
    </clipPath>
    <clipPath
       id="clippath-2">
      <rect
         class="cls-2"
         width="800"
         height="963.60999"
         id="rect10"
         x="0"
         y="0" />
    </clipPath>
    <clipPath
       id="clippath-3">
      <rect
         class="cls-2"
         width="800"
         height="963.60999"
         id="rect13"
         x="0"
         y="0" />
    </clipPath>
    <clipPath
       id="clippath-4">
      <rect
         class="cls-2"
         width="800"
         height="963.60999"
         id="rect16"
         x="0"
         y="0" />
    </clipPath>
  </defs>
  <g
     id="g338"
     transform="translate(12.37,-1.7863523)">
    <path
       class="cls-4"
       d="m 440.3,176.84 c -19.25,2.41 -39.7,3.61 -62.56,3.61 -104.66,0 -190.08,-26.47 -190.08,-58.95 0,-32.48 85.41,-58.95 190.08,-58.95 21.65,0 43.31,1.2 62.56,3.61 V 42.1 C 419.85,39.69 398.19,39.69 376.54,39.69 202.1,38.49 60.15,99.84 60.15,174.43 c 0,74.59 141.95,135.94 316.39,135.94 21.65,0 43.31,-1.2 63.76,-2.41 V 176.83 Z"
       id="path21" />
    <g
       class="cls-7"
       clip-path="url(#clippath)"
       id="g25">
      <path
         class="cls-3"
         d="m 363.31,97.44 c -10.83,0 -21.65,0 -32.48,1.2 v 27.67 h 25.26 c 162.41,0 293.53,64.96 293.53,144.36 0,79.4 -131.13,144.36 -293.53,144.36 h -25.26 v 174.44 c 10.83,0 21.65,1.2 32.48,1.2 C 581.05,589.47 757.9,479.99 757.9,344.05 757.9,208.11 581.06,97.43 363.31,97.43"
         id="path23" />
    </g>
    <g
       class="cls-5"
       clip-path="url(#clippath-1)"
       id="g29">
      <path
         class="cls-3"
         d="m 185.26,869.77 c 0,-7.22 -2.41,-13.23 -7.22,-18.05 -4.81,-4.81 -12.03,-8.42 -19.25,-12.03 -7.22,-3.61 -15.64,-6.02 -25.26,-9.62 -8.42,-2.41 -16.84,-7.22 -25.26,-10.83 -7.22,-4.81 -14.44,-10.83 -19.25,-18.05 -4.81,-7.22 -7.22,-16.84 -7.22,-27.67 0,-15.64 6.02,-28.87 18.05,-38.5 12.03,-9.62 28.87,-14.44 50.53,-14.44 13.23,0 24.06,1.2 34.89,2.41 10.83,2.41 19.25,4.81 25.26,7.22 l -8.42,24.06 c -4.81,-2.41 -12.03,-4.81 -21.65,-6.02 -10.83,-2.41 -20.45,-2.41 -32.48,-2.41 -13.23,0 -22.86,2.41 -28.87,8.42 -6.02,6.02 -9.62,12.03 -9.62,19.25 0,7.22 2.41,13.23 7.22,18.05 4.81,4.81 12.03,8.42 19.25,12.03 7.22,3.61 15.64,7.22 25.26,9.62 8.42,3.61 16.84,7.22 25.26,12.03 7.22,4.81 14.44,10.83 19.25,18.05 4.81,7.22 7.22,15.64 7.22,26.47 0,8.42 -1.2,16.84 -4.81,24.06 -3.61,7.22 -8.42,13.23 -14.44,18.05 -6.02,4.82 -14.44,9.62 -22.86,12.03 -9.62,2.41 -19.25,3.61 -31.28,3.61 -15.64,0 -28.87,-1.2 -39.7,-3.61 -10.83,-2.41 -19.25,-4.81 -24.06,-7.22 l 9.62,-25.26 c 4.81,2.41 12.03,4.81 21.65,7.22 9.62,2.41 20.45,3.61 31.28,3.61 7.22,0 13.23,0 18.05,-2.41 6.02,-1.2 10.83,-3.61 14.44,-6.02 4.81,-2.41 7.22,-6.02 9.62,-9.62 3.61,-3.61 4.81,-8.42 4.81,-14.44"
         id="path27" />
    </g>
    <g
       class="cls-1"
       clip-path="url(#clippath-2)"
       id="g33">
      <path
         class="cls-3"
         d="m 535.34,868.57 c 0,-6.02 -2.41,-10.83 -7.22,-14.44 -4.81,-3.61 -10.83,-6.02 -18.05,-9.62 -7.22,-2.41 -15.64,-6.02 -24.06,-8.42 -8.42,-2.41 -16.84,-7.22 -24.06,-10.83 -7.22,-4.81 -13.23,-10.83 -18.05,-18.05 -4.82,-7.22 -7.22,-16.84 -7.22,-27.67 0,-9.62 1.2,-18.05 4.81,-26.47 3.61,-7.22 8.42,-13.23 14.44,-18.05 6.02,-4.82 14.44,-8.42 22.86,-10.83 8.42,-2.41 19.25,-3.61 30.08,-3.61 12.03,0 24.06,1.2 36.09,3.61 10.83,2.41 20.45,4.81 27.67,9.62 L 559.4,768.7 c -2.41,-1.2 -4.81,-2.41 -8.42,-3.61 -3.61,-1.2 -7.22,-2.41 -12.03,-3.61 -4.81,-2.41 -9.62,-3.61 -14.44,-3.61 -4.81,-1.2 -10.83,-1.2 -15.64,-1.2 -9.62,0 -16.84,1.2 -21.65,4.81 -4.81,3.61 -8.42,8.42 -8.42,13.23 0,6.02 2.41,10.83 7.22,14.44 4.81,3.61 10.83,7.22 18.05,9.62 7.22,2.41 15.64,6.02 24.06,8.42 8.42,2.4 16.84,7.22 24.06,10.83 7.22,4.81 13.23,10.83 18.05,18.05 4.82,7.22 7.22,15.64 7.22,26.47 0,10.83 -2.41,20.45 -6.02,28.87 -3.61,8.42 -9.62,14.44 -15.64,19.25 -7.22,4.81 -15.64,9.62 -25.26,12.03 -9.62,2.41 -20.45,3.61 -31.28,3.61 -7.22,0 -15.64,0 -21.65,-1.2 -7.22,-1.2 -13.23,-2.41 -19.25,-3.61 -6.02,-1.2 -10.83,-2.41 -15.64,-3.61 -4.81,-1.2 -8.42,-2.41 -10.83,-3.61 l 14.44,-36.09 c 2.41,1.2 4.81,2.41 8.42,3.61 3.61,1.2 7.22,2.41 12.03,3.61 4.81,1.2 9.62,2.41 14.44,2.41 4.81,1.2 10.83,1.2 15.64,1.2 12.03,0 21.65,-1.2 28.87,-4.81 6.01,-2.41 9.62,-8.42 9.62,-15.64"
         id="path31" />
    </g>
    <g
       class="cls-8"
       clip-path="url(#clippath-3)"
       id="g37">
      <path
         class="cls-3"
         d="m 354.89,868.57 c 0,-6.02 -2.41,-10.83 -7.22,-14.44 -4.81,-3.61 -10.83,-6.02 -18.05,-9.62 -7.22,-2.41 -15.64,-6.02 -24.06,-8.42 -8.42,-2.41 -16.84,-7.22 -24.06,-10.83 -7.22,-4.81 -13.23,-10.83 -18.05,-18.05 -4.82,-7.22 -7.22,-16.84 -7.22,-27.67 0,-9.62 1.2,-18.05 4.81,-26.47 3.61,-7.22 8.42,-13.23 14.44,-18.05 6.02,-4.82 14.44,-8.42 22.86,-10.83 8.42,-2.41 19.25,-3.61 30.08,-3.61 12.03,0 24.06,1.2 36.09,3.61 10.83,2.41 20.45,4.81 27.67,9.62 l -13.23,34.89 c -2.41,-1.2 -4.81,-2.41 -8.42,-3.61 -3.61,-1.2 -7.22,-2.41 -12.03,-3.61 -4.81,-1.2 -9.62,-2.41 -14.44,-2.41 -4.81,-1.2 -10.83,-1.2 -15.64,-1.2 -9.62,0 -16.84,1.2 -21.65,4.81 -4.81,3.61 -7.22,8.42 -7.22,13.23 0,6.02 2.41,10.83 7.22,14.44 4.81,3.61 10.83,7.22 18.05,9.62 7.22,2.41 15.64,6.02 24.06,8.42 8.42,2.4 16.84,7.22 24.06,10.83 7.22,4.81 13.23,10.83 18.05,18.05 4.82,7.22 7.22,15.64 7.22,26.47 0,10.83 -2.41,20.45 -6.02,28.87 -3.61,8.42 -9.62,14.44 -15.64,19.25 -7.22,4.81 -15.64,9.62 -25.26,12.03 -9.62,2.41 -20.45,3.61 -31.28,3.61 -7.22,0 -15.64,0 -21.65,-1.2 -7.22,-1.2 -13.23,-2.41 -19.25,-3.61 -6.02,-1.2 -10.83,-2.41 -15.64,-3.61 -4.81,-1.2 -8.42,-2.41 -10.83,-3.61 l 14.44,-36.09 c 2.41,1.2 4.81,2.41 8.42,3.61 3.61,1.2 7.22,2.41 12.03,3.61 4.81,1.2 9.62,2.41 14.44,2.41 4.81,1.2 10.83,1.2 15.64,1.2 12.03,0 21.65,-1.2 28.87,-4.81 4.81,-3.61 8.42,-9.62 8.42,-16.84"
         id="path35" />
    </g>
    <g
       class="cls-6"
       clip-path="url(#clippath-4)"
       id="g41">
      <path
         class="cls-3"
         d="m 765.11,914.29 c -6.02,4.81 -14.44,7.22 -24.06,9.62 -8.42,2.41 -19.25,2.41 -30.08,2.41 -13.23,0 -25.26,-2.41 -36.09,-6.02 -12.03,-3.61 -21.65,-10.83 -30.08,-19.25 -8.42,-8.42 -15.64,-19.25 -20.45,-32.48 -4.81,-13.23 -7.22,-28.87 -7.22,-45.71 0,-18.05 2.41,-34.89 8.42,-46.92 6.02,-13.23 13.23,-24.06 21.65,-32.48 9.62,-8.42 19.25,-14.44 31.28,-18.05 10.83,-3.61 22.86,-6.02 33.68,-6.02 12.03,0 22.86,1.2 31.28,2.41 8.42,1.2 14.44,2.41 20.45,4.81 l -6.02,24.06 c -9.62,-4.81 -22.86,-6.02 -42.11,-6.02 -8.42,0 -16.84,1.2 -25.26,3.61 -8.42,2.41 -15.64,7.22 -21.65,13.23 -6.02,6.02 -10.83,14.44 -15.64,24.06 -3.61,9.62 -6.02,21.65 -6.02,36.09 0,13.23 1.2,24.06 6.02,33.68 3.61,9.62 8.42,18.05 14.44,24.06 6.02,6.01 14.44,12.03 22.86,14.44 8.42,3.61 18.05,4.81 28.87,4.81 9.62,0 16.84,-1.2 24.06,-2.41 7.22,-1.21 12.03,-3.61 16.84,-6.02 l 4.81,24.06 z"
         id="path39" />
    </g>
  </g>
</svg>
