<svg width="166" height="25" viewBox="0 0 166 25" fill="none" xmlns="http://www.w3.org/2000/svg">
<path d="M6.8937 24.9625C3.19874 24.9625 2.0964 23.1694 2.0964 20.5149C2.0964 19.4397 2.27419 17.4313 2.27419 15.8161C2.27419 13.5923 2.27419 11.8352 2.16752 9.82673C1.45632 9.82673 0.711191 9.82673 0 9.86263V9.10886C3.41048 7.67474 5.68468 5.91758 8.27891 2.65287L8.91898 2.76056C8.77674 3.90753 8.70562 5.23559 8.67006 6.63382H13.0407L11.9044 10.0046C10.8036 9.96867 9.70129 9.93278 8.60056 9.89689V13.3394C8.60056 15.1325 8.565 17.1409 8.67168 18.9699C8.7428 20.2963 9.20507 20.727 10.1636 20.727C11.5132 20.727 11.8332 19.2929 11.9399 16.2436H12.5444C12.4022 22.3765 11.0881 24.9592 6.89532 24.9592L6.8937 24.9625Z" fill="#5B1A4C"/>
<path d="M31.1243 13.0196L25.3329 13.8811L20.5712 13.7016V13.8093C20.5712 19.0808 22.3831 20.0499 25.2974 20.0499C27.8205 20.0499 29.5257 19.1526 30.6265 16.3561L31.1954 16.9304C30.0591 20.6601 28.7079 25 22.4898 25C17.4791 25 13.7486 22.3096 13.7486 15.8536C13.7486 9.39764 17.8347 6.31404 24.3373 6.31404C29.7019 6.31404 31.1599 8.78908 31.1243 13.0213V13.0196ZM20.5712 13.4145L24.3728 12.7684C24.9062 12.6966 25.1551 12.4453 25.1551 11.871C25.1551 9.46779 23.6988 7.56706 22.0986 7.56706C20.8201 7.56706 20.5712 8.39261 20.5712 13.4128V13.4145Z" fill="#5B1A4C"/>
<path d="M38.7631 12.9838C38.7631 18.0758 40.7173 20.0499 43.7027 20.0499C46.0124 20.0499 47.4332 19.2603 48.3222 16.751L48.8911 17.3253C48.0021 20.6601 46.6881 24.9641 40.47 24.9641C35.8149 24.9641 32.2978 22.3096 32.2978 16.2843C32.2978 10.2591 37.5202 6.31404 43.3471 6.31404C46.048 6.31404 48.0377 6.88834 48.7473 7.21138C48.4272 9.32748 48.2139 11.7666 48.0716 15.0297H47.1487L46.0835 12.8059C44.4494 9.50695 42.4241 7.678 40.7545 7.678C39.227 7.678 38.7647 8.89676 38.7647 12.9854L38.7631 12.9838Z" fill="#5B1A4C"/>
<path d="M85.4576 6.74313C85.3154 8.28493 85.1732 10.6882 85.1376 13.1273H84.1436L83.3968 11.8009C82.2605 9.6489 80.0574 7.35333 77.641 7.35333C76.5047 7.35333 75.6157 7.96352 75.6157 9.07459C75.6157 10.3651 76.398 11.5855 80.5892 12.5171C85.2798 13.5923 86.1672 15.6007 86.1672 18.1117C86.1672 21.9131 83.1107 24.9266 77.1416 24.9266C74.2629 24.9266 72.4154 24.2446 71.208 23.5284C71.3502 21.6635 71.4569 19.7269 71.528 17.3236H72.5237L73.1993 18.7936C74.5134 21.6635 77.1432 22.7028 81.7271 22.7028C83.1123 22.7028 83.3612 22.2721 83.3612 21.5558C83.3612 20.2294 82.225 19.3679 76.6809 18.0056C71.7414 16.8228 71.1385 14.7425 71.1385 12.9838C71.1385 9.14638 75.3668 6.02526 79.8796 6.02526C82.2961 6.02526 84.2147 6.38419 85.4576 6.74313Z" fill="#5B1A4C"/>
<path d="M93.7721 12.9479C93.7721 18.0399 95.7263 20.014 98.7117 20.014C101.021 20.014 102.442 19.2244 103.331 16.7151L103.9 17.2894C103.011 20.6242 101.697 24.9282 95.479 24.9282C90.8239 24.9282 87.3067 22.2737 87.3067 16.2485C87.3067 10.2232 92.5291 6.27814 98.3561 6.27814C101.057 6.27814 103.047 6.85244 103.756 7.17549C103.436 9.29159 103.223 11.7307 103.081 14.9938H102.158L101.093 12.77C99.4584 9.47106 97.4331 7.64211 95.7634 7.64211C94.236 7.64211 93.7737 8.86086 93.7737 12.9495L93.7721 12.9479Z" fill="#5B1A4C"/>
<path d="M114.886 20.3713H114.566C113.677 22.7387 111.298 24.9266 109.131 24.9266C106.181 24.9266 104.724 22.5592 104.724 20.3713C104.724 18.1835 108.633 16.2827 114.709 14.8127C114.637 8.67976 114.104 8.03368 112.185 8.03368C111.227 8.03368 110.978 8.67976 110.978 9.68316C110.978 10.7583 111.12 12.695 111.263 13.9871L105.187 14.8127C104.76 9.36174 111.369 6.24062 115.598 6.24062C119.079 6.24062 121.282 7.81831 121.282 10.6882C121.282 12.3377 121.176 14.9563 121.176 16.534C121.176 20.0842 121.318 20.6226 121.851 20.6226C122.456 20.6226 122.74 19.7611 122.952 16.175H123.521C123.272 22.0926 121.353 24.783 119.008 24.783C115.882 24.783 114.958 22.4515 114.886 20.3713ZM114.531 19.5099C114.709 18.7202 114.709 17.8604 114.709 16.4622V15.6725C113.784 15.852 112.79 15.9956 111.937 16.2468C111.119 16.4622 110.658 16.7134 110.658 17.7886C110.658 19.474 111.44 20.3713 113.074 20.3713C114.07 20.3713 114.424 20.0124 114.531 19.5099Z" fill="#5B1A4C"/>
<path d="M150.717 12.9838L144.926 13.8452L140.164 13.6657V13.7734C140.164 19.0449 141.976 20.014 144.891 20.014C147.414 20.014 149.119 19.1167 150.22 16.3202L150.789 16.8945C149.652 20.6242 148.301 24.9641 142.083 24.9641C137.072 24.9641 133.342 22.2737 133.342 15.8177C133.342 9.36174 137.428 6.27814 143.93 6.27814C149.295 6.27814 150.753 8.75318 150.717 12.9854V12.9838ZM140.164 13.3786L143.966 12.7325C144.499 12.6607 144.748 12.4095 144.748 11.8352C144.748 9.4319 143.292 7.53116 141.692 7.53116C140.413 7.53116 140.164 8.35672 140.164 13.377V13.3786Z" fill="#5B1A4C"/>
<path d="M152.675 9.82673L151.503 9.25243V8.39098C153.919 7.96026 157.081 7.02865 158.893 6.27488L159.391 6.45435C159.462 8.96528 159.497 11.4403 159.533 13.9496L159.853 13.9855C161.132 9.39437 162.092 6.1672 165.716 5.95184C165.893 8.10383 166 11.2592 166 13.5907C165.004 13.483 163.512 13.3035 162.412 13.3035C160.458 13.3035 159.924 13.9137 159.924 15.7427C159.924 22.8431 160.031 22.8431 161.06 23.0585L163.335 23.5251V24.5644H151.503V23.5251L152.356 23.2021C153.386 22.8431 153.457 22.4124 153.457 16.9973C153.457 10.5413 153.457 10.2183 152.675 9.8251V9.82673Z" fill="#5B1A4C"/>
<path d="M124.426 4.33988L123.183 3.87326V2.94166C127.66 2.04431 129.686 1.47164 131.106 0L131.889 0.107681C131.782 3.51433 131.782 6.88671 131.782 10.3651C131.782 22.5233 131.782 22.7028 132.884 23.1694L133.88 23.5284V24.5676H123.114V23.5284L124.321 23.1694C125.317 22.8105 125.21 21.9507 125.21 13.7734C125.21 5.12954 125.281 4.73471 124.428 4.34151L124.426 4.33988Z" fill="#5B1A4C"/>
<path d="M69.7436 23.419C68.4295 23.096 68.3939 22.8806 68.3939 17.5015C68.3939 15.3495 68.465 12.8744 68.465 10.7224C68.465 7.81668 66.6176 6.27488 63.9878 6.27488C60.6484 6.27488 57.7341 9.10722 57.1296 11.5464H56.8451C56.8807 6.48861 57.0229 2.47177 57.1296 0.213731L56.6318 0.0342622C54.9266 1.46838 51.5161 2.5093 48.6374 2.97592V3.83574L49.8092 4.41004C50.6982 4.87666 50.5915 5.55701 50.5915 15.7786C50.5915 22.4499 50.5915 22.879 49.2063 23.3815L48.6374 23.561V24.6003H58.9432V23.4974L58.3015 23.3081C57.0941 22.9851 57.0585 22.8415 57.0585 13.1224C57.0585 11.4371 58.1237 11.0063 59.3327 11.0063C61.3224 11.0063 61.8914 11.6165 61.8914 16.6727C61.8914 22.4467 61.9269 23.0927 60.7195 23.3799L60.2912 23.5006V24.6003H70.3481V23.561L69.7436 23.4174V23.419Z" fill="#5B1A4C"/>
</svg>
