<?xml version="1.0" encoding="UTF-8" standalone="no"?>
<svg
   width="165"
   height="84"
   viewBox="0 0 165 84"
   version="1.1"
   id="svg78"
   sodipodi:docname="UKHDRA_logo.svg"
   inkscape:version="1.2.2 (732a01da63, 2022-12-09)"
   xmlns:inkscape="http://www.inkscape.org/namespaces/inkscape"
   xmlns:sodipodi="http://sodipodi.sourceforge.net/DTD/sodipodi-0.dtd"
   xmlns="http://www.w3.org/2000/svg"
   xmlns:svg="http://www.w3.org/2000/svg">
  <sodipodi:namedview
     id="namedview80"
     pagecolor="#ffffff"
     bordercolor="#000000"
     borderopacity="0.25"
     inkscape:showpageshadow="2"
     inkscape:pageopacity="0.0"
     inkscape:pagecheckerboard="0"
     inkscape:deskcolor="#d1d1d1"
     showgrid="false"
     inkscape:zoom="4.8625595"
     inkscape:cx="58.919588"
     inkscape:cy="54.395221"
     inkscape:window-width="1920"
     inkscape:window-height="1002"
     inkscape:window-x="2125"
     inkscape:window-y="-8"
     inkscape:window-maximized="1"
     inkscape:current-layer="svg78" />
  <defs
     id="defs62">
    <radialGradient
       id="a"
       cx="40.2393"
       cy="1.0846558"
       r="115.10685"
       fx="40.2393"
       fy="1.0846558"
       gradientTransform="scale(1.00021,0.99979002)"
       gradientUnits="userSpaceOnUse">
      <stop
         offset="0%"
         stop-color="#3DB28B"
         id="stop2" />
      <stop
         offset="27%"
         stop-color="#3DAF8C"
         id="stop4" />
      <stop
         offset="47%"
         stop-color="#3FA58F"
         id="stop6" />
      <stop
         offset="66%"
         stop-color="#419595"
         id="stop8" />
      <stop
         offset="83%"
         stop-color="#447E9D"
         id="stop10" />
      <stop
         offset="99%"
         stop-color="#4860A7"
         id="stop12" />
      <stop
         offset="100%"
         stop-color="#485EA8"
         id="stop14" />
    </radialGradient>
    <radialGradient
       id="b"
       cx="40.241768"
       cy="1.0881758"
       r="115.11376"
       fx="40.241768"
       fy="1.0881758"
       gradientTransform="scale(1.00027,0.99973005)"
       gradientUnits="userSpaceOnUse">
      <stop
         offset="0%"
         stop-color="#3DB28B"
         id="stop17" />
      <stop
         offset="27%"
         stop-color="#3DAF8C"
         id="stop19" />
      <stop
         offset="47%"
         stop-color="#3FA58F"
         id="stop21" />
      <stop
         offset="66%"
         stop-color="#419595"
         id="stop23" />
      <stop
         offset="83%"
         stop-color="#447E9D"
         id="stop25" />
      <stop
         offset="99%"
         stop-color="#4860A7"
         id="stop27" />
      <stop
         offset="100%"
         stop-color="#485EA8"
         id="stop29" />
    </radialGradient>
    <radialGradient
       id="c"
       cx="40.226921"
       cy="1.0848131"
       r="115.1103"
       fx="40.226921"
       fy="1.0848131"
       gradientTransform="scale(1.00024,0.99976003)"
       gradientUnits="userSpaceOnUse">
      <stop
         offset="0%"
         stop-color="#3DB28B"
         id="stop32" />
      <stop
         offset="27%"
         stop-color="#3DAF8C"
         id="stop34" />
      <stop
         offset="47%"
         stop-color="#3FA58F"
         id="stop36" />
      <stop
         offset="66%"
         stop-color="#419595"
         id="stop38" />
      <stop
         offset="83%"
         stop-color="#447E9D"
         id="stop40" />
      <stop
         offset="99%"
         stop-color="#4860A7"
         id="stop42" />
      <stop
         offset="100%"
         stop-color="#485EA8"
         id="stop44" />
    </radialGradient>
    <radialGradient
       id="d"
       cx="40.21249"
       cy="1.0846558"
       r="115.10685"
       fx="40.21249"
       fy="1.0846558"
       gradientTransform="scale(1.00021,0.99979002)"
       gradientUnits="userSpaceOnUse">
      <stop
         offset="0%"
         stop-color="#3DB28B"
         id="stop47" />
      <stop
         offset="27%"
         stop-color="#3DAF8C"
         id="stop49" />
      <stop
         offset="47%"
         stop-color="#3FA58F"
         id="stop51" />
      <stop
         offset="66%"
         stop-color="#419595"
         id="stop53" />
      <stop
         offset="83%"
         stop-color="#447E9D"
         id="stop55" />
      <stop
         offset="99%"
         stop-color="#4860A7"
         id="stop57" />
      <stop
         offset="100%"
         stop-color="#485EA8"
         id="stop59" />
    </radialGradient>
  </defs>
  <g
     fill="none"
     fill-rule="nonzero"
     id="g76"
     transform="translate(1.9143895,1.1975)">
    <path
       fill="url(#a)"
       d="M 42.64,16.663 V 2.85 H 56.504 V 0 h -16.67 v 16.663 z"
       id="path64"
       style="fill:url(#a)" />
    <path
       fill="url(#b)"
       d="M 56.504,81.605 V 78.8 H 42.64 V 64.942 h -2.808 v 16.663 z"
       id="path66"
       style="fill:url(#b)" />
    <path
       fill="url(#c)"
       d="m 118.535,78.799 h -13.82 v 2.806 h 16.671 V 64.942 h -2.851 z"
       id="path68"
       style="fill:url(#c)" />
    <path
       fill="url(#d)"
       d="m 118.535,2.85 v 13.813 h 2.851 V 0 h -16.67 v 2.85 z"
       id="path70"
       style="fill:url(#d)" />
    <g
       fill="#494444"
       id="g74">
      <path
         d="m 10.572,24.03 c -0.043,-0.439 0.22,-0.79 0.659,-0.877 h 1.139 c 0.439,-0.044 0.834,0.22 0.878,0.658 v 8.682 c 0,1.973 1.272,3.07 3.246,3.07 1.974,0 3.246,-1.097 3.246,-3.07 V 24.03 c -0.044,-0.439 0.22,-0.79 0.658,-0.877 h 1.096 a 0.748,0.748 0 0 1 0.834,0.658 v 8.726 c 0,3.289 -2.325,5.481 -5.878,5.481 -3.553,0 -5.922,-2.236 -5.922,-5.481 V 24.03 h 0.043 z m 14.784,0 c -0.043,-0.439 0.22,-0.79 0.658,-0.877 H 27.2 c 0.439,-0.044 0.79,0.263 0.833,0.702 v 5.262 h 1.93 l 3.072,-5.35 c 0.175,-0.395 0.57,-0.614 1.009,-0.614 h 1.008 c 0.702,0 0.922,0.438 0.615,1.008 l -3.554,5.92 v 0.044 l 3.817,6.578 c 0.35,0.614 0.088,1.008 -0.614,1.008 H 34.219 C 33.78,37.755 33.385,37.492 33.21,37.097 l -3.246,-5.788 h -1.93 v 5.525 c 0.087,0.395 -0.22,0.79 -0.615,0.877 h -1.184 c -0.395,0.044 -0.79,-0.219 -0.834,-0.658 V 24.03 h -0.044 z m 17.68,0 c -0.044,-0.439 0.219,-0.79 0.658,-0.877 h 1.184 c 0.439,-0.044 0.79,0.263 0.834,0.702 v 5.525 h 6.712 v -5.35 c -0.044,-0.439 0.22,-0.833 0.658,-0.877 h 1.14 a 0.748,0.748 0 0 1 0.834,0.658 v 13.111 c 0.088,0.395 -0.22,0.79 -0.614,0.877 h -1.14 c -0.396,0.088 -0.79,-0.22 -0.878,-0.614 V 31.66 h -6.712 v 5.262 c 0.087,0.395 -0.22,0.79 -0.614,0.877 h -1.229 c -0.395,0.044 -0.79,-0.22 -0.833,-0.658 z m 19.258,2.982 c 2.983,0 4.65,2.105 4.65,4.999 0,0.482 -0.394,0.877 -0.92,0.877 h -6.406 c 0.088,1.666 1.492,2.938 3.159,2.894 0.79,0 1.58,-0.263 2.281,-0.702 0.526,-0.263 0.877,-0.175 1.14,0.307 l 0.264,0.395 c 0.263,0.35 0.175,0.833 -0.176,1.096 -0.043,0.044 -0.043,0.044 -0.087,0.044 -1.053,0.658 -2.282,1.052 -3.554,1.052 -3.465,0 -5.659,-2.5 -5.659,-5.481 -0.044,-3.201 2.15,-5.481 5.308,-5.481 z m 2.062,4.297 c -0.044,-1.447 -0.921,-2.324 -2.106,-2.324 -1.36,0 -2.28,0.92 -2.544,2.324 z m 9.607,10e-4 h 0.44 v -0.264 c 0,-1.403 -0.878,-1.842 -1.975,-1.842 -0.79,0 -1.535,0.22 -2.193,0.614 a 0.832,0.832 0 0 1 -1.097,-0.22 c -0.044,-0.043 -0.044,-0.087 -0.088,-0.13 l -0.22,-0.395 a 0.722,0.722 0 0 1 0.176,-1.053 c 0.044,-0.044 0.088,-0.044 0.132,-0.087 a 7.22,7.22 0 0 1 3.422,-0.877 c 2.72,0 4.343,1.534 4.343,4.165 v 5.7 c 0.087,0.396 -0.22,0.79 -0.614,0.878 h -0.966 c -0.394,0.044 -0.79,-0.22 -0.833,-0.658 v -0.614 c 0,-0.131 0,-0.307 0.044,-0.438 h 0.044 c -0.658,1.184 -1.93,1.973 -3.29,1.973 -1.93,0 -3.466,-1.228 -3.466,-3.157 0,-3.114 3.773,-3.596 6.141,-3.596 m -1.974,4.736 c 1.448,0 2.413,-1.491 2.413,-2.763 v -0.394 h -0.439 c -1.316,0 -3.553,0.219 -3.553,1.754 0,0.701 0.527,1.36 1.58,1.403 M 79.228,24.03 c -0.044,-0.439 0.22,-0.79 0.658,-0.877 h 1.14 a 0.748,0.748 0 0 1 0.834,0.658 V 34.29 c 0,1.01 0.439,1.229 0.833,1.273 0.351,0 0.658,0.35 0.658,0.701 v 0.746 c 0.044,0.438 -0.219,0.833 -0.658,0.877 h -0.219 c -1.404,0 -3.202,-0.351 -3.202,-3.377 z m 6.054,5.481 h -0.57 c -0.395,0.044 -0.79,-0.219 -0.834,-0.658 v -0.569 c -0.044,-0.44 0.22,-0.834 0.658,-0.878 h 0.833 v -2.104 c -0.043,-0.439 0.264,-0.834 0.659,-0.877 h 1.052 a 0.792,0.792 0 0 1 0.878,0.701 v 2.324 h 1.535 c 0.439,-0.044 0.834,0.263 0.878,0.658 v 0.57 c 0.043,0.439 -0.22,0.79 -0.658,0.877 h -1.711 v 4.078 c 0,1.579 0.965,1.886 1.71,1.973 0.615,0.044 0.878,0.264 0.878,0.834 v 0.613 c 0,0.614 -0.351,0.877 -1.053,0.877 -1.886,0 -4.124,-1.008 -4.124,-3.858 l -0.131,-4.56 z m 6.712,-5.481 c -0.044,-0.439 0.263,-0.833 0.658,-0.877 h 1.097 c 0.438,-0.044 0.833,0.22 0.877,0.658 v 4.472 c 0,0.307 0,0.57 -0.044,0.877 h 0.044 c 0.746,-1.315 2.15,-2.148 3.641,-2.104 2.325,0 3.685,1.227 3.685,3.99 v 5.92 c 0.044,0.438 -0.22,0.833 -0.658,0.877 h -1.097 c -0.395,0.087 -0.79,-0.22 -0.877,-0.614 v -5.657 c 0,-1.271 -0.351,-2.148 -1.667,-2.148 -1.843,0 -3.027,1.49 -3.027,3.464 v 4.034 c 0.088,0.395 -0.22,0.79 -0.614,0.877 H 92.87 c -0.439,0.044 -0.833,-0.22 -0.877,-0.658 V 24.03 Z m 17.46,0 c -0.088,-0.395 0.219,-0.79 0.614,-0.877 h 4.343 c 4.518,0 7.458,2.675 7.458,7.28 0,4.603 -2.94,7.322 -7.458,7.322 h -4.124 c -0.395,0.044 -0.79,-0.22 -0.833,-0.658 z m 4.825,11.445 c 2.983,0 4.87,-1.754 4.87,-5.043 0,-3.289 -1.93,-4.999 -4.826,-4.999 h -2.193 v 10.042 h 2.15 z m 14.828,-4.165 h 0.439 v -0.264 c 0,-1.403 -0.878,-1.842 -1.974,-1.842 -0.79,0 -1.536,0.22 -2.194,0.614 a 0.832,0.832 0 0 1 -1.097,-0.22 c -0.043,-0.043 -0.043,-0.087 -0.087,-0.13 l -0.22,-0.395 a 0.722,0.722 0 0 1 0.176,-1.053 c 0.044,-0.044 0.088,-0.044 0.175,-0.087 a 7.22,7.22 0 0 1 3.422,-0.877 c 2.72,0 4.343,1.534 4.343,4.165 v 5.7 c 0.088,0.396 -0.22,0.79 -0.614,0.878 h -0.921 c -0.395,0.044 -0.79,-0.263 -0.834,-0.658 v -0.614 c 0,-0.131 0,-0.307 0.044,-0.438 h -0.088 c -0.658,1.184 -1.93,1.973 -3.29,1.973 -1.93,0 -3.465,-1.228 -3.465,-3.157 0,-3.114 3.816,-3.596 6.185,-3.596 m -1.974,4.736 c 1.448,0 2.413,-1.491 2.413,-2.763 v -0.394 h -0.439 c -1.316,0 -3.553,0.219 -3.553,1.754 -0.044,0.701 0.526,1.36 1.579,1.403 m 7.677,-6.534 h -0.57 c -0.395,0.044 -0.79,-0.219 -0.834,-0.658 v -0.569 c -0.044,-0.44 0.22,-0.834 0.658,-0.878 h 0.834 v -2.104 a 0.792,0.792 0 0 1 0.702,-0.877 h 1.009 a 0.792,0.792 0 0 1 0.877,0.701 v 2.324 h 1.536 c 0.438,-0.044 0.833,0.263 0.877,0.658 v 0.57 c 0.044,0.439 -0.22,0.79 -0.658,0.877 h -1.755 v 4.078 c 0,1.579 0.965,1.886 1.667,1.973 0.658,0.044 0.878,0.264 0.878,0.834 v 0.613 c 0,0.614 -0.351,0.877 -1.053,0.877 -1.887,0 -4.124,-1.008 -4.124,-3.858 l -0.044,-4.56 z m 12.064,1.799 h 0.439 v -0.264 c 0,-1.403 -0.878,-1.842 -1.974,-1.842 -0.79,0 -1.536,0.22 -2.194,0.614 -0.526,0.22 -0.921,0.132 -1.14,-0.35 l -0.22,-0.395 a 0.722,0.722 0 0 1 0.176,-1.053 c 0.044,-0.044 0.088,-0.087 0.175,-0.087 a 7.22,7.22 0 0 1 3.422,-0.877 c 2.72,0 4.343,1.534 4.343,4.165 v 5.7 c 0.088,0.396 -0.22,0.79 -0.614,0.878 h -0.965 c -0.395,0.044 -0.79,-0.22 -0.834,-0.658 v -0.614 c 0,-0.131 0,-0.307 0.044,-0.438 h -0.044 c -0.658,1.184 -1.93,1.973 -3.29,1.973 -1.93,0 -3.466,-1.228 -3.466,-3.157 -0.043,-3.114 3.773,-3.596 6.142,-3.596 m -1.974,4.736 c 1.448,0 2.413,-1.491 2.413,-2.763 v -0.394 h -0.439 c -1.316,0 -3.553,0.219 -3.553,1.754 0,0.701 0.526,1.36 1.579,1.403 M 0.439,44.464 c -0.044,-0.438 0.219,-0.79 0.658,-0.877 h 4.167 c 1.448,0 2.15,0.132 2.764,0.395 1.492,0.614 2.457,2.017 2.457,3.99 0,1.71 -0.922,3.377 -2.413,3.99 v 0.044 c 0.175,0.22 0.35,0.483 0.482,0.746 l 2.413,4.385 c 0.351,0.614 0.088,1.008 -0.614,1.008 H 9.213 C 8.773,58.189 8.379,57.926 8.203,57.532 L 5.615,52.708 H 3.071 v 4.604 c 0.088,0.395 -0.22,0.79 -0.614,0.877 H 1.272 C 0.877,58.233 0.482,57.97 0.439,57.532 Z m 5.045,6.008 c 1.403,0 2.325,-0.877 2.325,-2.324 0,-0.921 -0.351,-1.667 -1.14,-2.018 A 3.253,3.253 0 0 0 5.089,45.867 H 3.07 v 4.56 h 2.413 v 0.045 z M 17.24,47.446 c 2.984,0 4.65,2.105 4.65,4.999 0,0.482 -0.438,0.877 -0.92,0.877 h -6.362 c 0.088,1.666 1.492,2.938 3.159,2.894 0.79,0 1.58,-0.263 2.281,-0.702 0.527,-0.263 0.878,-0.175 1.14,0.307 l 0.264,0.395 c 0.263,0.35 0.176,0.833 -0.175,1.096 a 0.136,0.136 0 0 1 -0.088,0.044 6.366,6.366 0 0 1 -3.554,1.053 c -3.465,0 -5.659,-2.5 -5.659,-5.482 -0.044,-3.2 2.15,-5.481 5.265,-5.481 z m 2.062,4.297 c -0.043,-1.447 -0.92,-2.324 -2.105,-2.324 -1.316,0 -2.281,0.921 -2.545,2.324 z m 3.861,4.473 0.263,-0.35 c 0.307,-0.44 0.658,-0.483 1.185,-0.22 0.702,0.438 1.535,0.702 2.325,0.702 0.92,0 1.447,-0.395 1.447,-1.053 0,-1.71 -5.22,-1.052 -5.22,-4.692 0,-2.06 1.799,-3.157 4.036,-3.157 1.009,0 2.018,0.263 2.94,0.745 0.394,0.176 0.57,0.658 0.394,1.053 0,0.044 -0.044,0.088 -0.044,0.131 l -0.22,0.395 c -0.262,0.482 -0.657,0.57 -1.14,0.35 a 5.29,5.29 0 0 0 -1.974,-0.525 c -0.921,0 -1.404,0.35 -1.404,1.008 0,1.754 5.22,1.053 5.22,4.648 0,1.842 -1.579,3.245 -3.991,3.245 A 6.226,6.226 0 0 1 23.47,57.444 C 23.12,57.268 22.944,56.83 23.12,56.435 23.031,56.348 23.075,56.26 23.163,56.216 m 14.126,-8.77 c 2.983,0 4.65,2.105 4.65,4.999 0,0.482 -0.439,0.877 -0.921,0.877 h -6.405 c 0.088,1.666 1.491,2.982 3.158,2.894 0.79,0 1.58,-0.263 2.282,-0.702 0.526,-0.263 0.877,-0.175 1.14,0.307 l 0.263,0.395 c 0.264,0.35 0.176,0.833 -0.175,1.096 -0.044,0.044 -0.088,0.044 -0.088,0.044 a 6.366,6.366 0 0 1 -3.553,1.053 c -3.466,0 -5.66,-2.5 -5.66,-5.482 -0.043,-3.2 2.15,-5.481 5.309,-5.481 z m 2.062,4.341 c -0.044,-1.447 -0.922,-2.324 -2.106,-2.324 -1.36,0 -2.281,0.921 -2.544,2.324 z m 9.651,-0.044 h 0.439 V 51.48 c 0,-1.36 -0.878,-1.841 -1.975,-1.841 -0.79,0 -1.535,0.219 -2.193,0.613 -0.526,0.22 -0.921,0.132 -1.14,-0.35 l -0.22,-0.395 a 0.722,0.722 0 0 1 0.176,-1.052 c 0.043,-0.044 0.087,-0.044 0.175,-0.088 a 7.22,7.22 0 0 1 3.422,-0.877 c 2.72,0 4.343,1.535 4.343,4.166 v 5.7 c 0.088,0.395 -0.22,0.79 -0.614,0.877 H 50.45 c -0.395,0.044 -0.79,-0.22 -0.834,-0.658 v -0.614 c 0,-0.131 0,-0.306 0.044,-0.438 h -0.044 c -0.658,1.184 -1.93,1.973 -3.29,1.973 -1.93,0 -3.466,-1.228 -3.466,-3.157 -0.044,-3.113 3.773,-3.596 6.142,-3.596 m -1.974,4.736 c 1.447,0 2.413,-1.49 2.413,-2.762 V 53.322 H 49 c -1.315,0 -3.552,0.22 -3.552,1.754 0,0.702 0.526,1.36 1.579,1.403 m 7.239,-7.893 c -0.044,-0.438 0.22,-0.79 0.658,-0.877 h 1.01 c 0.438,-0.044 0.833,0.263 0.877,0.658 v 1.228 c 0,0.219 0,0.482 -0.044,0.701 h 0.044 c 0.394,-1.271 1.579,-2.675 3.07,-2.675 0.57,0 0.79,0.307 0.79,0.877 v 0.79 a 0.792,0.792 0 0 1 -0.702,0.877 h -0.175 c -1.93,0 -2.852,1.885 -2.852,3.815 v 3.376 c 0.088,0.395 -0.22,0.79 -0.614,0.877 h -1.14 c -0.395,0.044 -0.79,-0.22 -0.834,-0.658 v -0.219 z m 12.152,-1.14 a 5.95,5.95 0 0 1 3.422,1.052 c 0.35,0.22 0.482,0.702 0.263,1.053 -0.044,0.044 -0.044,0.088 -0.088,0.088 l -0.263,0.394 c -0.307,0.483 -0.658,0.483 -1.14,0.22 a 3.754,3.754 0 0 0 -2.019,-0.614 c -1.71,-0.044 -3.158,1.315 -3.202,3.025 v 0.22 c -0.044,1.753 1.316,3.244 3.07,3.288 h 0.22 c 0.834,0 1.667,-0.307 2.37,-0.79 0.526,-0.306 0.92,-0.218 1.184,0.264 l 0.219,0.395 c 0.263,0.35 0.175,0.877 -0.176,1.14 0,0 -0.043,0 -0.043,0.044 -1.097,0.789 -2.37,1.227 -3.73,1.227 -3.465,0 -5.702,-2.455 -5.702,-5.48 -0.088,-2.983 2.15,-5.526 5.615,-5.526 m 5.659,-2.982 c -0.044,-0.438 0.263,-0.833 0.658,-0.877 h 1.097 c 0.439,-0.044 0.833,0.22 0.877,0.658 v 4.473 c 0,0.307 0,0.57 -0.044,0.877 h 0.044 c 0.746,-1.316 2.15,-2.149 3.641,-2.105 2.325,0 3.685,1.228 3.685,3.99 v 5.876 c 0.044,0.439 -0.219,0.833 -0.658,0.877 h -1.096 c -0.395,0.088 -0.79,-0.22 -0.878,-0.614 v -5.613 c 0,-1.271 -0.35,-2.148 -1.667,-2.148 -1.842,0 -3.027,1.49 -3.027,3.464 v 3.99 c 0.088,0.395 -0.22,0.79 -0.614,0.877 H 72.954 C 72.516,58.233 72.121,57.97 72.077,57.532 Z M 92.74,44.289 c 0.131,-0.439 0.526,-0.746 0.965,-0.702 h 1.316 c 0.438,-0.044 0.877,0.263 0.965,0.702 l 4.562,12.936 c 0.22,0.614 -0.044,0.964 -0.702,0.964 h -0.965 c -0.438,0.044 -0.877,-0.263 -0.965,-0.701 l -1.053,-3.026 h -5.132 l -1.01,3.026 c -0.087,0.438 -0.526,0.745 -0.965,0.701 h -0.965 c -0.614,0 -0.921,-0.394 -0.702,-0.964 l 4.65,-12.936 z m 3.509,8.024 -1.316,-3.902 c -0.263,-0.833 -0.57,-2.28 -0.57,-2.28 h -0.044 c 0,0 -0.351,1.447 -0.57,2.28 l -1.317,3.902 z m 5.747,-7.849 c -0.044,-0.438 0.22,-0.79 0.658,-0.877 h 1.097 c 0.438,-0.044 0.79,0.263 0.833,0.702 v 10.436 c 0,1.053 0.439,1.228 0.834,1.272 0.35,0 0.658,0.307 0.658,0.701 v 0.746 c 0.044,0.438 -0.263,0.833 -0.658,0.877 h -0.22 c -1.403,0 -3.202,-0.395 -3.202,-3.377 z m 5.527,0 c -0.043,-0.438 0.22,-0.79 0.658,-0.877 h 1.097 c 0.439,-0.044 0.79,0.263 0.834,0.702 v 10.436 c 0,1.053 0.438,1.228 0.833,1.272 0.351,0 0.658,0.307 0.658,0.701 v 0.746 c 0.044,0.438 -0.263,0.833 -0.658,0.877 h -0.22 c -1.403,0 -3.202,-0.395 -3.202,-3.377 z m 5.572,0.614 v -0.614 c -0.044,-0.438 0.22,-0.79 0.658,-0.877 h 1.14 c 0.44,-0.044 0.834,0.263 0.878,0.658 v 0.833 a 0.748,0.748 0 0 1 -0.658,0.833 h -1.14 c -0.396,0.044 -0.79,-0.219 -0.834,-0.658 -0.088,-0.043 -0.088,-0.087 -0.044,-0.175 z m -0.044,3.508 c -0.044,-0.438 0.22,-0.79 0.658,-0.877 h 1.14 a 0.748,0.748 0 0 1 0.834,0.658 v 8.99 c 0.088,0.394 -0.22,0.788 -0.614,0.876 h -1.14 c -0.395,0.044 -0.79,-0.22 -0.834,-0.658 v -8.989 z m 10.353,3.157 h 0.439 V 51.48 c 0,-1.36 -0.878,-1.841 -1.974,-1.841 -0.79,0 -1.536,0.219 -2.194,0.613 -0.35,0.22 -0.833,0.132 -1.053,-0.219 -0.044,-0.044 -0.044,-0.088 -0.087,-0.131 l -0.22,-0.395 c -0.263,-0.35 -0.175,-0.833 0.176,-1.096 0.044,-0.044 0.087,-0.044 0.131,-0.088 a 7.22,7.22 0 0 1 3.422,-0.877 c 2.72,0 4.343,1.535 4.343,4.166 v 5.7 c 0.088,0.395 -0.22,0.79 -0.614,0.877 h -0.921 c -0.395,0.044 -0.79,-0.219 -0.834,-0.657 v -0.614 c 0,-0.132 0,-0.307 0.044,-0.439 h -0.044 c -0.658,1.184 -1.93,1.973 -3.29,1.973 -1.93,0 -3.466,-1.227 -3.466,-3.157 0,-3.07 3.773,-3.552 6.142,-3.552 m -1.974,4.736 c 1.448,0 2.413,-1.49 2.413,-2.762 v -0.395 h -0.439 c -1.316,0 -3.553,0.22 -3.553,1.754 0,0.702 0.526,1.36 1.579,1.403 m 7.238,-7.893 c -0.043,-0.438 0.22,-0.79 0.658,-0.877 h 0.966 c 0.438,-0.044 0.79,0.263 0.833,0.702 V 49.2 c 0,0.175 0,0.307 -0.044,0.482 h 0.044 c 0.702,-1.403 2.15,-2.236 3.729,-2.236 2.325,0 3.685,1.228 3.685,3.99 v 5.876 c 0.088,0.395 -0.22,0.79 -0.614,0.877 h -1.141 c -0.438,0.044 -0.833,-0.219 -0.877,-0.657 v -5.57 c 0,-1.271 -0.351,-2.148 -1.667,-2.148 -1.843,0 -3.027,1.535 -3.027,3.42 v 4.034 c 0.088,0.395 -0.22,0.79 -0.614,0.877 h -1.141 c -0.395,0.044 -0.79,-0.219 -0.833,-0.657 v -0.22 z m 17.153,-1.14 a 5.95,5.95 0 0 1 3.422,1.052 c 0.351,0.22 0.483,0.702 0.263,1.053 -0.044,0.044 -0.044,0.088 -0.087,0.088 l -0.264,0.394 c -0.307,0.483 -0.658,0.483 -1.14,0.22 a 3.754,3.754 0 0 0 -2.018,-0.614 3.135,3.135 0 0 0 -3.203,3.069 v 0.22 c -0.044,1.753 1.316,3.244 3.071,3.288 h 0.176 c 0.833,0 1.667,-0.307 2.369,-0.79 0.526,-0.306 0.92,-0.219 1.184,0.264 l 0.22,0.394 c 0.263,0.351 0.175,0.877 -0.176,1.14 l -0.044,0.044 c -1.097,0.79 -2.369,1.228 -3.729,1.228 -3.466,0 -5.703,-2.455 -5.703,-5.481 -0.044,-3.026 2.194,-5.569 5.66,-5.569 m 10.265,0 c 2.983,0 4.65,2.105 4.65,4.999 0,0.482 -0.439,0.877 -0.921,0.877 h -6.405 c 0.087,1.666 1.491,2.938 3.158,2.894 0.79,0 1.58,-0.263 2.281,-0.702 0.527,-0.263 0.878,-0.175 1.141,0.307 l 0.263,0.395 c 0.263,0.35 0.176,0.833 -0.175,1.096 -0.044,0.044 -0.088,0.044 -0.088,0.044 a 6.366,6.366 0 0 1 -3.553,1.053 c -3.466,0 -5.66,-2.5 -5.66,-5.482 0,-3.2 2.194,-5.481 5.309,-5.481 z m 2.062,4.297 c -0.044,-1.447 -0.922,-2.324 -2.106,-2.324 -1.316,0 -2.281,0.921 -2.545,2.324 h 4.65 z"
         id="path72" />
    </g>
  </g>
</svg>
