<?xml version="1.0" encoding="UTF-8" standalone="no"?>
<!-- Created with Inkscape (http://www.inkscape.org/) -->

<svg
   width="50"
   height="72"
   viewBox="0 0 13.229166 19.05"
   version="1.1"
   id="svg9835"
   inkscape:version="1.2.2 (732a01da63, 2022-12-09)"
   sodipodi:docname="uosa.svg"
   xmlns:inkscape="http://www.inkscape.org/namespaces/inkscape"
   xmlns:sodipodi="http://sodipodi.sourceforge.net/DTD/sodipodi-0.dtd"
   xmlns="http://www.w3.org/2000/svg"
   xmlns:svg="http://www.w3.org/2000/svg"
   xmlns:rdf="http://www.w3.org/1999/02/22-rdf-syntax-ns#"
   xmlns:cc="http://creativecommons.org/ns#"
   xmlns:dc="http://purl.org/dc/elements/1.1/">
  <title
     id="title10517">University of St Andrews</title>
  <sodipodi:namedview
     id="namedview9837"
     pagecolor="#ffffff"
     bordercolor="#000000"
     borderopacity="0.25"
     inkscape:showpageshadow="2"
     inkscape:pageopacity="0.0"
     inkscape:pagecheckerboard="0"
     inkscape:deskcolor="#d1d1d1"
     inkscape:document-units="mm"
     showgrid="false"
     inkscape:zoom="4.7907903"
     inkscape:cx="-59.593508"
     inkscape:cy="67.525393"
     inkscape:window-width="1920"
     inkscape:window-height="1002"
     inkscape:window-x="2125"
     inkscape:window-y="-8"
     inkscape:window-maximized="1"
     inkscape:current-layer="layer1" />
  <defs
     id="defs9832">
    <clipPath
       clipPathUnits="userSpaceOnUse"
       id="clipPath1048">
      <path
         d="m 20.551,409.438 h 72.455 v 89.665 H 20.551 Z"
         id="path1046" />
    </clipPath>
  </defs>
  <g
     inkscape:label="Layer 1"
     inkscape:groupmode="layer"
     id="layer1"
     transform="translate(-113.88684,-144.87366)">
    <g
       id="g1042"
       transform="matrix(0.35277777,0,0,-0.35277777,100.41348,314.60875)">
      <g
         id="g1044"
         clip-path="url(#clipPath1048)">
        <g
           id="g1050"
           transform="translate(42.1488,439.1204)">
          <path
             d="M 0,0 C 0,0.202 -0.01,0.343 -0.047,0.401 -0.079,0.454 -0.144,0.476 -0.272,0.483 L -0.53,0.496 V 0.66 C -0.252,0.647 0,0.643 0.264,0.643 c 0.247,0 0.498,0.004 0.778,0.017 V 0.496 L 0.784,0.483 C 0.655,0.476 0.591,0.454 0.559,0.401 0.521,0.343 0.511,0.202 0.511,0 v -1.847 c 0,-0.76 0.396,-0.98 1.105,-0.98 0.578,0 1.103,0.22 1.103,1.11 L 2.719,0 C 2.719,0.202 2.711,0.343 2.673,0.401 2.64,0.454 2.576,0.47 2.447,0.483 L 2.211,0.496 V 0.66 C 2.425,0.653 2.64,0.643 2.831,0.643 c 0.216,0 0.41,0.01 0.645,0.017 V 0.496 L 3.241,0.483 C 3.112,0.47 3.047,0.454 3.015,0.401 2.977,0.343 2.965,0.202 2.965,0 V -1.552 C 2.965,-2.7 2.532,-3.161 1.449,-3.161 0.537,-3.161 0,-2.887 0,-1.905 Z"
             style="fill:#000000;fill-opacity:1;fill-rule:nonzero;stroke:none"
             id="path1052" />
        </g>
        <g
           id="g1054"
           transform="translate(46.6484,436.614)">
          <path
             d="m 0,0 c 0,-0.143 0.006,-0.25 0.026,-0.31 0.022,-0.047 0.082,-0.071 0.173,-0.077 l 0.24,-0.014 v -0.161 c -0.187,0.004 -0.401,0.015 -0.664,0.015 -0.263,0 -0.478,-0.011 -0.665,-0.015 v 0.161 l 0.243,0.014 c 0.089,0.006 0.149,0.03 0.17,0.077 0.02,0.06 0.029,0.167 0.029,0.31 v 1.208 c 0,0.171 -0.013,0.288 -0.04,0.332 -0.03,0.044 -0.086,0.059 -0.197,0.059 h -0.199 v 0.149 c 0.316,0.032 0.638,0.136 0.836,0.22 L 0,1.947 V 1.492 h 0.012 l 0.395,0.342 c 0.12,0.103 0.221,0.134 0.436,0.134 0.627,0 0.884,-0.349 0.884,-0.933 L 1.727,0 c 0,-0.143 0.006,-0.25 0.027,-0.31 0.023,-0.047 0.082,-0.071 0.173,-0.077 l 0.219,-0.014 v -0.161 c -0.134,0.004 -0.29,0.015 -0.439,0.015 -0.149,0 -0.306,-0.011 -0.43,-0.015 V 0.96 C 1.277,1.404 1.025,1.641 0.659,1.641 0.334,1.641 0,1.357 0,1.138 Z"
             style="fill:#000000;fill-opacity:1;fill-rule:nonzero;stroke:none"
             id="path1056" />
        </g>
        <g
           id="g1058"
           transform="translate(49.9044,439.4513)">
          <path
             d="m 0,0 c 0,-0.155 -0.146,-0.294 -0.3,-0.294 -0.157,0 -0.294,0.139 -0.294,0.294 0,0.155 0.137,0.302 0.294,0.302 C -0.146,0.302 0,0.155 0,0 m -0.05,-2.837 c 0,-0.144 0.006,-0.251 0.029,-0.311 0.021,-0.047 0.079,-0.07 0.17,-0.076 l 0.248,-0.014 v -0.161 c -0.194,0.004 -0.409,0.014 -0.671,0.014 -0.262,0 -0.476,-0.01 -0.672,-0.014 v 0.161 l 0.249,0.014 c 0.091,0.006 0.149,0.029 0.17,0.076 0.023,0.06 0.029,0.167 0.029,0.311 v 1.208 c 0,0.171 -0.012,0.288 -0.038,0.332 -0.032,0.044 -0.088,0.058 -0.199,0.058 h -0.199 v 0.15 c 0.316,0.032 0.638,0.136 0.837,0.219 l 0.047,-0.02 z"
             style="fill:#000000;fill-opacity:1;fill-rule:nonzero;stroke:none"
             id="path1060" />
        </g>
        <g
           id="g1062"
           transform="translate(52.1999,436.614)">
          <path
             d="M 0,0 C -0.091,-0.198 -0.146,-0.401 -0.221,-0.584 H -0.489 L -1.411,1.577 C -1.444,1.651 -1.476,1.748 -1.578,1.754 L -1.76,1.764 V 1.913 C -1.55,1.909 -1.341,1.9 -1.133,1.9 c 0.211,0 0.413,0.009 0.624,0.013 V 1.764 L -0.773,1.754 C -0.913,1.748 -0.949,1.673 -0.861,1.448 l 0.64,-1.545 c 0.113,0.246 0.23,0.5 0.332,0.751 l 0.227,0.57 C 0.483,1.593 0.471,1.748 0.31,1.754 L 0.091,1.764 V 1.913 C 0.258,1.909 0.429,1.9 0.594,1.9 c 0.167,0 0.34,0.009 0.504,0.013 V 1.764 L 0.934,1.754 C 0.799,1.744 0.707,1.555 0.632,1.394 Z"
             style="fill:#000000;fill-opacity:1;fill-rule:nonzero;stroke:none"
             id="path1064" />
        </g>
        <g
           id="g1066"
           transform="translate(53.9788,437.5159)">
          <path
             d="M 0,0 C 0.441,-0.05 0.892,-0.038 1.278,-0.018 1.278,0.482 1.093,0.89 0.707,0.89 0.297,0.89 -0.026,0.586 0,0 m 1.755,0.085 c 0,-0.075 0,-0.149 -0.012,-0.226 -0.322,-0.052 -0.65,-0.073 -0.97,-0.073 h -0.782 c 0,-0.628 0.31,-1.058 0.971,-1.058 0.257,0 0.459,0.129 0.664,0.253 L 1.695,-1.073 1.588,-1.256 c -0.038,-0.063 -0.495,-0.3 -0.858,-0.3 -0.809,0 -1.24,0.514 -1.24,1.24 0,0.519 0.141,0.831 0.388,1.024 0.1,0.08 0.214,0.162 0.331,0.214 0.189,0.085 0.344,0.144 0.527,0.144 0.583,0 1.019,-0.375 1.019,-0.981"
             style="fill:#000000;fill-opacity:1;fill-rule:nonzero;stroke:none"
             id="path1068" />
        </g>
        <g
           id="g1070"
           transform="translate(56.4557,437.8218)">
          <path
             d="M 0,0 C 0,0.171 -0.01,0.288 -0.037,0.332 -0.069,0.376 -0.123,0.391 -0.236,0.391 H -0.435 V 0.54 c 0.319,0.032 0.641,0.136 0.838,0.22 L 0.452,0.739 V 0.196 H 0.461 L 0.751,0.54 C 0.88,0.697 1.063,0.76 1.202,0.76 1.293,0.76 1.405,0.733 1.449,0.701 L 1.401,0.057 H 1.29 C 1.23,0.186 1.117,0.306 0.924,0.306 0.687,0.306 0.452,0.057 0.452,-0.286 v -0.922 c 0,-0.143 0.005,-0.25 0.027,-0.31 0.02,-0.047 0.102,-0.07 0.225,-0.076 L 0.982,-1.609 V -1.77 c -0.278,0.004 -0.492,0.015 -0.755,0.015 -0.264,0 -0.477,-0.011 -0.671,-0.015 v 0.161 l 0.246,0.015 c 0.091,0.006 0.15,0.029 0.173,0.076 0.021,0.06 0.025,0.167 0.025,0.31 z"
             style="fill:#000000;fill-opacity:1;fill-rule:nonzero;stroke:none"
             id="path1072" />
        </g>
        <g
           id="g1074"
           transform="translate(58.3985,436.8336)">
          <path
             d="m 0,0 v -0.22 c 0,-0.33 0.381,-0.453 0.691,-0.453 0.34,0 0.63,0.196 0.63,0.486 0,0.172 -0.093,0.31 -0.258,0.352 -0.237,0.06 -0.533,0.12 -0.791,0.217 -0.256,0.095 -0.454,0.256 -0.454,0.583 0,0.58 0.504,0.783 1.008,0.783 0.251,0 0.483,-0.059 0.691,-0.133 C 1.501,1.421 1.496,1.225 1.49,1.009 H 1.341 v 0.123 c 0,0.279 -0.319,0.44 -0.622,0.44 -0.455,0 -0.527,-0.252 -0.527,-0.434 0,-0.23 0.18,-0.353 0.584,-0.424 0.641,-0.108 0.94,-0.269 0.94,-0.688 0,-0.59 -0.592,-0.9 -1.186,-0.9 -0.258,0 -0.489,0.038 -0.75,0.13 0.053,0.234 0.059,0.492 0.059,0.744 z"
             style="fill:#000000;fill-opacity:1;fill-rule:nonzero;stroke:none"
             id="path1076" />
        </g>
        <g
           id="g1078"
           transform="translate(61.347,439.4513)">
          <path
             d="m 0,0 c 0,-0.155 -0.143,-0.294 -0.299,-0.294 -0.156,0 -0.295,0.139 -0.295,0.294 0,0.155 0.139,0.302 0.295,0.302 C -0.143,0.302 0,0.155 0,0 m -0.047,-2.837 c 0,-0.144 0.005,-0.251 0.026,-0.311 0.021,-0.047 0.08,-0.07 0.172,-0.076 l 0.247,-0.014 v -0.161 c -0.193,0.004 -0.407,0.014 -0.67,0.014 -0.264,0 -0.478,-0.01 -0.671,-0.014 v 0.161 l 0.246,0.014 c 0.091,0.006 0.15,0.029 0.171,0.076 0.022,0.06 0.028,0.167 0.028,0.311 v 1.208 c 0,0.171 -0.01,0.288 -0.038,0.332 -0.032,0.044 -0.085,0.058 -0.198,0.058 h -0.197 v 0.15 c 0.313,0.032 0.638,0.136 0.836,0.219 l 0.048,-0.02 z"
             style="fill:#000000;fill-opacity:1;fill-rule:nonzero;stroke:none"
             id="path1080" />
        </g>
        <g
           id="g1082"
           transform="translate(61.9678,438.0956)">
          <path
             d="m 0,0 v 0.111 l 0.42,0.188 v 0.376 c 0,0.14 -0.004,0.279 -0.022,0.423 0.195,0.06 0.366,0.143 0.457,0.203 L 0.919,1.241 C 0.887,1.009 0.861,0.706 0.861,0.482 V 0.278 L 1.594,0.31 1.546,0.021 H 0.861 v -1.406 c 0,-0.247 0.069,-0.37 0.293,-0.37 0.14,0 0.243,0.06 0.317,0.102 L 1.542,-1.745 1.282,-2.029 C 1.236,-2.082 1.048,-2.092 0.935,-2.092 0.65,-2.092 0.41,-1.959 0.41,-1.523 v 1.544 z"
             style="fill:#000000;fill-opacity:1;fill-rule:nonzero;stroke:none"
             id="path1084" />
        </g>
        <g
           id="g1086"
           transform="translate(65.8327,438.0956)">
          <path
             d="m 0,0 c 0.079,0.196 0,0.256 -0.193,0.272 l -0.141,0.011 v 0.149 c 0.171,-0.005 0.338,-0.013 0.51,-0.013 0.171,0 0.336,0.008 0.509,0.013 V 0.283 L 0.536,0.272 C 0.404,0.262 0.287,0.095 0.083,-0.376 l -1.087,-2.513 c -0.17,-0.389 -0.366,-0.657 -0.814,-0.657 -0.094,0 -0.211,0.043 -0.27,0.082 l 0.128,0.4 h 0.071 c 0.065,-0.063 0.197,-0.128 0.273,-0.125 0.312,0.024 0.483,0.459 0.585,0.705 l 0.123,0.329 c -0.093,0.25 -0.199,0.512 -0.3,0.76 L -1.792,0.01 C -1.88,0.214 -1.954,0.262 -2.073,0.272 L -2.17,0.283 v 0.149 c 0.21,-0.005 0.416,-0.013 0.624,-0.013 0.211,0 0.413,0.008 0.622,0.013 V 0.283 L -1.127,0.272 C -1.278,0.266 -1.37,0.214 -1.256,-0.078 l 0.342,-0.899 c 0.077,-0.203 0.161,-0.396 0.273,-0.588 z"
             style="fill:#000000;fill-opacity:1;fill-rule:nonzero;stroke:none"
             id="path1088" />
        </g>
        <g
           id="g1090"
           transform="translate(68.055,437.4456)">
          <path
             d="m 0,0 c 0,-0.562 0.205,-1.309 0.892,-1.309 0.487,0 0.698,0.489 0.698,0.987 C 1.59,0.369 1.262,0.96 0.747,0.96 0.179,0.96 0,0.499 0,0 m -0.498,-0.23 c 0,0.802 0.504,1.366 1.368,1.366 0.688,0 1.218,-0.536 1.218,-1.222 0,-0.82 -0.586,-1.4 -1.406,-1.4 -0.676,-0.019 -1.18,0.514 -1.18,1.256"
             style="fill:#000000;fill-opacity:1;fill-rule:nonzero;stroke:none"
             id="path1092" />
        </g>
        <g
           id="g1094"
           transform="translate(72.1425,439.5011)">
          <path
             d="m 0,0 -0.064,-0.034 c -0.097,0.092 -0.22,0.15 -0.355,0.15 -0.334,0 -0.392,-0.154 -0.392,-0.766 v -0.457 l 0.706,0.021 -0.038,-0.283 h -0.668 v -1.518 c 0,-0.144 0.006,-0.25 0.029,-0.31 0.021,-0.047 0.079,-0.071 0.171,-0.077 l 0.248,-0.014 v -0.161 c -0.196,0.004 -0.409,0.014 -0.672,0.014 -0.262,0 -0.476,-0.01 -0.672,-0.014 v 0.161 l 0.249,0.014 c 0.091,0.006 0.149,0.03 0.171,0.077 0.022,0.06 0.028,0.166 0.028,0.31 v 1.518 L -1.63,-1.391 v 0.117 l 0.371,0.167 v 0.227 c 0,0.353 0.069,0.596 0.224,0.773 l 0.312,0.353 c 0.137,0.159 0.332,0.225 0.483,0.225 0.079,0 0.167,-0.029 0.24,-0.058 z"
             style="fill:#000000;fill-opacity:1;fill-rule:nonzero;stroke:none"
             id="path1096" />
        </g>
        <g
           id="g1098"
           transform="translate(42.8823,432.0815)">
          <path
             d="m 0,0 -0.04,0.37 c -0.019,0.177 -0.046,0.242 -0.287,0.393 -0.182,0.109 -0.457,0.156 -0.712,0.156 -0.457,0 -0.965,-0.307 -0.965,-0.954 0,-0.441 0.26,-0.718 1.076,-0.81 0.92,-0.095 1.503,-0.323 1.503,-1.068 0,-1.115 -1.001,-1.65 -1.971,-1.65 -0.457,0 -0.902,0.143 -1.116,0.248 0.052,0.34 0.052,0.69 0.046,0.997 h 0.206 l 0.054,-0.436 c 0.033,-0.274 0.549,-0.523 1.065,-0.523 0.586,0 1.167,0.361 1.167,1.005 0,0.621 -0.482,0.796 -1.148,0.874 -1.024,0.117 -1.43,0.441 -1.43,1.115 0,1.011 0.89,1.475 1.67,1.475 0.523,0 0.915,-0.167 1.183,-0.273 C 0.235,0.586 0.209,0.305 0.209,0 Z"
             style="fill:#000000;fill-opacity:1;fill-rule:nonzero;stroke:none"
             id="path1100" />
        </g>
        <g
           id="g1102"
           transform="translate(43.7439,431.1123)">
          <path
             d="m 0,0 v 0.138 l 0.509,0.231 v 0.455 c 0,0.171 -0.007,0.34 -0.026,0.515 0.231,0.072 0.442,0.178 0.553,0.248 L 1.113,1.517 C 1.076,1.23 1.044,0.864 1.044,0.591 V 0.341 L 1.935,0.381 1.878,0.029 H 1.044 v -1.71 c 0,-0.298 0.085,-0.449 0.357,-0.449 0.171,0 0.294,0.071 0.385,0.124 L 1.872,-2.12 1.558,-2.463 C 1.499,-2.53 1.272,-2.542 1.135,-2.542 c -0.347,0 -0.64,0.164 -0.64,0.691 v 1.88 z"
             style="fill:#000000;fill-opacity:1;fill-rule:nonzero;stroke:none"
             id="path1104" />
        </g>
        <g
           id="g1106"
           transform="translate(50.3348,430.4037)">
          <path
             d="M 0,0 -0.824,1.946 -1.653,0 Z M 1.025,-0.893 C 1.082,-1.025 1.152,-1.201 1.231,-1.338 1.303,-1.461 1.376,-1.546 1.49,-1.559 L 1.714,-1.58 v -0.194 c -0.285,0.004 -0.572,0.02 -0.865,0.02 -0.231,0 -0.518,-0.016 -0.87,-0.02 v 0.194 l 0.308,0.021 c 0.136,0.006 0.266,0.05 0.266,0.129 0,0.092 -0.073,0.263 -0.134,0.42 l -0.302,0.749 h -1.88 L -1.947,-0.7 c -0.057,-0.136 -0.226,-0.571 -0.226,-0.676 0,-0.138 0.11,-0.164 0.311,-0.183 l 0.241,-0.021 v -0.194 c -0.312,0.004 -0.56,0.02 -0.749,0.02 -0.255,0 -0.502,-0.016 -0.75,-0.02 v 0.194 l 0.242,0.021 c 0.155,0.013 0.279,0.148 0.351,0.321 l 1.162,2.642 c 0.203,0.455 0.424,0.938 0.601,1.41 h 0.206 z"
             style="fill:#000000;fill-opacity:1;fill-rule:nonzero;stroke:none"
             id="path1108" />
        </g>
        <g
           id="g1110"
           transform="translate(53.3155,429.3145)">
          <path
             d="M 0,0 C 0,-0.176 0.006,-0.306 0.032,-0.381 0.058,-0.439 0.13,-0.464 0.24,-0.47 l 0.296,-0.02 v -0.195 c -0.229,0.004 -0.492,0.02 -0.81,0.02 -0.32,0 -0.581,-0.016 -0.809,-0.02 v 0.195 l 0.292,0.02 c 0.112,0.006 0.183,0.031 0.21,0.089 0.025,0.075 0.033,0.205 0.033,0.381 v 1.468 c 0,0.208 -0.014,0.352 -0.046,0.403 -0.04,0.051 -0.106,0.073 -0.242,0.073 h -0.242 v 0.182 c 0.387,0.041 0.778,0.165 1.019,0.269 L 0,2.367 V 1.812 H 0.012 L 0.495,2.231 C 0.64,2.354 0.761,2.395 1.022,2.395 1.786,2.395 2.099,1.97 2.099,1.261 V 0 c 0,-0.176 0.008,-0.306 0.032,-0.381 0.028,-0.058 0.099,-0.083 0.211,-0.089 l 0.267,-0.02 v -0.195 c -0.161,0.004 -0.353,0.02 -0.533,0.02 -0.185,0 -0.373,-0.016 -0.523,-0.02 v 1.853 c 0,0.54 -0.309,0.827 -0.751,0.827 C 0.404,1.995 0,1.651 0,1.383 Z"
             style="fill:#000000;fill-opacity:1;fill-rule:nonzero;stroke:none"
             id="path1112" />
        </g>
        <g
           id="g1114"
           transform="translate(58.6765,430.9308)">
          <path
             d="m 0,0 c 0,0.132 -0.527,0.483 -0.919,0.471 -0.666,-0.017 -0.972,-0.396 -0.972,-1.194 0,-0.608 0.339,-1.265 1.017,-1.265 0.274,0 0.537,0.19 0.711,0.41 C 0.021,-1.35 0,-1.127 0,-0.842 Z m 0,1.763 c 0,0.151 -0.018,0.269 -0.163,0.269 h -0.364 v 0.183 c 0.347,0.05 0.694,0.11 1.019,0.24 L 0.549,2.404 v -4.02 c 0,-0.176 0.007,-0.306 0.034,-0.381 0.026,-0.058 0.096,-0.083 0.208,-0.089 l 0.301,-0.021 v -0.194 c -0.269,0.004 -0.433,0.02 -0.596,0.02 -0.168,0 -0.329,-0.016 -0.5,-0.02 l 0.03,0.601 -0.723,-0.607 c -0.058,-0.046 -0.246,-0.053 -0.416,-0.053 -0.913,0 -1.343,0.65 -1.343,1.508 0,0.591 0.283,1.034 0.612,1.206 l 0.573,0.302 c 0.195,0.102 0.372,0.123 0.484,0.123 0.292,0 0.506,-0.085 0.787,-0.209 z"
             style="fill:#000000;fill-opacity:1;fill-rule:nonzero;stroke:none"
             id="path1116" />
        </g>
        <g
           id="g1118"
           transform="translate(60.6574,430.783)">
          <path
             d="m 0,0 c 0,0.208 -0.013,0.351 -0.048,0.403 -0.041,0.051 -0.103,0.073 -0.24,0.073 h -0.243 v 0.181 c 0.386,0.041 0.775,0.166 1.019,0.27 L 0.546,0.899 V 0.24 h 0.015 l 0.351,0.417 c 0.155,0.191 0.375,0.27 0.548,0.27 0.108,0 0.249,-0.033 0.301,-0.074 L 1.703,0.072 H 1.564 C 1.493,0.227 1.354,0.37 1.12,0.37 0.833,0.37 0.546,0.072 0.546,-0.347 v -1.121 c 0,-0.176 0.006,-0.306 0.034,-0.381 0.025,-0.059 0.121,-0.083 0.272,-0.089 L 1.19,-1.959 v -0.195 c -0.338,0.005 -0.601,0.021 -0.919,0.021 -0.319,0 -0.578,-0.016 -0.817,-0.021 v 0.195 l 0.301,0.021 c 0.113,0.006 0.182,0.03 0.21,0.089 C -0.009,-1.774 0,-1.644 0,-1.468 Z"
             style="fill:#000000;fill-opacity:1;fill-rule:nonzero;stroke:none"
             id="path1120" />
        </g>
        <g
           id="g1122"
           transform="translate(63.2267,430.4095)">
          <path
             d="M 0,0 C 0.536,-0.058 1.083,-0.044 1.555,-0.019 1.555,0.586 1.332,1.083 0.861,1.083 0.36,1.083 -0.032,0.714 0,0 m 2.134,0.105 c 0,-0.092 0,-0.184 -0.013,-0.272 C 1.73,-0.234 1.332,-0.261 0.94,-0.261 h -0.953 c 0,-0.764 0.379,-1.285 1.181,-1.285 0.314,0 0.562,0.155 0.808,0.308 L 2.06,-1.303 1.933,-1.525 c -0.047,-0.08 -0.601,-0.367 -1.046,-0.367 -0.984,0 -1.506,0.626 -1.506,1.507 0,0.634 0.168,1.012 0.47,1.246 0.123,0.1 0.26,0.196 0.404,0.262 C 0.483,1.227 0.671,1.3 0.896,1.3 1.605,1.3 2.134,0.84 2.134,0.105"
             style="fill:#000000;fill-opacity:1;fill-rule:nonzero;stroke:none"
             id="path1124" />
        </g>
        <g
           id="g1126"
           transform="translate(68.2571,431.7096)">
          <path
             d="m 0,0 h 0.149 c 0.062,-0.19 0.123,-0.36 0.192,-0.53 l 0.747,-1.891 c 0.105,0.267 0.215,0.535 0.316,0.809 L 1.729,-0.7 c 0.105,0.289 0.034,0.425 -0.209,0.439 l -0.223,0.015 v 0.18 c 0.217,-0.007 0.425,-0.019 0.641,-0.019 0.214,0 0.423,0.012 0.639,0.019 v -0.18 L 2.405,-0.261 C 2.257,-0.275 2.152,-0.451 1.991,-0.832 L 1.546,-1.848 C 1.37,-2.253 1.246,-2.691 1.096,-3.105 H 0.798 l -0.889,2.23 c -0.113,-0.241 -0.236,-0.489 -0.337,-0.731 l -0.641,-1.499 h -0.307 l -0.668,2.191 c -0.17,0.545 -0.268,0.639 -0.43,0.653 l -0.185,0.015 v 0.18 c 0.264,-0.007 0.519,-0.019 0.779,-0.019 0.262,0 0.517,0.012 0.776,0.019 v -0.18 l -0.259,-0.015 c -0.224,-0.014 -0.294,-0.086 -0.224,-0.322 l 0.551,-1.799 c 0.084,0.174 0.155,0.351 0.234,0.529 z"
             style="fill:#000000;fill-opacity:1;fill-rule:nonzero;stroke:none"
             id="path1128" />
        </g>
        <g
           id="g1130"
           transform="translate(71.4661,429.581)">
          <path
             d="m 0,0 v -0.266 c 0,-0.403 0.465,-0.555 0.843,-0.555 0.41,0 0.762,0.238 0.762,0.593 0,0.207 -0.112,0.377 -0.314,0.43 C 1.006,0.275 0.646,0.346 0.334,0.463 0.021,0.581 -0.22,0.779 -0.22,1.174 c 0,0.709 0.611,0.955 1.226,0.955 0.306,0 0.587,-0.074 0.842,-0.164 C 1.827,1.729 1.818,1.489 1.814,1.227 H 1.631 v 0.149 c 0,0.341 -0.384,0.536 -0.759,0.536 -0.55,0 -0.638,-0.307 -0.638,-0.527 0,-0.283 0.214,-0.433 0.712,-0.518 0.779,-0.129 1.142,-0.325 1.142,-0.832 0,-0.722 -0.718,-1.098 -1.442,-1.098 -0.312,0 -0.59,0.047 -0.912,0.157 0.064,0.288 0.073,0.602 0.073,0.906 z"
             style="fill:#000000;fill-opacity:1;fill-rule:nonzero;stroke:none"
             id="path1132" />
        </g>
        <g
           id="g1134"
           transform="translate(42.8493,478.8116)">
          <path
             d="m 0,0 c -0.032,-0.871 -0.196,-5.467 -0.196,-5.467 -0.126,-3.203 -0.234,-6.014 -0.234,-8.517 0,-11.017 2.128,-16.035 14.385,-21.978 12.255,5.943 14.384,10.961 14.384,21.97 0,2.507 -0.109,5.322 -0.235,8.53 0,0 -0.161,4.591 -0.19,5.462 z"
             style="fill:#ffffff;fill-opacity:1;fill-rule:nonzero;stroke:none"
             id="path1136" />
        </g>
        <g
           id="g1138"
           transform="translate(58.3312,471.2032)">
          <path
             d="m 0,0 -0.018,0.066 c 0.817,0.536 1.35,1.41 1.35,2.259 0,1.432 -1.306,2.6 -2.897,2.6 -1.584,0 -2.911,-1.168 -2.911,-2.6 0,-0.849 0.53,-1.723 1.35,-2.259 L -3.143,0 c -1.201,0.55 -2.07,1.681 -2.07,2.859 0,1.691 1.686,3.095 3.654,3.095 1.972,0 3.626,-1.404 3.626,-3.095 C 2.067,1.681 1.203,0.55 0,0 m -0.644,-0.141 -0.027,0.065 c 0,0 0.194,0.083 0.454,0.241 0.507,0.312 0.925,0.952 0.925,1.564 0,1.079 -1.004,1.953 -2.27,1.953 -1.256,0 -2.293,-0.874 -2.293,-1.953 0,-0.612 0.425,-1.252 0.926,-1.564 0.263,-0.158 0.459,-0.241 0.459,-0.241 l -0.026,-0.065 c 0,0 -0.217,0.082 -0.48,0.246 -0.885,0.538 -1.353,1.422 -1.353,2.22 0,1.354 1.259,2.456 2.764,2.456 1.512,0 2.757,-1.102 2.757,-2.456 0,-0.798 -0.478,-1.682 -1.356,-2.22 -0.264,-0.164 -0.48,-0.246 -0.48,-0.246 m 12.213,6.804 h -26.158 l -0.275,-7.295 h 26.731 z"
             style="fill:#e1251b;fill-opacity:1;fill-rule:nonzero;stroke:none"
             id="path1140" />
        </g>
        <g
           id="g1142"
           transform="translate(60.1582,469.7904)">
          <path
             d="m 0,0 v -4.093 c -0.044,-0.03 -0.351,-0.268 -0.829,-0.276 -0.509,-0.004 -1.118,0.235 -1.669,0.235 -0.346,0 -0.61,-0.142 -0.83,-0.381 h -0.12 c 0,0 -0.328,0.381 -0.84,0.381 -0.533,0 -1.162,-0.246 -1.669,-0.246 -0.503,0 -0.779,0.265 -0.82,0.294 V 0 c -0.105,-0.206 -0.337,-0.423 -0.518,-0.428 v -4.043 c 0.208,-0.163 0.463,-0.227 0.738,-0.234 0.67,-0.022 1.467,0.284 2.164,0.284 0.38,0 0.735,-0.101 1.004,-0.396 0.278,0.295 0.612,0.396 0.994,0.396 0.694,0 1.502,-0.306 2.17,-0.284 0.272,0.007 0.524,0.071 0.735,0.234 v 4.043 C 0.322,-0.445 0.073,-0.215 0,0"
             style="fill:#e1251b;fill-opacity:1;fill-rule:nonzero;stroke:none"
             id="path1144" />
        </g>
        <g
           id="g1146"
           transform="translate(56.4763,458.9481)">
          <path
             d="M 0,0 C -0.085,0.12 -0.105,0.316 -0.024,0.442 0.179,0.316 0.36,0.294 0.591,0.253 0.395,0.193 0.164,0.12 0,0 M 10.446,-5.966 C 10.37,-5.705 10.132,-5.489 9.904,-5.471 9.948,-5.519 9.989,-5.556 10.03,-5.6 10.27,-5.878 10.126,-6.5 9.877,-6.65 9.983,-6.276 9.696,-5.982 9.321,-6.084 9.462,-6.165 9.55,-6.399 9.485,-6.623 9.427,-6.837 9.184,-7.032 8.949,-6.988 c -0.322,0.06 -0.143,0.48 -0.152,0.748 -0.012,0.381 -0.255,0.56 -0.433,0.648 -0.021,0.01 -0.003,0.036 -0.003,0.036 0.126,-0.034 0.249,-0.088 0.421,-0.083 0.235,0 0.422,0.13 0.498,0.234 0.094,0.12 0.132,0.322 0.079,0.467 C 9.318,-5.001 9.263,-5.079 9.207,-5.13 9.069,-5.257 8.8,-5.278 8.607,-5.181 8.408,-5.086 8.214,-4.881 8.059,-4.683 7.544,-3.979 6.917,-3.263 6.27,-2.839 5.875,-2.578 5.345,-2.364 4.838,-2.35 4.534,-2.342 4.227,-2.407 3.966,-2.574 3.615,-2.796 3.401,-3.184 3.357,-3.555 3.301,-3.988 3.456,-4.418 3.72,-4.755 4.071,-5.206 4.563,-5.534 5.038,-5.835 5.386,-6.059 5.729,-6.298 6.054,-6.551 6.305,-6.753 6.522,-6.985 6.592,-7.314 6.663,-7.619 6.531,-7.831 6.408,-7.932 6.191,-8.114 5.611,-8.096 5.401,-7.917 c -0.138,1.048 -0.858,1.506 -1.795,1.73 -0.445,0.11 -0.92,0.221 -1.292,0.425 -0.336,0.184 -0.638,0.37 -0.79,0.809 -0.056,-0.014 -0.217,0.015 -0.334,0.065 -0.277,0.102 -0.37,0.29 -0.42,0.453 0.161,-0.163 0.303,-0.264 0.722,-0.283 0.249,-0.011 0.585,0.112 0.714,0.326 -0.257,-0.035 -0.465,-0.019 -0.612,0.069 -0.143,0.089 -0.287,0.288 -0.257,0.508 0.248,-0.262 0.714,-0.353 1.13,-0.15 0.058,0.028 0.249,0.172 0.26,0.236 C 2.502,-3.752 2.3,-3.711 2.168,-3.6 2.031,-3.49 1.946,-3.323 1.949,-3.088 2.092,-3.234 2.353,-3.316 2.601,-3.304 2.853,-3.294 3.09,-3.192 3.175,-2.987 2.988,-3.02 2.8,-2.979 2.648,-2.887 2.508,-2.796 2.402,-2.656 2.394,-2.48 2.148,-2.461 1.954,-2.354 1.834,-2.212 1.694,-2.414 1.647,-2.88 1.673,-3.196 1.278,-3.181 0.943,-2.909 0.884,-2.536 0.711,-2.729 0.685,-3.211 0.773,-3.48 c -0.472,0.031 -0.758,0.284 -0.87,0.676 -0.067,-0.142 -0.102,-0.333 -0.099,-0.541 0.003,-0.056 0.014,-0.173 0.029,-0.258 0,0 -0.117,0.007 -0.281,0.123 -0.211,0.139 -0.395,0.49 -0.381,0.66 0.12,-0.186 0.276,-0.347 0.454,-0.462 -0.017,0.429 0.179,0.761 0.41,0.928 0.006,-0.466 0.155,-0.734 0.524,-0.83 -0.061,0.271 0.018,0.495 0.082,0.663 0.065,0.16 0.235,0.376 0.333,0.441 0.002,-0.378 0.178,-0.754 0.5,-0.841 -0.011,0.296 0.047,0.631 0.155,0.841 0.053,0.096 0.117,0.203 0.202,0.249 0.091,-0.302 0.472,-0.451 0.82,-0.463 0.94,-0.029 0.987,0.744 0.987,0.744 -0.126,-0.06 -0.296,-0.166 -0.609,-0.166 -0.384,0 -0.492,0.306 -0.492,0.306 0.223,-0.089 0.671,0.026 0.878,0.189 0.132,0.103 0.296,0.322 0.311,0.515 C 3.74,-0.52 3.697,-0.347 3.571,-0.259 3.415,-0.663 2.525,-0.88 2.218,-0.47 2.555,-0.498 2.868,-0.347 2.979,-0.135 3.014,-0.082 3.047,0.085 3.02,0.16 3.02,0.16 2.774,0 2.452,-0.013 2.107,-0.028 1.916,0.116 1.916,0.116 2.148,0.13 2.593,0.366 2.561,0.651 2.561,0.651 2.417,0.6 2.317,0.593 2.063,0.567 1.741,0.597 1.571,0.723 1.58,0.764 1.673,1.425 1.597,1.506 1.304,1.372 1.032,1.158 0.869,0.88 0.697,0.905 0.489,0.931 0.249,0.927 0.009,0.924 -0.261,0.88 -0.389,0.812 -0.448,0.783 -0.553,0.709 -0.612,0.634 -0.676,0.555 -0.697,0.457 -0.767,0.413 -0.937,0.316 -1.212,0.28 -1.435,0.262 -1.605,0.242 -1.83,0.269 -1.883,0.135 c -0.055,-0.142 0.056,-0.221 0.109,-0.289 0.035,-0.051 0.073,-0.13 0.099,-0.196 0.024,-0.064 0.047,-0.17 0.082,-0.221 0.22,-0.351 0.439,-0.195 0.682,-0.12 0.27,0.095 0.633,0.186 0.952,0.186 0.193,0 0.398,-0.025 0.556,-0.129 0.144,-0.089 0.22,-0.291 0.211,-0.463 -0.003,-0.156 -0.07,-0.313 -0.193,-0.414 -0.059,-0.06 -0.308,-0.202 -0.639,-0.202 -0.404,0 -0.808,0.188 -1.162,0.195 -0.105,0.004 -0.214,-0.03 -0.249,-0.068 -0.114,-0.112 -0.114,-0.26 -0.012,-0.395 0.355,0.007 0.343,-0.395 0.29,-0.581 -0.172,-0.451 -0.527,-0.47 -0.694,-0.455 -0.207,0.022 -0.418,0.111 -0.512,0.221 -0.173,-0.513 0.176,-0.926 0.641,-0.947 -0.322,-0.267 -0.96,-0.058 -1.022,0.291 -0.047,-0.05 -0.085,-0.163 -0.09,-0.262 -0.041,-0.627 0.465,-0.88 1.101,-0.855 -0.372,-0.149 -0.844,-0.073 -1.277,0.053 -0.392,0.112 -0.609,0.216 -0.881,0.351 -0.334,0.159 -0.683,0.446 -0.858,0.752 -0.056,0.104 -0.117,0.29 -0.111,0.426 0.026,0.478 0.576,0.541 0.503,1.088 -0.383,0.117 -0.767,-0.07 -0.881,-0.441 -0.035,-0.099 -0.044,-0.21 -0.03,-0.342 -0.14,0.12 -0.284,0.28 -0.427,0.408 -0.123,0.11 -0.252,0.179 -0.395,0.166 -0.012,0 -0.035,-0.114 -0.135,-0.239 -0.035,-0.039 -0.19,-0.174 -0.19,-0.174 0.008,-0.086 0.088,-0.183 0.12,-0.208 0.12,-0.11 0.354,-0.17 0.454,-0.326 0.029,-0.047 0.041,-0.107 0.035,-0.179 -0.106,-0.032 -0.202,-0.029 -0.287,-0.01 -0.296,0.07 -0.515,0.331 -0.855,0.35 -0.141,0.01 -0.284,-0.015 -0.349,-0.112 0.091,-0.12 0.074,-0.363 -0.011,-0.506 0.052,-0.12 0.167,-0.172 0.292,-0.186 0.197,-0.024 0.428,0.014 0.612,-0.013 0.1,-0.008 0.185,-0.037 0.243,-0.1 -0.114,-0.079 -0.199,-0.133 -0.325,-0.164 -0.269,-0.06 -0.591,0.141 -0.822,0.015 0,0 0.052,-0.11 0.014,-0.236 -0.029,-0.115 -0.09,-0.222 -0.09,-0.222 0.12,-0.109 0.245,-0.151 0.368,-0.154 0.246,-0.005 0.504,0.145 0.747,0.234 0.117,0.043 0.226,0.075 0.334,0.075 -0.196,-0.256 -0.51,-0.502 -0.876,-0.538 -0.046,-0.002 -0.114,-0.002 -0.114,-0.002 0.003,-0.041 0.094,-0.085 0.123,-0.101 0.082,-0.041 0.217,-0.078 0.328,-0.082 0.492,-0.022 0.89,0.146 1.23,0.341 -0.152,-0.308 -0.428,-0.482 -0.776,-0.587 0.035,-0.049 0.12,-0.06 0.187,-0.071 0.753,-0.124 1.432,0.384 1.432,0.384 -0.017,-0.142 -0.126,-0.354 -0.366,-0.504 -0.126,-0.073 -0.26,-0.093 -0.26,-0.093 0.102,-0.107 0.38,-0.12 0.568,-0.099 0.216,0.015 0.474,0.106 0.688,0.148 0.342,0.062 0.553,0.047 0.761,0.094 -0.231,-0.094 -0.474,-0.183 -0.72,-0.281 -0.302,-0.108 -0.577,-0.253 -0.841,-0.394 -0.281,-0.154 -0.518,-0.351 -0.781,-0.481 -0.279,-0.142 -0.606,-0.079 -0.735,0.145 -0.062,0.112 -0.059,0.231 -0.085,0.351 -0.065,0.278 -0.273,0.514 -0.589,0.509 -0.026,-0.241 -0.231,-0.398 -0.331,-0.47 0.041,-0.439 0.609,-0.432 0.674,-0.882 -0.05,-0.03 -0.158,-0.044 -0.267,-0.012 -0.231,0.07 -0.386,0.161 -0.603,0.164 -0.126,0.004 -0.243,-0.022 -0.351,-0.094 0.044,-0.044 0.076,-0.095 0.096,-0.17 0.036,-0.139 -0.008,-0.294 -0.073,-0.392 0.085,-0.089 0.193,-0.114 0.314,-0.114 0.207,0 0.445,0.076 0.626,0.089 0.108,0.007 0.24,0.01 0.34,-0.042 -0.114,-0.283 -0.53,-0.261 -0.846,-0.34 -0.15,-0.041 -0.273,-0.104 -0.337,-0.231 0.217,-0.071 0.366,-0.229 0.351,-0.526 0.109,-0.003 0.199,0.019 0.287,0.051 0.27,0.12 0.431,0.416 0.7,0.51 -0.009,-0.3 -0.193,-0.47 -0.237,-0.732 -0.015,-0.082 -0.012,-0.167 0.009,-0.273 0,0 0.134,0.062 0.278,0.062 0.126,-0.007 0.193,-0.047 0.266,-0.088 0.073,0.067 0.117,0.164 0.144,0.268 0.044,0.199 0.029,0.433 0.038,0.628 0.02,0.107 0.014,0.154 0.096,0.168 0.372,0 0.77,0.205 0.917,0.365 -0.062,-0.236 -0.141,-0.369 -0.276,-0.521 -0.043,-0.05 -0.146,-0.151 -0.187,-0.185 0.229,-0.032 0.463,0.034 0.647,0.154 0.384,0.249 0.712,0.574 0.876,0.981 0.044,-0.176 0.032,-0.385 -0.03,-0.555 -0.041,-0.124 -0.12,-0.246 -0.172,-0.307 0.061,-0.015 0.187,0.01 0.26,0.042 0.281,0.123 0.486,0.365 0.636,0.674 0.076,0.158 0.152,0.366 0.181,0.56 0.161,-0.168 0.196,-0.452 0.076,-0.764 -0.026,-0.069 -0.073,-0.135 -0.085,-0.154 0.188,0.019 0.334,0.151 0.463,0.273 0.22,0.212 0.413,0.631 0.366,1.003 0.211,-0.182 0.267,-0.68 0.138,-0.955 0.184,0.053 0.342,0.173 0.471,0.31 0.152,0.16 0.243,0.287 0.334,0.586 0.088,0.285 0.029,0.487 0.029,0.487 0.041,-0.033 0.097,-0.133 0.117,-0.224 0.085,-0.364 -0.02,-0.783 -0.325,-1.073 -0.052,-0.049 -0.152,-0.127 -0.167,-0.134 0.205,-0.277 0.568,-0.39 0.972,-0.407 0.68,-0.037 1.081,0.249 1.715,0.317 C 1.108,-7.597 0.867,-7.752 0.708,-7.824 0.34,-7.995 0.009,-8.106 -0.284,-8.096 c -0.167,0.007 -0.363,0.005 -0.539,0.094 -0.126,-0.154 -0.149,-0.336 -0.126,-0.593 0.038,-0.344 0.229,-0.567 0.144,-0.921 -0.176,-0.662 -1.347,-0.559 -1.783,-0.239 -0.355,0.264 -0.322,0.883 -0.642,1.151 -0.096,0.079 -0.216,0.125 -0.389,0.125 -0.062,-0.201 -0.199,-0.326 -0.36,-0.432 0.023,-0.128 0.085,-0.217 0.161,-0.293 0.126,-0.138 0.313,-0.227 0.421,-0.391 0.044,-0.063 0.082,-0.142 0.091,-0.246 -0.117,-0.003 -0.219,0.022 -0.307,0.067 -0.24,0.116 -0.419,0.35 -0.691,0.41 -0.097,0.022 -0.205,0.019 -0.34,-0.014 0.047,-0.138 -0.032,-0.362 -0.161,-0.463 0.1,-0.268 0.372,-0.42 0.726,-0.441 0.196,-0.01 0.422,0.008 0.539,-0.137 -0.275,-0.295 -0.709,-0.005 -1.089,-0.005 -0.103,0 -0.199,-0.022 -0.293,-0.08 0.015,-0.024 0.062,-0.116 0.07,-0.205 0.012,-0.132 -0.079,-0.313 -0.079,-0.313 0.012,-0.11 0.232,-0.165 0.352,-0.179 0.084,-0.012 0.181,-0.005 0.26,0.01 0.281,0.044 0.586,0.246 0.873,0.221 0.041,-0.004 0.117,-0.023 0.131,-0.06 -0.09,-0.228 -0.319,-0.257 -0.456,-0.402 -0.047,-0.053 -0.088,-0.125 -0.103,-0.221 0.234,0.058 0.316,-0.037 0.431,-0.184 0.108,-0.011 0.202,0.02 0.275,0.077 0.146,0.111 0.249,0.345 0.342,0.456 0.035,0.046 0.071,0.113 0.153,0.098 0.044,-0.007 0.096,-0.105 0.152,-0.172 0.199,-0.253 0.548,-0.456 0.981,-0.403 0.126,0.015 0.254,0.072 0.339,0.169 -0.278,0.045 -0.477,0.238 -0.568,0.491 0.243,-0.175 0.668,-0.326 1.019,-0.267 0.044,0.007 0.153,0.045 0.17,0.084 -0.272,0.072 -0.492,0.344 -0.389,0.68 0.123,-0.21 0.377,-0.398 0.682,-0.425 0.094,-0.009 0.208,-0.012 0.293,0.051 -0.047,0.046 -0.106,0.097 -0.138,0.169 -0.035,0.074 -0.058,0.181 -0.047,0.276 0.036,0.247 0.378,0.314 0.595,0.339 0.287,0.033 0.596,-0.033 0.85,0.067 0.185,0.075 0.349,0.212 0.331,0.41 -0.094,-0.07 -0.222,-0.129 -0.383,-0.114 -0.249,0.022 -0.327,0.231 -0.327,0.379 0,0.294 0.177,0.441 0.532,0.465 0.158,0.008 0.401,-0.032 0.544,-0.092 -0.006,0.003 0.231,-0.086 0.231,-0.079 -0.099,0.201 0.012,0.552 0.08,0.713 0.122,0.28 0.257,0.435 0.327,0.688 0.018,-0.051 0.024,-0.105 0.018,-0.165 -0.026,-0.289 -0.146,-0.46 -0.176,-0.785 -0.02,-0.17 0.047,-0.416 0.196,-0.536 0.285,-0.221 0.735,-0.303 0.894,-0.669 0.108,-0.282 0,-0.528 -0.141,-0.708 -0.199,-0.283 -0.498,-0.517 -0.829,-0.674 -0.09,-0.045 -0.254,-0.118 -0.415,-0.067 -0.287,0.094 -0.393,0.635 -0.645,0.809 -0.099,0.065 -0.225,0.082 -0.357,0.052 -0.017,-0.1 -0.038,-0.145 -0.105,-0.232 -0.047,-0.054 -0.154,-0.13 -0.154,-0.142 0.015,-0.111 0.087,-0.216 0.122,-0.249 0.14,-0.125 0.43,-0.206 0.494,-0.376 -0.035,-0.045 -0.102,-0.055 -0.161,-0.06 -0.31,-0.012 -0.455,0.268 -0.748,0.292 -0.07,0.007 -0.196,0 -0.266,-0.053 0.015,-0.085 0.012,-0.119 -0.012,-0.191 -0.029,-0.089 -0.053,-0.118 -0.094,-0.182 0.05,-0.232 0.446,-0.254 0.76,-0.283 0.097,-0.009 0.202,-0.023 0.246,-0.091 -0.079,-0.069 -0.181,-0.133 -0.297,-0.156 -0.234,-0.04 -0.448,0.09 -0.673,0.109 -0.076,0.003 -0.176,-0.022 -0.258,-0.074 0.02,-0.05 0.032,-0.161 0.012,-0.251 -0.024,-0.108 -0.03,-0.164 -0.065,-0.205 0.041,-0.035 0.153,-0.1 0.275,-0.103 0.322,-0.014 0.586,0.248 0.924,0.127 -0.134,-0.206 -0.364,-0.218 -0.558,-0.338 -0.076,-0.052 -0.158,-0.131 -0.207,-0.225 0.07,-0.032 0.126,-0.082 0.17,-0.144 0.037,-0.058 0.067,-0.12 0.075,-0.21 0.403,-0.03 0.588,0.237 0.778,0.451 0.281,0.304 0.676,0.502 1.215,0.542 0.589,0.042 1.341,-0.238 1.605,0.266 -0.325,0.015 -0.712,0.078 -0.826,0.302 0.571,-0.164 1.276,-0.004 1.566,0.357 -0.395,-0.074 -0.799,0.019 -0.954,0.265 0.439,-0.116 0.916,-0.048 1.253,0.154 0.22,0.133 0.46,0.334 0.521,0.584 -0.032,-0.004 -0.102,-0.037 -0.158,-0.063 -0.281,-0.123 -0.776,-0.1 -0.893,0.127 0.255,-0.016 0.486,0.03 0.668,0.126 0.243,0.14 0.369,0.344 0.451,0.485 0.096,0.18 0.187,0.363 0.313,0.511 0.052,0.061 0.111,0.094 0.161,0.113 -0.041,0.048 -0.149,0.055 -0.22,0.041 -0.36,-0.068 -0.515,-0.4 -0.855,-0.47 0.129,0.354 0.185,0.827 0.194,1.237 0.685,-0.264 1.288,-0.059 1.592,0.355 0.185,0.249 0.229,0.555 0.229,0.769 0,0.428 -0.229,0.745 -0.442,0.979 -0.41,0.437 -0.92,0.753 -1.409,1.09 -0.336,0.231 -0.682,0.47 -0.963,0.73 -0.202,0.185 -0.422,0.438 -0.471,0.745 -0.077,0.463 0.207,0.817 0.524,0.915 1.027,0.314 2.084,-0.802 2.582,-1.387 C 7.201,-4.465 7.611,-4.942 7.45,-5.254 7.4,-5.339 7.28,-5.389 7.196,-5.382 7.049,-5.365 6.929,-5.228 7.035,-5.004 6.762,-5.068 6.648,-5.471 6.809,-5.695 c 0.111,-0.171 0.31,-0.195 0.46,-0.167 0.131,0.023 0.252,0.1 0.313,0.201 -0.185,-0.551 0.026,-1.132 0.302,-1.437 0.325,-0.364 0.793,-0.447 0.992,-0.462 0.507,-0.029 1.016,0.095 1.347,0.517 0.223,0.287 0.337,0.707 0.223,1.077"
             style="fill:#e1251b;fill-opacity:1;fill-rule:nonzero;stroke:none"
             id="path1148" />
        </g>
        <g
           id="g1150"
           transform="translate(64.4506,474.1531)">
          <path
             d="M 0,0 1.713,1.919 3.396,-0.032 1.742,-1.944 Z m 1.727,3.244 -2.884,-3.248 2.884,-3.253 2.817,3.253 z"
             style="fill:#ffdd00;fill-opacity:1;fill-rule:nonzero;stroke:none"
             id="path1152" />
        </g>
        <g
           id="g1154"
           transform="translate(47.7039,472.209)">
          <path
             d="M 0,0 -1.739,1.944 -0.023,3.863 1.66,1.912 Z m -2.899,1.94 2.89,-3.253 2.817,3.253 -2.817,3.248 z"
             style="fill:#ffdd00;fill-opacity:1;fill-rule:nonzero;stroke:none"
             id="path1156" />
        </g>
        <g
           id="g1158"
           transform="translate(58.5273,466.6296)">
          <path
             d="m 0,0 c -0.504,0.13 -1.034,0.253 -1.492,-0.015 v -0.131 c 0.432,0.298 0.941,0.171 1.466,0.042 0.448,-0.113 0.901,-0.224 1.329,-0.06 v 0.116 C 0.902,-0.221 0.468,-0.111 0,0"
             style="fill:#002f87;fill-opacity:1;fill-rule:nonzero;stroke:none"
             id="path1160" />
        </g>
        <g
           id="g1162"
           transform="translate(55.0005,467.6588)">
          <path
             d="m 0,0 c -0.463,-0.116 -0.911,-0.224 -1.3,-0.053 v -0.118 c 0.416,-0.161 0.878,-0.046 1.329,0.063 0.522,0.13 1.022,0.253 1.464,-0.041 v 0.133 C 1.033,0.253 0.507,0.127 0,0"
             style="fill:#002f87;fill-opacity:1;fill-rule:nonzero;stroke:none"
             id="path1164" />
        </g>
        <g
           id="g1166"
           transform="translate(55.0005,468.6762)">
          <path
             d="m 0,0 c -0.463,-0.12 -0.911,-0.224 -1.3,-0.056 v -0.115 c 0.416,-0.161 0.878,-0.046 1.329,0.058 0.522,0.135 1.022,0.258 1.464,-0.036 v 0.134 C 1.033,0.258 0.507,0.126 0,0"
             style="fill:#002f87;fill-opacity:1;fill-rule:nonzero;stroke:none"
             id="path1168" />
        </g>
        <g
           id="g1170"
           transform="translate(55.0005,466.6296)">
          <path
             d="m 0,0 c -0.463,-0.111 -0.908,-0.221 -1.3,-0.048 v -0.116 c 0.416,-0.164 0.878,-0.053 1.329,0.06 0.522,0.129 1.022,0.256 1.464,-0.042 v 0.131 C 1.033,0.253 0.507,0.13 0,0"
             style="fill:#002f87;fill-opacity:1;fill-rule:nonzero;stroke:none"
             id="path1172" />
        </g>
        <g
           id="g1174"
           transform="translate(58.5273,468.6762)">
          <path
             d="m 0,0 c -0.504,0.126 -1.034,0.258 -1.492,-0.015 v -0.134 c 0.432,0.294 0.941,0.171 1.466,0.036 0.448,-0.104 0.901,-0.219 1.329,-0.058 v 0.115 C 0.902,-0.224 0.468,-0.12 0,0"
             style="fill:#002f87;fill-opacity:1;fill-rule:nonzero;stroke:none"
             id="path1176" />
        </g>
        <g
           id="g1178"
           transform="translate(58.5273,467.6588)">
          <path
             d="m 0,0 c -0.504,0.127 -1.034,0.253 -1.492,-0.016 v -0.133 c 0.432,0.294 0.941,0.171 1.466,0.041 0.448,-0.109 0.901,-0.224 1.329,-0.063 v 0.118 C 0.902,-0.224 0.468,-0.116 0,0"
             style="fill:#002f87;fill-opacity:1;fill-rule:nonzero;stroke:none"
             id="path1180" />
        </g>
        <g
           id="g1182"
           transform="translate(51.0361,447.791)">
          <path
             d="M 0,0 C 0.284,0.275 0.509,0.135 0.509,0.135 0.644,0.271 0.621,0.575 0.518,0.653 0.234,0.578 -0.009,0.366 0,0"
             style="fill:#002f87;fill-opacity:1;fill-rule:nonzero;stroke:none"
             id="path1184" />
        </g>
        <g
           id="g1186"
           transform="translate(51.0448,449.1041)">
          <path
             d="M 0,0 C 0,0 0.138,0.056 0.34,0.053 0.495,0.047 0.627,0.003 0.627,0.003 0.75,0.063 0.881,0.331 0.788,0.466 0.416,0.448 0.091,0.261 0,0"
             style="fill:#002f87;fill-opacity:1;fill-rule:nonzero;stroke:none"
             id="path1188" />
        </g>
        <g
           id="g1190"
           transform="translate(50.0669,449.9605)">
          <path
             d="M 0,0 C 0,0 0.02,-0.343 0.261,-0.55 0.328,-0.615 0.425,-0.682 0.539,-0.678 0.401,-0.511 0.442,-0.221 0.545,-0.026 0.422,0.091 0.146,0.091 0,0"
             style="fill:#002f87;fill-opacity:1;fill-rule:nonzero;stroke:none"
             id="path1192" />
        </g>
        <g
           id="g1194"
           transform="translate(50.3861,456.8398)">
          <path
             d="m 0,0 c -0.395,0.11 -0.805,-0.107 -0.911,-0.404 0,0 0.311,0.121 0.586,-0.009 0,0 0.281,0.167 0.325,0.413"
             style="fill:#002f87;fill-opacity:1;fill-rule:nonzero;stroke:none"
             id="path1196" />
        </g>
        <g
           id="g1198"
           transform="translate(51.5366,456.9716)">
          <path
             d="M 0,0 C 0.152,0.092 0.372,0.12 0.583,0.078 0.568,0.202 0.41,0.321 0.328,0.354 0.143,0.444 0.032,0.48 -0.187,0.477 -0.343,0.47 -0.433,0.422 -0.433,0.422 -0.275,0.324 -0.058,0.22 0,0"
             style="fill:#002f87;fill-opacity:1;fill-rule:nonzero;stroke:none"
             id="path1200" />
        </g>
        <g
           id="g1202"
           transform="translate(52.8572,450.4686)">
          <path
             d="m 0,0 c -0.243,0.078 -0.55,0.031 -0.741,-0.064 -0.17,-0.085 -0.281,-0.22 -0.281,-0.22 0.448,0.045 0.662,-0.148 0.662,-0.148 C -0.222,-0.403 0.018,-0.186 0,0"
             style="fill:#002f87;fill-opacity:1;fill-rule:nonzero;stroke:none"
             id="path1204" />
        </g>
        <g
           id="g1206"
           transform="translate(48.9571,450.9297)">
          <path
             d="m 0,0 c -0.143,-0.148 -0.272,-0.427 -0.217,-0.728 0.03,-0.14 0.141,-0.207 0.141,-0.207 0.035,0.183 0.182,0.388 0.427,0.409 C 0.41,-0.196 0.126,0 0,0"
             style="fill:#002f87;fill-opacity:1;fill-rule:nonzero;stroke:none"
             id="path1208" />
        </g>
        <g
           id="g1210"
           transform="translate(48.8371,452.1302)">
          <path
             d="M 0,0 C 0,0 -0.202,-0.048 -0.419,-0.294 -0.51,-0.398 -0.615,-0.6 -0.574,-0.767 c 0,0 0.117,0.13 0.322,0.19 0.12,0.037 0.214,0.034 0.275,0.015 C 0.135,-0.499 0.187,-0.119 0,0"
             style="fill:#002f87;fill-opacity:1;fill-rule:nonzero;stroke:none"
             id="path1212" />
        </g>
        <g
           id="g1214"
           transform="translate(56.769,464.4965)">
          <path
             d="m 0,0 c 0.477,0 0.684,0.406 0.684,0.406 0.67,-0.011 3.665,0 3.665,0 L 4.338,4.739 H 3.878 L 3.881,0.843 c 0,0 -0.246,-0.228 -0.799,-0.228 C 2.42,0.615 1.67,0.899 0.997,0.899 0.334,0.899 0.07,0.57 0,0.514 c 0,0 -0.337,0.385 -0.975,0.385 -0.662,0 -1.449,-0.272 -2.225,-0.272 -0.404,0 -0.633,0.193 -0.691,0.216 l 0.008,3.896 H -4.328 V 0.406 h 3.64 C -0.688,0.406 -0.504,0 0,0"
             style="fill:#002f87;fill-opacity:1;fill-rule:nonzero;stroke:none"
             id="path1216" />
        </g>
        <g
           id="g1218"
           transform="translate(49.0918,454.5297)">
          <path
             d="m 0,0 c 0,0 0.202,0.272 0.076,0.458 -0.392,-0.042 -0.644,-0.257 -0.764,-0.519 0,0 0.366,0.139 0.688,0.061"
             style="fill:#002f87;fill-opacity:1;fill-rule:nonzero;stroke:none"
             id="path1220" />
        </g>
        <g
           id="g1222"
           transform="translate(52.6025,447.2946)">
          <path
             d="m 0,0 c 0,0 -0.135,-0.502 0.222,-0.657 0,0 -0.064,0.266 0.208,0.474 C 0.36,-0.018 0.152,0.086 0,0"
             style="fill:#002f87;fill-opacity:1;fill-rule:nonzero;stroke:none"
             id="path1224" />
        </g>
        <g
           id="g1226"
           transform="translate(48.7346,453.0364)">
          <path
             d="M 0,0 C 0.199,0.034 0.498,0.053 0.65,-0.082 0.893,0.05 1.01,0.291 0.981,0.388 0.952,0.407 0.805,0.41 0.764,0.41 0.357,0.419 0.123,0.239 0,0"
             style="fill:#002f87;fill-opacity:1;fill-rule:nonzero;stroke:none"
             id="path1228" />
        </g>
        <g
           id="g1230"
           transform="translate(49.168,455.4359)">
          <path
             d="M 0,0 C 0,0 0.196,0.287 0.012,0.507 -0.29,0.439 -0.539,0.203 -0.586,-0.135 c 0,0 0.103,0.071 0.208,0.104 C -0.223,0.022 -0.085,0.01 0,0"
             style="fill:#002f87;fill-opacity:1;fill-rule:nonzero;stroke:none"
             id="path1232" />
        </g>
        <g
           id="g1234"
           transform="translate(56.7719,462.0152)">
          <path
             d="m 0,0 12.328,-7.232 c 1.418,3.8 1.391,8.528 1.151,15.18 z"
             style="fill:#002f87;fill-opacity:1;fill-rule:nonzero;stroke:none"
             id="path1236" />
        </g>
        <g
           id="g1238"
           transform="translate(56.769,457.6509)">
          <path
             d="M 0,0 C -0.047,-0.102 -0.07,-0.306 -0.117,-0.411 -0.018,-0.433 0.094,-0.348 0.17,-0.31 0.114,-0.221 0.053,-0.094 0,0"
             style="fill:#002f87;fill-opacity:1;fill-rule:nonzero;stroke:none"
             id="path1240" />
        </g>
        <g
           id="g1242"
           transform="translate(55.7999,446.1432)">
          <path
             d="M 0,0 C 0,0 0.085,0.073 0.225,0.129 0.328,0.179 0.518,0.204 0.624,0.141 0.717,0.19 0.755,0.532 0.676,0.597 0.384,0.566 0.035,0.327 0,0"
             style="fill:#002f87;fill-opacity:1;fill-rule:nonzero;stroke:none"
             id="path1244" />
        </g>
        <g
           id="g1246"
           transform="translate(55.8964,457.5909)">
          <path
             d="M 0,0 C -0.035,-0.057 -0.085,-0.186 -0.137,-0.253 -0.061,-0.277 0.064,-0.31 0.123,-0.303 0.088,-0.228 0.038,-0.067 0,0"
             style="fill:#002f87;fill-opacity:1;fill-rule:nonzero;stroke:none"
             id="path1248" />
        </g>
        <g
           id="g1250"
           transform="translate(56.8041,442.8492)">
          <path
             d="m 0,0 c -12.257,5.943 -14.385,10.962 -14.385,21.978 0,2.504 0.108,5.315 0.234,8.518 0,0 0.164,4.595 0.196,5.466 H 13.959 C 13.989,35.091 14.15,30.5 14.15,30.5 14.275,27.293 14.384,24.477 14.384,21.971 14.384,10.962 12.255,5.943 0,0 m 15.119,30.466 -0.232,6.442 -29.782,0.003 -0.225,-6.452 C -15.794,13.142 -16.045,6.659 -0.231,-0.943 L 0,-1.054 0.234,-0.943 C 16.05,6.659 15.792,13.142 15.119,30.466"
             style="fill:#002f87;fill-opacity:1;fill-rule:nonzero;stroke:none"
             id="path1252" />
        </g>
        <g
           id="g1254"
           transform="translate(44.5007,454.7829)">
          <path
             d="M 0,0 12.271,7.232 -1.151,15.113 C -1.391,8.499 -1.408,3.792 0,0"
             style="fill:#002f87;fill-opacity:1;fill-rule:nonzero;stroke:none"
             id="path1256" />
        </g>
        <g
           id="g1258"
           transform="translate(56.9126,448.0924)">
          <path
             d="M 0,0 C 0.135,0.05 0.334,0.064 0.451,-0.038 0.605,0.06 0.713,0.193 0.71,0.335 0.41,0.422 0.053,0.296 0,0"
             style="fill:#002f87;fill-opacity:1;fill-rule:nonzero;stroke:none"
             id="path1260" />
        </g>
        <g
           id="g1262"
           transform="translate(56.8569,445.7449)">
          <path
             d="m 0,0 c -0.132,-0.102 -0.337,-0.422 -0.299,-0.676 0.021,-0.123 0.123,-0.185 0.123,-0.185 0.053,0.223 0.252,0.437 0.422,0.507 C 0.284,-0.225 0.1,-0.003 0,0"
             style="fill:#002f87;fill-opacity:1;fill-rule:nonzero;stroke:none"
             id="path1264" />
        </g>
        <g
           id="g1266"
           transform="translate(55.9433,458.3741)">
          <path
             d="M 0,0 C 0.038,-0.079 0.103,-0.299 0.105,-0.299 0.152,-0.202 0.225,-0.06 0.269,0.047 0.173,0.047 0.061,0.025 0,0"
             style="fill:#002f87;fill-opacity:1;fill-rule:nonzero;stroke:none"
             id="path1268" />
        </g>
        <g
           id="g1270"
           transform="translate(55.5071,458.2468)">
          <path
             d="M 0,0 C 0,0 0.108,-0.168 0.14,-0.239 L 0.237,0.077 C 0.181,0.077 0.058,0.031 0,0"
             style="fill:#002f87;fill-opacity:1;fill-rule:nonzero;stroke:none"
             id="path1272" />
        </g>
        <g
           id="g1274"
           transform="translate(56.3709,458.44)">
          <path
             d="m 0,0 c 0,0 0.097,-0.231 0.138,-0.324 0.038,0.096 0.137,0.223 0.187,0.32 C 0.222,0.023 0.105,0.031 0,0"
             style="fill:#002f87;fill-opacity:1;fill-rule:nonzero;stroke:none"
             id="path1276" />
        </g>
        <g
           id="g1278"
           transform="translate(56.1922,457.2352)">
          <path
             d="M 0,0 C 0.097,-0.018 0.19,-0.047 0.281,-0.029 0.237,0.064 0.158,0.261 0.135,0.356 0.111,0.258 0.026,0.072 0,0"
             style="fill:#002f87;fill-opacity:1;fill-rule:nonzero;stroke:none"
             id="path1280" />
        </g>
        <g
           id="g1282"
           transform="translate(56.0721,447.2126)">
          <path
             d="M 0,0 C 0.117,0.086 0.413,0.154 0.627,0.022 0.691,0.057 0.788,0.274 0.732,0.395 0.404,0.496 0.067,0.277 0,0"
             style="fill:#002f87;fill-opacity:1;fill-rule:nonzero;stroke:none"
             id="path1284" />
        </g>
        <g
           id="g1286"
           transform="translate(57.1058,458.0155)">
          <path
             d="m 0,0 c -0.12,0.019 -0.29,0.01 -0.436,-0.015 -0.507,-0.082 -1.133,-0.171 -1.529,-0.146 -0.319,0.023 -0.773,0.126 -0.779,0.566 -0.005,0.166 0.082,0.32 0.082,0.32 -0.178,-0.038 -0.401,-0.267 -0.377,-0.558 0.035,-0.35 0.348,-0.551 0.966,-0.57 0.509,-0.019 1.189,0.138 1.622,0.239 C -0.146,-0.089 0,0 0,0"
             style="fill:#002f87;fill-opacity:1;fill-rule:nonzero;stroke:none"
             id="path1288" />
        </g>
        <g
           id="g1290"
           transform="translate(53.4692,465.7498)">
          <path
             d="M 0,0 V 3.834 C 0.477,3.527 1.037,3.647 1.564,3.776 c 0.62,0.155 1.2,0.3 1.68,-0.235 V -0.34 C 2.738,0.13 2.126,0.022 1.537,-0.111 0.975,-0.239 0.457,-0.354 0,0 M 3.352,3.552 C 3.83,4.043 4.411,3.931 5.032,3.776 5.562,3.647 6.109,3.527 6.587,3.834 V -0.004 C 6.156,-0.313 5.614,-0.239 5.067,-0.111 4.475,0.022 3.871,0.13 3.352,-0.335 Z M 2.401,-0.094 c 0.512,0 0.84,-0.38 0.84,-0.38 h 0.12 c 0.22,0.238 0.484,0.38 0.83,0.38 0.551,0 1.16,-0.238 1.669,-0.234 0.478,0.007 0.785,0.246 0.829,0.275 V 4.041 L 6.592,3.97 C 6.144,3.618 5.614,3.743 5.064,3.881 4.452,4.033 3.83,4.172 3.3,3.635 2.773,4.164 2.137,4.033 1.537,3.881 0.975,3.743 0.454,3.618 0,3.97 l -0.088,0.071 v -4.086 c 0.041,-0.03 0.316,-0.295 0.82,-0.295 0.507,0 1.136,0.246 1.669,0.246"
             style="fill:#002f87;fill-opacity:1;fill-rule:nonzero;stroke:none"
             id="path1292" />
        </g>
        <g
           id="g1294"
           transform="translate(55.0297,467.5504)">
          <path
             d="M 0,0 C 0.521,0.13 1.022,0.253 1.464,-0.041 V 0.092 C 1.004,0.362 0.477,0.236 -0.029,0.108 -0.492,-0.007 -0.94,-0.116 -1.329,0.056 V -0.063 C -0.914,-0.224 -0.451,-0.108 0,0"
             style="fill:#002f87;fill-opacity:1;fill-rule:nonzero;stroke:none"
             id="path1296" />
        </g>
        <g
           id="g1298"
           transform="translate(55.0297,468.5635)">
          <path
             d="M 0,0 C 0.521,0.135 1.022,0.258 1.464,-0.037 V 0.098 C 1.004,0.37 0.477,0.239 -0.029,0.113 -0.492,-0.007 -0.94,-0.111 -1.329,0.057 V -0.058 C -0.914,-0.22 -0.451,-0.104 0,0"
             style="fill:#002f87;fill-opacity:1;fill-rule:nonzero;stroke:none"
             id="path1300" />
        </g>
        <g
           id="g1302"
           transform="translate(56.4938,466.4832)">
          <path
             d="M 0,0 V 0.132 C -0.46,0.4 -0.987,0.277 -1.493,0.146 -1.956,0.035 -2.401,-0.075 -2.793,0.098 v -0.116 c 0.415,-0.164 0.878,-0.052 1.329,0.06 C -0.943,0.171 -0.442,0.299 0,0"
             style="fill:#002f87;fill-opacity:1;fill-rule:nonzero;stroke:none"
             id="path1304" />
        </g>
        <g
           id="g1306"
           transform="translate(58.501,467.5504)">
          <path
             d="M 0,0 C 0.448,-0.108 0.902,-0.224 1.329,-0.063 V 0.056 C 0.928,-0.116 0.495,-0.007 0.026,0.108 -0.477,0.236 -1.007,0.362 -1.466,0.092 V -0.041 C -1.034,0.253 -0.524,0.13 0,0"
             style="fill:#002f87;fill-opacity:1;fill-rule:nonzero;stroke:none"
             id="path1308" />
        </g>
        <g
           id="g1310"
           transform="translate(58.501,468.5635)">
          <path
             d="M 0,0 C 0.448,-0.104 0.902,-0.22 1.329,-0.058 V 0.057 C 0.928,-0.111 0.495,-0.007 0.026,0.113 -0.477,0.239 -1.007,0.37 -1.466,0.098 V -0.037 C -1.034,0.258 -0.524,0.135 0,0"
             style="fill:#002f87;fill-opacity:1;fill-rule:nonzero;stroke:none"
             id="path1312" />
        </g>
        <g
           id="g1314"
           transform="translate(58.501,466.5256)">
          <path
             d="M 0,0 C 0.448,-0.113 0.902,-0.224 1.329,-0.06 V 0.056 C 0.928,-0.117 0.495,-0.007 0.026,0.104 -0.477,0.234 -1.007,0.357 -1.466,0.089 V -0.042 C -1.034,0.256 -0.524,0.129 0,0"
             style="fill:#002f87;fill-opacity:1;fill-rule:nonzero;stroke:none"
             id="path1316" />
        </g>
      </g>
    </g>
  </g>
  <metadata
     id="metadata10515">
    <rdf:RDF>
      <cc:Work
         rdf:about="">
        <dc:title>University of St Andrews</dc:title>
      </cc:Work>
    </rdf:RDF>
  </metadata>
</svg>
