<?xml version="1.0" encoding="UTF-8" standalone="no"?>
<!-- Created with Inkscape (http://www.inkscape.org/) -->

<svg
   width="180"
   height="130"
   viewBox="0 0 47.625001 34.395829"
   version="1.1"
   id="svg918"
   inkscape:version="1.2.2 (732a01da63, 2022-12-09)"
   sodipodi:docname="NHS Fife.svg"
   xmlns:inkscape="http://www.inkscape.org/namespaces/inkscape"
   xmlns:sodipodi="http://sodipodi.sourceforge.net/DTD/sodipodi-0.dtd"
   xmlns="http://www.w3.org/2000/svg"
   xmlns:svg="http://www.w3.org/2000/svg"
   xmlns:rdf="http://www.w3.org/1999/02/22-rdf-syntax-ns#"
   xmlns:cc="http://creativecommons.org/ns#"
   xmlns:dc="http://purl.org/dc/elements/1.1/">
  <title
     id="title1180">NHS Fife logo</title>
  <sodipodi:namedview
     id="namedview920"
     pagecolor="#ffffff"
     bordercolor="#000000"
     borderopacity="0.25"
     inkscape:showpageshadow="2"
     inkscape:pageopacity="0.0"
     inkscape:pagecheckerboard="0"
     inkscape:deskcolor="#d1d1d1"
     inkscape:document-units="mm"
     showgrid="false"
     inkscape:zoom="1.0178979"
     inkscape:cx="-232.34157"
     inkscape:cy="74.172467"
     inkscape:window-width="1920"
     inkscape:window-height="1002"
     inkscape:window-x="2125"
     inkscape:window-y="-8"
     inkscape:window-maximized="1"
     inkscape:current-layer="layer1" />
  <defs
     id="defs915" />
  <g
     inkscape:label="Layer 1"
     inkscape:groupmode="layer"
     id="layer1"
     transform="translate(-132.35926,-106.61434)">
    <g
       id="g4163"
       transform="matrix(0.35277777,0,0,-0.35277777,15.787727,157.14005)">
      <path
         d="m 433.61,119.403 c -3.943,1.16 -6.277,1.418 -6.277,3.609 0,1.504 1.409,2.621 3.844,2.621 2.895,0 7.974,-2.258 7.974,-2.258 l 2.584,5.98 c 0,0 -4.566,2.68 -10.266,2.68 -7.641,0 -12.557,-4.168 -12.557,-9.667 0,-4.769 3.115,-6.918 9.781,-8.679 3.749,-0.989 6.037,-1.762 6.037,-4.211 0,-1.805 -1.704,-3.136 -3.894,-3.136 -4.923,0 -10.215,2.992 -10.215,2.992 l -2.763,-5.86 c 0,0 4.571,-3.62 11.858,-3.62 8.276,0 13.436,4.339 13.436,10.268 0,4.598 -3.116,7.39 -9.542,9.281"
         style="fill:#144a87;fill-opacity:1;fill-rule:nonzero;stroke:none"
         id="path554" />
      <path
         d="m 362.225,131.451 c -3.72,-0.002 -7.519,0 -7.519,0 V 100.76 h 7.803 l -0.038,18.232 c 0,0 6.097,-10.537 11.523,-18.232 5.269,-0.011 6.505,0 6.505,0 v 30.684 h -7.655 l 0.007,-15.99 c 0,0 -4.282,7.466 -10.626,15.997"
         style="fill:#144a87;fill-opacity:1;fill-rule:nonzero;stroke:none"
         id="path556" />
      <path
         d="m 405.633,100.816 v 13.221 h -11.587 v -13.221 h -7.803 v 30.625 h 7.803 v -11.646 h 11.587 v 11.646 h 7.787 v -30.625 h -7.787"
         style="fill:#144a87;fill-opacity:1;fill-rule:nonzero;stroke:none"
         id="path558" />
      <path
         d="m 398.048,82.069 c -2.538,4.55 -11.191,12.08 -26.558,9.606 -5.835,-0.508 -8.26,-0.872 -11.354,-0.634 -12.235,0.939 -14.366,7.694 -14.482,8.062 h -3.057 c 0,0 1.682,-13.137 15.065,-15.356 3.28,-0.544 10.11,0.101 14.526,0.824 10.847,1.776 19.146,2.06 25.875,-7.243 0,0 0.088,-0.102 0.163,-0.102 0.138,0 0.172,0.102 0.172,0.102 0,0 0.875,1.782 -0.35,4.741"
         style="fill:#00a0e3;fill-opacity:1;fill-rule:nonzero;stroke:none"
         id="path560" />
      <path
         d="m 450.225,99.103 c -0.116,-0.368 -2.38,-7.093 -14.615,-8.032 -3.094,-0.237 -5.518,0.127 -11.356,0.634 -15.236,2.453 -21.686,-5.057 -23.552,-9.14 -1.225,-2.741 -0.554,-5.237 -0.554,-5.237 0,0 0.043,-0.102 0.155,-0.102 0.075,0 0.16,0.102 0.16,0.102 6.728,9.303 12.247,9.05 23.093,7.273 4.418,-0.722 11.248,-1.368 14.528,-0.824 13.384,2.22 15.197,15.326 15.197,15.326 h -3.056"
         style="fill:#00a0e3;fill-opacity:1;fill-rule:nonzero;stroke:none"
         id="path562" />
      <path
         d="m 390.646,70.104 h -4.996 v -4.911 h 4.91 v -2.007 h -4.91 v -6.02 h -3.011 v 14.945 h 8.007 v -2.007"
         style="fill:#144a87;fill-opacity:1;fill-rule:nonzero;stroke:none"
         id="path564" />
      <path
         d="m 392.311,67.841 h 2.84 V 57.166 h -2.84 z m -0.278,3.202 c 0,0.811 0.684,1.644 1.644,1.644 0.982,0 1.751,-0.811 1.751,-1.644 0,-0.918 -0.662,-1.793 -1.708,-1.793 -1.003,0 -1.687,0.875 -1.687,1.793"
         style="fill:#144a87;fill-opacity:1;fill-rule:nonzero;stroke:none"
         id="path566" />
      <path
         d="m 397.84,57.166 v 9.223 h -1.707 v 1.452 h 1.707 v 1.217 c 0,2.796 2.093,3.8 3.694,3.8 0.64,0 1.473,-0.086 2.22,-0.47 l -0.491,-1.409 c -0.384,0.128 -0.811,0.192 -1.216,0.192 -0.449,0 -1.367,-0.256 -1.367,-1.601 v -1.729 h 2.562 v -1.452 h -2.562 v -9.223 h -2.84"
         style="fill:#144a87;fill-opacity:1;fill-rule:nonzero;stroke:none"
         id="path568" />
      <path
         d="m 406.338,63.784 c -0.022,1.43 0.704,2.733 2.326,2.733 1.41,0 1.986,-1.11 1.88,-2.733 z m 6.874,-1.537 c 0.214,3.181 -1.174,5.85 -4.504,5.85 -3.054,0 -5.445,-2.092 -5.445,-5.38 0,-3.523 2.413,-5.807 5.637,-5.807 1.216,0 2.732,0.341 4.184,1.195 l -0.811,1.494 c -0.705,-0.49 -1.815,-0.853 -2.861,-0.853 -1.772,0 -3.181,1.494 -3.117,3.501 h 6.917"
         style="fill:#144a87;fill-opacity:1;fill-rule:nonzero;stroke:none"
         id="path570" />
    </g>
  </g>
  <metadata
     id="metadata1178">
    <rdf:RDF>
      <cc:Work
         rdf:about="">
        <dc:title>NHS Fife logo</dc:title>
      </cc:Work>
    </rdf:RDF>
  </metadata>
</svg>
