<?xml version="1.0" encoding="UTF-8" standalone="no"?>
<!-- Created with Inkscape (http://www.inkscape.org/) -->

<svg
   width="180"
   height="130"
   viewBox="0 0 47.625001 34.395829"
   version="1.1"
   id="svg918"
   inkscape:version="1.2.2 (732a01da63, 2022-12-09)"
   sodipodi:docname="NHS Forth Valley.svg"
   xmlns:inkscape="http://www.inkscape.org/namespaces/inkscape"
   xmlns:sodipodi="http://sodipodi.sourceforge.net/DTD/sodipodi-0.dtd"
   xmlns="http://www.w3.org/2000/svg"
   xmlns:svg="http://www.w3.org/2000/svg"
   xmlns:rdf="http://www.w3.org/1999/02/22-rdf-syntax-ns#"
   xmlns:cc="http://creativecommons.org/ns#"
   xmlns:dc="http://purl.org/dc/elements/1.1/">
  <title
     id="title1180">NHS Forth Valley logo</title>
  <sodipodi:namedview
     id="namedview920"
     pagecolor="#ffffff"
     bordercolor="#000000"
     borderopacity="0.25"
     inkscape:showpageshadow="2"
     inkscape:pageopacity="0.0"
     inkscape:pagecheckerboard="0"
     inkscape:deskcolor="#d1d1d1"
     inkscape:document-units="mm"
     showgrid="false"
     inkscape:zoom="1.2555347"
     inkscape:cx="-194.73775"
     inkscape:cy="21.903019"
     inkscape:window-width="1920"
     inkscape:window-height="1002"
     inkscape:window-x="2125"
     inkscape:window-y="-8"
     inkscape:window-maximized="1"
     inkscape:current-layer="layer1" />
  <defs
     id="defs915" />
  <g
     inkscape:label="Layer 1"
     inkscape:groupmode="layer"
     id="layer1"
     transform="translate(-132.35926,-106.61434)">
    <g
       id="g3134"
       transform="matrix(0.35277777,0,0,-0.35277777,15.808188,256.28772)">
      <path
         d="m 433.552,402.993 c -3.943,1.159 -6.277,1.417 -6.277,3.609 0,1.503 1.409,2.621 3.843,2.621 2.896,0 7.976,-2.258 7.976,-2.258 l 2.583,5.979 c 0,0 -4.566,2.68 -10.266,2.68 -7.641,0 -12.557,-4.168 -12.557,-9.667 0,-4.769 3.115,-6.917 9.781,-8.679 3.749,-0.988 6.037,-1.762 6.037,-4.211 0,-1.805 -1.704,-3.136 -3.894,-3.136 -4.923,0 -10.215,2.992 -10.215,2.992 l -2.763,-5.86 c 0,0 4.571,-3.62 11.857,-3.62 8.276,0 13.436,4.339 13.436,10.269 0,4.597 -3.115,7.39 -9.541,9.281"
         style="fill:#144a87;fill-opacity:1;fill-rule:nonzero;stroke:none"
         id="path466" />
      <path
         d="m 362.167,415.041 c -3.72,-0.003 -7.52,0 -7.52,0 v -30.692 h 7.804 l -0.038,18.232 c 0,0 6.097,-10.537 11.523,-18.232 5.269,-0.011 6.505,0 6.505,0 v 30.685 h -7.655 l 0.007,-15.991 c 0,0 -4.282,7.466 -10.626,15.998"
         style="fill:#144a87;fill-opacity:1;fill-rule:nonzero;stroke:none"
         id="path468" />
      <path
         d="m 405.575,384.406 v 13.22 h -11.587 v -13.22 h -7.804 v 30.624 h 7.804 v -11.645 h 11.587 v 11.645 h 7.787 v -30.624 h -7.787"
         style="fill:#144a87;fill-opacity:1;fill-rule:nonzero;stroke:none"
         id="path470" />
      <path
         d="m 397.99,365.658 c -2.538,4.55 -11.191,12.08 -26.558,9.607 -5.836,-0.508 -8.26,-0.873 -11.354,-0.635 -12.235,0.94 -14.367,7.694 -14.482,8.062 h -3.057 c 0,0 1.681,-13.137 15.065,-15.356 3.28,-0.544 10.11,0.101 14.526,0.824 10.846,1.776 19.146,2.06 25.875,-7.243 0,0 0.088,-0.102 0.162,-0.102 0.139,0 0.173,0.102 0.173,0.102 0,0 0.875,1.782 -0.35,4.741"
         style="fill:#00a0e3;fill-opacity:1;fill-rule:nonzero;stroke:none"
         id="path472" />
      <path
         d="m 450.166,382.692 c -0.116,-0.368 -2.379,-7.092 -14.615,-8.032 -3.094,-0.237 -5.518,0.128 -11.355,0.635 -15.236,2.452 -21.686,-5.057 -23.552,-9.141 -1.225,-2.741 -0.554,-5.237 -0.554,-5.237 0,0 0.043,-0.102 0.155,-0.102 0.075,0 0.16,0.102 0.16,0.102 6.728,9.303 12.247,9.05 23.093,7.273 4.417,-0.722 11.248,-1.368 14.527,-0.824 13.384,2.22 15.198,15.326 15.198,15.326 h -3.057"
         style="fill:#00a0e3;fill-opacity:1;fill-rule:nonzero;stroke:none"
         id="path474" />
      <path
         d="m 351.002,353.694 h -4.996 v -4.911 h 4.91 v -2.007 h -4.91 v -6.021 h -3.01 v 14.946 h 8.006 v -2.007"
         style="fill:#144a87;fill-opacity:1;fill-rule:nonzero;stroke:none"
         id="path476" />
      <path
         d="m 357.449,342.079 c -2.028,0 -2.583,2.263 -2.583,4.142 0,1.772 0.641,3.886 2.583,3.886 1.986,0 2.605,-2.114 2.605,-3.886 0,-1.879 -0.534,-4.142 -2.605,-4.142 z m 0,-1.58 c 3.352,0 5.615,2.413 5.615,5.722 0,3.459 -2.732,5.465 -5.615,5.465 -2.86,0 -5.593,-2.006 -5.593,-5.465 0,-3.309 2.263,-5.722 5.593,-5.722"
         style="fill:#144a87;fill-opacity:1;fill-rule:nonzero;stroke:none"
         id="path478" />
      <path
         d="m 367.121,349.552 h 0.043 l 0.576,0.832 c 0.342,0.449 0.961,1.302 1.836,1.302 0.641,0 1.324,-0.341 1.922,-0.96 l -1.068,-1.964 c -0.47,0.235 -0.768,0.363 -1.345,0.363 -0.982,0 -1.943,-0.79 -1.943,-3.096 v -5.274 h -2.839 v 10.675 h 2.818 v -1.878"
         style="fill:#144a87;fill-opacity:1;fill-rule:nonzero;stroke:none"
         id="path480" />
      <path
         d="m 376.216,351.43 h 2.796 v -1.451 h -2.796 v -5.253 c 0,-1.75 0.533,-2.497 1.473,-2.497 0.619,0 0.982,0.171 1.366,0.363 l 0.491,-1.41 c -0.832,-0.448 -1.857,-0.683 -2.797,-0.683 -2.348,0 -3.373,1.238 -3.373,3.416 v 6.064 h -1.494 v 1.451 h 1.494 v 2.563 l 2.84,0.64 v -3.203"
         style="fill:#144a87;fill-opacity:1;fill-rule:nonzero;stroke:none"
         id="path482" />
      <path
         d="m 383.773,350.171 c 0.961,1.025 2.306,1.515 3.651,1.515 2.498,0 3.822,-1.366 3.822,-4.056 v -6.875 h -2.84 v 6.555 c 0,1.494 -0.661,2.476 -2.135,2.476 -1.387,0 -2.476,-0.918 -2.476,-2.668 v -6.363 h -2.84 v 15.693 h 2.818 v -6.277"
         style="fill:#144a87;fill-opacity:1;fill-rule:nonzero;stroke:none"
         id="path484" />
      <path
         d="m 404.418,340.755 -5.55,14.732 3.202,0.427 c 1.324,-3.8 2.626,-7.601 3.928,-11.913 h 0.043 c 1.367,4.312 2.754,8.113 4.142,11.913 l 2.583,-0.427 -5.892,-14.732 h -2.456"
         style="fill:#144a87;fill-opacity:1;fill-rule:nonzero;stroke:none"
         id="path486" />
      <path
         d="m 417.677,346.947 c 0.213,-3.139 -1.26,-4.547 -2.392,-4.547 -0.682,0 -1.281,0.64 -1.281,1.579 0,1.217 0.705,2.029 2.093,2.455 z m -0.043,-4.633 c 0,-0.577 0.064,-1.196 0.278,-1.559 h 3.01 c -0.341,0.748 -0.448,1.751 -0.448,2.605 v 4.355 c 0,3.331 -2.413,3.971 -4.377,3.971 -1.473,0 -2.775,-0.362 -4.099,-1.451 l 0.918,-1.345 c 0.747,0.64 1.601,1.089 2.818,1.089 0.918,0 1.793,-0.619 1.943,-1.601 l -2.519,-0.748 c -2.477,-0.704 -3.95,-1.857 -3.95,-3.886 0,-1.964 1.388,-3.245 3.053,-3.245 0.982,0 1.943,0.662 2.733,1.281 l 0.64,0.534"
         style="fill:#144a87;fill-opacity:1;fill-rule:nonzero;stroke:none"
         id="path488" />
      <path
         d="m 422.16,356.448 h 2.839 v -15.692 h -2.839 z"
         style="fill:#144a87;fill-opacity:1;fill-rule:nonzero;stroke:none"
         id="path490" />
      <path
         d="m 427.476,356.448 h 2.839 v -15.692 h -2.839 z"
         style="fill:#144a87;fill-opacity:1;fill-rule:nonzero;stroke:none"
         id="path492" />
      <path
         d="m 434.628,347.374 c -0.021,1.43 0.705,2.733 2.327,2.733 1.41,0 1.986,-1.11 1.88,-2.733 z m 6.875,-1.537 c 0.214,3.181 -1.174,5.849 -4.505,5.849 -3.053,0 -5.444,-2.092 -5.444,-5.379 0,-3.523 2.413,-5.808 5.637,-5.808 1.216,0 2.732,0.342 4.184,1.196 l -0.811,1.494 c -0.705,-0.491 -1.815,-0.854 -2.861,-0.854 -1.772,0 -3.181,1.495 -3.117,3.502 h 6.917"
         style="fill:#144a87;fill-opacity:1;fill-rule:nonzero;stroke:none"
         id="path494" />
      <path
         d="m 444.62,351.644 c 0.918,-2.455 1.858,-4.932 2.754,-7.9 h 0.043 c 0.961,2.968 1.943,5.445 2.925,7.9 l 2.413,-0.448 -5.274,-11.871 c -0.577,-1.302 -1.9,-3.907 -4.675,-3.907 h -1.196 v 1.9 h 0.747 c 1.302,0 2.349,0.555 3.48,4.099 l -4.056,9.714 2.839,0.513"
         style="fill:#144a87;fill-opacity:1;fill-rule:nonzero;stroke:none"
         id="path496" />
    </g>
  </g>
  <metadata
     id="metadata1178">
    <rdf:RDF>
      <cc:Work
         rdf:about="">
        <dc:title>NHS Forth Valley logo</dc:title>
      </cc:Work>
    </rdf:RDF>
  </metadata>
</svg>
