<?xml version="1.0" encoding="UTF-8"?>
<svg id="svg2985" xmlns="http://www.w3.org/2000/svg" width="948.061035" height="619.375498" viewBox="0 0 948.061035 619.375498">
  <g>
    <g id="g3021">
      <path id="path3023" d="M652.849793,81.597323c0,40.790825,26.904608,59.016578,83.317488,73.770689,32.111937,8.678905,51.205534,14.754111,51.205534,35.583496,0,15.622022-14.754144,26.904591-32.979831,26.904591-41.658736,0-86.789046-25.168837-86.789046-25.168837l-24.300926,50.33764s39.055071,31.244043,101.543191,31.244043c70.299114,0,114.561548-37.319283,114.561548-87.656957,0-39.055071-26.904591-63.35603-81.581684-78.978019-33.847741-9.546782-53.809215-12.15048-53.809215-30.376166,0-13.018357,12.150463-22.565139,32.979831-22.565139,24.300926,0,67.695449,19.093564,67.695449,19.093564l21.697262-51.20555S807.334322.01554,758.732436.01554c-64.223891-.867877-105.882643,34.715618-105.882643,81.581717" style="fill: #004684;"/>
    </g>
    <g id="g3025">
      <path id="path3027" d="M105.063375,3.89424v262.102926h66.827564V110.644793s52.073428,90.260621,98.071632,155.352406h55.545003V3.89424h-65.959695v136.258776S223.096473,76.796985,169.287274,3.89424h-64.223891" style="fill: #004684;"/>
    </g>
    <g id="g3029">
      <path id="path3031" d="M539.606584,4.691754v99.807403h-98.939518V4.691754h-66.827567v261.235016h66.827563v-112.82576h98.939505v112.82576h66.827556V4.691754h-66.827539Z" style="fill: #004684;"/>
    </g>
    <g id="g3033">
      <path id="path3035" d="M1.546613,280.292138s14.754136,111.957866,128.44779,131.051463c27.772501,4.339452,85.921152-.867894,124.108346-6.943117,92.864286-14.754144,163.1634-17.357809,220.444191,61.620226h2.603665s7.811027-15.62203-2.603665-40.790858c-21.697262-39.055071-95.467951-103.278962-226.519397-81.5817-49.469763,4.339452-70.299131,7.811011-97.203738,5.207346-104.146889-7.811011-122.372592-65.091785-123.240477-68.56336H1.546613" style="fill: #00a2e5;"/>
    </g>
    <g id="g3037">
      <path id="path3039" d="M919.609815,280.292138c-.867894,3.471575-19.961474,60.752332-124.976223,68.563343-26.036714,1.735788-46.866082-.867894-97.20373-5.207346-130.183569-20.829368-184.86067,43.394523-201.350602,78.110142-10.414692,23.433041-4.339452,45.130302-4.339452,45.130302h2.603665c57.280774-78.978044,104.146855-77.242256,197.011141-62.488112,37.319292,6.07524,96.335845,11.282569,124.108338,6.943117,115.42945-19.093564,131.051471-131.051447,131.051471-131.051447h-26.904608" style="fill: #00a2e5;"/>
    </g>
  </g>
  <g>
    <path d="M85.140625,613.062998c-6.004395,2.15625-17.859375,5.697266-31.870117,5.697266-15.703613,0-28.636719-4.00293-38.797852-13.703125-8.930176-8.62207-14.472656-22.478516-14.472656-38.644531.154297-30.945312,21.400879-53.578125,56.195801-53.578125,12.009277,0,21.400879,2.617188,25.865723,4.772461l-3.233398,10.931641c-5.54248-2.462891-12.470703-4.464844-22.939941-4.464844-25.25,0-41.723633,15.704102-41.723633,41.723633,0,26.327148,15.85791,41.876953,40.029785,41.876953,8.775879,0,14.780273-1.231445,17.859863-2.770508v-30.946289h-21.092773v-10.777344h34.179199v49.882812Z" style="fill: #004684;"/>
    <path d="M173.356445,579.808115c0,27.558594-19.091309,39.567383-37.10498,39.567383-20.168945,0-35.71875-14.780273-35.71875-38.335938,0-24.941406,16.319824-39.568359,36.950684-39.568359,21.400391,0,35.873047,15.549805,35.873047,38.336914ZM114.235352,580.577646c0,16.319336,9.391602,28.636719,22.632324,28.636719,12.932617,0,22.632324-12.163086,22.632324-28.944336,0-12.625-6.3125-28.637695-22.324707-28.637695-16.011719,0-22.939941,14.780273-22.939941,28.945312Z" style="fill: #004684;"/>
    <path d="M190.443848,508.369638h13.54834v109.3125h-13.54834v-109.3125Z" style="fill: #004684;"/>
    <path d="M291.132324,508.369638v90.067383c0,6.620117.154297,14.164062.616211,19.245117h-12.163086l-.615723-12.932617h-.308105c-4.156738,8.313477-13.240723,14.625977-25.40332,14.625977-18.013672,0-31.870117-15.242188-31.870117-37.874023-.153809-24.788086,15.242188-40.030273,33.409668-40.030273,11.393066,0,19.09082,5.388672,22.478027,11.393555h.308105v-44.495117h13.54834ZM277.583984,573.495615c0-1.694336-.153809-4.00293-.615723-5.697266-2.001465-8.621094-9.391602-15.704102-19.553223-15.704102-14.010254,0-22.324219,12.317383-22.324219,28.791016,0,15.087891,7.390137,27.55957,22.016113,27.55957,9.083984,0,17.397949-6.004883,19.861328-16.166016.461914-1.847656.615723-3.695312.615723-5.850586v-12.932617Z" style="fill: #004684;"/>
    <path d="M321.152832,582.887217c.308105,18.321289,12.008789,25.865234,25.557617,25.865234,9.699707,0,15.550293-1.693359,20.630859-3.848633l2.30957,9.699219c-4.772949,2.155273-12.933105,4.619141-24.788086,4.619141-22.939941,0-36.642578-15.088867-36.642578-37.567383,0-22.477539,13.240723-40.183594,34.949219-40.183594,24.325684,0,30.791992,21.400391,30.791992,35.103516,0,2.771484-.307617,4.926758-.461914,6.3125h-52.34668ZM360.875,573.187021c.153809-8.621094-3.541016-22.016602-18.783203-22.016602-13.702637,0-19.707031,12.625-20.785156,22.016602h39.568359Z" style="fill: #004684;"/>
    <path d="M390.740723,563.333506c0-7.697266-.154297-14.009766-.615723-20.168945h12.008789l.77002,12.317383h.307617c3.695312-7.082031,12.316895-14.010742,24.633789-14.010742,10.31543,0,26.327637,6.158203,26.327637,31.71582v44.495117h-13.548828v-42.955078c0-12.008789-4.464844-22.016602-17.243652-22.016602-8.929688,0-15.85791,6.3125-18.16748,13.856445-.615723,1.693359-.923828,4.00293-.923828,6.3125v44.802734h-13.54834v-54.348633Z" style="fill: #004684;"/>
    <path d="M530.532715,513.912607h13.395508v69.436523c0,27.558594-13.548828,36.026367-31.408203,36.026367-4.926758,0-10.931641-1.077148-14.318359-2.462891l2.000977-10.931641c2.771484,1.078125,6.774414,2.001953,11.239258,2.001953,12.008789,0,19.09082-5.388672,19.09082-25.711914v-68.358398Z" style="fill: #004684;"/>
    <path d="M628.143066,597.358896c0,7.698242.15332,14.472656.615234,20.323242h-12.008789l-.769531-12.163086h-.307617c-3.541992,6.004883-11.393555,13.856445-24.633789,13.856445-11.701172,0-25.711914-6.46582-25.711914-32.639648v-43.571289h13.548828v41.261719c0,14.165039,4.310547,23.709961,16.62793,23.709961,9.083008,0,15.395508-6.3125,17.859375-12.316406.769531-2.001953,1.231445-4.464844,1.231445-6.928711v-45.726562h13.548828v54.194336Z" style="fill: #004684;"/>
    <path d="M650.002441,617.682138c.308594-5.081055.616211-12.625.616211-19.245117v-90.067383h13.394531v46.804688h.307617c4.773438-8.314453,13.394531-13.703125,25.404297-13.703125,18.474609,0,31.561523,15.396484,31.407227,38.02832,0,26.635742-16.78125,39.875977-33.40918,39.875977-10.777344,0-19.399414-4.15625-24.941406-14.009766h-.461914l-.616211,12.316406h-11.701172ZM664.013184,587.813974c0,1.693359.307617,3.386719.616211,4.926758,2.617188,9.391602,10.46875,15.857422,20.322266,15.857422,14.165039,0,22.632812-11.546875,22.632812-28.636719,0-14.933594-7.698242-27.712891-22.170898-27.712891-9.237305,0-17.859375,6.3125-20.630859,16.62793-.307617,1.540039-.769531,3.386719-.769531,5.542969v13.394531Z" style="fill: #004684;"/>
    <path d="M753.306152,522.226084c.154297,4.619141-3.233398,8.314453-8.62207,8.314453-4.772461,0-8.15918-3.695312-8.15918-8.314453,0-4.772461,3.541016-8.467773,8.467773-8.467773,5.080078,0,8.313477,3.695312,8.313477,8.467773ZM738.218262,617.682138v-74.517578h13.548828v74.517578h-13.548828Z" style="fill: #004684;"/>
    <path d="M774.243652,508.369638h13.548828v109.3125h-13.548828v-109.3125Z" style="fill: #004684;"/>
    <path d="M818.120605,582.887217c.307617,18.321289,12.008789,25.865234,25.557617,25.865234,9.699219,0,15.549805-1.693359,20.630859-3.848633l2.30957,9.699219c-4.773438,2.155273-12.932617,4.619141-24.788086,4.619141-22.94043,0-36.642578-15.088867-36.642578-37.567383,0-22.477539,13.240234-40.183594,34.949219-40.183594,24.326172,0,30.791992,21.400391,30.791992,35.103516,0,2.771484-.307617,4.926758-.461914,6.3125h-52.34668ZM857.842285,573.187021c.154297-8.621094-3.541016-22.016602-18.783203-22.016602-13.702148,0-19.707031,12.625-20.78418,22.016602h39.567383Z" style="fill: #004684;"/>
    <path d="M895.252441,582.887217c.307617,18.321289,12.008789,25.865234,25.557617,25.865234,9.699219,0,15.549805-1.693359,20.630859-3.848633l2.30957,9.699219c-4.773438,2.155273-12.932617,4.619141-24.788086,4.619141-22.94043,0-36.642578-15.088867-36.642578-37.567383,0-22.477539,13.240234-40.183594,34.949219-40.183594,24.326172,0,30.791992,21.400391,30.791992,35.103516,0,2.771484-.307617,4.926758-.461914,6.3125h-52.34668ZM934.974121,573.187021c.154297-8.621094-3.541016-22.016602-18.783203-22.016602-13.702148,0-19.707031,12.625-20.78418,22.016602h39.567383Z" style="fill: #004684;"/>
  </g>
</svg>