<?xml version="1.0" encoding="UTF-8" standalone="no"?>
<!-- Created with Inkscape (http://www.inkscape.org/) -->

<svg
   width="180"
   height="130"
   viewBox="0 0 47.625001 34.395829"
   version="1.1"
   id="svg918"
   inkscape:version="1.2.2 (732a01da63, 2022-12-09)"
   sodipodi:docname="NHS Lanarkshire.svg"
   xmlns:inkscape="http://www.inkscape.org/namespaces/inkscape"
   xmlns:sodipodi="http://sodipodi.sourceforge.net/DTD/sodipodi-0.dtd"
   xmlns="http://www.w3.org/2000/svg"
   xmlns:svg="http://www.w3.org/2000/svg"
   xmlns:rdf="http://www.w3.org/1999/02/22-rdf-syntax-ns#"
   xmlns:cc="http://creativecommons.org/ns#"
   xmlns:dc="http://purl.org/dc/elements/1.1/">
  <title
     id="title1180">NHS Lanarkshire logo</title>
  <sodipodi:namedview
     id="namedview920"
     pagecolor="#ffffff"
     bordercolor="#000000"
     borderopacity="0.25"
     inkscape:showpageshadow="2"
     inkscape:pageopacity="0.0"
     inkscape:pagecheckerboard="0"
     inkscape:deskcolor="#d1d1d1"
     inkscape:document-units="mm"
     showgrid="false"
     inkscape:zoom="1.2555347"
     inkscape:cx="-22.699491"
     inkscape:cy="21.903018"
     inkscape:window-width="1920"
     inkscape:window-height="1002"
     inkscape:window-x="2125"
     inkscape:window-y="-8"
     inkscape:window-maximized="1"
     inkscape:current-layer="layer1" />
  <defs
     id="defs915" />
  <g
     inkscape:label="Layer 1"
     inkscape:groupmode="layer"
     id="layer1"
     transform="translate(-132.35926,-106.61434)">
    <g
       id="g2003"
       transform="matrix(0.35277777,0,0,-0.35277777,15.831648,307.14557)">
      <path
         d="m 433.485,544.616 c -3.943,1.16 -6.276,1.418 -6.276,3.609 0,1.503 1.409,2.621 3.843,2.621 2.896,0 7.975,-2.258 7.975,-2.258 l 2.584,5.979 c 0,0 -4.566,2.681 -10.267,2.681 -7.64,0 -12.557,-4.168 -12.557,-9.668 0,-4.769 3.115,-6.917 9.782,-8.679 3.749,-0.988 6.036,-1.761 6.036,-4.211 0,-1.804 -1.704,-3.136 -3.894,-3.136 -4.922,0 -10.214,2.992 -10.214,2.992 l -2.763,-5.86 c 0,0 4.57,-3.62 11.857,-3.62 8.276,0 13.436,4.339 13.436,10.269 0,4.597 -3.115,7.39 -9.542,9.281"
         style="fill:#144a87;fill-opacity:1;fill-rule:nonzero;stroke:none"
         id="path376" />
      <path
         d="m 362.1,556.664 c -3.719,-0.003 -7.519,0 -7.519,0 v -30.692 h 7.803 l -0.038,18.233 c 0,0 6.098,-10.537 11.523,-18.233 5.269,-0.01 6.506,0 6.506,0 v 30.685 h -7.656 l 0.007,-15.99 c 0,0 -4.282,7.466 -10.626,15.997"
         style="fill:#144a87;fill-opacity:1;fill-rule:nonzero;stroke:none"
         id="path378" />
      <path
         d="m 405.508,526.029 v 13.221 h -11.587 v -13.221 h -7.803 v 30.625 h 7.803 v -11.646 h 11.587 v 11.646 h 7.787 v -30.625 h -7.787"
         style="fill:#144a87;fill-opacity:1;fill-rule:nonzero;stroke:none"
         id="path380" />
      <path
         d="m 397.923,507.281 c -2.537,4.55 -11.19,12.08 -26.557,9.607 -5.836,-0.508 -8.26,-0.872 -11.355,-0.635 -12.235,0.94 -14.366,7.694 -14.482,8.062 h -3.056 c 0,0 1.681,-13.137 15.065,-15.356 3.279,-0.544 10.11,0.101 14.526,0.824 10.846,1.776 19.146,2.061 25.875,-7.242 0,0 0.087,-0.103 0.162,-0.103 0.139,0 0.172,0.103 0.172,0.103 0,0 0.875,1.781 -0.35,4.74"
         style="fill:#00a0e3;fill-opacity:1;fill-rule:nonzero;stroke:none"
         id="path382" />
      <path
         d="m 450.1,524.315 c -0.116,-0.368 -2.379,-7.092 -14.615,-8.031 -3.094,-0.238 -5.518,0.127 -11.356,0.634 -15.236,2.453 -21.685,-5.057 -23.551,-9.141 -1.225,-2.741 -0.555,-5.236 -0.555,-5.236 0,0 0.043,-0.103 0.156,-0.103 0.075,0 0.159,0.103 0.159,0.103 6.729,9.303 12.248,9.049 23.093,7.272 4.418,-0.722 11.249,-1.368 14.528,-0.824 13.384,2.22 15.197,15.326 15.197,15.326 H 450.1"
         style="fill:#00a0e3;fill-opacity:1;fill-rule:nonzero;stroke:none"
         id="path384" />
      <path
         d="m 344.39,497.324 h 3.011 v -12.938 h 5.935 v -2.007 h -8.946 v 14.945"
         style="fill:#144a87;fill-opacity:1;fill-rule:nonzero;stroke:none"
         id="path386" />
      <path
         d="m 360.979,488.57 c 0.214,-3.138 -1.26,-4.547 -2.391,-4.547 -0.683,0 -1.281,0.64 -1.281,1.58 0,1.216 0.705,2.028 2.092,2.455 z m -0.043,-4.633 c 0,-0.576 0.065,-1.195 0.278,-1.558 h 3.01 c -0.341,0.747 -0.448,1.75 -0.448,2.604 v 4.356 c 0,3.33 -2.413,3.971 -4.377,3.971 -1.473,0 -2.775,-0.363 -4.099,-1.452 l 0.918,-1.345 c 0.747,0.64 1.601,1.089 2.818,1.089 0.918,0 1.794,-0.619 1.943,-1.601 l -2.519,-0.748 c -2.477,-0.704 -3.95,-1.857 -3.95,-3.885 0,-1.964 1.388,-3.246 3.053,-3.246 0.982,0 1.943,0.662 2.733,1.282 l 0.64,0.533"
         style="fill:#144a87;fill-opacity:1;fill-rule:nonzero;stroke:none"
         id="path388" />
      <path
         d="m 368.815,491.794 c 0.96,1.025 2.305,1.516 3.65,1.516 2.498,0 3.822,-1.367 3.822,-4.057 v -6.874 h -2.84 v 6.554 c 0,1.495 -0.661,2.477 -2.135,2.477 -1.387,0 -2.476,-0.918 -2.476,-2.669 v -6.362 h -2.84 v 10.675 h 2.819 v -1.26"
         style="fill:#144a87;fill-opacity:1;fill-rule:nonzero;stroke:none"
         id="path390" />
      <path
         d="m 384.379,488.57 c 0.213,-3.138 -1.26,-4.547 -2.392,-4.547 -0.683,0 -1.281,0.64 -1.281,1.58 0,1.216 0.705,2.028 2.093,2.455 z m -0.043,-4.633 c 0,-0.576 0.064,-1.195 0.277,-1.558 h 3.011 c -0.342,0.747 -0.449,1.75 -0.449,2.604 v 4.356 c 0,3.33 -2.412,3.971 -4.376,3.971 -1.473,0 -2.776,-0.363 -4.1,-1.452 l 0.919,-1.345 c 0.747,0.64 1.601,1.089 2.818,1.089 0.918,0 1.793,-0.619 1.943,-1.601 l -2.52,-0.748 c -2.476,-0.704 -3.95,-1.857 -3.95,-3.885 0,-1.964 1.388,-3.246 3.054,-3.246 0.982,0 1.942,0.662 2.732,1.282 l 0.641,0.533"
         style="fill:#144a87;fill-opacity:1;fill-rule:nonzero;stroke:none"
         id="path392" />
      <path
         d="m 392.321,491.175 h 0.042 l 0.577,0.832 c 0.341,0.449 0.961,1.303 1.836,1.303 0.64,0 1.324,-0.342 1.921,-0.961 l -1.067,-1.964 c -0.47,0.235 -0.769,0.363 -1.345,0.363 -0.982,0 -1.943,-0.79 -1.943,-3.096 v -5.273 h -2.839 v 10.675 h 2.818 v -1.879"
         style="fill:#144a87;fill-opacity:1;fill-rule:nonzero;stroke:none"
         id="path394" />
      <path
         d="m 397.743,498.071 h 2.84 v -9.223 h 0.32 l 3.565,4.419 2.093,-0.897 -3.245,-3.843 4.056,-5.401 -2.733,-0.961 -4.014,5.85 h -0.042 v -5.636 h -2.84 v 15.692"
         style="fill:#144a87;fill-opacity:1;fill-rule:nonzero;stroke:none"
         id="path396" />
      <path
         d="m 414.353,491.047 c -0.64,0.469 -1.302,0.683 -1.814,0.683 -0.641,0 -1.281,-0.363 -1.281,-1.089 0,-0.854 1.024,-1.345 2.22,-2.22 1.516,-1.132 1.964,-2.242 1.964,-3.224 0,-1.495 -1.644,-3.075 -3.992,-3.075 -1.473,0 -2.562,0.513 -3.566,1.217 l 0.897,1.474 c 0.641,-0.513 1.559,-1.025 2.327,-1.025 0.811,0 1.537,0.427 1.537,1.324 0,1.003 -1.11,1.558 -2.135,2.284 -1.217,0.833 -2.049,1.644 -2.049,2.968 0,1.686 1.622,2.946 3.715,2.946 1.174,0 2.327,-0.299 3.095,-0.982 l -0.918,-1.281"
         style="fill:#144a87;fill-opacity:1;fill-rule:nonzero;stroke:none"
         id="path398" />
      <path
         d="m 419.733,491.794 c 0.961,1.025 2.306,1.516 3.651,1.516 2.498,0 3.822,-1.367 3.822,-4.057 v -6.874 h -2.84 v 6.554 c 0,1.495 -0.661,2.477 -2.135,2.477 -1.387,0 -2.476,-0.918 -2.476,-2.669 v -6.362 h -2.84 v 15.692 h 2.818 v -6.277"
         style="fill:#144a87;fill-opacity:1;fill-rule:nonzero;stroke:none"
         id="path400" />
      <path
         d="m 429.362,493.054 h 2.839 v -10.675 h -2.839 z m -0.277,3.202 c 0,0.811 0.683,1.644 1.644,1.644 0.982,0 1.75,-0.811 1.75,-1.644 0,-0.918 -0.662,-1.793 -1.708,-1.793 -1.003,0 -1.686,0.875 -1.686,1.793"
         style="fill:#144a87;fill-opacity:1;fill-rule:nonzero;stroke:none"
         id="path402" />
      <path
         d="m 437.39,491.175 h 0.042 l 0.577,0.832 c 0.342,0.449 0.961,1.303 1.836,1.303 0.641,0 1.324,-0.342 1.921,-0.961 l -1.067,-1.964 c -0.47,0.235 -0.769,0.363 -1.345,0.363 -0.982,0 -1.943,-0.79 -1.943,-3.096 v -5.273 h -2.839 v 10.675 h 2.818 v -1.879"
         style="fill:#144a87;fill-opacity:1;fill-rule:nonzero;stroke:none"
         id="path404" />
      <path
         d="m 445.075,488.997 c -0.021,1.431 0.705,2.733 2.328,2.733 1.409,0 1.985,-1.11 1.878,-2.733 z m 6.875,-1.537 c 0.214,3.181 -1.174,5.85 -4.505,5.85 -3.053,0 -5.444,-2.092 -5.444,-5.38 0,-3.523 2.413,-5.808 5.637,-5.808 1.216,0 2.732,0.342 4.184,1.196 l -0.811,1.495 c -0.705,-0.492 -1.815,-0.854 -2.861,-0.854 -1.772,0 -3.181,1.494 -3.117,3.501 h 6.917"
         style="fill:#144a87;fill-opacity:1;fill-rule:nonzero;stroke:none"
         id="path406" />
    </g>
  </g>
  <metadata
     id="metadata1178">
    <rdf:RDF>
      <cc:Work
         rdf:about="">
        <dc:title>NHS Lanarkshire logo</dc:title>
      </cc:Work>
    </rdf:RDF>
  </metadata>
</svg>
