<?xml version="1.0" encoding="UTF-8" standalone="no"?>
<!-- Created with Inkscape (http://www.inkscape.org/) -->

<svg
   width="180"
   height="180"
   viewBox="0 0 47.625001 47.624994"
   version="1.1"
   id="svg918"
   inkscape:version="1.2.2 (732a01da63, 2022-12-09)"
   sodipodi:docname="N24.svg"
   xmlns:inkscape="http://www.inkscape.org/namespaces/inkscape"
   xmlns:sodipodi="http://sodipodi.sourceforge.net/DTD/sodipodi-0.dtd"
   xmlns="http://www.w3.org/2000/svg"
   xmlns:svg="http://www.w3.org/2000/svg"
   xmlns:rdf="http://www.w3.org/1999/02/22-rdf-syntax-ns#"
   xmlns:cc="http://creativecommons.org/ns#"
   xmlns:dc="http://purl.org/dc/elements/1.1/">
  <title
     id="title1180">NHS24 logo</title>
  <sodipodi:namedview
     id="namedview920"
     pagecolor="#ffffff"
     bordercolor="#000000"
     borderopacity="0.25"
     inkscape:showpageshadow="2"
     inkscape:pageopacity="0.0"
     inkscape:pagecheckerboard="0"
     inkscape:deskcolor="#d1d1d1"
     inkscape:document-units="mm"
     showgrid="false"
     inkscape:zoom="0.91939149"
     inkscape:cx="-268.11212"
     inkscape:cy="-11.420597"
     inkscape:window-width="1920"
     inkscape:window-height="1002"
     inkscape:window-x="2125"
     inkscape:window-y="-8"
     inkscape:window-maximized="1"
     inkscape:current-layer="layer1" />
  <defs
     id="defs915" />
  <g
     inkscape:label="Layer 1"
     inkscape:groupmode="layer"
     id="layer1"
     transform="translate(-132.35926,-106.61434)">
    <g
       id="g6354"
       transform="matrix(0.35277777,0,0,-0.35277777,12.164347,210.99246)">
      <path
         d="m 443.88,261.237 c -3.943,1.159 -6.276,1.417 -6.276,3.609 0,1.503 1.409,2.621 3.843,2.621 2.896,0 7.975,-2.258 7.975,-2.258 l 2.584,5.979 c 0,0 -4.566,2.68 -10.267,2.68 -7.64,0 -12.557,-4.167 -12.557,-9.667 0,-4.769 3.115,-6.917 9.782,-8.679 3.749,-0.988 6.037,-1.762 6.037,-4.211 0,-1.804 -1.705,-3.136 -3.895,-3.136 -4.922,0 -10.214,2.992 -10.214,2.992 l -2.763,-5.86 c 0,0 4.57,-3.62 11.857,-3.62 8.276,0 13.436,4.339 13.436,10.269 0,4.597 -3.115,7.39 -9.542,9.281"
         style="fill:#144a87;fill-opacity:1;fill-rule:nonzero;stroke:none"
         id="path4596" />
      <path
         d="m 372.495,273.285 c -3.719,-0.003 -7.519,0 -7.519,0 v -30.692 h 7.804 l -0.039,18.232 c 0,0 6.098,-10.536 11.523,-18.232 5.269,-0.011 6.506,0 6.506,0 v 30.685 h -7.656 l 0.007,-15.99 c 0,0 -4.282,7.465 -10.626,15.997"
         style="fill:#144a87;fill-opacity:1;fill-rule:nonzero;stroke:none"
         id="path4598" />
      <path
         d="m 415.903,242.65 v 13.22 h -11.587 v -13.22 h -7.803 v 30.624 h 7.803 v -11.645 h 11.587 v 11.645 h 7.787 V 242.65 h -7.787"
         style="fill:#144a87;fill-opacity:1;fill-rule:nonzero;stroke:none"
         id="path4600" />
      <path
         d="m 408.318,223.901 c -2.537,4.55 -11.19,12.08 -26.557,9.606 -5.836,-0.508 -8.26,-0.872 -11.355,-0.634 -12.235,0.939 -14.366,7.694 -14.482,8.062 h -3.056 c 0,0 1.681,-13.137 15.065,-15.357 3.279,-0.544 10.11,0.102 14.526,0.825 10.846,1.776 19.146,2.06 25.875,-7.243 0,0 0.087,-0.102 0.162,-0.102 0.139,0 0.172,0.102 0.172,0.102 0,0 0.875,1.782 -0.35,4.741"
         style="fill:#00a0e3;fill-opacity:1;fill-rule:nonzero;stroke:none"
         id="path4602" />
      <path
         d="m 460.495,240.935 c -0.116,-0.368 -2.379,-7.093 -14.615,-8.032 -3.094,-0.237 -5.518,0.127 -11.356,0.634 -15.235,2.453 -21.685,-5.057 -23.551,-9.141 -1.225,-2.741 -0.555,-5.236 -0.555,-5.236 0,0 0.043,-0.102 0.156,-0.102 0.075,0 0.159,0.102 0.159,0.102 6.729,9.303 12.248,9.049 23.094,7.273 4.417,-0.723 11.248,-1.368 14.527,-0.825 13.384,2.221 15.198,15.327 15.198,15.327 h -3.057"
         style="fill:#00a0e3;fill-opacity:1;fill-rule:nonzero;stroke:none"
         id="path4604" />
      <path
         d="m 381.948,187.115 4.234,3.881 c 5.512,4.983 10.275,10.275 10.275,14.377 0,1.455 -1.323,3.175 -3.44,3.175 -2.161,0 -4.586,-1.279 -7.011,-2.955 l -2.999,4.41 c 2.293,2.073 6.262,4.278 12.127,4.278 5.38,0 11.246,-2.294 11.246,-8.026 0,-3.44 -1.323,-6.174 -7.453,-12.525 l -4.278,-4.498 h 12.039 v -6.35 h -24.696 l -0.044,4.233"
         style="fill:#144a87;fill-opacity:1;fill-rule:nonzero;stroke:none"
         id="path4606" />
      <path
         d="m 414.758,194.833 7.453,10.099 h 0.088 v -10.099 z m 16.67,18.918 h -7.541 L 408.055,193.73 v -3.969 h 14.244 v -6.879 h 9.129 v 6.879 h 3.748 v 5.072 h -3.748 v 18.918"
         style="fill:#144a87;fill-opacity:1;fill-rule:nonzero;stroke:none"
         id="path4608" />
    </g>
  </g>
  <metadata
     id="metadata1178">
    <rdf:RDF>
      <cc:Work
         rdf:about="">
        <dc:title>NHS24 logo</dc:title>
      </cc:Work>
    </rdf:RDF>
  </metadata>
</svg>
