<?xml version="1.0" encoding="UTF-8" standalone="no"?>
<svg
   id="Layer_1"
   data-name="Layer 1"
   viewBox="0 0 180 180.00001"
   version="1.1"
   sodipodi:docname="NES logo.svg"
   inkscape:version="1.2.2 (732a01da63, 2022-12-09)"
   inkscape:export-filename="NHSSacademy_white - blueline_p.svg"
   inkscape:export-xdpi="96"
   inkscape:export-ydpi="96"
   width="180"
   height="180"
   xmlns:inkscape="http://www.inkscape.org/namespaces/inkscape"
   xmlns:sodipodi="http://sodipodi.sourceforge.net/DTD/sodipodi-0.dtd"
   xmlns="http://www.w3.org/2000/svg"
   xmlns:svg="http://www.w3.org/2000/svg"
   xmlns:rdf="http://www.w3.org/1999/02/22-rdf-syntax-ns#"
   xmlns:cc="http://creativecommons.org/ns#"
   xmlns:dc="http://purl.org/dc/elements/1.1/">
  <title
     id="title7913">NHS Education for Scotland logo</title>
  <sodipodi:namedview
     id="namedview235"
     pagecolor="#ffffff"
     bordercolor="#000000"
     borderopacity="0.25"
     inkscape:showpageshadow="2"
     inkscape:pageopacity="0.0"
     inkscape:pagecheckerboard="0"
     inkscape:deskcolor="#d1d1d1"
     showgrid="false"
     inkscape:zoom="2.7455171"
     inkscape:cx="122.1992"
     inkscape:cy="52.631252"
     inkscape:window-width="1920"
     inkscape:window-height="1002"
     inkscape:window-x="2125"
     inkscape:window-y="-8"
     inkscape:window-maximized="1"
     inkscape:current-layer="Layer_1"
     showguides="false" />
  <defs
     id="defs4">
    <style
       id="style2">
      .cls-1 {
        fill: #004380;
      }

      .cls-2 {
        fill: #0096dc;
      }

      .cls-3 {
        stroke-width: .5px;
      }

      .cls-3, .cls-4 {
        fill: none;
        stroke: #0096dc;
        stroke-miterlimit: 10;
      }

      .cls-5 {
        fill: #234c7b;
      }
    </style>
  </defs>
  <g
     id="g64"
     inkscape:label="NES"
     transform="matrix(2.2048193,0,0,2.2048193,-15.202953,-3.6386757)"
     style="stroke-width:0.453552">
    <g
       id="g24"
       style="fill:#004380;fill-opacity:1;stroke-width:0.453552">
      <path
         class="cls-1"
         d="m 23.79,44.85 h 4.52 v 1.13 h -3.18 v 1.92 h 2.7 v 1.13 h -2.7 v 2.22 h 3.3 v 1.13 H 23.8 v -7.52 z"
         id="path6"
         style="fill:#004380;fill-opacity:1;stroke-width:0.453552" />
      <path
         class="cls-1"
         d="m 31.87,46.58 c 0.64,0 1.05,0.24 1.48,0.62 L 33.3,46.29 v -2.05 h 1.32 v 8.11 h -1.09 l -0.09,-0.61 h -0.05 c -0.41,0.41 -0.99,0.75 -1.6,0.75 -1.41,0 -2.32,-1.09 -2.32,-2.95 0,-1.86 1.16,-2.96 2.39,-2.96 z m 0.25,4.83 c 0.44,0 0.8,-0.2 1.18,-0.63 v -2.63 c -0.39,-0.34 -0.77,-0.47 -1.15,-0.47 -0.72,0 -1.31,0.68 -1.31,1.86 0,1.18 0.46,1.87 1.28,1.87 z"
         id="path8"
         style="fill:#004380;fill-opacity:1;stroke-width:0.453552" />
      <path
         class="cls-1"
         d="m 36.25,46.72 h 1.32 v 3.37 c 0,0.93 0.26,1.28 0.87,1.28 0.49,0 0.83,-0.23 1.25,-0.78 v -3.86 h 1.32 v 5.64 h -1.08 l -0.1,-0.83 H 39.8 c -0.49,0.59 -1.05,0.97 -1.82,0.97 -1.21,0 -1.74,-0.82 -1.74,-2.24 v -3.54 z"
         id="path10"
         style="fill:#004380;fill-opacity:1;stroke-width:0.453552" />
      <path
         class="cls-1"
         d="m 45.15,46.58 c 0.72,0 1.28,0.29 1.65,0.65 l -0.63,0.84 c -0.3,-0.26 -0.6,-0.41 -0.95,-0.41 -0.91,0 -1.54,0.75 -1.54,1.88 0,1.13 0.62,1.87 1.51,1.87 0.46,0 0.85,-0.23 1.16,-0.48 l 0.55,0.84 c -0.53,0.47 -1.21,0.72 -1.85,0.72 -1.54,0 -2.72,-1.08 -2.72,-2.95 0,-1.87 1.32,-2.96 2.83,-2.96 z"
         id="path12"
         style="fill:#004380;fill-opacity:1;stroke-width:0.453552" />
      <path
         class="cls-1"
         d="m 49.81,46.58 c 0.6,0 1.06,0.22 1.53,0.69 h 0.03 l 0.1,-0.55 h 1.06 v 5.64 H 51.44 L 51.35,51.75 H 51.3 c -0.41,0.41 -0.99,0.75 -1.6,0.75 -1.41,0 -2.32,-1.09 -2.32,-2.95 0,-1.86 1.18,-2.96 2.42,-2.96 z m 0.22,4.83 c 0.44,0 0.8,-0.2 1.18,-0.63 v -2.63 c -0.39,-0.34 -0.77,-0.47 -1.15,-0.47 -0.72,0 -1.31,0.68 -1.31,1.86 0,1.18 0.46,1.87 1.28,1.87 z"
         id="path14"
         style="fill:#004380;fill-opacity:1;stroke-width:0.453552" />
      <path
         class="cls-1"
         d="m 54.4,47.77 h -0.8 v -0.99 l 0.87,-0.06 0.16,-1.54 h 1.1 v 1.54 h 1.44 v 1.05 h -1.44 v 2.69 c 0,0.67 0.25,0.99 0.79,0.99 0.2,0 0.43,-0.06 0.59,-0.13 l 0.23,0.98 c -0.31,0.1 -0.7,0.21 -1.15,0.21 -1.31,0 -1.79,-0.83 -1.79,-2.05 z"
         id="path16"
         style="fill:#004380;fill-opacity:1;stroke-width:0.453552" />
      <path
         class="cls-1"
         d="m 58.21,44.98 c 0,-0.45 0.34,-0.76 0.82,-0.76 0.48,0 0.82,0.31 0.82,0.76 0,0.45 -0.34,0.75 -0.82,0.75 -0.48,0 -0.82,-0.31 -0.82,-0.75 z m 0.15,1.74 h 1.32 v 5.64 h -1.32 z"
         id="path18"
         style="fill:#004380;fill-opacity:1;stroke-width:0.453552" />
      <path
         class="cls-1"
         d="m 63.68,46.58 c 1.41,0 2.69,1.08 2.69,2.96 0,1.88 -1.28,2.95 -2.69,2.95 -1.41,0 -2.68,-1.08 -2.68,-2.95 0,-1.87 1.28,-2.96 2.68,-2.96 z m 0,4.84 c 0.83,0 1.33,-0.75 1.33,-1.87 0,-1.12 -0.51,-1.88 -1.33,-1.88 -0.82,0 -1.32,0.75 -1.32,1.88 0,1.13 0.49,1.87 1.32,1.87 z"
         id="path20"
         style="fill:#004380;fill-opacity:1;stroke-width:0.453552" />
      <path
         class="cls-1"
         d="m 67.67,46.72 h 1.09 l 0.09,0.76 h 0.05 c 0.51,-0.49 1.08,-0.9 1.85,-0.9 1.21,0 1.74,0.82 1.74,2.24 v 3.54 h -1.32 v -3.37 c 0,-0.93 -0.26,-1.28 -0.88,-1.28 -0.49,0 -0.82,0.24 -1.29,0.7 v 3.94 h -1.32 v -5.64 z"
         id="path22"
         style="fill:#004380;fill-opacity:1;stroke-width:0.453552" />
    </g>
    <g
       id="g42"
       style="fill:#004380;fill-opacity:1;stroke-width:0.453552">
      <path
         class="cls-1"
         d="m 26.99,71.17 c 0.54,0.51 1.26,0.85 1.96,0.85 0.84,0 1.31,-0.38 1.31,-0.97 0,-0.62 -0.48,-0.82 -1.17,-1.1 L 28.07,69.5 c -0.75,-0.31 -1.52,-0.9 -1.52,-2 0,-1.2 1.06,-2.11 2.52,-2.11 0.88,0 1.73,0.37 2.32,0.95 l -0.69,0.85 c -0.47,-0.4 -0.99,-0.64 -1.63,-0.64 -0.71,0 -1.17,0.33 -1.17,0.88 0,0.59 0.57,0.8 1.2,1.06 l 1.01,0.43 c 0.9,0.38 1.52,0.94 1.52,2.03 0,1.22 -1.01,2.23 -2.7,2.23 -1.01,0 -1.99,-0.4 -2.7,-1.1 L 27,71.17 Z"
         id="path26"
         style="fill:#004380;fill-opacity:1;stroke-width:0.453552" />
      <path
         class="cls-1"
         d="m 35.32,67.26 c 0.72,0 1.28,0.29 1.65,0.65 l -0.63,0.84 c -0.3,-0.26 -0.6,-0.41 -0.95,-0.41 -0.91,0 -1.54,0.75 -1.54,1.88 0,1.13 0.62,1.87 1.51,1.87 0.46,0 0.85,-0.23 1.16,-0.48 l 0.55,0.84 c -0.53,0.47 -1.21,0.72 -1.85,0.72 -1.54,0 -2.72,-1.08 -2.72,-2.95 0,-1.87 1.32,-2.96 2.83,-2.96 z"
         id="path28"
         style="fill:#004380;fill-opacity:1;stroke-width:0.453552" />
      <path
         class="cls-1"
         d="m 40.2,67.26 c 1.41,0 2.69,1.08 2.69,2.96 0,1.88 -1.28,2.95 -2.69,2.95 -1.41,0 -2.68,-1.08 -2.68,-2.95 0,-1.87 1.28,-2.96 2.68,-2.96 z m 0,4.84 c 0.83,0 1.33,-0.75 1.33,-1.87 0,-1.12 -0.51,-1.88 -1.33,-1.88 -0.82,0 -1.32,0.75 -1.32,1.88 0,1.13 0.49,1.87 1.32,1.87 z"
         id="path30"
         style="fill:#004380;fill-opacity:1;stroke-width:0.453552" />
      <path
         class="cls-1"
         d="m 44.4,68.44 h -0.8 v -0.99 l 0.87,-0.06 0.16,-1.54 h 1.1 v 1.54 h 1.44 v 1.05 h -1.44 v 2.69 c 0,0.67 0.25,0.99 0.79,0.99 0.2,0 0.43,-0.06 0.59,-0.13 l 0.23,0.98 c -0.31,0.1 -0.7,0.21 -1.15,0.21 -1.31,0 -1.79,-0.83 -1.79,-2.05 z"
         id="path32"
         style="fill:#004380;fill-opacity:1;stroke-width:0.453552" />
      <path
         class="cls-1"
         d="m 48.35,64.93 h 1.32 v 6.73 c 0,0.32 0.15,0.44 0.29,0.44 0.06,0 0.1,0 0.21,-0.02 l 0.17,0.99 c -0.16,0.07 -0.39,0.11 -0.7,0.11 -0.94,0 -1.29,-0.61 -1.29,-1.59 z"
         id="path34"
         style="fill:#004380;fill-opacity:1;stroke-width:0.453552" />
      <path
         class="cls-1"
         d="m 53.54,67.26 c 0.6,0 1.06,0.22 1.53,0.69 h 0.03 l 0.1,-0.55 h 1.06 v 5.64 h -1.09 l -0.09,-0.61 h -0.05 c -0.41,0.41 -0.99,0.75 -1.6,0.75 -1.41,0 -2.32,-1.09 -2.32,-2.95 0,-1.86 1.18,-2.96 2.42,-2.96 z m 0.22,4.83 c 0.44,0 0.8,-0.2 1.18,-0.63 v -2.63 c -0.39,-0.34 -0.77,-0.47 -1.15,-0.47 -0.72,0 -1.31,0.68 -1.31,1.86 0,1.18 0.46,1.87 1.28,1.87 z"
         id="path36"
         style="fill:#004380;fill-opacity:1;stroke-width:0.453552" />
      <path
         class="cls-1"
         d="m 57.95,67.4 h 1.09 l 0.09,0.76 h 0.05 c 0.51,-0.49 1.08,-0.9 1.85,-0.9 1.21,0 1.74,0.82 1.74,2.24 v 3.54 h -1.32 v -3.37 c 0,-0.93 -0.26,-1.28 -0.88,-1.28 -0.49,0 -0.82,0.24 -1.29,0.7 v 3.94 h -1.32 v -5.64 z"
         id="path38"
         style="fill:#004380;fill-opacity:1;stroke-width:0.453552" />
      <path
         class="cls-1"
         d="m 66.43,67.26 c 0.64,0 1.05,0.24 1.48,0.62 l -0.05,-0.91 v -2.05 h 1.32 v 8.11 H 68.09 L 68,72.42 h -0.05 c -0.41,0.41 -0.99,0.75 -1.6,0.75 -1.41,0 -2.32,-1.09 -2.32,-2.95 0,-1.86 1.16,-2.96 2.39,-2.96 z m 0.25,4.83 c 0.44,0 0.8,-0.2 1.18,-0.63 v -2.63 c -0.39,-0.34 -0.77,-0.47 -1.15,-0.47 -0.72,0 -1.31,0.68 -1.31,1.86 0,1.18 0.46,1.87 1.28,1.87 z"
         id="path40"
         style="fill:#004380;fill-opacity:1;stroke-width:0.453552" />
    </g>
    <g
       id="g7694"
       style="fill:#004380;fill-opacity:1;stroke-width:0.453552">
      <path
         class="cls-1"
         d="M 67.54,18.79 C 65.35,18.15 64.05,18 64.05,16.78 c 0,-0.84 0.78,-1.46 2.14,-1.46 1.61,0 4.43,1.25 4.43,1.25 l 1.44,-3.32 c 0,0 -2.54,-1.49 -5.71,-1.49 -4.25,0 -6.98,2.32 -6.98,5.37 0,2.65 1.73,3.84 5.44,4.82 2.08,0.55 3.36,0.98 3.36,2.34 0,1 -0.95,1.74 -2.16,1.74 -2.74,0 -5.68,-1.66 -5.68,-1.66 l -1.54,3.26 c 0,0 2.54,2.01 6.59,2.01 4.6,0 7.47,-2.41 7.47,-5.71 0,-2.55 -1.73,-4.11 -5.3,-5.16 z"
         id="path44"
         style="fill:#004380;fill-opacity:1;stroke-width:0.453552" />
      <path
         class="cls-1"
         d="m 27.87,12.09 c -2.07,0 -4.18,0 -4.18,0 v 17.06 h 4.34 L 28.01,19.02 c 0,0 3.39,5.86 6.4,10.13 2.93,0 3.62,0 3.62,0 V 12.1 h -4.25 v 8.89 c 0,0 -2.38,-4.15 -5.9,-8.89 z"
         id="path46"
         style="fill:#004380;fill-opacity:1;stroke-width:0.453552" />
      <path
         class="cls-1"
         d="m 51.99,29.12 v -7.35 h -6.44 v 7.35 H 41.21 V 12.1 h 4.34 v 6.47 h 6.44 V 12.1 h 4.33 v 17.02 z"
         id="path48"
         style="fill:#004380;fill-opacity:1;stroke-width:0.453552" />
    </g>
    <g
       id="g54"
       style="fill:#0096dc;fill-opacity:1;stroke-width:0.453552">
      <path
         class="cls-2"
         d="m 47.78,39.54 c -1.41,-2.53 -6.22,-6.71 -14.76,-5.34 -3.24,0.28 -4.59,0.48 -6.31,0.35 -6.8,-0.52 -7.98,-4.28 -8.05,-4.48 h -1.7 c 0,0 0.93,7.3 8.37,8.53 1.82,0.3 5.62,-0.06 8.07,-0.46 6.03,-0.99 10.64,-1.14 14.38,4.02 0,0 0.05,0.06 0.09,0.06 0.08,0 0.1,-0.06 0.1,-0.06 0,0 0.49,-0.99 -0.19,-2.63 z"
         id="path50"
         style="fill:#0096dc;fill-opacity:1;stroke-width:0.453552" />
      <path
         class="cls-2"
         d="m 76.77,30.07 c -0.06,0.2 -1.32,3.94 -8.12,4.46 -1.72,0.13 -3.07,-0.07 -6.31,-0.35 -8.47,-1.36 -12.05,2.81 -13.09,5.08 -0.68,1.52 -0.31,2.91 -0.31,2.91 0,0 0.02,0.06 0.09,0.06 0.04,0 0.09,-0.06 0.09,-0.06 3.74,-5.17 6.81,-5.03 12.83,-4.04 2.46,0.4 6.25,0.76 8.07,0.46 7.44,-1.23 8.45,-8.52 8.45,-8.52 z"
         id="path52"
         style="fill:#0096dc;fill-opacity:1;stroke-width:0.453552" />
    </g>
    <g
       id="g62"
       style="fill:#004380;fill-opacity:1;stroke-width:0.453552">
      <path
         class="cls-1"
         d="m 45.5,55.59 c -0.21,-0.09 -0.43,-0.14 -0.62,-0.14 -0.46,0 -0.71,0.3 -0.71,0.95 v 0.61 h 1.1 v 1.05 h -1.1 v 4.6 h -1.32 v -4.6 h -0.76 v -0.99 l 0.76,-0.06 v -0.59 c 0,-1.17 0.54,-2.02 1.87,-2.02 0.4,0 0.78,0.09 1.03,0.2 z"
         id="path56"
         style="fill:#004380;fill-opacity:1;stroke-width:0.453552" />
      <path
         class="cls-1"
         d="m 48.46,56.88 c 1.41,0 2.69,1.08 2.69,2.96 0,1.88 -1.28,2.95 -2.69,2.95 -1.41,0 -2.68,-1.08 -2.68,-2.95 0,-1.87 1.28,-2.96 2.68,-2.96 z m 0,4.84 c 0.83,0 1.33,-0.75 1.33,-1.87 0,-1.12 -0.51,-1.88 -1.33,-1.88 -0.82,0 -1.32,0.75 -1.32,1.88 0,1.13 0.49,1.87 1.32,1.87 z"
         id="path58"
         style="fill:#004380;fill-opacity:1;stroke-width:0.453552" />
      <path
         class="cls-1"
         d="m 52.46,57.01 h 1.09 l 0.09,1 h 0.05 c 0.4,-0.74 1,-1.14 1.6,-1.14 0.29,0 0.47,0.03 0.64,0.11 l -0.23,1.15 c -0.2,-0.06 -0.34,-0.09 -0.59,-0.09 -0.45,0 -0.99,0.31 -1.33,1.16 v 3.45 h -1.32 z"
         id="path60"
         style="fill:#004380;fill-opacity:1;stroke-width:0.453552" />
    </g>
  </g>
  <metadata
     id="metadata7911">
    <rdf:RDF>
      <cc:Work
         rdf:about="">
        <dc:title>NHS Education for Scotland logo</dc:title>
      </cc:Work>
    </rdf:RDF>
  </metadata>
</svg>
