<?xml version="1.0" encoding="UTF-8" standalone="no"?>
<!-- Created with Inkscape (http://www.inkscape.org/) -->

<svg
   width="180"
   height="130"
   viewBox="0 0 47.625001 34.395829"
   version="1.1"
   id="svg918"
   inkscape:version="1.2.2 (732a01da63, 2022-12-09)"
   sodipodi:docname="NHS Orkney.svg"
   xmlns:inkscape="http://www.inkscape.org/namespaces/inkscape"
   xmlns:sodipodi="http://sodipodi.sourceforge.net/DTD/sodipodi-0.dtd"
   xmlns="http://www.w3.org/2000/svg"
   xmlns:svg="http://www.w3.org/2000/svg"
   xmlns:rdf="http://www.w3.org/1999/02/22-rdf-syntax-ns#"
   xmlns:cc="http://creativecommons.org/ns#"
   xmlns:dc="http://purl.org/dc/elements/1.1/">
  <title
     id="title1180">NHS Orkney logo</title>
  <sodipodi:namedview
     id="namedview920"
     pagecolor="#ffffff"
     bordercolor="#000000"
     borderopacity="0.25"
     inkscape:showpageshadow="2"
     inkscape:pageopacity="0.0"
     inkscape:pagecheckerboard="0"
     inkscape:deskcolor="#d1d1d1"
     inkscape:document-units="mm"
     showgrid="false"
     inkscape:zoom="2.3725162"
     inkscape:cx="-41.517103"
     inkscape:cy="87.038394"
     inkscape:window-width="1920"
     inkscape:window-height="1002"
     inkscape:window-x="2125"
     inkscape:window-y="-8"
     inkscape:window-maximized="1"
     inkscape:current-layer="layer1" />
  <defs
     id="defs915" />
  <g
     inkscape:label="Layer 1"
     inkscape:groupmode="layer"
     id="layer1"
     transform="translate(-132.35926,-106.61434)">
    <g
       id="g3409"
       transform="matrix(0.35277777,0,0,-0.35277777,97.141456,205.81421)">
      <path
         d="m 203.001,259.917 c -3.943,1.16 -6.277,1.418 -6.277,3.609 0,1.504 1.409,2.621 3.843,2.621 2.896,0 7.976,-2.258 7.976,-2.258 l 2.584,5.98 c 0,0 -4.567,2.68 -10.267,2.68 -7.641,0 -12.557,-4.168 -12.557,-9.667 0,-4.769 3.115,-6.918 9.781,-8.679 3.749,-0.989 6.037,-1.762 6.037,-4.211 0,-1.805 -1.704,-3.137 -3.894,-3.137 -4.923,0 -10.215,2.993 -10.215,2.993 l -2.763,-5.86 c 0,0 4.571,-3.621 11.858,-3.621 8.276,0 13.436,4.34 13.436,10.269 0,4.598 -3.116,7.39 -9.542,9.281"
         style="fill:#144a87;fill-opacity:1;fill-rule:nonzero;stroke:none"
         id="path296" />
      <path
         d="m 131.616,271.965 c -3.72,-0.002 -7.52,0 -7.52,0 v -30.691 h 7.804 l -0.038,18.232 c 0,0 6.097,-10.537 11.523,-18.232 5.269,-0.011 6.505,0 6.505,0 v 30.684 h -7.655 l 0.007,-15.99 c 0,0 -4.282,7.466 -10.626,15.997"
         style="fill:#144a87;fill-opacity:1;fill-rule:nonzero;stroke:none"
         id="path298" />
      <path
         d="m 175.024,241.33 v 13.221 H 163.437 V 241.33 h -7.804 v 30.625 h 7.804 v -11.646 h 11.587 v 11.646 h 7.787 V 241.33 h -7.787"
         style="fill:#144a87;fill-opacity:1;fill-rule:nonzero;stroke:none"
         id="path300" />
      <path
         d="m 167.439,222.583 c -2.538,4.55 -11.191,12.08 -26.558,9.606 -5.835,-0.508 -8.26,-0.872 -11.354,-0.634 -12.235,0.939 -14.366,7.694 -14.482,8.062 h -3.057 c 0,0 1.682,-13.137 15.065,-15.357 3.28,-0.544 10.11,0.101 14.526,0.825 10.847,1.776 19.146,2.06 25.875,-7.243 0,0 0.088,-0.103 0.163,-0.103 0.138,0 0.172,0.103 0.172,0.103 0,0 0.875,1.781 -0.35,4.741"
         style="fill:#00a0e3;fill-opacity:1;fill-rule:nonzero;stroke:none"
         id="path302" />
      <path
         d="m 219.616,239.617 c -0.117,-0.368 -2.38,-7.093 -14.616,-8.032 -3.094,-0.237 -5.518,0.127 -11.355,0.634 -15.236,2.453 -21.686,-5.057 -23.552,-9.141 -1.225,-2.741 -0.554,-5.236 -0.554,-5.236 0,0 0.043,-0.103 0.155,-0.103 0.075,0 0.16,0.103 0.16,0.103 6.728,9.303 12.247,9.049 23.093,7.273 4.418,-0.723 11.248,-1.368 14.527,-0.825 13.384,2.22 15.198,15.327 15.198,15.327 h -3.056"
         style="fill:#00a0e3;fill-opacity:1;fill-rule:nonzero;stroke:none"
         id="path304" />
      <path
         d="m 140.614,199.561 c -3.138,0 -4.248,2.946 -4.248,5.807 0,2.754 1.259,5.38 4.248,5.38 2.989,0 4.249,-2.626 4.249,-5.38 0,-2.861 -1.11,-5.807 -4.249,-5.807 z m 0,-2.135 c 4.591,0 7.452,3.48 7.452,7.942 0,4.185 -3.16,7.515 -7.452,7.515 -4.291,0 -7.451,-3.33 -7.451,-7.515 0,-4.462 2.861,-7.942 7.451,-7.942"
         style="fill:#144a87;fill-opacity:1;fill-rule:nonzero;stroke:none"
         id="path306" />
      <path
         d="m 152.442,206.478 h 0.043 l 0.576,0.832 c 0.342,0.449 0.961,1.303 1.836,1.303 0.641,0 1.324,-0.341 1.922,-0.961 l -1.068,-1.964 c -0.469,0.235 -0.768,0.363 -1.345,0.363 -0.982,0 -1.942,-0.79 -1.942,-3.096 v -5.273 h -2.84 v 10.675 h 2.818 v -1.879"
         style="fill:#144a87;fill-opacity:1;fill-rule:nonzero;stroke:none"
         id="path308" />
      <path
         d="m 157.758,213.374 h 2.84 v -9.223 h 0.32 l 3.565,4.419 2.092,-0.897 -3.245,-3.842 4.057,-5.402 -2.733,-0.961 -4.014,5.85 h -0.042 v -5.636 h -2.84 v 15.692"
         style="fill:#144a87;fill-opacity:1;fill-rule:nonzero;stroke:none"
         id="path310" />
      <path
         d="m 171.08,207.097 c 0.961,1.025 2.306,1.516 3.651,1.516 2.498,0 3.822,-1.366 3.822,-4.057 v -6.874 h -2.84 v 6.554 c 0,1.495 -0.662,2.477 -2.135,2.477 -1.387,0 -2.476,-0.918 -2.476,-2.669 v -6.362 h -2.84 v 10.675 h 2.818 v -1.26"
         style="fill:#144a87;fill-opacity:1;fill-rule:nonzero;stroke:none"
         id="path312" />
      <path
         d="m 182.866,204.3 c -0.022,1.431 0.704,2.733 2.326,2.733 1.41,0 1.986,-1.11 1.88,-2.733 z m 6.874,-1.537 c 0.214,3.182 -1.174,5.85 -4.504,5.85 -3.054,0 -5.445,-2.092 -5.445,-5.38 0,-3.523 2.413,-5.807 5.637,-5.807 1.216,0 2.732,0.341 4.184,1.195 l -0.811,1.495 c -0.705,-0.491 -1.815,-0.854 -2.861,-0.854 -1.772,0 -3.181,1.494 -3.117,3.501 h 6.917"
         style="fill:#144a87;fill-opacity:1;fill-rule:nonzero;stroke:none"
         id="path314" />
      <path
         d="m 192.644,208.57 c 0.918,-2.455 1.857,-4.932 2.754,-7.899 h 0.043 c 0.96,2.967 1.943,5.444 2.924,7.899 l 2.413,-0.448 -5.274,-11.871 c -0.576,-1.302 -1.9,-3.907 -4.675,-3.907 h -1.196 v 1.9 h 0.748 c 1.302,0 2.348,0.555 3.479,4.1 l -4.056,9.714 2.84,0.512"
         style="fill:#144a87;fill-opacity:1;fill-rule:nonzero;stroke:none"
         id="path316" />
    </g>
  </g>
  <metadata
     id="metadata1178">
    <rdf:RDF>
      <cc:Work
         rdf:about="">
        <dc:title>NHS Orkney logo</dc:title>
      </cc:Work>
    </rdf:RDF>
  </metadata>
</svg>
