<?xml version="1.0" encoding="UTF-8" standalone="no"?>
<!-- Created with Inkscape (http://www.inkscape.org/) -->

<svg
   width="180"
   height="130"
   viewBox="0 0 47.625001 34.395829"
   version="1.1"
   id="svg918"
   inkscape:version="1.2.2 (732a01da63, 2022-12-09)"
   sodipodi:docname="NHS Shetland.svg"
   xmlns:inkscape="http://www.inkscape.org/namespaces/inkscape"
   xmlns:sodipodi="http://sodipodi.sourceforge.net/DTD/sodipodi-0.dtd"
   xmlns="http://www.w3.org/2000/svg"
   xmlns:svg="http://www.w3.org/2000/svg"
   xmlns:rdf="http://www.w3.org/1999/02/22-rdf-syntax-ns#"
   xmlns:cc="http://creativecommons.org/ns#"
   xmlns:dc="http://purl.org/dc/elements/1.1/">
  <title
     id="title1180">NHS Shetland logo</title>
  <sodipodi:namedview
     id="namedview920"
     pagecolor="#ffffff"
     bordercolor="#000000"
     borderopacity="0.25"
     inkscape:showpageshadow="2"
     inkscape:pageopacity="0.0"
     inkscape:pagecheckerboard="0"
     inkscape:deskcolor="#d1d1d1"
     inkscape:document-units="mm"
     showgrid="false"
     inkscape:zoom="1.7061396"
     inkscape:cx="-63.593859"
     inkscape:cy="47.182541"
     inkscape:window-width="1920"
     inkscape:window-height="1002"
     inkscape:window-x="2125"
     inkscape:window-y="-8"
     inkscape:window-maximized="1"
     inkscape:current-layer="layer1" />
  <defs
     id="defs915" />
  <g
     inkscape:label="Layer 1"
     inkscape:groupmode="layer"
     id="layer1"
     transform="translate(-132.35926,-106.61434)">
    <g
       id="g3908"
       transform="matrix(0.35277777,0,0,-0.35277777,97.141456,156.78445)">
      <path
         d="m 203.001,118.395 c -3.943,1.16 -6.276,1.418 -6.276,3.609 0,1.504 1.409,2.621 3.843,2.621 2.896,0 7.975,-2.258 7.975,-2.258 l 2.584,5.98 c 0,0 -4.567,2.68 -10.267,2.68 -7.641,0 -12.557,-4.168 -12.557,-9.667 0,-4.769 3.115,-6.917 9.781,-8.679 3.749,-0.989 6.037,-1.762 6.037,-4.211 0,-1.805 -1.704,-3.136 -3.894,-3.136 -4.923,0 -10.215,2.992 -10.215,2.992 l -2.763,-5.86 c 0,0 4.571,-3.62 11.858,-3.62 8.276,0 13.436,4.339 13.436,10.269 0,4.597 -3.116,7.39 -9.542,9.28"
         style="fill:#144a87;fill-opacity:1;fill-rule:nonzero;stroke:none"
         id="path334" />
      <path
         d="m 131.616,130.443 c -3.72,-0.002 -7.519,0 -7.519,0 V 99.752 h 7.803 l -0.038,18.232 c 0,0 6.097,-10.537 11.523,-18.232 5.269,-0.011 6.505,0 6.505,0 v 30.685 h -7.655 l 0.007,-15.991 c 0,0 -4.282,7.466 -10.626,15.997"
         style="fill:#144a87;fill-opacity:1;fill-rule:nonzero;stroke:none"
         id="path336" />
      <path
         d="m 175.024,99.808 v 13.221 H 163.437 V 99.808 h -7.804 v 30.625 h 7.804 v -11.646 h 11.587 v 11.646 h 7.787 V 99.808 h -7.787"
         style="fill:#144a87;fill-opacity:1;fill-rule:nonzero;stroke:none"
         id="path338" />
      <path
         d="m 167.439,81.061 c -2.538,4.55 -11.191,12.08 -26.558,9.607 -5.835,-0.508 -8.26,-0.873 -11.354,-0.635 -12.235,0.94 -14.366,7.694 -14.482,8.062 h -3.057 c 0,0 1.682,-13.137 15.065,-15.356 3.28,-0.545 10.11,0.101 14.526,0.824 10.847,1.776 19.146,2.06 25.875,-7.243 0,0 0.088,-0.102 0.163,-0.102 0.138,0 0.172,0.102 0.172,0.102 0,0 0.875,1.782 -0.35,4.741"
         style="fill:#00a0e3;fill-opacity:1;fill-rule:nonzero;stroke:none"
         id="path340" />
      <path
         d="m 219.616,98.095 c -0.116,-0.368 -2.379,-7.092 -14.615,-8.032 -3.094,-0.237 -5.518,0.127 -11.356,0.635 -15.236,2.452 -21.686,-5.058 -23.552,-9.141 -1.225,-2.742 -0.554,-5.237 -0.554,-5.237 0,0 0.043,-0.102 0.156,-0.102 0.074,0 0.159,0.102 0.159,0.102 6.729,9.303 12.247,9.05 23.093,7.273 4.418,-0.722 11.249,-1.368 14.528,-0.824 13.384,2.22 15.197,15.326 15.197,15.326 h -3.056"
         style="fill:#00a0e3;fill-opacity:1;fill-rule:nonzero;stroke:none"
         id="path342" />
      <path
         d="m 132.791,68.499 c -0.662,0.448 -1.537,0.853 -2.412,0.853 -1.26,0 -1.943,-0.704 -1.943,-1.579 0,-0.983 1.046,-1.73 2.797,-3.118 2.006,-1.6 3.074,-2.86 3.074,-4.696 0,-1.879 -1.793,-4.057 -5.167,-4.057 -1.558,0 -3.288,0.47 -4.398,1.494 l 1.089,1.709 c 0.79,-0.577 1.708,-1.196 3.053,-1.196 1.238,0 2.327,0.662 2.327,2.071 0,1.644 -2.007,2.733 -3.202,3.672 -1.452,1.174 -2.669,2.092 -2.669,4.078 0,2.007 2.028,3.629 4.74,3.629 1.708,0 3.074,-0.619 3.779,-1.302 l -1.068,-1.558"
         style="fill:#144a87;fill-opacity:1;fill-rule:nonzero;stroke:none"
         id="path344" />
      <path
         d="m 138.662,65.574 c 0.961,1.024 2.306,1.515 3.651,1.515 2.498,0 3.822,-1.366 3.822,-4.056 v -6.875 h -2.84 v 6.555 c 0,1.494 -0.662,2.476 -2.135,2.476 -1.387,0 -2.476,-0.918 -2.476,-2.668 v -6.363 h -2.84 V 71.85 h 2.818 v -6.276"
         style="fill:#144a87;fill-opacity:1;fill-rule:nonzero;stroke:none"
         id="path346" />
      <path
         d="m 150.448,62.777 c -0.022,1.43 0.704,2.732 2.327,2.732 1.409,0 1.985,-1.11 1.878,-2.732 z m 6.874,-1.537 c 0.214,3.181 -1.174,5.849 -4.505,5.849 -3.053,0 -5.444,-2.092 -5.444,-5.38 0,-3.522 2.413,-5.807 5.636,-5.807 1.217,0 2.733,0.342 4.185,1.196 l -0.811,1.494 c -0.705,-0.491 -1.815,-0.854 -2.861,-0.854 -1.772,0 -3.181,1.495 -3.117,3.502 h 6.917"
         style="fill:#144a87;fill-opacity:1;fill-rule:nonzero;stroke:none"
         id="path348" />
      <path
         d="m 162.361,66.833 h 2.797 v -1.452 h -2.797 v -5.252 c 0,-1.75 0.533,-2.497 1.473,-2.497 0.619,0 0.982,0.17 1.366,0.363 l 0.492,-1.41 c -0.833,-0.448 -1.858,-0.683 -2.798,-0.683 -2.348,0 -3.373,1.238 -3.373,3.416 v 6.063 h -1.494 v 1.452 h 1.494 v 2.563 l 2.84,0.64 v -3.203"
         style="fill:#144a87;fill-opacity:1;fill-rule:nonzero;stroke:none"
         id="path350" />
      <path
         d="m 167.314,71.85 h 2.84 V 56.158 h -2.84 z"
         style="fill:#144a87;fill-opacity:1;fill-rule:nonzero;stroke:none"
         id="path352" />
      <path
         d="m 178.138,62.35 c 0.214,-3.139 -1.259,-4.548 -2.391,-4.548 -0.683,0 -1.281,0.641 -1.281,1.58 0,1.217 0.704,2.028 2.092,2.455 z m -0.042,-4.633 c 0,-0.577 0.064,-1.196 0.277,-1.559 h 3.011 c -0.342,0.748 -0.449,1.751 -0.449,2.605 v 4.355 c 0,3.331 -2.412,3.971 -4.377,3.971 -1.473,0 -2.775,-0.362 -4.099,-1.451 l 0.918,-1.345 c 0.748,0.64 1.601,1.088 2.818,1.088 0.918,0 1.794,-0.619 1.943,-1.6 l -2.519,-0.748 c -2.477,-0.704 -3.95,-1.858 -3.95,-3.886 0,-1.964 1.388,-3.245 3.053,-3.245 0.982,0 1.943,0.662 2.733,1.281 l 0.641,0.534"
         style="fill:#144a87;fill-opacity:1;fill-rule:nonzero;stroke:none"
         id="path354" />
      <path
         d="m 185.867,65.574 c 0.961,1.024 2.305,1.515 3.651,1.515 2.498,0 3.821,-1.366 3.821,-4.056 V 56.158 H 190.5 v 6.555 c 0,1.494 -0.662,2.476 -2.136,2.476 -1.387,0 -2.476,-0.918 -2.476,-2.668 v -6.363 h -2.839 v 10.675 h 2.818 v -1.259"
         style="fill:#144a87;fill-opacity:1;fill-rule:nonzero;stroke:none"
         id="path356" />
      <path
         d="m 200.385,65.381 c 1.707,0 2.583,-1.729 2.583,-3.586 0,-2.135 -0.811,-4.185 -2.711,-4.185 -1.644,0 -2.456,2.007 -2.456,4.078 0,2.071 0.748,3.693 2.584,3.693 z m 2.583,-9.223 h 2.84 V 71.85 h -2.84 v -6.255 h -0.042 c -0.641,0.939 -1.88,1.494 -3.267,1.494 -2.861,0 -4.868,-2.69 -4.868,-5.465 0,-3.416 1.857,-5.722 4.655,-5.722 1.665,0 2.775,0.897 3.48,1.793 h 0.042 v -1.537"
         style="fill:#144a87;fill-opacity:1;fill-rule:nonzero;stroke:none"
         id="path358" />
    </g>
  </g>
  <metadata
     id="metadata1178">
    <rdf:RDF>
      <cc:Work
         rdf:about="">
        <dc:title>NHS Shetland logo</dc:title>
      </cc:Work>
    </rdf:RDF>
  </metadata>
</svg>
