<?xml version="1.0" encoding="UTF-8" standalone="no"?>
<!-- Created with Inkscape (http://www.inkscape.org/) -->

<svg
   width="180"
   height="130"
   viewBox="0 0 47.625001 34.395829"
   version="1.1"
   id="svg918"
   inkscape:version="1.2.2 (732a01da63, 2022-12-09)"
   sodipodi:docname="NHS Scotland.svg"
   xmlns:inkscape="http://www.inkscape.org/namespaces/inkscape"
   xmlns:sodipodi="http://sodipodi.sourceforge.net/DTD/sodipodi-0.dtd"
   xmlns="http://www.w3.org/2000/svg"
   xmlns:svg="http://www.w3.org/2000/svg"
   xmlns:rdf="http://www.w3.org/1999/02/22-rdf-syntax-ns#"
   xmlns:cc="http://creativecommons.org/ns#"
   xmlns:dc="http://purl.org/dc/elements/1.1/">
  <title
     id="title1180">NHS Scotland logo</title>
  <sodipodi:namedview
     id="namedview920"
     pagecolor="#ffffff"
     bordercolor="#000000"
     borderopacity="0.25"
     inkscape:showpageshadow="2"
     inkscape:pageopacity="0.0"
     inkscape:pagecheckerboard="0"
     inkscape:deskcolor="#d1d1d1"
     inkscape:document-units="mm"
     showgrid="false"
     inkscape:zoom="1.2555347"
     inkscape:cx="-194.73775"
     inkscape:cy="21.903019"
     inkscape:window-width="1920"
     inkscape:window-height="1002"
     inkscape:window-x="2125"
     inkscape:window-y="-8"
     inkscape:window-maximized="1"
     inkscape:current-layer="layer1" />
  <defs
     id="defs915" />
  <g
     inkscape:label="Layer 1"
     inkscape:groupmode="layer"
     id="layer1"
     transform="translate(-132.35926,-106.61434)">
    <g
       id="g2470"
       transform="matrix(0.35277777,0,0,-0.35277777,97.152039,357.20615)">
      <path
         d="m 202.97,685.317 c -3.943,1.159 -6.276,1.417 -6.276,3.609 0,1.503 1.409,2.621 3.843,2.621 2.896,0 7.975,-2.258 7.975,-2.258 l 2.584,5.979 c 0,0 -4.566,2.68 -10.267,2.68 -7.64,0 -12.557,-4.167 -12.557,-9.667 0,-4.769 3.115,-6.917 9.782,-8.679 3.749,-0.988 6.037,-1.761 6.037,-4.211 0,-1.805 -1.705,-3.136 -3.895,-3.136 -4.923,0 -10.214,2.992 -10.214,2.992 l -2.763,-5.86 c 0,0 4.57,-3.62 11.857,-3.62 8.276,0 13.436,4.339 13.436,10.269 0,4.597 -3.115,7.39 -9.542,9.281"
         style="fill:#144a87;fill-opacity:1;fill-rule:nonzero;stroke:none"
         id="path424" />
      <path
         d="m 131.585,697.365 c -3.719,-0.003 -7.519,0 -7.519,0 v -30.692 h 7.804 l -0.039,18.232 c 0,0 6.098,-10.536 11.523,-18.232 5.269,-0.011 6.506,0 6.506,0 v 30.685 h -7.656 l 0.007,-15.99 c 0,0 -4.282,7.465 -10.626,15.997"
         style="fill:#144a87;fill-opacity:1;fill-rule:nonzero;stroke:none"
         id="path426" />
      <path
         d="m 174.993,666.73 v 13.22 h -11.587 v -13.22 h -7.803 v 30.624 h 7.803 v -11.645 h 11.587 v 11.645 h 7.787 V 666.73 h -7.787"
         style="fill:#144a87;fill-opacity:1;fill-rule:nonzero;stroke:none"
         id="path428" />
      <path
         d="m 129.348,635.637 c -0.546,0.37 -1.27,0.706 -1.995,0.706 -1.042,0 -1.608,-0.583 -1.608,-1.306 0,-0.811 0.866,-1.429 2.316,-2.575 1.658,-1.323 2.54,-2.363 2.54,-3.88 0,-1.553 -1.482,-3.352 -4.273,-3.352 -1.289,0 -2.718,0.388 -3.635,1.235 l 0.9,1.411 c 0.652,-0.476 1.411,-0.987 2.523,-0.987 1.025,0 1.927,0.546 1.927,1.711 0,1.357 -1.662,2.257 -2.651,3.033 -1.2,0.97 -2.205,1.728 -2.205,3.369 0,1.658 1.676,2.999 3.919,2.999 1.413,0 2.542,-0.512 3.125,-1.076 l -0.883,-1.288"
         style="fill:#144a87;fill-opacity:1;fill-rule:nonzero;stroke:none"
         id="path430" />
      <path
         d="m 141.699,635.546 c -0.6,0.317 -1.606,0.687 -2.558,0.687 -2.54,0 -4.375,-1.78 -4.375,-4.583 0,-2.925 2.028,-4.652 4.445,-4.652 0.953,0 1.835,0.264 2.488,0.617 l 0.688,-1.537 c -0.759,-0.441 -2.082,-0.848 -3.282,-0.848 -4.286,0 -6.985,2.825 -6.985,6.456 0,3.366 2.681,6.315 7.021,6.315 1.287,0 2.487,-0.46 3.334,-0.955 l -0.776,-1.5"
         style="fill:#144a87;fill-opacity:1;fill-rule:nonzero;stroke:none"
         id="path432" />
      <path
         d="m 149.468,626.998 c -2.593,0 -3.511,2.432 -3.511,4.794 0,2.274 1.041,4.441 3.511,4.441 2.471,0 3.512,-2.167 3.512,-4.441 0,-2.362 -0.918,-4.794 -3.512,-4.794 z m 0,-1.768 c 3.794,0 6.158,2.878 6.158,6.562 0,3.454 -2.611,6.209 -6.158,6.209 -3.546,0 -6.157,-2.755 -6.157,-6.209 0,-3.684 2.364,-6.562 6.157,-6.562"
         style="fill:#144a87;fill-opacity:1;fill-rule:nonzero;stroke:none"
         id="path434" />
      <path
         d="m 159.791,625.447 v 10.677 h -3.81 v 1.658 h 10.11 v -1.658 h -3.81 v -10.677 h -2.49"
         style="fill:#144a87;fill-opacity:1;fill-rule:nonzero;stroke:none"
         id="path436" />
      <path
         d="m 167.528,637.784 h 2.489 v -10.677 h 4.904 v -1.658 h -7.393 v 12.335"
         style="fill:#144a87;fill-opacity:1;fill-rule:nonzero;stroke:none"
         id="path438" />
      <path
         d="m 179.716,630.325 c 0.582,1.622 1.164,3.121 1.675,5.026 h 0.036 c 0.581,-1.905 1.11,-3.404 1.64,-5.026 z m 0.953,7.459 -5.026,-12.337 h 2.152 l 1.269,3.369 h 4.372 l 1.147,-3.369 h 2.785 l -4.636,12.337 h -2.063"
         style="fill:#144a87;fill-opacity:1;fill-rule:nonzero;stroke:none"
         id="path440" />
      <path
         d="m 199.563,625.447 h -1.797 c -2.363,2.837 -4.725,5.657 -7.051,8.848 h -0.035 v -8.848 h -1.991 v 12.337 h 1.815 c 2.362,-2.82 4.705,-5.622 7.033,-8.795 h 0.035 v 8.795 h 1.991 v -12.337"
         style="fill:#144a87;fill-opacity:1;fill-rule:nonzero;stroke:none"
         id="path442" />
      <path
         d="m 204.206,636.124 h 1.798 c 2.608,0 4.089,-1.585 4.089,-4.139 0,-3.434 -1.534,-4.878 -4.371,-4.878 h -1.516 z m -2.489,1.658 v -12.333 h 4.04 c 4.371,0 6.982,2.451 6.982,6.519 0,2.976 -1.729,5.814 -6.753,5.814 h -4.269"
         style="fill:#144a87;fill-opacity:1;fill-rule:nonzero;stroke:none"
         id="path444" />
      <path
         d="m 167.408,647.982 c -2.537,4.55 -11.19,12.08 -26.557,9.607 -5.836,-0.508 -8.26,-0.873 -11.355,-0.635 -12.235,0.94 -14.366,7.694 -14.482,8.062 h -3.056 c 0,0 1.681,-13.137 15.065,-15.356 3.279,-0.544 10.11,0.101 14.526,0.824 10.846,1.776 19.146,2.06 25.875,-7.243 0,0 0.087,-0.102 0.162,-0.102 0.139,0 0.172,0.102 0.172,0.102 0,0 0.875,1.782 -0.35,4.741"
         style="fill:#00a0e3;fill-opacity:1;fill-rule:nonzero;stroke:none"
         id="path446" />
      <path
         d="m 219.585,665.016 c -0.116,-0.368 -2.379,-7.092 -14.615,-8.032 -3.094,-0.237 -5.518,0.128 -11.356,0.635 -15.236,2.453 -21.685,-5.057 -23.551,-9.141 -1.225,-2.741 -0.555,-5.237 -0.555,-5.237 0,0 0.043,-0.102 0.156,-0.102 0.075,0 0.159,0.102 0.159,0.102 6.729,9.303 12.248,9.05 23.093,7.273 4.418,-0.722 11.249,-1.368 14.528,-0.824 13.384,2.22 15.198,15.326 15.198,15.326 h -3.057"
         style="fill:#00a0e3;fill-opacity:1;fill-rule:nonzero;stroke:none"
         id="path448" />
    </g>
  </g>
  <metadata
     id="metadata1178">
    <rdf:RDF>
      <cc:Work
         rdf:about="">
        <dc:title>NHS Scotland logo</dc:title>
      </cc:Work>
    </rdf:RDF>
  </metadata>
</svg>
