<?xml version="1.0" encoding="UTF-8" standalone="no"?>
<!-- Created with Inkscape (http://www.inkscape.org/) -->

<svg
   width="180"
   height="180"
   viewBox="0 0 47.625001 47.624994"
   version="1.1"
   id="svg918"
   inkscape:version="1.2.2 (732a01da63, 2022-12-09)"
   sodipodi:docname="NHS Western Isles.svg"
   xmlns:inkscape="http://www.inkscape.org/namespaces/inkscape"
   xmlns:sodipodi="http://sodipodi.sourceforge.net/DTD/sodipodi-0.dtd"
   xmlns="http://www.w3.org/2000/svg"
   xmlns:svg="http://www.w3.org/2000/svg"
   xmlns:rdf="http://www.w3.org/1999/02/22-rdf-syntax-ns#"
   xmlns:cc="http://creativecommons.org/ns#"
   xmlns:dc="http://purl.org/dc/elements/1.1/">
  <title
     id="title1180">NHS Western Isles logo</title>
  <sodipodi:namedview
     id="namedview920"
     pagecolor="#ffffff"
     bordercolor="#000000"
     borderopacity="0.25"
     inkscape:showpageshadow="2"
     inkscape:pageopacity="0.0"
     inkscape:pagecheckerboard="0"
     inkscape:deskcolor="#d1d1d1"
     inkscape:document-units="mm"
     showgrid="false"
     inkscape:zoom="1.3180143"
     inkscape:cx="-60.318012"
     inkscape:cy="-46.661103"
     inkscape:window-width="1920"
     inkscape:window-height="1002"
     inkscape:window-x="2125"
     inkscape:window-y="-8"
     inkscape:window-maximized="1"
     inkscape:current-layer="layer1" />
  <defs
     id="defs915" />
  <g
     inkscape:label="Layer 1"
     inkscape:groupmode="layer"
     id="layer1"
     transform="translate(-132.35926,-106.61434)">
    <g
       id="g6593"
       transform="matrix(0.35277777,0,0,-0.35277777,99.014353,209.84047)">
      <path
         d="m 112.351,212.182 h -5.1 v -4.166 h 4.991 v -2.04 h -4.991 v -4.904 h 6.033 v -2.04 h -9.093 v 15.19 h 8.16 v -2.04"
         style="fill:#144a87;fill-opacity:1;fill-rule:nonzero;stroke:none"
         id="path4468" />
      <path
         d="m 114.933,209.882 h 2.886 v -10.85 h -2.886 z m -0.282,3.255 c 0,0.824 0.694,1.671 1.671,1.671 0.998,0 1.779,-0.825 1.779,-1.671 0,-0.933 -0.673,-1.823 -1.736,-1.823 -1.02,0 -1.714,0.89 -1.714,1.823"
         style="fill:#144a87;fill-opacity:1;fill-rule:nonzero;stroke:none"
         id="path4470" />
      <path
         d="m 120.076,214.981 h 2.886 v -15.95 h -2.886 z"
         style="fill:#144a87;fill-opacity:1;fill-rule:nonzero;stroke:none"
         id="path4472" />
      <path
         d="m 127.736,205.759 c -0.022,1.454 0.716,2.777 2.365,2.777 1.432,0 2.018,-1.128 1.91,-2.777 z m 6.987,-1.563 c 0.217,3.234 -1.193,5.946 -4.579,5.946 -3.103,0 -5.533,-2.126 -5.533,-5.468 0,-3.581 2.452,-5.903 5.729,-5.903 1.236,0 2.777,0.348 4.253,1.216 l -0.825,1.519 c -0.716,-0.499 -1.844,-0.868 -2.908,-0.868 -1.801,0 -3.233,1.519 -3.168,3.558 h 7.031"
         style="fill:#144a87;fill-opacity:1;fill-rule:nonzero;stroke:none"
         id="path4474" />
      <path
         d="m 142.426,205.325 c 0.217,-3.19 -1.28,-4.622 -2.43,-4.622 -0.694,0 -1.302,0.651 -1.302,1.605 0,1.237 0.716,2.062 2.127,2.496 z m -0.043,-4.709 c 0,-0.586 0.065,-1.215 0.282,-1.584 h 3.06 c -0.347,0.759 -0.456,1.779 -0.456,2.647 v 4.427 c 0,3.385 -2.452,4.036 -4.448,4.036 -1.498,0 -2.821,-0.369 -4.167,-1.475 l 0.933,-1.368 c 0.76,0.651 1.628,1.107 2.865,1.107 0.933,0 1.823,-0.629 1.974,-1.627 l -2.56,-0.76 c -2.517,-0.716 -4.015,-1.888 -4.015,-3.949 0,-1.997 1.411,-3.299 3.103,-3.299 0.999,0 1.975,0.673 2.778,1.302 l 0.651,0.543"
         style="fill:#144a87;fill-opacity:1;fill-rule:nonzero;stroke:none"
         id="path4476" />
      <path
         d="m 150.151,208.602 c 0.977,1.041 2.344,1.54 3.711,1.54 2.539,0 3.885,-1.389 3.885,-4.123 v -6.987 h -2.887 v 6.662 c 0,1.519 -0.672,2.517 -2.17,2.517 -1.41,0 -2.517,-0.933 -2.517,-2.713 v -6.466 h -2.886 v 10.85 h 2.864 v -1.28"
         style="fill:#144a87;fill-opacity:1;fill-rule:nonzero;stroke:none"
         id="path4478" />
      <path
         d="m 165.732,205.325 c 0.217,-3.19 -1.28,-4.622 -2.43,-4.622 -0.695,0 -1.302,0.651 -1.302,1.605 0,1.237 0.716,2.062 2.126,2.496 z m -0.043,-4.709 c 0,-0.586 0.065,-1.215 0.282,-1.584 h 3.059 c -0.347,0.759 -0.455,1.779 -0.455,2.647 v 4.427 c 0,3.385 -2.452,4.036 -4.449,4.036 -1.497,0 -2.821,-0.369 -4.166,-1.475 l 0.933,-1.368 c 0.759,0.651 1.627,1.107 2.864,1.107 0.933,0 1.823,-0.629 1.975,-1.627 l -2.561,-0.76 c -2.517,-0.716 -4.014,-1.888 -4.014,-3.949 0,-1.997 1.41,-3.299 3.103,-3.299 0.998,0 1.975,0.673 2.778,1.302 l 0.651,0.543"
         style="fill:#144a87;fill-opacity:1;fill-rule:nonzero;stroke:none"
         id="path4480" />
      <path
         d="m 173.587,208.602 c 0.977,1.041 2.344,1.54 3.711,1.54 2.539,0 3.884,-1.389 3.884,-4.123 v -6.987 h -2.886 v 6.662 c 0,1.519 -0.672,2.517 -2.17,2.517 -1.41,0 -2.517,-0.933 -2.517,-2.713 v -6.466 h -2.886 v 10.85 h 2.864 v -1.28"
         style="fill:#144a87;fill-opacity:1;fill-rule:nonzero;stroke:none"
         id="path4482" />
      <path
         d="m 195.808,211.574 c -0.673,0.456 -1.563,0.869 -2.452,0.869 -1.281,0 -1.975,-0.717 -1.975,-1.606 0,-0.999 1.063,-1.758 2.843,-3.169 2.039,-1.627 3.124,-2.907 3.124,-4.774 0,-1.909 -1.822,-4.123 -5.251,-4.123 -1.584,0 -3.342,0.478 -4.47,1.519 l 1.106,1.736 c 0.803,-0.586 1.736,-1.215 3.104,-1.215 1.258,0 2.365,0.673 2.365,2.105 0,1.671 -2.04,2.778 -3.255,3.733 -1.476,1.193 -2.713,2.126 -2.713,4.144 0,2.04 2.062,3.689 4.818,3.689 1.736,0 3.125,-0.629 3.841,-1.323 l -1.085,-1.585"
         style="fill:#144a87;fill-opacity:1;fill-rule:nonzero;stroke:none"
         id="path4484" />
      <path
         d="m 199.084,209.882 h 2.886 v -10.85 h -2.886 z m -0.282,3.255 c 0,0.824 0.695,1.671 1.671,1.671 0.998,0 1.78,-0.825 1.78,-1.671 0,-0.933 -0.673,-1.823 -1.736,-1.823 -1.02,0 -1.715,0.89 -1.715,1.823"
         style="fill:#144a87;fill-opacity:1;fill-rule:nonzero;stroke:none"
         id="path4486" />
      <path
         d="m 210.303,205.325 c 0.217,-3.19 -1.28,-4.622 -2.43,-4.622 -0.694,0 -1.302,0.651 -1.302,1.605 0,1.237 0.716,2.062 2.126,2.496 z m -0.043,-4.709 c 0,-0.586 0.065,-1.215 0.282,-1.584 h 3.06 c -0.348,0.759 -0.456,1.779 -0.456,2.647 v 4.427 c 0,3.385 -2.452,4.036 -4.449,4.036 -1.497,0 -2.821,-0.369 -4.166,-1.475 l 0.933,-1.368 c 0.76,0.651 1.628,1.107 2.865,1.107 0.933,0 1.822,-0.629 1.974,-1.627 l -2.56,-0.76 c -2.517,-0.716 -4.015,-1.888 -4.015,-3.949 0,-1.997 1.411,-3.299 3.103,-3.299 0.998,0 1.975,0.673 2.778,1.302 l 0.651,0.543"
         style="fill:#144a87;fill-opacity:1;fill-rule:nonzero;stroke:none"
         id="path4488" />
      <path
         d="m 218.028,207.972 h 0.044 l 0.586,0.846 c 0.347,0.456 0.976,1.324 1.866,1.324 0.651,0 1.345,-0.347 1.953,-0.976 l -1.085,-1.997 c -0.477,0.239 -0.781,0.369 -1.367,0.369 -0.998,0 -1.975,-0.803 -1.975,-3.146 v -5.36 h -2.886 v 10.85 h 2.864 v -1.91"
         style="fill:#144a87;fill-opacity:1;fill-rule:nonzero;stroke:none"
         id="path4490" />
      <path
         d="m 113.143,191.822 c 1.215,-3.906 2.452,-7.79 3.645,-12.217 h 0.044 c 1.02,4.492 2.061,8.463 3.103,12.434 l 2.495,-0.434 -4.274,-14.973 h -3.125 c -1.129,3.602 -2.257,7.226 -3.364,11.349 h -0.043 c -1.085,-4.123 -2.17,-7.747 -3.277,-11.349 h -3.146 l -4.232,14.973 3.016,0.434 c 1.02,-3.971 2.018,-7.942 3.017,-12.434 h 0.043 c 1.194,4.427 2.409,8.311 3.624,12.217 h 2.474"
         style="fill:#144a87;fill-opacity:1;fill-rule:nonzero;stroke:none"
         id="path4492" />
      <path
         d="m 124.817,183.359 c -0.021,1.454 0.716,2.777 2.366,2.777 1.432,0 2.018,-1.128 1.909,-2.777 z m 6.988,-1.563 c 0.217,3.234 -1.194,5.946 -4.579,5.946 -3.103,0 -5.534,-2.126 -5.534,-5.468 0,-3.581 2.452,-5.903 5.729,-5.903 1.237,0 2.778,0.348 4.253,1.216 l -0.824,1.519 c -0.716,-0.499 -1.845,-0.868 -2.908,-0.868 -1.801,0 -3.233,1.519 -3.168,3.558 h 7.031"
         style="fill:#144a87;fill-opacity:1;fill-rule:nonzero;stroke:none"
         id="path4494" />
      <path
         d="m 139.313,185.442 c -0.651,0.477 -1.324,0.694 -1.845,0.694 -0.651,0 -1.302,-0.368 -1.302,-1.106 0,-0.868 1.042,-1.367 2.257,-2.257 1.541,-1.15 1.996,-2.279 1.996,-3.277 0,-1.519 -1.67,-3.125 -4.058,-3.125 -1.497,0 -2.603,0.521 -3.623,1.237 l 0.911,1.498 c 0.651,-0.521 1.584,-1.042 2.365,-1.042 0.825,0 1.563,0.434 1.563,1.345 0,1.02 -1.129,1.584 -2.17,2.322 -1.237,0.847 -2.083,1.671 -2.083,3.017 0,1.714 1.649,2.994 3.775,2.994 1.194,0 2.366,-0.304 3.147,-0.998 l -0.933,-1.302"
         style="fill:#144a87;fill-opacity:1;fill-rule:nonzero;stroke:none"
         id="path4496" />
      <path
         d="m 145.519,187.482 h 2.843 v -1.476 h -2.843 v -5.338 c 0,-1.779 0.542,-2.539 1.497,-2.539 0.629,0 0.998,0.174 1.389,0.369 l 0.499,-1.432 c -0.846,-0.456 -1.888,-0.695 -2.843,-0.695 -2.387,0 -3.428,1.259 -3.428,3.472 v 6.163 h -1.519 v 1.476 h 1.519 v 2.604 l 2.886,0.651 v -3.255"
         style="fill:#144a87;fill-opacity:1;fill-rule:nonzero;stroke:none"
         id="path4498" />
      <path
         d="m 152.159,183.359 c -0.022,1.454 0.716,2.777 2.365,2.777 1.432,0 2.018,-1.128 1.91,-2.777 z m 6.987,-1.563 c 0.217,3.234 -1.193,5.946 -4.578,5.946 -3.104,0 -5.534,-2.126 -5.534,-5.468 0,-3.581 2.452,-5.903 5.729,-5.903 1.237,0 2.778,0.348 4.253,1.216 l -0.824,1.519 c -0.717,-0.499 -1.845,-0.868 -2.908,-0.868 -1.801,0 -3.234,1.519 -3.169,3.558 h 7.031"
         style="fill:#144a87;fill-opacity:1;fill-rule:nonzero;stroke:none"
         id="path4500" />
      <path
         d="m 163.378,185.572 h 0.043 l 0.586,0.846 c 0.347,0.456 0.977,1.324 1.866,1.324 0.651,0 1.346,-0.347 1.953,-0.976 l -1.085,-1.997 c -0.477,0.239 -0.781,0.369 -1.367,0.369 -0.998,0 -1.975,-0.803 -1.975,-3.146 v -5.36 h -2.886 v 10.85 h 2.865 v -1.91"
         style="fill:#144a87;fill-opacity:1;fill-rule:nonzero;stroke:none"
         id="path4502" />
      <path
         d="m 171.385,186.202 c 0.976,1.041 2.343,1.54 3.71,1.54 2.539,0 3.885,-1.389 3.885,-4.123 v -6.987 h -2.886 v 6.662 c 0,1.519 -0.673,2.517 -2.17,2.517 -1.411,0 -2.518,-0.933 -2.518,-2.713 v -6.466 h -2.886 v 10.85 h 2.865 v -1.28"
         style="fill:#144a87;fill-opacity:1;fill-rule:nonzero;stroke:none"
         id="path4504" />
      <path
         d="m 186.488,191.822 h 3.06 v -15.19 h -3.06 z"
         style="fill:#144a87;fill-opacity:1;fill-rule:nonzero;stroke:none"
         id="path4506" />
      <path
         d="m 197.316,185.442 c -0.651,0.477 -1.324,0.694 -1.845,0.694 -0.651,0 -1.302,-0.368 -1.302,-1.106 0,-0.868 1.042,-1.367 2.257,-2.257 1.541,-1.15 1.996,-2.279 1.996,-3.277 0,-1.519 -1.67,-3.125 -4.058,-3.125 -1.497,0 -2.604,0.521 -3.623,1.237 l 0.911,1.498 c 0.651,-0.521 1.584,-1.042 2.365,-1.042 0.825,0 1.563,0.434 1.563,1.345 0,1.02 -1.129,1.584 -2.17,2.322 -1.237,0.847 -2.083,1.671 -2.083,3.017 0,1.714 1.649,2.994 3.775,2.994 1.194,0 2.366,-0.304 3.147,-0.998 l -0.933,-1.302"
         style="fill:#144a87;fill-opacity:1;fill-rule:nonzero;stroke:none"
         id="path4508" />
      <path
         d="m 200.115,192.581 h 2.886 v -15.95 h -2.886 z"
         style="fill:#144a87;fill-opacity:1;fill-rule:nonzero;stroke:none"
         id="path4510" />
      <path
         d="m 207.645,183.359 c -0.022,1.454 0.716,2.777 2.365,2.777 1.432,0 2.018,-1.128 1.91,-2.777 z m 6.987,-1.563 c 0.217,3.234 -1.193,5.946 -4.579,5.946 -3.103,0 -5.533,-2.126 -5.533,-5.468 0,-3.581 2.452,-5.903 5.729,-5.903 1.237,0 2.777,0.348 4.253,1.216 l -0.825,1.519 c -0.716,-0.499 -1.844,-0.868 -2.907,-0.868 -1.802,0 -3.234,1.519 -3.169,3.558 h 7.031"
         style="fill:#144a87;fill-opacity:1;fill-rule:nonzero;stroke:none"
         id="path4512" />
      <path
         d="m 221.967,185.442 c -0.651,0.477 -1.324,0.694 -1.845,0.694 -0.651,0 -1.302,-0.368 -1.302,-1.106 0,-0.868 1.042,-1.367 2.257,-2.257 1.541,-1.15 1.996,-2.279 1.996,-3.277 0,-1.519 -1.671,-3.125 -4.058,-3.125 -1.497,0 -2.604,0.521 -3.623,1.237 l 0.911,1.498 c 0.651,-0.521 1.584,-1.042 2.365,-1.042 0.825,0 1.563,0.434 1.563,1.345 0,1.02 -1.129,1.584 -2.17,2.322 -1.237,0.847 -2.084,1.671 -2.084,3.017 0,1.714 1.65,2.994 3.776,2.994 1.194,0 2.365,-0.304 3.147,-0.998 l -0.933,-1.302"
         style="fill:#144a87;fill-opacity:1;fill-rule:nonzero;stroke:none"
         id="path4514" />
      <path
         d="m 197.623,261.216 c -3.943,1.159 -6.276,1.418 -6.276,3.609 0,1.503 1.408,2.621 3.843,2.621 2.895,0 7.975,-2.258 7.975,-2.258 l 2.584,5.979 c 0,0 -4.566,2.681 -10.267,2.681 -7.64,0 -12.557,-4.168 -12.557,-9.668 0,-4.769 3.115,-6.917 9.782,-8.679 3.749,-0.988 6.037,-1.761 6.037,-4.211 0,-1.804 -1.705,-3.136 -3.895,-3.136 -4.922,0 -10.214,2.992 -10.214,2.992 l -2.763,-5.86 c 0,0 4.57,-3.62 11.857,-3.62 8.276,0 13.436,4.339 13.436,10.269 0,4.597 -3.115,7.39 -9.542,9.281"
         style="fill:#144a87;fill-opacity:1;fill-rule:nonzero;stroke:none"
         id="path4516" />
      <path
         d="m 126.238,273.264 c -3.719,-0.003 -7.519,0 -7.519,0 v -30.692 h 7.804 l -0.039,18.233 c 0,0 6.097,-10.537 11.523,-18.233 5.269,-0.01 6.506,0 6.506,0 v 30.685 h -7.656 l 0.007,-15.99 c 0,0 -4.282,7.466 -10.626,15.997"
         style="fill:#144a87;fill-opacity:1;fill-rule:nonzero;stroke:none"
         id="path4518" />
      <path
         d="m 169.647,242.629 v 13.221 h -11.588 v -13.221 h -7.803 v 30.624 h 7.803 v -11.645 h 11.588 v 11.645 h 7.786 v -30.624 h -7.786"
         style="fill:#144a87;fill-opacity:1;fill-rule:nonzero;stroke:none"
         id="path4520" />
      <path
         d="m 162.061,223.881 c -2.537,4.55 -11.19,12.08 -26.557,9.607 -5.836,-0.508 -8.26,-0.872 -11.355,-0.635 -12.235,0.94 -14.366,7.694 -14.482,8.062 h -3.056 c 0,0 1.681,-13.137 15.065,-15.356 3.279,-0.544 10.11,0.101 14.526,0.824 10.846,1.776 19.146,2.061 25.874,-7.242 0,0 0.088,-0.103 0.163,-0.103 0.139,0 0.172,0.103 0.172,0.103 0,0 0.875,1.781 -0.35,4.74"
         style="fill:#00a0e3;fill-opacity:1;fill-rule:nonzero;stroke:none"
         id="path4522" />
      <path
         d="m 214.238,240.915 c -0.116,-0.368 -2.38,-7.092 -14.615,-8.031 -3.094,-0.238 -5.518,0.127 -11.356,0.634 -15.235,2.453 -21.685,-5.057 -23.551,-9.141 -1.225,-2.741 -0.555,-5.236 -0.555,-5.236 0,0 0.043,-0.103 0.156,-0.103 0.075,0 0.159,0.103 0.159,0.103 6.729,9.303 12.248,9.049 23.094,7.272 4.417,-0.722 11.248,-1.368 14.527,-0.824 13.384,2.22 15.197,15.326 15.197,15.326 h -3.056"
         style="fill:#00a0e3;fill-opacity:1;fill-rule:nonzero;stroke:none"
         id="path4524" />
    </g>
  </g>
  <metadata
     id="metadata1178">
    <rdf:RDF>
      <cc:Work
         rdf:about="">
        <dc:title>NHS Western Isles logo</dc:title>
      </cc:Work>
    </rdf:RDF>
  </metadata>
</svg>
