<?xml version="1.0" encoding="UTF-8" standalone="no"?>
<!-- Created with Inkscape (http://www.inkscape.org/) -->

<svg
   width="180"
   height="180"
   viewBox="0 0 47.625001 47.624994"
   version="1.1"
   id="svg918"
   inkscape:version="1.2.2 (732a01da63, 2022-12-09)"
   sodipodi:docname="NHS Dumfries and Galloway.svg"
   xmlns:inkscape="http://www.inkscape.org/namespaces/inkscape"
   xmlns:sodipodi="http://sodipodi.sourceforge.net/DTD/sodipodi-0.dtd"
   xmlns="http://www.w3.org/2000/svg"
   xmlns:svg="http://www.w3.org/2000/svg"
   xmlns:rdf="http://www.w3.org/1999/02/22-rdf-syntax-ns#"
   xmlns:cc="http://creativecommons.org/ns#"
   xmlns:dc="http://purl.org/dc/elements/1.1/">
  <title
     id="title1180">NHS Dumfries and Galloway logo</title>
  <sodipodi:namedview
     id="namedview920"
     pagecolor="#ffffff"
     bordercolor="#000000"
     borderopacity="0.25"
     inkscape:showpageshadow="2"
     inkscape:pageopacity="0.0"
     inkscape:pagecheckerboard="0"
     inkscape:deskcolor="#d1d1d1"
     inkscape:document-units="mm"
     showgrid="false"
     inkscape:zoom="2.0927475"
     inkscape:cx="-58.057649"
     inkscape:cy="81.471845"
     inkscape:window-width="1920"
     inkscape:window-height="1002"
     inkscape:window-x="2125"
     inkscape:window-y="-8"
     inkscape:window-maximized="1"
     inkscape:current-layer="layer1" />
  <defs
     id="defs915" />
  <g
     inkscape:label="Layer 1"
     inkscape:groupmode="layer"
     id="layer1"
     transform="translate(-132.35926,-106.61434)">
    <g
       id="g5552"
       transform="matrix(0.35277777,0,0,-0.35277777,12.143885,309.10437)">
      <path
         d="m 443.939,544.818 c -3.943,1.16 -6.277,1.418 -6.277,3.609 0,1.503 1.409,2.621 3.843,2.621 2.896,0 7.975,-2.258 7.975,-2.258 l 2.584,5.979 c 0,0 -4.566,2.681 -10.267,2.681 -7.64,0 -12.557,-4.168 -12.557,-9.668 0,-4.769 3.115,-6.917 9.782,-8.679 3.749,-0.988 6.037,-1.761 6.037,-4.211 0,-1.804 -1.705,-3.136 -3.895,-3.136 -4.922,0 -10.214,2.992 -10.214,2.992 l -2.763,-5.86 c 0,0 4.57,-3.62 11.857,-3.62 8.277,0 13.436,4.34 13.436,10.269 0,4.597 -3.115,7.39 -9.541,9.281"
         style="fill:#144a87;fill-opacity:1;fill-rule:nonzero;stroke:none"
         id="path4328" />
      <path
         d="m 372.554,556.866 c -3.72,-0.003 -7.52,0 -7.52,0 v -30.692 h 7.804 l -0.039,18.233 c 0,0 6.098,-10.537 11.524,-18.233 5.269,-0.01 6.505,0 6.505,0 v 30.685 h -7.655 l 0.007,-15.99 c 0,0 -4.282,7.466 -10.626,15.997"
         style="fill:#144a87;fill-opacity:1;fill-rule:nonzero;stroke:none"
         id="path4330" />
      <path
         d="m 415.961,526.231 v 13.221 h -11.586 v -13.221 h -7.804 v 30.625 h 7.804 V 545.21 h 11.586 v 11.646 h 7.787 v -30.625 h -7.787"
         style="fill:#144a87;fill-opacity:1;fill-rule:nonzero;stroke:none"
         id="path4332" />
      <path
         d="m 408.376,507.483 c -2.537,4.55 -11.19,12.08 -26.557,9.607 -5.836,-0.508 -8.26,-0.872 -11.354,-0.634 -12.235,0.939 -14.367,7.693 -14.482,8.061 h -3.057 c 0,0 1.681,-13.137 15.065,-15.356 3.28,-0.544 10.11,0.101 14.526,0.824 10.846,1.776 19.146,2.061 25.875,-7.243 0,0 0.088,-0.102 0.163,-0.102 0.138,0 0.171,0.102 0.171,0.102 0,0 0.875,1.782 -0.35,4.741"
         style="fill:#00a0e3;fill-opacity:1;fill-rule:nonzero;stroke:none"
         id="path4334" />
      <path
         d="m 460.554,524.517 c -0.117,-0.368 -2.38,-7.092 -14.616,-8.031 -3.094,-0.238 -5.518,0.127 -11.355,0.634 -15.236,2.453 -21.686,-5.057 -23.552,-9.141 -1.225,-2.741 -0.555,-5.237 -0.555,-5.237 0,0 0.043,-0.102 0.156,-0.102 0.075,0 0.159,0.102 0.159,0.102 6.729,9.304 12.248,9.05 23.094,7.273 4.418,-0.722 11.248,-1.368 14.527,-0.824 13.384,2.22 15.198,15.326 15.198,15.326 h -3.056"
         style="fill:#00a0e3;fill-opacity:1;fill-rule:nonzero;stroke:none"
         id="path4336" />
      <path
         d="m 369.914,495.5 h 2.178 c 3.159,0 4.953,-1.922 4.953,-5.017 0,-4.163 -1.858,-5.914 -5.295,-5.914 h -1.836 z m -3.01,2.007 v -14.945 h 4.889 c 5.295,0 8.454,2.968 8.454,7.9 0,3.608 -2.092,7.045 -8.177,7.045 h -5.166"
         style="fill:#144a87;fill-opacity:1;fill-rule:nonzero;stroke:none"
         id="path4338" />
      <path
         d="m 388.488,483.885 c -1.003,-1.003 -2.049,-1.579 -3.394,-1.579 -2.285,0 -3.609,1.366 -3.609,4.056 v 6.875 h 2.84 v -6.469 c 0,-1.495 0.662,-2.476 2.007,-2.476 0.982,0 2.135,0.832 2.135,2.775 v 6.17 h 2.839 v -10.675 h -2.818 v 1.323"
         style="fill:#144a87;fill-opacity:1;fill-rule:nonzero;stroke:none"
         id="path4340" />
      <path
         d="m 396.174,491.977 h 0.043 c 0.726,0.961 2.113,1.516 3.373,1.516 1.345,0 2.498,-0.533 3.138,-1.516 0.897,0.854 2.285,1.495 3.545,1.516 2.412,0.022 3.672,-1.452 3.715,-3.907 v -7.003 h -2.84 v 6.49 c 0,1.239 -0.427,2.52 -1.836,2.52 -1.367,0 -2.221,-0.811 -2.221,-2.669 v -6.362 h -2.839 v 6.511 c 0,1.495 -0.662,2.52 -1.879,2.52 -1.345,0 -2.178,-0.918 -2.178,-2.733 v -6.298 h -2.839 v 10.675 h 2.818 v -1.26"
         style="fill:#144a87;fill-opacity:1;fill-rule:nonzero;stroke:none"
         id="path4342" />
      <path
         d="m 412.25,482.562 v 9.223 h -1.707 v 1.452 h 1.707 v 1.217 c 0,2.796 2.093,3.8 3.694,3.8 0.641,0 1.473,-0.085 2.22,-0.47 l -0.491,-1.409 c -0.384,0.128 -0.811,0.193 -1.217,0.193 -0.448,0 -1.366,-0.257 -1.366,-1.601 v -1.73 h 2.562 v -1.452 h -2.562 v -9.223 h -2.84"
         style="fill:#144a87;fill-opacity:1;fill-rule:nonzero;stroke:none"
         id="path4344" />
      <path
         d="m 421.516,491.358 h 0.043 l 0.576,0.832 c 0.342,0.449 0.961,1.303 1.836,1.303 0.641,0 1.324,-0.341 1.922,-0.961 l -1.067,-1.964 c -0.47,0.235 -0.769,0.363 -1.346,0.363 -0.982,0 -1.942,-0.79 -1.942,-3.096 v -5.273 h -2.84 v 10.675 h 2.818 v -1.879"
         style="fill:#144a87;fill-opacity:1;fill-rule:nonzero;stroke:none"
         id="path4346" />
      <path
         d="m 426.832,493.237 h 2.84 v -10.675 h -2.84 z m -0.278,3.203 c 0,0.81 0.684,1.643 1.644,1.643 0.982,0 1.751,-0.811 1.751,-1.643 0,-0.918 -0.662,-1.794 -1.708,-1.794 -1.003,0 -1.687,0.876 -1.687,1.794"
         style="fill:#144a87;fill-opacity:1;fill-rule:nonzero;stroke:none"
         id="path4348" />
      <path
         d="m 434.198,489.181 c -0.021,1.43 0.704,2.732 2.327,2.732 1.409,0 1.985,-1.11 1.879,-2.732 z m 6.875,-1.538 c 0.213,3.182 -1.175,5.85 -4.505,5.85 -3.054,0 -5.445,-2.092 -5.445,-5.38 0,-3.523 2.413,-5.807 5.637,-5.807 1.217,0 2.732,0.342 4.184,1.195 l -0.811,1.495 c -0.704,-0.491 -1.815,-0.854 -2.861,-0.854 -1.772,0 -3.181,1.494 -3.117,3.501 h 6.918"
         style="fill:#144a87;fill-opacity:1;fill-rule:nonzero;stroke:none"
         id="path4350" />
      <path
         d="m 448.545,491.23 c -0.641,0.47 -1.303,0.683 -1.815,0.683 -0.641,0 -1.281,-0.363 -1.281,-1.088 0,-0.855 1.025,-1.346 2.22,-2.221 1.516,-1.132 1.965,-2.242 1.965,-3.224 0,-1.495 -1.644,-3.074 -3.993,-3.074 -1.473,0 -2.562,0.512 -3.565,1.217 l 0.896,1.473 c 0.641,-0.512 1.559,-1.025 2.328,-1.025 0.811,0 1.537,0.427 1.537,1.323 0,1.004 -1.11,1.559 -2.135,2.285 -1.217,0.833 -2.05,1.644 -2.05,2.968 0,1.687 1.623,2.946 3.715,2.946 1.174,0 2.327,-0.299 3.096,-0.982 l -0.918,-1.281"
         style="fill:#144a87;fill-opacity:1;fill-rule:nonzero;stroke:none"
         id="path4352" />
      <path
         d="m 363.405,463.957 c -0.619,-0.81 -1.75,-1.387 -3.01,-1.387 -1.729,0 -2.818,1.366 -2.818,2.733 0,1.174 0.47,2.07 1.409,2.69 z m -2.882,6 c -1.409,1.303 -1.921,1.964 -1.921,2.733 0,0.726 0.597,1.366 1.601,1.366 0.747,0 1.452,-0.384 1.9,-0.683 L 363,475.06 c -0.897,0.597 -1.922,1.003 -3.224,1.003 -2.391,0 -4.035,-1.558 -4.035,-3.373 0,-1.474 1.046,-2.519 1.75,-3.224 -1.644,-0.704 -2.946,-2.263 -2.946,-4.206 0,-1.708 1.388,-4.654 5.487,-4.654 2.178,0 3.694,0.96 4.825,2.07 l 2.263,-2.07 2.221,1.345 -3.053,2.647 c 0.96,1.729 0.918,4.164 0.213,5.444 h 2.199 l 0.747,1.516 h -6.49 l -0.747,-1.516 h 2.007 c 0.854,-1.195 1.024,-3.01 0.576,-4.078 l -4.27,3.993"
         style="fill:#144a87;fill-opacity:1;fill-rule:nonzero;stroke:none"
         id="path4354" />
      <path
         d="m 390.263,467.694 v -6.17 c -1.601,-0.534 -3.288,-0.918 -4.996,-0.918 -5.166,0 -8.433,3.416 -8.433,7.814 0,4.078 3.245,7.643 8.519,7.643 1.644,0 3.288,-0.513 4.27,-1.153 l -0.961,-1.772 c -0.811,0.427 -2.071,0.79 -3.224,0.79 -3.202,0 -5.401,-2.156 -5.401,-5.551 0,-3.544 2.519,-5.636 5.102,-5.636 0.812,0 1.474,0.085 2.114,0.363 v 4.59 h 3.01"
         style="fill:#144a87;fill-opacity:1;fill-rule:nonzero;stroke:none"
         id="path4356" />
      <path
         d="m 398.505,467.053 c 0.213,-3.138 -1.26,-4.547 -2.392,-4.547 -0.683,0 -1.281,0.641 -1.281,1.58 0,1.217 0.705,2.028 2.092,2.455 z m -0.044,-4.632 c 0,-0.577 0.065,-1.196 0.278,-1.559 h 3.011 c -0.342,0.747 -0.449,1.751 -0.449,2.605 v 4.355 c 0,3.331 -2.412,3.971 -4.377,3.971 -1.473,0 -2.775,-0.363 -4.099,-1.452 l 0.918,-1.345 c 0.747,0.641 1.601,1.089 2.818,1.089 0.918,0 1.794,-0.619 1.944,-1.601 l -2.52,-0.748 c -2.477,-0.704 -3.95,-1.857 -3.95,-3.885 0,-1.964 1.388,-3.245 3.053,-3.245 0.982,0 1.943,0.661 2.733,1.281 l 0.64,0.534"
         style="fill:#144a87;fill-opacity:1;fill-rule:nonzero;stroke:none"
         id="path4358" />
      <path
         d="m 403.415,476.554 h 2.84 v -15.692 h -2.84 z"
         style="fill:#144a87;fill-opacity:1;fill-rule:nonzero;stroke:none"
         id="path4360" />
      <path
         d="m 408.304,476.554 h 2.84 v -15.692 h -2.84 z"
         style="fill:#144a87;fill-opacity:1;fill-rule:nonzero;stroke:none"
         id="path4362" />
      <path
         d="m 418.189,462.186 c -2.029,0 -2.584,2.263 -2.584,4.141 0,1.772 0.641,3.886 2.584,3.886 1.985,0 2.604,-2.114 2.604,-3.886 0,-1.878 -0.533,-4.141 -2.604,-4.141 z m 0,-1.58 c 3.352,0 5.615,2.412 5.615,5.721 0,3.459 -2.733,5.466 -5.615,5.466 -2.861,0 -5.594,-2.007 -5.594,-5.466 0,-3.309 2.263,-5.721 5.594,-5.721"
         style="fill:#144a87;fill-opacity:1;fill-rule:nonzero;stroke:none"
         id="path4364" />
      <path
         d="m 433.667,471.537 c 0.918,-2.284 1.836,-4.569 2.733,-7.366 h 0.043 c 0.747,2.861 1.537,5.231 2.306,7.579 l 2.455,-0.341 -3.843,-10.547 h -2.242 c -0.918,2.37 -1.857,4.761 -2.754,7.558 h -0.042 c -0.876,-2.797 -1.794,-5.188 -2.691,-7.558 h -1.943 l -3.843,10.354 2.712,0.534 c 0.769,-2.348 1.558,-4.718 2.306,-7.579 h 0.042 c 0.897,2.797 1.836,5.082 2.755,7.366 h 2.006"
         style="fill:#144a87;fill-opacity:1;fill-rule:nonzero;stroke:none"
         id="path4366" />
      <path
         d="m 447.566,467.053 c 0.213,-3.138 -1.26,-4.547 -2.391,-4.547 -0.683,0 -1.281,0.641 -1.281,1.58 0,1.217 0.705,2.028 2.092,2.455 z m -0.043,-4.632 c 0,-0.577 0.064,-1.196 0.278,-1.559 h 3.01 c -0.341,0.747 -0.448,1.751 -0.448,2.605 v 4.355 c 0,3.331 -2.413,3.971 -4.377,3.971 -1.473,0 -2.775,-0.363 -4.099,-1.452 l 0.918,-1.345 c 0.747,0.641 1.601,1.089 2.818,1.089 0.918,0 1.793,-0.619 1.943,-1.601 l -2.519,-0.748 c -2.477,-0.704 -3.95,-1.857 -3.95,-3.885 0,-1.964 1.388,-3.245 3.053,-3.245 0.982,0 1.943,0.661 2.733,1.281 l 0.64,0.534"
         style="fill:#144a87;fill-opacity:1;fill-rule:nonzero;stroke:none"
         id="path4368" />
      <path
         d="m 453.907,471.75 c 0.918,-2.455 1.857,-4.932 2.754,-7.899 h 0.043 c 0.96,2.967 1.942,5.444 2.925,7.899 l 2.412,-0.448 -5.273,-11.871 c -0.577,-1.302 -1.9,-3.906 -4.676,-3.906 h -1.195 v 1.899 h 0.747 c 1.302,0 2.348,0.555 3.48,4.1 l -4.057,9.714 2.84,0.512"
         style="fill:#144a87;fill-opacity:1;fill-rule:nonzero;stroke:none"
         id="path4370" />
    </g>
  </g>
  <metadata
     id="metadata1178">
    <rdf:RDF>
      <cc:Work
         rdf:about="">
        <dc:title>NHS Dumfries and Galloway logo</dc:title>
      </cc:Work>
    </rdf:RDF>
  </metadata>
</svg>
