<?xml version="1.0" encoding="UTF-8" standalone="no"?>
<!-- Created with Inkscape (http://www.inkscape.org/) -->

<svg
   width="180"
   height="130"
   viewBox="0 0 47.625001 34.395829"
   version="1.1"
   id="svg918"
   inkscape:version="1.2.2 (732a01da63, 2022-12-09)"
   sodipodi:docname="NHS Highland.svg"
   xmlns:inkscape="http://www.inkscape.org/namespaces/inkscape"
   xmlns:sodipodi="http://sodipodi.sourceforge.net/DTD/sodipodi-0.dtd"
   xmlns="http://www.w3.org/2000/svg"
   xmlns:svg="http://www.w3.org/2000/svg"
   xmlns:rdf="http://www.w3.org/1999/02/22-rdf-syntax-ns#"
   xmlns:cc="http://creativecommons.org/ns#"
   xmlns:dc="http://purl.org/dc/elements/1.1/">
  <title
     id="title1180">NHS Highland logo</title>
  <sodipodi:namedview
     id="namedview920"
     pagecolor="#ffffff"
     bordercolor="#000000"
     borderopacity="0.25"
     inkscape:showpageshadow="2"
     inkscape:pageopacity="0.0"
     inkscape:pagecheckerboard="0"
     inkscape:deskcolor="#d1d1d1"
     inkscape:document-units="mm"
     showgrid="false"
     inkscape:zoom="1.3081307"
     inkscape:cx="-112.75632"
     inkscape:cy="15.671217"
     inkscape:window-width="1920"
     inkscape:window-height="1002"
     inkscape:window-x="2125"
     inkscape:window-y="-8"
     inkscape:window-maximized="1"
     inkscape:current-layer="layer1" />
  <defs
     id="defs915" />
  <g
     inkscape:label="Layer 1"
     inkscape:groupmode="layer"
     id="layer1"
     transform="translate(-132.35926,-106.61434)">
    <g
       id="g2869"
       transform="matrix(0.35277777,0,0,-0.35277777,97.152215,255.88855)">
      <path
         d="m 202.97,401.862 c -3.943,1.159 -6.277,1.417 -6.277,3.609 0,1.503 1.409,2.621 3.844,2.621 2.895,0 7.975,-2.258 7.975,-2.258 l 2.584,5.979 c 0,0 -4.566,2.68 -10.267,2.68 -7.64,0 -12.557,-4.167 -12.557,-9.667 0,-4.769 3.115,-6.917 9.782,-8.679 3.749,-0.988 6.037,-1.761 6.037,-4.211 0,-1.804 -1.705,-3.136 -3.895,-3.136 -4.922,0 -10.214,2.992 -10.214,2.992 l -2.763,-5.86 c 0,0 4.57,-3.62 11.857,-3.62 8.276,0 13.436,4.339 13.436,10.269 0,4.597 -3.115,7.39 -9.542,9.281"
         style="fill:#144a87;fill-opacity:1;fill-rule:nonzero;stroke:none"
         id="path254" />
      <path
         d="m 131.585,413.91 c -3.719,-0.003 -7.519,0 -7.519,0 v -30.692 h 7.803 l -0.038,18.233 c 0,0 6.097,-10.537 11.523,-18.233 5.269,-0.011 6.506,0 6.506,0 v 30.685 h -7.656 l 0.007,-15.99 c 0,0 -4.282,7.465 -10.626,15.997"
         style="fill:#144a87;fill-opacity:1;fill-rule:nonzero;stroke:none"
         id="path256" />
      <path
         d="m 174.993,383.275 v 13.221 h -11.587 v -13.221 h -7.803 v 30.624 h 7.803 v -11.645 h 11.587 v 11.645 h 7.787 v -30.624 h -7.787"
         style="fill:#144a87;fill-opacity:1;fill-rule:nonzero;stroke:none"
         id="path258" />
      <path
         d="m 167.408,364.528 c -2.537,4.55 -11.19,12.079 -26.558,9.606 -5.835,-0.508 -8.259,-0.872 -11.354,-0.635 -12.235,0.94 -14.366,7.694 -14.482,8.062 h -3.056 c 0,0 1.681,-13.136 15.065,-15.356 3.279,-0.544 10.11,0.101 14.525,0.825 10.847,1.776 19.147,2.06 25.875,-7.243 0,0 0.088,-0.103 0.163,-0.103 0.139,0 0.172,0.103 0.172,0.103 0,0 0.875,1.781 -0.35,4.741"
         style="fill:#00a0e3;fill-opacity:1;fill-rule:nonzero;stroke:none"
         id="path260" />
      <path
         d="m 219.585,381.561 c -0.116,-0.368 -2.38,-7.092 -14.615,-8.032 -3.094,-0.237 -5.518,0.128 -11.355,0.635 -15.236,2.453 -21.686,-5.057 -23.552,-9.141 -1.225,-2.741 -0.555,-5.236 -0.555,-5.236 0,0 0.043,-0.103 0.155,-0.103 0.076,0 0.16,0.103 0.16,0.103 6.729,9.303 12.248,9.049 23.094,7.273 4.417,-0.723 11.247,-1.368 14.527,-0.825 13.384,2.221 15.197,15.326 15.197,15.326 h -3.056"
         style="fill:#00a0e3;fill-opacity:1;fill-rule:nonzero;stroke:none"
         id="path262" />
      <path
         d="m 137.365,339.624 h -3.011 v 7.194 h -6.255 v -7.194 h -3.01 v 14.945 h 3.01 v -5.744 h 6.255 v 5.701 h 3.011 v -14.902"
         style="fill:#144a87;fill-opacity:1;fill-rule:nonzero;stroke:none"
         id="path264" />
      <path
         d="m 139.735,350.299 h 2.84 v -10.675 h -2.84 z m -0.278,3.202 c 0,0.812 0.683,1.644 1.644,1.644 0.982,0 1.751,-0.811 1.751,-1.644 0,-0.918 -0.662,-1.793 -1.708,-1.793 -1.004,0 -1.687,0.875 -1.687,1.793"
         style="fill:#144a87;fill-opacity:1;fill-rule:nonzero;stroke:none"
         id="path266" />
      <path
         d="m 149.62,348.847 c 1.708,0 2.583,-1.729 2.583,-3.587 0,-2.135 -0.811,-4.184 -2.712,-4.184 -1.643,0 -2.455,2.007 -2.455,4.077 0,2.071 0.747,3.694 2.584,3.694 z m 5.422,1.452 h -2.839 v -1.303 h -0.043 c -0.598,0.961 -1.879,1.559 -3.181,1.559 -2.903,0 -4.953,-2.69 -4.953,-5.465 0,-3.416 1.857,-5.723 4.697,-5.723 1.622,0 2.733,0.897 3.437,1.794 h 0.043 v -1.409 c 0,-2.477 -1.452,-3.63 -3.331,-3.63 -1.451,0 -2.668,0.278 -3.715,0.918 l -0.555,-1.75 c 1.26,-0.641 2.883,-1.004 4.484,-1.004 3.181,0 5.956,1.559 5.956,6.299 v 9.714"
         style="fill:#144a87;fill-opacity:1;fill-rule:nonzero;stroke:none"
         id="path268" />
      <path
         d="m 160.124,349.039 c 0.96,1.025 2.306,1.516 3.65,1.516 2.499,0 3.822,-1.367 3.822,-4.056 v -6.875 h -2.839 v 6.554 c 0,1.495 -0.662,2.477 -2.135,2.477 -1.388,0 -2.477,-0.919 -2.477,-2.669 v -6.362 h -2.84 v 15.692 h 2.819 v -6.277"
         style="fill:#144a87;fill-opacity:1;fill-rule:nonzero;stroke:none"
         id="path270" />
      <path
         d="m 169.646,355.316 h 2.84 v -15.693 h -2.84 z"
         style="fill:#144a87;fill-opacity:1;fill-rule:nonzero;stroke:none"
         id="path272" />
      <path
         d="m 180.47,345.816 c 0.213,-3.139 -1.26,-4.548 -2.391,-4.548 -0.684,0 -1.281,0.64 -1.281,1.579 0,1.217 0.704,2.029 2.092,2.456 z m -0.043,-4.634 c 0,-0.576 0.064,-1.195 0.278,-1.558 h 3.01 c -0.342,0.747 -0.448,1.75 -0.448,2.605 v 4.355 c 0,3.33 -2.413,3.971 -4.377,3.971 -1.473,0 -2.775,-0.363 -4.099,-1.452 l 0.918,-1.345 c 0.747,0.641 1.601,1.089 2.818,1.089 0.918,0 1.794,-0.619 1.943,-1.601 l -2.52,-0.747 c -2.476,-0.705 -3.949,-1.858 -3.949,-3.886 0,-1.965 1.388,-3.246 3.053,-3.246 0.982,0 1.943,0.663 2.733,1.281 l 0.64,0.534"
         style="fill:#144a87;fill-opacity:1;fill-rule:nonzero;stroke:none"
         id="path274" />
      <path
         d="m 188.199,349.039 c 0.96,1.025 2.305,1.516 3.65,1.516 2.498,0 3.822,-1.367 3.822,-4.056 v -6.875 h -2.839 v 6.554 c 0,1.495 -0.662,2.477 -2.135,2.477 -1.388,0 -2.477,-0.919 -2.477,-2.669 v -6.362 h -2.84 v 10.675 h 2.819 v -1.26"
         style="fill:#144a87;fill-opacity:1;fill-rule:nonzero;stroke:none"
         id="path276" />
      <path
         d="m 202.716,348.847 c 1.709,0 2.584,-1.729 2.584,-3.587 0,-2.135 -0.811,-4.184 -2.711,-4.184 -1.644,0 -2.456,2.007 -2.456,4.077 0,2.071 0.747,3.694 2.583,3.694 z m 2.584,-9.223 h 2.839 v 15.692 H 205.3 v -6.255 h -0.043 c -0.64,0.939 -1.879,1.494 -3.267,1.494 -2.86,0 -4.867,-2.69 -4.867,-5.465 0,-3.416 1.857,-5.723 4.654,-5.723 1.665,0 2.776,0.897 3.48,1.794 h 0.043 v -1.537"
         style="fill:#144a87;fill-opacity:1;fill-rule:nonzero;stroke:none"
         id="path278" />
    </g>
  </g>
  <metadata
     id="metadata1178">
    <rdf:RDF>
      <cc:Work
         rdf:about="">
        <dc:title>NHS Highland logo</dc:title>
      </cc:Work>
    </rdf:RDF>
  </metadata>
</svg>
