<?xml version="1.0" encoding="UTF-8" standalone="no"?>
<!-- Created with Inkscape (http://www.inkscape.org/) -->

<svg
   width="180"
   height="130"
   viewBox="0 0 47.625001 34.395829"
   version="1.1"
   id="svg918"
   inkscape:version="1.2.2 (732a01da63, 2022-12-09)"
   sodipodi:docname="NHS Lothian.svg"
   xmlns:inkscape="http://www.inkscape.org/namespaces/inkscape"
   xmlns:sodipodi="http://sodipodi.sourceforge.net/DTD/sodipodi-0.dtd"
   xmlns="http://www.w3.org/2000/svg"
   xmlns:svg="http://www.w3.org/2000/svg"
   xmlns:rdf="http://www.w3.org/1999/02/22-rdf-syntax-ns#"
   xmlns:cc="http://creativecommons.org/ns#"
   xmlns:dc="http://purl.org/dc/elements/1.1/">
  <title
     id="title1180">NHS Lothian logo</title>
  <sodipodi:namedview
     id="namedview920"
     pagecolor="#ffffff"
     bordercolor="#000000"
     borderopacity="0.25"
     inkscape:showpageshadow="2"
     inkscape:pageopacity="0.0"
     inkscape:pagecheckerboard="0"
     inkscape:deskcolor="#d1d1d1"
     inkscape:document-units="mm"
     showgrid="false"
     inkscape:zoom="2.0356171"
     inkscape:cx="-22.351945"
     inkscape:cy="61.652067"
     inkscape:window-width="1920"
     inkscape:window-height="1002"
     inkscape:window-x="2125"
     inkscape:window-y="-8"
     inkscape:window-maximized="1"
     inkscape:current-layer="layer1" />
  <defs
     id="defs915" />
  <g
     inkscape:label="Layer 1"
     inkscape:groupmode="layer"
     id="layer1"
     transform="translate(-132.35926,-106.61434)">
    <g
       id="g5290"
       transform="matrix(0.35277777,0,0,-0.35277777,12.19786,357.13136)">
      <path
         d="m 443.786,686.308 c -3.943,1.16 -6.277,1.418 -6.277,3.609 0,1.504 1.409,2.621 3.843,2.621 2.896,0 7.976,-2.258 7.976,-2.258 l 2.583,5.98 c 0,0 -4.566,2.68 -10.266,2.68 -7.641,0 -12.557,-4.168 -12.557,-9.667 0,-4.769 3.115,-6.918 9.781,-8.679 3.749,-0.989 6.037,-1.762 6.037,-4.211 0,-1.805 -1.704,-3.136 -3.894,-3.136 -4.923,0 -10.215,2.992 -10.215,2.992 l -2.763,-5.86 c 0,0 4.571,-3.62 11.857,-3.62 8.276,0 13.436,4.339 13.436,10.269 0,4.597 -3.115,7.39 -9.541,9.28"
         style="fill:#144a87;fill-opacity:1;fill-rule:nonzero;stroke:none"
         id="path4428" />
      <path
         d="m 372.401,698.356 c -3.72,-0.002 -7.52,0 -7.52,0 v -30.691 h 7.804 l -0.038,18.232 c 0,0 6.097,-10.537 11.522,-18.232 5.27,-0.011 6.506,0 6.506,0 v 30.684 h -7.655 l 0.006,-15.99 c 0,0 -4.282,7.466 -10.625,15.997"
         style="fill:#144a87;fill-opacity:1;fill-rule:nonzero;stroke:none"
         id="path4430" />
      <path
         d="m 415.809,667.721 v 13.221 h -11.587 v -13.221 h -7.804 v 30.625 h 7.804 V 686.7 h 11.587 v 11.646 h 7.787 v -30.625 h -7.787"
         style="fill:#144a87;fill-opacity:1;fill-rule:nonzero;stroke:none"
         id="path4432" />
      <path
         d="m 408.224,648.974 c -2.538,4.55 -11.191,12.08 -26.558,9.606 -5.836,-0.507 -8.26,-0.872 -11.354,-0.634 -12.235,0.939 -14.367,7.694 -14.482,8.062 h -3.057 c 0,0 1.681,-13.137 15.065,-15.357 3.28,-0.544 10.11,0.102 14.526,0.825 10.847,1.776 19.146,2.06 25.875,-7.243 0,0 0.088,-0.102 0.162,-0.102 0.139,0 0.173,0.102 0.173,0.102 0,0 0.875,1.782 -0.35,4.741"
         style="fill:#00a0e3;fill-opacity:1;fill-rule:nonzero;stroke:none"
         id="path4434" />
      <path
         d="m 460.4,666.008 c -0.116,-0.368 -2.379,-7.093 -14.615,-8.032 -3.094,-0.237 -5.518,0.127 -11.355,0.635 -15.236,2.452 -21.686,-5.058 -23.552,-9.142 -1.225,-2.741 -0.554,-5.236 -0.554,-5.236 0,0 0.043,-0.102 0.155,-0.102 0.075,0 0.16,0.102 0.16,0.102 6.728,9.303 12.247,9.05 23.093,7.273 4.417,-0.723 11.248,-1.368 14.527,-0.824 13.384,2.22 15.198,15.326 15.198,15.326 H 460.4"
         style="fill:#00a0e3;fill-opacity:1;fill-rule:nonzero;stroke:none"
         id="path4436" />
      <path
         d="m 374.433,639.016 h 3.01 v -12.938 h 5.936 v -2.007 h -8.946 v 14.945"
         style="fill:#144a87;fill-opacity:1;fill-rule:nonzero;stroke:none"
         id="path4438" />
      <path
         d="m 389.121,625.394 c -2.028,0 -2.583,2.263 -2.583,4.142 0,1.772 0.641,3.886 2.583,3.886 1.986,0 2.605,-2.114 2.605,-3.886 0,-1.879 -0.534,-4.142 -2.605,-4.142 z m 0,-1.58 c 3.352,0 5.615,2.413 5.615,5.722 0,3.459 -2.733,5.466 -5.615,5.466 -2.86,0 -5.593,-2.007 -5.593,-5.466 0,-3.309 2.263,-5.722 5.593,-5.722"
         style="fill:#144a87;fill-opacity:1;fill-rule:nonzero;stroke:none"
         id="path4440" />
      <path
         d="m 399.327,634.746 h 2.796 v -1.452 h -2.796 v -5.252 c 0,-1.751 0.533,-2.498 1.473,-2.498 0.619,0 0.982,0.171 1.366,0.363 l 0.491,-1.41 c -0.832,-0.448 -1.857,-0.683 -2.797,-0.683 -2.348,0 -3.373,1.239 -3.373,3.416 v 6.064 h -1.494 v 1.452 h 1.494 v 2.562 l 2.84,0.64 v -3.202"
         style="fill:#144a87;fill-opacity:1;fill-rule:nonzero;stroke:none"
         id="path4442" />
      <path
         d="m 406.671,633.486 c 0.961,1.025 2.306,1.516 3.651,1.516 2.498,0 3.821,-1.367 3.821,-4.057 v -6.874 h -2.839 v 6.554 c 0,1.495 -0.662,2.477 -2.135,2.477 -1.388,0 -2.477,-0.919 -2.477,-2.669 v -6.362 h -2.839 v 15.692 h 2.818 v -6.277"
         style="fill:#144a87;fill-opacity:1;fill-rule:nonzero;stroke:none"
         id="path4444" />
      <path
         d="m 415.979,634.746 h 2.84 v -10.675 h -2.84 z m -0.277,3.202 c 0,0.811 0.683,1.644 1.644,1.644 0.982,0 1.75,-0.811 1.75,-1.644 0,-0.918 -0.661,-1.793 -1.707,-1.793 -1.004,0 -1.687,0.875 -1.687,1.793"
         style="fill:#144a87;fill-opacity:1;fill-rule:nonzero;stroke:none"
         id="path4446" />
      <path
         d="m 426.804,630.262 c 0.213,-3.138 -1.26,-4.547 -2.391,-4.547 -0.684,0 -1.281,0.64 -1.281,1.579 0,1.217 0.704,2.029 2.092,2.456 z m -0.043,-4.633 c 0,-0.576 0.064,-1.195 0.278,-1.558 h 3.01 c -0.342,0.747 -0.449,1.75 -0.449,2.604 v 4.356 c 0,3.33 -2.412,3.971 -4.376,3.971 -1.473,0 -2.776,-0.363 -4.1,-1.452 l 0.919,-1.345 c 0.747,0.641 1.601,1.089 2.818,1.089 0.918,0 1.793,-0.619 1.943,-1.601 l -2.52,-0.748 c -2.476,-0.704 -3.949,-1.857 -3.949,-3.885 0,-1.965 1.388,-3.246 3.053,-3.246 0.982,0 1.943,0.662 2.733,1.281 l 0.64,0.534"
         style="fill:#144a87;fill-opacity:1;fill-rule:nonzero;stroke:none"
         id="path4448" />
      <path
         d="m 434.319,633.486 c 0.961,1.025 2.306,1.516 3.651,1.516 2.497,0 3.821,-1.367 3.821,-4.057 v -6.874 h -2.839 v 6.554 c 0,1.495 -0.662,2.477 -2.135,2.477 -1.388,0 -2.477,-0.919 -2.477,-2.669 v -6.362 h -2.839 v 10.675 h 2.818 v -1.26"
         style="fill:#144a87;fill-opacity:1;fill-rule:nonzero;stroke:none"
         id="path4450" />
    </g>
  </g>
  <metadata
     id="metadata1178">
    <rdf:RDF>
      <cc:Work
         rdf:about="">
        <dc:title>NHS Lothian logo</dc:title>
      </cc:Work>
    </rdf:RDF>
  </metadata>
</svg>
