<?xml version="1.0" encoding="UTF-8" standalone="no"?>
<!-- Created with Inkscape (http://www.inkscape.org/) -->

<svg
   width="180"
   height="180"
   viewBox="0 0 47.625001 47.624994"
   version="1.1"
   id="svg918"
   inkscape:version="1.2.2 (732a01da63, 2022-12-09)"
   sodipodi:docname="NHS Ayrshire and Arran.svg"
   xmlns:inkscape="http://www.inkscape.org/namespaces/inkscape"
   xmlns:sodipodi="http://sodipodi.sourceforge.net/DTD/sodipodi-0.dtd"
   xmlns="http://www.w3.org/2000/svg"
   xmlns:svg="http://www.w3.org/2000/svg"
   xmlns:rdf="http://www.w3.org/1999/02/22-rdf-syntax-ns#"
   xmlns:cc="http://creativecommons.org/ns#"
   xmlns:dc="http://purl.org/dc/elements/1.1/">
  <title
     id="title1180">NHS Ayrshire and Arran logo</title>
  <sodipodi:namedview
     id="namedview920"
     pagecolor="#ffffff"
     bordercolor="#000000"
     borderopacity="0.25"
     inkscape:showpageshadow="2"
     inkscape:pageopacity="0.0"
     inkscape:pagecheckerboard="0"
     inkscape:deskcolor="#d1d1d1"
     inkscape:document-units="mm"
     showgrid="false"
     inkscape:zoom="1.5987423"
     inkscape:cx="109.77379"
     inkscape:cy="32.838313"
     inkscape:window-width="1920"
     inkscape:window-height="1002"
     inkscape:window-x="2125"
     inkscape:window-y="-8"
     inkscape:window-maximized="1"
     inkscape:current-layer="layer1" />
  <defs
     id="defs915" />
  <g
     inkscape:label="Layer 1"
     inkscape:groupmode="layer"
     id="layer1"
     transform="translate(-132.35926,-106.61434)">
    <g
       id="g6056"
       transform="matrix(0.35277777,0,0,-0.35277777,12.184278,259.95961)">
      <path
         d="m 443.824,402.984 c -3.943,1.159 -6.276,1.417 -6.276,3.609 0,1.503 1.408,2.621 3.843,2.621 2.895,0 7.975,-2.258 7.975,-2.258 l 2.584,5.979 c 0,0 -4.566,2.68 -10.267,2.68 -7.64,0 -12.557,-4.167 -12.557,-9.667 0,-4.769 3.115,-6.917 9.782,-8.679 3.749,-0.988 6.037,-1.761 6.037,-4.211 0,-1.804 -1.705,-3.136 -3.895,-3.136 -4.922,0 -10.214,2.992 -10.214,2.992 l -2.763,-5.86 c 0,0 4.57,-3.62 11.857,-3.62 8.276,0 13.436,4.339 13.436,10.269 0,4.597 -3.115,7.39 -9.542,9.281"
         style="fill:#144a87;fill-opacity:1;fill-rule:nonzero;stroke:none"
         id="path4626" />
      <path
         d="m 372.439,415.032 c -3.719,-0.003 -7.519,0 -7.519,0 V 384.34 h 7.804 l -0.039,18.233 c 0,0 6.097,-10.537 11.523,-18.233 5.269,-0.011 6.506,0 6.506,0 v 30.685 h -7.656 l 0.007,-15.99 c 0,0 -4.282,7.465 -10.626,15.997"
         style="fill:#144a87;fill-opacity:1;fill-rule:nonzero;stroke:none"
         id="path4628" />
      <path
         d="m 415.848,384.397 v 13.22 h -11.587 v -13.22 h -7.804 v 30.624 h 7.804 v -11.645 h 11.587 v 11.645 h 7.786 v -30.624 h -7.786"
         style="fill:#144a87;fill-opacity:1;fill-rule:nonzero;stroke:none"
         id="path4630" />
      <path
         d="m 408.262,365.649 c -2.537,4.55 -11.19,12.08 -26.557,9.607 -5.836,-0.508 -8.26,-0.872 -11.355,-0.635 -12.235,0.94 -14.366,7.694 -14.482,8.062 h -3.056 c 0,0 1.681,-13.137 15.065,-15.356 3.279,-0.544 10.11,0.101 14.526,0.824 10.846,1.776 19.146,2.061 25.874,-7.242 0,0 0.089,-0.103 0.163,-0.103 0.139,0 0.172,0.103 0.172,0.103 0,0 0.875,1.781 -0.35,4.74"
         style="fill:#00a0e3;fill-opacity:1;fill-rule:nonzero;stroke:none"
         id="path4632" />
      <path
         d="m 460.439,382.683 c -0.116,-0.368 -2.38,-7.092 -14.615,-8.032 -3.094,-0.237 -5.518,0.128 -11.355,0.635 -15.236,2.453 -21.686,-5.057 -23.552,-9.141 -1.225,-2.741 -0.555,-5.236 -0.555,-5.236 0,0 0.043,-0.103 0.156,-0.103 0.075,0 0.159,0.103 0.159,0.103 6.729,9.303 12.248,9.049 23.094,7.272 4.417,-0.722 11.247,-1.368 14.527,-0.824 13.384,2.22 15.197,15.326 15.197,15.326 h -3.056"
         style="fill:#00a0e3;fill-opacity:1;fill-rule:nonzero;stroke:none"
         id="path4634" />
      <path
         d="m 375.3,346.66 c 0.705,1.965 1.409,3.78 2.028,6.085 h 0.043 c 0.705,-2.305 1.345,-4.12 1.986,-6.085 z m 1.153,9.032 -6.085,-14.945 h 2.605 l 1.537,4.078 h 5.295 l 1.387,-4.078 h 3.374 l -5.615,14.945 h -2.498"
         style="fill:#144a87;fill-opacity:1;fill-rule:nonzero;stroke:none"
         id="path4636" />
      <path
         d="m 386.188,351.635 c 0.918,-2.455 1.858,-4.932 2.754,-7.899 h 0.043 c 0.961,2.967 1.943,5.444 2.925,7.899 l 2.413,-0.448 -5.274,-11.871 c -0.576,-1.302 -1.9,-3.907 -4.675,-3.907 h -1.196 v 1.9 h 0.747 c 1.303,0 2.349,0.555 3.481,4.099 l -4.057,9.715 2.839,0.512"
         style="fill:#144a87;fill-opacity:1;fill-rule:nonzero;stroke:none"
         id="path4638" />
      <path
         d="m 398.23,349.543 h 0.043 l 0.576,0.832 c 0.341,0.449 0.96,1.303 1.836,1.303 0.641,0 1.324,-0.342 1.922,-0.961 l -1.068,-1.964 c -0.47,0.235 -0.768,0.363 -1.345,0.363 -0.982,0 -1.943,-0.79 -1.943,-3.096 v -5.273 h -2.84 v 10.675 h 2.819 v -1.879"
         style="fill:#144a87;fill-opacity:1;fill-rule:nonzero;stroke:none"
         id="path4640" />
      <path
         d="m 408.905,349.415 c -0.641,0.47 -1.303,0.683 -1.815,0.683 -0.641,0 -1.281,-0.363 -1.281,-1.089 0,-0.854 1.024,-1.345 2.22,-2.22 1.516,-1.132 1.964,-2.242 1.964,-3.224 0,-1.495 -1.644,-3.075 -3.992,-3.075 -1.473,0 -2.562,0.513 -3.566,1.217 l 0.897,1.474 c 0.64,-0.513 1.559,-1.025 2.327,-1.025 0.811,0 1.537,0.427 1.537,1.323 0,1.004 -1.11,1.559 -2.135,2.285 -1.216,0.832 -2.049,1.644 -2.049,2.968 0,1.686 1.622,2.946 3.715,2.946 1.174,0 2.327,-0.299 3.096,-0.982 l -0.918,-1.281"
         style="fill:#144a87;fill-opacity:1;fill-rule:nonzero;stroke:none"
         id="path4642" />
      <path
         d="m 414.178,350.162 c 0.96,1.025 2.306,1.516 3.651,1.516 2.498,0 3.821,-1.367 3.821,-4.057 v -6.874 h -2.839 v 6.554 c 0,1.495 -0.662,2.477 -2.135,2.477 -1.388,0 -2.477,-0.919 -2.477,-2.669 v -6.362 h -2.84 v 15.692 h 2.819 v -6.277"
         style="fill:#144a87;fill-opacity:1;fill-rule:nonzero;stroke:none"
         id="path4644" />
      <path
         d="m 423.486,351.422 h 2.84 v -10.675 h -2.84 z m -0.277,3.202 c 0,0.811 0.683,1.644 1.644,1.644 0.982,0 1.751,-0.811 1.751,-1.644 0,-0.918 -0.663,-1.793 -1.709,-1.793 -1.003,0 -1.686,0.875 -1.686,1.793"
         style="fill:#144a87;fill-opacity:1;fill-rule:nonzero;stroke:none"
         id="path4646" />
      <path
         d="m 431.193,349.543 h 0.043 l 0.577,0.832 c 0.341,0.449 0.961,1.303 1.836,1.303 0.64,0 1.323,-0.342 1.921,-0.961 l -1.067,-1.964 c -0.47,0.235 -0.769,0.363 -1.345,0.363 -0.982,0 -1.943,-0.79 -1.943,-3.096 v -5.273 h -2.84 v 10.675 h 2.818 v -1.879"
         style="fill:#144a87;fill-opacity:1;fill-rule:nonzero;stroke:none"
         id="path4648" />
      <path
         d="m 438.346,347.365 c -0.022,1.431 0.704,2.733 2.327,2.733 1.409,0 1.985,-1.11 1.878,-2.733 z m 6.874,-1.537 c 0.214,3.181 -1.174,5.85 -4.505,5.85 -3.053,0 -5.444,-2.093 -5.444,-5.38 0,-3.523 2.413,-5.808 5.637,-5.808 1.217,0 2.732,0.342 4.184,1.196 l -0.811,1.495 c -0.705,-0.492 -1.815,-0.855 -2.861,-0.855 -1.772,0 -3.181,1.495 -3.117,3.502 h 6.917"
         style="fill:#144a87;fill-opacity:1;fill-rule:nonzero;stroke:none"
         id="path4650" />
      <path
         d="m 381.856,322.096 c -0.618,-0.811 -1.751,-1.388 -3.01,-1.388 -1.729,0 -2.818,1.367 -2.818,2.733 0,1.174 0.469,2.071 1.409,2.69 z m -2.882,5.999 c -1.409,1.303 -1.921,1.964 -1.921,2.733 0,0.726 0.598,1.366 1.601,1.366 0.747,0 1.451,-0.384 1.9,-0.683 l 0.897,1.687 c -0.897,0.598 -1.922,1.003 -3.224,1.003 -2.391,0 -4.035,-1.558 -4.035,-3.373 0,-1.473 1.046,-2.519 1.75,-3.224 -1.644,-0.704 -2.946,-2.263 -2.946,-4.206 0,-1.708 1.388,-4.654 5.487,-4.654 2.178,0 3.694,0.961 4.825,2.071 l 2.264,-2.071 2.22,1.345 -3.053,2.647 c 0.96,1.73 0.918,4.164 0.213,5.444 h 2.199 l 0.747,1.516 h -6.49 l -0.747,-1.516 h 2.007 c 0.854,-1.195 1.024,-3.01 0.576,-4.077 l -4.27,3.992"
         style="fill:#144a87;fill-opacity:1;fill-rule:nonzero;stroke:none"
         id="path4652" />
      <path
         d="m 396.246,324.914 c 0.705,1.964 1.41,3.779 2.029,6.085 h 0.043 c 0.704,-2.306 1.345,-4.121 1.985,-6.085 z M 397.4,333.945 391.315,319 h 2.605 l 1.537,4.078 h 5.294 L 402.139,319 h 3.374 l -5.615,14.945 H 397.4"
         style="fill:#144a87;fill-opacity:1;fill-rule:nonzero;stroke:none"
         id="path4654" />
      <path
         d="m 408.95,327.796 h 0.043 l 0.576,0.833 c 0.341,0.448 0.961,1.302 1.836,1.302 0.641,0 1.324,-0.341 1.922,-0.96 l -1.068,-1.965 c -0.47,0.235 -0.768,0.363 -1.345,0.363 -0.982,0 -1.943,-0.79 -1.943,-3.095 V 319 h -2.839 v 10.675 h 2.818 v -1.879"
         style="fill:#144a87;fill-opacity:1;fill-rule:nonzero;stroke:none"
         id="path4656" />
      <path
         d="m 416.871,327.796 h 0.042 l 0.577,0.833 c 0.341,0.448 0.96,1.302 1.836,1.302 0.64,0 1.323,-0.341 1.921,-0.96 l -1.067,-1.965 c -0.47,0.235 -0.769,0.363 -1.346,0.363 -0.982,0 -1.942,-0.79 -1.942,-3.095 V 319 h -2.84 v 10.675 h 2.819 v -1.879"
         style="fill:#144a87;fill-opacity:1;fill-rule:nonzero;stroke:none"
         id="path4658" />
      <path
         d="m 427.267,325.192 c 0.214,-3.139 -1.259,-4.548 -2.391,-4.548 -0.683,0 -1.281,0.641 -1.281,1.58 0,1.217 0.705,2.028 2.092,2.455 z m -0.042,-4.633 c 0,-0.577 0.064,-1.196 0.277,-1.559 h 3.011 c -0.342,0.747 -0.448,1.751 -0.448,2.605 v 4.355 c 0,3.331 -2.413,3.971 -4.378,3.971 -1.473,0 -2.775,-0.363 -4.098,-1.451 l 0.917,-1.345 c 0.748,0.64 1.602,1.088 2.818,1.088 0.919,0 1.794,-0.619 1.943,-1.601 l -2.519,-0.747 c -2.476,-0.705 -3.95,-1.858 -3.95,-3.886 0,-1.964 1.388,-3.245 3.053,-3.245 0.983,0 1.943,0.662 2.733,1.281 l 0.641,0.534"
         style="fill:#144a87;fill-opacity:1;fill-rule:nonzero;stroke:none"
         id="path4660" />
      <path
         d="m 434.783,328.416 c 0.96,1.024 2.306,1.515 3.65,1.515 2.498,0 3.822,-1.366 3.822,-4.056 V 319 h -2.84 v 6.554 c 0,1.495 -0.661,2.477 -2.134,2.477 -1.388,0 -2.477,-0.918 -2.477,-2.669 V 319 h -2.84 v 10.675 h 2.819 v -1.259"
         style="fill:#144a87;fill-opacity:1;fill-rule:nonzero;stroke:none"
         id="path4662" />
    </g>
  </g>
  <metadata
     id="metadata1178">
    <rdf:RDF>
      <cc:Work
         rdf:about="">
        <dc:title>NHS Ayrshire and Arran logo</dc:title>
      </cc:Work>
    </rdf:RDF>
  </metadata>
</svg>
