<?xml version="1.0" encoding="UTF-8" standalone="no"?>
<!-- Created with Inkscape (http://www.inkscape.org/) -->

<svg
   width="180"
   height="130"
   viewBox="0 0 47.625001 34.395829"
   version="1.1"
   id="svg918"
   inkscape:version="1.2.2 (732a01da63, 2022-12-09)"
   sodipodi:docname="NHS Borders.svg"
   xmlns:inkscape="http://www.inkscape.org/namespaces/inkscape"
   xmlns:sodipodi="http://sodipodi.sourceforge.net/DTD/sodipodi-0.dtd"
   xmlns="http://www.w3.org/2000/svg"
   xmlns:svg="http://www.w3.org/2000/svg"
   xmlns:rdf="http://www.w3.org/1999/02/22-rdf-syntax-ns#"
   xmlns:cc="http://creativecommons.org/ns#"
   xmlns:dc="http://purl.org/dc/elements/1.1/">
  <title
     id="title1180">NHS Borders logo</title>
  <sodipodi:namedview
     id="namedview920"
     pagecolor="#ffffff"
     bordercolor="#000000"
     borderopacity="0.25"
     inkscape:showpageshadow="2"
     inkscape:pageopacity="0.0"
     inkscape:pagecheckerboard="0"
     inkscape:deskcolor="#d1d1d1"
     inkscape:document-units="mm"
     showgrid="false"
     inkscape:zoom="2.3131446"
     inkscape:cx="62.469073"
     inkscape:cy="54.255147"
     inkscape:window-width="1920"
     inkscape:window-height="1002"
     inkscape:window-x="2125"
     inkscape:window-y="-8"
     inkscape:window-maximized="1"
     inkscape:current-layer="layer1" />
  <defs
     id="defs915" />
  <g
     inkscape:label="Layer 1"
     inkscape:groupmode="layer"
     id="layer1"
     transform="translate(-132.35926,-106.61434)">
    <g
       id="g3655"
       transform="matrix(0.35277777,0,0,-0.35277777,15.820183,207.14577)">
      <path
         d="m 433.517,261.151 c -3.943,1.159 -6.276,1.417 -6.276,3.609 0,1.503 1.409,2.62 3.843,2.62 2.896,0 7.975,-2.258 7.975,-2.258 l 2.584,5.98 c 0,0 -4.566,2.68 -10.267,2.68 -7.64,0 -12.557,-4.168 -12.557,-9.667 0,-4.769 3.116,-6.917 9.782,-8.679 3.749,-0.988 6.037,-1.762 6.037,-4.211 0,-1.805 -1.704,-3.136 -3.895,-3.136 -4.922,0 -10.214,2.992 -10.214,2.992 l -2.763,-5.86 c 0,0 4.571,-3.62 11.857,-3.62 8.276,0 13.436,4.339 13.436,10.269 0,4.597 -3.115,7.39 -9.542,9.281"
         style="fill:#144a87;fill-opacity:1;fill-rule:nonzero;stroke:none"
         id="path514" />
      <path
         d="m 362.133,273.198 c -3.72,-0.002 -7.52,0 -7.52,0 v -30.691 h 7.804 l -0.039,18.232 c 0,0 6.098,-10.537 11.523,-18.232 5.27,-0.011 6.506,0 6.506,0 v 30.685 h -7.655 l 0.006,-15.991 c 0,0 -4.282,7.466 -10.625,15.997"
         style="fill:#144a87;fill-opacity:1;fill-rule:nonzero;stroke:none"
         id="path516" />
      <path
         d="m 405.541,242.564 v 13.22 h -11.587 v -13.22 h -7.804 v 30.624 h 7.804 v -11.645 h 11.587 v 11.645 h 7.787 v -30.624 h -7.787"
         style="fill:#144a87;fill-opacity:1;fill-rule:nonzero;stroke:none"
         id="path518" />
      <path
         d="m 397.956,223.816 c -2.538,4.55 -11.191,12.08 -26.558,9.607 -5.836,-0.508 -8.26,-0.873 -11.354,-0.635 -12.235,0.939 -14.367,7.694 -14.482,8.062 h -3.057 c 0,0 1.681,-13.137 15.065,-15.356 3.28,-0.545 10.11,0.101 14.526,0.824 10.846,1.776 19.146,2.06 25.875,-7.243 0,0 0.088,-0.102 0.162,-0.102 0.139,0 0.173,0.102 0.173,0.102 0,0 0.875,1.782 -0.35,4.741"
         style="fill:#00a0e3;fill-opacity:1;fill-rule:nonzero;stroke:none"
         id="path520" />
      <path
         d="m 450.132,240.85 c -0.116,-0.368 -2.379,-7.092 -14.615,-8.032 -3.094,-0.237 -5.518,0.127 -11.355,0.635 -15.236,2.452 -21.686,-5.058 -23.552,-9.141 -1.225,-2.742 -0.554,-5.237 -0.554,-5.237 0,0 0.043,-0.102 0.155,-0.102 0.075,0 0.16,0.102 0.16,0.102 6.728,9.303 12.247,9.05 23.093,7.273 4.417,-0.722 11.248,-1.368 14.527,-0.824 13.384,2.22 15.198,15.326 15.198,15.326 h -3.057"
         style="fill:#00a0e3;fill-opacity:1;fill-rule:nonzero;stroke:none"
         id="path522" />
      <path
         d="m 366.361,205.791 h 1.515 c 1.644,0 2.947,-0.747 2.947,-2.498 0,-1.665 -1.26,-2.54 -2.925,-2.54 h -1.537 z m 1.942,-6.875 c 3.523,0 5.679,1.837 5.679,4.42 0,2.284 -2.071,3.565 -3.928,3.651 v 0.042 c 1.046,0.278 2.989,1.26 2.989,3.651 0,2.029 -1.772,3.182 -4.291,3.182 h -5.402 v -14.946 z m -1.942,13.109 h 1.558 c 1.302,0 2.285,-0.576 2.285,-1.9 0,-1.388 -1.175,-2.498 -2.904,-2.498 h -0.939 v 4.398"
         style="fill:#144a87;fill-opacity:1;fill-rule:nonzero;stroke:none"
         id="path524" />
      <path
         d="m 380.537,200.24 c -2.029,0 -2.584,2.263 -2.584,4.142 0,1.772 0.641,3.886 2.584,3.886 1.985,0 2.604,-2.114 2.604,-3.886 0,-1.879 -0.533,-4.142 -2.604,-4.142 z m 0,-1.58 c 3.352,0 5.615,2.413 5.615,5.722 0,3.459 -2.733,5.465 -5.615,5.465 -2.861,0 -5.594,-2.006 -5.594,-5.465 0,-3.309 2.263,-5.722 5.594,-5.722"
         style="fill:#144a87;fill-opacity:1;fill-rule:nonzero;stroke:none"
         id="path526" />
      <path
         d="m 390.208,207.713 h 0.043 l 0.577,0.832 c 0.341,0.449 0.96,1.302 1.836,1.302 0.64,0 1.323,-0.341 1.921,-0.96 l -1.068,-1.964 c -0.469,0.235 -0.768,0.363 -1.345,0.363 -0.981,0 -1.943,-0.79 -1.943,-3.096 v -5.274 h -2.839 v 10.675 h 2.818 v -1.878"
         style="fill:#144a87;fill-opacity:1;fill-rule:nonzero;stroke:none"
         id="path528" />
      <path
         d="m 399.879,208.139 c 1.708,0 2.584,-1.729 2.584,-3.586 0,-2.135 -0.811,-4.185 -2.712,-4.185 -1.644,0 -2.455,2.007 -2.455,4.078 0,2.071 0.748,3.693 2.583,3.693 z m 2.584,-9.223 h 2.839 v 15.693 h -2.839 v -6.256 h -0.043 c -0.641,0.939 -1.879,1.494 -3.266,1.494 -2.861,0 -4.868,-2.689 -4.868,-5.465 0,-3.416 1.857,-5.722 4.654,-5.722 1.665,0 2.775,0.897 3.48,1.794 h 0.043 v -1.538"
         style="fill:#144a87;fill-opacity:1;fill-rule:nonzero;stroke:none"
         id="path530" />
      <path
         d="m 409.615,205.535 c -0.021,1.43 0.705,2.733 2.327,2.733 1.409,0 1.986,-1.11 1.879,-2.733 z m 6.875,-1.537 c 0.213,3.181 -1.175,5.849 -4.505,5.849 -3.053,0 -5.444,-2.092 -5.444,-5.379 0,-3.523 2.412,-5.808 5.636,-5.808 1.217,0 2.733,0.342 4.184,1.196 l -0.811,1.494 c -0.704,-0.491 -1.815,-0.854 -2.861,-0.854 -1.772,0 -3.181,1.495 -3.117,3.502 h 6.918"
         style="fill:#144a87;fill-opacity:1;fill-rule:nonzero;stroke:none"
         id="path532" />
      <path
         d="m 420.781,207.713 h 0.043 l 0.576,0.832 c 0.342,0.449 0.961,1.302 1.836,1.302 0.641,0 1.324,-0.341 1.922,-0.96 l -1.068,-1.964 c -0.47,0.235 -0.769,0.363 -1.345,0.363 -0.982,0 -1.943,-0.79 -1.943,-3.096 v -5.274 h -2.839 v 10.675 h 2.818 v -1.878"
         style="fill:#144a87;fill-opacity:1;fill-rule:nonzero;stroke:none"
         id="path534" />
      <path
         d="m 431.242,207.584 c -0.64,0.47 -1.302,0.684 -1.815,0.684 -0.64,0 -1.281,-0.363 -1.281,-1.089 0,-0.854 1.025,-1.345 2.221,-2.221 1.515,-1.131 1.964,-2.241 1.964,-3.223 0,-1.495 -1.644,-3.075 -3.993,-3.075 -1.473,0 -2.562,0.513 -3.565,1.217 l 0.897,1.473 c 0.64,-0.512 1.558,-1.024 2.327,-1.024 0.811,0 1.537,0.427 1.537,1.323 0,1.004 -1.11,1.559 -2.135,2.285 -1.217,0.832 -2.049,1.644 -2.049,2.967 0,1.687 1.622,2.946 3.714,2.946 1.175,0 2.327,-0.298 3.096,-0.981 l -0.918,-1.282"
         style="fill:#144a87;fill-opacity:1;fill-rule:nonzero;stroke:none"
         id="path536" />
    </g>
  </g>
  <metadata
     id="metadata1178">
    <rdf:RDF>
      <cc:Work
         rdf:about="">
        <dc:title>NHS Borders logo</dc:title>
      </cc:Work>
    </rdf:RDF>
  </metadata>
</svg>
