<?xml version="1.0" encoding="UTF-8" standalone="no"?>
<!-- Created with Inkscape (http://www.inkscape.org/) -->

<svg
   width="180"
   height="130"
   viewBox="0 0 47.625001 34.395829"
   version="1.1"
   id="svg918"
   inkscape:version="1.2.2 (732a01da63, 2022-12-09)"
   sodipodi:docname="NHS Grampian.svg"
   xmlns:inkscape="http://www.inkscape.org/namespaces/inkscape"
   xmlns:sodipodi="http://sodipodi.sourceforge.net/DTD/sodipodi-0.dtd"
   xmlns="http://www.w3.org/2000/svg"
   xmlns:svg="http://www.w3.org/2000/svg"
   xmlns:rdf="http://www.w3.org/1999/02/22-rdf-syntax-ns#"
   xmlns:cc="http://creativecommons.org/ns#"
   xmlns:dc="http://purl.org/dc/elements/1.1/">
  <title
     id="title1180">NHS Grampian logo</title>
  <sodipodi:namedview
     id="namedview920"
     pagecolor="#ffffff"
     bordercolor="#000000"
     borderopacity="0.25"
     inkscape:showpageshadow="2"
     inkscape:pageopacity="0.0"
     inkscape:pagecheckerboard="0"
     inkscape:deskcolor="#d1d1d1"
     inkscape:document-units="mm"
     showgrid="false"
     inkscape:zoom="2.3488604"
     inkscape:cx="-7.4504215"
     inkscape:cy="102.81582"
     inkscape:window-width="1920"
     inkscape:window-height="1002"
     inkscape:window-x="2125"
     inkscape:window-y="-8"
     inkscape:window-maximized="1"
     inkscape:current-layer="layer1" />
  <defs
     id="defs915" />
  <g
     inkscape:label="Layer 1"
     inkscape:groupmode="layer"
     id="layer1"
     transform="translate(-132.35926,-106.61434)">
    <g
       id="g1089"
       transform="matrix(0.35277777,0,0,-0.35277777,97.14322,305.82848)">
      <path
         d="m 202.996,543.424 c -3.943,1.159 -6.277,1.417 -6.277,3.609 0,1.503 1.409,2.621 3.843,2.621 2.896,0 7.975,-2.258 7.975,-2.258 l 2.584,5.979 c 0,0 -4.566,2.68 -10.266,2.68 -7.641,0 -12.557,-4.167 -12.557,-9.667 0,-4.769 3.115,-6.917 9.781,-8.679 3.749,-0.988 6.037,-1.761 6.037,-4.211 0,-1.805 -1.704,-3.136 -3.894,-3.136 -4.923,0 -10.215,2.992 -10.215,2.992 l -2.763,-5.86 c 0,0 4.571,-3.62 11.857,-3.62 8.276,0 13.436,4.339 13.436,10.269 0,4.597 -3.115,7.39 -9.541,9.281"
         style="fill:#144a87;fill-opacity:1;fill-rule:nonzero;stroke:none"
         id="path212" />
      <path
         d="m 131.611,555.472 c -3.72,-0.003 -7.52,0 -7.52,0 V 524.78 h 7.804 l -0.039,18.232 c 0,0 6.098,-10.536 11.523,-18.232 5.27,-0.011 6.506,0 6.506,0 v 30.685 h -7.655 l 0.006,-15.991 c 0,0 -4.282,7.466 -10.625,15.998"
         style="fill:#144a87;fill-opacity:1;fill-rule:nonzero;stroke:none"
         id="path214" />
      <path
         d="m 175.018,524.837 v 13.22 h -11.586 v -13.22 h -7.804 v 30.624 h 7.804 v -11.645 h 11.586 v 11.645 h 7.788 v -30.624 h -7.788"
         style="fill:#144a87;fill-opacity:1;fill-rule:nonzero;stroke:none"
         id="path216" />
      <path
         d="m 167.433,506.089 c -2.537,4.55 -11.19,12.08 -26.557,9.607 -5.836,-0.508 -8.26,-0.873 -11.354,-0.635 -12.235,0.94 -14.367,7.694 -14.482,8.062 h -3.057 c 0,0 1.681,-13.137 15.065,-15.356 3.279,-0.544 10.11,0.101 14.526,0.824 10.846,1.776 19.146,2.06 25.875,-7.243 0,0 0.088,-0.102 0.162,-0.102 0.139,0 0.172,0.102 0.172,0.102 0,0 0.875,1.782 -0.35,4.741"
         style="fill:#00a0e3;fill-opacity:1;fill-rule:nonzero;stroke:none"
         id="path218" />
      <path
         d="m 219.61,523.123 c -0.116,-0.368 -2.379,-7.092 -14.615,-8.032 -3.094,-0.237 -5.518,0.128 -11.355,0.635 -15.236,2.452 -21.686,-5.057 -23.552,-9.141 -1.225,-2.741 -0.555,-5.237 -0.555,-5.237 0,0 0.043,-0.102 0.156,-0.102 0.075,0 0.159,0.102 0.159,0.102 6.729,9.303 12.248,9.05 23.094,7.273 4.417,-0.722 11.248,-1.368 14.527,-0.824 13.384,2.22 15.198,15.326 15.198,15.326 h -3.057"
         style="fill:#00a0e3;fill-opacity:1;fill-rule:nonzero;stroke:none"
         id="path220" />
      <path
         d="m 135.161,488.017 v -6.17 c -1.601,-0.533 -3.288,-0.918 -4.996,-0.918 -5.166,0 -8.433,3.416 -8.433,7.814 0,4.078 3.245,7.644 8.519,7.644 1.644,0 3.288,-0.513 4.27,-1.153 l -0.961,-1.772 c -0.811,0.427 -2.071,0.79 -3.224,0.79 -3.202,0 -5.401,-2.157 -5.401,-5.551 0,-3.545 2.519,-5.637 5.102,-5.637 0.812,0 1.473,0.086 2.114,0.363 v 4.59 h 3.01"
         style="fill:#144a87;fill-opacity:1;fill-rule:nonzero;stroke:none"
         id="path222" />
      <path
         d="m 139.645,489.982 h 0.042 l 0.577,0.832 c 0.341,0.449 0.961,1.303 1.836,1.303 0.64,0 1.324,-0.342 1.921,-0.961 l -1.067,-1.964 c -0.47,0.235 -0.769,0.363 -1.345,0.363 -0.982,0 -1.943,-0.79 -1.943,-3.096 v -5.274 h -2.84 v 10.675 h 2.819 v -1.878"
         style="fill:#144a87;fill-opacity:1;fill-rule:nonzero;stroke:none"
         id="path224" />
      <path
         d="m 150.255,487.377 c 0.214,-3.139 -1.259,-4.547 -2.391,-4.547 -0.683,0 -1.281,0.64 -1.281,1.579 0,1.217 0.705,2.029 2.092,2.455 z m -0.042,-4.633 c 0,-0.577 0.064,-1.196 0.277,-1.559 h 3.01 c -0.341,0.748 -0.448,1.751 -0.448,2.605 v 4.355 c 0,3.331 -2.412,3.972 -4.377,3.972 -1.473,0 -2.775,-0.363 -4.099,-1.452 l 0.918,-1.345 c 0.748,0.64 1.602,1.089 2.819,1.089 0.917,0 1.793,-0.619 1.942,-1.601 l -2.519,-0.748 c -2.477,-0.704 -3.95,-1.857 -3.95,-3.886 0,-1.964 1.388,-3.245 3.053,-3.245 0.982,0 1.943,0.662 2.733,1.281 l 0.641,0.534"
         style="fill:#144a87;fill-opacity:1;fill-rule:nonzero;stroke:none"
         id="path226" />
      <path
         d="m 157.77,490.601 h 0.043 c 0.726,0.96 2.114,1.516 3.373,1.516 1.345,0 2.498,-0.534 3.139,-1.516 0.897,0.854 2.284,1.494 3.544,1.516 2.412,0.021 3.672,-1.452 3.715,-3.907 v -7.003 h -2.84 v 6.49 c 0,1.238 -0.427,2.519 -1.836,2.519 -1.366,0 -2.22,-0.811 -2.22,-2.668 v -6.363 h -2.84 v 6.512 c 0,1.495 -0.662,2.519 -1.879,2.519 -1.345,0 -2.177,-0.918 -2.177,-2.732 v -6.299 h -2.84 v 10.675 h 2.818 v -1.259"
         style="fill:#144a87;fill-opacity:1;fill-rule:nonzero;stroke:none"
         id="path228" />
      <path
         d="m 178.778,490.409 c 1.623,0 2.435,-1.837 2.435,-3.672 0,-1.879 -0.641,-4.1 -2.541,-4.1 -1.537,0 -2.626,1.516 -2.626,3.758 0,2.455 0.939,4.014 2.732,4.014 z m -2.732,1.451 h -2.84 v -16.012 h 2.84 v 6.661 c 0.79,-0.939 1.9,-1.58 3.203,-1.58 3.053,0 4.974,3.011 4.974,5.829 0,2.348 -1.366,5.359 -4.719,5.359 -1.281,0 -2.668,-0.641 -3.416,-1.73 h -0.042 v 1.473"
         style="fill:#144a87;fill-opacity:1;fill-rule:nonzero;stroke:none"
         id="path230" />
      <path
         d="m 185.461,491.86 h 2.84 v -10.675 h -2.84 z m -0.277,3.203 c 0,0.811 0.683,1.644 1.644,1.644 0.981,0 1.75,-0.811 1.75,-1.644 0,-0.918 -0.661,-1.793 -1.708,-1.793 -1.003,0 -1.686,0.875 -1.686,1.793"
         style="fill:#144a87;fill-opacity:1;fill-rule:nonzero;stroke:none"
         id="path232" />
      <path
         d="m 196.285,487.377 c 0.214,-3.139 -1.259,-4.547 -2.391,-4.547 -0.683,0 -1.281,0.64 -1.281,1.579 0,1.217 0.705,2.029 2.092,2.455 z m -0.042,-4.633 c 0,-0.577 0.064,-1.196 0.277,-1.559 h 3.011 c -0.342,0.748 -0.448,1.751 -0.448,2.605 v 4.355 c 0,3.331 -2.413,3.972 -4.378,3.972 -1.473,0 -2.775,-0.363 -4.098,-1.452 l 0.918,-1.345 c 0.747,0.64 1.601,1.089 2.817,1.089 0.919,0 1.794,-0.619 1.943,-1.601 l -2.519,-0.748 c -2.476,-0.704 -3.95,-1.857 -3.95,-3.886 0,-1.964 1.388,-3.245 3.053,-3.245 0.983,0 1.943,0.662 2.733,1.281 l 0.641,0.534"
         style="fill:#144a87;fill-opacity:1;fill-rule:nonzero;stroke:none"
         id="path234" />
      <path
         d="m 204.014,490.601 c 0.961,1.025 2.306,1.516 3.651,1.516 2.498,0 3.821,-1.367 3.821,-4.057 v -6.875 h -2.839 v 6.555 c 0,1.494 -0.662,2.476 -2.135,2.476 -1.388,0 -2.477,-0.918 -2.477,-2.668 v -6.363 h -2.839 v 10.675 h 2.818 v -1.259"
         style="fill:#144a87;fill-opacity:1;fill-rule:nonzero;stroke:none"
         id="path236" />
    </g>
  </g>
  <metadata
     id="metadata1178">
    <rdf:RDF>
      <cc:Work
         rdf:about="">
        <dc:title>NHS Grampian logo</dc:title>
      </cc:Work>
    </rdf:RDF>
  </metadata>
</svg>
