<?xml version="1.0" encoding="UTF-8" standalone="no"?>
<svg
   id="Layer_1"
   width="1030"
   height="170"
   viewBox="0 0 1030 170"
   version="1.1"
   sodipodi:docname="NHS-SA_LIEducation_banner - Copy.svg"
   inkscape:version="1.3.2 (091e20e, 2023-11-25, custom)"
   xmlns:inkscape="http://www.inkscape.org/namespaces/inkscape"
   xmlns:sodipodi="http://sodipodi.sourceforge.net/DTD/sodipodi-0.dtd"
   xmlns="http://www.w3.org/2000/svg"
   xmlns:svg="http://www.w3.org/2000/svg"
   xmlns:rdf="http://www.w3.org/1999/02/22-rdf-syntax-ns#"
   xmlns:cc="http://creativecommons.org/ns#"
   xmlns:dc="http://purl.org/dc/elements/1.1/">
  <title
     id="title1">NHS Scotland Academy, Learning and Innovation - Learning and Education Workforce banner</title>
  <sodipodi:namedview
     id="namedview39"
     pagecolor="#ffffff"
     bordercolor="#000000"
     borderopacity="0.25"
     inkscape:showpageshadow="2"
     inkscape:pageopacity="0.0"
     inkscape:pagecheckerboard="0"
     inkscape:deskcolor="#d1d1d1"
     inkscape:zoom="0.64736747"
     inkscape:cx="559.18781"
     inkscape:cy="84.959474"
     inkscape:window-width="1920"
     inkscape:window-height="1002"
     inkscape:window-x="2125"
     inkscape:window-y="-8"
     inkscape:window-maximized="1"
     inkscape:current-layer="g13" />
  <defs
     id="defs1" />
  <rect
     width="1030"
     height="170"
     style="fill:#004380;fill-opacity:1;stroke-width:0.999999;stroke:none"
     id="rect41"
     x="0"
     y="0"
     inkscape:label="rec_background"
     clip-path="url(#clippath)" />
  <g
     id="Layer_1-2"
     data-name="Layer_1"
     transform="translate(2)">
    <g
       id="g38"
       clip-path="url(#clippath)"
       transform="translate(0,70)">
      <rect
         width="1030"
         height="120.47879"
         style="fill:#203864;fill-opacity:1;stroke-width:0.999999"
         id="rect2"
         x="-2"
         y="-48.151516"
         inkscape:label="rec_foreground" />
      <path
         d="M 177.28485,-36.60303 V 59.59273"
         style="fill:none;stroke:#ffffff;stroke-width:5;stroke-miterlimit:8;stroke-dasharray:none;stroke-opacity:1"
         id="path2"
         inkscape:label="line_vertical" />
      <g
         style="isolation:isolate;stroke-width:3.20388"
         id="g13"
         transform="matrix(0.31212121,0,0,0.31212121,83.608532,-48.151515)"
         inkscape:label="NHS-SALI">
        <text
           xml:space="preserve"
           style="font-size:94px;font-family:Arial;-inkscape-font-specification:Arial;fill:#ffffff;stroke-width:3.20388;stroke-linecap:round;paint-order:fill markers stroke"
           x="797.8515"
           y="217.32617"
           id="text39"><tspan
             sodipodi:role="line"
             id="tspan39"
             x="797.8515"
             y="217.32617"
             style="font-style:normal;font-variant:normal;font-weight:bold;font-stretch:normal;font-size:94px;font-family:Arial;-inkscape-font-specification:'Arial Bold';fill:#ffffff;fill-opacity:1;stroke-width:3.20388">Learning and Education Workforce</tspan></text>
      </g>
      <g
         id="g40"
         inkscape:label="NES_Logo"
         transform="matrix(0.31212121,0,0,0.31212121,0,-48.151515)"
         style="stroke-width:3.20388">
        <g
           id="g21"
           style="stroke-width:3.20388">
          <path
             d="m 193.89999,201.2 h 19.9 v 5 h -14 v 8.39999 h 11.89999 v 5 h -11.89999 v 9.8 h 14.5 v 5 h -20.4 z"
             style="fill:#ffffff;stroke-width:3.20388"
             id="path13" />
          <path
             d="m 229.39999,208.8 c 2.80001,0 4.60001,1.10001 6.5,2.7 l -0.19999,-4 v -9 h 5.8 v 35.7 h -4.8 l -0.4,-2.7 h -0.19999 c -1.80001,1.8 -4.30001,3.3 -7,3.3 -6.2,0 -10.2,-4.8 -10.2,-13 0,-8.19999 5.10001,-13 10.5,-13 z M 230.5,230.10001 c 1.89999,0 3.5,-0.9 5.2,-2.80001 v -11.6 c -1.7,-1.5 -3.4,-2.10001 -5.10001,-2.10001 -3.2,0 -5.8,3 -5.8,8.2 0,5.19999 2,8.19999 5.6,8.19999 z"
             style="fill:#ffffff;stroke-width:3.20388"
             id="path14" />
          <path
             d="m 248.7,209.39999 h 5.8 V 224.2 c 0,4.1 1.2,5.6 3.79999,5.6 2.59997,0 3.6,-1 5.5,-3.39999 v -17 h 5.79999 v 24.8 h -4.79999 l -0.5,-3.6 h -0.20001 c -2.20002,2.6 -4.60001,4.19999 -8,4.19999 -5.30001,0 -7.60001,-3.6 -7.60001,-9.89999 V 209.3 Z"
             style="fill:#ffffff;stroke-width:3.20388"
             id="path15" />
          <path
             d="m 287.79999,208.8 c 3.20001,0 5.6,1.30001 7.29999,2.9 l -2.79999,3.69999 c -1.29999,-1.19999 -2.60001,-1.8 -4.20001,-1.8 -4,0 -6.79999,3.3 -6.79999,8.3 0,5 2.70001,8.2 6.6,8.2 3.9,0 3.70002,-1 5.10001,-2.10001 l 2.39999,3.7 c -2.29998,2.10001 -5.29998,3.2 -8.1,3.2 -6.79999,0 -12,-4.8 -12,-13 0,-8.2 5.79999,-13 12.39999,-13 z"
             style="fill:#ffffff;stroke-width:3.20388"
             id="path16" />
          <path
             d="m 308.29999,208.8 c 2.6,0 4.70001,1 6.70001,3 h 0.20001 l 0.5,-2.39999 h 4.70001 v 24.8 h -4.79998 l -0.4,-2.69999 h -0.20001 c -1.79999,1.8 -4.29999,3.3 -7,3.3 -6.20001,0 -10.20001,-4.8 -10.20001,-13 0,-8.2 5.20001,-13 10.70001,-13 z m 1,21.30001 c 1.89999,0 3.5,-0.9 5.20001,-2.80001 v -11.6 c -1.70001,-1.5 -3.39999,-2.10001 -5.10001,-2.10001 -3.20001,0 -5.79998,3 -5.79998,8.2 0,5.19999 2,8.19999 5.6,8.19999 z"
             style="fill:#ffffff;stroke-width:3.20388"
             id="path17" />
          <path
             d="M 328.5,214 H 325 v -4.3 l 3.79999,-0.30001 0.70001,-6.8 h 4.89999 v 6.8 h 6.29999 V 214 h -6.29999 v 11.8 c 0,2.9 1.10001,4.30001 3.5,4.30001 2.4,0 1.9,-0.30001 2.60001,-0.60001 l 1,4.3 c -1.39999,0.5 -3.10001,0.9 -5.10001,0.9 -5.79998,0 -7.89999,-3.60001 -7.89999,-9 v -11.80001 z"
             style="fill:#ffffff;stroke-width:3.20388"
             id="path18" />
          <path
             d="m 345.29999,201.8 c 0,-2 1.5,-3.3 3.6,-3.3 2.10001,0 3.60001,1.39999 3.60001,3.3 0,1.90001 -1.5,3.30001 -3.60001,3.30001 -2.1,0 -3.6,-1.4 -3.6,-3.30001 z m 0.6,7.59999 h 5.79999 V 234.2 h -5.79999 z"
             style="fill:#ffffff;stroke-width:3.20388"
             id="path19" />
          <path
             d="m 369.29999,208.8 c 6.20001,0 11.79999,4.80001 11.79999,13 0,8.2 -5.60001,13 -11.79999,13 -6.19998,0 -11.79999,-4.8 -11.79999,-13 0,-8.19999 5.60001,-13 11.79999,-13 z m 0,21.30001 c 3.6,0 5.89999,-3.30001 5.89999,-8.2 0,-4.89999 -2.20001,-8.3 -5.89999,-8.3 -3.69998,0 -5.79999,3.3 -5.79999,8.3 0,5 2.20001,8.2 5.79999,8.2 z"
             style="fill:#ffffff;stroke-width:3.20388"
             id="path20" />
          <path
             d="m 386.89999,209.39999 h 4.79999 l 0.4,3.30001 h 0.20001 c 2.20001,-2.2 4.79999,-3.9 8.1,-3.9 5.29999,0 7.60001,3.60001 7.60001,9.9 v 15.6 h -5.79999 v -14.8 c 0,-4.10001 -1.20001,-5.60001 -3.89999,-5.60001 -2.69998,0 -3.60001,1.10001 -5.70001,3.10001 v 17.3 h -5.79999 v -24.8 z"
             style="fill:#ffffff;stroke-width:3.20388"
             id="path21" />
        </g>
        <g
           id="g29"
           style="stroke-width:3.20388">
          <path
             d="m 207.89999,317 c 2.4,2.20001 5.60001,3.70001 8.60001,3.70001 3,0 5.8,-1.70001 5.8,-4.20001 0,-2.5 -2.1,-3.60001 -5.19999,-4.89999 l -4.5,-2 c -3.30001,-1.4 -6.7,-3.9 -6.7,-8.79999 0,-4.9 4.7,-9.29999 11.10001,-9.29999 6.4,0 7.6,1.60001 10.19999,4.20001 l -3,3.70001 c -2.1,-1.79998 -4.3,-2.79998 -7.19999,-2.79998 -2.9,0 -5.2,1.5 -5.2,3.89999 0,2.39999 2.5,3.5 5.3,4.70001 l 4.4,1.9 c 3.89999,1.70001 6.69999,4.1 6.69999,8.89999 0,4.79999 -4.39999,9.79999 -11.89999,9.79999 -7.5,0 -8.7,-1.79999 -11.9,-4.9 l 3.4,-4 z"
             style="fill:#ffffff;stroke-width:3.20388"
             id="path22" />
          <path
             d="m 244.60001,299.79999 c 3.19999,0 5.6,1.29999 7.3,2.89999 l -2.8,3.70001 c -1.30001,-1.20001 -2.60001,-1.79998 -4.2,-1.79998 -4,0 -6.8,3.29998 -6.8,8.29998 0,5 2.69999,8.20002 6.6,8.20002 3.90001,0 3.7,-1 5.10001,-2.10001 l 2.39999,3.70001 c -2.3,2.10001 -5.3,3.20001 -8.1,3.20001 -6.80001,0 -12,-4.79998 -12,-13 0,-8.20001 5.8,-13 12.39999,-13 z"
             style="fill:#ffffff;stroke-width:3.20388"
             id="path23" />
          <path
             d="m 266.10001,299.79999 c 6.20001,0 11.79998,4.79999 11.79998,13 0,8.20001 -5.6,13 -11.79998,13 -6.19999,0 -11.80001,-4.79999 -11.80001,-13 0,-8.20001 5.59999,-13 11.80001,-13 z m 0,21.30002 c 3.6,0 5.89999,-3.29999 5.89999,-8.20002 0,-4.90002 -2.20001,-8.29998 -5.89999,-8.29998 -3.69999,0 -5.79999,3.29998 -5.79999,8.29998 0,5 2.20001,8.20002 5.79999,8.20002 z"
             style="fill:#ffffff;stroke-width:3.20388"
             id="path24" />
          <path
             d="M 284.5,305 H 281 v -4.29999 l 3.79999,-0.29999 0.70001,-6.79998 h 4.89999 v 6.79998 h 6.29999 v 4.60001 h -6.29999 v 11.79999 c 0,2.89999 1.10001,4.29999 3.5,4.29999 2.4,0 1.9,-0.29999 2.60001,-0.60001 l 1,4.29999 c -1.39999,0.5 -3.10001,0.89999 -5.10001,0.89999 -5.79998,0 -7.89999,-3.6 -7.89999,-9 v -11.79999 z"
             style="fill:#ffffff;stroke-width:3.20388"
             id="path25" />
          <path
             d="m 301.89999,289.5 h 5.79999 v 29.60001 c 0,1.39999 0.70001,1.89999 1.29999,1.89999 0.59998,0 0.5,0 0.89999,-0.10001 l 0.79999,4.29999 c -0.70001,0.29999 -1.70001,0.5 -3.1,0.5 -4.10001,0 -5.70002,-2.70001 -5.70002,-7 v -29.29999 z"
             style="fill:#ffffff;stroke-width:3.20388"
             id="path26" />
          <path
             d="m 324.79999,299.79999 c 2.6,0 4.70001,1 6.70001,3 h 0.20001 l 0.5,-2.4 h 4.70001 v 24.79999 h -4.79998 l -0.4,-2.70001 h -0.20001 c -1.79999,1.79999 -4.29999,3.29999 -7,3.29999 -6.20001,0 -10.20001,-4.79999 -10.20001,-13 0,-8.20001 5.20001,-13 10.70001,-13 z M 325.70001,321 c 1.9,0 3.5,-0.89999 5.20001,-2.79999 v -11.6 c -1.70001,-1.5 -3.39999,-2.10001 -5.1,-2.10001 -3.20001,0 -5.79999,3 -5.79999,8.20001 0,5.20001 2,8.20001 5.60001,8.20001 z"
             style="fill:#ffffff;stroke-width:3.20388"
             id="path27" />
          <path
             d="m 344.10001,300.39999 h 4.79998 l 0.4,3.29999 H 349.5 c 2.20001,-2.20001 4.79999,-3.89999 8.10001,-3.89999 5.29998,0 7.6,3.6 7.6,9.89999 v 15.60001 h -5.79999 V 310.5 c 0,-4.10001 -1.20001,-5.60001 -3.89999,-5.60001 -2.69998,0 -3.60001,1.10001 -5.70001,3.10001 v 17.29999 h -5.79999 V 300.5 Z"
             style="fill:#ffffff;stroke-width:3.20388"
             id="path28" />
          <path
             d="m 381.39999,299.79999 c 2.79999,0 4.60001,1.1 6.5,2.70001 l -0.20001,-4 v -9 h 5.79999 v 35.70001 h -4.79999 L 388.29999,322.5 h -0.20001 c -1.79999,1.79999 -4.29999,3.29999 -7,3.29999 -6.20002,0 -10.20002,-4.79999 -10.20002,-13 0,-8.20001 5.10001,-13 10.5,-13 z M 382.5,321 c 1.89999,0 3.5,-0.89999 5.20001,-2.79999 v -11.6 c -1.70001,-1.5 -3.39999,-2.10001 -5.1,-2.10001 -3.20002,0 -5.79999,3 -5.79999,8.20001 0,5.20001 2,8.20001 5.6,8.20001 z"
             style="fill:#ffffff;stroke-width:3.20388"
             id="path29" />
        </g>
        <path
           d="M 386.29999,86.5 C 376.69998,83.699997 371,83 371,77.699997 c 0,-5.300003 3.39999,-6.400002 9.39999,-6.400002 6,0 19.5,5.5 19.5,5.5 l 6.29999,-14.599998 c 0,0 -11.20001,-6.599998 -25.1,-6.599998 -13.9,0 -30.70002,10.199997 -30.70002,23.599998 0,13.400001 7.60001,16.900002 23.9,21.199993 9.20001,2.40001 14.79999,4.30001 14.79999,10.30001 0,6 -4.20002,7.69999 -9.5,7.69999 -12,0 -25,-7.3 -25,-7.3 l -6.79999,14.3 c 0,0 11.20001,8.9 29,8.9 17.79999,0 32.89999,-10.6 32.89999,-25.1 0,-14.5 -7.6,-18.099998 -23.29999,-22.700005 z"
           style="fill:#ffffff;stroke-width:3.20388"
           id="path30" />
        <path
           d="m 211.8,57.099998 h -18.39999 v 75.000012 h 19.10001 V 87.500008 c 0,0 14.8,25.799992 28.1,44.600002 h 15.90001 V 57.099998 h -18.7 v 39.099998 c 0,0 -10.5,-18.300003 -26,-39.099998 z"
           style="fill:#ffffff;stroke-width:3.20388"
           id="path31" />
        <path
           d="M 317.89999,132 V 99.699997 H 289.60001 V 132 H 270.5 V 57.099998 h 19.10001 v 28.5 h 28.29998 v -28.5 h 19 V 132 Z"
           style="fill:#ffffff;stroke-width:3.20388"
           id="path32" />
        <g
           id="g34"
           style="stroke-width:3.20388">
          <path
             d="M 299.39999,177.8 C 293.19998,166.7 272,148.3 234.5,154.3 c -14.3,1.2 -20.2,2.10001 -27.8,1.60001 -29.9,-2.3 -35.09999,-18.8 -35.40001,-19.7 h -7.5 c 0,0 4.1,32.10001 36.8,37.5 8,1.30001 24.7,-0.19999 35.5,-2 26.49999,-4.3 46.8,-5 63.3,17.7 0,0 0.20002,0.2 0.4,0.2 0.29999,0 0.39999,-0.2 0.39999,-0.2 0,0 2.10001,-4.39999 -0.89999,-11.60001 z"
             style="fill:#ffffff;stroke-width:3.20388"
             id="path33" />
          <path
             d="m 427,136.2 c -0.29999,0.89999 -5.79999,17.3 -35.70001,19.6 -7.60001,0.60001 -13.5,-0.3 -27.79999,-1.6 -37.29999,-6 -53,12.39999 -57.60001,22.3 -3,6.7 -1.39999,12.8 -1.39999,12.8 0,0 0.10001,0.2 0.39999,0.2 0.29999,0 0.4,-0.2 0.4,-0.2 16.39999,-22.69999 29.89999,-22.1 56.5,-17.8 10.79999,1.8 27.5,3.3 35.5,2 C 430,168.10001 434.5,136 434.5,136 H 427 Z"
             style="fill:#ffffff;stroke-width:3.20388"
             id="path34" />
        </g>
        <g
           id="g37"
           style="stroke-width:3.20388">
          <path
             d="m 289.39999,248.39999 c -0.89999,-0.39999 -1.89999,-0.6 -2.70001,-0.6 -2,0 -3.1,1.3 -3.1,4.19999 v 2.7 h 4.89999 v 4.60001 h -4.89999 V 279.5 h -5.79999 V 259.29999 H 274.5 v -4.30001 l 3.29999,-0.3 v -2.6 c 0,-5.2 2.39999,-8.9 8.20001,-8.9 5.80002,0 3.39999,0.4 4.60001,0.9 l -1.10001,4.3 z"
             style="fill:#ffffff;stroke-width:3.20388"
             id="path35" />
          <path
             d="m 302.39999,254.10001 c 6.20002,0 11.79999,4.79998 11.79999,13 0,8.20001 -5.6,13 -11.79999,13 -6.19998,0 -11.79998,-4.79999 -11.79998,-13 0,-8.20002 5.6,-13 11.79998,-13 z m 0,21.29998 c 3.60001,0 5.9,-3.29998 5.9,-8.20001 0,-4.90002 -2.20001,-8.29999 -5.9,-8.29999 -3.69998,0 -5.79998,3.29999 -5.79998,8.29999 0,5 2.20001,8.20001 5.79998,8.20001 z"
             style="fill:#ffffff;stroke-width:3.20388"
             id="path36" />
          <path
             d="m 320,254.7 h 4.79999 l 0.39999,4.40001 h 0.20001 c 1.79999,-3.2 4.4,-5 7,-5 2.60001,0 2.10001,0.19999 2.79999,0.5 l -1,5.1 c -0.89999,-0.29999 -1.5,-0.39999 -2.6,-0.39999 -2,0 -4.29999,1.39999 -5.9,5.1 v 15.20002 h -5.79999 v -24.80001 z"
             style="fill:#ffffff;stroke-width:3.20388"
             id="path37" />
        </g>
      </g>
      <g
         id="g41"
         style="display:none;stroke-width:2.08645"
         inkscape:label="barchart"
         transform="matrix(0.47927654,0,0,0.47929115,-544.05983,-96.315333)">
        <rect
           style="display:inline;fill:#ffffff;fill-opacity:1;stroke:#ffffff;stroke-width:2.08645;stroke-linecap:round;stroke-opacity:1;paint-order:fill markers stroke"
           id="rect40-2-0-3"
           width="33.649307"
           height="187.72438"
           x="3221.1665"
           y="197.77562"
           clip-path="url(#clippath)"
           inkscape:label="rec_4" />
        <rect
           style="display:inline;fill:#ffffff;fill-opacity:1;stroke:#ffffff;stroke-width:2.08644;stroke-linecap:round;stroke-opacity:1;paint-order:fill markers stroke"
           id="rect40-2-0"
           width="33.649307"
           height="128.12094"
           x="3166.9438"
           y="257.37906"
           clip-path="url(#clippath)"
           inkscape:label="rec_3" />
        <rect
           style="fill:#ffffff;fill-opacity:1;stroke:#ffffff;stroke-width:2.08645;stroke-linecap:round;stroke-opacity:1;paint-order:fill markers stroke"
           id="rect40-2"
           width="33.649307"
           height="143.90802"
           x="3112.7212"
           y="241.59198"
           clip-path="url(#clippath)"
           inkscape:label="rec_2" />
        <rect
           style="display:inline;fill:#ffffff;fill-opacity:1;stroke:#ffffff;stroke-width:2.08645;stroke-linecap:round;stroke-opacity:1;paint-order:fill markers stroke"
           id="rect40"
           width="33.649307"
           height="80.854134"
           x="3058.4985"
           y="304.64587"
           clip-path="url(#clippath)"
           inkscape:label="rec_1" />
      </g>
    </g>
  </g>
  <metadata
     id="metadata1">
    <rdf:RDF>
      <cc:Work
         rdf:about="">
        <dc:title>NHS Scotland Academy, Learning and Innovation - Learning and Education Workforce banner</dc:title>
      </cc:Work>
    </rdf:RDF>
  </metadata>
</svg>
