<?xml version="1.0" encoding="UTF-8" standalone="no"?>
<svg
   id="Layer_1"
   width="3300"
   height="386"
   viewBox="0 0 3300 386"
   version="1.1"
   sodipodi:docname="NHS-SA_LI_banner_2.svg"
   inkscape:version="1.3.2 (091e20e, 2023-11-25, custom)"
   xmlns:inkscape="http://www.inkscape.org/namespaces/inkscape"
   xmlns:sodipodi="http://sodipodi.sourceforge.net/DTD/sodipodi-0.dtd"
   xmlns="http://www.w3.org/2000/svg"
   xmlns:svg="http://www.w3.org/2000/svg">
  <sodipodi:namedview
     id="namedview39"
     pagecolor="#ffffff"
     bordercolor="#000000"
     borderopacity="0.25"
     inkscape:showpageshadow="2"
     inkscape:pageopacity="0.0"
     inkscape:pagecheckerboard="0"
     inkscape:deskcolor="#d1d1d1"
     inkscape:zoom="0.74085069"
     inkscape:cx="2767.0893"
     inkscape:cy="93.136176"
     inkscape:window-width="1920"
     inkscape:window-height="1002"
     inkscape:window-x="-8"
     inkscape:window-y="-8"
     inkscape:window-maximized="1"
     inkscape:current-layer="g41" />
  <defs
     id="defs1" />
  <g
     id="Layer_1-2"
     data-name="Layer_1">
    <g
       id="g38"
       style="clip-path:url(#clippath)"
       clip-path="url(#clippath)">
      <rect
         width="3300"
         height="386"
         style="fill:#203864;fill-opacity:1"
         id="rect2"
         sodipodi:insensitive="true"
         x="0"
         y="0"
         inkscape:label="rec_background" />
      <path
         d="M568,37v308.200012"
         style="fill:none;stroke:#ffffff;stroke-miterlimit:8;stroke-width:16px;stroke-opacity:1"
         id="path2"
         inkscape:label="line_vertical" />
      <g
         style="isolation:isolate"
         id="g13"
         transform="translate(-104)"
         inkscape:label="NHS-SALI">
        <text
           xml:space="preserve"
           style="font-size:94px;font-family:Arial;-inkscape-font-specification:Arial;fill:#ffffff;stroke-linecap:round;paint-order:fill markers stroke"
           x="797.8515"
           y="217.32617"
           id="text39"><tspan
             sodipodi:role="line"
             id="tspan39"
             x="797.8515"
             y="217.32617"
             style="font-style:normal;font-variant:normal;font-weight:bold;font-stretch:normal;font-size:94px;font-family:Arial;-inkscape-font-specification:'Arial Bold';fill:#ffffff;fill-opacity:1">NHS Scotland Academy, Learning &amp; Innovation</tspan></text>
      </g>
      <g
         id="g40"
         inkscape:label="NES_Logo">
        <g
           id="g21">
          <path
             d="M193.899994,201.199997h19.899994v5h-14v8.399994h11.899994v5h-11.899994v9.800003h14.5v5h-20.399994v-33.199997Z"
             style="fill: #fff;"
             id="path13" />
          <path
             d="M229.399994,208.800003c2.800003,0,4.600006,1.100006,6.5,2.699997l-.199997-4v-9h5.800003v35.699997h-4.800003l-.399994-2.699997h-.199997c-1.800003,1.800003-4.300003,3.300003-7,3.300003-6.199997,0-10.199997-4.800003-10.199997-13s5.100006-13,10.5-13h-.000015ZM230.5,230.100006c1.899994,0,3.5-.899994,5.199997-2.800003v-11.600006c-1.699997-1.5-3.399994-2.100006-5.100006-2.100006-3.199997,0-5.800003,3-5.800003,8.199997s2,8.199997,5.600006,8.199997l.100006.100021Z"
             style="fill: #fff;"
             id="path14" />
          <path
             d="M248.699997,209.399994h5.800003v14.800003c0,4.100006,1.199997,5.600006,3.799988,5.600006,2.599976,0,3.600006-1,5.5-3.399994v-17h5.799988v24.800003h-4.799988l-.5-3.600006h-.200012c-2.200012,2.600006-4.600006,4.199997-8,4.199997-5.300003,0-7.600006-3.600006-7.600006-9.899994v-15.600006l.200027.099991Z"
             style="fill: #fff;"
             id="path15" />
          <path
             d="M287.799988,208.800003c3.200012,0,5.600006,1.300003,7.299988,2.899994l-2.799988,3.699997c-1.299988-1.199997-2.600006-1.800003-4.200012-1.800003-4,0-6.799988,3.300003-6.799988,8.300003s2.700012,8.199997,6.600006,8.199997,3.700012-1,5.100006-2.100006l2.399994,3.699997c-2.299988,2.100006-5.299988,3.199997-8.100006,3.199997-6.799988,0-12-4.800003-12-13s5.799988-13,12.399994-13l.100006-.099976Z"
             style="fill: #fff;"
             id="path16" />
          <path
             d="M308.299988,208.800003c2.600006,0,4.700012,1,6.700012,3h.200012l.5-2.399994h4.700012v24.800003h-4.799988l-.399994-2.699997h-.200012c-1.799988,1.800003-4.299988,3.300003-7,3.300003-6.200012,0-10.200012-4.800003-10.200012-13s5.200012-13,10.700012-13l-.200043-.000015ZM309.299988,230.100006c1.899994,0,3.5-.899994,5.200012-2.800003v-11.600006c-1.700012-1.5-3.399994-2.100006-5.100006-2.100006-3.200012,0-5.799988,3-5.799988,8.199997s2,8.199997,5.600006,8.199997l.099976.100021Z"
             style="fill: #fff;"
             id="path17" />
          <path
             d="M328.5,214h-3.5v-4.300003l3.799988-.300003.700012-6.800003h4.899994v6.800003h6.299988v4.600006h-6.299988v11.800003c0,2.899994,1.100006,4.300003,3.5,4.300003s1.899994-.300003,2.600006-.600006l1,4.300003c-1.399994.5-3.100006.899994-5.100006.899994-5.799988,0-7.899994-3.600006-7.899994-9v-11.800003.100006Z"
             style="fill: #fff;"
             id="path18" />
          <path
             d="M345.299988,201.800003c0-2,1.5-3.300003,3.600006-3.300003s3.600006,1.399994,3.600006,3.300003-1.5,3.300003-3.600006,3.300003-3.600006-1.399994-3.600006-3.300003ZM345.899994,209.399994h5.799988v24.800003h-5.799988v-24.800003Z"
             style="fill: #fff;"
             id="path19" />
          <path
             d="M369.299988,208.800003c6.200012,0,11.799988,4.800003,11.799988,13s-5.600006,13-11.799988,13-11.799988-4.800003-11.799988-13,5.600006-13,11.799988-13ZM369.299988,230.100006c3.600006,0,5.899994-3.300003,5.899994-8.199997s-2.200012-8.300003-5.899994-8.300003-5.799988,3.300003-5.799988,8.300003,2.200012,8.199997,5.799988,8.199997Z"
             style="fill: #fff;"
             id="path20" />
          <path
             d="M386.899994,209.399994h4.799988l.399994,3.300003h.200012c2.200012-2.199997,4.799988-3.899994,8.100006-3.899994,5.299988,0,7.600006,3.600006,7.600006,9.899994v15.600006h-5.799988v-14.800003c0-4.100006-1.200012-5.600006-3.899994-5.600006s-3.600006,1.100006-5.700012,3.100006v17.300003h-5.799988v-24.800003l.099976-.100006Z"
             style="fill: #fff;"
             id="path21" />
        </g>
        <g
           id="g29">
          <path
             d="M207.899994,317c2.399994,2.200012,5.600006,3.700012,8.600006,3.700012s5.800003-1.700012,5.800003-4.200012-2.100006-3.600006-5.199997-4.899994l-4.5-2c-3.300003-1.399994-6.699997-3.899994-6.699997-8.799988s4.699997-9.299988,11.100006-9.299988,7.600006,1.600006,10.199997,4.200012l-3,3.700012c-2.100006-1.799988-4.300003-2.799988-7.199997-2.799988s-5.199997,1.5-5.199997,3.899994,2.5,3.5,5.300003,4.700012l4.399994,1.899994c3.899994,1.700012,6.699997,4.100006,6.699997,8.899994s-4.399994,9.799988-11.899994,9.799988-8.699997-1.799988-11.899994-4.899994l3.399994-4,.099976.099945Z"
             style="fill: #fff;"
             id="path22" />
          <path
             d="M244.600006,299.799988c3.199997,0,5.600006,1.299988,7.300003,2.899994l-2.800003,3.700012c-1.300003-1.200012-2.600006-1.799988-4.199997-1.799988-4,0-6.800003,3.299988-6.800003,8.299988s2.699997,8.200012,6.600006,8.200012,3.699997-1,5.100006-2.100006l2.399994,3.700012c-2.300003,2.100006-5.300003,3.200012-8.100006,3.200012-6.800003,0-12-4.799988-12-13s5.800003-13,12.399994-13l.100006-.100037Z"
             style="fill: #fff;"
             id="path23" />
          <path
             d="M266.100006,299.799988c6.200012,0,11.799988,4.799988,11.799988,13s-5.600006,13-11.799988,13-11.800003-4.799988-11.800003-13,5.599991-13,11.800003-13ZM266.100006,321.100006c3.600006,0,5.899994-3.299988,5.899994-8.200012s-2.200012-8.299988-5.899994-8.299988-5.799988,3.299988-5.799988,8.299988,2.200012,8.200012,5.799988,8.200012Z"
             style="fill: #fff;"
             id="path24" />
          <path
             d="M284.5,305h-3.5v-4.299988l3.799988-.299988.700012-6.799988h4.899994v6.799988h6.299988v4.600006h-6.299988v11.799988c0,2.899994,1.100006,4.299988,3.5,4.299988s1.899994-.299988,2.600006-.600006l1,4.299988c-1.399994.5-3.100006.899994-5.100006.899994-5.799988,0-7.899994-3.600006-7.899994-9v-11.799988.100006Z"
             style="fill: #fff;"
             id="path25" />
          <path
             d="M301.899994,289.5h5.799988v29.600006c0,1.399994.700012,1.899994,1.299988,1.899994s.5,0,.899994-.100006l.799988,4.299988c-.700012.299988-1.700012.5-3.100006.5-4.100006,0-5.700012-2.700012-5.700012-7v-29.299988l.000061.100006Z"
             style="fill: #fff;"
             id="path26" />
          <path
             d="M324.799988,299.799988c2.600006,0,4.700012,1,6.700012,3h.200012l.5-2.399994h4.700012v24.799988h-4.799988l-.399994-2.700012h-.200012c-1.799988,1.799988-4.299988,3.299988-7,3.299988-6.200012,0-10.200012-4.799988-10.200012-13s5.200012-13,10.700012-13l-.200043.000031ZM325.700012,321c1.899994,0,3.5-.899994,5.200012-2.799988v-11.600006c-1.700012-1.5-3.399994-2.100006-5.100006-2.100006-3.200012,0-5.799988,3-5.799988,8.200012s2,8.200012,5.600006,8.200012l.099976.099976Z"
             style="fill: #fff;"
             id="path27" />
          <path
             d="M344.100006,300.399994h4.799988l.399994,3.299988h.200012c2.200012-2.200012,4.799988-3.899994,8.100006-3.899994,5.299988,0,7.600006,3.600006,7.600006,9.899994v15.600006h-5.799988v-14.799988c0-4.100006-1.200012-5.600006-3.899994-5.600006s-3.600006,1.100006-5.700012,3.100006v17.299988h-5.799988v-24.799988l.099976-.100006Z"
             style="fill: #fff;"
             id="path28" />
          <path
             d="M381.399994,299.799988c2.799988,0,4.600006,1.100006,6.5,2.700012l-.200012-4v-9h5.799988v35.700012h-4.799988l-.399994-2.700012h-.200012c-1.799988,1.799988-4.299988,3.299988-7,3.299988-6.200012,0-10.200012-4.799988-10.200012-13s5.100006-13,10.5-13h.000031ZM382.5,321c1.899994,0,3.5-.899994,5.200012-2.799988v-11.600006c-1.700012-1.5-3.399994-2.100006-5.100006-2.100006-3.200012,0-5.799988,3-5.799988,8.200012s2,8.200012,5.600006,8.200012l.099976.099976Z"
             style="fill: #fff;"
             id="path29" />
        </g>
        <path
           d="M386.299988,86.5c-9.600006-2.800003-15.299988-3.5-15.299988-8.800003s3.399994-6.400002,9.399994-6.400002,19.5,5.5,19.5,5.5l6.299988-14.599998s-11.200012-6.599998-25.100006-6.599998-30.700012,10.199997-30.700012,23.599998,7.600006,16.900002,23.899994,21.199997c9.200012,2.400002,14.799988,4.300003,14.799988,10.300003s-4.200012,7.699997-9.5,7.699997c-12,0-25-7.300003-25-7.300003l-6.799988,14.300003s11.200012,8.899994,29,8.899994,32.899994-10.599998,32.899994-25.099998-7.600006-18.099998-23.299988-22.700005l-.099976.000015Z"
           style="fill: #fff;"
           id="path30" />
        <path
           d="M211.800003,57.099998h-18.399994v75.000008h19.100006v-44.599998s14.800003,25.799995,28.100006,44.599998h15.900009V57.099998h-18.699997v39.099998s-10.5-18.300003-26-39.099998h-.000031Z"
           style="fill: #fff;"
           id="path31" />
        <path
           d="M317.899994,132v-32.300003h-28.299988v32.300003h-19.100006V57.099998h19.100006v28.5h28.299988v-28.5h19v74.900002h-19Z"
           style="fill: #fff;"
           id="path32" />
        <g
           id="g34">
          <path
             d="M299.399994,177.800003c-6.200012-11.100006-27.399994-29.5-64.899994-23.5-14.300003,1.199997-20.199997,2.100006-27.800003,1.600006-29.899994-2.300003-35.099991-18.800003-35.400009-19.699997h-7.5s4.100006,32.100006,36.800003,37.5c8,1.300003,24.699997-.199997,35.5-2,26.499985-4.300003,46.800003-5,63.300003,17.699997,0,0,.200012.199997.399994.199997.299988,0,.399994-.199997.399994-.199997,0,0,2.100006-4.399994-.899994-11.600006h.100006Z"
             style="fill: #fff;"
             id="path33" />
          <path
             d="M427,136.199997c-.299988.899994-5.799988,17.300003-35.700012,19.600006-7.600006.600006-13.5-.300003-27.799988-1.600006-37.299988-6-53,12.399994-57.600006,22.300003-3,6.699997-1.399994,12.800003-1.399994,12.800003,0,0,.100006.199997.399994.199997s.399994-.199997.399994-.199997c16.399994-22.699997,29.899994-22.100006,56.5-17.800003,10.799988,1.800003,27.5,3.300003,35.5,2,32.700012-5.399994,37.200012-37.5,37.200012-37.5h-7.5v.199997Z"
             style="fill: #fff;"
             id="path34" />
        </g>
        <g
           id="g37">
          <path
             d="M289.399994,248.399994c-.899994-.399994-1.899994-.600006-2.700012-.600006-2,0-3.100006,1.300003-3.100006,4.199997v2.699997h4.899994v4.600006h-4.899994v20.200012h-5.799988v-20.200012h-3.299988v-4.300003l3.299988-.300003v-2.600006c0-5.199997,2.399994-8.899994,8.200012-8.899994s3.399994.399994,4.600006.899994l-1.100006,4.300003-.100006.000015Z"
             style="fill: #fff;"
             id="path35" />
          <path
             d="M302.399994,254.100006c6.200012,0,11.799988,4.799988,11.799988,13s-5.600006,13-11.799988,13-11.799988-4.799988-11.799988-13,5.600006-13,11.799988-13ZM302.399994,275.399994c3.600006,0,5.899994-3.299988,5.899994-8.200012s-2.200012-8.299988-5.899994-8.299988-5.799988,3.299988-5.799988,8.299988,2.200012,8.200012,5.799988,8.200012Z"
             style="fill: #fff;"
             id="path36" />
          <path
             d="M320,254.699997h4.799988l.399994,4.400009h.200012c1.799988-3.199997,4.399994-5,7-5s2.100006.199997,2.799988.5l-1,5.100006c-.899994-.299988-1.5-.399994-2.600006-.399994-2,0-4.299988,1.399994-5.899994,5.100006v15.200012h-5.799988v-24.800003l.100006-.100037Z"
             style="fill: #fff;"
             id="path37" />
        </g>
      </g>
      <g
         id="g41"
         style="display:inline"
         inkscape:label="barchart">
        <rect
           style="clip-path:url(#clippath);display:inline;fill:#ffffff;fill-opacity:1;stroke:#ffffff;stroke-width:1;stroke-linecap:round;stroke-opacity:1;paint-order:fill markers stroke"
           id="rect40-2-0-3"
           width="33.649307"
           height="187.72438"
           x="3221.1665"
           y="197.77562"
           clip-path="url(#clippath)"
           inkscape:label="rec_4" />
        <rect
           style="clip-path:url(#clippath);display:inline;fill:#ffffff;fill-opacity:1;stroke:#ffffff;stroke-width:0.999996;stroke-linecap:round;stroke-opacity:1;paint-order:fill markers stroke"
           id="rect40-2-0"
           width="33.649307"
           height="128.12094"
           x="3166.9438"
           y="257.37906"
           clip-path="url(#clippath)"
           inkscape:label="rec_3" />
        <rect
           style="fill:#ffffff;fill-opacity:1;stroke:#ffffff;stroke-width:1;stroke-linecap:round;stroke-opacity:1;paint-order:fill markers stroke"
           id="rect40-2"
           width="33.649307"
           height="143.90802"
           x="3112.7212"
           y="241.59198"
           clip-path="url(#clippath)"
           inkscape:label="rec_2" />
        <rect
           style="clip-path:url(#clippath);display:inline;fill:#ffffff;fill-opacity:1;stroke:#ffffff;stroke-width:1;stroke-linecap:round;stroke-opacity:1;paint-order:fill markers stroke"
           id="rect40"
           width="33.649307"
           height="80.854134"
           x="3058.4985"
           y="304.64587"
           clip-path="url(#clippath)"
           inkscape:label="rec_1" />
      </g>
    </g>
  </g>
</svg>
