<?xml version="1.0" encoding="UTF-8" standalone="no"?>
<svg
   id="Layer_1"
   data-name="Layer 1"
   viewBox="0 0 180 180.00001"
   version="1.1"
   sodipodi:docname="NSS.svg"
   inkscape:version="1.2.2 (732a01da63, 2022-12-09)"
   inkscape:export-filename="NHSSacademy_white - blueline_p.svg"
   inkscape:export-xdpi="96"
   inkscape:export-ydpi="96"
   width="180"
   height="180"
   xmlns:inkscape="http://www.inkscape.org/namespaces/inkscape"
   xmlns:sodipodi="http://sodipodi.sourceforge.net/DTD/sodipodi-0.dtd"
   xmlns="http://www.w3.org/2000/svg"
   xmlns:svg="http://www.w3.org/2000/svg"
   xmlns:rdf="http://www.w3.org/1999/02/22-rdf-syntax-ns#"
   xmlns:cc="http://creativecommons.org/ns#"
   xmlns:dc="http://purl.org/dc/elements/1.1/">
  <title
     id="title7913">NHS Education for Scotland logo</title>
  <sodipodi:namedview
     id="namedview235"
     pagecolor="#ffffff"
     bordercolor="#000000"
     borderopacity="0.25"
     inkscape:showpageshadow="2"
     inkscape:pageopacity="0.0"
     inkscape:pagecheckerboard="0"
     inkscape:deskcolor="#d1d1d1"
     showgrid="false"
     inkscape:zoom="2.1644525"
     inkscape:cx="102.33535"
     inkscape:cy="173.48498"
     inkscape:window-width="1350"
     inkscape:window-height="1150"
     inkscape:window-x="2817"
     inkscape:window-y="9"
     inkscape:window-maximized="0"
     inkscape:current-layer="g64"
     showguides="false" />
  <defs
     id="defs4">
    <style
       id="style2">
      .cls-1 {
        fill: #004380;
      }

      .cls-2 {
        fill: #0096dc;
      }

      .cls-3 {
        stroke-width: .5px;
      }

      .cls-3, .cls-4 {
        fill: none;
        stroke: #0096dc;
        stroke-miterlimit: 10;
      }

      .cls-5 {
        fill: #234c7b;
      }
    </style>
    <clipPath
       clipPathUnits="userSpaceOnUse"
       id="clipPath584">
      <path
         d="m 1700.327,858.642 h 173.355 v 176.725 h -173.355 z"
         id="path582" />
    </clipPath>
  </defs>
  <g
     id="g64"
     inkscape:label="NES"
     transform="matrix(2.2048193,0,0,2.2048193,-15.202953,-3.6386757)"
     style="stroke-width:0.453552">
    <g
       id="g1082"
       transform="matrix(0.36463692,0,0,-0.36463692,-603.34757,389.26311)"
       style="stroke-width:0.752198">
      <g
         id="g570"
         transform="translate(1720.8373,1034.569)"
         style="stroke-width:0.752198">
        <path
           d="M 0,0 H 15.77 L 31.472,-31.535 31.559,-31.554 31.514,0.007 41.78,0 V -46.439 H 27.347 L 11.113,-14.704 H 10.978 L 11.001,-46.454 0,-46.439 Z"
           style="fill:#004380;fill-opacity:1;fill-rule:nonzero;stroke:none;stroke-width:0.752198"
           id="path572" />
      </g>
      <g
         id="g574"
         transform="translate(1770.5302,1034.569)"
         style="stroke-width:0.752198">
        <path
           d="m 0,0 h 12.374 v -17.764 h 14.64 V 0 H 39.389 V -46.439 H 27.014 v 19.891 H 12.374 V -46.439 H 0 Z"
           style="fill:#004380;fill-opacity:1;fill-rule:nonzero;stroke:none;stroke-width:0.752198"
           id="path576" />
      </g>
      <g
         id="g578"
         style="stroke-width:0.752198">
        <g
           id="g580"
           clip-path="url(#clipPath584)"
           style="stroke-width:0.752198">
          <g
             id="g586"
             transform="translate(1819.6357,999.57)"
             style="stroke-width:0.752198">
            <path
               d="m 0,0 c 3.195,-1.727 7.652,-3.061 12.776,-3.061 3.926,0 7.652,0.8 7.652,4.524 0,8.653 -21.957,3.195 -21.957,20.099 0,11.174 10.911,14.235 20.228,14.235 4.457,0 8.848,-0.664 11.975,-1.729 l -0.798,-9.581 c -3.193,1.462 -6.788,2.128 -10.315,2.128 -3.124,0 -8.313,-0.265 -8.313,-4.322 0,-7.521 21.954,-2.465 21.954,-19.231 0,-12.042 -10.114,-15.305 -20.426,-15.305 -4.325,0 -9.712,0.668 -13.839,2.001 z"
               style="fill:#004380;fill-opacity:1;fill-rule:nonzero;stroke:none;stroke-width:0.752198"
               id="path588" />
          </g>
          <g
             id="g590"
             transform="translate(1700.3267,986.0656)"
             style="stroke-width:0.752198">
            <path
               d="m 0,0 h 4.007 c 0,0 5.26,-10.765 19.783,-12.266 14.52,-1.507 19.778,1.252 35.55,1.002 15.769,-0.255 25.417,-16.992 25.417,-16.992 1.242,-2.024 0.983,-4.784 0.08,-4.824 -0.89,-0.039 -5.969,10.796 -23.496,12.051 C 43.814,-19.78 36.804,-28.04 19.783,-23.03 2.759,-18.025 0,0 0,0"
               style="fill:#0096dc;fill-opacity:1;fill-rule:nonzero;stroke:none;stroke-width:0.752198"
               id="path592" />
          </g>
          <g
             id="g594"
             transform="translate(1741.7046,920.3888)"
             style="stroke-width:0.752198">
            <path
               d="m 0,0 h -3.441 c -4.522,5.433 -9.041,10.829 -13.495,16.936 h -0.067 V 0 h -3.815 v 23.614 h 3.479 C -12.821,18.22 -8.336,12.852 -3.88,6.783 h 0.068 V 23.614 H 0 Z"
               style="fill:#004380;fill-opacity:1;fill-rule:nonzero;stroke:none;stroke-width:0.752198"
               id="path596" />
          </g>
          <g
             id="g598"
             transform="translate(1755.4673,922.0058)"
             style="stroke-width:0.752198">
            <path
               d="m 0,0 c -1.244,-0.978 -2.764,-2.024 -4.316,-2.024 -2.631,0 -4.824,2.024 -4.824,5.13 0,3.206 2.328,5.028 6.241,6.14 l 3.979,1.18 c -0.234,1.552 -1.617,2.533 -3.068,2.533 -1.925,0 -3.274,-0.709 -4.451,-1.724 l -1.453,2.128 c 2.091,1.716 4.148,2.292 6.478,2.292 3.106,0 6.914,-1.008 6.914,-6.276 V 2.497 c 0,-1.348 0.172,-2.934 0.709,-4.113 H 1.452 c -0.337,0.571 -0.44,1.549 -0.44,2.459 z M -1.414,7.358 C -3.608,6.682 -4.721,5.401 -4.721,3.479 c 0,-1.486 0.945,-2.498 2.024,-2.498 1.788,0 4.118,2.228 3.777,7.185 z"
               style="fill:#004380;fill-opacity:1;fill-rule:nonzero;stroke:none;stroke-width:0.752198"
               id="path600" />
          </g>
          <g
             id="g602"
             transform="translate(1770.9867,937.2578)"
             style="stroke-width:0.752198">
            <path
               d="M 0,0 H 4.418 V -2.292 H 0 v -8.301 c 0,-2.767 0.846,-3.949 2.328,-3.949 0.98,0 1.552,0.271 2.161,0.574 l 0.773,-2.225 c -1.316,-0.708 -2.934,-1.082 -4.416,-1.082 -3.713,0 -5.334,1.957 -5.334,5.398 v 9.585 H -6.847 V 0 h 2.359 V 4.045 L 0,5.061 Z"
               style="fill:#004380;fill-opacity:1;fill-rule:nonzero;stroke:none;stroke-width:0.752198"
               id="path604" />
          </g>
          <g
             id="g606"
             transform="translate(1778.7499,942.3185)"
             style="stroke-width:0.752198">
            <path
               d="M 0,0 C 0,1.281 1.075,2.595 2.598,2.595 4.151,2.595 5.36,1.313 5.36,0 5.36,-1.456 4.314,-2.836 2.66,-2.836 1.075,-2.836 0,-1.456 0,0 M 4.924,-21.93 H 0.435 v 16.869 h 4.489 z"
               style="fill:#004380;fill-opacity:1;fill-rule:nonzero;stroke:none;stroke-width:0.752198"
               id="path608" />
          </g>
          <g
             id="g610"
             transform="translate(1787.6855,929.0231)"
             style="stroke-width:0.752198">
            <path
               d="m 0,0 c 0,5.465 4.323,8.638 8.839,8.638 4.556,0 8.874,-3.173 8.874,-8.638 0,-5.226 -3.576,-9.041 -8.874,-9.041 C 3.576,-9.041 0,-5.226 0,0 m 12.952,0 c 0,2.8 -0.973,6.145 -4.113,6.145 C 5.771,6.145 4.76,2.8 4.76,0 c 0,-2.968 0.876,-6.539 4.079,-6.539 3.274,0 4.113,3.571 4.113,6.539"
               style="fill:#004380;fill-opacity:1;fill-rule:nonzero;stroke:none;stroke-width:0.752198"
               id="path612" />
          </g>
          <g
             id="g614"
             transform="translate(1813.8668,935.2642)"
             style="stroke-width:0.752198">
            <path
               d="m 0,0 c 1.52,1.619 3.643,2.395 5.766,2.395 3.951,0 6.041,-2.156 6.041,-6.412 V -14.875 H 7.318 v 10.354 c 0,2.365 -1.044,3.917 -3.37,3.917 -2.193,0 -3.919,-1.452 -3.919,-4.22 V -14.875 H -4.453 V 1.993 H 0 Z"
               style="fill:#004380;fill-opacity:1;fill-rule:nonzero;stroke:none;stroke-width:0.752198"
               id="path616" />
          </g>
          <g
             id="g618"
             transform="translate(1838.932,922.0058)"
             style="stroke-width:0.752198">
            <path
               d="m 0,0 c -1.248,-0.978 -2.765,-2.024 -4.316,-2.024 -2.634,0 -4.827,2.024 -4.827,5.13 0,3.206 2.328,5.028 6.241,6.14 l 3.984,1.18 c -0.237,1.552 -1.622,2.533 -3.071,2.533 -1.923,0 -3.275,-0.709 -4.453,-1.724 l -1.453,2.128 c 2.092,1.716 4.153,2.292 6.48,2.292 3.103,0 6.916,-1.008 6.916,-6.276 V 2.497 c 0,-1.348 0.165,-2.934 0.708,-4.113 H 1.452 c -0.335,0.571 -0.44,1.549 -0.44,2.459 z M -1.415,7.358 C -3.611,6.682 -4.724,5.401 -4.724,3.479 c 0,-1.486 0.948,-2.498 2.024,-2.498 1.793,0 4.121,2.228 3.782,7.185 z"
               style="fill:#004380;fill-opacity:1;fill-rule:nonzero;stroke:none;stroke-width:0.752198"
               id="path620" />
          </g>
          <path
             d="m 1849.156,945.185 h 4.486 v -24.796 h -4.486 z"
             style="fill:#004380;fill-opacity:1;fill-rule:nonzero;stroke:none;stroke-width:0.752198"
             id="path622" />
          <g
             id="g624"
             transform="translate(1738.095,909.9005)"
             style="stroke-width:0.752198">
            <path
               d="m 0,0 c -1.046,0.709 -2.43,1.348 -3.811,1.348 -1.993,0 -3.072,-1.114 -3.072,-2.494 0,-1.554 1.656,-2.736 4.419,-4.927 3.173,-2.531 4.859,-4.522 4.859,-7.421 0,-2.972 -2.83,-6.412 -8.166,-6.412 -2.459,0 -5.192,0.742 -6.948,2.362 l 1.721,2.699 c 1.248,-0.91 2.7,-1.888 4.823,-1.888 1.957,0 3.679,1.044 3.679,3.273 0,2.598 -3.171,4.316 -5.061,5.799 -2.295,1.857 -4.217,3.309 -4.217,6.448 0,3.169 3.208,5.733 7.489,5.733 2.701,0 4.859,-0.977 5.971,-2.061 z"
               style="fill:#004380;fill-opacity:1;fill-rule:nonzero;stroke:none;stroke-width:0.752198"
               id="path626" />
          </g>
          <g
             id="g628"
             transform="translate(1747.551,898.4296)"
             style="stroke-width:0.752198">
            <path
               d="m 0,0 c -0.103,-3.173 2.123,-5.532 4.922,-5.532 1.655,0 3.41,0.573 4.522,1.349 l 1.283,-2.364 C 8.434,-7.898 6.036,-8.435 4.114,-8.435 c -5.097,0 -8.906,3.609 -8.906,9.179 0,5.195 3.777,8.498 8.604,8.498 5.26,0 7.454,-4.217 7.117,-9.242 z M 6.713,2.43 C 6.881,4.996 5.967,6.746 3.742,6.746 1.181,6.746 0.031,4.689 0.067,2.43 Z"
               style="fill:#004380;fill-opacity:1;fill-rule:nonzero;stroke:none;stroke-width:0.752198"
               id="path630" />
          </g>
          <g
             id="g632"
             transform="translate(1766.646,904.2977)"
             style="stroke-width:0.752198">
            <path
               d="m 0,0 h 0.067 l 0.907,1.316 c 0.542,0.711 1.52,2.058 2.902,2.058 1.014,0 2.093,-0.538 3.038,-1.515 L 5.227,-1.246 c -0.739,0.372 -1.215,0.573 -2.127,0.573 -1.551,0 -3.068,-1.245 -3.068,-4.892 v -8.336 H -4.456 V 2.97 H 0 Z"
               style="fill:#004380;fill-opacity:1;fill-rule:nonzero;stroke:none;stroke-width:0.752198"
               id="path634" />
          </g>
          <g
             id="g636"
             transform="translate(1781.7488,890.4009)"
             style="stroke-width:0.752198">
            <path
               d="m 0,0 -6.881,16.394 4.484,0.811 C -0.943,13.325 0.539,9.411 1.958,4.722 h 0.066 c 1.517,4.689 3.07,8.603 4.622,12.483 L 10.493,16.495 3.136,0 Z"
               style="fill:#004380;fill-opacity:1;fill-rule:nonzero;stroke:none;stroke-width:0.752198"
               id="path638" />
          </g>
          <g
             id="g640"
             transform="translate(1794.1953,912.3306)"
             style="stroke-width:0.752198">
            <path
               d="M 0,0 C 0,1.28 1.082,2.598 2.598,2.598 4.151,2.598 5.369,1.313 5.369,0 5.369,-1.452 4.323,-2.836 2.669,-2.836 1.082,-2.836 0,-1.452 0,0 M 4.926,-21.935 H 0.441 v 16.872 h 4.485 z"
               style="fill:#004380;fill-opacity:1;fill-rule:nonzero;stroke:none;stroke-width:0.752198"
               id="path642" />
          </g>
          <g
             id="g644"
             transform="translate(1816.9028,891.3082)"
             style="stroke-width:0.752198">
            <path
               d="m 0,0 c -1.421,-0.84 -3.275,-1.313 -4.792,-1.313 -7.017,0 -9.312,5.329 -9.312,8.771 0,4.725 3.576,8.906 9.548,8.906 1.348,0 3.007,-0.335 4.387,-1.146 L -1.246,12.62 c -0.477,0.202 -0.983,0.37 -1.489,0.508 -0.505,0.133 -1.012,0.201 -1.518,0.201 -2.527,0 -5.091,-1.72 -5.091,-5.636 0,-3.37 1.921,-5.969 5.127,-5.969 1.044,0 2.193,0.236 3.304,0.845 z"
               style="fill:#004380;fill-opacity:1;fill-rule:nonzero;stroke:none;stroke-width:0.752198"
               id="path646" />
          </g>
          <g
             id="g648"
             transform="translate(1823.751,898.4296)"
             style="stroke-width:0.752198">
            <path
               d="m 0,0 c -0.1,-3.173 2.123,-5.532 4.927,-5.532 1.65,0 3.405,0.573 4.52,1.349 l 1.28,-2.364 c -2.293,-1.351 -4.69,-1.888 -6.611,-1.888 -5.096,0 -8.905,3.609 -8.905,9.179 0,5.195 3.776,8.498 8.601,8.498 5.264,0 7.457,-4.217 7.119,-9.242 z M 6.714,2.43 C 6.882,4.996 5.973,6.746 3.744,6.746 1.179,6.746 0.032,4.689 0.067,2.43 Z"
               style="fill:#004380;fill-opacity:1;fill-rule:nonzero;stroke:none;stroke-width:0.752198"
               id="path650" />
          </g>
          <g
             id="g652"
             transform="translate(1847.5349,904.0959)"
             style="stroke-width:0.752198">
            <path
               d="m 0,0 c -1.01,0.743 -2.056,1.079 -2.869,1.079 -1.009,0 -2.022,-0.571 -2.022,-1.721 0,-1.347 1.619,-2.123 3.506,-3.505 2.397,-1.791 3.105,-3.541 3.105,-5.095 0,-2.363 -2.598,-4.86 -6.307,-4.86 -2.328,0 -4.052,0.809 -5.636,1.923 l 1.418,2.328 c 1.011,-0.809 2.462,-1.62 3.68,-1.62 1.278,0 2.425,0.677 2.425,2.095 0,1.582 -1.753,2.464 -3.375,3.605 -1.919,1.317 -3.237,2.601 -3.237,4.692 0,2.666 2.563,4.655 5.87,4.655 1.856,0 3.678,-0.47 4.892,-1.552 z"
               style="fill:#004380;fill-opacity:1;fill-rule:nonzero;stroke:none;stroke-width:0.752198"
               id="path654" />
          </g>
          <g
             id="g656"
             transform="translate(1873.6821,986.0656)"
             style="stroke-width:0.752198">
            <path
               d="m 0,0 h -4.004 c 0,0 -5.26,-10.765 -19.784,-12.266 -14.522,-1.507 -19.78,1.252 -35.55,1.002 -15.769,-0.255 -25.417,-16.992 -25.417,-16.992 -1.194,-1.919 -0.969,-4.808 -0.079,-4.824 1.001,-0.02 5.967,10.796 23.496,12.051 17.524,1.249 24.531,-7.011 41.557,-2.001 C -2.756,-18.025 0,0 0,0"
               style="fill:#0096dc;fill-opacity:1;fill-rule:nonzero;stroke:none;stroke-width:0.752198"
               id="path658" />
          </g>
          <g
             id="g660"
             transform="translate(1733.4998,878.4379)"
             style="stroke-width:0.752198">
            <path
               d="m 0,0 c -1.042,0.7 -2.416,1.34 -3.792,1.34 -1.979,0 -3.052,-1.106 -3.052,-2.482 0,-1.543 1.643,-2.717 4.395,-4.901 3.151,-2.513 4.827,-4.495 4.827,-7.381 0,-2.947 -2.815,-6.372 -8.116,-6.372 -2.45,0 -5.167,0.74 -6.913,2.349 l 1.71,2.684 c 1.245,-0.903 2.686,-1.877 4.801,-1.877 1.945,0 3.656,1.036 3.656,3.251 0,2.582 -3.151,4.296 -5.032,5.769 -2.282,1.849 -4.194,3.29 -4.194,6.41 0,3.154 3.186,5.704 7.448,5.704 2.685,0 4.831,-0.975 5.937,-2.045 z"
               style="fill:#004380;fill-opacity:1;fill-rule:nonzero;stroke:none;stroke-width:0.752198"
               id="path662" />
          </g>
          <g
             id="g664"
             transform="translate(1753.0555,859.9493)"
             style="stroke-width:0.752198">
            <path
               d="m 0,0 c -1.411,-0.836 -3.251,-1.306 -4.763,-1.306 -6.981,0 -9.258,5.3 -9.258,8.723 0,4.695 3.553,8.855 9.494,8.855 1.341,0 2.986,-0.338 4.36,-1.143 l -1.074,-2.58 c -0.47,0.202 -0.972,0.367 -1.473,0.505 -0.504,0.131 -1.009,0.198 -1.512,0.198 -2.516,0 -5.068,-1.71 -5.068,-5.6 0,-3.355 1.914,-5.938 5.103,-5.938 1.037,0 2.18,0.234 3.285,0.84 z"
               style="fill:#004380;fill-opacity:1;fill-rule:nonzero;stroke:none;stroke-width:0.752198"
               id="path666" />
          </g>
          <g
             id="g668"
             transform="translate(1755.0682,867.6309)"
             style="stroke-width:0.752198">
            <path
               d="m 0,0 c 0,5.434 4.294,8.591 8.788,8.591 4.53,0 8.825,-3.157 8.825,-8.591 0,-5.195 -3.557,-8.989 -8.825,-8.989 C 3.556,-8.989 0,-5.195 0,0 m 12.881,0 c 0,2.786 -0.972,6.107 -4.093,6.107 C 5.736,6.107 4.729,2.786 4.729,0 c 0,-2.947 0.877,-6.506 4.059,-6.506 3.255,0 4.093,3.559 4.093,6.506"
               style="fill:#004380;fill-opacity:1;fill-rule:nonzero;stroke:none;stroke-width:0.752198"
               id="path670" />
          </g>
          <g
             id="g672"
             transform="translate(1781.571,875.8214)"
             style="stroke-width:0.752198">
            <path
               d="M 0,0 H 4.396 V -2.285 H 0 v -8.253 c 0,-2.75 0.836,-3.924 2.315,-3.924 0.973,0 1.542,0.269 2.146,0.568 l 0.772,-2.212 c -1.306,-0.706 -2.918,-1.073 -4.397,-1.073 -3.687,0 -5.299,1.95 -5.299,5.369 v 9.525 H -6.81 V 0 h 2.347 V 4.023 L 0,5.031 Z"
               style="fill:#004380;fill-opacity:1;fill-rule:nonzero;stroke:none;stroke-width:0.752198"
               id="path674" />
          </g>
          <path
             d="m 1789.351,883.705 h 4.463 v -24.659 h -4.463 z"
             style="fill:#004380;fill-opacity:1;fill-rule:nonzero;stroke:none;stroke-width:0.752198"
             id="path676" />
          <g
             id="g678"
             transform="translate(1806.6305,860.6548)"
             style="stroke-width:0.752198">
            <path
               d="m 0,0 c -1.244,-0.974 -2.754,-2.012 -4.296,-2.012 -2.616,0 -4.799,2.012 -4.799,5.099 0,3.189 2.32,4.999 6.209,6.107 l 3.959,1.172 c -0.234,1.546 -1.61,2.516 -3.052,2.516 -1.912,0 -3.256,-0.702 -4.431,-1.709 l -1.44,2.112 c 2.078,1.71 4.127,2.281 6.439,2.281 3.087,0 6.882,-1.005 6.882,-6.238 V 2.483 c 0,-1.34 0.164,-2.92 0.701,-4.092 H 1.443 c -0.335,0.568 -0.44,1.546 -0.44,2.449 z m -1.411,7.312 c -2.18,-0.668 -3.286,-1.943 -3.286,-3.855 0,-1.475 0.939,-2.483 2.013,-2.483 1.775,0 4.094,2.213 3.757,7.145 z"
               style="fill:#004380;fill-opacity:1;fill-rule:nonzero;stroke:none;stroke-width:0.752198"
               id="path680" />
          </g>
          <g
             id="g682"
             transform="translate(1820.8544,873.8392)"
             style="stroke-width:0.752198">
            <path
               d="m 0,0 c 1.507,1.612 3.62,2.382 5.734,2.382 3.926,0 6.005,-2.148 6.005,-6.372 v -10.803 h -4.46 v 10.298 c 0,2.347 -1.038,3.894 -3.356,3.894 -2.18,0 -3.892,-1.445 -3.892,-4.195 v -9.997 h -4.46 V 1.982 H 0 Z"
               style="fill:#004380;fill-opacity:1;fill-rule:nonzero;stroke:none;stroke-width:0.752198"
               id="path684" />
          </g>
          <g
             id="g686"
             transform="translate(1849.0663,861.4581)"
             style="stroke-width:0.752198">
            <path
               d="m 0,0 h -0.068 c -1.107,-1.404 -2.851,-2.816 -5.468,-2.816 -4.395,0 -7.314,3.623 -7.314,8.988 0,4.364 3.154,8.591 7.65,8.591 2.182,0 4.128,-0.875 5.132,-2.35 H 0 v 9.833 H 4.46 V -2.411 H 0 Z m -8.116,6.277 c 0,-3.254 1.274,-6.412 3.854,-6.412 2.986,0 4.262,3.225 4.262,6.577 0,2.919 -1.376,5.636 -4.058,5.636 -2.888,0 -4.058,-2.549 -4.058,-5.801"
               style="fill:#004380;fill-opacity:1;fill-rule:nonzero;stroke:none;stroke-width:0.752198"
               id="path688" />
          </g>
        </g>
      </g>
    </g>
  </g>
  <metadata
     id="metadata7911">
    <rdf:RDF>
      <cc:Work
         rdf:about="">
        <dc:title>NHS Education for Scotland logo</dc:title>
      </cc:Work>
    </rdf:RDF>
  </metadata>
</svg>
