<?xml version="1.0" encoding="UTF-8" standalone="no"?>
<svg
   version="1.1"
   id="Layer_1"
   x="0px"
   y="0px"
   width="2299.999"
   viewBox="0 0 2299.999 830.98901"
   enable-background="new 0 0 2062 745"
   xml:space="preserve"
   sodipodi:docname="Public_Health_Scotland_logo.svg"
   height="830.98901"
   inkscape:version="1.2.2 (732a01da63, 2022-12-09)"
   xmlns:inkscape="http://www.inkscape.org/namespaces/inkscape"
   xmlns:sodipodi="http://sodipodi.sourceforge.net/DTD/sodipodi-0.dtd"
   xmlns="http://www.w3.org/2000/svg"
   xmlns:svg="http://www.w3.org/2000/svg"><defs
   id="defs1761" /><sodipodi:namedview
   id="namedview1759"
   pagecolor="#ffffff"
   bordercolor="#000000"
   borderopacity="0.25"
   inkscape:showpageshadow="2"
   inkscape:pageopacity="0.0"
   inkscape:pagecheckerboard="0"
   inkscape:deskcolor="#d1d1d1"
   showgrid="false"
   inkscape:zoom="0.33494115"
   inkscape:cx="986.7405"
   inkscape:cy="398.57748"
   inkscape:window-width="1920"
   inkscape:window-height="1002"
   inkscape:window-x="2125"
   inkscape:window-y="-8"
   inkscape:window-maximized="1"
   inkscape:current-layer="Layer_1" />








































<g
   id="g1920"
   transform="translate(117.99951,41.994507)"><path
     fill="#84ba2a"
     opacity="1"
     stroke="none"
     d="m 1816.1586,219.26073 c 1.4671,-1.33692 2.9909,-2.61702 4.3933,-4.01883 68.6089,-68.59041 137.1831,-137.215579 205.8828,-205.714744 3.2014,-3.191964 7.5132,-5.269998 11.4366,-8.196984 C 2040.7001,1 2043.4,1 2046.8396,1.199809 2055.5559,3.27055 2060.0974,8.769917 2063,16 c 0,3.030594 0,6.061186 0,9.545895 -3.4917,5.008955 -6.5254,10.020477 -10.5432,14.050674 -69.0713,69.281171 -138.2638,138.441241 -207.8215,208.028861 -0.5558,0.46675 -0.72,0.53251 -1.3233,0.51617 -9.3142,-0.0821 -18.1894,-0.0821 -27.5353,-0.0821 0,-9.91284 0,-18.86398 0.098,-28.06013 0.1599,-0.40956 0.2221,-0.57408 0.2841,-0.7386 z"
     id="path1678" /><path
     fill="#c027b9"
     opacity="1"
     stroke="none"
     d="m 1500.4607,746 c -0.9742,-0.3316 -1.4547,-0.8794 -2.006,-0.96381 -25.0433,-3.83569 -39.8071,-19.3056 -46,-42.7929 -7.0026,-26.55811 -6.3896,-52.84021 8.5198,-77.15406 14.4884,-23.62701 42.1199,-34.58776 66.2489,-25.79205 7.8247,2.85236 14.8553,7.883 21.7898,11.66657 0,-25.06745 0,-50.76301 0,-76.71314 7.6766,0 15.4509,0 23.6074,0 0,69.01208 0,138.05621 0,207.42548 -6.3507,0 -12.7598,0 -19.5862,0 -0.7285,-5.13404 -1.463,-10.3108 -2.3131,-16.30231 -11.5936,9.84418 -23.2275,18.31836 -38.5019,20.30188 C 1508.3071,746 1504.6141,746 1500.4607,746 m 14.9729,-129.00024 c -15.9368,-0.24036 -26.9675,7.94067 -33.962,21.33593 -11.1736,21.39875 -10.4959,43.60388 -1.6347,65.54364 4.2468,10.51441 12.186,17.73926 23.7002,20.24201 19.6555,4.2724 32.9845,-5.4148 43.9786,-17.38635 0.8643,-0.94123 1.0597,-2.76972 1.0638,-4.18732 0.063,-22.46967 0.093,-44.93982 -0.05,-67.40875 -0.011,-1.74488 -0.8888,-4.00409 -2.1566,-5.13715 -8.5293,-7.62341 -18.3214,-12.5647 -30.9398,-13.00201 z"
     id="path1680" /><path
     fill="#c128b9"
     opacity="1"
     stroke="none"
     d="m 671.46759,746 c -3.12433,-0.6391 -5.75574,-1.42236 -8.44189,-1.8941 -18.95539,-3.32886 -35.12403,-11.99427 -48.8584,-25.35938 -0.45392,-0.44165 -0.78894,-1.00543 -1.39582,-1.79327 4.8144,-5.59326 9.55762,-11.10382 14.52363,-16.87323 8.92663,8.74438 18.66503,15.60083 30.09893,19.7373 13.88086,5.02167 27.99201,5.96893 42.0752,1.10071 20.52161,-7.09399 27.73236,-31.66235 13.39605,-46.77631 -4.43286,-4.67334 -10.60131,-8.03375 -16.50372,-10.91089 -12.55163,-6.11828 -25.46539,-11.49127 -38.2016,-17.23419 -10.27148,-4.63153 -19.84997,-10.30237 -26.78125,-19.48633 -18.09399,-23.9743 -9.61401,-57.64141 18.10663,-72.15319 27.06543,-14.16877 66.90961,-7.52399 87.91693,14.67144 0.44629,0.4715 0.79608,1.03431 1.43061,1.87043 -4.23041,5.08947 -8.45874,10.17645 -12.63227,15.19751 -5.76861,-3.85596 -10.98797,-7.99213 -16.76782,-11.07898 -13.69513,-7.31433 -28.26367,-8.47425 -43.07135,-4.03028 -10.30957,3.09406 -17.45789,9.72431 -19.21246,20.80262 -1.8086,11.41955 2.33642,20.846 12.34497,26.23706 12.99206,6.99798 26.79022,12.48163 40.01312,19.07501 9.78155,4.87726 20.25049,9.19879 28.58227,16.00812 25.64777,20.96118 22.22107,61.61029 -6.04821,80.78265 -10.15692,6.88855 -21.54895,10.2207 -33.84998,11.7453 C 682.64508,746 677.2901,746 671.46759,746 Z"
     id="path1682" /><path
     fill="#c128b9"
     opacity="1"
     stroke="none"
     d="m 936.4632,746 c -3.77118,-0.84882 -7.10187,-1.61823 -10.38349,-2.55902 -26.17126,-7.50342 -41.20679,-25.64874 -46.87897,-51.401 -5.34057,-24.24646 -2.89978,-47.79645 11.7793,-68.80298 25.45917,-36.43353 79.64356,-35.69165 104.2807,1.29248 17.61076,26.43665 17.87386,66.39447 0.32929,92.72308 -10.97711,16.47303 -26.57929,25.67487 -46.40729,28.39002 C 944.97546,746 940.95093,746 936.4632,746 m 42.7406,-100.62884 c -3.2251,-9.18793 -8.3086,-17.07545 -16.45905,-22.62787 -17.59509,-11.9867 -41.39941,-6.45685 -51.99377,12.97778 -12.20172,22.38293 -12.06726,45.6651 -1.33271,68.61279 4.6153,9.8664 12.57923,16.72876 23.34272,19.70551 19.57861,5.41473 38.38812,-4.99133 46.02807,-25.96955 6.23804,-17.12841 5.98749,-34.56994 0.41474,-52.69866 z"
     id="path1684" /><path
     fill="#c028b9"
     opacity="1"
     stroke="none"
     d="m 1204.4607,746 c -2.7741,-0.68964 -5.0812,-1.40039 -7.4016,-2.06549 -20.9317,-6 -29.4911,-21.72864 -28.4998,-41.37714 0.9082,-18.00158 11.2627,-29.2763 26.8839,-36.47424 16.3503,-7.53394 33.8507,-10.66528 51.5148,-13.09772 2.7835,-0.38318 5.5623,-0.79962 8.3047,-1.19513 0.9988,-22.72436 -10.3223,-39.46496 -37.9874,-34.20422 -9.2422,1.75757 -17.8784,6.77319 -26.7339,10.43902 -2.0916,0.86579 -3.9497,2.29535 -6.2681,3.67548 -3.2602,-5.61133 -6.3295,-10.89386 -10.0674,-17.32739 9.2054,-4.36261 17.9578,-8.99884 27.0838,-12.71832 12.8915,-5.25422 26.5025,-6.4618 40.2043,-4.36994 19.7999,3.02265 31.7545,15.37775 36.3406,37.258 1.1873,5.66461 1.9432,11.52856 1.9808,17.30688 0.1941,29.79956 0.09,59.60102 0.09,89.77716 -6.5203,0 -12.9229,0 -19.9632,0 -0.705,-4.96649 -1.4418,-10.15649 -2.2985,-16.19171 -12.8266,9.06683 -25.3585,18.15552 -41.4643,20.20941 C 1212.3071,746 1208.6141,746 1204.4607,746 m 30.0308,-23.89496 c 6.2879,-4.30414 12.6193,-8.54724 18.8233,-12.96918 1.1079,-0.78973 2.3871,-2.31024 2.4041,-3.51001 0.1753,-12.42529 0.1078,-24.85406 0.1078,-37.70275 -15.7216,2.29327 -30.8328,4.43438 -44.9081,10.82415 -3.2982,1.49726 -6.4872,3.4231 -9.3637,5.62555 -8.2296,6.30109 -11.2584,17.46155 -7.877,27.90228 2.5454,7.86036 10.4285,13.63025 20.6987,13.4889 6.487,-0.0892 12.9469,-2.15815 20.1149,-3.65894 z"
     id="path1686" /><path
     fill="#c028b9"
     opacity="1"
     stroke="none"
     d="m 1069.4607,746 c -1.1576,-0.34412 -1.8203,-0.8634 -2.5563,-1.00677 -18.2645,-3.5572 -28.2826,-13.96796 -30.8013,-32.42243 -0.6954,-5.09564 -1.0335,-10.27698 -1.057,-15.4212 -0.1082,-23.82544 -0.048,-47.65168 -0.048,-71.4776 0,-1.78308 0,-3.56617 0,-5.7677 -7.1272,0 -13.7259,0 -20.6565,0 0,-6.29694 0,-12.17267 0,-18.39411 7.2168,-0.54644 14.2879,-1.08184 21.7401,-1.64612 1.0238,-13.18963 2.0251,-26.09045 3.0543,-39.34991 6.6644,0 13.212,0 20.3187,0 0,13.01666 0,25.9372 0,39.37366 12.9545,0 25.3715,0 38.0902,0 0,6.75885 0,13.00049 0,19.84515 -12.4592,0 -24.8552,0 -37.5596,0 -0.1498,2.00452 -0.3499,3.44226 -0.351,4.88019 -0.019,24.82562 -0.066,49.65149 0.042,74.47662 0.017,3.79505 0.4501,7.65808 1.2566,11.36664 2.3326,10.72687 9.0637,16.18958 22.7123,15.0434 4.5547,-0.38251 9.0052,-2.00458 13.5064,-3.06354 0.2038,0.24725 0.516,0.46942 0.5888,0.75299 1.4022,5.45654 2.7763,10.92041 4.4408,17.50879 -7.0294,1.56567 -13.8975,3.0954 -20.9734,4.96356 C 1077.3071,746 1073.6141,746 1069.4607,746 Z"
     id="path1688" /><path
     fill="#c128b9"
     opacity="1"
     stroke="none"
     d="m 819.46466,746 c -3.59583,-0.81018 -6.72455,-1.63013 -9.85864,-2.42902 -20.66657,-5.26831 -35.44135,-17.75195 -43.00958,-37.54779 -10.41059,-27.23034 -9.65717,-54.16705 5.78088,-79.63263 18.3349,-30.24408 64.92584,-41.5996 94.93402,-15.34594 0.87164,0.76263 1.7345,1.53546 2.80292,2.48199 -4.01941,5.19885 -7.87787,10.18952 -11.94574,15.45099 -1.03754,-0.6853 -2.03375,-1.19983 -2.86115,-1.9107 -23.3457,-20.05927 -53.95294,-9.42896 -64.50799,16.26092 -8.21741,20.00018 -8.17621,40.07043 1.57721,59.41974 11.04956,21.92084 36.11126,29.03192 57.52691,16.92596 4.154,-2.34808 7.97364,-5.28766 12.39826,-8.25689 3.50744,5.09576 6.96722,10.12237 10.70709,15.55578 -11.46063,10.16114 -24.52783,16.39533 -39.82648,18.6709 C 828.64313,746 824.28619,746 819.46466,746 Z"
     id="path1690" /><path
     fill="#c027b8"
     opacity="1"
     stroke="none"
     d="m 1136.458,746 c -0.53,-0.15015 -0.5771,-0.41223 -0.6777,-0.43469 -15.3554,-3.43762 -19.0907,-15.03846 -19.6024,-28.51319 -0.4042,-10.64502 -0.1707,-21.31536 -0.173,-31.97442 -0.011,-48.13642 0,-96.27277 0,-144.40918 0,-1.98242 0,-3.96485 0,-6.30719 7.9735,0 15.6981,0 24.1459,0 0,1.87512 0,3.79577 0,5.71643 0,56.96417 -10e-5,113.92834 0,170.89252 0,1.33251 -0.021,2.66546 0.01,3.99743 0.1744,8.44147 3.1308,11.10254 11.9765,10.1341 1.0706,5.90802 2.1502,11.86566 3.3241,18.34417 -2.9906,0.70008 -5.5237,1.29309 -8.2549,2.22004 C 1143.6387,746 1140.2775,746 1136.458,746 Z"
     id="path1692" /><path
     fill="#a29ac1"
     opacity="1"
     stroke="none"
     d="m 2.098599,491.87824 c -0.181674,0.0332 -0.363348,0.0663 -0.82181,0.11062 C 1,428.97909 1,365.95822 1,302.46866 1,302 1.436579,301.7944 1.702997,302.3299 c 0.274227,10.67611 0.282879,20.8168 0.2897,30.95745 0.035559,52.86362 0.070648,105.72727 0.105902,158.59089 z"
     id="path1694" /><path
     fill="#fbfcf7"
     opacity="1"
     stroke="none"
     d="M 2063,15.527336 C 2060.0974,8.769917 2055.5559,3.27055 2047.2896,1.199809 2052.2554,1 2057.511,1 2063,1 c 0,4.682339 0,9.368505 0,14.527336 z"
     id="path1696" /><path
     fill="#443684"
     opacity="1"
     stroke="none"
     d="m 808.28442,301.44723 c 13.09742,-7.3e-4 25.72638,-7.3e-4 38.82788,-7.3e-4 0,24.55295 0,48.62912 0,73.04431 21.86133,0 43.24659,0 65.17896,0 0,-24.15631 0,-48.21981 0,-72.66091 14.7569,0 28.97247,0 43.45093,0 0,63.27947 0,126.48709 0,189.92205 -14.3808,0 -28.60431,0 -43.17176,0 0,-26.19623 0,-52.14691 0,-78.50317 -21.85778,0 -43.37493,0 -65.38024,0 0,26.16873 0,52.23108 0,78.52099 -14.55829,0 -28.63129,0 -43.19147,0 0,-1.4501 -6e-5,-2.73193 -6e-5,-4.01379 0,-60.4747 0.006,-120.9494 -0.0195,-181.4241 -10e-4,-2.74231 -0.45441,-5.61536 4.30523,-4.88465 z"
     id="path1698" /><path
     fill="#443685"
     opacity="1"
     stroke="none"
     d="m 359.17014,300.01038 c 3e-5,19.76818 3e-5,39.03778 3e-5,57.93548 4.20617,-2.64313 8.8767,-6.1824 14.03946,-8.72037 26.03509,-12.79858 56.68792,-4.08905 69.3876,21.91233 16.70349,34.19885 15.91678,68.8526 -6.10471,100.86923 -11.65176,16.94037 -28.84512,25.38589 -50.0563,23.00735 -11.35568,-1.27334 -20.62857,-7.05474 -28.80121,-14.7669 -1.07779,-1.01706 -2.17197,-2.01703 -3.276,-3.0054 -0.0765,-0.0685 -0.29917,0.0262 -0.85425,0.0937 -1.13242,4.63119 -2.30109,9.41049 -3.52277,14.40676 -11.17645,0 -22.2395,0 -33.56463,0 0,-68.08578 0,-135.98461 0,-204.23541 14.14221,0 28.18326,0 42.75274,0 0,4.09705 0,8.05081 4e-5,12.50318 m -0.005,111.49029 c -1.2e-4,11.80704 -0.0723,23.61502 0.0768,35.42017 0.0225,1.78366 0.52896,4.1857 1.73761,5.23355 12.42691,10.77389 35.53424,14.12228 44.38324,-10.23349 5.52786,-15.21472 5.19351,-31.09946 0.45645,-46.56906 -3.71476,-12.13129 -13.17603,-18.32746 -25.13349,-16.04007 -5.45324,1.04315 -10.5733,4.39633 -15.54385,7.22928 -4.64285,2.64614 -6.87411,6.77057 -6.07556,12.49945 0.52298,3.75192 0.0988,7.63586 0.0988,12.46017 z"
     id="path1700" /><path
     fill="#433684"
     opacity="1"
     stroke="none"
     d="m 1445.4402,287.15918 c 13.4396,-0.003 26.4195,-0.003 39.2817,-0.003 0,25.04901 0,49.76599 0,74.73129 2.7295,-2.00858 5.7678,-4.17172 8.7291,-6.43567 14.7287,-11.26019 31.2029,-14.38528 49.0475,-10.11655 12.9323,3.0936 21.2657,11.83863 25.2104,24.06275 2.7268,8.45044 4.889,17.47601 5.0584,26.28781 0.5996,31.1495 0.2339,62.31756 0.2276,93.47861 -3e-4,0.79467 -0.076,1.58935 -0.1283,2.60162 -14.227,0 -28.1692,0 -42.8673,0 0,-1.63965 0,-3.38574 0,-5.13184 0,-26.49521 0.023,-52.99048 -0.029,-79.48556 -0.01,-3.31864 -0.1856,-6.67047 -0.6745,-9.94882 -2.138,-14.33542 -10.5014,-20.36362 -24.2754,-15.71857 -6.7914,2.29028 -12.5659,7.77365 -18.5248,12.18481 -1.0253,0.75907 -0.9065,3.38898 -0.9097,5.15534 -0.053,29.16128 -0.04,58.32272 -0.042,87.4841 -10e-5,1.79007 0,3.58011 0,5.53128 -14.5272,0 -28.4929,0 -42.8413,0 -0.085,-1.53372 -0.2355,-2.98535 -0.2357,-4.43698 -0.011,-64.98825 -0.024,-129.9765 0.063,-194.96463 0,-1.88867 -1.6164,-5.0603 2.9114,-5.27643 z"
     id="path1702" /><path
     fill="#443684"
     opacity="1"
     stroke="none"
     d="M 2.557984,491.93243 C 2.063345,439.01462 2.028256,386.15097 1.992697,333.28735 1.985876,323.1467 1.977224,313.00601 1.936193,302.39185 c 1.113021,-0.61835 2.26002,-0.89518 3.405398,-0.88861 25.654049,0.14678 51.314079,0.0483 76.959083,0.61987 11.854615,0.26422 23.460806,2.82547 34.182816,8.26773 20.81029,10.56277 30.94908,31.98895 29.00117,58.37979 -2.27494,30.82181 -22.90797,51.91669 -55.615695,57.15451 -7.032249,1.1261 -14.240211,1.32306 -21.380173,1.56271 -7.64463,0.25656 -15.304538,0.0579 -23.539947,0.0579 0,21.5061 0,42.73431 0,64.44085 -14.363318,0 -28.147396,0 -42.390861,-0.0542 M 44.840195,358.5 c 0,11.42477 0,22.84955 0,34.49905 9.864898,0 19.14933,0.077 28.431007,-0.049 2.637306,-0.0358 5.297836,-0.51062 7.894333,-1.044 13.887054,-2.85263 21.704035,-12.42578 21.991875,-26.80075 0.32946,-16.45301 -4.946854,-24.91007 -19.92289,-27.37833 -12.472359,-2.05563 -25.349926,-1.65262 -38.394367,-2.3573 0,8.19754 0,15.16397 4.2e-5,23.13031 z"
     id="path1704" /><path
     fill="#433584"
     opacity="1"
     stroke="none"
     d="m 160.45691,397.99988 c 1.7e-4,-17.13791 1.7e-4,-33.77579 1.7e-4,-50.70569 14.45817,0 28.51782,0 43.08656,0 0,1.91614 1e-5,3.71182 0,5.50748 -9e-5,25.66522 -0.0163,51.3305 0.0186,76.99566 0.005,3.49332 0.16269,6.99405 0.42511,10.47812 1.1576,15.37 11.38945,22.20166 25.98536,17.22946 7.29129,-2.48382 12.00467,-8.22473 16.36551,-14.1502 0.84145,-1.14338 0.63486,-3.17777 0.63677,-4.80143 0.0335,-28.49838 0.0242,-56.99679 0.0242,-85.49521 0,-1.81283 0,-3.62567 0,-5.74514 14.33306,0 28.4052,0 42.82207,0 0,48.0101 0,96.06064 0,144.39984 -11.41507,0 -22.84744,0 -34.87723,0 -1.06692,-6.25064 -2.16687,-12.69467 -3.32828,-19.49878 -2.71862,2.56668 -5.24362,4.8638 -7.67276,7.25818 -14.31584,14.11142 -31.38208,18.68399 -50.91783,14.75274 -11.56836,-2.32794 -19.81433,-8.92987 -25.11406,-19.40249 -5.46759,-10.80438 -7.28514,-22.41056 -7.41969,-34.32572 -0.15807,-13.99728 -0.0356,-27.99774 -0.0346,-42.49682 z"
     id="path1706" /><path
     fill="#443685"
     opacity="1"
     stroke="none"
     d="m 1208.52,491.96954 c -1.9468,-4.81039 -3.4443,-9.59414 -4.9204,-14.30914 -5.4442,3.62656 -10.8094,7.54999 -16.503,10.91882 -11.0423,6.53363 -23.1309,8.53244 -35.6199,6.08045 -17.2424,-3.38516 -28.0803,-14.31388 -32.0936,-31.12259 -4.1152,-17.23526 -0.6805,-32.8649 13.7594,-44.57645 12.4189,-10.07245 27.4763,-13.85974 42.7321,-16.84582 7.4903,-1.4661 15.0846,-2.40064 22.6315,-3.57831 1.1837,-8.7189 -4.5749,-17.31348 -13.1956,-19.49326 -9.2364,-2.33548 -18.2605,-0.96164 -26.9229,2.42795 -6.7951,2.65894 -13.3247,5.99588 -20.4783,9.2627 -4.835,-8.97293 -9.853,-18.2858 -15.1254,-28.07038 13.9278,-8.31427 28.2746,-15.30353 44.2373,-17.3941 10.1155,-1.32474 20.7185,-1.93625 30.734,-0.42471 25.1962,3.80267 39.4711,19.00967 43.0914,44.16906 1.0396,7.22464 1.5695,14.57852 1.6262,21.8786 0.1942,24.99604 0.074,49.99457 0.074,74.99213 0,1.8111 10e-5,3.62222 10e-5,6.11176 -11.4113,0 -22.4946,0 -34.0272,-0.0267 m -9.3568,-51.51855 c 0,-5.11026 0,-10.22052 0,-16.92035 -10.2305,3.14566 -19.6672,5.5867 -28.7068,9.06082 -3.4553,1.32794 -6.5465,4.61664 -8.8468,7.72089 -4.4518,6.0079 -3.3694,14.81595 2.041,18.34695 7.4915,4.88925 15.6808,4.70691 23.2598,0.70453 6.9269,-3.65781 14.4172,-7.72055 12.2528,-18.91284 z"
     id="path1708" /><path
     fill="#443685"
     opacity="1"
     stroke="none"
     d="m 980.01617,441.87793 c -5.99572,-30.4202 -1.65185,-57.89508 20.99483,-80.17307 24.5244,-24.12506 66.3341,-24.3692 88.9076,-0.92364 10.6224,11.03262 15.5592,24.77695 16.8619,39.64737 0.8767,10.00879 0.167,20.15649 0.167,30.70257 -29.7386,0 -58.3292,0 -86.9144,0 -0.039,15.5618 12.9494,28.84562 29.55,30.93927 13.794,1.73969 26.2937,-1.90112 38.4485,-9.13455 4.8446,8.77652 9.5447,17.29117 14.412,26.10877 -11.9922,8.25644 -24.8368,13.47775 -38.8182,15.39953 -25.4265,3.49485 -48.3492,-1.76236 -66.81223,-20.8197 -8.54687,-8.82199 -13.65308,-19.55582 -16.797,-31.74655 m 40.73233,-44.64444 c -0.5923,2.29883 -1.1845,4.59766 -1.7945,6.96549 17.7724,0 34.7838,0 52.5533,0 -0.9444,-4.69233 -1.4093,-9.00284 -2.7096,-13.04465 -2.6725,-8.30719 -8.3437,-13.25684 -17.2726,-14.3291 -14.5765,-1.75046 -25.1937,4.99258 -30.7766,20.40826 z"
     id="path1710" /><path
     fill="#443684"
     opacity="1"
     stroke="none"
     d="m 1423.8418,361.00781 c 0,6.79529 0,13.09271 0,19.8675 -11.6029,0 -22.8413,0 -34.6738,0 0,2.08248 1e-4,3.68768 1e-4,5.29287 2e-4,17.65555 -0.036,35.31128 0.038,52.96652 0.012,2.80832 0.3027,5.65744 0.8418,8.41398 1.8694,9.55969 10.0937,15.44918 19.7841,14.1004 3.7559,-0.52277 7.4393,-1.56772 11.728,-2.49909 2.204,10.21946 4.4188,20.4899 6.6872,31.00821 -16.5548,5.22901 -32.8601,7.59708 -49.4702,3.20188 -18.2092,-4.81839 -29.9514,-18.96167 -31.5783,-39.79367 -1.3194,-16.89212 -0.9061,-33.92197 -1.1818,-50.89203 -0.1134,-6.98364 -0.019,-13.97067 -0.019,-21.52472 -6.535,0 -12.9254,0 -19.5685,0 0,-10.98258 0,-21.39859 0,-32.21777 7.1469,-0.63907 14.231,-1.27256 21.8691,-1.95557 1.6665,-12.67172 3.3265,-25.29392 5.0246,-38.2063 11.9014,0 23.6411,0 35.7533,0 0,12.63309 0,25.0711 0,37.99036 11.5909,0 22.8303,0 34.7649,0 0,4.89614 0,9.32284 0,14.24743 z"
     id="path1712" /><path
     fill="#443785"
     opacity="1"
     stroke="none"
     d="m 667.90039,344.87268 c 21.49561,-3.3829 40.74591,-0.23828 56.91699,15.42993 -6.65472,9.04529 -13.04669,17.73343 -19.63244,26.685 -1.52314,-1.04776 -2.84418,-1.97748 -4.18604,-2.87637 -15.4176,-10.32828 -35.1286,-6.14438 -43.78924,10.25177 -8.79603,16.65243 -8.70673,34.1188 0.23535,50.70523 8.05255,14.93643 25.34955,19.62875 40.55578,11.98535 3.84766,-1.93402 7.45496,-4.34635 11.62378,-6.80496 5.60327,8.80951 11.26166,17.70572 17.30438,27.20611 -3.33502,2.46729 -6.33935,5.01834 -9.64642,7.08481 -27.43957,17.14587 -64.10864,14.22342 -88.08057,-7.45499 -13.44891,-12.1621 -19.7846,-28.1333 -21.66302,-45.89068 -2.45856,-23.24213 1.58276,-44.84262 17.42834,-63.02057 11.27045,-12.92944 25.78712,-20.15341 42.93311,-23.30063 z"
     id="path1714" /><path
     fill="#443785"
     opacity="1"
     stroke="none"
     d="m 1310.5487,359.00012 c 0,28.99954 10e-5,57.49903 5e-4,85.99854 0,1.16665 -0.01,2.33334 0,3.49994 0.083,9.75952 2.5338,12.16449 12.7461,11.85144 1.594,9.85983 3.2751,19.80334 4.6817,29.78549 0.1176,0.83529 -1.4473,2.51806 -2.5086,2.81576 -11.9468,3.35123 -24.044,4.16971 -35.8164,-0.30694 -14.6161,-5.55799 -19.6886,-17.99854 -21.5229,-32.22653 -0.7213,-5.59406 -0.9283,-11.28693 -0.9361,-16.9354 -0.069,-49.99902 -0.04,-99.9982 -0.04,-149.99731 0,-1.82675 0,-3.65354 0,-5.90537 14.4041,0 28.5972,0 43.3932,0 0,23.67499 0,47.29767 -10e-5,71.42038 z"
     id="path1716" /><path
     fill="#443684"
     opacity="1"
     stroke="none"
     d="m 478.75494,479.17078 c -5.57464,-10.13044 -6.68066,-20.89646 -6.70404,-31.75516 -0.11264,-52.31528 -0.0522,-104.63095 -0.0428,-156.94647 1.5e-4,-0.95575 0.12744,-1.91153 0.21035,-3.07685 14.22565,0 28.1597,0 42.94968,0 0,1.89707 0,3.7988 0,5.7005 0,50.81604 0,101.63205 0,152.44809 0,0.99967 -0.0164,1.99964 0.002,2.99893 0.17193,9.36033 3.16998,12.22349 12.91894,11.77622 1.63922,9.86212 3.33655,19.79196 4.85632,29.74887 0.12226,0.80036 -0.81561,2.41016 -1.53216,2.59561 -15.18506,3.93088 -30.2981,5.42978 -44.13108,-4.06714 -3.3059,-2.26965 -5.5903,-6.02722 -8.52719,-9.4226 z"
     id="path1718" /><path
     fill="#433584"
     opacity="1"
     stroke="none"
     d="m 1816.1481,316.12286 c -0.05,22.99366 -0.1225,45.98725 -0.1421,68.98093 -0.025,28.82806 0,57.65616 -0.011,86.48425 -0.01,11.7826 -8.0832,20.30506 -19.2799,20.4119 -11.6515,0.11121 -20.1129,-8.12683 -20.1347,-20.09497 -0.094,-51.48987 -0.065,-102.98001 0.097,-155.28382 0.171,-8.92349 0.066,-17.03488 0.2063,-25.14202 0.056,-3.20755 -1.0891,-4.41178 -4.3285,-4.36759 -7.7735,0.10602 -15.5507,-0.0559 -23.2221,-0.4136 6.2712,-6.66523 12.4379,-13.02655 18.8387,-19.43628 0.2339,-0.0484 0.7116,-0.0693 0.7905,0.25091 4.5914,4.95072 8.7322,10.03321 13.6951,14.11658 10.0531,8.27176 19.816,7.37357 29.151,-1.93942 4.0035,-3.99405 8.0417,-7.95337 12.2816,-11.90189 0.2175,0.0265 0.6549,0.0528 0.8424,0.34882 6.1669,6.49158 12.1462,12.68713 17.6538,18.93732 -9.0267,0.0546 -17.5816,0.0546 -26.4387,0.0546 0,10.17374 0,19.58402 0,28.99426 z"
     id="path1720" /><path
     fill="#c028b9"
     opacity="1"
     stroke="none"
     d="m 1372.0848,617.63055 c -16.1247,0.60608 -25.8197,11.33496 -35.9744,21.13495 -1.0246,0.98871 -0.9164,3.40564 -0.9194,5.16052 -0.051,30.48218 -0.037,60.96442 -0.037,91.44666 0,1.97968 -10e-5,3.95935 -10e-5,6.28302 -8.0348,0 -15.7684,0 -23.8311,0 0,-47.01648 0,-94.04822 0,-141.36945 6.4902,0 12.9067,0 19.7778,0 0.6994,6.41511 1.398,12.82306 2.2083,20.25629 1.7159,-1.49408 2.9844,-2.5824 4.2355,-3.69037 9.646,-8.54315 19.5416,-16.67962 32.6854,-19.2666 8.9503,-1.76147 17.8811,-1.61432 26.6543,0.96747 16.1379,4.74908 22.9494,17.23602 25.9167,32.40912 1.3012,6.65326 1.9142,13.53668 1.9651,20.32214 0.2112,28.14868 0.089,56.29981 0.089,84.45007 0,1.81702 -2e-4,3.63404 -2e-4,5.85865 -8.1261,0 -15.9975,0 -24.4724,0 0,-1.95508 0,-3.9076 -6e-4,-5.86017 -0.084,-29.81244 -0.1304,-59.62506 -0.3115,-89.43689 -0.019,-3.1264 -0.6067,-6.30121 -1.3209,-9.36243 -3.1575,-13.53534 -10.9362,-19.20935 -26.6645,-19.30298 z"
     id="path1722" /><path
     fill="#0498d6"
     opacity="1"
     stroke="none"
     d="m 1843.0586,287.01932 c -5.9794,-6.19553 -11.9587,-12.39108 -17.9446,-19.1655 6.208,-6.92929 12.4225,-13.27972 18.637,-19.63013 0.1643,-0.0658 0.3285,-0.13151 0.7398,-0.29152 31.0756,-0.0419 61.9037,0.023 92.732,0.0582 20.4986,0.0234 40.9972,-0.001 61.4958,0.006 12.3063,0.005 21.1431,8.28937 21.1315,19.7873 -0.011,11.25219 -9.0907,19.77728 -21.2412,19.78628 -50.9964,0.0378 -101.9928,0.0346 -153.6638,-0.003 -1.0786,-0.21573 -1.4826,-0.38175 -1.8865,-0.5477 z"
     id="path1724" /><path
     fill="#0498d6"
     opacity="1"
     stroke="none"
     d="m 1767.9384,267.31006 c -6.1668,6.36133 -12.3335,12.72265 -18.804,19.44452 -0.6488,0.55002 -0.9939,0.73956 -1.339,0.92907 -51.1418,-0.0341 -102.2836,-0.0537 -153.4254,-0.11142 -15.2509,-0.0172 -25.0273,-12.64556 -20.4273,-26.27459 2.7718,-8.21239 9.9855,-13.29018 19.0734,-13.29553 51.3092,-0.0303 102.6184,-0.0364 154.6391,-9.2e-4 0.8859,0.10164 1.0604,0.15349 1.3988,0.48697 6.4043,6.46171 12.6442,12.64181 18.8844,18.8219 z"
     id="path1726" /><path
     fill="#0498d6"
     opacity="1"
     stroke="none"
     d="m 1816.0942,218.77444 c 0,0.65081 -0.06,0.81533 -0.4956,1.34491 -6.618,6.64751 -12.8624,12.92997 -19.2385,19.34475 -6.7827,-6.49508 -13.0721,-12.51766 -19.4263,-18.74581 -0.2591,-0.57971 -0.4537,-0.95384 -0.6482,-1.32797 0.045,-44.61112 0.09,-89.22226 0.1346,-133.833397 0.01,-6.991486 -0.2321,-13.994019 0.08,-20.971878 0.4679,-10.460827 7.9877,-18.34668 18.0093,-19.391327 9.1713,-0.95602 18.2357,5.207451 20.7991,14.380737 0.6127,2.192642 0.668,4.592118 0.6699,6.896775 0.043,50.60563 0.043,101.21128 0.1157,152.30321 z"
     id="path1728" /><path
     fill="#443685"
     opacity="1"
     stroke="none"
     d="m 546.15735,436 c 0,-29.79181 0,-59.08362 0,-88.6886 14.40997,0 28.461,0 42.76318,0 0,48.16336 0,96.2052 0,144.46918 -14.18024,0 -28.12066,0 -42.76324,0 0,-18.43814 0,-36.85935 6e-5,-55.78058 z"
     id="path1730" /><path
     fill="#82b928"
     opacity="1"
     stroke="none"
     d="m 1775.9834,219.1707 c 0.4967,0.59375 0.6913,0.96788 0.9038,2.02183 0.018,9.2383 0.018,17.79677 0.018,27.01401 -9.8488,0 -18.932,0 -28.0154,0 -0.1743,-0.0519 -0.3488,-0.10371 -0.7774,-0.25543 -3.8264,-3.79965 -7.3464,-7.55182 -10.9797,-11.19081 -22.2334,-22.26772 -44.4886,-44.51363 -66.7455,-66.7579 -5.9336,-5.93027 -8.0489,-12.92099 -5.521,-20.98659 2.4856,-7.93071 8.2213,-12.38957 16.2835,-13.57552 6.9023,-1.01536 12.6065,1.65917 17.4955,6.56493 24.3278,24.41131 48.7202,48.75833 73.0941,73.12378 1.2942,1.29376 2.6271,2.54896 4.244,4.0417 z"
     id="path1732" /><path
     fill="#bf2cb9"
     opacity="1"
     stroke="none"
     d="m 1747.5499,287.99451 c 0.5906,-0.50037 0.9357,-0.68991 1.4801,-0.93604 7.9751,-0.003 15.7523,0.15909 23.5258,0.0531 3.2394,-0.0442 4.384,1.16004 4.3285,4.36759 -0.1404,8.10714 -0.035,16.21853 -0.1453,24.65792 -1.7707,1.6933 -3.5495,2.93195 -5.0604,4.43927 -23.2384,23.18473 -46.4164,46.43 -69.6687,69.60068 -7.0733,7.04852 -17.2046,8.13953 -25.1731,2.96027 -7.8665,-5.11298 -11.3241,-14.90134 -7.6559,-23.65818 1.4902,-3.55728 4.1193,-6.85198 6.8701,-9.63314 23.668,-23.92905 47.4827,-47.71317 71.4989,-71.85144 z"
     id="path1734" /><path
     fill="#c027b8"
     opacity="1"
     stroke="none"
     d="m 1842.5868,287.07394 c 0.8757,0.11133 1.2797,0.27735 1.8695,0.54776 9.4316,9.4556 18.6471,18.83677 27.9297,28.15122 15.1634,15.21551 30.3891,30.36914 45.5521,45.58526 8.585,8.61515 8.9415,20.8014 0.9351,28.95551 -7.8595,8.00442 -20.3753,7.71863 -28.9832,-0.85571 -24.4204,-24.32541 -48.7738,-48.71814 -73.4477,-73.20975 -0.2942,-9.53561 -0.2942,-18.94589 -0.2942,-29.11963 8.8571,0 17.412,0 26.4387,-0.0547 z"
     id="path1736" /><path
     fill="#453785"
     opacity="1"
     stroke="none"
     d="m 554.19775,322.95862 c -10.40478,-6.82675 -14.07403,-16.85312 -10.27459,-27.2916 3.65515,-10.04217 14.96423,-15.97656 27.42297,-14.39004 13.51916,1.72153 21.83777,10.82419 21.1947,23.19226 -0.66675,12.82159 -10.22552,21.64078 -24.01483,21.39657 -4.67682,-0.0829 -9.32483,-1.79055 -14.32825,-2.90719 z"
     id="path1738" /><path
     fill="#1e6d3b"
     opacity="1"
     stroke="none"
     d="m 1749.054,248.48816 c 8.9193,-0.28162 18.0025,-0.28162 27.8513,-0.28162 0,-9.21724 0,-17.77571 0.047,-26.80844 6.3361,5.54834 12.6255,11.57092 19.4082,18.066 6.3761,-6.41478 12.6205,-12.69724 19.1409,-19.09972 0.2757,8.8311 0.2757,17.78224 0.2757,27.69508 9.3459,0 18.2211,0 27.5353,0.0821 -5.7755,6.43253 -11.99,12.78296 -18.3855,19.41623 -0.181,0.28284 -0.6184,0.25659 -0.9682,-0.0451 -4.6823,-4.673 -8.9328,-9.12957 -13.3663,-13.3962 -7.1639,-6.8944 -18.6319,-8.055 -25.9386,-2.06894 -5.62,4.60446 -10.5387,10.06503 -15.7694,15.14483 0,-3e-5 -0.4777,0.0208 -0.7116,0.0693 -6.4742,-6.13169 -12.7141,-12.31179 -19.1184,-18.7735 z"
     id="path1740" /><path
     fill="#fefdfe"
     opacity="1"
     stroke="none"
     d="m 1515.8979,616.99988 c 12.1541,0.43719 21.9462,5.37848 30.4755,13.00189 1.2678,1.13306 2.1456,3.39227 2.1566,5.13715 0.1421,22.46893 0.1128,44.93908 0.05,67.40875 0,1.4176 -0.1995,3.24609 -1.0638,4.18732 -10.9941,11.97155 -24.3231,21.65875 -43.9786,17.38635 -11.5142,-2.50275 -19.4534,-9.7276 -23.7002,-20.24201 -8.8612,-21.93976 -9.5389,-44.14489 1.6347,-65.54364 6.9945,-13.39526 18.0252,-21.57629 34.4263,-21.33581 z"
     id="path1742" /><path
     fill="#fffeff"
     opacity="1"
     stroke="none"
     d="m 979.35376,645.7356 c 5.42279,17.76428 5.67334,35.20581 -0.5647,52.33422 -7.63995,20.97822 -26.44946,31.38428 -46.02807,25.96955 -10.76349,-2.97675 -18.72742,-9.83911 -23.34272,-19.70551 -10.73455,-22.94769 -10.86901,-46.22986 1.33271,-68.61279 10.59436,-19.43463 34.39868,-24.96448 51.99377,-12.97778 8.15045,5.55242 13.23395,13.43994 16.60901,22.99231 z"
     id="path1744" /><path
     fill="#fefcfe"
     opacity="1"
     stroke="none"
     d="m 1234.1436,722.26501 c -6.8201,1.34082 -13.28,3.40973 -19.767,3.49897 -10.2702,0.14135 -18.1533,-5.62854 -20.6987,-13.4889 -3.3814,-10.44073 -0.3526,-21.60119 7.877,-27.90228 2.8765,-2.20245 6.0655,-4.12829 9.3637,-5.62555 14.0753,-6.38977 29.1865,-8.53088 44.9081,-10.82415 0,12.84869 0.067,25.27746 -0.1078,37.70275 -0.017,1.19977 -1.2962,2.72028 -2.4041,3.51001 -6.204,4.42194 -12.5354,8.66504 -19.1712,13.12915 z"
     id="path1746" /><path
     fill="#fdfdfe"
     opacity="1"
     stroke="none"
     d="m 359.16473,411.00092 c 0,-4.32456 0.4242,-8.2085 -0.0988,-11.96042 -0.79855,-5.72888 1.43271,-9.85331 6.07556,-12.49945 4.97055,-2.83295 10.09061,-6.18613 15.54385,-7.22928 11.95746,-2.28739 21.41873,3.90878 25.13349,16.04007 4.73706,15.4696 5.07141,31.35434 -0.45645,46.56906 -8.849,24.35577 -31.95633,21.00738 -44.38324,10.23349 -1.20865,-1.04785 -1.71506,-3.44989 -1.73761,-5.23355 -0.14914,-11.80515 -0.0769,-23.61313 -0.0768,-35.91992 z"
     id="path1748" /><path
     fill="#fefefe"
     opacity="1"
     stroke="none"
     d="m 44.840172,358.00006 c -1.9e-5,-7.46637 -1.9e-5,-14.4328 -1.9e-5,-22.63034 13.044441,0.70468 25.922008,0.30167 38.394367,2.3573 14.976036,2.46826 20.25235,10.92532 19.92289,27.37833 -0.28784,14.37497 -8.104821,23.94812 -21.991875,26.80075 -2.596497,0.53338 -5.257027,1.00821 -7.894333,1.044 -9.281677,0.12601 -18.566109,0.049 -28.431007,0.049 0,-11.6495 0,-23.07428 -2.3e-5,-34.99902 z"
     id="path1750" /><path
     fill="#fdfdfe"
     opacity="1"
     stroke="none"
     d="m 1199.1632,440.93802 c 2.1644,10.70526 -5.3259,14.768 -12.2528,18.42581 -7.579,4.00238 -15.7683,4.18472 -23.2598,-0.70453 -5.4104,-3.531 -6.4928,-12.33905 -2.041,-18.34695 2.3003,-3.10425 5.3915,-6.39295 8.8468,-7.72089 9.0396,-3.47412 18.4763,-5.91516 28.7068,-9.06082 0,6.69983 0,11.81009 0,17.40738 z"
     id="path1752" /><path
     fill="#f9f9fb"
     opacity="1"
     stroke="none"
     d="m 1020.8535,396.8555 c 5.4779,-15.03769 16.0951,-21.78073 30.6716,-20.03027 8.9289,1.07226 14.6001,6.02191 17.2726,14.3291 1.3003,4.04181 1.7652,8.35232 2.7096,13.04465 -17.7695,0 -34.7809,0 -52.5533,0 0.61,-2.36783 1.2022,-4.66666 1.8995,-7.34348 z"
     id="path1754" /><path
     fill="#2f202b"
     opacity="1"
     stroke="none"
     d="m 1768.9629,267.51263 c 5.1518,-5.40005 10.0705,-10.86062 15.6905,-15.46508 7.3067,-5.98606 18.7747,-4.82546 25.9386,2.06894 4.4335,4.26663 8.684,8.7232 13.1488,13.36966 -3.8901,4.25021 -7.9283,8.20953 -11.9318,12.20358 -9.335,9.31299 -19.0979,10.21118 -29.151,1.93942 -4.9629,-4.08337 -9.1037,-9.16586 -13.6951,-14.11652 z"
     id="path1756" /></g>
</svg>
