<?xml version="1.0" encoding="UTF-8" standalone="no"?>
<!-- Created with Inkscape (http://www.inkscape.org/) -->

<svg
   width="180"
   height="130"
   viewBox="0 0 47.625001 34.395829"
   version="1.1"
   id="svg918"
   inkscape:version="1.2.2 (732a01da63, 2022-12-09)"
   sodipodi:docname="NHS Tayside.svg"
   xmlns:inkscape="http://www.inkscape.org/namespaces/inkscape"
   xmlns:sodipodi="http://sodipodi.sourceforge.net/DTD/sodipodi-0.dtd"
   xmlns="http://www.w3.org/2000/svg"
   xmlns:svg="http://www.w3.org/2000/svg"
   xmlns:rdf="http://www.w3.org/1999/02/22-rdf-syntax-ns#"
   xmlns:cc="http://creativecommons.org/ns#"
   xmlns:dc="http://purl.org/dc/elements/1.1/">
  <title
     id="title1180">NHS Tayside logo</title>
  <sodipodi:namedview
     id="namedview920"
     pagecolor="#ffffff"
     bordercolor="#000000"
     borderopacity="0.25"
     inkscape:showpageshadow="2"
     inkscape:pageopacity="0.0"
     inkscape:pagecheckerboard="0"
     inkscape:deskcolor="#d1d1d1"
     inkscape:document-units="mm"
     showgrid="false"
     inkscape:zoom="4.3924428"
     inkscape:cx="66.363984"
     inkscape:cy="89.81335"
     inkscape:window-width="1920"
     inkscape:window-height="1002"
     inkscape:window-x="2125"
     inkscape:window-y="-8"
     inkscape:window-maximized="1"
     inkscape:current-layer="layer1" />
  <defs
     id="defs915" />
  <g
     inkscape:label="Layer 1"
     inkscape:groupmode="layer"
     id="layer1"
     transform="translate(-132.35926,-106.61434)">
    <g
       id="g5038"
       transform="matrix(0.35277777,0,0,-0.35277777,97.189257,356.25488)">
      <path
         d="m 202.865,686.363 c -3.943,1.159 -6.276,1.417 -6.276,3.609 0,1.503 1.408,2.62 3.843,2.62 2.895,0 7.975,-2.257 7.975,-2.257 l 2.584,5.979 c 0,0 -4.566,2.68 -10.267,2.68 -7.64,0 -12.557,-4.168 -12.557,-9.667 0,-4.769 3.116,-6.917 9.782,-8.679 3.749,-0.988 6.037,-1.762 6.037,-4.211 0,-1.805 -1.704,-3.136 -3.895,-3.136 -4.922,0 -10.214,2.992 -10.214,2.992 l -2.763,-5.86 c 0,0 4.571,-3.62 11.857,-3.62 8.276,0 13.436,4.339 13.436,10.269 0,4.597 -3.115,7.39 -9.542,9.281"
         style="fill:#144a87;fill-opacity:1;fill-rule:nonzero;stroke:none"
         id="path4388" />
      <path
         d="m 131.481,698.411 c -3.72,-0.003 -7.52,0 -7.52,0 v -30.692 h 7.804 l -0.038,18.232 c 0,0 6.097,-10.537 11.522,-18.232 5.269,-0.011 6.506,0 6.506,0 v 30.685 H 142.1 l 0.006,-15.991 c 0,0 -4.282,7.466 -10.625,15.998"
         style="fill:#144a87;fill-opacity:1;fill-rule:nonzero;stroke:none"
         id="path4390" />
      <path
         d="m 174.889,667.776 v 13.22 h -11.587 v -13.22 h -7.804 V 698.4 h 7.804 v -11.645 h 11.587 V 698.4 h 7.786 v -30.624 h -7.786"
         style="fill:#144a87;fill-opacity:1;fill-rule:nonzero;stroke:none"
         id="path4392" />
      <path
         d="m 167.304,649.028 c -2.538,4.55 -11.191,12.08 -26.558,9.606 -5.836,-0.507 -8.26,-0.872 -11.355,-0.634 -12.234,0.939 -14.366,7.694 -14.481,8.062 h -3.057 c 0,0 1.681,-13.137 15.065,-15.357 3.279,-0.544 10.11,0.102 14.526,0.825 10.847,1.776 19.146,2.06 25.875,-7.243 0,0 0.088,-0.102 0.162,-0.102 0.139,0 0.173,0.102 0.173,0.102 0,0 0.874,1.782 -0.35,4.741"
         style="fill:#00a0e3;fill-opacity:1;fill-rule:nonzero;stroke:none"
         id="path4394" />
      <path
         d="m 219.48,666.062 c -0.116,-0.368 -2.379,-7.093 -14.615,-8.032 -3.094,-0.237 -5.518,0.127 -11.355,0.635 -15.236,2.452 -21.686,-5.058 -23.552,-9.142 -1.225,-2.741 -0.555,-5.236 -0.555,-5.236 0,0 0.044,-0.102 0.156,-0.102 0.075,0 0.16,0.102 0.16,0.102 6.728,9.303 12.247,9.05 23.093,7.273 4.417,-0.723 11.248,-1.368 14.527,-0.824 13.384,2.22 15.197,15.326 15.197,15.326 h -3.056"
         style="fill:#00a0e3;fill-opacity:1;fill-rule:nonzero;stroke:none"
         id="path4396" />
      <path
         d="m 136.773,624.129 v 12.938 h -4.612 v 2.007 h 12.234 v -2.007 h -4.612 v -12.938 h -3.01"
         style="fill:#144a87;fill-opacity:1;fill-rule:nonzero;stroke:none"
         id="path4398" />
      <path
         d="m 148.793,630.321 c 0.213,-3.139 -1.26,-4.548 -2.392,-4.548 -0.683,0 -1.281,0.64 -1.281,1.58 0,1.216 0.705,2.028 2.093,2.455 z m -0.043,-4.634 c 0,-0.576 0.064,-1.195 0.277,-1.558 h 3.011 c -0.342,0.747 -0.449,1.75 -0.449,2.605 v 4.355 c 0,3.33 -2.412,3.971 -4.376,3.971 -1.473,0 -2.776,-0.363 -4.1,-1.452 l 0.918,-1.345 c 0.748,0.641 1.602,1.089 2.819,1.089 0.918,0 1.793,-0.619 1.943,-1.601 l -2.52,-0.747 c -2.476,-0.705 -3.949,-1.858 -3.949,-3.886 0,-1.965 1.387,-3.246 3.053,-3.246 0.982,0 1.942,0.663 2.732,1.281 l 0.641,0.534"
         style="fill:#144a87;fill-opacity:1;fill-rule:nonzero;stroke:none"
         id="path4400" />
      <path
         d="m 155.347,635.018 c 0.918,-2.456 1.857,-4.932 2.754,-7.9 h 0.043 c 0.961,2.968 1.943,5.444 2.925,7.9 l 2.412,-0.449 -5.273,-11.87 c -0.577,-1.303 -1.9,-3.908 -4.676,-3.908 h -1.196 v 1.901 h 0.748 c 1.302,0 2.348,0.555 3.48,4.098 l -4.057,9.715 2.84,0.513"
         style="fill:#144a87;fill-opacity:1;fill-rule:nonzero;stroke:none"
         id="path4402" />
      <path
         d="m 169.715,632.797 c -0.64,0.47 -1.302,0.683 -1.815,0.683 -0.64,0 -1.28,-0.363 -1.28,-1.089 0,-0.854 1.025,-1.345 2.22,-2.22 1.516,-1.131 1.964,-2.242 1.964,-3.224 0,-1.494 -1.644,-3.075 -3.992,-3.075 -1.473,0 -2.562,0.513 -3.566,1.218 l 0.897,1.473 c 0.641,-0.513 1.559,-1.025 2.327,-1.025 0.812,0 1.538,0.427 1.538,1.324 0,1.003 -1.111,1.558 -2.136,2.284 -1.217,0.833 -2.049,1.644 -2.049,2.968 0,1.686 1.622,2.946 3.715,2.946 1.174,0 2.327,-0.299 3.095,-0.982 l -0.918,-1.281"
         style="fill:#144a87;fill-opacity:1;fill-rule:nonzero;stroke:none"
         id="path4404" />
      <path
         d="m 172.171,634.804 h 2.84 v -10.675 h -2.84 z m -0.278,3.202 c 0,0.812 0.683,1.644 1.644,1.644 0.982,0 1.751,-0.811 1.751,-1.644 0,-0.918 -0.663,-1.793 -1.708,-1.793 -1.004,0 -1.687,0.875 -1.687,1.793"
         style="fill:#144a87;fill-opacity:1;fill-rule:nonzero;stroke:none"
         id="path4406" />
      <path
         d="m 182.055,633.352 c 1.709,0 2.584,-1.729 2.584,-3.587 0,-2.135 -0.812,-4.184 -2.711,-4.184 -1.644,0 -2.456,2.007 -2.456,4.077 0,2.072 0.747,3.694 2.583,3.694 z m 2.584,-9.223 h 2.839 v 15.692 h -2.839 v -6.255 h -0.043 c -0.64,0.939 -1.879,1.494 -3.267,1.494 -2.86,0 -4.867,-2.69 -4.867,-5.465 0,-3.416 1.857,-5.723 4.654,-5.723 1.665,0 2.776,0.897 3.48,1.794 h 0.043 v -1.537"
         style="fill:#144a87;fill-opacity:1;fill-rule:nonzero;stroke:none"
         id="path4408" />
      <path
         d="m 191.791,630.747 c -0.022,1.431 0.704,2.733 2.327,2.733 1.409,0 1.985,-1.11 1.879,-2.733 z m 6.874,-1.537 c 0.214,3.181 -1.173,5.85 -4.505,5.85 -3.052,0 -5.444,-2.092 -5.444,-5.38 0,-3.523 2.413,-5.808 5.637,-5.808 1.217,0 2.733,0.342 4.185,1.196 l -0.812,1.495 c -0.705,-0.492 -1.815,-0.855 -2.861,-0.855 -1.772,0 -3.181,1.495 -3.117,3.502 h 6.917"
         style="fill:#144a87;fill-opacity:1;fill-rule:nonzero;stroke:none"
         id="path4410" />
    </g>
  </g>
  <metadata
     id="metadata1178">
    <rdf:RDF>
      <cc:Work
         rdf:about="">
        <dc:title>NHS Tayside logo</dc:title>
      </cc:Work>
    </rdf:RDF>
  </metadata>
</svg>
