<?xml version="1.0" encoding="UTF-8" standalone="no"?>
<!-- Created with Inkscape (http://www.inkscape.org/) -->

<svg
   width="920"
   height="439"
   viewBox="0 0 243.41666 116.15208"
   version="1.1"
   id="svg5"
   inkscape:version="1.3.2 (091e20e, 2023-11-25, custom)"
   sodipodi:docname="wave.svg"
   xmlns:inkscape="http://www.inkscape.org/namespaces/inkscape"
   xmlns:sodipodi="http://sodipodi.sourceforge.net/DTD/sodipodi-0.dtd"
   xmlns="http://www.w3.org/2000/svg"
   xmlns:svg="http://www.w3.org/2000/svg">
  <sodipodi:namedview
     id="namedview7"
     pagecolor="#ffffff"
     bordercolor="#000000"
     borderopacity="0.25"
     inkscape:showpageshadow="2"
     inkscape:pageopacity="0.0"
     inkscape:pagecheckerboard="0"
     inkscape:deskcolor="#d1d1d1"
     inkscape:document-units="mm"
     showgrid="false"
     inkscape:zoom="0.39379986"
     inkscape:cx="-2.539361"
     inkscape:cy="192.99144"
     inkscape:window-width="1920"
     inkscape:window-height="1002"
     inkscape:window-x="-8"
     inkscape:window-y="-8"
     inkscape:window-maximized="1"
     inkscape:current-layer="layer1" />
  <defs
     id="defs2" />
  <g
     inkscape:label="Layer 1"
     inkscape:groupmode="layer"
     id="layer1">
    <path
       d="m -0.29832039,50.114438 8.15287469,-3.4925 C 16.007429,43.155896 32.313178,36.170897 48.575445,34.821522 c 16.284008,-1.375834 32.502793,2.8575 48.786802,11.244791 16.262263,8.360833 32.568013,20.902083 48.830283,26.802291 16.28401,5.900209 32.50279,5.212292 48.78681,1.375834 16.26226,-3.836459 32.56801,-10.821459 40.72088,-14.2875 l 8.15288,-3.4925 V -0.42097825 h -8.15288 c -8.15287,0 -24.45862,0 -40.72088,0 -16.28402,0 -32.5028,0 -48.78681,0 -16.26227,0 -32.56802,0 -48.830283,0 -16.284009,0 -32.502794,0 -48.786802,0 -16.262267,0 -32.568016,0 -40.7208907,0 h -8.15287469 z"
       fill="#2a67a9"
       id="path182"
       style="stroke-width:0.239839" />
    <path
       d="M -0.29832039,69.164438 7.8545543,68.820479 c 8.1528747,-0.370416 24.4586237,-1.058333 40.7208907,-2.116666 16.284008,-1.058333 32.502793,-2.487084 48.786802,3.836458 16.262263,6.297083 32.568013,20.32 48.830283,25.929166 16.28401,5.582713 32.50279,2.778125 48.78681,-2.831041 16.26226,-5.609167 32.56801,-13.97 40.72088,-18.176875 l 8.15288,-4.180417 V 55.935271 l -8.15288,3.4925 c -8.15287,3.466042 -24.45862,10.451042 -40.72088,14.2875 -16.28402,3.836458 -32.5028,4.524375 -48.78681,-1.375833 C 129.93026,66.439229 113.62451,53.897979 97.362247,45.537146 81.078238,37.149855 64.859453,32.916522 48.575445,34.292355 32.313178,35.64173 16.007429,42.62673 7.8545543,46.092771 l -8.15287469,3.4925 z"
       fill="#1c5898"
       id="path184"
       style="stroke-width:0.239839" />
    <path
       d="M -0.29832039,92.183188 7.8545543,91.124854 c 8.1528747,-1.058333 24.4586237,-3.175 40.7208907,-1.058333 16.284008,2.116667 32.502793,8.466666 48.786802,14.075829 16.262263,5.58271 32.568013,8.88765 48.830283,12.00973 16.43252,0 32.20567,0.005 48.78681,0 16.26226,-3.4925 32.56801,-9.2316 40.72088,-13.43848 l 8.15288,-4.180413 V 70.751938 l -8.15288,4.180416 c -8.15287,4.206875 -24.45862,12.567709 -40.72088,18.176875 -16.28402,5.609167 -32.5028,8.413751 -48.78681,2.831042 C 129.93026,90.331104 113.62451,76.308188 97.362247,70.011104 81.078238,63.687563 64.859453,65.116313 48.575445,66.174646 32.313178,67.232979 16.007429,67.920896 7.8545543,68.291313 l -8.15287469,0.343958 z"
       fill="#0b4a88"
       id="path186"
       style="stroke-width:0.239839"
       sodipodi:nodetypes="csccccccccccccccc" />
    <path
       d="m -0.29832039,117.6314 8.15287469,0.10818 c 8.2205557,0.10909 24.4586237,-1.5875 40.7208907,-1.5875 68.112675,0.0225 128.433625,0 195.277655,0 V 98.004021 l -8.15288,4.180419 C 152.60877,118.20246 146.26964,115.61026 97.362247,103.61319 81.078238,98.004021 64.859453,91.654021 48.575445,89.537354 c -16.262267,-2.116666 -32.568016,0 -40.7208907,1.058334 l -8.15287469,1.058333 z"
       fill="#004079"
       id="path188"
       style="stroke-width:0.239839"
       sodipodi:nodetypes="csccccccscc" />
  </g>
</svg>
